<?xml version="1.0" standalone="no"?><!DOCTYPE svg PUBLIC "-//W3C//DTD SVG 1.1//EN" "http://www.w3.org/Graphics/SVG/1.1/DTD/svg11.dtd"><svg class="icon" width="200px" height="200.00px" viewBox="0 0 1024 1024" version="1.1" xmlns="http://www.w3.org/2000/svg"><path fill="#333333" d="M479.95313 414.959477c35.296553 0 63.993751 28.697198 63.99375 63.99375s-28.697198 63.993751-63.99375 63.993751-63.993751-28.697198-63.993751-63.993751 28.697198-63.993751 63.993751-63.99375z m0-63.993751c-70.693096 0-127.987501 57.294405-127.987502 127.987501s57.294405 127.987501 127.987502 127.987501 127.987501-57.294405 127.987501-127.987501-57.294405-127.987501-127.987501-127.987501zM1013.501025 968.305439l-70.093155-64.293721c2.399766-18.998145-3.699639-38.796211-18.198223-53.394786l-63.99375-63.993751c-2.199785-2.199785-4.599551-4.29958-6.999317-6.099404 32.796797-40.796016 59.094229-86.991505 77.292452-137.186603 8.29919-22.897764 14.898545-46.495459 19.598086-70.893077 5.799434-29.997071 8.899131-60.894053 8.899131-92.590958 0-31.696905-3.099697-62.593887-8.899131-92.590958-4.699541-24.297627-11.298897-47.995313-19.598086-70.893076-48.395274-133.586954-154.384923-239.576604-287.971877-287.971878-22.897764-8.29919-46.495459-14.898545-70.893077-19.598086C542.547017 3.099697 511.650034 0 479.95313 0s-62.593887 3.099697-92.590958 8.899131c-24.297627 4.799531-47.995313 11.298897-70.893077 19.598086-133.586954 48.395274-239.576604 154.384923-287.971878 287.971878-8.29919 22.897764-14.898545 46.495459-19.598086 70.893077C3.099697 417.359242 0 448.256225 0 479.95313c0 31.696905 3.099697 62.593887 8.899131 92.590957 4.799531 24.297627 11.398887 47.995313 19.598086 70.893077 48.395274 133.586954 154.384923 239.576604 287.971878 287.971878 22.897764 8.29919 46.495459 14.898545 70.893077 19.598086 29.997071 5.899424 60.894053 8.899131 92.590958 8.899131s62.593887-3.099697 92.590957-8.899131c24.297627-4.799531 47.995313-11.298897 70.893077-19.598086 42.995801-15.598477 83.191876-37.096377 119.488332-63.69378 2.299775 3.299678 4.899522 6.499365 7.799238 9.499073l63.993751 63.99375c12.498779 12.498779 28.897178 18.798164 45.295576 18.798164 8.29919 0 16.598379-1.599844 24.497608-4.799531l65.893565 60.394102c6.099404 5.599453 13.898643 8.39918 21.597891 8.39918 8.69915 0 17.298311-3.499658 23.597695-10.398984 11.798848-13.098721 10.998926-33.396739-2.099795-45.295577zM895.912509 479.95313c0 9.099111-0.299971 18.198223-0.899913 27.197344-0.19998 3.399668-4.39957 4.999512-6.799336 2.599746l-24.097646-24.097647c-3.099697-3.099697-3.099697-8.199199 0-11.298897l24.097646-24.097646c2.399766-2.399766 6.599356-0.899912 6.799336 2.599746 0.599941 8.899131 0.899912 17.998242 0.899913 27.097354zM479.95313 63.993751c9.099111 0 18.198223 0.299971 27.197344 0.899912 3.399668 0.19998 4.999512 4.39957 2.599746 6.799336l-24.097647 24.097646c-3.099697 3.099697-8.199199 3.099697-11.298897 0l-24.097646-24.097646c-2.399766-2.399766-0.899912-6.599356 2.599746-6.799336 8.899131-0.599941 17.998242-0.899912 27.097354-0.899912zM63.993751 479.95313c0-9.099111 0.299971-18.198223 0.899912-27.197344 0.19998-3.399668 4.39957-4.999512 6.799336-2.599747l24.097646 24.097647c3.099697 3.099697 3.099697 8.199199 0 11.298897l-24.097646 24.097646c-2.399766 2.399766-6.599356 0.899912-6.799336-2.599746-0.599941-8.899131-0.899912-17.998242-0.899912-27.097353z m415.959379 415.959379c-9.099111 0-18.198223-0.299971-27.197344-0.899913-3.399668-0.19998-4.999512-4.39957-2.599747-6.799336l24.097647-24.097646c3.099697-3.099697 8.199199-3.099697 11.298897 0l24.097646 24.097646c2.399766 2.399766 0.899912 6.599356-2.599746 6.799336-8.899131 0.599941-17.998242 0.899912-27.097353 0.899913z m294.171272-121.788107c-38.19627 38.19627-82.691925 68.19334-132.287081 89.19129-9.999024 4.19959-20.098037 7.999219-30.297042 11.398887-11.498877 3.799629-24.097647 0.799922-32.596816-7.799239l-53.694757-53.694756c-24.997559-24.997559-65.493604-24.997559-90.491163 0L380.962797 866.91534c-8.49917 8.49917-21.19793 11.598867-32.596817 7.799239-10.199004-3.399668-20.298018-7.199297-30.297041-11.398887-49.495166-20.897959-93.990821-50.99502-132.287082-89.19129-38.19627-38.19627-68.19334-82.691925-89.19129-132.287081-4.19959-9.999024-7.999219-20.098037-11.398887-30.297042-3.799629-11.498877-0.799922-24.097647 7.799239-32.596816l53.694756-53.694757c24.997559-24.997559 24.997559-65.493604 0-90.491163L92.990919 380.962797c-8.49917-8.49917-11.598867-21.19793-7.799239-32.596817 3.399668-10.199004 7.199297-20.298018 11.398887-30.297041 20.897959-49.495166 50.99502-93.990821 89.19129-132.287082 38.19627-38.19627 82.691925-68.19334 132.287082-89.19129 9.999024-4.19959 20.098037-7.999219 30.297041-11.398887 11.498877-3.799629 24.097647-0.799922 32.596817 7.799239l53.694756 53.694756c24.997559 24.997559 65.493604 24.997559 90.491163 0L578.943463 92.990919c8.49917-8.49917 21.19793-11.598867 32.596816-7.799239 10.199004 3.399668 20.298018 7.199297 30.297042 11.398887 49.495166 20.897959 93.990821 50.99502 132.287081 89.19129 38.19627 38.19627 68.19334 82.691925 89.19129 132.287082 4.19959 9.999024 7.999219 20.098037 11.398887 30.297041 3.799629 11.498877 0.799922 24.097647-7.799239 32.596817l-53.694756 53.694756c-24.997559 24.997559-24.997559 65.493604 0 90.491163L866.91534 578.943463c8.49917 8.49917 11.598867 21.19793 7.799239 32.596816-3.399668 10.199004-7.199297 20.298018-11.398887 30.297042-20.997949 49.495166-50.99502 93.990821-89.19129 132.287081z" /></svg>