<?xml version="1.0" standalone="no"?><!DOCTYPE svg PUBLIC "-//W3C//DTD SVG 1.1//EN" "http://www.w3.org/Graphics/SVG/1.1/DTD/svg11.dtd"><svg class="icon" width="200px" height="200.00px" viewBox="0 0 1024 1024" version="1.1" xmlns="http://www.w3.org/2000/svg"><path fill="#333333" d="M896 352c8.8 0 16.8-3.6 22.6-9.4 5.8-5.8 9.4-13.8 9.4-22.6v-96c0-17.7-14.3-32-32-32-8.8 0-16.8-3.6-22.6-9.4-5.8-5.8-9.4-13.8-9.4-22.6V64c0-35.4-28.7-64-64-64H160c-35.3 0-64 28.6-64 64v896c0 35.3 28.7 64 64 64h640c35.3 0 64-28.7 64-64v-64c0-17.7 14.3-32 32-32 8.8 0 16.8-3.6 22.6-9.4 5.8-5.8 9.4-13.8 9.4-22.6v-96c0-17.7-14.3-32-32-32-8.8 0-16.8-3.6-22.6-9.4-5.8-5.8-9.4-13.8-9.4-22.6v-32c0-17.7 14.3-32 32-32 8.8 0 16.8-3.6 22.6-9.4 5.8-5.8 9.4-13.8 9.4-22.6v-96c0-17.7-14.3-32-32-32-8.8 0-16.8-3.6-22.6-9.4-5.8-5.8-9.4-13.8-9.4-22.6v-32c0-17.7 14.3-32 32-32zM624 736H336c-8.8 0-16.8-3.6-22.6-9.4-5.8-5.8-9.4-13.8-9.4-22.6 0-57.1 27.2-107.8 69.3-140 4-3.1 4.3-9 0.5-12.3-33-29.3-53.8-72.1-53.8-119.7 0-87.7 70.5-158.9 157.9-160 87.8-1.1 160.7 69.6 162 157.4 0.8 48.6-20.1 92.4-53.7 122.2-3.8 3.4-3.6 9.3 0.4 12.4 21.1 16.1 38.4 36.8 50.4 60.6 12.1 23.8 18.8 50.8 18.8 79.3 0.2 17.8-14.1 32.1-31.8 32.1z" /></svg>