<?xml version="1.0" standalone="no"?><!DOCTYPE svg PUBLIC "-//W3C//DTD SVG 1.1//EN" "http://www.w3.org/Graphics/SVG/1.1/DTD/svg11.dtd"><svg class="icon" width="200px" height="200.00px" viewBox="0 0 1024 1024" version="1.1" xmlns="http://www.w3.org/2000/svg"><path fill="#333333" d="M240 176v80c0 8.8-7.2 16-16 16H80c-8.8 0-16-7.2-16-16v-80c0-8.8 7.2-16 16-16h144c8.8 0 16 7.2 16 16zM32 96c-17.7 0-32 14.3-32 32v176c0 17.7 14.3 32 32 32h240c17.7 0 32-14.3 32-32V128c0-17.7-14.3-32-32-32H32zM240 480v64c0 8.8-7.2 16-16 16H80c-8.8 0-16-7.2-16-16v-64c0-8.8 7.2-16 16-16h144c8.8 0 16 7.2 16 16zM32 400c-17.7 0-32 14.3-32 32v160c0 17.7 14.3 32 32 32h240c17.7 0 32-14.3 32-32V432c0-17.7-14.3-32-32-32H32zM240 768v80c0 8.8-7.2 16-16 16H80c-8.8 0-16-7.2-16-16v-80c0-8.8 7.2-16 16-16h144c8.8 0 16 7.2 16 16zM32 688c-17.7 0-32 14.3-32 32v176c0 17.7 14.3 32 32 32h240c17.7 0 32-14.3 32-32V720c0-17.7-14.3-32-32-32H32zM960 176v80c0 8.8-7.2 16-16 16H800c-8.8 0-16-7.2-16-16v-80c0-8.8 7.2-16 16-16h144c8.8 0 16 7.2 16 16zM752 96c-17.7 0-32 14.3-32 32v176c0 17.7 14.3 32 32 32h240c17.7 0 32-14.3 32-32V128c0-17.7-14.3-32-32-32H752zM960 480v64c0 8.8-7.2 16-16 16H800c-8.8 0-16-7.2-16-16v-64c0-8.8 7.2-16 16-16h144c8.8 0 16 7.2 16 16z m-208-80c-17.7 0-32 14.3-32 32v160c0 17.7 14.3 32 32 32h240c17.7 0 32-14.3 32-32V432c0-17.7-14.3-32-32-32H752zM960 768v80c0 8.8-7.2 16-16 16H800c-8.8 0-16-7.2-16-16v-80c0-8.8 7.2-16 16-16h144c8.8 0 16 7.2 16 16z m-208-80c-17.7 0-32 14.3-32 32v176c0 17.7 14.3 32 32 32h240c17.7 0 32-14.3 32-32V720c0-17.7-14.3-32-32-32H752zM592 176v80c0 8.8-7.2 16-16 16H448c-8.8 0-16-7.2-16-16v-80c0-8.8 7.2-16 16-16h128c8.8 0 16 7.2 16 16zM400 96c-17.7 0-32 14.3-32 32v176c0 17.7 14.3 32 32 32h224c17.7 0 32-14.3 32-32V128c0-17.7-14.3-32-32-32H400zM592 480v64c0 8.8-7.2 16-16 16H448c-8.8 0-16-7.2-16-16v-64c0-8.8 7.2-16 16-16h128c8.8 0 16 7.2 16 16z m-192-80c-17.7 0-32 14.3-32 32v160c0 17.7 14.3 32 32 32h224c17.7 0 32-14.3 32-32V432c0-17.7-14.3-32-32-32H400zM592 768v80c0 8.8-7.2 16-16 16H448c-8.8 0-16-7.2-16-16v-80c0-8.8 7.2-16 16-16h128c8.8 0 16 7.2 16 16z m-192-80c-17.7 0-32 14.3-32 32v176c0 17.7 14.3 32 32 32h224c17.7 0 32-14.3 32-32V720c0-17.7-14.3-32-32-32H400z" /></svg>