<?xml version="1.0" standalone="no"?><!DOCTYPE svg PUBLIC "-//W3C//DTD SVG 1.1//EN" "http://www.w3.org/Graphics/SVG/1.1/DTD/svg11.dtd"><svg class="icon" width="200px" height="200.00px" viewBox="0 0 1024 1024" version="1.1" xmlns="http://www.w3.org/2000/svg"><path fill="#333333" d="M529.096599 1023.80004h-0.29994c-5.398926 0.19996-10.797852 0.19996-16.196778 0.19996-5.398926 0-10.897832-0.09998-16.296759-0.29994h32.793477zM920.518743 706.963061l-135.473053 57.588545c-3.299344 1.399722-3.199364 6.098787 0.09998 7.398528l48.490355 19.596103c9.998011 3.999205 13.197375 16.496719 6.498707 24.895048-65.287014 80.783932-175.964999 134.673213-296.041116 142.671621V527.898678h219.95625c2.199562 0 3.999205-1.799642 3.999204-3.999205v-55.988863c0-2.199562-1.799642-3.999205-3.999204-3.999205H543.993636v-7.998409c0-66.886696 28.394352-130.174108 77.084668-176.06498C652.372079 250.353883 671.968181 208.462216 671.968181 161.971463 671.968181 72.189321 598.682758-0.596201 508.900616 0.003679 419.918316 0.60356 348.032614 72.889182 348.032614 161.971463c0 46.990653 19.996023 89.382221 52.089639 118.976335 50.389977 46.590733 79.884111 111.477826 79.884111 180.164164v2.899423H260.050114c-2.199562 0-3.999205 1.799642-3.999204 3.999205v55.988863c0 2.199562 1.799642 3.999205 3.999204 3.999205h219.95625v431.014268c-119.376255-8.39833-230.354181-61.98767-295.841156-142.671621-6.798648-8.298349-3.499304-20.895844 6.398728-24.895049l48.390374-19.596102c3.299344-1.299741 3.299344-5.998807 0.099981-7.398528l-135.573034-57.388585c-4.099185-1.699662-8.79825 0.19996-10.497912 4.199165L35.59476 846.835239c-1.399722 3.299344 1.899622 6.598687 5.198966 5.298946l57.888485-23.395346c6.998608-2.799443 14.897037-0.39992 19.196182 5.798846 38.492344 55.788903 93.981307 102.479616 161.567863 135.972954 61.58775 30.493935 130.174108 48.490355 200.560108 52.68952 5.398926 0.29994 10.897832 0.599881 16.296758 0.699861h32.793477c4.999006-0.19996 9.998011-0.39992 14.897037-0.699861 76.284826-4.399125 150.37009-24.895048 215.057224-59.688128 61.187829-32.893457 111.677787-77.184647 147.370687-128.974346 4.299145-6.198767 12.197574-8.59829 19.196182-5.798846l57.888485 23.395346c3.299344 1.299741 6.598687-1.999602 5.198966-5.298946l-57.588545-135.473053c-1.799642-4.199165-6.498707-6.098787-10.597892-4.399125zM510.000398 259.951974c-53.989261 0-97.980511-43.99125-97.980511-97.980511s43.99125-97.980511 97.980511-97.980511 97.980511 43.99125 97.980511 97.980511-43.99125 97.980511-97.980511 97.980511z" /></svg>