<?xml version="1.0" standalone="no"?><!DOCTYPE svg PUBLIC "-//W3C//DTD SVG 1.1//EN" "http://www.w3.org/Graphics/SVG/1.1/DTD/svg11.dtd"><svg class="icon" width="200px" height="200.00px" viewBox="0 0 1024 1024" version="1.1" xmlns="http://www.w3.org/2000/svg"><path fill="#333333" d="M96 128v768c0 70.7 57.3 128 128 128h576c70.7 0 128-57.3 128-128V128C928 57.3 870.7 0 800 0H224C153.3 0 96 57.3 96 128z m304-64h224c8.8 0 16 7.2 16 16s-7.2 16-16 16H400c-8.8 0-16-7.2-16-16s7.2-16 16-16z m400 896H224c-35.3 0-64-28.7-64-64V128c0-35.3 28.7-64 64-64h64c17.7 0 32 14.3 32 32 0 35.3 28.7 64 64 64h256c35.3 0 64-28.7 64-64 0-17.7 14.3-32 32-32h64c35.3 0 64 28.7 64 64v768c0 35.3-28.7 64-64 64zM733.6 435.7L507.4 662c-25 25-65.5 25-90.5 0l-90.5-90.5c-12.5-12.5-12.5-32.8 0-45.3s32.8-12.5 45.3 0l79.2 79.2c6.2 6.2 16.4 6.2 22.6 0l215-215c12.5-12.5 32.8-12.5 45.3 0 12.3 12.6 12.3 32.8-0.2 45.3z" /></svg>