<?xml version="1.0" standalone="no"?><!DOCTYPE svg PUBLIC "-//W3C//DTD SVG 1.1//EN" "http://www.w3.org/Graphics/SVG/1.1/DTD/svg11.dtd"><svg class="icon" width="200px" height="200.00px" viewBox="0 0 1024 1024" version="1.1" xmlns="http://www.w3.org/2000/svg"><path fill="#333333" d="M96 112v800c0 61.9 50.1 112 112 112h608c61.9 0 112-50.1 112-112V112C928 50.1 877.9 0 816 0H208C146.1 0 96 50.1 96 112z m704 848H224c-35.3 0-64-28.7-64-64V342c0-6.7 7.7-10.4 12.9-6.3C263.2 405.6 382 448 512 448s248.8-42.4 339.1-112.3c5.3-4.1 12.9-0.4 12.9 6.3v554c0 35.3-28.7 64-64 64z m64-778.1c0 38.9-17.6 75.8-48.1 100C736 345.2 629.2 384 512 384s-224-38.8-303.9-102.1c-30.5-24.2-48.1-61.1-48.1-100V128c0-35.3 28.7-64 64-64h576c35.3 0 64 28.7 64 64v53.9zM512 512c-26.5 0-48 21.5-48 48s21.5 48 48 48 48-21.5 48-48-21.5-48-48-48z" /></svg>