<?xml version="1.0" standalone="no"?><!DOCTYPE svg PUBLIC "-//W3C//DTD SVG 1.1//EN" "http://www.w3.org/Graphics/SVG/1.1/DTD/svg11.dtd"><svg class="icon" width="200px" height="200.00px" viewBox="0 0 1024 1024" version="1.1" xmlns="http://www.w3.org/2000/svg"><path fill="#333333" d="M771.723909 791.268183l-213.937323 213.937323c-24.992678 24.992678-65.480816 24.992678-90.473494 0l-214.93703-214.93703c-1.599531-1.599531-1.599531-4.098799 0-5.698331l39.588402-39.588401c1.599531-1.599531 4.098799-1.599531 5.69833 0l175.648541 175.64854c2.499268 2.499268 6.798008 0.699795 6.798008-2.79918V3.998828c0-2.199356 1.799473-3.998828 3.998828-3.998828h55.983599c2.199356 0 3.998828 1.799473 3.998828 3.998828v914.831983c0 3.598946 4.298741 5.298448 6.798009 2.79918l175.64854-175.64854c1.599531-1.599531 4.098799-1.599531 5.698331 0l39.588402 39.588402c1.499561 1.599531 1.499561 4.098799-0.099971 5.69833z" /></svg>