<?xml version="1.0" standalone="no"?><!DOCTYPE svg PUBLIC "-//W3C//DTD SVG 1.1//EN" "http://www.w3.org/Graphics/SVG/1.1/DTD/svg11.dtd"><svg class="icon" width="200px" height="200.00px" viewBox="0 0 1024 1024" version="1.1" xmlns="http://www.w3.org/2000/svg"><path fill="#333333" d="M782.980917 779.457465l-225.800772 225.800771c-24.989018 24.989018-65.471228 24.989018-90.460247 0L241.019083 779.457465c-1.599297-1.599297-1.599297-4.098199 0-5.697496l62.172678-62.172678c1.599297-1.599297 4.098199-1.599297 5.697497 0l148.334813 148.334814c2.498902 2.498902 6.797013 0.699693 6.797013-2.798771V3.998243c0-2.199034 1.799209-3.998243 3.998243-3.998243h87.961346c2.199034 0 3.998243 1.799209 3.998243 3.998243v853.125091c0 3.598419 4.298111 5.297672 6.797013 2.798771l148.334813-148.334814c1.599297-1.599297 4.098199-1.599297 5.697497 0l62.172678 62.172678c1.599297 1.599297 1.599297 4.098199 0 5.697496z" /></svg>