<?xml version="1.0" standalone="no"?><!DOCTYPE svg PUBLIC "-//W3C//DTD SVG 1.1//EN" "http://www.w3.org/Graphics/SVG/1.1/DTD/svg11.dtd"><svg class="icon" width="200px" height="200.00px" viewBox="0 0 1024 1024" version="1.1" xmlns="http://www.w3.org/2000/svg"><path fill="#333333" d="M771.736588 232.69319l-213.947767-213.947767c-24.993898-24.993898-65.484013-24.993898-90.477911 0l-214.947522 214.947523c-1.599609 1.599609-1.599609 4.098999 0 5.698609l39.590334 39.590334c1.599609 1.599609 4.098999 1.599609 5.698609 0l175.657115-175.657115c2.49939-2.49939 6.79834-0.699829 6.79834 2.799317V1020.000976c0 2.199463 1.799561 3.999024 3.999024 3.999024h55.986331c2.199463 0 3.999024-1.799561 3.999024-3.999024V105.124335c0-3.599121 4.29895-5.298706 6.79834-2.799317l175.657115 175.657115c1.599609 1.599609 4.098999 1.599609 5.698609 0l39.590334-39.590334c1.499634-1.599609 1.499634-4.098999-0.099975-5.698609z" /></svg>