<?xml version="1.0" standalone="no"?><!DOCTYPE svg PUBLIC "-//W3C//DTD SVG 1.1//EN" "http://www.w3.org/Graphics/SVG/1.1/DTD/svg11.dtd"><svg class="icon" width="200px" height="200.00px" viewBox="0 0 1024 1024" version="1.1" xmlns="http://www.w3.org/2000/svg"><path fill="#333333" d="M232.75 252.1l-214 214c-25 25-25 65.5 0 90.5l215 215c1.6 1.6 4.1 1.6 5.7 0L279.05 732c1.6-1.6 1.6-4.1 0-5.7L103.25 550.7c-2.5-2.5-0.7-6.8 2.8-6.8h914.1c2.2 0 4-1.8 4-4v-56c0-2.2-1.8-4-4-4H105.05c-3.6 0-5.3-4.3-2.8-6.8l175.7-175.7c1.6-1.6 1.6-4.1 0-5.7l-39.6-39.6c-1.5-1.6-4.1-1.6-5.6 0z" /></svg>