<?xml version="1.0" standalone="no"?><!DOCTYPE svg PUBLIC "-//W3C//DTD SVG 1.1//EN" "http://www.w3.org/Graphics/SVG/1.1/DTD/svg11.dtd"><svg class="icon" width="200px" height="200.00px" viewBox="0 0 1024 1024" version="1.1" xmlns="http://www.w3.org/2000/svg"><path fill="#333333" d="M511.9 136.2c87.3 0 160.2 14.8 216.8 43.8 26.4 13.5 49.3 30.4 68.2 50 18.7 19.5 34.1 42.3 45.6 67.9 0.5 1.3 6.5 17.6 12.2 76.7 3.2 33.6 4.6 63.3 4.6 63.6l0.4 8.4 1.6 5c0.2 1.6 0.7 4.9 1.1 10.3l3.1 40.6 38.1 14.4c16.7 6.3 30.9 17.4 41 32.1 10.1 14.7 15.4 31.9 15.4 49.8v0.2c0 48.3-38.6 87.7-86.1 87.7h-40.8l-18.7 30.5c-31.9 51.8-76.7 95-129.7 124.9-52.9 29.9-112.7 45.7-172.8 45.7-60.3 0-120.1-15.8-172.9-45.6-52.8-29.8-97.5-73-129.2-124.8L191 686.8h-40.9c-22.8 0-44.3-9.1-60.6-25.5C73.1 644.7 64 622.6 64 599.2c0-18.3 5.4-35.8 15.7-50.6 10.1-14.6 24.1-25.5 40.5-31.6l39.1-14.6 2.4-41.7c0.7-12.2 0.5-21.6 0.1-28.2 1.1-10.4 3.6-33.2 6.7-57.9 7.3-56.7 11.7-73.6 12.8-77 11.5-25.4 26.7-48 45.3-67.3 18.9-19.7 41.9-36.6 68.2-50.1 56.7-29.2 129.7-44 217.1-44m0-64c-196.2 0-330.7 69.1-389.5 200.4C111 298 97.5 432 97.5 432s1.3 7.9 0.3 25C39.5 478.7 0 535 0 599.2c0 83.6 67.5 151.7 150.1 151.7h5c76.1 124.4 211.2 201 356.7 201 145.1 0 280.5-76.7 357-201h5c82.8 0 150.1-68.1 150.1-151.7 0.3-63.1-38.7-119.8-97.8-142.1-1.3-16.5-2.9-21.8-2.9-21.8s-5.8-126.2-22.2-163.2C842.4 141.3 707.9 72.2 511.9 72.2zM484.3 193.2c72.8-6.6 90.5 17.9 91.4 34 0.3 12.8-15.7 12.8-20.8 40.1-1.6 14.5 2.8 28.9 12.2 40.1 7.7 9 6.7 22.4-2.2 30.2-3.6 3.7-8.6 5.7-13.7 5.6-6.2 0.1-12.1-2.6-16.1-7.4-17.1-20-25.3-46.2-22.5-72.5 0.8-7.4 2.3-14.7 4.6-21.8-9 8.1-16.1 17.8-20.7 29-7.9 18.2-7.9 38.8 0 57 4.8 10.9-0.2 23.6-11.1 28.4-2.6 1.1-5.4 1.8-8.2 1.8-8.5-0.1-16.1-5.1-19.6-12.8-12.7-28.9-12.7-61.3-0.2-91.3 3.3-7.9 7.4-15.5 12.3-22.5-34.4 12.5-53.5 40.7-42.1 81 3.9 11.1-2 23.3-13.1 27.2h-0.1c-2.1 0.8-4.4 1.3-6.7 1.2-9.1-0.1-17.1-5.9-20.1-14.4-0.3-0.9-0.6-1.7-0.9-2.6-14.5-46.9 9-97 53.5-117.6 12.8-5.8 28.3-11.2 44.1-12.7zM224 520a80 88 0 1 0 160 0 80 88 0 1 0-160 0ZM640 520a80 88 0 1 0 160 0 80 88 0 1 0-160 0ZM384 816c-6.7 0-13.4-2.1-19.2-6.4-14.1-10.6-17-30.7-6.4-44.8C413.2 691.7 496 688 512 688c91.4 0 144 64 153.6 76.8 10.6 14.1 7.7 34.2-6.4 44.8-14.1 10.6-34.2 7.7-44.8-6.4C610.5 798 574.2 752 512 752c-6.6 0-65.1 1.4-102.4 51.2-6.3 8.4-15.9 12.8-25.6 12.8z" /></svg>