<?xml version="1.0" standalone="no"?><!DOCTYPE svg PUBLIC "-//W3C//DTD SVG 1.1//EN" "http://www.w3.org/Graphics/SVG/1.1/DTD/svg11.dtd"><svg class="icon" width="200px" height="200.00px" viewBox="0 0 1024 1024" version="1.1" xmlns="http://www.w3.org/2000/svg"><path fill="#333333" d="M840 376m-184 0a184 184 0 1 0 368 0 184 184 0 1 0-368 0ZM788.3 699.2L646 452.8c-28.8-49.9-87.5-74.4-143.3-59.8l-183.2 47.9c-12.2 3.2-24.5 5.7-37 7.4-23.3 3.1-50.5 12.7-70.9 37.6-15.6 19-24.2 44-24.4 70.4-0.1 11.6 1.4 23.2 4.5 34.6 3.8 14.2 3.8 29.1 0 43.3l-3.9 14.7c-11.2 42-49.3 71.2-92.7 71.2H16c-8.8 0-16 7.2-16 16v80c0 8.8 7.2 16 16 16h108.7c76.8 0 144-51.6 163.8-125.8 0.2-0.7 0.4-1.4 0.5-2.1 1.3-4.9 1.8-9.9 1.6-14.8 9.9 2.9 20 4.9 30.2 5.9 3 0.3 5.5 2.1 7 4.6l11.6 20.1H321c-8.8 0-16 7.2-16 16v80c0 8.8 7.2 16 16 16h59.7c24.1 0 45.9-9.8 61.7-25.6s25.6-37.6 25.6-61.7c0-14.9-3.8-29.5-11.1-42.5l-25-44.9c-3.1-5.6-7-10.6-11.5-14.9 0.4-3.9 0.5-7.8 0.5-11.4v-0.2c0.2-8.3 7.1-14.9 15.4-15 5.2 0 10.5-0.7 15.7-2.1l124.7-33.4c7-1.9 14.4 1.2 18 7.5l96.7 167.5c15.5 26.8 49.7 36 76.5 20.5 26.7-15.5 35.9-49.8 20.4-76.6zM389 626c-8.7-1.7-17.9-1.6-27 0.7-10 2.5-19.4 6.6-26.1 13.3l-0.3 0.3c-6.5 6.5-10.9 14.4-13 22.9-19.2-2.1-40.1-8.5-57.7-20.5-10.7-7.3-20-16.6-27.7-27.7-23.6-36-24-80.8-0.9-108.9 13.6-16.6 32.2-23.5 48.8-26L390 595.5c2.1 2.3 2.8 5.5 2 8.4-2.2 8-2.8 15.6-3 22.1z" /></svg>