<?xml version="1.0" standalone="no"?><!DOCTYPE svg PUBLIC "-//W3C//DTD SVG 1.1//EN" "http://www.w3.org/Graphics/SVG/1.1/DTD/svg11.dtd"><svg class="icon" width="200px" height="200.00px" viewBox="0 0 1024 1024" version="1.1" xmlns="http://www.w3.org/2000/svg"><path fill="#333333" d="M512 352.014673c38.499159 0 74.598371 14.999672 101.797777 42.199079C640.997183 421.413158 655.996856 457.51237 655.996856 496.011529s-14.999672 74.598371-42.199079 101.797777C586.598371 625.008712 550.499159 640.008385 512 640.008385s-74.598371-14.999672-101.797777-42.199079C383.002817 570.6099 368.003144 534.510688 368.003144 496.011529s14.999672-74.598371 42.199079-101.797777C437.401629 367.014346 473.500841 352.014673 512 352.014673z m0-63.998602c-114.897491 0-207.995458 93.097967-207.995458 207.995458s93.097967 207.995458 207.995458 207.995458 207.995458-93.097967 207.995458-207.995458-93.097967-207.995458-207.995458-207.995458zM543.999301 128.019565h-63.998602c-17.599616 0-31.999301 14.399686-31.999302 31.999301s14.399686 31.999301 31.999302 31.999301h63.998602c17.599616 0 31.999301-14.399686 31.999302-31.999301s-14.399686-31.999301-31.999302-31.999301zM943.990567 432.012927C943.990567 194.918104 752.994738 2.422307 516.499902 0.02236 277.105129-2.377588 82.209385 188.718239 80.009433 428.013014c-1.699963 186.39593 114.697495 345.892447 278.993908 408.091089 24.799458 9.399795 40.999105 33.299273 40.999105 59.698696V952.001572c0 4.399904-3.599921 7.999825-7.999826 7.999825h-71.998428c-35.299229 0-63.998603 28.699373-63.998602 63.998603h511.98882c0-35.299229-28.699373-63.998603-63.998602-63.998603h-71.998428c-4.399904 0-7.999825-3.599921-7.999826-7.999825v-56.198773c0-26.599419 16.49964-50.398899 41.299099-59.798694C828.193096 774.105457 943.990567 616.608896 943.990567 432.012927zM551.999127 960.001397h-79.998254c-4.399904 0-7.999825-3.599921-7.999825-7.999825v-90.698019c15.799655 1.799961 31.799306 2.699941 47.998952 2.699941s32.199297-0.89998 47.998952-2.699941V952.001572c0 4.399904-3.599921 7.999825-7.999825 7.999825z m-39.999127-159.996506c-49.698915 0-97.897862-9.699788-143.196873-28.899369-43.799044-18.499596-83.198183-45.099015-116.997445-78.898277-33.799262-33.799262-60.398681-73.198402-78.898278-116.997445C153.707824 529.910789 144.008035 481.711841 144.008035 432.012927c0-49.698915 9.699788-97.897862 28.899369-143.196874 18.499596-43.799044 45.099015-83.198183 78.898278-116.997445 33.799262-33.799262 73.198402-60.398681 116.997445-78.898277C414.102138 73.72075 462.301085 64.020962 512 64.020962s97.897862 9.699788 143.196873 28.899369c43.799044 18.499596 83.198183 45.099015 116.997445 78.898277 33.799262 33.799262 60.398681 73.198402 78.898278 116.997445C870.292176 334.115064 879.991965 382.314012 879.991965 432.012927c0 49.698915-9.699788 97.897862-28.899369 143.196873-18.499596 43.799044-45.099015 83.198183-78.898278 116.997445-33.799262 33.799262-73.198402 60.398681-116.997445 78.898277C609.897862 790.305103 561.698915 800.004891 512 800.004891z" /></svg>