<?xml version="1.0" standalone="no"?><!DOCTYPE svg PUBLIC "-//W3C//DTD SVG 1.1//EN" "http://www.w3.org/Graphics/SVG/1.1/DTD/svg11.dtd"><svg class="icon" width="200px" height="200.00px" viewBox="0 0 1024 1024" version="1.1" xmlns="http://www.w3.org/2000/svg"><path fill="#333333" d="M858.486567 707.912255c-2.799891-1.999922-5.399791-4.199837-7.799698-6.599745-11.499554-11.59955-18.699275-27.59893-18.699275-45.298243V384.024812c0-87.996588-35.998604-167.993487-93.996356-225.991239-43.098329-43.098329-98.296189-74.097127-159.993797-87.096623-10.699585-2.299911-17.999302-11.899539-17.999302-22.799116v-1.699934c-0.799969-24.999031-20.999186-45.39824-45.998217-46.398202-27.398938-1.099957-49.998062 20.799194-49.998061 47.99814v0.199992c0 10.999574-7.399713 20.499205-18.099298 22.799116C301.308168 102.13574 192.012406 232.930669 192.012406 386.224726V656.014267c0 21.39917-10.499593 40.298438-26.498973 51.897988-26.098988 18.899267-34.998643 53.89791-19.299252 82.096817 6.499748 11.699546 14.69943 22.399132 24.099066 31.898763 25.898996 25.998992 61.8976 42.098368 101.696057 42.098368h19.399248c13.899461 0 26.198984 9.099647 30.498818 22.299135 26.198984 79.996899 101.396069 137.694662 190.09263 137.694662s163.893646-57.697763 190.09263-137.694662c4.299833-13.299484 16.599356-22.299135 30.498818-22.299135H751.990696c54.097903 0 101.296073-29.898841 125.895119-73.997131 15.699391-28.198907 6.69974-63.19755-19.399248-82.096817zM608.196271 920.204024C582.497267 945.803032 548.298593 960.002481 512 960.002481s-70.497267-14.199449-96.196271-39.798457c-14.599434-14.599434-25.499011-31.898763-32.098755-50.79803-0.899965-2.599899 0.999961-5.399791 3.799853-5.399791h248.990346c2.799891 0 4.699818 2.699895 3.799853 5.399791-6.69974 18.899267-17.499322 36.198597-32.098755 50.79803z m203.192122-146.594316C796.688963 789.809079 775.489785 800.008684 751.990696 800.008684H272.009304c-23.499089 0-44.698267-10.199605-59.397697-26.398976-5.999767-6.599744-5.399791-16.699353 1.199954-22.69912 25.898996-23.399093 42.198364-57.297779 42.198364-94.896321V386.224726c0-34.398666 6.799736-67.897368 20.199217-99.596138 12.999496-30.69881 31.598775-58.497732 55.19786-82.29681 23.599085-23.899073 50.998023-42.698345 81.49684-55.797837 31.398783-13.499477 64.597496-20.399209 98.896166-20.499205h0.299988c34.398666 0 67.797372 6.799736 99.196154 20.199217 30.498818 12.8995 57.897755 31.498779 81.496841 55.097864s42.198364 50.998023 55.097864 81.49684c13.399481 31.498779 20.199217 64.897484 20.199217 99.196155v271.989455c0 37.598542 16.299368 71.397232 42.198363 94.896321 6.499748 5.899771 6.999729 16.099376 1.099958 22.69912z" /></svg>