<?xml version="1.0" standalone="no"?><!DOCTYPE svg PUBLIC "-//W3C//DTD SVG 1.1//EN" "http://www.w3.org/Graphics/SVG/1.1/DTD/svg11.dtd"><svg class="icon" width="200px" height="200.00px" viewBox="0 0 1024 1024" version="1.1" xmlns="http://www.w3.org/2000/svg"><path fill="#333333" d="M864 0H160c-35.3 0-64 28.6-64 64v896c0 35.3 28.7 64 64 64h704c35.3 0 64-28.7 64-64V64c0-35.4-28.7-64-64-64zM256 860v-56c0-2.2 1.8-4 4-4h504c2.2 0 4 1.8 4 4v56c0 2.2-1.8 4-4 4H260c-2.2 0-4-1.8-4-4z m512-128c0 2.2-1.8 4-4 4H260c-2.2 0-4-1.8-4-4v-56c0-2.2 1.8-4 4-4h504c2.2 0 4 1.8 4 4v56zM606.3 288H684c2.2 0 4 1.8 4 4v56c0 2.2-1.8 4-4 4H552c-4.4 0-8 3.6-8 8v52c0 2.2 1.8 4 4 4h136c2.2 0 4 1.8 4 4v56c0 2.2-1.8 4-4 4H548c-2.2 0-4 1.8-4 4v88c0 2.2-1.8 4-4 4h-56c-2.2 0-4-1.8-4-4v-88c0-2.2-1.8-4-4-4H340c-2.2 0-4-1.8-4-4v-56c0-2.2 1.8-4 4-4h136c2.2 0 4-1.8 4-4v-52c0-4.4-3.6-8-8-8H340c-2.2 0-4-1.8-4-4v-56c0-2.2 1.8-4 4-4h69.7c3.6 0 5.3-4.3 2.8-6.8L307.2 175.8c-1.6-1.6-1.6-4.1 0-5.7l39.6-39.6c1.6-1.6 4.1-1.6 5.7 0l144.3 144.3c6.2 6.2 16.4 6.2 22.6 0l144.3-144.3c1.6-1.6 4.1-1.6 5.7 0l39.6 39.6c1.6 1.6 1.6 4.1 0 5.7L603.5 281.2c-2.5 2.5-0.8 6.8 2.8 6.8z" /></svg>