<?xml version="1.0" standalone="no"?><!DOCTYPE svg PUBLIC "-//W3C//DTD SVG 1.1//EN" "http://www.w3.org/Graphics/SVG/1.1/DTD/svg11.dtd"><svg class="icon" width="200px" height="200.00px" viewBox="0 0 1024 1024" version="1.1" xmlns="http://www.w3.org/2000/svg"><path fill="#333333" d="M831.968753 0H192.031247c-52.994825 0-95.990626 42.995801-95.990626 95.990626v834.418514c0 1.599844 0.09999 3.299678 0.299971 4.899521 0.09999 0.799922 0.09999 1.599844 0.19998 2.499756 4.599551 44.995606 40.696026 80.992091 85.691632 85.691632 0.799922 0.09999 1.599844 0.19998 2.499756 0.19998 1.599844 0.09999 3.299678 0.19998 4.899521 0.299971h644.937018c1.599844 0 3.299678-0.09999 4.899522-0.299971 0.799922-0.09999 1.599844-0.09999 2.499756-0.19998 44.995606-4.599551 80.992091-40.696026 85.691631-85.691632 0.09999-0.799922 0.19998-1.599844 0.199981-2.499756 0.09999-1.599844 0.19998-3.299678 0.29997-4.899521V95.990626C927.959379 42.995801 884.963578 0 831.968753 0z m31.996875 927.909384v2.099795c0 0.299971 0 0.499951-0.09999 0.799922-0.09999 0.799922-0.19998 1.499854-0.299971 2.299775 0 0.299971-0.09999 0.599941-0.19998 0.899912 0 0.299971-0.09999 0.599941-0.199981 0.899912-2.699736 12.098818-12.198809 21.597891-24.297627 24.297628-0.299971 0.09999-0.599941 0.09999-0.899912 0.19998-0.299971 0.09999-0.599941 0.09999-0.899912 0.09999-0.699932 0.09999-1.499854 0.19998-2.299775 0.299971-0.299971 0-0.499951 0-0.799922 0.09999H189.931452c-0.299971 0-0.499951 0-0.799922-0.09999-0.799922-0.09999-1.499854-0.19998-2.299775-0.299971-0.299971 0-0.599941-0.09999-0.899912-0.09999-0.299971 0-0.599941-0.09999-0.899913-0.19998-12.098818-2.699736-21.597891-12.198809-24.297627-24.297628-0.09999-0.299971-0.09999-0.599941-0.19998-0.899912-0.09999-0.299971-0.09999-0.599941-0.199981-0.899912-0.09999-0.699932-0.19998-1.499854-0.29997-2.299775 0-0.299971 0-0.499951-0.099991-0.799922v-0.999903V899.912118c0-2.199785 1.799824-3.999609 3.99961-3.999609h667.934772c17.798262 0 32.096866 14.298604 32.096865 31.996875zM160.034372 827.919149V95.990626c0-17.698272 14.298604-31.996875 31.996875-31.996875h639.937506c17.698272 0 31.996875 14.298604 31.996875 31.996875v671.934381c0 35.296553-28.697198 63.993751-63.99375 63.993751H164.033981c-2.199785 0-3.999609-1.799824-3.999609-3.999609zM703.981252 283.972268c0 2.199785-1.799824 3.999609-3.99961 3.99961H324.018358c-2.199785 0-3.999609-1.799824-3.99961-3.99961v-55.994531c0-2.199785 1.799824-3.999609 3.99961-3.99961h375.963284c2.199785 0 3.999609 1.799824 3.99961 3.99961v55.994531zM272.023435 159.984377c-8.799141 0-15.998438 7.199297-15.998437 15.998437v159.984377c0 8.799141 7.199297 15.998438 15.998437 15.998437h479.95313c8.799141 0 15.998438-7.199297 15.998437-15.998437V175.982814c0-8.799141-7.199297-15.998438-15.998437-15.998437H272.023435zM759.975784 479.95313H264.024216c-4.39957 0-7.999219-3.599648-7.999218-7.999219v-47.995313c0-4.39957 3.599648-7.999219 7.999218-7.999219h495.951568c4.39957 0 7.999219 3.599648 7.999218 7.999219v47.995313c0 4.39957-3.599648 7.999219-7.999218 7.999219zM759.975784 607.940631H264.024216c-4.39957 0-7.999219-3.599648-7.999218-7.999219v-47.995313c0-4.39957 3.599648-7.999219 7.999218-7.999219h495.951568c4.39957 0 7.999219 3.599648 7.999218 7.999219v47.995313c0 4.39957-3.599648 7.999219-7.999218 7.999219z" /></svg>