<?xml version="1.0" standalone="no"?><!DOCTYPE svg PUBLIC "-//W3C//DTD SVG 1.1//EN" "http://www.w3.org/Graphics/SVG/1.1/DTD/svg11.dtd"><svg class="icon" width="200px" height="200.00px" viewBox="0 0 1024 1024" version="1.1" xmlns="http://www.w3.org/2000/svg"><path fill="#333333" d="M904.9 258.2l-0.5-0.1-1.2-0.4-0.7-0.4-0.9-0.4-0.9-0.5c-0.2-0.1-0.4-0.2-0.6-0.4-0.2-0.2-0.6-0.4-0.8-0.6l-0.6-0.4c-0.2-0.2-0.5-0.4-0.8-0.6-0.3-0.1-0.4-0.4-0.6-0.5l-0.6-0.6c-0.3-0.3-0.4-0.5-0.6-0.6-0.1-0.3-0.4-0.4-0.5-0.6l-0.6-0.9-0.4-0.6-0.6-1c-0.2-0.2-0.3-0.3-0.3-0.6l-0.5-1c-0.1-0.2-0.2-0.5-0.3-0.7l-0.4-1c-0.1-0.4-0.3-0.6-0.3-1l-0.2-0.7c-0.2-0.5-0.2-0.9-0.3-1.4 0-0.1 0-0.3-0.2-0.4C877 132.3 775.3 54.6 664.6 69.4c-15 2-29.7 5.7-43.8 10.9-38.2 14.2-71.2 39.7-94.7 73-27 38.1-39.9 84.5-36.5 131.2 0.8 10.1-6.8 18.9-16.9 19.6h-1.5c-9.7 0-17.7-7.5-18.3-17.1-0.4-5.7-0.6-11.4-0.6-17.2v-0.8l-2 1.6c-22.1 15.6-48.6 23.9-75.6 23.8-10.2 0-18.4-8.2-18.4-18.4s8.2-18.4 18.4-18.4c39.1 0 74.8-24.6 88.7-61.1 0.4-0.9 0.8-1.8 1.3-2.7 7.4-21.9 17.8-42.6 31.4-61.7 20.1-28.5 46.2-52.2 76.4-69.5-36.2-15.3-75.1-23.1-114.4-23.1-47.5 0-92.8 10.9-134.6 32.5-39.4 20.5-73.7 49.4-100.5 84.8-3.9 7.1-11.8 10.8-19.8 9.3l-0.6-0.1-0.9-0.3C117.3 142.9 30.3 193 7.6 277.6c-8.1 30.2-7.1 62.1 2.8 91.7 2 4.5 2 9.7 0.2 14.2-29.9 74.2 6.1 158.5 80.2 188.4 4.7 1.9 9.4 3.5 14.2 4.9l0.6 0.3c2.2 0.7 4.3 1.8 6.1 3.2 6-44.5 29.6-84.6 65.6-111.4 8.2-6 19.7-4.3 25.8 3.9s4.3 19.7-3.9 25.8c-57 42-69.2 122.2-27.2 179.2 2.1 2.9 4.4 5.7 6.8 8.4 42.8 40.5 99.6 63.1 158.5 63 21.6 0 43-3 63.5-8.9 0.3-0.1 0.4-0.1 0.6-0.1 29.9-8.7 57.7-23.3 81.9-42.9 2-3 4.8-5.4 8.1-7 24.8-22.2 44.5-49.4 57.9-79.9 1.4-4.1 3-8 4.8-11.8 7.7-20.8 12.4-42.5 13.8-64.7 0.7-10.1 9.4-17.7 19.5-17.1h0.1c10.1 0.7 17.7 9.4 17.1 19.5v0.1c-0.1 2.5-0.4 4.8-0.6 7.2 38.9-23 87.2-23.1 126.3-0.3 8.9 5.2 11.8 16.5 6.7 25.2-5.1 8.8-16.3 11.8-25 6.7 0 0-0.1 0-0.1-0.1-42-24.6-95.9-10.5-120.5 31.4-1.2 2-2.3 4.1-3.3 6.3-1.4 3.9-3.1 7.7-4.6 11.4v0.3c-8.2 19-18.8 37.1-31.3 53.8 68.7-5.3 136.7 15.9 190.2 59.3 27.7 19.5 60.8 29.9 94.7 29.8 16.1 0 31.7-2.4 47-6.8 3.3-2.5 7.4-3.9 11.5-3.8 29.9-11.2 55.8-30.9 74.7-56.6 21.2-28.4 32.5-63 32.4-98.4 0.1-22.7-4.6-45.2-13.6-66l-0.3-0.6c-28.9-65.9-97.1-105.6-168.7-98.1-10.1 1-19.1-6.4-20.1-16.4-1-10.1 6.4-19.1 16.4-20.1 75.6-7.7 149.1 27.5 190.5 91.3 11.4-22.8 17.3-47.9 17.3-73.9 0-36.6-11.7-71.3-33.8-100.2-21.3-28.6-51.3-49.6-85.5-59.6zM719.8 766.4c-0.2-0.1-0.3-0.3-0.4-0.3-58.5-48-136.9-64.3-209.7-43.5-18.3 15.3-38.4 28.1-60 38.1 45.6 18.7 97.5 13.8 138.6-13.3 8.5-5.5 19.9-3.2 25.5 5.3 5.5 8.5 3.2 19.9-5.3 25.5-7.7 5-15.8 9.5-24.2 13.3 15.6 10.9 32.3 19.6 50.1 26.2h0.1c48.2 17.9 100.9 19.4 150 4.1 15-4.6 29.4-10.9 43.1-18.5-38.5-1.7-75.7-14.3-107.1-36.6l-0.7-0.3z m52.3 96.8c-27.7 5.9-56.1 7.4-84.3 4.6 23.4 26.4 49.7 61.8 64.9 101.5 4.3 11.4 16.6 17.7 28.4 14.5 12.7-3.3 20.4-16.3 17.1-29-0.5-2-1.3-3.8-2.2-5.6-13.9-26.7-22-56-23.9-86z" /></svg>