<?xml version="1.0" standalone="no"?><!DOCTYPE svg PUBLIC "-//W3C//DTD SVG 1.1//EN" "http://www.w3.org/Graphics/SVG/1.1/DTD/svg11.dtd"><svg class="icon" width="200px" height="200.00px" viewBox="0 0 1024 1024" version="1.1" xmlns="http://www.w3.org/2000/svg"><path fill="#333333" d="M714.45475 215c10.8 3.7 23.8 9.1 38.8 16.8 35.8 18.3 70.7 43.3 98.3 70.5C920.35475 370 945.85475 452 954.85475 494.8c8.7 41 5.9 60-0.7 105.9-6.3 43.3-14.8 102.5-17.9 207.8-0.9 31.5-1 56.1-1.1 76v0.3c-0.1 14.3-14.2 24.2-27.7 19.5-4.6-1.6-9.5-3.5-14.9-5.8-24-10.3-48.5-25-71.1-42.6-23.8-18.6-44.3-39.8-59.2-61.1-15.2-21.7-24.4-42.9-27.5-63.2-2.4-16-0.8-29 1.4-46.9 3.4-27.3 7.7-61.4-1.8-111.2-9.9-51.9-35.4-102-77.8-152.6 34.1-22.2 55.4-56.4 65.1-72.1 0.3-0.5 0.7-1.1 1-1.6 12.9-16.7 17.6-38.5 13-60.9-1.9-9.1-4.9-17.2-8.1-25.8-3.6-9.7-7.7-20.6-10.8-34.7-0.8-3.5-1.6-7.1-2.3-10.8m-404.5 0c-0.8 3.7-1.5 7.3-2.3 10.8-3 14-7.1 25-10.8 34.6-3.2 8.6-6.3 16.7-8.1 25.8-4.6 22.4 0.1 44.2 13 60.9 0.3 0.5 0.7 1.1 1 1.6 9.7 15.7 31 49.9 65.1 72.1-42.4 50.6-67.9 100.7-77.8 152.6-9.5 49.9-5.3 83.9-1.8 111.2 2.2 17.9 3.9 30.9 1.4 46.9-3.1 20.2-12.3 41.5-27.5 63.2-15 21.4-35.5 42.5-59.2 61.1-22.5 17.6-47.1 32.4-71.1 42.6-5.4 2.3-10.3 4.2-14.9 5.8-13.5 4.8-27.6-5.2-27.7-19.5v-0.3c-0.1-19.8-0.2-44.5-1.1-76-3.1-105.3-11.7-164.5-17.9-207.8-6.6-45.9-9.4-64.8-0.7-105.9 5.7-27.1 14.9-55.1 26.6-81.1 19.3-42.8 45.1-80.3 76.7-111.4 27.6-27.2 62.5-52.2 98.3-70.5 15-7.6 28.1-13 38.8-16.7M536.35475 47.8h-48c-4.4 0-8 3.6-8 8v235.8c0 36.5-21.3 69.7-54.6 84.8l-0.3 0.1c-40.7-7.2-68.1-63.3-72.5-68-7.4-7.7 8.3-27.5 17.3-69.2 6-27.9 15.2-70.4 0-86.5-5.8-6.1-15.6-9-28.3-9-50.1 0-145.1 45-214 112.8C41.15475 342 14.65475 444.9 6.85475 481.6-13.64525 578.5 17.75475 590.4 24.15475 810.4c3.4 115.1-4.4 140.3 17.3 155.7 9.7 6.9 22.7 10.1 38.1 10.1 88.9 0 254.1-108.2 273.4-235 8.4-55.2-13.8-83.2 0-155.7 11.5-60.3 49.3-108.5 80.6-142.2l40.1-18.2c12.2-5.6 25.4-8.3 38.5-8.3s26.3 2.8 38.5 8.3l40.1 18.2c31.3 33.7 69.1 82 80.6 142.2 13.8 72.5-8.4 100.6 0 155.7 19.3 126.9 184.5 235 273.4 235 15.3 0 28.4-3.2 38.1-10.1 21.7-15.5 13.9-40.6 17.3-155.7 6.4-220 37.8-231.9 17.3-328.8-7.8-36.7-34.3-139.5-121.1-224.9-68.9-67.8-163.9-112.8-214-112.8-12.7 0-22.5 2.9-28.3 9-15.2 16.2-6 58.6 0 86.5 9 41.7 24.7 61.5 17.3 69.2-4.4 4.7-31.8 60.7-72.5 68-33.2-15.1-54.6-48.3-54.6-84.8v-236c0.1-4.4-3.5-8-7.9-8z" /></svg>