<?xml version="1.0" standalone="no"?><!DOCTYPE svg PUBLIC "-//W3C//DTD SVG 1.1//EN" "http://www.w3.org/Graphics/SVG/1.1/DTD/svg11.dtd"><svg class="icon" width="200px" height="200.00px" viewBox="0 0 1024 1024" version="1.1" xmlns="http://www.w3.org/2000/svg"><path fill="#333333" d="M736 169v-25c0-53-43-96-96-96H384c-53 0-96 43-96 96v25c0 4.4-3.6 8-8 8H128C57.3 177 0 234.3 0 305v608c0 35.3 28.7 64 64 64h896c35.3 0 64-28.7 64-64V305c0-70.7-57.3-128-128-128H744c-4.4 0-8-3.6-8-8z m-352-57h256c17.7 0 32 14.3 32 32v24c0 4.4-3.6 8-8 8H360c-4.4 0-8-3.6-8-8v-24c0-17.7 14.3-32 32-32z m544 801H96c-17.7 0-32-14.3-32-32V500c0-2.2 1.8-4 4-4h324c4.4 0 8 3.6 8 8v40c0 35.3 28.7 64 64 64h96c35.3 0 64-28.7 64-64v-40c0-4.4 3.6-8 8-8h324c2.2 0 4 1.8 4 4v381c0 17.7-14.3 32-32 32zM472 496h80c4.4 0 8 3.6 8 8v32c0 4.4-3.6 8-8 8h-80c-4.4 0-8-3.6-8-8v-32c0-4.4 3.6-8 8-8z m484-64H68c-2.2 0-4-1.8-4-4V305c0-35.3 28.7-64 64-64h768c35.3 0 64 28.7 64 64v123c0 2.2-1.8 4-4 4z" /></svg>