<?xml version="1.0" standalone="no"?><!DOCTYPE svg PUBLIC "-//W3C//DTD SVG 1.1//EN" "http://www.w3.org/Graphics/SVG/1.1/DTD/svg11.dtd"><svg class="icon" width="200px" height="200.00px" viewBox="0 0 1024 1024" version="1.1" xmlns="http://www.w3.org/2000/svg"><path fill="#333333" d="M1000.7 903.4h-46.5V350.8c0-50.6-41.9-92.1-93.1-92.1H674.9v644.7h-46.6V120.5c0-50.6-41.9-92.1-93.1-92.1H162.9c-51.2 0-93.1 41.5-93.1 92.1v782.9H23.3c-14 0-23.3 9.2-23.3 23.1v46.1c0 13.8 9.2 23.1 23.3 23.1h977.4c14 0 23.3-9.2 23.3-23.1v-46.1c0-13.8-9.3-23.1-23.3-23.1zM302.6 696.2c0 13.8-9.3 23.1-23.3 23.1h-93.1c-14 0-23.3-9.2-23.3-23.1v-46.1c0-13.8 9.3-23.1 23.3-23.1h93.1c14 0 23.3 9.2 23.3 23.1v46.1z m0-184.2c0 13.8-9.3 23.1-23.3 23.1h-93.1c-14 0-23.3-9.2-23.3-23.1v-46.1c0-13.8 9.3-23.1 23.3-23.1h93.1c14 0 23.3 9.2 23.3 23.1V512z m0-184.3c0 13.8-9.3 23.1-23.3 23.1h-93.1c-14 0-23.3-9.2-23.3-23.1v-46.1c0-13.8 9.3-23.1 23.3-23.1h93.1c14 0 23.3 9.2 23.3 23.1v46.1z m232.7 368.5c0 13.8-9.3 23.1-23.3 23.1h-93.1c-14 0-23.3-9.2-23.3-23.1v-46.1c0-13.8 9.3-23.1 23.3-23.1H512c14 0 23.3 9.2 23.3 23.1v46.1z m0-184.2c0 13.8-9.3 23.1-23.3 23.1h-93.1c-14 0-23.3-9.2-23.3-23.1v-46.1c0-13.8 9.3-23.1 23.3-23.1H512c14 0 23.3 9.2 23.3 23.1V512z m0-184.3c0 13.8-9.3 23.1-23.3 23.1h-93.1c-14 0-23.3-9.2-23.3-23.1v-46.1c0-13.8 9.3-23.1 23.3-23.1H512c14 0 23.3 9.2 23.3 23.1v46.1zM864 465.9V512c0 13.8-6.6 23.1-16.5 23.1h-65.9c-9.9 0-16.5-9.2-16.5-23.1v-46.1c0-13.8 6.6-23.1 16.5-23.1h65.9c9.9 0 16.5 9.2 16.5 23.1z m-98.9 184.2c0-13.8 6.6-23.1 16.5-23.1h65.9c9.9 0 16.5 9.2 16.5 23.1v46.1c0 13.8-6.6 23.1-16.5 23.1h-65.9c-9.9 0-16.5-9.2-16.5-23.1v-46.1z" /></svg>