<?xml version="1.0" standalone="no"?><!DOCTYPE svg PUBLIC "-//W3C//DTD SVG 1.1//EN" "http://www.w3.org/Graphics/SVG/1.1/DTD/svg11.dtd"><svg class="icon" width="200px" height="200.00px" viewBox="0 0 1024 1024" version="1.1" xmlns="http://www.w3.org/2000/svg"><path fill="#333333" d="M891.962894 77.492432l-0.09999-0.499951c-8.199199-44.595645-47.095401-76.992481-92.490968-76.992481H224.928034c-45.495557 0-84.491749 32.596817-92.490967 77.392442-0.999902 5.399473-3.799629 10.099014-7.799239 13.398692-3.999609 3.299678-9.099111 5.299482-14.498584 5.299482h-0.29997v863.915633c0 35.296553 28.697198 63.993751 63.99375 63.993751h676.533932c35.296553 0 63.993751-28.697198 63.993751-63.993751V95.990626c-10.998926 0-20.398008-7.799238-22.397813-18.498194zM764.875305 653.036227c-3.399668 3.399668-7.799238 5.099502-13.098721 5.099502h-36.596426c-5.299482 0-9.699053-1.699834-13.098721-5.099502-3.399668-3.399668-5.099502-7.799238-5.099502-13.098721v-36.596426c0-5.299482 1.699834-9.699053 5.099502-13.198711 3.399668-3.399668 7.799238-5.099502 13.098721-5.099502h36.596426c5.299482 0 9.699053 1.699834 13.098721 5.099502 3.399668 3.399668 5.099502 7.799238 5.099502 13.198711V639.937506c0 5.299482-1.699834 9.699053-5.099502 13.098721z m5.099502 96.590567v36.596426c0 5.299482-1.699834 9.699053-5.099502 13.198711s-7.799238 5.099502-13.098721 5.099502h-36.596426c-5.299482 0-9.699053-1.699834-13.098721-5.099502s-5.099502-7.799238-5.099502-13.198711v-36.596426c0-5.299482 1.699834-9.699053 5.099502-13.098721s7.799238-5.099502 13.098721-5.099502h36.596426c5.299482 0 9.699053 1.699834 13.098721 5.099502s5.099502 7.799238 5.099502 13.098721z m-5.099502-242.776291c-3.399668 3.399668-7.799238 5.099502-13.098721 5.099502h-36.596426c-5.299482 0-9.699053-1.699834-13.098721-5.099502-3.399668-3.399668-5.099502-7.799238-5.099502-13.198711v-36.596426c0-5.299482 1.699834-9.699053 5.099502-13.098721s7.799238-5.199492 13.098721-5.199492h36.596426c5.299482 0 9.699053 1.699834 13.098721 5.199492s5.099502 7.799238 5.099502 13.098721v36.596426c0 5.299482-1.699834 9.699053-5.099502 13.198711z m0-146.285714c-3.399668 3.399668-7.799238 5.099502-13.098721 5.099502h-36.596426c-5.299482 0-9.699053-1.699834-13.098721-5.099502s-5.099502-7.799238-5.099502-13.098721v-36.596426c0-5.299482 1.699834-9.699053 5.099502-13.198711 3.399668-3.399668 7.799238-5.099502 13.098721-5.099502h36.596426c5.299482 0 9.699053 1.699834 13.098721 5.099502 3.399668 3.399668 5.099502 7.799238 5.099502 13.198711v36.596426c0 5.299482-1.699834 9.599063-5.099502 13.098721z m0-146.285715c-3.399668 3.399668-7.799238 5.199492-13.098721 5.199493h-36.596426c-5.299482 0-9.699053-1.699834-13.098721-5.199493-3.399668-3.399668-5.099502-7.799238-5.099502-13.098721v-36.596426c0-5.299482 1.699834-9.699053 5.099502-13.09872 3.399668-3.399668 7.799238-5.199492 13.098721-5.199493h36.596426c5.299482 0 9.699053 1.699834 13.098721 5.199493 3.399668 3.399668 5.099502 7.799238 5.099502 13.09872v36.596426c0 5.299482-1.699834 9.699053-5.099502 13.098721z m-355.465286 83.391857c3.399668-3.399668 7.799238-5.099502 13.09872-5.099502h36.596427c5.299482 0 9.699053 1.699834 13.09872 5.099502 3.399668 3.399668 5.099502 7.799238 5.099502 13.198711v36.596426c0 5.299482-1.699834 9.699053-5.099502 13.098721-3.399668 3.399668-7.799238 5.099502-13.09872 5.099502h-36.596427c-5.299482 0-9.699053-1.699834-13.09872-5.099502s-5.099502-7.799238-5.099502-13.098721v-36.596426c0-5.399473 1.699834-9.799043 5.099502-13.198711z m-5.099502-96.590568v-36.596426c0-5.299482 1.699834-9.699053 5.099502-13.098721 3.399668-3.399668 7.799238-5.199492 13.09872-5.199492h36.596427c5.299482 0 9.699053 1.699834 13.09872 5.199492 3.399668 3.399668 5.099502 7.799238 5.099502 13.098721v36.596426c0 5.299482-1.699834 9.699053-5.099502 13.098721-3.399668 3.399668-7.799238 5.199492-13.09872 5.199492h-36.596427c-5.299482 0-9.699053-1.699834-13.09872-5.199492-3.399668-3.299678-5.099502-7.699248-5.099502-13.098721z m5.099502 242.876282c3.399668-3.399668 7.799238-5.099502 13.09872-5.099502h36.596427c5.299482 0 9.699053 1.699834 13.09872 5.099502 3.399668 3.399668 5.099502 7.799238 5.099502 13.098721v36.596426c0 5.299482-1.699834 9.699053-5.099502 13.098721-3.399668 3.399668-7.799238 5.099502-13.09872 5.099502h-36.596427c-5.299482 0-9.699053-1.699834-13.09872-5.099502-3.399668-3.399668-5.099502-7.799238-5.099502-13.098721v-36.596426c0-5.299482 1.699834-9.699053 5.099502-13.098721z m0 146.285714c3.399668-3.399668 7.799238-5.099502 13.09872-5.099502h36.596427c5.299482 0 9.699053 1.699834 13.09872 5.099502 3.399668 3.399668 5.099502 7.799238 5.099502 13.198711V639.937506c0 5.299482-1.699834 9.699053-5.099502 13.098721-3.399668 3.399668-7.799238 5.099502-13.09872 5.099502h-36.596427c-5.299482 0-9.699053-1.699834-13.09872-5.099502-3.399668-3.399668-5.099502-7.799238-5.099502-13.098721v-36.596426c0-5.299482 1.699834-9.699053 5.099502-13.098721z m0 219.378576c3.399668-3.399668 7.799238-5.099502 13.198711-5.099502h182.88214c5.299482 0 9.699053 1.699834 13.098721 5.099502 3.399668 3.399668 5.099502 7.799238 5.099502 13.198712v109.689288c0 5.299482-1.699834 9.699053-5.099502 13.098721-3.399668 3.399668-7.799238 5.199492-13.098721 5.199492H422.60873c-5.299482 0-9.699053-1.699834-13.198711-5.199492-3.399668-3.399668-5.099502-7.799238-5.099502-13.098721V822.819647c0-5.399473 1.699834-9.799043 5.099502-13.198712z m209.179572-156.584708c-3.399668 3.399668-7.799238 5.099502-13.098721 5.099502h-36.596426c-5.299482 0-9.699053-1.699834-13.098721-5.099502-3.399668-3.399668-5.099502-7.799238-5.099502-13.098721v-36.596426c0-5.299482 1.699834-9.699053 5.099502-13.198711 3.399668-3.399668 7.799238-5.099502 13.098721-5.099502h36.596426c5.299482 0 9.699053 1.699834 13.098721 5.099502 3.399668 3.399668 5.099502 7.799238 5.099502 13.198711V639.937506c0 5.299482-1.699834 9.699053-5.099502 13.098721z m0-146.185724c-3.399668 3.399668-7.799238 5.099502-13.098721 5.099502h-36.596426c-5.299482 0-9.699053-1.699834-13.098721-5.099502-3.399668-3.399668-5.099502-7.799238-5.099502-13.198711v-36.596426c0-5.299482 1.699834-9.699053 5.099502-13.098721s7.799238-5.199492 13.098721-5.199492h36.596426c5.299482 0 9.699053 1.699834 13.098721 5.199492s5.099502 7.799238 5.099502 13.098721v36.596426c0 5.299482-1.699834 9.699053-5.099502 13.198711z m0-146.285714c-3.399668 3.399668-7.799238 5.099502-13.098721 5.099502h-36.596426c-5.299482 0-9.699053-1.699834-13.098721-5.099502s-5.099502-7.799238-5.099502-13.098721v-36.596426c0-5.299482 1.699834-9.699053 5.099502-13.198711 3.399668-3.399668 7.799238-5.099502 13.098721-5.099502h36.596426c5.299482 0 9.699053 1.699834 13.098721 5.099502 3.399668 3.399668 5.099502 7.799238 5.099502 13.198711v36.596426c0 5.299482-1.699834 9.599063-5.099502 13.098721z m0-146.285715c-3.399668 3.399668-7.799238 5.199492-13.098721 5.199493h-36.596426c-5.299482 0-9.699053-1.699834-13.098721-5.199493-3.399668-3.399668-5.099502-7.799238-5.099502-13.098721v-36.596426c0-5.299482 1.699834-9.699053 5.099502-13.09872 3.399668-3.399668 7.799238-5.199492 13.098721-5.199493h36.596426c5.299482 0 9.699053 1.699834 13.098721 5.199493 3.399668 3.399668 5.099502 7.799238 5.099502 13.09872v36.596426c0 5.299482-1.699834 9.699053-5.099502 13.098721zM326.018162 506.850503c-3.399668 3.399668-7.799238 5.099502-13.098721 5.099502h-36.596426c-5.299482 0-9.699053-1.699834-13.09872-5.099502-3.399668-3.399668-5.199492-7.799238-5.199493-13.198711v-36.596426c0-5.299482 1.699834-9.699053 5.199493-13.098721s7.799238-5.199492 13.09872-5.199492h36.596426c5.299482 0 9.699053 1.699834 13.098721 5.199492 3.399668 3.399668 5.199492 7.799238 5.199493 13.098721v36.596426c0 5.299482-1.799824 9.699053-5.199493 13.198711z m5.199493 96.490577V639.937506c0 5.299482-1.699834 9.699053-5.199493 13.098721-3.399668 3.399668-7.799238 5.099502-13.098721 5.099502h-36.596426c-5.299482 0-9.699053-1.699834-13.09872-5.099502-3.399668-3.399668-5.199492-7.799238-5.199493-13.098721v-36.596426c0-5.299482 1.699834-9.699053 5.199493-13.198711 3.399668-3.399668 7.799238-5.099502 13.09872-5.099502h36.596426c5.299482 0 9.699053 1.699834 13.098721 5.099502 3.399668 3.499658 5.199492 7.899229 5.199493 13.198711zM326.018162 360.564789c-3.399668 3.399668-7.799238 5.099502-13.098721 5.099502h-36.596426c-5.299482 0-9.699053-1.699834-13.09872-5.099502s-5.199492-7.799238-5.199493-13.098721v-36.596426c0-5.299482 1.699834-9.699053 5.199493-13.198711 3.399668-3.399668 7.799238-5.099502 13.09872-5.099502h36.596426c5.299482 0 9.699053 1.699834 13.098721 5.099502 3.399668 3.399668 5.199492 7.799238 5.199493 13.198711v36.596426c0 5.299482-1.799824 9.599063-5.199493 13.098721z m0-146.285715c-3.399668 3.399668-7.799238 5.199492-13.098721 5.199493h-36.596426c-5.299482 0-9.699053-1.699834-13.09872-5.199493-3.399668-3.399668-5.199492-7.799238-5.199493-13.098721v-36.596426c0-5.299482 1.699834-9.699053 5.199493-13.09872 3.399668-3.399668 7.799238-5.199492 13.09872-5.199493h36.596426c5.299482 0 9.699053 1.699834 13.098721 5.199493 3.399668 3.399668 5.199492 7.799238 5.199493 13.09872v36.596426c0 5.299482-1.799824 9.699053-5.199493 13.098721z m-67.99336 535.34772c0-5.299482 1.699834-9.699053 5.199493-13.098721s7.799238-5.099502 13.09872-5.099502h36.596426c5.299482 0 9.699053 1.699834 13.098721 5.099502 3.399668 3.399668 5.199492 7.799238 5.199493 13.098721v36.596426c0 5.299482-1.699834 9.699053-5.199493 13.198711-3.399668 3.399668-7.799238 5.099502-13.098721 5.099502h-36.596426c-5.299482 0-9.699053-1.699834-13.09872-5.099502s-5.199492-7.799238-5.199493-13.198711v-36.596426z" /></svg>