<?xml version="1.0" standalone="no"?><!DOCTYPE svg PUBLIC "-//W3C//DTD SVG 1.1//EN" "http://www.w3.org/Graphics/SVG/1.1/DTD/svg11.dtd"><svg class="icon" width="200px" height="200.00px" viewBox="0 0 1024 1024" version="1.1" xmlns="http://www.w3.org/2000/svg"><path fill="#333333" d="M512 64c60.5 0 119.2 11.8 174.4 35.2 53.3 22.6 101.3 54.9 142.4 96 41.2 41.2 73.5 89.1 96 142.4C948.2 392.8 960 451.5 960 512s-11.8 119.2-35.2 174.4c-22.6 53.3-54.9 101.3-96 142.4-41.2 41.2-89.1 73.5-142.4 96C631.2 948.2 572.5 960 512 960s-119.2-11.8-174.4-35.2c-53.3-22.6-101.3-54.9-142.4-96-41.2-41.2-73.5-89.1-96-142.4C75.8 631.2 64 572.5 64 512s11.8-119.2 35.2-174.4c22.6-53.3 54.9-101.3 96-142.4s89.1-73.5 142.4-96C392.8 75.8 451.5 64 512 64m0-64C229.2 0 0 229.2 0 512s229.2 512 512 512 512-229.2 512-512S794.8 0 512 0zM510 224c38.9 0 76.6 7.6 112.1 22.6 34.3 14.5 65.1 35.3 91.6 61.7 26.5 26.5 47.2 57.3 61.7 91.6 15 35.5 22.6 73.2 22.6 112.1s-7.6 76.6-22.6 112.1c-14.5 34.3-35.3 65.1-61.7 91.6-26.5 26.5-57.3 47.2-91.6 61.7-35.5 15-73.2 22.6-112.1 22.6s-76.6-7.6-112.1-22.6c-34.3-14.5-65.1-35.3-91.6-61.7-26.5-26.5-47.2-57.3-61.7-91.6-15-35.5-22.6-73.2-22.6-112.1s7.6-76.6 22.6-112.1c14.5-34.3 35.3-65.1 61.7-91.6s57.3-47.2 91.6-61.7c35.5-15 73.2-22.6 112.1-22.6m0-64c-194.4 0-352 157.6-352 352s157.6 352 352 352 352-157.6 352-352-157.6-352-352-352zM511.6 400c29.9 0 58 11.6 79.2 32.8 21.2 21.2 32.8 49.3 32.8 79.2s-11.7 58-32.8 79.2c-21.2 21.2-49.3 32.8-79.2 32.8s-58-11.7-79.2-32.8c-21.2-21.2-32.8-49.3-32.8-79.2 0-29.9 11.6-58 32.8-79.2 21.2-21.2 49.3-32.8 79.2-32.8m0-64c-97.2 0-176 78.8-176 176s78.8 176 176 176 176-78.8 176-176-78.8-176-176-176z" /></svg>