<?xml version="1.0" standalone="no"?><!DOCTYPE svg PUBLIC "-//W3C//DTD SVG 1.1//EN" "http://www.w3.org/Graphics/SVG/1.1/DTD/svg11.dtd"><svg class="icon" width="200px" height="200.00px" viewBox="0 0 1024 1024" version="1.1" xmlns="http://www.w3.org/2000/svg"><path fill="#333333" d="M1023.01523 864.4c-26.1-132.7-89.5-242.3-198.9-323.1-28-20.7-58.8-37.5-88.3-56.1-2 1.7-4 3.4-6 5.2 0 6.2-0.2 12.4 0 18.7 2 60 11.3 119.1 30.4 175.8 10 29.6 12.3 52.4-16.1 72.7-8.5 6.1-12.9 8.6-22.7 4.5-36.8-15.2-72.3-12.7-106.8 8.6-6.5 4-17.1 5.2-24.4 3-37.2-11.5-74.6-11.1-112.5-5.2-38.2 5.9-71.6 23-103.1 46.9-23.7-28.4-49.9-51.2-87.7-55.4-3.2-0.3-8.1-5.7-8.2-9-2-33.8-6.2-67.8-3.8-101.3 2.7-37.6 12.3-74.6 17.7-112 2.5-17.7 2.4-35.7 3.5-54.6-6 1-8.1 0.8-9.7 1.6C121.91523 562.7 32.21523 696 0.41523 872.1c-2.2 12.1 4.6 15.6 14.3 18.3 62.4 17.4 124.1 37.2 187 52.3 142.4 34.1 286.9 41.2 432.3 27.2 126.9-12.3 250.1-42.7 372.2-78.3 15.5-4.5 20-10.8 16.8-27.2zM101.31523 726.9c8.6-7 16.1-10.3 23.5 1.5 6.8 10.8 14.9 20.8 21.6 31.8 3 4.8 4 10.9 5.9 16.4 4.4-3.6 8.9-7.2 13.3-10.8-5.7-9.8-10.8-19.9-17.1-29.2-20.9-31-20.3-33.6 15-47.2 4.8-1.8 9.9-2.7 14.6-4.7 12.5-5.2 17.8 0.5 19.7 12.3 2.1 13.3 4 26.6 7.1 39.7 0.9 4 5.6 7.1 8.5 10.6 2-4.7 6.1-9.5 5.6-13.9-1.3-14-4.4-27.8-6.6-41.7-2.3-14.6 8.7-14.8 18.2-16.2 9.7-1.4 18-0.6 19.1 12.3 1.5 19.2 4.4 38.3 5 57.4 0.1 4.7-6.2 13.1-10.5 13.8-36.1 5.8-68.9 19-98.9 40.2-2.8 2-11.4 0.1-14-2.9-13-15-24.7-31-37.3-46.4-9.3-11.8-0.3-16.8 7.3-23z m14.1 168.6c6-36.5 21.4-62 46.7-80.2 43.6-31.4 91.3-46.4 144.6-26.9 8.2 3 16.2 7.8 23.2 13.2 29 22.4 27.4 24.4 10.4 55.8-13.1 24.3-20.7 51.6-32.4 82.2-61.7-14.2-126.8-29.1-192.5-44.1z m535.5 50.4c-99.2 9.5-198.4 9.6-297.6-2.4-14.9-1.8-18.2-6.7-15.3-20.7 12.4-61.6 49.8-102.3 107.6-122.3 74.5-25.7 145.4-23.2 204.2 38.5 24.5 25.8 43.7 67.8 45.4 100.3-14.5 2.2-29.3 5.2-44.3 6.6z m266.3-85c-8.7 20.6-21.2 35.6-44.6 40.8-26.7 5.9-53 14-83.4 22.2 16.9-19.6 32.1-35 44.4-52.4 11.9-16.8 25.8-33.7 26.9-59.8-22.5 25.1-40.1 49.8-62.6 68.3-22.7 18.7-50.3 31.4-79.3 48.9-15.3-59.7-42.6-104.9-88.9-137 23.2-22.1 61-23.7 92.1-5 21.5 12.9 22.4 12.7 34.8-9.4 30.4-54.2 119.7-54 152.5 0.6 15.6 26.1 20.4 53.5 8.1 82.8zM863.91523 326.1c-20 12.7-43.8 22.7-67.1 26.4-38.8 6.1-78.6 6.4-118 9.1 0.8-11.9 1.9-23.8 2.2-35.7 1.2-37.1-12.1-55.5-47.8-66-7.9-2.4-16.2-4.6-24.4-4.8-55.5-1.7-111.1-4.2-166.6-3.3-21.2 0.3-42.7 7.5-63.2 14.1-18.9 6-31.5 19.9-32.3 41-0.7 18.2 0.1 36.5 0.2 54.8-56.3-0.7-112.5-2.2-165.1-26.5-4-1.9-8-4.1-11.6-6.7-29.6-21.4-29.5-54.9 3.3-70.3 29.8-14 62-26.6 94.3-30.8 73-9.4 146.7-13.1 220.1-19.2 6.4-0.5 12.8-0.7 19.2-1.3 0.7-0.1 1.4-1.7 3.9-4.8H370.01523c0-1.4-0.8-4.2 0.1-6 25.7-47.6 53.6-93.6 96.6-127.9 34.8-27.9 64.5-27.6 99 0.9 40.9 33.7 68.3 78 92 124.3 9 17.5 21.6 21.3 38.7 24.9 50 10.4 99.5 23.1 149.1 35.3 5.4 1.3 10.4 4.9 15.3 7.9 28.2 17 31 46.8 3.1 64.6zM347.31523 361.5l-0.5 0.6v-0.6zM678.81523 361.5v0.6l-0.5-0.5h0.2c0-0.1 0.2-0.1 0.3-0.1zM678.41523 361.6h-0.2l0.5 0.5c0-0.2-0.2-0.3-0.3-0.5z m-331.6 0.5l0.5-0.5h-0.3c-0.1 0.1-0.1 0.3-0.2 0.5zM678.21523 361.6h0.2c-0.3-0.6-0.7-1.2-1-1.8-0.7-1.2-1.3-2.3-2-3.4-0.8-1.3-1.5-2.6-2.2-3.9-0.3-0.7-0.7-1.3-0.9-2-0.3-0.7-0.5-1.3-0.7-2-0.2-0.7-0.3-1.3-0.5-2-1.2-7.5 0.5-15.3 0.4-23-0.3-29.3-8.5-43.7-37.1-50.4-30.3-7.1-61.8-12.2-92.8-12.4-44.6-0.2-89.6 2.1-133.8 8.2-45.5 6.3-55.3 23-52.5 68.5 0 0.8 0 1.7-0.1 2.6 0 0.7-0.2 1.5-0.3 2.2-0.3 1.7-0.8 3.3-1.5 5-0.3 0.9-0.7 1.8-1.1 2.7-0.9 1.9-1.8 3.9-2.7 5.8-0.7 1.5-1.3 2.9-2 4.4l-0.6 1.5h0.3c-5.3 16.5-9.4 34.5 7.1 45.6 14 9.3 18 22 22.3 36 3.4 11 6.9 22 11.6 32.5 41.4 93.4 163.4 111.8 227.6 32.5 17.1-21.1 24.8-49.7 36.8-74.9 2.9-6.2 4-15.2 8.8-18.2 21.5-13.5 23.2-32 16.7-53.5z m-239.1-15.1c15.9-1 30.4 9.1 29.8 22.2-0.7 17-12.7 22.2-27.2 23.2 20.3-19.7 20.3-19.7-2.6-45.4z m79.7 154.6c-32.6 1.3-59.7-15.1-69.3-46.6 44.7 48.7 86.5 51.7 129.7 0.7-6.4 27.8-31 44.8-60.4 45.9z m66.8-112.8c-6.7-8.2-14.3-13.7-13.6-17.7 1-5.7 8.1-10.3 12.5-15.3 4.4 4.5 11.8 8.6 12.3 13.5 0.7 4.8-5.6 10.5-11.2 19.5z m16.8-63.4c-14.4-2-29.1-6.1-43.2-4.5-25.7 2.9-35.2 15.4-35.8 41.4-0.4 19.2-0.2 38.5-0.4 57.7-0.1 6-0.8 11.9-1.3 17.9-2.9 0-5.7-0.1-8.5-0.1 2.3-33.6-7.5-68.1 6.4-100.7 13.7-32.1 78.8-37.7 100.5-6.4-8.1-2.5-12.8-4.6-17.7-5.3zM670.11523 648.8c-51.8 7.7-103.5 16.1-156.5 24.4-54.8-8.7-109-17.4-163.3-26-13.7-2.2-18.8-8-17-23.5 5.6-48.4 9.2-97 13-145.6 0.7-9.9 1.9-17.4 13.4-19.8 13.4-2.9 14.5 7.5 17.7 15.4 32.6 78.7 102.4 113 182.3 89.3 44.3-13.1 69.8-45.3 87.6-85.8 3-6.8 10.1-16 16-16.6 13.8-1.4 12 11.3 12.9 20.7 4.7 45.9 8.7 92 15.1 137.7 2.7 18.9-2.8 27-21.2 29.8zM569.01523 908.3c-34.7-28.7-68.7-30.3-102.7 4.4-0.3-2.5-0.7-5.1-1.1-7.7 5.3-13.5 16.4-28.1 14.1-40.2-2.1-10.9-18.8-19.1-32.7-31.8 26.5-2.2 54.3 6.1 67.9-21 12.4 7.2 22.4 15.8 34 18.8 11.4 3.1 24.4 0.7 40.7 0.7-15 14.7-30.9 23.3-33.4 34.7-2.4 11.3 8.8 25.5 13.2 42.1z" /></svg>