<?xml version="1.0" standalone="no"?><!DOCTYPE svg PUBLIC "-//W3C//DTD SVG 1.1//EN" "http://www.w3.org/Graphics/SVG/1.1/DTD/svg11.dtd"><svg class="icon" width="200px" height="200.00px" viewBox="0 0 1024 1024" version="1.1" xmlns="http://www.w3.org/2000/svg"><path fill="#333333" d="M376 480c34.2 0 66.3 13.3 90.5 37.5 24.2 24.2 37.5 56.3 37.5 90.5s-13.3 66.3-37.5 90.5C442.3 722.7 410.2 736 376 736s-66.3-13.3-90.5-37.5C261.3 674.3 248 642.2 248 608s13.3-66.3 37.5-90.5c24.2-24.2 56.3-37.5 90.5-37.5z m0-64c-106 0-192 86-192 192s86 192 192 192 192-86 192-192-86-192-192-192zM0 256v512c0 70.7 57.3 128 128 128h768c70.7 0 128-57.3 128-128V256c0-70.7-57.3-128-128-128H128C57.3 128 0 185.3 0 256z m896 576H128c-35.3 0-64-28.7-64-64V256c0-35.3 28.7-64 64-64h768c35.3 0 64 28.7 64 64v256c0 8.8-7.2 16-16 16H672v64h272c8.8 0 16 7.2 16 16s-7.2 16-16 16H672v64h272c8.8 0 16 7.2 16 16v64c0 35.3-28.7 64-64 64zM920 384H104c-4.4 0-8-3.6-8-8v-48c0-4.4 3.6-8 8-8h816c4.4 0 8 3.6 8 8v48c0 4.4-3.6 8-8 8zM272 288h-64c-17.7 0-32-14.3-32-32s14.3-32 32-32h64c17.7 0 32 14.3 32 32s-14.3 32-32 32z" /></svg>