<?xml version="1.0" standalone="no"?><!DOCTYPE svg PUBLIC "-//W3C//DTD SVG 1.1//EN" "http://www.w3.org/Graphics/SVG/1.1/DTD/svg11.dtd"><svg class="icon" width="200px" height="200.00px" viewBox="0 0 1024 1024" version="1.1" xmlns="http://www.w3.org/2000/svg"><path fill="#333333" d="M548.1 135.8l81.9-34.7L612.1 279l-64-143.2zM777.5 21.1l91 79.5-215 176.2 124-255.7zM289 138.7l72.1-98.3 181.2 213L289 138.7zM0.4 647.7c7.7-34.6 20.8-61.9 60.3-60.3 7.4-3.9 12.7-10.9 14.5-19.1 10.3-39.2 21.5-78.4 27.9-118.5 7.7-57.2 50.7-103.3 107.2-115 20.5-6.4 41.7-11.3 62.6-16.8 53.1-14 108.1-19.3 162.9-15.4 37.9 5 76.1 8.2 113.5 15.7 28.3 5.8 51.4 26 61 53.3 19.1 46.7 39.1 93 59.9 138.9 3.4 8.4 10.4 14.8 19 17.4 30.3-6.8 60.3 12.3 67.1 42.6 0 0.1 0 0.2 0.1 0.3 2.6 8.4 3.3 17.3 2.1 26l-42.3 17.1c4.1 16.6 7.3 33.4 9.5 50.3 6.8 77.6 13.5 155.2 18.4 232.9 0.8 14-2.6 28-9.6 40.1-39.1 12.3-80.2 17-121.1 13.9-29.7-17.1-15.1-52-26.3-78.2l-367.2 34.9c-0.6 27.8-5.2 55.4-13.5 81.9-40.3 11.9-82.6 15.9-124.5 11.8C72 989 66 974 64.6 958.2c-4.7-32.5-6.1-65.6-8.5-98.3-4.3-61.1-8.3-122.1-12.5-183.5l-41.4-7.8c-2-6.8-2.6-13.9-1.8-20.9z m559.7 99.6c17.3 1.1 34.6 1.1 51.8 0 19.9-3.5 39.7-8.2 59-14.1 27.7-9.8 19.7-35.1 17.2-57-2.1-18.7-14-31.8-29.1-25.1-38.3 16.7-75.2 36.3-110.4 58.8-9.4 6.3-11.9 19-5.6 28.4 3.9 5.7 10.3 9.1 17.1 9z m62.6-200.7c-17.7-45.3-35-85.5-49-127-6.9-31.2-35.7-52.5-67.6-49.9-79 3.6-158 8.2-236.8 14.9-26.3 3.5-52.1 10.4-76.6 20.5-11.6 4-21.1 12.6-26.1 23.8-14.7 52.8-26.5 106.5-40.4 164.8 166.9 22.9 336.8 6.8 496.5-47v-0.1zM115 787.6c19.8 1.6 39.8 2.1 59.7 1.6 0 0.5 0 0.2 0 0 13.7-0.9 27.2-3.5 40.2-7.6 10.2-3.7 18.4-11.5 22.5-21.6-1.1-10.4-7.2-19.6-16.4-24.6-32.1-12.8-64.9-23.5-98.3-32.1-13.3-6.1-29.1-0.3-35.2 13.1-1.6 3.4-2.4 7.2-2.4 10.9-4.4 37.4 4.3 57 29.9 60.3z m618.6-165.5c65.1 7 130.8 5.9 195.6-3.4-10.5-47.7-19.4-91.8-30.4-135-3.6-8.9-10.7-16-19.7-19.5-18.3-8.2-37.6-13.8-57.4-16.7-54.5-5-109.2-8.8-163.9-11.5-6.3-16-12.5-32.1-18.6-48.2 19.1-2.9 38.3-5 57.4-7.7 41.2-3.1 82.6 1.2 122.3 12.7 15.7 4.5 31.5 8.6 47 13.8 44 11.3 76.3 49 80.5 94.2 4.8 32.8 13.2 64.9 20.9 97 1.2 6.6 5.2 12.3 10.9 15.7 29.6-1.4 39.5 21.1 45.3 49.2 0.6 5.7 0.2 11.5-1.3 17l-31.1 6.4c-3.2 50.3-6.2 100.3-9.5 150.3-1.8 26.9-2.9 54-6.4 80.6-1 12.8-5.5 25-13 35.4-31.5 3.3-63.4 0-93.5-9.7-6.3-21.8-9.7-44.4-10.1-67.1L756.5 865c-4.1-64.2-9.2-128.4-14.4-192.6-2.1-16.9-5-33.7-8.8-50.3h0.3z m112.1 132.5c2.9 8 9 14.5 17 17.7 9.8 3.4 19.9 5.5 30.2 6.2 0 0 0 0.4 0 0 15 0.4 29.9 0 44.8-1.3 19.2-2.7 25.7-18.8 22.2-49.2 0.7-11.1-7.6-20.6-18.7-21.4-3.3-0.2-6.5 0.4-9.5 1.7-25.1 7.1-49.8 15.9-73.7 26.3-7 4.4-11.5 11.8-12.3 20z" /></svg>