<?xml version="1.0" standalone="no"?><!DOCTYPE svg PUBLIC "-//W3C//DTD SVG 1.1//EN" "http://www.w3.org/Graphics/SVG/1.1/DTD/svg11.dtd"><svg class="icon" width="200px" height="200.00px" viewBox="0 0 1024 1024" version="1.1" xmlns="http://www.w3.org/2000/svg"><path fill="#333333" d="M931.1 468.7c1 0 2 0.1 3 0.1-2.8 2.4-5.5 5.1-8 7.8-10.5 11.7-25.6 18-41.3 18h-0.3c-13.2 0-26.9 2.4-40.9 7.2h-0.2c-43.3 15.1-74.7 26.1-120.2 48.8-67.9 34-78.2 85.7-66.4 119.7v0.2c12.5 35.5 48 58.7 77.7 66 7.7 1.9 19.7 3.8 50.6 3.8 30.6 0 85.9-2.1 112.7-8h0.1c4.4-1 8.5 2.3 8.6 6.8 0.1 5.8 0.1 11.5 0.2 17.3 0.1 9.4 0.2 18.9 0.4 28.1 0.5 33.1 1 64.5-1 95.2-0.1 1.7-0.3 3.5-0.5 5.2-8 0.4-18.1 0.7-30.5 0.7-17 0-32.1-0.6-44-1.3-1-5.2-1.9-10.3-2.6-14.4-1.5-8.1-3-16.4-4.6-24.6-8.2-41.5-44.9-71.7-87.3-71.7h-449c-42.4 0-79.1 30.2-87.3 71.7-1.6 8.2-3.1 16.5-4.6 24.6-0.8 4.2-1.7 9.3-2.6 14.4-11.9 0.8-26.9 1.3-44 1.3-12.3 0-22.4-0.3-30.5-0.7-0.2-1.8-0.4-3.5-0.5-5.2-2-30.7-1.5-62.1-1-95.2 0.1-9.2 0.3-18.7 0.4-28.1 0.1-5.8 0.1-11.5 0.2-17.3 0-4.5 4.2-7.8 8.6-6.8h0.1c26.8 5.8 82 8 112.7 8 30.8 0 42.8-1.9 50.6-3.8 29.6-7.3 65.1-30.5 77.6-66v-0.2c11.8-34 1.5-85.8-66.4-119.7-45.5-22.7-76.8-33.7-120.1-48.8h-0.2c-13.9-4.8-27.7-7.2-40.9-7.2h-0.3c-15.7 0-30.8-6.3-41.3-18-2.5-2.8-5.2-5.4-8-7.8 1 0 2 0 3-0.1l69.4 15.1c120 26 234.3 38.8 349.4 38.9h0.4c115.1-0.2 229.5-12.9 349.4-38.9l69.4-15.1zM512.2 74.1h-0.4c-34.9 0.1-70.7 2.9-109.8 8.7-28.5 4.6-57.3 8.3-85.6 14C241 112 182 146.5 160.5 232.2c-12.8 51-32.1 100.3-50.1 149.7-3.4 9.3-14.5 23-21 23h-0.6c-4.7-0.6-9.1-0.9-13.3-0.9-42.9 0-61.1 31.6-73.8 71.4 0 0.1-0.1 0.2-0.1 0.3-3.4 14 5.1 28.1 19 32 6.7 1.9 13.2 3.7 19.2 5.3 9.7 2.7 16.3 11.6 16.2 21.6-0.9 74.2-2 147.9-2.7 221.6-0.4 42.8-2 85.6 0.8 128.2 1.3 19.7 8.3 50.3 18.5 57.9 3.7 5.2 38.8 7.8 76.3 7.8 38.2 0 78.9-2.6 91.6-7.8 9.7-3.9 15.2-48 22.4-84.1 2.3-11.7 12.6-20.1 24.5-20.1h449c11.9 0 22.2 8.4 24.5 20.1 7.2 36.1 12.7 80.2 22.4 84.1 12.7 5.1 53.4 7.8 91.6 7.8 37.5 0 72.6-2.5 76.3-7.8 10.2-7.6 17.2-38.2 18.5-57.9 2.8-42.6 1.2-85.5 0.8-128.2-0.7-73.7-1.7-147.4-2.7-221.6-0.1-10 6.5-18.9 16.2-21.6 6-1.7 12.5-3.5 19.2-5.3 13.9-3.9 22.5-18 19-32 0-0.1 0-0.2-0.1-0.3-12.8-39.8-31-71.4-73.8-71.4-4.2 0-8.6 0.3-13.3 0.9h-0.6c-6.5 0-17.6-13.7-21-23-18-49.4-37.3-98.7-50.1-149.7C842 146.5 783 112 707.6 96.8c-28.4-5.7-57.1-9.4-85.6-14-39.1-5.8-74.9-8.6-109.8-8.7z m-0.4 96.8h0.4c40.6-1.1 81.1-1.9 121.7-2.2h1.7c34.4 0 69.3 8.5 103.1 17 14.1 3.6 32.8 14.9 37.6 27.6 25.3 66.4 46.9 134.4 71.9 208-113.7 24.7-225.1 37.3-336 37.5h-0.4c-110.9-0.2-222.2-12.8-336-37.5 25-73.6 46.6-141.6 71.9-208 4.8-12.7 23.4-24 37.6-27.6 33.8-8.5 68.7-17 103.1-17h1.7c40.6 0.3 81.1 1.1 121.7 2.2z m273.3 505.7c-16.4 0-29.7-0.6-35.3-2-12.6-3.1-28.5-13.8-32.5-25.1-2.8-8 2.6-25.5 34.6-41.5 41.4-20.7 69-30.4 112.6-45.6 6.6-2.3 13.5-3.7 20-3.7 14.9 0 28 7.6 32.9 30.1 10.2 47.5 0.7 73.9-33.2 81.3-17.7 3.8-64.9 6.5-99.1 6.5z m-546.2 0c-34.1 0-81.4-2.6-99-6.5-33.9-7.4-43.4-33.9-33.2-81.3 4.9-22.6 18-30.1 32.9-30.1 6.5 0 13.4 1.5 20 3.7 43.7 15.3 71.3 25 112.6 45.6 32 16 37.3 33.4 34.5 41.5-4 11.3-19.9 22-32.5 25.1-5.6 1.4-18.9 2-35.3 2z" /></svg>