<?xml version="1.0" standalone="no"?><!DOCTYPE svg PUBLIC "-//W3C//DTD SVG 1.1//EN" "http://www.w3.org/Graphics/SVG/1.1/DTD/svg11.dtd"><svg class="icon" width="200px" height="200.00px" viewBox="0 0 1024 1024" version="1.1" xmlns="http://www.w3.org/2000/svg"><path fill="#333333" d="M0 256v512c0 35.3 28.7 64 64 64h896c35.3 0 64-28.7 64-64V256c0-35.3-28.7-64-64-64H64c-35.3 0-64 28.7-64 64z m80 0h864c8.8 0 16 7.2 16 16v320c0 8.8-7.2 16-16 16H80c-8.8 0-16-7.2-16-16V272c0-8.8 7.2-16 16-16z m864 512H80c-8.8 0-16-7.2-16-16v-64c0-8.8 7.2-16 16-16h864c8.8 0 16 7.2 16 16v64c0 8.8-7.2 16-16 16zM412 544h-56c-2.2 0-4-1.8-4-4v-56c0-2.2 1.8-4 4-4h56c2.2 0 4 1.8 4 4v56c0 2.2-1.8 4-4 4zM508 544h-56c-2.2 0-4-1.8-4-4v-56c0-2.2 1.8-4 4-4h56c2.2 0 4 1.8 4 4v56c0 2.2-1.8 4-4 4zM604 544h-56c-2.2 0-4-1.8-4-4v-56c0-2.2 1.8-4 4-4h56c2.2 0 4 1.8 4 4v56c0 2.2-1.8 4-4 4zM700 544h-56c-2.2 0-4-1.8-4-4v-56c0-2.2 1.8-4 4-4h56c2.2 0 4 1.8 4 4v56c0 2.2-1.8 4-4 4zM796 544h-56c-2.2 0-4-1.8-4-4v-56c0-2.2 1.8-4 4-4h56c2.2 0 4 1.8 4 4v56c0 2.2-1.8 4-4 4zM892 544h-56c-2.2 0-4-1.8-4-4v-56c0-2.2 1.8-4 4-4h56c2.2 0 4 1.8 4 4v56c0 2.2-1.8 4-4 4z" /></svg>