<?xml version="1.0" standalone="no"?><!DOCTYPE svg PUBLIC "-//W3C//DTD SVG 1.1//EN" "http://www.w3.org/Graphics/SVG/1.1/DTD/svg11.dtd"><svg class="icon" width="200px" height="200.00px" viewBox="0 0 1024 1024" version="1.1" xmlns="http://www.w3.org/2000/svg"><path fill="#333333" d="M1024 680v88c0 35.3-28.7 64-64 64H64c-35.3 0-64-28.7-64-64v-88c0-4.4 3.6-8 8-8h1008c4.4 0 8 3.6 8 8zM960 192H64c-35.3 0-64 28.7-64 64v344c0 4.4 3.6 8 8 8h1008c4.4 0 8-3.6 8-8V256c0-35.3-28.7-64-64-64zM416 540c0 2.2-1.8 4-4 4h-56c-2.2 0-4-1.8-4-4v-56c0-2.2 1.8-4 4-4h56c2.2 0 4 1.8 4 4v56z m96 0c0 2.2-1.8 4-4 4h-56c-2.2 0-4-1.8-4-4v-56c0-2.2 1.8-4 4-4h56c2.2 0 4 1.8 4 4v56z m96 0c0 2.2-1.8 4-4 4h-56c-2.2 0-4-1.8-4-4v-56c0-2.2 1.8-4 4-4h56c2.2 0 4 1.8 4 4v56z m96 0c0 2.2-1.8 4-4 4h-56c-2.2 0-4-1.8-4-4v-56c0-2.2 1.8-4 4-4h56c2.2 0 4 1.8 4 4v56z m96 0c0 2.2-1.8 4-4 4h-56c-2.2 0-4-1.8-4-4v-56c0-2.2 1.8-4 4-4h56c2.2 0 4 1.8 4 4v56z m96 0c0 2.2-1.8 4-4 4h-56c-2.2 0-4-1.8-4-4v-56c0-2.2 1.8-4 4-4h56c2.2 0 4 1.8 4 4v56z" /></svg>