<?xml version="1.0" standalone="no"?><!DOCTYPE svg PUBLIC "-//W3C//DTD SVG 1.1//EN" "http://www.w3.org/Graphics/SVG/1.1/DTD/svg11.dtd"><svg class="icon" width="200px" height="200.00px" viewBox="0 0 1024 1024" version="1.1" xmlns="http://www.w3.org/2000/svg"><path fill="#333333" d="M224.5 959.5H96c-17.7 0-32-14.3-32-32v-831c0-17.7 14.3-32 32-32H224.5c17.7 0 32 14.3 32 32v831c0 17.7-14.3 32-32 32zM0 64.5v895c0 35.3 28.7 64 64 64H256.5c35.3 0 64-28.7 64-64v-895c0-35.3-28.7-64-64-64H64c-35.3 0-64 28.7-64 64zM576.5 959.5H448c-17.7 0-32-14.3-32-32v-831c0-17.7 14.3-32 32-32H576.5c17.7 0 32 14.3 32 32v831c0 17.7-14.3 32-32 32z m-224.5-895v895c0 35.3 28.7 64 64 64H608.5c35.3 0 64-28.7 64-64v-895c0-35.3-28.7-64-64-64H416c-35.3 0-64 28.7-64 64zM928.5 959.5H800c-17.7 0-32-14.3-32-32v-831c0-17.7 14.3-32 32-32H928.5c17.7 0 32 14.3 32 32v831c0 17.7-14.3 32-32 32z m-224.5-895v895c0 35.3 28.7 64 64 64H960.5c35.3 0 64-28.7 64-64v-895c0-35.3-28.7-64-64-64H768c-35.3 0-64 28.7-64 64zM128.5 136v496c0 4.4 3.6 8 8 8h48c4.4 0 8-3.6 8-8V136c0-4.4-3.6-8-8-8h-48c-4.4 0-8 3.6-8 8zM480.5 136v496c0 4.4 3.6 8 8 8h48c4.4 0 8-3.6 8-8V136c0-4.4-3.6-8-8-8h-48c-4.4 0-8 3.6-8 8zM832.5 136v496c0 4.4 3.6 8 8 8h48c4.4 0 8-3.6 8-8V136c0-4.4-3.6-8-8-8h-48c-4.4 0-8 3.6-8 8zM128.5 864c0 17.7 14.3 32 32 32s32-14.3 32-32-14.3-32-32-32-32 14.3-32 32zM480.5 864c0 17.7 14.3 32 32 32s32-14.3 32-32-14.3-32-32-32-32 14.3-32 32zM832.5 864c0 17.7 14.3 32 32 32s32-14.3 32-32-14.3-32-32-32-32 14.3-32 32z" /></svg>