<?xml version="1.0" standalone="no"?><!DOCTYPE svg PUBLIC "-//W3C//DTD SVG 1.1//EN" "http://www.w3.org/Graphics/SVG/1.1/DTD/svg11.dtd"><svg class="icon" width="200px" height="200.00px" viewBox="0 0 1024 1024" version="1.1" xmlns="http://www.w3.org/2000/svg"><path fill="#333333" d="M983 455.4c-73.9-44.3-119-124.1-119-210.3V32c0-17.7-14.3-32-32-32H192c-17.7 0-32 14.3-32 32v213.2c0 86.1-45.2 165.9-119 210.3-25.4 15.2-41 42.7-41 72.3V960c0 35.3 28.7 64 64 64h896c35.3 0 64-28.7 64-64V527.8c0-29.7-15.5-57.1-41-72.4zM224 245.2V80c0-8.8 7.2-16 16-16h544c8.8 0 16 7.2 16 16v165.2c0 77.6 29.7 151.9 80.8 208.2 9.3 10.2 1.9 26.7-11.9 26.7H755.6c-13.8 0-26 8.8-30.4 21.9l-14 42.1-14 42.1c-4.4 13.1-16.6 21.9-30.4 21.9H357.2c-13.8 0-26-8.8-30.4-21.9l-14-42.1-14-42.1c-4.4-13.1-16.6-21.9-30.4-21.9H155.2c-13.8 0-21.2-16.4-11.9-26.7 51-56.3 80.7-130.6 80.7-208.2zM928 960H96c-17.7 0-32-14.3-32-32V576c0-17.7 14.3-32 32-32h143.6c3.4 0 6.5 2.2 7.6 5.5l26.3 78.8c8.7 26.1 33.2 43.8 60.7 43.8h355.7c27.5 0 52-17.6 60.7-43.8l26.3-78.8c1.1-3.3 4.1-5.5 7.6-5.5H928c17.7 0 32 14.3 32 32v352c0 17.7-14.3 32-32 32zM672 193H352c-17.7 0-32-14.3-32-32s14.3-32 32-32h320c17.7 0 32 14.3 32 32s-14.3 32-32 32zM672 320H352c-17.7 0-32-14.3-32-32s14.3-32 32-32h320c17.7 0 32 14.3 32 32s-14.3 32-32 32zM672 448H352c-17.7 0-32-14.3-32-32s14.3-32 32-32h320c17.7 0 32 14.3 32 32s-14.3 32-32 32z" /></svg>