<?xml version="1.0" standalone="no"?><!DOCTYPE svg PUBLIC "-//W3C//DTD SVG 1.1//EN" "http://www.w3.org/Graphics/SVG/1.1/DTD/svg11.dtd"><svg class="icon" width="200px" height="200.00px" viewBox="0 0 1024 1024" version="1.1" xmlns="http://www.w3.org/2000/svg"><path fill="#333333" d="M864 0H160c-35.3 0-64 28.6-64 64v896c0 35.3 28.7 64 64 64h704c35.3 0 64-28.7 64-64V64c0-35.4-28.7-64-64-64zM256 860v-56c0-2.2 1.8-4 4-4h504c2.2 0 4 1.8 4 4v56c0 2.2-1.8 4-4 4H260c-2.2 0-4-1.8-4-4z m512-128c0 2.2-1.8 4-4 4H260c-2.2 0-4-1.8-4-4v-56c0-2.2 1.8-4 4-4h504c2.2 0 4 1.8 4 4v56zM378.4 369.2c2.9 7 7.1 13.4 12.6 18.8l19.8 19.8c9.3 9.3 19.7 17.6 30.9 24.6 4.9 3.1 10 5.9 15.2 8.5 5.2 2.6 10.5 4.9 15.9 7l45.8 17.5c14.4 5.5 30.3 5 44.3-1.3 7-3.1 13.3-7.6 18.4-13.1 5.2-5.5 9.3-12 12-19.2l9.8-25.7c3.8-9.9 11.1-17.9 20.6-22.5 5.7-2.8 12-4.2 18.3-4.2 2.5 0 4.9 0.2 7.4 0.7l91.3 16.4c7.3 1.3 13 7.1 14.2 14.4l5.9 34.9c1.7 10.1-1.5 20.4-8.6 27.8-31.6 32.7-72.7 54.5-117.4 62.5l-31.7 5.7c-19.4 3.5-39.3 3-58.5-1.3l-32.2-8c-64.4-16-123.1-49.3-169.8-96.5l-22.8-30.4-8-10.6c-11.8-15.8-20.4-33.7-25.1-52.8l-7.8-31.2c-11-44.1-7.9-90.5 9-132.7 1.9-4.8 4.9-8.9 8.6-12.2 3.7-3.3 8.2-5.7 13.2-7l34.3-8.9c7.2-1.8 14.7 1 18.9 7.1l52.4 76.6c5 7.3 7.5 16 7.2 24.8-0.2 5.3-1.3 10.4-3.4 15.2s-5 9.1-8.7 12.8L391 306c-10.9 10.9-17 25.6-17 41 0 7.7 1.5 15.2 4.4 22.2z" /></svg>