<?xml version="1.0" standalone="no"?><!DOCTYPE svg PUBLIC "-//W3C//DTD SVG 1.1//EN" "http://www.w3.org/Graphics/SVG/1.1/DTD/svg11.dtd"><svg class="icon" width="200px" height="200.00px" viewBox="0 0 1024 1024" version="1.1" xmlns="http://www.w3.org/2000/svg"><path fill="#333333" d="M960.031235 159.921913v703.656418c0 52.974134-42.979014 95.953148-95.953148 95.953148h-703.656418c-52.974134 0-95.953148-42.979014-95.953148-95.953148v-703.656418c0-52.974134 42.979014-95.953148 95.953148-95.953148h703.656418c52.974134 0 95.953148 42.979014 95.953148 95.953148z m-831.593949-159.921913C57.771791 0 0.499756 57.272035 0.499756 127.937531v767.625183c0 70.665495 57.272035 127.937531 127.93753 127.93753h767.625183c70.665495 0 127.937531-57.272035 127.937531-127.93753v-767.625183c0-70.665495-57.272035-127.937531-127.937531-127.937531h-767.625183zM533.939287 686.564763c-43.278868 60.570425-128.937042 71.565056-186.009175 23.988287L139.431918 536.837872c-13.593363-11.294485-15.392484-31.484627-4.097999-45.077989 11.294485-13.593363 31.484627-15.392484 45.077989-4.097999L388.810151 661.377062c28.586042 23.788385 71.365154 18.291069 93.054563-11.994144L821.598829 173.815129c10.294973-14.392972 30.285212-17.691362 44.578233-7.396388s17.691362 30.285212 7.396388 44.578233L533.939287 686.564763z" /></svg>