<?xml version="1.0" standalone="no"?><!DOCTYPE svg PUBLIC "-//W3C//DTD SVG 1.1//EN" "http://www.w3.org/Graphics/SVG/1.1/DTD/svg11.dtd"><svg class="icon" width="200px" height="200.00px" viewBox="0 0 1024 1024" version="1.1" xmlns="http://www.w3.org/2000/svg"><path fill="#333333" d="M960.031235 159.921913v703.656418c0 52.974134-42.979014 95.953148-95.953148 95.953148h-703.656418c-52.974134 0-95.953148-42.979014-95.953148-95.953148v-703.656418c0-52.974134 42.979014-95.953148 95.953148-95.953148h703.656418c52.974134 0 95.953148 42.979014 95.953148 95.953148z m-831.593949-159.921913C57.771791 0 0.499756 57.272035 0.499756 127.937531v767.625183c0 70.665495 57.272035 127.937531 127.93753 127.93753h767.625183c70.665495 0 127.937531-57.272035 127.937531-127.93753v-767.625183c0-70.665495-57.272035-127.937531-127.937531-127.937531h-767.625183zM799.609566 544.234261H223.890678c-17.691362 0-31.984383-14.293021-31.984382-31.984383s14.293021-31.984383 31.984382-31.984383h575.718888c17.691362 0 31.984383 14.293021 31.984382 31.984383s-14.293021 31.984383-31.984382 31.984383z" /></svg>