<?xml version="1.0" standalone="no"?><!DOCTYPE svg PUBLIC "-//W3C//DTD SVG 1.1//EN" "http://www.w3.org/Graphics/SVG/1.1/DTD/svg11.dtd"><svg class="icon" width="200px" height="200.00px" viewBox="0 0 1024 1024" version="1.1" xmlns="http://www.w3.org/2000/svg"><path fill="#333333" d="M512 64c44.1 0 80 35.9 80 80s-35.9 80-80 80-80-35.9-80-80 35.9-80 80-80m0-64c-79.5 0-144 64.5-144 144s64.5 144 144 144 144-64.5 144-144S591.5 0 512 0zM904.6 169.6c-15.7-16-36.5-24.1-57.2-24.1-20.5 0-41 7.8-56.6 23.4L649.2 310.6c-6 6-14.1 9.4-22.6 9.4H397.4c-8.5 0-16.6-3.4-22.6-9.4L233.1 169c-15.6-15.6-36.1-23.4-56.6-23.4-20.8 0-41.5 8-57.2 24.1-30.8 31.5-29.8 82.1 1.4 113.2l180.5 180.5c12 12 18.7 28.3 18.7 45.3V1008c0 8.8 7.2 16 16 16h352c8.8 0 16-7.2 16-16V508.6c0-17 6.7-33.3 18.7-45.3l180.5-180.5c31.3-31 32.3-81.7 1.5-113.2z m-46.1 67.5L658.8 436.9c-6 6-10.7 13.1-13.9 20.8s-4.9 16-4.9 24.5V952c0 4.4-3.6 8-8 8h-80c-4.4 0-8-3.6-8-8V752c0-8.8-7.2-16-16-16h-32c-8.8 0-16 7.2-16 16v200c0 4.4-3.6 8-8 8h-80c-4.4 0-8-3.6-8-8V482.1c0-8.5-1.7-16.8-4.9-24.5s-7.9-14.8-13.9-20.8L165.5 237.1c-6.3-6.3-6.5-16.5-0.3-22.8 3.9-3.9 8.3-4.7 11.4-4.7 3 0 7.4 0.8 11.3 4.7l151 151c6 6 13.1 10.7 20.8 13.9s16 4.9 24.5 4.9h255.7c8.5 0 16.8-1.7 24.5-4.9s14.8-7.9 20.8-13.9l151-151c3.9-3.9 8.3-4.7 11.3-4.7s7.5 0.8 11.4 4.7c6.1 6.3 5.9 16.5-0.4 22.8z" /></svg>