<?xml version="1.0" standalone="no"?><!DOCTYPE svg PUBLIC "-//W3C//DTD SVG 1.1//EN" "http://www.w3.org/Graphics/SVG/1.1/DTD/svg11.dtd"><svg class="icon" width="200px" height="200.00px" viewBox="0 0 1024 1024" version="1.1" xmlns="http://www.w3.org/2000/svg"><path fill="#333333" d="M512 136m-136 0a136 136 0 1 0 272 0 136 136 0 1 0-272 0ZM713.6 674.1c-18.5 4.9-37.5-6-42.4-24.5l-55.4-206.9c-1-3.9-6.8-3.2-6.8 0.9v566.5c0 7.6-6.2 13.8-13.8 13.8h-55.4c-7.6 0-13.8-6.2-13.8-13.8V691.7c0-7.6-6.2-13.8-13.8-13.8-7.6 0-13.8 6.2-13.8 13.8v318.5c0 7.6-6.2 13.8-13.8 13.8h-55.4c-7.6 0-13.8-6.2-13.8-13.8V443.6c0-4-5.8-4.8-6.8-0.9l-55.4 206.9c-4.9 18.5-23.9 29.4-42.4 24.5-18.5-4.9-29.4-23.9-24.5-42.4l60.1-225C362.3 346.1 417.2 304 479.9 304h64.3c62.7 0 117.6 42.1 133.8 102.7l60.1 225c4.9 18.5-6.1 37.4-24.5 42.4z" /></svg>