<?xml version="1.0" standalone="no"?><!DOCTYPE svg PUBLIC "-//W3C//DTD SVG 1.1//EN" "http://www.w3.org/Graphics/SVG/1.1/DTD/svg11.dtd"><svg class="icon" width="200px" height="200.00px" viewBox="0 0 1024 1024" version="1.1" xmlns="http://www.w3.org/2000/svg"><path fill="#333333" d="M769 544.9c-0.5 17.4-15.2 31.1-32.7 31.1H544c-35.3 0-64-28.7-64-64V256.7c0-17.4 13.7-32.2 31.1-32.7 18.1-0.5 32.9 14 32.9 32v240c0 8.8 7.2 16 16 16h177c18 0 32.5 14.8 32 32.9zM976 528c0-64.3-13.1-125.5-36.7-181.2-9.6-22.7-5.8-49 10.6-67.5C976.1 249.6 992 210.7 992 168 992 75.2 916.8 0 824 0c-51.3 0-97.2 23-128 59.1-16 18.8-41.4 26.5-65.2 20.2C592.9 69.3 553.1 64 512 64s-80.9 5.3-118.8 15.4C369.4 85.7 344 78 328 59.2 297.2 23 251.3 0 200 0 107.2 0 32 75.2 32 168c0 42.7 15.9 81.6 42.1 111.3 16.4 18.5 20.2 44.8 10.6 67.5C61.1 402.5 48 463.7 48 528c0 137 59.4 260.1 153.8 345.1 13.7 12.3 14.4 33.5 1.3 46.5l-41.8 41.8c-12.5 12.5-12.5 32.8 0 45.3 6.3 6.3 14.4 9.4 22.6 9.4s16.4-3.1 22.6-9.4l67-67c5-5 12.6-6.2 18.8-2.8C357.8 972 432.6 992 512 992s154.2-20 219.6-55.2c6.2-3.3 13.8-2.1 18.8 2.8l67 67c6.3 6.3 14.4 9.4 22.6 9.4s16.4-3.1 22.6-9.4c12.5-12.5 12.5-32.8 0-45.3l-41.8-41.8c-13-13-12.3-34.2 1.3-46.5C916.6 788.1 976 665 976 528zM827.5 64.1c54.2 1.8 98.3 45.7 100.4 99.9 1.1 29.5-10.1 56.4-28.9 76-6.8 7-18.1 6.5-24.2-1.1-35.5-44.4-78.9-82.2-128.2-111.2-8.4-4.9-10.6-16.1-4.5-23.7 19.8-25.2 50.8-41.1 85.4-39.9zM96.1 164c2.1-54.2 46.2-98.1 100.4-99.9 34.6-1.2 65.7 14.7 85.4 39.9 6 7.7 3.8 18.8-4.5 23.7-49.3 28.9-92.7 66.7-128.2 111.2-6.1 7.6-17.4 8.1-24.2 1.1-18.8-19.7-30-46.6-28.9-76z m698.7 646.8c-36.8 36.8-79.5 65.6-127.2 85.8C618.4 917.4 566 928 512 928s-106.4-10.6-155.7-31.4c-47.6-20.1-90.4-49-127.2-85.8s-65.6-79.5-85.8-127.2C122.6 634.4 112 582 112 528s10.6-106.4 31.4-155.7c5.9-13.9 12.5-27.3 19.8-40.4 11.9-21.2 25.8-41.3 41.5-60.1 7.7-9.2 15.9-18.1 24.4-26.7 22.2-22.2 46.7-41.6 73-57.8 17.2-10.6 35.3-20 54.1-27.9 3.7-1.6 7.4-3.1 11.2-4.5C413.5 137 462 128 512 128s98.5 9 144.5 26.9c3.7 1.4 7.5 2.9 11.2 4.5 18.8 8 36.9 17.3 54.1 27.9 26.4 16.3 50.8 35.6 73 57.8 8.6 8.6 16.7 17.5 24.4 26.7 15.7 18.8 29.6 38.8 41.5 60.1 7.3 13 13.9 26.5 19.8 40.4C901.4 421.6 912 474 912 528c0 54-10.6 106.4-31.4 155.7-20.1 47.6-49 90.4-85.8 127.1z" /></svg>