<?xml version="1.0" standalone="no"?><!DOCTYPE svg PUBLIC "-//W3C//DTD SVG 1.1//EN" "http://www.w3.org/Graphics/SVG/1.1/DTD/svg11.dtd"><svg class="icon" width="200px" height="200.00px" viewBox="0 0 1024 1024" version="1.1" xmlns="http://www.w3.org/2000/svg"><path fill="#333333" d="M608 928V592c0-17.7-14.3-32-32-32H32c-17.7 0-32 14.3-32 32v336c0 8.8 7.2 16 16 16h236c2.2 0 4 1.8 4 4v24c0 2.2-1.8 4-4 4h-64c-15.5 0-28 12.5-28 28 0 2.2 1.8 4 4 4h280c2.2 0 4-1.8 4-4 0-15.5-12.5-28-28-28h-64c-2.2 0-4-1.8-4-4v-24c0-2.2 1.8-4 4-4h236c8.8 0 16-7.2 16-16zM64 876V640c0-8.8 7.2-16 16-16h448c8.8 0 16 7.2 16 16v236c0 2.2-1.8 4-4 4H68c-2.2 0-4-1.8-4-4zM763.4 79.9c14 0 27.6 3.8 39.2 11 11.1 6.9 20.1 16.5 25.8 27.8l16.7 32.7 36.7 2.1c41.9 2.4 74.8 35.4 74.8 75.1 0 41.6-32.4 75.4-72.1 75.4h-225c-16.8-1.2-32.1-7.8-43.3-18.6-7.1-6.9-15.7-18.5-15.7-34.7 0-13.4 6.1-23.6 11.2-29.8 8.1-9.8 19.8-17.2 33.2-20.8l43.4-12 3.3-44.9c1.3-16.8 9.1-32.5 22-44.2 13.4-12.3 31.1-19.1 49.8-19.1z m0-64c-71.8 0-130.6 54-135.7 122.4-52.8 14.6-91.3 59.4-91.3 112.3 0 62.5 53.5 113.8 121 117.4h226.9c75.1 0 136.1-62.4 136.1-139.4 0-74.2-59.8-134.6-135.1-138.9C863.2 46 817 15.9 763.4 15.9zM437.9 198.1l-118.3 123c-2.1 2.2-5.9 1.3-6.7-1.7L299.2 272c-0.7-2.5-3.7-3.7-5.9-2.3-21.6 12.9-41.5 28.1-59.3 45.4-28.9 27.9-52.4 61.1-70 98.4-5.4 11.6-17 18.4-29 18.4-4.6 0-9.2-1-13.6-3-16-7.5-22.9-26.6-15.4-42.6 20.9-44.4 48.9-83.9 83.4-117.2 25.9-25 55.1-46.3 87.3-63.6 1.7-0.9 2.5-2.8 2-4.6l-15.1-52.2c-0.9-3 1.8-5.7 4.8-5l165.7 41c6 1.6 8.1 8.9 3.8 13.4zM974.5 471.8c-13.8 47.1-35.4 90.4-64.3 128.7-21.7 28.7-47.3 54.3-76.4 76.3-1.5 1.1-2 3.2-1.2 4.9l22.9 49.2c1.3 2.8-0.9 5.9-4 5.7l-170-14.9c-6.1-0.5-9.4-7.5-5.9-12.6l97.9-139.8c1.8-2.5 5.6-2.2 6.9 0.6l20.8 44.7c1.1 2.4 4.2 3.1 6.2 1.4 19.3-16.1 36.6-34.2 51.6-54 24.2-32.1 42.4-68.4 54-108 5-17 22.7-26.7 39.7-21.8 17 4.9 26.7 22.7 21.8 39.6z" /></svg>