<?xml version="1.0" standalone="no"?><!DOCTYPE svg PUBLIC "-//W3C//DTD SVG 1.1//EN" "http://www.w3.org/Graphics/SVG/1.1/DTD/svg11.dtd"><svg class="icon" width="200px" height="200.00px" viewBox="0 0 1024 1024" version="1.1" xmlns="http://www.w3.org/2000/svg"><path fill="#333333" d="M608 592v336c0 8.8-7.2 16-16 16H356c-2.2 0-4 1.8-4 4v24c0 2.2 1.8 4 4 4h64c7.7 0 14.7 3.1 19.8 8.2 5.1 5.1 8.2 12.1 8.2 19.8 0 2.2-1.8 4-4 4H164c-1.1 0-2.1-0.5-2.8-1.2-0.7-0.7-1.2-1.7-1.2-2.8 0-15.5 12.5-28 28-28h64c2.2 0 4-1.8 4-4v-24c0-2.2-1.8-4-4-4H16c-8.8 0-16-7.2-16-16V592c0-17.7 14.3-32 32-32h544c17.7 0 32 14.3 32 32zM1020.6 228.6c0 76.9-61 139.4-136.1 139.4h-227c-67.5-3.6-121-54.9-121-117.4 0-53 38.5-97.7 91.3-112.3 5.1-68.4 63.8-122.4 135.6-122.4 53.6 0 99.8 30.1 122.1 73.8 75.3 4.3 135.1 64.8 135.1 138.9zM437.9 198.1l-118.3 123c-2.1 2.2-5.9 1.3-6.7-1.7L299.2 272c-0.7-2.5-3.7-3.7-5.9-2.3-21.6 12.9-41.5 28.1-59.3 45.4-28.9 27.9-52.4 61.1-70 98.4-5.4 11.6-17 18.4-29 18.4-4.6 0-9.2-1-13.6-3-16-7.5-22.9-26.6-15.4-42.6 20.9-44.4 48.9-83.9 83.4-117.2 25.9-25 55.1-46.3 87.3-63.6 1.7-0.9 2.5-2.8 2-4.6l-15.1-52.2c-0.9-3 1.8-5.7 4.8-5l165.7 41c6 1.6 8.1 8.9 3.8 13.4zM974.5 471.8c-13.8 47.1-35.4 90.4-64.3 128.7-21.7 28.7-47.3 54.3-76.4 76.3-1.5 1.1-2 3.2-1.2 4.9l22.9 49.2c1.3 2.8-0.9 5.9-4 5.7l-170-14.9c-6.1-0.5-9.4-7.5-5.9-12.6l97.9-139.8c1.8-2.5 5.6-2.2 6.9 0.6l20.8 44.7c1.1 2.4 4.2 3.1 6.2 1.4 19.3-16.1 36.6-34.2 51.6-54 24.2-32.1 42.4-68.4 54-108 5-17 22.7-26.7 39.7-21.8 17 4.9 26.7 22.7 21.8 39.6z" /></svg>