<?xml version="1.0" standalone="no"?><!DOCTYPE svg PUBLIC "-//W3C//DTD SVG 1.1//EN" "http://www.w3.org/Graphics/SVG/1.1/DTD/svg11.dtd"><svg class="icon" width="200px" height="200.00px" viewBox="0 0 1024 1024" version="1.1" xmlns="http://www.w3.org/2000/svg"><path fill="#333333" d="M0 160v704c0 35.3 28.7 64 64 64h896c35.3 0 64-28.7 64-64V160c0-35.3-28.7-64-64-64H64c-35.3 0-64 28.7-64 64z m944 704H80c-8.8 0-16-7.2-16-16V360c0-4.4 3.6-8 8-8h880c4.4 0 8 3.6 8 8v488c0 8.8-7.2 16-16 16z m8-576H72c-4.4 0-8-3.6-8-8V176c0-8.8 7.2-16 16-16h864c8.8 0 16 7.2 16 16v104c0 4.4-3.6 8-8 8zM848 256c-17.7 0-32-14.3-32-32s14.3-32 32-32 32 14.3 32 32-14.3 32-32 32zM720 256c-17.7 0-32-14.3-32-32s14.3-32 32-32 32 14.3 32 32-14.3 32-32 32zM592 256c-17.7 0-32-14.3-32-32s14.3-32 32-32 32 14.3 32 32-14.3 32-32 32zM439.8 767.5c-15.6-8.3-21.5-27.7-13.2-43.3l114.4-215c8.3-15.6 27.7-21.5 43.3-13.2 15.6 8.3 21.5 27.7 13.2 43.3L483 754.3c-8.3 15.6-27.6 21.5-43.2 13.2zM310.5 707.8l-61.2-61.2c-12.5-12.5-12.5-32.8 0-45.3l61.2-61.2c1.6-1.6 4.1-1.6 5.7 0l39.6 39.6c1.6 1.6 1.6 4.1 0 5.7l-27.2 27.2c-6.2 6.2-6.2 16.4 0 22.6l27.2 27.2c1.6 1.6 1.6 4.1 0 5.7l-39.6 39.6c-1.6 1.7-4.1 1.7-5.7 0.1zM707.8 707.8l-39.6-39.6c-1.6-1.6-1.6-4.1 0-5.7l27.2-27.2c6.2-6.2 6.2-16.4 0-22.6l-27.2-27.2c-1.6-1.6-1.6-4.1 0-5.7l39.6-39.6c1.6-1.6 4.1-1.6 5.7 0l61.2 61.2c12.5 12.5 12.5 32.8 0 45.3l-61.2 61.2c-1.6 1.5-4.1 1.5-5.7-0.1z" /></svg>