<?xml version="1.0" standalone="no"?><!DOCTYPE svg PUBLIC "-//W3C//DTD SVG 1.1//EN" "http://www.w3.org/Graphics/SVG/1.1/DTD/svg11.dtd"><svg class="icon" width="200px" height="200.00px" viewBox="0 0 1024 1024" version="1.1" xmlns="http://www.w3.org/2000/svg"><path fill="#333333" d="M958.9 854.6l-6.6 6.6c-12 12-28.3 18.7-45.3 18.7H116.4c-16.8 0-32.9-6.6-44.9-18.4l-6.4-6.3c-0.7-0.7-1.2-1.7-1.2-2.8v-0.7c0-2.1 1.7-3.9 3.9-3.9H956c2.1 0 3.9 1.7 3.9 3.9 0.1 1.2-0.3 2.2-1 2.9zM0 816v38.2c0 17.1 6.9 33.6 19.1 45.6C47.9 928.1 86.6 944 127 944h769.3c40.8 0 79.9-16.2 108.8-45l0.2-0.2c12-12 18.7-28.3 18.7-45.3V816c0-17.7-14.3-32-32-32H32c-17.7 0-32 14.3-32 32zM967.8 136.2C933 101.5 885 80 832 80H128v544c0 53 43 96 96 96h480c53 0 96-43 96-96v-74.2c0-21.1 16.7-38.4 37.7-39.2C947.2 483.2 1024 384.8 1024 272c0-53-21.5-101-56.2-135.8zM736 592c0 35.3-28.7 64-64 64H256c-35.3 0-64-28.7-64-64V144h544v448z m213.9-260.1c-6.6 18.8-16.1 36.3-28.4 52-12.3 15.7-26.9 29.2-43.6 40.2-16.5 10.9-34.6 18.9-53.8 23.9H816c-8.8 0-16-7.2-16-16V160c0-8.8 7.2-16 16-16h14.6c33.9 0 66.8 12.9 91.1 36.7C946.4 205 960 237.5 960 272c0 20.5-3.4 40.7-10.1 59.9z" /></svg>