<?xml version="1.0" standalone="no"?><!DOCTYPE svg PUBLIC "-//W3C//DTD SVG 1.1//EN" "http://www.w3.org/Graphics/SVG/1.1/DTD/svg11.dtd"><svg class="icon" width="200px" height="200.00px" viewBox="0 0 1024 1024" version="1.1" xmlns="http://www.w3.org/2000/svg"><path fill="#333333" d="M600 0C437.6 0 296.6 91.3 225.3 225.3 91.3 296.6 0 437.6 0 600c0 234.2 189.8 424 424 424 162.4 0 303.4-91.3 374.7-225.3C932.7 727.4 1024 586.4 1024 424 1024 189.8 834.2 0 600 0zM283.9 268.3C328.2 249.5 375.4 240 424 240s95.8 9.5 140.1 28.3c13.7 5.8 26.9 12.4 39.7 19.7H266.5c0.6-1.4 1.1-2.7 1.7-4.1 1.5-3.7 3.1-7.3 4.8-10.8 3.6-1.7 7.2-3.3 10.9-4.8z m456.2 487.4C695.8 774.5 648.6 784 600 784s-95.8-9.5-140.1-28.3c-13.7-5.8-26.9-12.4-39.7-19.7h337.2c-0.6 1.4-1.1 2.7-1.7 4.1-1.5 3.7-3.1 7.3-4.8 10.8-3.5 1.7-7.1 3.3-10.8 4.8zM759.6 480c1.3 0 2.6 0 3.9-0.2 7.4 20.9 12.8 42.3 16.2 64.2H260.5c-7.4-20.8-12.8-42.2-16.2-64h515.3z m24.3 128c-0.5 21.7-2.8 43.1-7.1 64H339c-18.7-19.6-34.9-41-48.6-64h493.5zM240.1 415.6c0.5-21.5 2.8-42.6 7-63.4 0-0.2 0.2-0.3 0.3-0.3h437.3c0.1 0 0.2 0 0.3 0.1 18.5 19.4 34.6 40.6 48.2 63.4 0.1 0.2 0 0.5-0.3 0.5H240.4c-0.1 0.1-0.3-0.1-0.3-0.3z m438.5 439c-33.1 33.1-71.6 59-114.5 77.2C519.8 950.5 472.6 960 424 960s-95.8-9.5-140.1-28.3c-42.9-18.1-81.4-44.1-114.5-77.2s-59-71.6-77.2-114.5C73.5 695.8 64 648.6 64 600s9.5-95.8 28.3-140.1c18.1-42.9 44.1-81.4 77.2-114.5l0.2-0.2c5.1-5.1 13.7-0.6 12.5 6.5-4 23.5-6.1 47.6-6.1 72.2 0 234 190 424 424 424 24.6 0 48.8-2.1 72.2-6.1 7.1-1.2 11.6 7.4 6.5 12.5-0.1 0.1-0.2 0.2-0.2 0.3z m176-176l-0.2 0.2c-5.1 5.1-13.7 0.6-12.5-6.5 4-23.5 6.1-47.6 6.1-72.2 0-234-190-424-424-424-24.6 0-48.7 2.1-72.2 6.1-7.1 1.2-11.6-7.4-6.5-12.5l0.2-0.2c33.1-33.1 71.6-59 114.5-77.2C504.2 73.5 551.4 64 600 64s95.8 9.5 140.1 28.3c42.9 18.1 81.4 44.1 114.5 77.2 33.1 33.1 59 71.6 77.2 114.5 18.7 44.2 28.2 91.4 28.2 140s-9.5 95.8-28.3 140.1c-18.1 42.9-44.1 81.4-77.1 114.5z" /></svg>