<?xml version="1.0" standalone="no"?><!DOCTYPE svg PUBLIC "-//W3C//DTD SVG 1.1//EN" "http://www.w3.org/Graphics/SVG/1.1/DTD/svg11.dtd"><svg class="icon" width="200px" height="200.00px" viewBox="0 0 1024 1024" version="1.1" xmlns="http://www.w3.org/2000/svg"><path fill="#333333" d="M512 0C229.2 0 0 229.2 0 512s229.2 512 512 512 512-229.2 512-512S794.8 0 512 0z m-75.3 702c-34.1 8.6-67 13.5-96.2 16.2-19.9 1.8-36.6-14.9-34.7-34.9 1.2-13 2.8-26.8 5.1-41.2 6.9-44.5 18-85.3 32.9-121.3 17.8-43.1 41.2-79.3 69.5-107.6 42-42 100.5-72.7 174-91.3 34.1-8.6 67-13.5 96.2-16.2 19.9-1.8 36.6 14.9 34.7 34.9-1.2 13-2.8 26.8-5.1 41.2-6.9 44.5-18 85.3-32.9 121.3-17.8 43.1-41.2 79.3-69.5 107.6-41.9 42-100.5 72.7-174 91.3zM512 464c-26.5 0-48 21.5-48 48s21.5 48 48 48 48-21.5 48-48-21.5-48-48-48z" /></svg>