<?xml version="1.0" standalone="no"?><!DOCTYPE svg PUBLIC "-//W3C//DTD SVG 1.1//EN" "http://www.w3.org/Graphics/SVG/1.1/DTD/svg11.dtd"><svg class="icon" width="200px" height="200.00px" viewBox="0 0 1024 1024" version="1.1" xmlns="http://www.w3.org/2000/svg"><path fill="#333333" d="M216.7 582.5c-61.6 0.1-111.4 47.8-111.4 106.7 0 58.9 49.9 106.7 111.5 106.7s111.5-47.8 111.5-106.7c0-58.9-50-106.7-111.6-106.7z m-1.5 165.1c-33.1 0-59.9-26.8-59.9-59.9v-0.1c0-33.2 26.8-60 59.9-60 33.1 0 60 26.9 59.9 60 0 33.2-26.8 60-59.9 60z m561.1-165.1c-61.6 0.1-111.5 47.8-111.5 106.7 0 58.9 49.9 106.7 111.5 106.7s111.4-47.8 111.4-106.7c0-58.9-49.9-106.7-111.4-106.7z m3.5 165.1c-33.1 0-59.9-26.8-59.9-59.9v-0.1c0-33.2 26.8-60 59.9-60 33.1 0 59.9 26.9 59.9 60 0 33.2-26.8 60-59.9 60zM899.7 465c-44.4-17-83.5-45.6-111.5-84.1-73.4-100.8-186.5-152.8-297.9-152.8-128.7 0-255.2 69.4-315.7 213.3C89.2 473.5 46.8 551.8 32.1 635c-0.2 1-1 1.7-2.1 1.7h-0.6C25.2 637 0 639.8 0 673.1c0 31.9 1.7 52.3 26.5 55.4 0.3 7.2 6.2 12.8 13.4 12.8h57.8c-8.8-17-13.3-35.8-13.3-54.9v-0.2c0.5-4.6 0.6-7.9 0.6-10.7 6-64.1 62.3-114.2 131-114.2 72.7 0 131.5 56 131.5 125.1 0 19.7-4.7 38.3-13.3 54.9h324.6c-8.8-17-13.3-35.8-13.3-54.9 0-69 58.9-125.1 131.5-125.1 72.7 0 131.5 56 131.5 125.1 0 19.7-4.7 38.3-13.3 54.9h46.1c51.4 0 90.4-46.4 81.4-97-14-78.2-49.7-151.2-123-179.3z m-655.5 10.2c3.4-73 92.5-162.1 217.9-176.4v176.4H244.2z m337.5 202.1H411.3c-2.7-55.7-30.5-105.2-72.7-138.1h187.5v-0.1h128.4c-42.2 32.9-70.1 82.5-72.8 138.2z m172.2-202.2H519.6V297.4c134.5 9.4 234.5 99.4 234.5 175.4 0 0.8-0.2 1.5-0.2 2.3z" /></svg>