<?xml version="1.0" standalone="no"?><!DOCTYPE svg PUBLIC "-//W3C//DTD SVG 1.1//EN" "http://www.w3.org/Graphics/SVG/1.1/DTD/svg11.dtd"><svg class="icon" width="200px" height="199.80px" viewBox="0 0 1025 1024" version="1.1" xmlns="http://www.w3.org/2000/svg"><path fill="#333333" d="M1025.1 568c0-24.2-13.7-46.4-35.4-57.2l-202.3-101c-10.8-5.4-17.7-16.5-17.7-28.6V172.7c0-26.7-16.6-50.6-41.6-59.9L550.5 46.3c-24.2-9-50.8-9-74.9 0.1l-176.9 66.8c-24.9 9.4-41.4 33.3-41.4 59.9v207.1c0 12.1-6.9 23.2-17.7 28.6L35.5 510.7C13.8 521.5 0 543.8 0.1 568.1l0.5 226c0 23.2 12.6 44.5 32.9 55.8l223.8 124.6 1.2 0.7c18.9 10.5 41.9 10.4 60.8-0.2l2-1.1L497 873.2c9.9-5.7 22.1-5.7 32 0.1l176.8 102.5c9.5 5.4 20.1 8.1 30.7 8.1 10.4 0 20.9-2.6 30.3-7.8l3-1.7L992.4 851c20.4-11.3 33-32.8 33-56.1l-0.3-226.9zM705.6 379.8c0 12.2-6.8 23.3-17.7 28.7l-131.4 65.7c-5.3 2.7-11.6-1.2-11.6-7.2V304.1c0-29.1 17.7-55.2 44.7-66L705 192l0.6 187.8zM257.5 621l-0.2-0.1-149.1-75 149.1-74.4 16.8-8.4c9.2-4.6 20-4.5 29.1 0.3l18.1 9.4 129.8 64.3c5.8 2.9 6 11.1 0.2 14.2l-130 69.8c-20 10.1-43.7 10-63.8-0.1z m205.7 203.9l-141.8 70.6-0.8-163.6c-0.1-27 15.1-51.8 39.2-63.9l108.8-54.5c5.3-2.7 11.6 1.2 11.6 7.1l0.8 175.6c0 12.1-6.9 23.2-17.8 28.7zM488 182.6L385 144l128-48 128 48-103 38.6c-16.1 6.1-33.9 6.1-50 0z m215.7 439.2l-129.2-70.5c-5.7-3.1-5.5-11.3 0.3-14.2l131-65.3 16.1-8.4c9.1-4.8 20-4.9 29.1-0.3l18.7 9.3L916.9 546l-146.2 76.5c-21.1 10.9-46.2 10.7-67-0.7zM961 780.7c0 11.8-6.5 22.7-17 28.3l-174.3 92.2-0.6-169.1c-0.1-27 15.1-51.8 39.3-63.8L961 592v188.7z" /></svg>