<?xml version="1.0" standalone="no"?><!DOCTYPE svg PUBLIC "-//W3C//DTD SVG 1.1//EN" "http://www.w3.org/Graphics/SVG/1.1/DTD/svg11.dtd"><svg class="icon" width="200px" height="200.00px" viewBox="0 0 1024 1024" version="1.1" xmlns="http://www.w3.org/2000/svg"><path fill="#333333" d="M512 64c60.5 0 119.2 11.8 174.4 35.2 53.3 22.6 101.3 54.9 142.4 96 41.2 41.2 73.5 89.1 96 142.4C948.2 392.8 960 451.5 960 512s-11.8 119.2-35.2 174.4c-22.6 53.3-54.9 101.3-96 142.4-41.2 41.2-89.1 73.5-142.4 96C631.2 948.2 572.5 960 512 960s-119.2-11.8-174.4-35.2c-53.3-22.6-101.3-54.9-142.4-96-41.2-41.2-73.5-89.1-96-142.4C75.8 631.2 64 572.5 64 512s11.8-119.2 35.2-174.4c22.6-53.3 54.9-101.3 96-142.4s89.1-73.5 142.4-96C392.8 75.8 451.5 64 512 64m0-64C229.2 0 0 229.2 0 512s229.2 512 512 512 512-229.2 512-512S794.8 0 512 0zM683.4 305.8c19.9-1.8 36.6 14.9 34.7 34.9-1.2 13-2.8 26.8-5.1 41.2-6.9 44.5-18 85.3-32.9 121.3-17.8 43.1-41.2 79.3-69.5 107.6-42 42-100.5 72.7-174 91.3-34.1 8.6-67 13.5-96.2 16.2-19.9 1.8-36.6-14.9-34.7-34.9 1.2-13 2.8-26.8 5.1-41.2 6.9-44.5 18-85.3 32.9-121.3 17.8-43.1 41.2-79.3 69.5-107.6 42-42 100.5-72.7 174-91.3 34.2-8.6 67.1-13.5 96.2-16.2z m63.6-67c-78.3 0-263.1 13.2-379 129.2-119.2 119.2-129.8 311.3-129.1 385.4 0.2 17.4 14.2 31.5 31.7 31.7h6.5c78.3 0 263.1-13.2 379-129.2 119.2-119.2 129.8-311.3 129.1-385.4-0.2-17.4-14.2-31.5-31.7-31.7-2.1 0.1-4.3 0-6.5 0zM512 464c-26.5 0-48 21.5-48 48s21.5 48 48 48 48-21.5 48-48-21.5-48-48-48z" /></svg>