<?xml version="1.0" standalone="no"?><!DOCTYPE svg PUBLIC "-//W3C//DTD SVG 1.1//EN" "http://www.w3.org/Graphics/SVG/1.1/DTD/svg11.dtd"><svg class="icon" width="200px" height="200.00px" viewBox="0 0 1024 1024" version="1.1" xmlns="http://www.w3.org/2000/svg"><path fill="#333333" d="M1024 708.7c0 36.4-20.5 69.6-53.1 85.9 0 0-261.1 130.3-374.9 186.8-23.9 11.9-52-5.5-52-32.3V456.4c0-20.3 12.7-38.4 31.8-45.2l415.9-148.6c15.6-5.6 32.1 6 32.1 22.6 0.2 105.9 0.2 423.5 0.2 423.5zM480 456.2v490.4c0 27.2-29.1 44.6-53 31.7L50.6 776.2C19.4 759.4 0 726.9 0 691.6c0 0 0.1-304.3 0.3-408 0-16.6 16.5-28.2 32.1-22.5L448.3 411c19 6.9 31.7 24.9 31.7 45.2zM978.9 199.2L544.5 354.4c-21 7.5-43.9 7.5-64.9-0.1L47.5 198.5c-9.4-3.4-10.8-16.1-2.4-21.4 5.4-3.3 11.1-6.2 17.2-8.5l416.1-156c10.9-4.1 22.3-6.1 33.7-6.1 11.4 0 22.7 2 33.5 6.1l415.9 155.1c7.2 2.7 13.9 6.2 20.1 10.3 8.1 5.5 6.5 17.9-2.7 21.2z" /></svg>