<?xml version="1.0" standalone="no"?><!DOCTYPE svg PUBLIC "-//W3C//DTD SVG 1.1//EN" "http://www.w3.org/Graphics/SVG/1.1/DTD/svg11.dtd"><svg class="icon" width="200px" height="200.00px" viewBox="0 0 1024 1024" version="1.1" xmlns="http://www.w3.org/2000/svg"><path fill="#333333" d="M320 704v288h64v-92c0-2.2 1.8-4 4-4h568c2.2 0 4 1.8 4 4v92h64V704c0-17.7-14.3-32-32-32H352c-17.7 0-32 14.3-32 32z m64 124v-84c0-4.4 3.6-8 8-8h560c4.4 0 8 3.6 8 8v84c0 2.2-1.8 4-4 4H388c-2.2 0-4-1.8-4-4zM960 480v88c0 4.4-3.6 8-8 8H392c-4.4 0-8-3.6-8-8v-80c0-4.4 3.6-8 8-8h568z m-608-64c-17.7 0-32 14.3-32 32v160c0 17.7 14.3 32 32 32h640c17.7 0 32-14.3 32-32V448c0-17.7-14.3-32-32-32H352zM960 224v88c0 4.4-3.6 8-8 8H392c-4.4 0-8-3.6-8-8v-80c0-4.4 3.6-8 8-8h568z m-608-64c-17.7 0-32 14.3-32 32v160c0 17.7 14.3 32 32 32h640c17.7 0 32-14.3 32-32V192c0-17.7-14.3-32-32-32H352zM560 256c-8.8 0-16 7.2-16 16s7.2 16 16 16h224c8.8 0 16-7.2 16-16s-7.2-16-16-16H560zM560 512c-8.8 0-16 7.2-16 16s7.2 16 16 16h224c8.8 0 16-7.2 16-16s-7.2-16-16-16H560zM560 768c-8.8 0-16 7.2-16 16s7.2 16 16 16h224c8.8 0 16-7.2 16-16s-7.2-16-16-16H560zM320 96c0 17.7 14.3 32 32 32h481c4.4 0 8-3.6 8-8V96c0-17.7-14.3-32-32-32H352c-17.7 0-32 14.3-32 32zM64 272v32c0 8.8-7.2 16-16 16H32c-17.7 0-32 14.3-32 32s14.3 32 32 32h16c8.8 0 16 7.2 16 16s-7.2 16-16 16H32c-17.7 0-32 14.3-32 32s14.3 32 32 32h16c8.8 0 16 7.2 16 16v496h64v-32h96v32h64V320c0-35.3-28.7-64-64-64H80c-8.8 0-16 7.2-16 16z m64 624V320h64c17.7 0 32 14.3 32 32v544h-96z" /></svg>