<?xml version="1.0" standalone="no"?><!DOCTYPE svg PUBLIC "-//W3C//DTD SVG 1.1//EN" "http://www.w3.org/Graphics/SVG/1.1/DTD/svg11.dtd"><svg class="icon" width="200px" height="200.00px" viewBox="0 0 1024 1024" version="1.1" xmlns="http://www.w3.org/2000/svg"><path fill="#333333" d="M752 436v56c0 2.2-1.8 4-4 4H388c-2.2 0-4-1.8-4-4v-56c0-2.2 1.8-4 4-4h360c2.2 0 4 1.8 4 4z m-424-68c-4.4 0-8 3.6-8 8v176c0 4.4 3.6 8 8 8h480c4.4 0 8-3.6 8-8V376c0-4.4-3.6-8-8-8H328zM808 672H328c-4.4 0-8-3.6-8-8v-48c0-4.4 3.6-8 8-8h480c4.4 0 8 3.6 8 8v48c0 4.4-3.6 8-8 8zM808 784H328c-4.4 0-8-3.6-8-8v-48c0-4.4 3.6-8 8-8h480c4.4 0 8 3.6 8 8v48c0 4.4-3.6 8-8 8zM960 277c0-34-13.5-66.5-37.5-90.5l-149-148.9C749.5 13.5 716.9 0 682.9 0H224c-17.7 0-32 14.3-32 32v58c0 4.4-3.6 8-8 8H96c-17.7 0-32 14.3-32 32v829.5c0 35.3 28.7 64 64 64h672c17.7 0 32-14.3 32-32v-55c0-4.4 3.6-8 8-8h88c17.7 0 32-14.3 32-32V277zM742.8 98l119.4 119.2c2.5 2.5 0.7 6.8-2.8 6.8H744c-4.4 0-8-3.6-8-8V100.8c0-3.5 4.3-5.3 6.8-2.8zM760 959.5H160c-17.7 0-32-14.3-32-32V178c0-8.8 7.2-16 16-16h44c2.2 0 4 1.8 4 4v730.5c0 17.7 14.3 32 32 32h540c2.2 0 4 1.8 4 4v19c0 4.5-3.6 8-8 8z m120-95H272c-8.8 0-16-7.2-16-16V80c0-8.8 7.2-16 16-16h368c17.7 0 32 14.3 32 32v128c0 35.3 28.7 64 64 64h128c17.7 0 32 14.3 32 32v528.5c0 8.9-7.2 16-16 16z" /></svg>