<?xml version="1.0" standalone="no"?><!DOCTYPE svg PUBLIC "-//W3C//DTD SVG 1.1//EN" "http://www.w3.org/Graphics/SVG/1.1/DTD/svg11.dtd"><svg class="icon" width="200px" height="200.00px" viewBox="0 0 1024 1024" version="1.1" xmlns="http://www.w3.org/2000/svg"><path fill="#333333" d="M774.9 281c13.5 11 29.1 18 45.9 20.6 2.3 0.4 3.9 2.6 3.3 4.9-4.1 16.3-3.8 33.2 1.1 49.3 1.1 3.5 2.1 7.3 3.2 11.1 0.6 2.2-0.7 4.4-2.9 4.9l-28.6 7.3c-0.9 0.2-1.9 0.4-3.2 0.7-5.1 1.1-12.8 2.8-21.7 6.9-17.1 8-31.3 15.9-45.1 23.5-9.9 5.5-19.3 10.6-29.7 15.9-32.6 16.4-60.8 40.9-83.8 72.8-11.4 15.7-25.5 28.5-42.2 39.9-2.9 2-6.8-0.6-6.2-4.1 2.3-13 1.4-26.5-3.2-38.7-9-24-29.2-40.7-53.4-45-3.5-0.6-4.5-5.1-1.7-7.1 15.7-11.5 30-19.7 45.7-23.3 48.8-11.2 93.8-35.8 130.2-71.1 1.5-1.5 4.7-3.4 9.7-6.3 8.1-4.8 19.2-11.4 30.9-22 5.5-5 9.8-9.9 12.8-13.4 0.8-1 1.6-1.9 2.2-2.5L764 277c1.4-1.6 3.8-1.7 5.5-0.4l5.4 4.4z m186.6-129.3c-11.8 0-23.9 3.6-34.1 10.6-4.7 3.2-12.7 9.7-17.9 11.5-12.6 4.5-23.7 14.4-26.7 27.9-4.3 19.8-25.5 37.2-46.2 37.2-7.5 0-14.9-2.3-21.3-7.5-14.3-11.6-29.1-22.6-42.7-35-11.3-10.3-23.2-15.7-37.1-15.7-1.5 0-3.1 0.1-4.7 0.2-24.2 2-46.5 9.2-67.7 20-35.8 18.3-54 46.7-94.8 61.8-5.8 2.2-12.5 3-18.2 5.6-26.1 11.9-52.6 39.3-80 47.9-12.4 3.9-18.2 12.4-30.1 17.3-6.6 2.7-10.3 3.5-12.8 3.5-3.2 0-4.7-1.1-8.2-1.1-3.4 0-8.7 1.1-19.3 5.6-7.3 3.1-21 10-40.3 16.6-15.5 5.3 17.6 38.5 21.1 41.9 0.7 0.7 1.8 0.9 3.2 0.9 10.4 0 38.3-15 47.9-22.9 9.9-8.1 9.7-5.8 21.6-11.5 23.5-11.1 31.5-13.1 48.8-16.5 31.3-6 71.6-27.5 99.4-45.7 0.5-0.3 1.3-0.2 1.8-0.5 26.7-17.1 38.8-30.5 64.3-43 4.1-2 7.3-2.4 10.6-2.4 2.2 0 4.6 0.2 7.4 0.2 1 0 2.1 0 3.3-0.1 0.9 1.9 1 2 1.9 3.9-3.5 3.9-6.8 8.1-10.7 11.6-14.3 12.9-28.6 16.6-42.2 29.8-27.7 26.9-62.2 46-99.9 54.6-38 8.7-67 31.3-96.5 55.5-31.5 25.8-63.7 49.1-94.9 75.2-13.1 10.9-29.8 17.6-42.4 29.1-12.3 11.2-26.3 17.6-41.6 22.3-26.3 8.2-47 26.5-68.3 43.7-18.3 14.8-36.4 30-55.5 43.7-9.1 6.6-18.7 9.2-29.4 9.2-24.6 0-55.1-14.2-100.1-27.6-0.6-0.2-1.4-0.3-2.1-0.3-6.7 0-16.5 8.2 24.5 52.4 14 15.1 19.4 17.6 30.8 34.8 7.5 11.4 16.2 17.1 25.7 17.1 5.9 0 12.1-2.2 18.6-6.7 5.5-3.8 11-7.7 15.7-12.5 20.2-20.7 44.6-34.4 71.1-45.5 39.7-16.7 78.6-34.8 118-52.2 5.2-2.3 10.7-3.9 16.1-6 9.5-3.6 20.1-5.5 28.2-11.1 46.8-32.6 82.4-39 133.5-63.5 2.1-1 4.4-1.9 6.5-1.9 2.5 0 4.7 1.2 6 4.6 1.2 3.2-0.4 9.1-2.9 11.6-10.8 10.8-13.2 15-24.7 25.1-32.1 28.1-53.6 50.6-90.5 72.7-6.6 3.9-11.2 11.1-16.6 16.9-3.9 4.2-7 9.1-11.1 13-29.3 27.4-59.3 54.1-88.1 82-22.8 22.1-45.5 43.6-75.9 55.1-9.1 3.5-17.5 9.1-25.6 14.7-8.2 5.7-12.2 23.3-6.5 32.2 10.5 16.8 17.4 50.3 33.5 76.3 2.3 3.7 13.7 7.1 21.4 7.1 3.4 0 6.1-0.7 7.1-2.2 11.3-19.1 3.9-61.1 6.8-71.8 4.7-17.1 25.8-44.6 40.1-51.8 8.8-4.4 17.4-9.3 26.3-13.7 35.6-17.8 70.2-34 95.6-65.8 5.8-7.3 14-12.7 21.7-18.2 7.2-5.1 15.2-9.1 22.8-13.8 9.4-5.9 18.2-13 28.1-17.9 26.5-13.2 52.1-30 79-42.6 47.7-22.2 91.5-47.5 123-91.1 16.1-22.3 36.1-40.7 60.7-53.1 26.4-13.3 46.4-26 73.2-38.6 3.4-1.6 7.5-2 13.6-3.6-2.1 6.4-6.9 11-9.1 14.2-10.9 16.2-22.8 15.2-35.1 30.3-11.2 13.8-24.4 26-36.8 38.8-8.6 8.8-18.2 16.7-25.6 26.5-12 15.8-32.4 27.7-43.7 44.1-4.7 6.9-21.4 29.3-28.1 33.1-22.5 12.7-20.7 15.8-44.5 28.9-1.6 0.9-2.8 2.5-4.2 3.8-4.1 3.9-7.4 9.3-12.3 11.5-6.7 3.1 14.6 22.3 20.8 31.5 0.8 1.2 2.1 1.9 3.5 1.9h2.9c3 0 6-0.1 8.2-1.4 15.5-8.8 19.6-10.3 33.5-21.1 17.4-13.5 7.8-20.2 24.1-35.6 21.5-20.3 59.3-50.1 82.7-68.3 5.2-4.1 10.7-8.5 14.1-14.1 21.4-35.2 57.1-44.5 87.9-70.3 17.7-14.9 37.2-36.2 48.4-57 8-14.9 8.9-29.9 2.5-47.1-6.5-17.6-10.3-36-15.8-53.9-7.2-24 22.8-51 46.8-51 2.3 0 4.5 0.2 6.6 0.7 1.9 0.5 4.1 0.7 6.2 0.7 2.5 0 5-0.4 7.1-1.2 6.4-2.5 17.8-5.3 24.4-9.6 13-8.5 15.1-17.6 30.8-29.3 2-1.5 5.5-6.1 6.6-8.4 11.8-24.7 4.8-52.8-18.5-74.2-9.5-8.8-21.9-13-34.7-13z" /></svg>