<?xml version="1.0" standalone="no"?><!DOCTYPE svg PUBLIC "-//W3C//DTD SVG 1.1//EN" "http://www.w3.org/Graphics/SVG/1.1/DTD/svg11.dtd"><svg class="icon" width="200px" height="200.00px" viewBox="0 0 1024 1024" version="1.1" xmlns="http://www.w3.org/2000/svg"><path fill="#333333" d="M832 128H192c-35.3 0-64 28.6-64 64v640c0 35.3 28.7 64 64 64h640c35.3 0 64-28.7 64-64V192c0-35.4-28.7-64-64-64z m-64 624c0 8.8-7.2 16-16 16H272c-8.8 0-16-7.2-16-16V272c0-8.8 7.2-16 16-16h480c8.8 0 16 7.2 16 16v480zM224 0h-60c-2.2 0-4 1.8-4 4v88c0 2.2 1.8 4 4 4h56c2.2 0 4-1.8 4-4V0zM352 0h-60c-2.2 0-4 1.8-4 4v88c0 2.2 1.8 4 4 4h56c2.2 0 4-1.8 4-4V0zM480 0h-60c-2.2 0-4 1.8-4 4v88c0 2.2 1.8 4 4 4h56c2.2 0 4-1.8 4-4V0zM608 0h-60c-2.2 0-4 1.8-4 4v88c0 2.2 1.8 4 4 4h56c2.2 0 4-1.8 4-4V0zM736 0h-60c-2.2 0-4 1.8-4 4v88c0 2.2 1.8 4 4 4h56c2.2 0 4-1.8 4-4V0zM864 0h-60c-2.2 0-4 1.8-4 4v88c0 2.2 1.8 4 4 4h56c2.2 0 4-1.8 4-4V0zM224 928h-60c-2.2 0-4 1.8-4 4v88c0 2.2 1.8 4 4 4h56c2.2 0 4-1.8 4-4v-92zM352 928h-60c-2.2 0-4 1.8-4 4v88c0 2.2 1.8 4 4 4h56c2.2 0 4-1.8 4-4v-92zM480 928h-60c-2.2 0-4 1.8-4 4v88c0 2.2 1.8 4 4 4h56c2.2 0 4-1.8 4-4v-92zM608 928h-60c-2.2 0-4 1.8-4 4v88c0 2.2 1.8 4 4 4h56c2.2 0 4-1.8 4-4v-92zM736 928h-60c-2.2 0-4 1.8-4 4v88c0 2.2 1.8 4 4 4h56c2.2 0 4-1.8 4-4v-92zM864 928h-60c-2.2 0-4 1.8-4 4v88c0 2.2 1.8 4 4 4h56c2.2 0 4-1.8 4-4v-92zM1024 160h-92c-2.2 0-4 1.8-4 4v56c0 2.2 1.8 4 4 4h88c2.2 0 4-1.8 4-4v-60zM1024 288h-92c-2.2 0-4 1.8-4 4v56c0 2.2 1.8 4 4 4h88c2.2 0 4-1.8 4-4v-60zM1024 416h-92c-2.2 0-4 1.8-4 4v56c0 2.2 1.8 4 4 4h88c2.2 0 4-1.8 4-4v-60zM1024 544h-92c-2.2 0-4 1.8-4 4v56c0 2.2 1.8 4 4 4h88c2.2 0 4-1.8 4-4v-60zM1024 672h-92c-2.2 0-4 1.8-4 4v56c0 2.2 1.8 4 4 4h88c2.2 0 4-1.8 4-4v-60zM1024 800h-92c-2.2 0-4 1.8-4 4v56c0 2.2 1.8 4 4 4h88c2.2 0 4-1.8 4-4v-60zM96 160H4c-2.2 0-4 1.8-4 4v56c0 2.2 1.8 4 4 4h88c2.2 0 4-1.8 4-4v-60zM96 288H4c-2.2 0-4 1.8-4 4v56c0 2.2 1.8 4 4 4h88c2.2 0 4-1.8 4-4v-60zM96 416H4c-2.2 0-4 1.8-4 4v56c0 2.2 1.8 4 4 4h88c2.2 0 4-1.8 4-4v-60zM96 544H4c-2.2 0-4 1.8-4 4v56c0 2.2 1.8 4 4 4h88c2.2 0 4-1.8 4-4v-60zM96 672H4c-2.2 0-4 1.8-4 4v56c0 2.2 1.8 4 4 4h88c2.2 0 4-1.8 4-4v-60zM96 800H4c-2.2 0-4 1.8-4 4v56c0 2.2 1.8 4 4 4h88c2.2 0 4-1.8 4-4v-60zM704 324v376c0 2.2-1.8 4-4 4H324c-2.2 0-4-1.8-4-4V324c0-2.2 1.8-4 4-4h376c2.2 0 4 1.8 4 4z" /></svg>