<?xml version="1.0" standalone="no"?><!DOCTYPE svg PUBLIC "-//W3C//DTD SVG 1.1//EN" "http://www.w3.org/Graphics/SVG/1.1/DTD/svg11.dtd"><svg class="icon" width="200px" height="200.00px" viewBox="0 0 1024 1024" version="1.1" xmlns="http://www.w3.org/2000/svg"><path fill="#333333" d="M832 760V250.5c0-8.5 3.4-16.6 9.4-22.6L1001 68.3c12.5-12.5 12.5-32.8 0-45.3s-32.8-12.5-45.3 0L796.1 182.6c-6 6-14.1 9.4-22.6 9.4H264c-4.4 0-8-3.6-8-8V8c0-4.4-3.6-8-8-8h-48c-4.4 0-8 3.6-8 8v176c0 4.4-3.6 8-8 8H8c-4.4 0-8 3.6-8 8v48c0 4.4 3.6 8 8 8h176c4.4 0 8 3.6 8 8v504c0 35.3 28.7 64 64 64h504c4.4 0 8 3.6 8 8v176c0 4.4 3.6 8 8 8h48c4.4 0 8-3.6 8-8V840c0-4.4 3.6-8 8-8h176c4.4 0 8-3.6 8-8v-48c0-4.4-3.6-8-8-8H840c-4.4 0-8-3.6-8-8zM264 256h439.4c7.1 0 10.7 8.6 5.7 13.7L269.7 709.1c-5 5-13.7 1.5-13.7-5.7V264c0-4.4 3.6-8 8-8z m496 512H320.6c-7.1 0-10.7-8.6-5.7-13.7l439.4-439.4c5-5 13.7-1.5 13.7 5.7V760c0 4.4-3.6 8-8 8z" /></svg>