<?xml version="1.0" standalone="no"?><!DOCTYPE svg PUBLIC "-//W3C//DTD SVG 1.1//EN" "http://www.w3.org/Graphics/SVG/1.1/DTD/svg11.dtd"><svg class="icon" width="200px" height="200.00px" viewBox="0 0 1024 1024" version="1.1" xmlns="http://www.w3.org/2000/svg"><path fill="#333333" d="M932.592113 525.495556c-12.99989-12.199897-20.599826-29.099754-20.599826-46.999603V351.997023c0-35.399701-28.599758-63.999459-63.999459-63.999459H623.994723c-35.299701 0-63.999459 28.599758-63.999459 63.999459v126.49893c0 17.799849-7.499937 34.799706-20.499827 46.999603-5.799951 5.399954-11.299904 10.999907-16.699858 16.899857 0.299997-3.299972 0.899992-6.499945 1.799984-9.699918l32.799723-122.498964c9.099923-34.099712-11.099906-69.199415-45.299617-78.399337l-216.39817-57.99951c-5.499953-1.499987-11.099906-2.199981-16.599859-2.199981-28.299761 0-54.099542 18.89984-61.799478 47.399599l-32.899721 122.598963c-4.599961 17.099855-16.099864 31.599733-31.699732 39.899663C61.899477 529.995518 0 625.794708 0 735.993776c0 158.598659 127.298923 286.797575 285.897582 287.997564 91.299228 0.699994 172.798539-41.099652 225.998089-106.799097 52.299558 64.699453 132.198882 106.199102 221.998122 106.799097 159.998647 1.099991 290.097547-128.198916 290.097547-287.997564 0-83.099297-35.199702-157.898665-91.399227-210.49822zM446.396225 894.392436C404.096583 936.692078 347.797059 959.991881 287.997564 959.991881c-59.799494 0-116.099018-23.299803-158.39866-65.599445C87.299262 852.092794 63.999459 795.79327 63.999459 735.993776c0-59.799494 23.299803-116.099018 65.599445-158.398661 7.599936-7.599936 15.699867-14.599877 24.199795-20.999822 22.899806-17.199855 48.699588-29.799748 76.199356-37.099686 18.699842-4.999958 38.199677-7.499937 57.999509-7.499937 59.799494 0 115.999019 23.299803 158.298662 65.499446l0.099999 0.099999c10.999907 10.999907 20.699825 22.899806 28.999755 35.599699C457.796128 650.494499 447.996211 692.094147 447.996211 735.993776c0 43.999628 9.799917 85.599276 27.399769 122.89896-8.399929 12.599893-18.099847 24.499793-28.999755 35.4997z m447.996211 0C852.092794 936.692078 795.79327 959.991881 735.993776 959.991881c-59.799494 0-116.099018-23.299803-158.398661-65.599445-10.999907-10.999907-20.699825-22.899806-28.999754-35.599699C524.795562 822.593043 511.99567 780.293401 511.99567 735.993776s12.799892-86.599268 36.599691-122.798962c3.59997-5.399954 7.399937-10.69991 11.399903-15.799866 5.399954-6.899942 11.299904-13.499886 17.599851-19.799833 14.099881-13.999882 29.59975-25.99978 46.399608-35.699698 33.699715-19.499835 71.999391-29.899747 111.999053-29.899747s78.299338 10.399912 111.999052 29.899747c16.799858 9.699918 32.299727 21.699816 46.399608 35.699698 6.299947 6.299947 12.199897 12.899891 17.599851 19.799833 31.099737 39.299668 47.999594 87.699258 47.999594 138.598828 0 59.799494-23.299803 116.099018-65.599445 158.39866zM423.996414 175.998512c13.199888 0 23.999797 10.799909 23.999797 23.999797s-10.799909 23.999797-23.999797 23.999797-23.999797-10.799909-23.999797-23.999797 10.799909-23.999797 23.999797-23.999797z m0-63.999459c-48.599589 0-87.999256 39.399667-87.999256 87.999256s39.399667 87.999256 87.999256 87.999255 87.999256-39.399667 87.999256-87.999255-39.399667-87.999256-87.999256-87.999256zM567.995196 63.999459c13.199888 0 23.999797 10.799909 23.999797 23.999797s-10.799909 23.999797-23.999797 23.999797-23.999797-10.799909-23.999797-23.999797 10.799909-23.999797 23.999797-23.999797z m0-63.999459c-48.599589 0-87.999256 39.399667-87.999255 87.999256s39.399667 87.999256 87.999255 87.999256 87.999256-39.399667 87.999256-87.999256-39.399667-87.999256-87.999256-87.999256zM727.993843 159.998647c13.199888 0 23.999797 10.799909 23.999797 23.999797s-10.799909 23.999797-23.999797 23.999797-23.999797-10.799909-23.999797-23.999797 10.799909-23.999797 23.999797-23.999797z m0-63.999459c-48.599589 0-87.999256 39.399667-87.999255 87.999256s39.399667 87.999256 87.999255 87.999256 87.999256-39.399667 87.999256-87.999256-39.399667-87.999256-87.999256-87.999256z" /></svg>