<?xml version="1.0" standalone="no"?><!DOCTYPE svg PUBLIC "-//W3C//DTD SVG 1.1//EN" "http://www.w3.org/Graphics/SVG/1.1/DTD/svg11.dtd"><svg class="icon" width="200px" height="200.00px" viewBox="0 0 1024 1024" version="1.1" xmlns="http://www.w3.org/2000/svg"><path fill="#333333" d="M828 512H580c-2.2 0-4-1.8-4-4v-56c0-2.2 1.8-4 4-4h248c2.2 0 4 1.8 4 4v56c0 2.2-1.8 4-4 4zM828 640H580c-2.2 0-4-1.8-4-4v-56c0-2.2 1.8-4 4-4h248c2.2 0 4 1.8 4 4v56c0 2.2-1.8 4-4 4zM828 768H580c-2.2 0-4-1.8-4-4v-56c0-2.2 1.8-4 4-4h248c2.2 0 4 1.8 4 4v56c0 2.2-1.8 4-4 4zM828 896H580c-2.2 0-4-1.8-4-4v-56c0-2.2 1.8-4 4-4h248c2.2 0 4 1.8 4 4v56c0 2.2-1.8 4-4 4zM828 256H580c-2.2 0-4-1.8-4-4v-56c0-2.2 1.8-4 4-4h248c2.2 0 4 1.8 4 4v56c0 2.2-1.8 4-4 4zM828 384H580c-2.2 0-4-1.8-4-4v-56c0-2.2 1.8-4 4-4h248c2.2 0 4 1.8 4 4v56c0 2.2-1.8 4-4 4zM34.7 0c-9.6 0-18.2 3.9-24.5 10.1C3.9 16.4 0 25.1 0 34.7c0 15.6 11.2 29 26.5 31.5C102.3 78.8 160 144.7 160 224v672c0 70.7 57.3 128 128 128h576c70.7 0 128-57.3 128-128V68c0-2.2 1.8-4 4-4h24c2.2 0 4-1.8 4-4V4c0-2.2-1.8-4-4-4H34.7zM928 888c0 39.8-32.2 72-72 72H296c-39.8 0-72-32.2-72-72V224c0-34.4-7.7-66.9-21.5-96-5.2-11-15.6-25.8-25.1-38.3-8-10.5-0.4-25.7 12.8-25.7H924c2.2 0 4 1.8 4 4v820z" /></svg>