<?xml version="1.0" standalone="no"?><!DOCTYPE svg PUBLIC "-//W3C//DTD SVG 1.1//EN" "http://www.w3.org/Graphics/SVG/1.1/DTD/svg11.dtd"><svg class="icon" width="200px" height="200.00px" viewBox="0 0 1024 1024" version="1.1" xmlns="http://www.w3.org/2000/svg"><path fill="#333333" d="M900 361.6C857.8 252.8 771.2 166.2 662.4 124c-5-1.9-8.7-6.3-9.9-11.5C638.2 48.1 580.7 0 512 0S385.8 48.1 371.5 112.5c-1.2 5.2-4.9 9.6-9.9 11.5C252.8 166.2 166.2 252.8 124 361.6c-1.9 5-6.3 8.7-11.5 9.9C48.1 385.8 0 443.3 0 512c0 71.7 52.4 131.1 120.9 142.2 41 112.6 129.2 202.6 240.7 245.8 5 1.9 8.7 6.3 9.9 11.5C385.8 975.9 443.3 1024 512 1024s126.2-48.1 140.5-112.5c1.2-5.2 4.9-9.6 9.9-11.5C771.2 857.8 857.8 771.2 900 662.4c1.9-5 6.3-8.7 11.5-9.9C975.9 638.2 1024 580.7 1024 512s-48.1-126.2-112.5-140.5c-5.3-1.2-9.6-4.9-11.5-9.9zM512 64c28.5 0 53.6 15 67.7 37.5 7.8 12.3 12.3 26.9 12.3 42.5 0 8.5-1.3 16.6-3.8 24.3C578 200.5 547.7 224 512 224s-66-23.5-76.2-55.8c-2.4-7.7-3.8-15.8-3.8-24.3 0-15.6 4.5-30.2 12.3-42.5C458.4 79 483.5 64 512 64zM144 592c-15.6 0-30.2-4.5-42.5-12.3C79 565.6 64 540.5 64 512s15-53.6 37.5-67.7c12.3-7.8 26.9-12.3 42.5-12.3 8.5 0 16.6 1.3 24.3 3.8C200.5 446 224 476.3 224 512s-23.5 66-55.8 76.2c-7.6 2.5-15.7 3.8-24.2 3.8z m435.7 330.5C565.6 945 540.5 960 512 960s-53.6-15-67.7-37.5c-7.8-12.3-12.3-26.9-12.3-42.5 0-8.5 1.3-16.6 3.8-24.3C446 823.5 476.3 800 512 800s66 23.5 76.2 55.8c2.4 7.6 3.8 15.8 3.8 24.3 0 15.5-4.5 30.1-12.3 42.4z m181.2-161.6c-28.2 28.2-60.4 51.1-95.9 68.2-8.2 3.9-17.9 0.2-21.6-8C620.9 770.9 570.5 736 512 736s-108.9 34.9-131.4 85.1c-3.7 8.3-13.4 12-21.6 8-35.5-17.1-67.7-40-95.9-68.2-32.3-32.3-57.6-69.9-75.4-111.7C245.9 630.7 288 576.3 288 512c0-58.5-34.9-108.9-85.1-131.4-8.3-3.7-12-13.4-8-21.6 17.1-35.5 40-67.7 68.2-95.9 28.2-28.2 60.4-51.1 95.9-68.2 8.2-3.9 17.9-0.2 21.6 8C403.1 253.1 453.5 288 512 288s108.9-34.9 131.4-85.1c3.7-8.3 13.4-12 21.6-8 35.5 17.1 67.7 40 95.9 68.2 28.2 28.2 51.1 60.4 68.2 95.9 3.9 8.2 0.2 17.9-8 21.6C770.9 403.1 736 453.5 736 512s34.9 108.9 85.1 131.4c8.3 3.7 12 13.4 8 21.6-17.1 35.5-40 67.7-68.2 95.9z m161.6-181.2c-12.3 7.8-26.9 12.3-42.5 12.3-8.5 0-16.6-1.3-24.3-3.8C823.5 578 800 547.7 800 512s23.5-66 55.8-76.2c7.7-2.4 15.8-3.8 24.3-3.8 15.6 0 30.2 4.5 42.5 12.3C945 458.4 960 483.5 960 512s-15 53.6-37.5 67.7z" /></svg>