<?xml version="1.0" standalone="no"?><!DOCTYPE svg PUBLIC "-//W3C//DTD SVG 1.1//EN" "http://www.w3.org/Graphics/SVG/1.1/DTD/svg11.dtd"><svg class="icon" width="200px" height="200.00px" viewBox="0 0 1024 1024" version="1.1" xmlns="http://www.w3.org/2000/svg"><path fill="#333333" d="M881.891633 861.04774c47.985942 63.981255-49.885385 51.284975-66.280582 83.675486-16.295226 31.190862 3.199063 82.175925-53.584301 78.77692-40.088255-2.399297-8.097628-53.484331-77.977155-84.875134-0.799766-0.399883-15.095577-8.597481-21.793615-11.696573-32.590452-14.895636-66.680465-29.591331-101.670214-43.787172a128.202441 128.202441 0 0 0-96.97159 0c-34.989749 14.195841-69.079762 28.891536-101.670214 43.787172-6.698038 3.099092-20.993849 11.29669-21.793615 11.696573-69.879527 31.390803-37.8889 82.475837-77.977156 84.875134-56.783364 3.498975-37.289075-47.586059-53.584301-78.77692C191.993752 912.332715 94.122425 925.028995 142.108367 861.04774c13.596017-18.094699 38.888607-25.792444 62.781607-14.995607 33.190276 14.995607 102.070097-7.097921 102.469979-7.09792 5.798301-0.799766 11.596603-1.799473 17.094992-3.498975 15.195548-4.698623 30.591038-9.697159 46.186469-14.895636 3.698916-1.199649 3.698916-6.398126 0-7.597774-29.891243-9.8971-59.282632-18.994435-87.674315-27.292005-13.196134-3.798887-26.592209-6.99795-40.088255-9.297276-20.893879-3.598946-36.089427-4.098799-51.284975 2.599239-23.093234 9.997071-45.586645 39.38846-59.982427 0.799765C114.116567 733.085229 194.093137 717.089915 194.59299 683.099873c0.599824-33.990042-0.499854-93.172703 52.084741-76.077712 43.387289 14.09587 14.595724 29.791272 37.289076 55.383775 7.297862 8.297569 16.395197 14.895636 26.292297 19.69423 47.186176 23.093234 99.270917 46.186469 153.15513 68.180025 31.090891 12.69628 65.880699 12.69628 96.97159 0 53.984184-21.993557 105.968954-45.186762 153.155131-68.180025 9.8971-4.798594 18.994435-11.496632 26.292297-19.69423 22.693352-25.592502-5.998243-41.287904 37.289075-55.383775 52.484624-17.094992 51.484917 42.08767 52.084741 76.077712 0.599824 33.990042 80.576394 49.985356 63.081519 96.671678-14.395782 38.588695-36.989163 9.197305-59.982427-0.799765-15.195548-6.698038-30.391096-6.198184-51.284975-2.599239-13.496046 2.299326-26.892121 5.498389-40.088255 9.297276-28.491653 8.297569-57.883042 17.394904-87.674314 27.292005-3.698916 1.199649-3.698916 6.398126 0 7.597774 15.49546 5.198477 30.89095 10.097042 46.186468 14.895636 5.59836 1.699502 11.29669 2.79918 17.094992 3.498975 0.399883 0 69.279703 22.093527 102.46998 7.09792 23.992971-10.796837 49.285561-3.099092 62.881577 14.995607zM883.391194 302.311432c-13.496046-85.974812-53.084448-156.854047-118.865176-212.637704C695.246315 29.891243 610.971005 0 511.500146 0S327.753978 29.591331 258.474275 88.574051C192.593576 145.157473 153.305086 216.33662 140.608806 302.211461c-2.699209 14.09587-4.098799 27.591916-4.098799 40.388168 0.399883 56.383481 18.894465 105.769013 55.783657 148.156595 17.194962 19.69423 37.489017 36.789222 61.182076 51.584887 23.693059 14.695695 50.58518 26.992092 80.776335 36.789222 8.49751 2.79918 14.195841 10.596895 14.195841 19.494289 0 18.894465 6.398126 34.589866 19.094406 47.286146 12.796251 12.796251 28.591624 19.894172 47.286146 21.193791 2.79918 0.199941 5.59836 0.299912 8.197599 0.299912 12.896222 0 23.193205-2.499268 30.890949-7.297862 1.39959-0.799766 2.899151-1.299619 4.398712-1.299619 1.599531 0 3.199063 0.499854 4.498682 1.299619 13.496046 8.597481 28.491653 12.996193 44.686908 12.996193 14.495753 0 28.09177-3.698916 40.488138-11.296691 1.799473-1.099678 3.898858-1.599531 5.898272-1.599531 1.799473 0 3.598946 0.399883 5.298448 1.299619 7.397833 3.898858 16.79508 5.898272 28.191741 5.898272 2.499268 0 5.098506-0.099971 7.697744-0.299912 18.794494-1.999414 34.589866-9.197305 47.286147-21.693644 12.796251-12.396368 19.094406-28.09177 19.094406-46.786293 0-6.498096 4.298741-12.096456 10.596895-13.895929 67.48023-19.094406 119.964854-49.685444 157.853754-91.873084 38.388753-42.287611 57.483159-92.372938 57.483159-150.156009 0.099971-12.796251-1.199649-26.192326-3.998828-40.388168zM739.833252 403.08191c-19.894172 20.893879-44.287025 31.290833-73.07859 31.290832-28.191741 0-52.184712-10.396954-72.078883-31.290832-19.894172-20.893879-29.791272-46.186469-29.791273-75.977741 0-29.591331 9.8971-54.883921 29.791273-75.7778s43.887142-31.290833 72.078883-31.290833c28.891536 0 53.184419 10.396954 73.07859 31.290833 19.794201 20.893879 29.791272 46.186469 29.791272 75.7778 0 29.691301-9.8971 55.083862-29.791272 75.977741zM517.59836 533.243776c-16.79508 0-29.291419-4.398711-37.289076-12.996192-4.798594-5.398418-7.097921-11.896515-7.09792-19.994143 0-12.69628 4.898565-25.29259 14.595724-37.98887 9.79713-12.59631 19.194377-18.894465 28.691594-18.894465 9.397247 0 18.394611 6.897979 26.69218 20.99385 8.297569 13.9959 12.69628 27.192034 12.69628 39.888314 0 19.394318-12.796251 28.991506-38.288782 28.991506z m-160.353022-98.871034c-28.191741 0-52.484624-10.396954-72.578736-31.290832s-30.291126-46.186469-30.291126-75.977741c0-29.591331 10.097042-54.883921 30.291126-75.7778 20.094113-20.893879 44.386996-31.290833 72.578736-31.290833 28.191741 0 52.484624 10.396954 72.578737 31.290833 20.094113 20.893879 30.291126 46.186469 30.291126 75.7778 0 29.591331-10.097042 54.983891-30.291126 75.977741-20.094113 20.893879-44.287025 31.290833-72.578737 31.290832z" /></svg>