<?xml version="1.0" standalone="no"?><!DOCTYPE svg PUBLIC "-//W3C//DTD SVG 1.1//EN" "http://www.w3.org/Graphics/SVG/1.1/DTD/svg11.dtd"><svg class="icon" width="200px" height="200.00px" viewBox="0 0 1024 1024" version="1.1" xmlns="http://www.w3.org/2000/svg"><path fill="#333333" d="M827.8 702.4c0.7-0.2 1.4-0.3 2.1-0.5 1.3-0.3 2.1-1.4 2.1-2.7-1.4 1.1-2.8 2.2-4.2 3.2z m0 0c0.7-0.2 1.4-0.3 2.1-0.5 1.3-0.3 2.1-1.4 2.1-2.7-1.4 1.1-2.8 2.2-4.2 3.2z m0 0c0.7-0.2 1.4-0.3 2.1-0.5 1.3-0.3 2.1-1.4 2.1-2.7-1.4 1.1-2.8 2.2-4.2 3.2zM0 720v-2 2zM1.6 224c-1 5.8-1.6 11.7-1.6 17.7V224h1.6zM896 224v18c0-6.1-0.5-12.1-1.6-18h1.6zM896 718v0zM896 578.7V242c0-6.1-0.5-12.1-1.6-18C874.9 116.5 682.5 32 448 32 213.5 32 21.1 116.4 1.6 224c-1 5.8-1.6 11.7-1.6 17.7V720c2.3 115.1 202 208 448 208 67.7 0 131.8-7 189.3-19.6C676.8 959.3 738.6 992 808 992c119.3 0 216-96.7 216-216 0-88-52.6-163.6-128-197.3zM64 350.2c78.4 61 221 101.8 384 101.8s305.6-40.8 384-101.8v77.1c-12.5 7.4-25.9 14.4-40 21.1C699 492 576.9 516 448 516s-251-24-344-67.6c-14.2-6.7-27.5-13.7-40-21.1v-77.1zM448 832c-128.9 0-251-24-344-67.6-14.2-6.7-27.5-13.7-40-21.1v-77.1c78.4 61 221 101.8 384 101.8 50.7 0 99.4-4 144.8-11.2-0.6 6.3-0.8 12.7-0.8 19.2 0 15.4 1.6 30.5 4.7 45-47.6 7.2-97.6 11-148.7 11z m180.7-176.5C571.8 666.3 510.7 672 448 672c-128.9 0-251-24-344-67.6-14.2-6.7-27.5-13.7-40-21.1v-77.1c78.4 61 221 101.8 384 101.8s305.6-40.8 384-101.8v55.1c-7.9-0.9-15.9-1.3-24-1.3-74.7 0-140.5 37.9-179.3 95.5z m286.8 228C886.8 912.2 848.6 928 808 928c-37.7 0-73.3-13.6-101.2-38.6-2.2-1.9-4.3-3.9-6.3-6-20.8-20.8-34.8-46.5-41-74.5-2.4-10.7-3.6-21.8-3.6-33s1.2-22.2 3.5-32.9c6.2-28.1 20.2-53.8 41-74.6 28.8-28.6 67-44.4 107.6-44.4 32 0 62.5 9.8 88 28 6.9 4.9 13.4 10.4 19.5 16.5C944.2 697.2 960 735.4 960 776c0 40.6-15.8 78.8-44.5 107.5zM808 664c-4.1 0-8.2 1.6-11.3 4.7l-62.5 62.5c-1.8 1.8-0.5 4.8 2 4.8h37c1.6 0 2.8 1.3 2.8 2.8v154.4c0 1.6 1.3 2.8 2.8 2.8h58.4c1.6 0 2.8-1.3 2.8-2.8V738.8c0-1.6 1.3-2.8 2.8-2.8h37c2.5 0 3.8-3 2-4.8l-62.5-62.5c-3.1-3.1-7.2-4.7-11.3-4.7z" /></svg>