<?xml version="1.0" standalone="no"?><!DOCTYPE svg PUBLIC "-//W3C//DTD SVG 1.1//EN" "http://www.w3.org/Graphics/SVG/1.1/DTD/svg11.dtd"><svg class="icon" width="200px" height="200.00px" viewBox="0 0 1024 1024" version="1.1" xmlns="http://www.w3.org/2000/svg"><path fill="#333333" d="M827.8 669.4c1.4-0.3 2.8-0.7 4.2-1v-2.2c-1.4 1.1-2.8 2.2-4.2 3.2z m0 0c1.4-0.3 2.8-0.7 4.2-1v-2.2c-1.4 1.1-2.8 2.2-4.2 3.2z m0 0c1.4-0.3 2.8-0.7 4.2-1v-2.2c-1.4 1.1-2.8 2.2-4.2 3.2zM1018 744c-4.3-14.8-16.4-26-31.5-29.1-31.1-6.4-42.1-25.5-32.1-55.6 4.9-14.6 1.2-30.7-9.5-41.8-12.9-13.5-30.6-25.3-48.9-33.2V242c0-6.1-0.5-12.1-1.6-18C874.9 116.5 682.5 32 448 32 213.5 32 21.1 116.4 1.6 224c-1 5.8-1.6 11.7-1.6 17.7V720c2.3 115.1 202 208 448 208 73.2 0 142.3-8.2 203.3-22.8-0.3 1.3-0.7 2.5-1.2 3.9-4.9 14.6-1.2 30.7 9.5 41.8 17.8 18.4 44.7 34 69.6 40.2 3.3 0.8 6.7 1.2 10 1.2 11.7 0 23-5 31-13.9 10.5-11.9 21.3-17.8 32.1-17.8s21.6 5.9 32.1 17.8c8 9 19.3 13.9 31 13.9 3.3 0 6.7-0.4 10-1.2 24.9-6.2 51.8-21.8 69.6-40.2 10.7-11.1 14.4-27.2 9.5-41.8-10-30.1 1-49.2 32.1-55.6 15.1-3.1 27.2-14.3 31.5-29.1 6.9-24.7 6.9-55.8-0.1-80.4zM64 350.2c78.4 61 221 101.8 384 101.8s305.6-40.8 384-101.8v77.1c-12.5 7.4-25.9 14.4-40 21.1C699 492 576.9 516 448 516s-251-24-344-67.6c-14.2-6.7-27.5-13.7-40-21.1v-77.1z m0 156c78.4 61 221 101.8 384 101.8s305.6-40.8 384-101.8v77.1c-12.5 7.4-25.9 14.4-40 21.1-0.6 0.3-1.2 0.5-1.8 0.8-6.8-2.8-13.5-7.9-20.1-15.3-8-9-19.3-13.9-31-13.9-3.3 0-6.7 0.4-10 1.2-24.9 6.2-51.8 21.8-69.6 40.2-8.9 9.2-12.9 21.8-11.3 34.1C585.9 664.9 518 672 448 672c-128.9 0-251-24-344-67.6-14.2-6.7-27.5-13.7-40-21.1v-77.1zM448 832c-128.9 0-251-24-344-67.6-14.2-6.7-27.5-13.7-40-21.1v-77.1c78.4 61 221 101.8 384 101.8 47.2 0 92.6-3.4 135.3-9.8-3.5 21-2.6 44.6 2.7 64.3-44.3 6.3-90.7 9.5-138 9.5z m354.2 48.4c-16 0-31.1-3.9-44.3-10.8-27.4-14.2-47.1-41.2-51.2-73.1-0.5-4.1-0.8-8.2-0.8-12.4 0-23.9 8.7-45.8 23.2-62.6 17.2-20.1 42.5-33 70.9-33.6h2.2c10.4 0 20.4 1.6 29.8 4.7 27 8.8 48.8 29.2 59.5 55.4 4.5 11.2 7 23.4 7 36.2 0 53.1-43.1 96.2-96.3 96.2zM834.5 784.1c0 17.8-14.5 32.3-32.3 32.3-17.8 0-32.3-14.5-32.3-32.3 0-17.8 14.5-32.3 32.3-32.3 17.8 0.1 32.3 14.5 32.3 32.3zM0 720v-2 2zM1.6 224c-1 5.8-1.6 11.7-1.6 17.7V224h1.6zM896 224v18c0-6.1-0.5-12.1-1.6-18h1.6zM896 718v0z" /></svg>