<?xml version="1.0" standalone="no"?><!DOCTYPE svg PUBLIC "-//W3C//DTD SVG 1.1//EN" "http://www.w3.org/Graphics/SVG/1.1/DTD/svg11.dtd"><svg class="icon" width="200px" height="200.00px" viewBox="0 0 1024 1024" version="1.1" xmlns="http://www.w3.org/2000/svg"><path fill="#333333" d="M966.55561 153.385021c-5.799434-5.799434-13.798652-9.399082-22.597793-9.399082H795.572307c-28.097256 0-52.894834-18.298213-61.194024-45.195586l-2.599746-8.49917C715.280148 36.596426 665.684992 0 609.490479 0h-194.980958c-56.194512 0-105.789669 36.596426-122.288058 90.391173l-2.599746 8.49917c-8.29919 26.897373-33.096768 45.195586-61.194024 45.195586H80.042183c-17.698272 0-31.996875 14.298604-31.996875 31.996875 0 8.799141 3.599648 16.79836 9.399082 22.597794 5.799434 5.799434 13.798652 9.399082 22.597793 9.399082h47.995313c8.799141 0 15.998438 7.199297 15.998438 15.998437v735.928132c0 35.296553 28.697198 63.993751 63.993751 63.993751h607.94063c35.296553 0 63.993751-28.697198 63.993751-63.993751V223.978127c0-8.799141 7.199297-15.998438 15.998438-15.998438h47.995313c17.698272 0 31.996875-14.298604 31.996875-31.996875 0-8.799141-3.599648-16.79836-9.399082-22.597793zM320.018748 815.92032V367.964066c0-8.799141 3.599648-16.79836 9.399082-22.597793 5.799434-5.799434 13.798652-9.399082 22.597793-9.399082 17.698272 0 31.996875 14.298604 31.996876 31.996875v447.956254c0 8.799141-3.599648 16.79836-9.399082 22.597793-5.799434 5.799434-13.798652 9.399082-22.597794 9.399083-17.698272 0-31.996875-14.298604-31.996875-31.996876z m159.984377 0V367.964066c0-8.799141 3.599648-16.79836 9.399082-22.597793 5.799434-5.799434 13.798652-9.399082 22.597793-9.399082 17.698272 0 31.996875 14.298604 31.996875 31.996875v447.956254c0 8.799141-3.599648 16.79836-9.399082 22.597793-5.799434 5.799434-13.798652 9.399082-22.597793 9.399083-17.698272 0-31.996875-14.298604-31.996875-31.996876z m223.978127 0c0 8.799141-3.599648 16.79836-9.399082 22.597793-5.799434 5.799434-13.798652 9.399082-22.597793 9.399083-17.698272 0-31.996875-14.298604-31.996876-31.996876V367.964066c0-8.799141 3.599648-16.79836 9.399082-22.597793 5.799434-5.799434 13.798652-9.399082 22.597794-9.399082 17.698272 0 31.996875 14.298604 31.996875 31.996875v447.956254zM353.415487 109.189337c8.29919-26.897373 33.096768-45.195586 61.194024-45.195586h194.880968c28.097256 0 52.894834 18.298213 61.194024 45.195586l10.698956 34.796602H342.716532l10.698955-34.796602z" /></svg>