<?xml version="1.0" standalone="no"?><!DOCTYPE svg PUBLIC "-//W3C//DTD SVG 1.1//EN" "http://www.w3.org/Graphics/SVG/1.1/DTD/svg11.dtd"><svg class="icon" width="200px" height="200.00px" viewBox="0 0 1024 1024" version="1.1" xmlns="http://www.w3.org/2000/svg"><path fill="#333333" d="M734.378283 98.790353l-2.599746-8.49917C715.280148 36.596426 665.684992 0 609.490479 0h-194.980958c-56.194512 0-105.789669 36.596426-122.288058 90.391173l-2.599746 8.49917c-8.29919 26.897373-33.096768 45.195586-61.194024 45.195586H80.042183c-17.698272 0-31.996875 14.298604-31.996875 31.996875s14.298604 31.996875 31.996875 31.996876h47.995313c8.799141 0 15.998438 7.199297 15.998438 15.998437v735.928132c0 35.296553 28.697198 63.993751 63.993751 63.993751h607.94063c35.296553 0 63.993751-28.697198 63.993751-63.993751V223.978127c0-8.799141 7.199297-15.998438 15.998438-15.998438h47.995313c17.698272 0 31.996875-14.298604 31.996875-31.996875s-14.298604-31.996875-31.996875-31.996875H795.572307c-28.097256 0-52.894834-18.298213-61.194024-45.195586zM414.509521 63.993751h194.880968c28.097256 0 52.894834 18.298213 61.194024 45.195586l10.698955 34.796602H342.716532l10.698955-34.796602c8.199199-26.897373 32.996778-45.195586 61.094034-45.195586zM799.971878 959.906259H224.028122c-8.799141 0-15.998438-7.199297-15.998437-15.998437V223.978127c0-8.799141 7.199297-15.998438 15.998437-15.998438h575.943756c8.799141 0 15.998438 7.199297 15.998437 15.998438v719.929695c0 8.799141-7.199297 15.998438-15.998437 15.998437zM320.018748 367.964066v447.956254c0 17.698272 14.298604 31.996875 31.996875 31.996876s31.996875-14.298604 31.996876-31.996876V367.964066c0-17.698272-14.298604-31.996875-31.996876-31.996875s-31.996875 14.298604-31.996875 31.996875zM480.003125 367.964066v447.956254c0 17.698272 14.298604 31.996875 31.996875 31.996876s31.996875-14.298604 31.996875-31.996876V367.964066c0-17.698272-14.298604-31.996875-31.996875-31.996875s-31.996875 14.298604-31.996875 31.996875zM639.987501 367.964066v447.956254c0 17.698272 14.298604 31.996875 31.996876 31.996876s31.996875-14.298604 31.996875-31.996876V367.964066c0-17.698272-14.298604-31.996875-31.996875-31.996875s-31.996875 14.298604-31.996876 31.996875z" /></svg>