<?xml version="1.0" standalone="no"?><!DOCTYPE svg PUBLIC "-//W3C//DTD SVG 1.1//EN" "http://www.w3.org/Graphics/SVG/1.1/DTD/svg11.dtd"><svg class="icon" width="200px" height="200.00px" viewBox="0 0 1024 1024" version="1.1" xmlns="http://www.w3.org/2000/svg"><path fill="#333333" d="M512 0C229.2 0 0 229.2 0 512s229.2 512 512 512 512-229.2 512-512S794.8 0 512 0z m257.8 442.9c-18.8 15.8-40.7 31-64.8 45.1-61.5 36-138.4 65.2-221.4 81.2-6.7 1.3-13.3 2.5-19.9 3.5 4.5 117.5 34.4 208.8 70.4 208.8 28.5 0 53.1-57.2 64.4-139.4l51.4-13.5C632.1 782 566.7 896.3 489 896.3c-85.5 0-156.2-138.3-164.9-314.9-23.3-1.2-45.3-3.8-65.7-7.8C169.9 556.4 112 513.9 112 453.9c0-60.9 58.6-126.2 146.4-177 27.7-16 58.3-30.5 90.8-43l8.3 29.3C317.7 280 283 301 258.4 323.3c-24 21.9-38.4 45-38.9 66.9-0.5 22 14 39.6 38.9 51.8 18.3 9 42.1 15.1 69.7 18C346 307 411.4 193 489 193c46.2 0 88.2 40.5 118.3 105.6l-30 8.7c-0.2-0.2-0.3-0.4-0.4-0.6-11.4-14.7-24.8-15-35.4-12.8-29 5.9-58.9 69.4-71.8 157.3C575.2 429.3 671.2 379 705.1 329c7.9-11.7 12.4-23.3 12.9-34.6 0.6-14.3-3.8-26.6-12.9-36.9-12-13.6-32.2-23.5-60-29.6l-11.2-40.2c25.2 1.5 49.1 4.6 71.2 9.2 24 5.1 45.8 11.9 64.8 20.4 47.2 21.2 76.6 53 78.1 93.5 1.5 43.7-28 90.2-78.2 132.1z" /></svg>