<?xml version="1.0" standalone="no"?><!DOCTYPE svg PUBLIC "-//W3C//DTD SVG 1.1//EN" "http://www.w3.org/Graphics/SVG/1.1/DTD/svg11.dtd"><svg class="icon" width="200px" height="200.00px" viewBox="0 0 1024 1024" version="1.1" xmlns="http://www.w3.org/2000/svg"><path fill="#333333" d="M376.000883 87.999429m-87.999428 0a87.999429 87.999429 0 1 0 175.998857 0 87.999429 87.999429 0 1 0-175.998857 0ZM898.997487 797.794819l-52.499659 31.499795c-7.799949 4.699969-17.999883 1.899988-22.299855-6.199959L731.998571 650.195778c-1.399991-2.599983-4.099973-4.199973-7.099954-4.199973H425.600561c-43.399718 0-81.399471-29.099811-92.699398-70.999539l-65.399575-242.898423c-2.699982-10.199934-14.299907-14.999903-23.499848-9.699937l-98.199362 56.699632c-3.09998 1.799988-4.699969 5.499964-3.699976 8.999942l36.099766 134.699125c5.699963 21.299862-6.899955 43.199719-28.199817 48.899682-21.399861 5.699963-43.299719-6.999955-48.899683-28.399815L54.202973 365.497626c-3.699976-13.89991 2.399984-28.599814 14.799904-35.799767l94.699385-55.199642c50.699671-29.599808 104.499321-53.499653 160.498958-71.199537C413.300641 174.998864 507.000032 231.198499 523.999922 323.097902l39.499744 213.798611c1.399991 7.599951 7.999948 13.099915 15.699898 13.099915h147.199044c35.499769 0 67.999558 19.499873 84.69945 50.79967l93.699391 175.798859c4.099973 7.499951 1.49999 16.799891-5.799962 21.199862zM800.498126 845.39451c-68.399556 107.899299-189.298771 179.398835-326.697878 178.59884-216.298595-1.199992-387.99748-179.398835-381.597522-395.597431 0.299998-10.79993 1.099993-21.49986 2.299985-31.999792 0.299998-2.899981 3.599977-4.499971 6.099961-2.899981l2.99998 1.799988c7.199953 4.199973 14.899903 6.999955 22.799852 8.499945 17.299888 3.299979 29.699807 18.299881 29.599808 35.799767v0.399998c0 43.199719 8.499945 85.099447 25.099837 124.499191 16.099895 38.099753 39.199745 72.29953 68.599554 101.69934 29.399809 29.399809 63.599587 52.499659 101.69934 68.599554C390.900786 951.493821 432.800514 959.993766 476.000234 959.993766s85.099447-8.499945 124.499191-25.099837c38.099753-16.099895 72.29953-39.199745 101.69934-68.599555 18.699879-18.699879 34.799774-39.299745 48.199687-61.5996 6.399958-10.699931 21.999857-10.299933 27.799819 0.699996l17.499887 32.899786c1.49999 2.399984 3.09998 4.799969 4.799968 7.099954 0-0.099999 0 0 0 0z" /></svg>