<?xml version="1.0" standalone="no"?><!DOCTYPE svg PUBLIC "-//W3C//DTD SVG 1.1//EN" "http://www.w3.org/Graphics/SVG/1.1/DTD/svg11.dtd"><svg class="icon" width="200px" height="200.00px" viewBox="0 0 1024 1024" version="1.1" xmlns="http://www.w3.org/2000/svg"><path fill="#333333" d="M955.670019 416.278044l-180.847018 77.477301 6.897979 98.971005c1.39959 19.394318-14.795665 35.489603-34.189983 34.189983l-98.971005-6.897979-77.477301 180.847017c-7.797716 18.29464-25.29259 28.291711-42.987406 28.291712-11.696573 0-23.593088-4.398711-32.890365-13.695988L252.675974 572.932149c-23.693059-23.693059-42.987406-49.985356-58.082984-78.077126-3.698916-6.99795-14.295812-4.798594-14.995606 3.099092-4.098799 45.086791-2.099385 96.071854 11.496631 150.455921 46.28644 183.94611 195.342771 275.719223 239.929709 299.412282 15.595431 8.297569 21.493703 27.691887 13.196133 43.287318-5.798301 10.796837-16.79508 16.995021-28.291711 16.995021-5.098506 0-10.197013-1.199649-14.995607-3.798887-25.29259-13.496046-75.477887-43.48726-126.862833-93.272674-32.29054-31.290833-60.38231-65.780728-83.375573-102.46998-28.09177-44.88685-48.885678-93.572586-61.68193-144.557649-15.295519-60.982134-19.194377-124.163624-11.396661-187.944938 4.898565-40.388168 14.495753-80.376452 28.291712-118.665235 1.899444-5.198477 4.998536-9.597188 8.797422-12.996192-0.099971-2.999121-0.099971-5.998243-0.09997-8.897394 0-86.074783 32.690423-172.249536 97.971297-237.530411C317.856878 32.690423 404.031631 0 490.106414 0s172.249536 32.690423 237.530411 97.971297l242.528947 242.528947c23.393147 23.293176 15.795372 62.781607-14.495753 75.7778zM543.990628 1008.004686c-6.198184 0-12.496339-1.799473-17.994728-5.59836-14.595724-9.997071-18.29464-29.891243-8.39754-44.486966 36.889193-53.984184 82.775749-99.77077 136.360051-136.360051 65.580787-44.686908 142.158352-74.178268 221.535097-85.175047 17.494875-2.399297 33.69013 9.79713 36.089427 27.292005 2.399297 17.494875-9.79713 33.69013-27.292005 36.089427-69.679586 9.697159-136.859904 35.589573-194.343063 74.778092-46.986235 31.990628-87.274431 72.278825-119.564971 119.564971-6.198184 8.997364-16.195255 13.895929-26.392268 13.895929zM272.070292 992.009372c-6.798008 0-13.695988-2.199356-19.494289-6.598067-31.990628-24.492824-67.080348-44.586937-104.469394-59.682515-38.188812-15.39549-78.377038-25.492531-119.365029-29.891242C11.146734 893.938104-1.549546 878.242702 0.349897 860.647857c1.899444-17.594845 17.594845-30.291126 35.189691-28.391682 46.886264 4.998536 92.872791 16.495167 136.559992 34.090013 42.687494 17.194962 82.87572 40.188226 119.465001 68.279996 13.9959 10.796837 16.695109 30.790979 5.898272 44.886849-6.298155 8.197598-15.795372 12.496339-25.392561 12.496339z" /></svg>