<?xml version="1.0" standalone="no"?><!DOCTYPE svg PUBLIC "-//W3C//DTD SVG 1.1//EN" "http://www.w3.org/Graphics/SVG/1.1/DTD/svg11.dtd"><svg class="icon" width="200px" height="200.00px" viewBox="0 0 1024 1024" version="1.1" xmlns="http://www.w3.org/2000/svg"><path fill="#333333" d="M236.080836 559.835986h-39.988285c-2.199356 0-3.998828 1.799473-3.998828 3.998828v35.989456c0 4.398711-3.598946 7.997657-7.997657 7.997657h-35.989457c-2.199356 0-3.998828 1.799473-3.998828 3.998829v39.988284c0 2.199356 1.799473 3.998828 3.998828 3.998829h35.989457c4.398711 0 7.997657 3.598946 7.997657 7.997657v35.989456c0 2.199356 1.799473 3.998828 3.998828 3.998828h39.988285c2.199356 0 3.998828-1.799473 3.998828-3.998828v-35.989456c0-4.398711 3.598946-7.997657 7.997657-7.997657h35.989456c2.199356 0 3.998828-1.799473 3.998829-3.998829v-39.988284c0-2.199356-1.799473-3.998828-3.998829-3.998829h-35.989456c-4.398711 0-7.997657-3.598946-7.997657-7.997657v-35.989456c0-2.199356-1.799473-3.998828-3.998828-3.998828zM959.868788 975.714146c0.599824 1.299619-227.733281 48.285854-447.968759 48.285854-220.035536 0-450.168115-45.786586-447.768817-48.285854 3.998828-29.991214 17.894757-77.27736 35.689544-101.770184 16.395197-23.093234 38.688665-41.187933 61.981841-56.383482 53.984184-33.990042 115.966026-50.685151 172.349507-79.576686 3.598946-1.999414 7.197891-3.998828 10.696866-6.098214 3.199063-1.899444 7.197891 0.399883 7.197891 4.0988v88.374109c-19.494289 11.29669-32.490481 32.590452-31.990627 56.883335 0.799766 34.189983 28.891536 61.981841 63.081519 62.481695 35.789515 0.499854 64.880992-28.291711 64.880992-63.981256 0-29.791272-20.394025-54.883921-47.985942-61.981841v-81.975984c0-13.296105-5.398418-25.29259-14.09587-33.890071-0.999707-0.999707-1.099678-2.499268-0.299913-3.598946 4.998536-6.498096 9.197305-13.795958 11.996486-21.993556 3.898858-33.590159 2.499268-67.48023 2.499268-101.170361-12.496339-9.597188-20.793908-23.693059-28.391683-37.588987-12.69628-24.492824-21.893586-50.885092-25.792443-78.277067-0.099971-0.799766-0.699795-1.499561-1.599532-1.699503-13.9959-3.199063-24.292883-15.195548-29.691301-28.291711-6.298155-14.895636-9.397247-30.89095-10.396954-46.886264-0.799766-15.39549 5.298448-30.990921 16.695109-41.087962 1.099678-0.999707 1.599531-2.499268 1.199648-3.898858C310.559016 289.215269 302.061505 239.729767 304.06092 189.944352c1.299619-31.290833 6.897979-62.981548 20.194083-91.27326 10.896808-23.193205 27.192034-43.887142 47.68603-58.882749C412.929025 9.397247 465.213707 0.799766 514.79918 0c27.991799 0.499854 57.283218 4.498682 81.576101 19.794201 8.997364 5.498389 16.295226 13.496046 22.093527 22.293469 23.593088 3.698916 47.286147 12.396368 65.180904 29.191447 25.892414 24.192912 37.788929 59.982427 41.287904 94.872206 5.898272 57.883042-5.198477 115.866055-21.293762 171.049888-0.399883 1.499561 0 3.099092 1.199649 4.098799 11.996485 10.596895 17.994728 27.292004 16.395197 43.487259-1.799473 19.194377-5.59836 39.188519-16.495168 55.683687-5.498389 8.297569-13.895929 14.395782-23.493117 16.795079-0.799766 0.199941-1.39959 0.799766-1.499561 1.699502-4.098799 28.991506-13.695988 57.083276-27.391975 82.87572-6.798008 12.296398-14.295812 24.492824-25.492531 33.090306-0.099971 33.590159-1.499561 67.48023 2.399297 100.970419 2.499268 7.597774 6.298155 14.395782 10.896807 20.693937 0.799766 1.099678 0.699795 2.699209-0.399882 3.598946-9.697159 8.797423-15.795372 21.493703-15.795373 35.589573v95.771942c-54.084155 7.797716-95.971883 54.683979-95.971883 110.767549v15.195548c0 1.299619 1.099678 2.299326 2.399297 2.299326 3.798887 0 7.597774-0.099971 11.396661-0.199941 1.299619 0 2.599239 0 3.998829-0.099971 4.798594-0.099971 9.597188-0.199941 14.495753-0.399883 2.699209-0.099971 5.298448-0.199941 7.997657-0.299912 7.197891-0.299912 14.495753-0.499854 21.593673-0.899736 1.199649-0.099971 2.199356-1.099678 2.199356-2.299327v-13.396075c0-12.69628 4.998536-24.692766 14.195841-33.790101 9.097335-9.097335 21.09382-14.195841 33.790101-14.195841s24.692766 4.998536 33.890071 14.195841c8.997364 9.297276 13.9959 21.293762 13.9959 33.990042v6.298155c0 1.39959 1.199649 2.399297 2.499267 2.299326 3.399004-0.299912 6.698038-0.599824 10.097042-0.999707l9.297276-0.899736c2.399297-0.299912 4.798594-0.499854 7.097921-0.699795 1.299619-0.099971 2.699209-0.299912 3.998828-0.399883 1.899444-0.199941 3.798887-0.399883 5.59836-0.599824 0.399883 0 0.899736-0.099971 1.29962-0.099971 1.499561-0.199941 2.999121-0.299912 4.398711-0.499853 1.499561-0.199941 2.899151-0.299912 4.398711-0.499854 2.199356-0.199941 4.398711-0.499854 6.498096-0.699795 2.199356-0.299912 4.398711-0.499854 6.598067-0.799766 1.199649-0.099971 1.999414-1.099678 1.999415-2.299326 0-50.485209-33.890071-93.472615-79.97657-107.268574v-100.970419c0-3.798887 4.098799-5.998243 7.297862-4.098799h0.099971c62.681636 36.289368 135.360344 51.884799 194.942888 93.972469 30.091184 20.693937 56.483452 48.685737 70.379381 83.375574 7.497803 17.094992 13.096163 49.685444 15.395489 68.180025z" /></svg>