<?xml version="1.0" standalone="no"?><!DOCTYPE svg PUBLIC "-//W3C//DTD SVG 1.1//EN" "http://www.w3.org/Graphics/SVG/1.1/DTD/svg11.dtd"><svg class="icon" width="200px" height="200.00px" viewBox="0 0 1024 1024" version="1.1" xmlns="http://www.w3.org/2000/svg"><path fill="#333333" d="M944.67324 907.43415c-13.895929-34.589866-40.288197-62.681636-70.379381-83.375573-59.682515-42.08767-132.261252-57.683101-194.942888-93.972469-20.793908-12.896222-41.887728-29.791272-50.085326-54.284097-3.898858-33.590159-2.499268-67.38026-2.399297-100.970419 11.19672-8.597481 18.694523-20.793908 25.492531-33.090305 13.695988-25.792444 23.293176-53.884214 27.391975-82.87572 0.099971-0.799766 0.699795-1.499561 1.499561-1.699502 9.597188-2.299326 17.994728-8.39754 23.493117-16.79508 10.796837-16.395197 14.695695-36.389339 16.495168-55.683686 1.499561-16.195255-4.398711-32.890364-16.395197-43.48726-1.199649-0.999707-1.599531-2.599239-1.199649-4.098799 16.095285-55.283804 27.192034-113.266816 21.293762-171.049888-3.498975-34.889778-15.39549-70.679293-41.287904-94.872205-17.794787-16.79508-41.587816-25.492531-65.180904-29.191448-5.798301-8.897393-12.996193-16.79508-22.093527-22.293469C571.982427 4.498682 542.790979 0.499854 514.79918 0 465.213707 0.799766 412.929025 9.397247 372.041004 39.888314c-20.493996 14.995607-36.789222 35.589573-47.68603 58.882749-13.296105 28.291711-18.994435 59.982427-20.194084 91.27326-1.999414 49.785414 6.498096 99.270917 18.094699 147.4568 0.299912 1.39959-0.099971 2.899151-1.199648 3.898857-11.396661 10.097042-17.494875 25.692473-16.695109 41.087963 0.999707 15.995314 4.098799 32.090598 10.396954 46.886264 5.298448 13.196134 15.695402 25.092649 29.691301 28.291711 0.799766 0.199941 1.39959 0.799766 1.599532 1.699502 3.898858 27.292004 13.096163 53.784243 25.792443 78.277068 7.497803 13.895929 15.795372 27.991799 28.391682 37.588987 0 33.69013 1.39959 67.580201-2.499267 101.17036-10.197013 29.591331-37.788929 47.586059-63.481402 61.68193-56.383481 28.991506-118.365323 45.686615-172.349507 79.576686-23.293176 15.295519-45.586645 33.290247-61.981842 56.383481C82.12594 898.436786 68.13004 945.722933 64.131212 975.714146c-2.399297 2.399297 227.733281 48.285854 447.768817 48.285854 220.335449 0 448.668554-46.986235 447.968759-48.285854-2.199356-18.494582-7.897686-51.085034-15.195548-68.279996z m-432.773211 52.584595c-105.269159 0-210.63829-10.996778-280.517817-20.194084-34.689837-4.598653-64.281168-9.097335-87.774285-13.096163 3.199063-7.397833 5.998243-12.496339 7.997657-15.295519l0.099971-0.199942 0.099971-0.199941c9.497218-13.296105 23.992971-26.292297 44.486966-39.688373 26.69218-16.695109 57.383189-29.191448 89.7737-42.387582 21.593674-8.797423 43.787172-17.794787 65.980669-28.591623v23.793029c-19.094406 11.096749-31.990628 31.790686-31.990627 55.383775 0 35.289661 28.691594 63.981255 63.981255 63.981255s63.981255-28.691594 63.981256-63.981255c0-29.791272-20.394025-54.883921-47.985942-61.981842v-45.586644c21.993557-16.195255 46.186469-40.388168 58.182954-75.078005l2.299326-6.598067 0.799766-6.897979c3.498975-30.591038 3.299033-59.782486 2.999122-88.074197-0.099971-7.097921-0.099971-13.695988-0.099971-20.493996v-31.590745l-24.992678-19.194376c-1.999414-1.699502-5.698331-7.397833-10.796837-16.79508-9.8971-19.194377-16.295226-38.388753-18.994435-57.183247-3.199063-22.193498-17.494875-41.087963-37.289076-50.385239-1.499561-4.698623-2.699209-9.997071-3.299033-15.895343 14.995607-16.495167 20.993849-39.488431 15.695402-61.581958-12.796251-53.084448-17.894757-93.172703-16.395197-129.961925 1.099678-26.392268 5.798301-48.885678 14.195841-66.680465 3.299033-7.097921 7.397833-13.596017 12.096456-19.394318 4.598653-5.798301 9.8971-10.896808 15.595431-14.995607l0.199941-0.199941 0.199942-0.199942c23.393147-17.394904 57.483159-26.292297 104.369423-27.192033 22.193498 0.499854 37.788929 3.798887 47.786 9.997071l0.199942 0.099971c0.299912 0.299912 1.099678 1.199649 2.299326 2.89915l15.49546 23.79303 28.09177 4.398711c13.795958 2.199356 24.892707 6.698038 31.190862 12.59631l0.099971 0.09997 0.099971 0.099971c11.29669 10.596895 18.894465 29.991214 21.393732 54.584009v0.09997c4.19877 40.888021-1.799473 87.574343-18.994435 146.757005-6.598067 22.693352-0.799766 47.186176 14.795665 64.481109-0.799766 6.99795-1.899444 11.896515-2.999121 15.39549-20.094113 9.297276-34.389925 27.991799-37.588988 50.58518-2.999121 20.893879-9.79713 41.587816-20.394025 61.382017-5.098506 9.197305-7.397833 11.996485-8.297569 12.896222l-24.792737 18.994435-0.09997 31.390803c0 6.198184-0.099971 12.396368-0.199942 18.894465-0.299912 28.791565-0.599824 58.582837 2.999122 89.673728l0.799765 6.598067 2.099385 6.298155c11.29669 33.890071 33.990042 57.283218 55.383775 73.578444v61.88187c-54.084155 7.797716-95.971883 54.683979-95.971884 110.767549v17.494875c-5.59836 0.599824-10.896808 0.699795-16.295226 0.699795z m80.07654-1.999415v-15.595431c0-12.69628 4.998536-24.692766 14.195841-33.7901 9.097335-9.097335 21.09382-14.195841 33.790101-14.195841s24.692766 4.998536 33.790101 14.195841C682.949917 917.731133 687.948453 929.727619 687.948453 942.423899v8.797423c-30.291126 2.79918-62.681636 5.198477-95.971884 6.798008z m204.140194-19.194376c-13.496046 1.799473-28.391682 3.698916-44.187055 5.598359v-2.099384c0-50.485209-33.890071-93.472615-79.976569-107.268574V798.765987c23.293176 11.596603 46.686322 21.09382 69.479644 30.391096 35.189691 14.295812 68.479938 27.791858 95.971884 47.286147l0.399882 0.299912 0.399883 0.299912c14.695695 10.097042 33.890071 26.492239 44.686908 48.785707-23.193205 3.798887-52.484624 8.39754-86.774577 12.996193zM236.080836 559.835986h-39.988285c-2.199356 0-3.998828 1.799473-3.998828 3.998828v35.989456c0 4.398711-3.598946 7.997657-7.997657 7.997657h-35.989457c-2.199356 0-3.998828 1.799473-3.998828 3.998829v39.988284c0 2.199356 1.799473 3.998828 3.998828 3.998829h35.989457c4.398711 0 7.997657 3.598946 7.997657 7.997657v35.989456c0 2.199356 1.799473 3.998828 3.998828 3.998828h39.988285c2.199356 0 3.998828-1.799473 3.998828-3.998828v-35.989456c0-4.398711 3.598946-7.997657 7.997657-7.997657h35.989456c2.199356 0 3.998828-1.799473 3.998829-3.998829v-39.988284c0-2.199356-1.799473-3.998828-3.998829-3.998829h-35.989456c-4.398711 0-7.997657-3.598946-7.997657-7.997657v-35.989456c0-2.199356-1.799473-3.998828-3.998828-3.998828z" /></svg>