<?xml version="1.0" standalone="no"?><!DOCTYPE svg PUBLIC "-//W3C//DTD SVG 1.1//EN" "http://www.w3.org/Graphics/SVG/1.1/DTD/svg11.dtd"><svg class="icon" width="200px" height="200.00px" viewBox="0 0 1024 1024" version="1.1" xmlns="http://www.w3.org/2000/svg"><path fill="#333333" d="M976 621.6c-11.1 0-22.3-3.8-31.4-11.7L541.5 261.1c-16.8-14.7-42.2-14.7-59 0l-0.2 0.2L79.4 609.9c-20 17.3-50.4 15.2-67.7-4.9-17.3-20-15.2-50.4 4.9-67.7l402.8-348.6C445 166.3 477.9 154 512 154s67 12.3 92.6 34.7l402.8 348.6c20 17.3 22.2 47.7 4.9 67.7-9.5 11-22.9 16.6-36.3 16.6zM976 870c-11.1 0-22.3-3.8-31.4-11.7L541.5 509.5c-16.8-14.7-42.2-14.7-59 0l-0.2 0.2L79.4 858.3c-20 17.3-50.4 15.2-67.7-4.9-17.3-20-15.2-50.4 4.9-67.7l402.8-348.6c25.7-22.4 58.5-34.7 92.6-34.7s67 12.3 92.6 34.7l402.8 348.6c20 17.3 22.2 47.7 4.9 67.7-9.5 11-22.9 16.6-36.3 16.6z" /></svg>