<?xml version="1.0" standalone="no"?><!DOCTYPE svg PUBLIC "-//W3C//DTD SVG 1.1//EN" "http://www.w3.org/Graphics/SVG/1.1/DTD/svg11.dtd"><svg class="icon" width="200px" height="200.00px" viewBox="0 0 1024 1024" version="1.1" xmlns="http://www.w3.org/2000/svg"><path fill="#333333" d="M416.301053 992.000352c0-7.399919 2.599971-14.899836 7.799914-20.89977l360.79603-416.895412c20.999769-23.999736 20.999769-60.299336 0-84.299072l-0.099999-0.099999L424.100967 52.910688c-11.599872-13.399853-10.099889-33.59963 3.299964-45.099504 13.399853-11.599872 33.59963-10.099889 45.099504 3.299964l360.596031 416.695414c20.399775 23.299744 31.599652 53.199414 31.599652 84.199073s-11.199877 60.89933-31.599652 84.199073l-360.596031 416.695414c-11.599872 13.399853-31.79965 14.799837-45.099504 3.299964-7.399919-6.299931-11.099878-15.199833-11.099878-24.199734zM159.303882 992.000352c0-7.399919 2.599971-14.899836 7.799914-20.89977l360.796029-416.895412c20.999769-23.999736 20.999769-60.299336 0-84.299072l-0.099999-0.099999L167.103796 52.910688c-11.599872-13.399853-10.099889-33.59963 3.299964-45.099504 13.399853-11.599872 33.59963-10.099889 45.099503 3.299964l360.596032 416.695414c20.399775 23.299744 31.599652 53.199414 31.599652 84.199073s-11.199877 60.89933-31.599652 84.199073l-360.596032 416.695414c-11.599872 13.399853-31.79965 14.799837-45.099503 3.299964-7.399919-6.299931-11.099878-15.199833-11.099878-24.199734z" /></svg>