<?xml version="1.0" standalone="no"?><!DOCTYPE svg PUBLIC "-//W3C//DTD SVG 1.1//EN" "http://www.w3.org/Graphics/SVG/1.1/DTD/svg11.dtd"><svg class="icon" width="200px" height="200.00px" viewBox="0 0 1024 1024" version="1.1" xmlns="http://www.w3.org/2000/svg"><path fill="#333333" d="M607.698947 992.000352c0-7.399919-2.599971-14.899836-7.799914-20.89977l-360.79603-416.99541c-20.999769-23.999736-20.999769-60.299336 0-84.299073l0.099999-0.099999L599.899033 52.910688c11.599872-13.399853 10.099889-33.59963-3.299964-45.099504-13.399853-11.599872-33.59963-10.099889-45.099504 3.299964L190.903534 427.806562c-20.399775 23.299744-31.599652 53.199414-31.599652 84.199073s11.199877 60.89933 31.599652 84.199073l360.596031 416.695414c11.599872 13.399853 31.79965 14.799837 45.099504 3.299964 7.399919-6.299931 11.099878-15.199833 11.099878-24.199734zM864.696118 992.000352c0-7.399919-2.599971-14.899836-7.799914-20.89977l-360.796029-416.99541c-20.999769-23.999736-20.999769-60.299336 0-84.299073l0.099999-0.099999L856.896204 52.910688c11.599872-13.399853 10.099889-33.59963-3.299964-45.099504-13.399853-11.599872-33.59963-10.099889-45.099503 3.299964L447.900705 427.806562c-20.399775 23.299744-31.599652 53.199414-31.599652 84.199073s11.199877 60.89933 31.599652 84.199073l360.596032 416.695414c11.599872 13.399853 31.79965 14.799837 45.099503 3.299964 7.399919-6.299931 11.099878-15.199833 11.099878-24.199734z" /></svg>