<?xml version="1.0" standalone="no"?><!DOCTYPE svg PUBLIC "-//W3C//DTD SVG 1.1//EN" "http://www.w3.org/Graphics/SVG/1.1/DTD/svg11.dtd"><svg class="icon" width="200px" height="200.00px" viewBox="0 0 1024 1024" version="1.1" xmlns="http://www.w3.org/2000/svg"><path fill="#333333" d="M986.3 37.8C973.8 25.3 959.4 16 944 9.7 928.6 3.4 912.2 0.3 895.8 0.3c-32.8 0-65.5 12.5-90.5 37.5l-56.6 56.6c-12.5 12.5-32.8 12.5-45.3 0s-32.8-12.5-45.2 0c-12.5 12.5-12.5 32.8 0 45.2l19.8 19.8c1.6 1.6 1.6 4.1 0 5.7L192.6 650.5c-21.2 21.2-37.1 47-46.6 75.4L123.3 794c-5 15-1.1 31.5 10.1 42.6 2.4 2.4 2.4 6.4 0 8.9l-90.9 90.9c-23.4 23.4-23.4 61.4 0 84.8 1.6 1.6 4.1 1.6 5.7 0l130.5-130.5c2.4-2.4 6.4-2.4 8.9 0 7.9 7.9 18.6 12.2 29.5 12.2 4.4 0 8.8-0.7 13.2-2.1l68.2-22.7c28.4-9.5 54.2-25.4 75.4-46.6l485.4-485.4c1.6-1.6 4.1-1.6 5.7 0l19.8 19.8c12.5 12.5 32.8 12.5 45.2 0 12.5-12.5 12.5-32.8 0-45.2-12.5-12.5-12.5-32.8 0-45.3l56.6-56.6c49.7-49.9 49.7-131-0.3-181zM328.4 786.3c-14.1 14.1-31.5 24.9-50.4 31.2l-36.3 12.1c-11.5 3.8-24.2 0.8-32.7-7.7l-6.6-6.6c-8.6-8.6-11.6-21.3-7.7-32.8l12.1-36.3c6.3-18.9 17.1-36.3 31.1-50.4l211.4-211.4c1.6-1.6 4.1-1.6 5.7 0l84.9 84.9c1.6 1.6 1.6 4.1 0 5.7L328.4 786.3zM585.1 524l-84.9-84.9c-1.6-1.6-1.6-4.1 0-5.7l223.1-223.1c1.6-1.6 4.1-1.6 5.7 0l84.9 84.9c1.6 1.6 1.6 4.1 0 5.7L590.7 524c-1.5 1.5-4.1 1.5-5.6 0z m356-350.4L864.7 250c-1.6 1.6-4.1 1.6-5.7 0l-84.9-84.9c-1.6-1.6-1.6-4.1 0-5.7L850.5 83c12.1-12.1 28.2-18.7 45.3-18.7 17.1 0 33.2 6.7 45.3 18.7 24.9 25.1 24.9 65.7 0 90.6z" /></svg>