<?xml version="1.0" standalone="no"?><!DOCTYPE svg PUBLIC "-//W3C//DTD SVG 1.1//EN" "http://www.w3.org/Graphics/SVG/1.1/DTD/svg11.dtd"><svg class="icon" width="200px" height="200.00px" viewBox="0 0 1024 1024" version="1.1" xmlns="http://www.w3.org/2000/svg"><path fill="#333333" d="M381.78309 171c-10.3-4.2-20.9-7.3-31.5-9.3-10.6-2-21.2-3-31.7-3-66.3 0-129.2 39.6-155.7 104.8L81.58309 463.6l-24.1 59.3-45.1 111.2c-34.9 86 6.5 184 92.4 218.9 10.3 4.2 20.9 7.3 31.5 9.3 10.6 2 21.2 3 31.7 3 66.3 0 129.2-39.6 155.7-104.8l45.2-111.2 24.1-59.3L474.28309 389.9C509.08309 304 467.78309 206 381.78309 171zM264.38309 736.4c-7.9 19.5-21.4 36-38.9 47.6-17.2 11.3-37.1 17.3-57.5 17.3-13.4 0-26.5-2.6-39.1-7.7-53.1-21.6-78.8-82.4-57.2-135.5L115.28309 550.7c0.8-2 3.2-3 5.2-2.2l185.3 75.3c2 0.8 3 3.2 2.2 5.2l-43.6 107.4z m150.5-370.6l-79.8 196.4c-0.8 2-3.2 3-5.2 2.2l-185.3-75.3c-2-0.8-3-3.2-2.2-5.2l79.8-196.4c7.9-19.5 21.4-36 38.9-47.6 17.2-11.3 37.1-17.3 57.5-17.3 13.4 0 26.5 2.6 39.1 7.7 53.1 21.6 78.8 82.4 57.2 135.5zM975.48309 310.8c-16.4-16.4-35.4-28.7-55.6-36.9-20.2-8.2-41.7-12.3-63.2-12.3-43 0-86 16.4-118.8 49.2l-84.9 84.9-198 198c-65.6 65.6-65.6 172 0 237.6 16.4 16.4 35.4 28.7 55.6 36.9 20.2 8.2 41.7 12.3 63.2 12.3 43 0 86-16.4 118.8-49.2l282.8-282.8c65.7-65.7 65.7-172.1 0.1-237.7zM647.38309 786c-20.4 20.3-47.6 31.2-76.5 30.4-25.6-0.7-50.1-10.9-68.6-28.6-42.4-40.4-43.1-107.8-1.9-148.9L650.28309 489c1.6-1.6 4.1-1.6 5.7 0L797.28309 630.4c1.6 1.6 1.6 4.1 0 5.7L647.38309 786zM930.28309 503.1l-82 82c-1.6 1.6-4.1 1.6-5.7 0L701.18309 443.7c-1.6-1.6-1.6-4.1 0-5.7l82-82c20.4-20.3 47.6-31.2 76.5-30.4 25.6 0.7 50.1 10.9 68.6 28.6 42.5 40.3 43.1 107.7 2 148.9z" /></svg>