<?xml version="1.0" standalone="no"?><!DOCTYPE svg PUBLIC "-//W3C//DTD SVG 1.1//EN" "http://www.w3.org/Graphics/SVG/1.1/DTD/svg11.dtd"><svg class="icon" width="200px" height="200.00px" viewBox="0 0 1024 1024" version="1.1" xmlns="http://www.w3.org/2000/svg"><path fill="#333333" d="M919.440843 272.293635C885.154237 115.854744 695.328387 0 514.09918 0c-6.197579 0-12.395158 0.099961-18.492776 0.399844-155.039438 6.897306-324.773135 102.360016-375.853183 255.900039-8.696603 26.18977-44.482624 133.547833 0 223.912534 56.977743 115.854744 79.968762 143.943772 79.968763 143.943772 11.49551 13.994533 27.489262 31.387739 26.489652 54.978524-0.899649 22.391253-17.493167 32.48731-23.590785 68.973057-1.899258 11.695431-2.998829 23.790707-2.998828 35.985943 0 132.448262 118.153846 239.906287 263.896915 239.906287s263.896915-107.458024 263.896915-239.906287v-3.498633c-0.99961-64.174932 37.185474-112.25615 51.779774-131.448653 49.680594-65.474424 88.16556-116.154627 108.257712-152.940258 41.383834-75.670441 44.882468-165.235455 31.987504-223.912534z m-59.176884 98.361578c-3.898477 34.686451-13.894572 67.473643-28.888715 94.862944-17.79305 32.587271-55.478329 82.167903-103.059742 144.943381L726.916048 612.160875c-17.693089 23.290902-64.774697 85.066771-63.475205 169.433815v2.499023c0 96.962124-89.664975 175.931277-199.921905 175.931277s-199.921906-78.969153-199.921906-175.931277c0-8.596642 0.699727-17.193284 2.09918-25.490043 1.499414-9.296369 3.998438-14.194455 8.196799-22.391253 5.997657-11.795392 15.094104-29.688403 16.093713-54.478719 1.899258-46.381882-24.490433-78.269426-38.684889-95.362749-0.599766-0.699727-1.199531-1.399453-1.699336-2.09918-2.499024-3.498633-24.190551-33.786802-72.571652-132.348302-13.394768-27.28934-17.992971-61.176103-13.69465-100.960562 3.698555-34.58649 12.994924-62.575556 16.993362-74.570871 9.796173-29.488481 25.590004-57.477548 46.981648-83.067551 20.691917-24.890277 46.281921-47.18157 75.970324-66.274112 28.988676-18.692698 60.87622-33.686841 94.762983-44.482624 33.386958-10.695822 67.17376-16.893401 100.260835-18.292854 5.098009-0.199922 10.395939-0.399844 15.69387-0.399844 76.170246 0 157.438501 24.490433 222.812964 67.073799 32.187427 20.9918 58.976962 45.182351 79.668879 71.871925 20.591956 26.489652 34.186646 54.478719 40.384225 83.067552 5.597813 24.990238 6.697384 55.078485 3.398672 84.766888zM312.67786 612.460758c1.399453 0.699727 2.798907 1.399453 4.298321 1.899258-1.499414-0.599766-2.898868-1.199531-4.298321-1.899258zM336.868411 614.85982c0.599766-0.199922 1.199531-0.399844 1.699336-0.599765-0.599766 0.199922-1.199531 0.399844-1.699336 0.599765zM336.668489 614.85982h0.199922-0.199922zM339.767278 613.76025c-0.199922 0.099961-0.499805 0.199922-0.699726 0.299883 0.199922-0.099961 0.399844-0.199922 0.699726-0.299883zM338.567747 614.260055c0.199922-0.099961 0.299883-0.099961 0.499805-0.199922-0.099961 0-0.199922 0.099961-0.299883 0.099961-0.099961 0-0.099961 0.099961-0.199922 0.099961zM334.66927 615.359625c0.699727-0.199922 1.299492-0.299883 1.999219-0.499805-0.699727 0.199922-1.299492 0.399844-1.999219 0.499805zM341.066771 613.160484c-0.399844 0.199922-0.899649 0.399844-1.299493 0.599766 0.399844-0.199922 0.899649-0.299883 1.299493-0.599766zM356.460758 598.166341c0.499805-0.99961 0.899649-2.09918 1.299492-3.19875-0.399844 1.09957-0.799688 2.09918-1.299492 3.19875zM357.860211 573.675908c0.199922 0.499805 0.299883 0.899649 0.499805 1.399453-0.099961-0.399844-0.299883-0.899649-0.499805-1.399453zM357.660289 573.176103c0.099961 0.199922 0.099961 0.399844 0.199922 0.599766-0.099961-0.399844-0.199922-0.699727-0.399844-1.099571 0.099961 0.099961 0.199922 0.299883 0.199922 0.499805zM358.360016 575.075361c0.199922 0.699727 0.399844 1.399453 0.499804 2.09918-0.099961-0.699727-0.299883-1.399453-0.499804-2.09918zM769.399453 374.653651c-16.79344 5.497852-34.886373-3.698555-40.384225-20.491995-7.796954-23.690746-39.784459-103.85943-126.050761-140.445139-79.069114-33.486919-174.531824-16.593518-237.607185 41.9836-29.888325 27.789145-50.680203 62.9754-61.675908 104.559157-8.296759 31.387739-8.296759 56.078094-8.096837 62.9754 0.199922 4.898087 0.499805 9.696212 0.899649 14.394377 14.794221-41.283873 41.383834-77.569699 76.070285-103.059742 37.485357-27.689184 84.367044-43.083171 131.748536-43.383054 48.581023-0.299883 95.162827 15.393987 131.048809 44.082781 33.986724 27.189379 57.077704 64.174932 68.573213 109.957048 8.296759 32.987114 8.196798 62.275674 7.29715 76.869972-3.898477 67.973448-39.384615 135.247169-92.563842 175.631394-20.292073 15.294026-36.68567 21.691527-48.680984 26.289731-12.195236 4.698165-17.79305 6.897306-26.289731 16.893401-12.795002 15.094104-15.094104 28.888715-17.992971 46.381882-3.498633 21.091761-7.896915 47.481453-33.686842 69.27294-20.591956 17.393206-50.180398 27.789145-79.868801 27.789145-27.689184 0-55.378368-8.996486-75.670441-29.888325-40.88403-41.883639-25.889887-103.659508-23.990629-110.656775 4.598204-17.093323 22.091371-27.189379 39.184694-22.591175 17.093323 4.598204 27.189379 22.091371 22.591175 39.184694-0.099961 0.299883-8.096837 32.887153 7.996876 49.38071 15.793831 16.193674 51.37993 12.295197 68.373292-1.999219 7.29715-6.197579 8.896525-12.59508 11.995314-30.987895 3.398672-20.491995 8.096837-48.680984 32.287388-77.269817 18.992581-22.391253 36.485748-29.188598 51.979696-35.186255 10.295978-3.998438 19.992191-7.696993 33.087075-17.593128 38.684889-29.288559 64.474815-78.469348 67.373682-128.249902 1.199531-20.491995 0.899649-90.764545-51.979695-133.147989-50.280359-40.284264-129.849278-39.88442-184.927763 0.799687-56.278016 41.483795-78.069504 118.153846-53.179227 186.527138 0.099961 0.199922 0.099961 0.399844 0.199922 0.599766 0.499805 1.299492 0.899649 2.698946 1.199531 3.998438v0.099961c0.099961 0.499805 0.199922 0.899649 0.299883 1.399453 0 0.099961 0 0.299883 0.099961 0.399844 0.099961 0.799688 0.199922 1.499414 0.299883 2.299102 0.099961 1.499414 0.199922 2.998829 0.099961 4.498243 0 0.599766-0.099961 1.09957-0.099961 1.699336 0 0.299883-0.099961 0.499805-0.099961 0.799688-0.099961 0.499805-0.199922 1.09957-0.299883 1.599375 0 0.199922-0.099961 0.399844-0.099961 0.699727-0.099961 0.599766-0.299883 1.299492-0.499804 1.899258l-0.299883 1.199531-0.299883 0.899649c0 0.099961-0.099961 0.299883-0.099961 0.399844-0.399844 1.09957-0.799688 2.09918-1.299492 3.19875-0.199922 0.399844-0.399844 0.799688-0.599766 1.299493-0.199922 0.299883-0.299883 0.599766-0.499805 0.899648-0.199922 0.299883-0.399844 0.699727-0.599766 0.99961-0.199922 0.299883-0.399844 0.699727-0.699726 0.999609-0.199922 0.299883-0.499805 0.599766-0.699727 0.899649-0.199922 0.299883-0.399844 0.599766-0.699727 0.899648-0.799688 0.99961-1.699336 1.999219-2.598984 2.898868-0.399844 0.399844-0.799688 0.799688-1.199532 1.09957-1.09957 0.99961-2.299102 1.899258-3.598594 2.698946-0.399844 0.299883-0.799688 0.499805-1.099571 0.699727-0.099961 0.099961-0.199922 0.099961-0.299882 0.199922-0.299883 0.099961-0.499805 0.299883-0.799688 0.399844-0.299883 0.099961-0.499805 0.299883-0.799688 0.399843h-0.099961c-0.399844 0.199922-0.699727 0.399844-1.09957 0.499805-0.799688 0.399844-1.599375 0.699727-2.399063 0.99961-1.299492 0.499805-2.698946 0.899649-3.998438 1.199531-0.499805 0.099961-0.899649 0.199922-1.399453 0.299883-0.899649 0.199922-1.899258 0.299883-2.798907 0.399844-0.899649 0.099961-1.899258 0.099961-2.798907 0.099961h-1.699336c-0.499805 0-1.09957-0.099961-1.699336-0.099961-0.299883 0-0.499805-0.099961-0.799688-0.099961-0.499805-0.099961-1.09957-0.199922-1.699336-0.299883-0.199922 0-0.399844-0.099961-0.599766-0.099961-0.699727-0.099961-1.299492-0.299883-1.899258-0.399844l-1.199531-0.299883c-0.399844-0.099961-0.699727-0.199922-1.099571-0.399843h-0.099961c-1.499414-0.499805-2.998829-1.199531-4.298321-1.899259-0.099961 0-0.099961-0.099961-0.199922-0.099961-0.299883-0.199922-0.599766-0.299883-0.899648-0.499804-0.299883-0.199922-0.699727-0.399844-0.99961-0.599766-0.299883-0.199922-0.699727-0.399844-0.999609-0.699727-0.299883-0.199922-0.599766-0.499805-0.99961-0.699726-0.299883-0.199922-0.599766-0.399844-0.899648-0.699727-0.99961-0.799688-1.899258-1.599375-2.798907-2.598985-0.399844-0.399844-0.799688-0.899649-1.199531-1.299492-0.199922-0.199922-0.299883-0.399844-0.499805-0.599766-25.689965-29.38852-68.573214-91.26435-71.37212-179.42991-0.699727-21.491605 0.399844-133.048028 90.164779-216.415463 39.88442-37.085513 89.964857-61.87583 144.643499-71.672003 55.078485-9.896134 110.956658-3.798516 161.536899 17.593128 111.25654 46.981648 152.040609 149.141742 161.936744 179.42991 5.497852 16.693479-3.698555 34.786412-20.491996 40.284264zM303.681374 605.263569c0.399844 0.499805 0.799688 0.899649 1.199532 1.299492-0.599766-0.599766-1.199531-1.199531-1.699336-1.899258 0.199922 0.299883 0.299883 0.499805 0.499804 0.599766zM328.571652 616.159313c0.599766 0 1.299492 0 1.899258-0.099961-0.599766 0-1.199531 0.099961-1.899258 0.099961zM326.072628 616.159313h1.899258H326.072628zM327.971886 616.159313h0.599766-0.599766zM330.47091 616.059352c0.899649-0.099961 1.899258-0.199922 2.798906-0.399844-0.899649 0.199922-1.799297 0.299883-2.798906 0.399844zM347.464272 609.361968c0.299883-0.199922 0.499805-0.399844 0.799687-0.699727-0.299883 0.199922-0.599766 0.499805-0.799687 0.699727zM345.265131 610.861382c0.799688-0.499805 1.499414-0.99961 2.199141-1.599375-0.799688 0.599766-1.499414 1.09957-2.199141 1.599375zM348.163998 608.662241c0.599766-0.499805 1.299492-1.09957 1.799298-1.599375-0.399844 0.399844-0.799688 0.799688-1.199532 1.099571-0.099961 0.199922-0.299883 0.299883-0.599766 0.499804zM359.259664 579.073799c0.099961 0.799688 0.199922 1.499414 0.299883 2.299102-0.099961-0.799688-0.199922-1.599375-0.299883-2.299102zM359.659508 585.771183c0.099961-1.499414 0-2.998829-0.099961-4.498243 0.099961 1.599375 0.099961 3.09879 0.099961 4.498243z" /></svg>