<?xml version="1.0" standalone="no"?><!DOCTYPE svg PUBLIC "-//W3C//DTD SVG 1.1//EN" "http://www.w3.org/Graphics/SVG/1.1/DTD/svg11.dtd"><svg class="icon" width="200px" height="200.00px" viewBox="0 0 1024 1024" version="1.1" xmlns="http://www.w3.org/2000/svg"><path fill="#333333" d="M967.9 313.9L542.4 24.7c-21.9-14.9-50.8-14.7-72.5 0.4l-415 288.7C20.5 337.7 0 377 0 418.9V960c0 35.3 28.7 64 64 64h896c35.3 0 64-28.7 64-64V419.8c0-42.4-21-82.1-56.1-105.9zM960 468L570.3 669.5c-36.9 19.1-80.7 19.1-117.6 0L64 468.5v-16.2c0-41.9 20.5-81.2 54.9-105.1l369.5-257c10.9-7.6 25.3-7.6 36.3-0.2L904 347.8c35 23.8 56 63.5 56 105.9V468z" /></svg>