<?xml version="1.0" standalone="no"?><!DOCTYPE svg PUBLIC "-//W3C//DTD SVG 1.1//EN" "http://www.w3.org/Graphics/SVG/1.1/DTD/svg11.dtd"><svg class="icon" width="200px" height="200.00px" viewBox="0 0 1024 1024" version="1.1" xmlns="http://www.w3.org/2000/svg"><path fill="#333333" d="M1024 192v96H0v-96c0-17.7 14.3-32 32-32h960c17.7 0 32 14.3 32 32zM0 352v480c0 17.7 14.3 32 32 32h960c17.7 0 32-14.3 32-32V352H0z m576 192H464v48h112v32H464v48h112v32H432V512h144v32z m160 0h-96v64h96v96H608v-32h96v-32h-96V512h128v32z m192 160h-32V544h-32v160h-32V544h-32v160h-32V512h160v192z" /></svg>