<?xml version="1.0" standalone="no"?><!DOCTYPE svg PUBLIC "-//W3C//DTD SVG 1.1//EN" "http://www.w3.org/Graphics/SVG/1.1/DTD/svg11.dtd"><svg class="icon" width="200px" height="200.00px" viewBox="0 0 1024 1024" version="1.1" xmlns="http://www.w3.org/2000/svg"><path fill="#333333" d="M0 192v640c0 70.7 57.3 128 128 128h352c17.7 0 32-14.3 32-32s-14.3-32-32-32H128c-35.3 0-64-28.7-64-64V192c0-35.3 28.7-64 64-64h352c17.7 0 32-14.3 32-32s-14.3-32-32-32H128C57.3 64 0 121.3 0 192zM1013.3 488.3L650.9 160.7c-41.2-37.2-106.9-8-106.9 47.5V339c0 4.4-3.6 8-8 8H224c-17.7 0-32 14.3-32 32v266c0 17.7 14.3 32 32 32h312c4.4 0 8 3.6 8 8v130.9c0 55.5 65.8 84.7 106.9 47.5l362.4-327.6c14.1-12.8 14.1-34.8 0-47.5zM256 597V427c0-8.8 7.2-16 16-16h304c17.7 0 32-14.3 32-32V244.9c0-13.9 16.4-21.2 26.7-11.9L938 506.1c3.5 3.2 3.5 8.7 0 11.9L634.7 791c-10.3 9.3-26.7 2-26.7-11.9V645c0-17.7-14.3-32-32-32H272c-8.8 0-16-7.2-16-16z" /></svg>