<?xml version="1.0" standalone="no"?><!DOCTYPE svg PUBLIC "-//W3C//DTD SVG 1.1//EN" "http://www.w3.org/Graphics/SVG/1.1/DTD/svg11.dtd"><svg class="icon" width="200px" height="200.00px" viewBox="0 0 1024 1024" version="1.1" xmlns="http://www.w3.org/2000/svg"><path fill="#333333" d="M896 160c35.3 0 64 28.7 64 64v576c0 35.3-28.7 64-64 64H128c-35.3 0-64-28.7-64-64V224c0-35.3 28.7-64 64-64h768m0-64H128C57.3 96 0 153.3 0 224v576c0 70.7 57.3 128 128 128h768c70.7 0 128-57.3 128-128V224c0-70.7-57.3-128-128-128zM864 224c17.6 0 32 14.4 32 32v512c0 17.6-14.4 32-32 32H160c-17.6 0-32-14.4-32-32V256c0-17.6 14.4-32 32-32h704m0-32H160c-35.3 0-64 28.7-64 64v512c0 35.3 28.7 64 64 64h704c35.3 0 64-28.7 64-64V256c0-35.3-28.7-64-64-64zM608 704c-11.4 0-22.4-6.1-28.2-16.8-0.3-0.5-27.7-51.1-66-102.7-45.7-61.6-89.1-99.8-119-104.9 0.1 3.1 0.6 7.5 1.7 13.6 2.2 12.2 6.3 26.5 10.1 40.2 11 39.1 20.6 72.9-0.7 94.8-6.5 6.7-21.1 17-45.8 10.8-21.8-5.4-43.5-21.8-66.5-50.1-15.8-19.3-32.5-44.7-49.6-75.3-28.6-51-48.8-99.3-49.6-101.3-6.8-16.3 0.9-35 17.2-41.8 16.3-6.8 35 0.9 41.8 17.2 0.3 0.8 19.9 47.5 46.6 95.1 18.3 32.6 33.3 54 44.9 67.9-12.4-43.7-25.1-89 0.6-117.7 9.4-10.5 27.4-22 59.5-16.6 28.4 4.7 57.6 21 89.2 49.6 22.8 20.7 46.8 47.9 71.2 80.9 40.9 55.2 69.3 107.7 70.5 109.9 8.4 15.6 2.6 35-13 43.3-4.6 2.7-9.7 3.9-14.9 3.9zM376.1 577zM725.6 366c-5.6 0-11.2 1-16.7 3.2-21.1 8.4-32.6 31.2-26.8 53.2L751 687c6.9 26.4 30.6 43.2 56 43.2 7.6 0 15.3-1.5 22.8-4.7 28.2-12.1 42-44.1 31.6-72.9l-93.4-257c-6.8-18.3-24.1-29.6-42.4-29.6z" /></svg>