<?xml version="1.0" standalone="no"?><!DOCTYPE svg PUBLIC "-//W3C//DTD SVG 1.1//EN" "http://www.w3.org/Graphics/SVG/1.1/DTD/svg11.dtd"><svg class="icon" width="200px" height="200.00px" viewBox="0 0 1024 1024" version="1.1" xmlns="http://www.w3.org/2000/svg"><path fill="#333333" d="M988 508c3.8-3.6 7.4-7 10.6-10.1 14.6-14.2 14.6-37.6 0-51.7C931.7 381.1 739.1 216 512 216 284.9 216 92.3 381.1 25.3 446.2c-14.6 14.2-14.6 37.6 0 51.7 3.2 3.2 6.8 6.5 10.6 10.1-5.1 4.8-9.7 9.2-13.7 13.1-12.8 12.6-12.8 33.2 0 45.7C86.2 629.6 281.3 800 512 800s425.8-170.4 489.8-233.2c12.8-12.6 12.8-33.2 0-45.7-4.1-3.9-8.7-8.3-13.8-13.1zM837.7 619.3C787.9 653.7 737.5 681 688 700.4 627.7 724 568.5 736 512 736c-56 0-114.6-11.8-174.3-35-49.3-19.1-99.3-46-148.8-80-33-22.7-61.4-45.5-83.9-65.1-7.3-6.4-7.3-17.8 0-24.2 21.8-19 49.3-41 81.4-63.2 49.7-34.4 100.1-61.6 149.7-81.1 4.4-1.7 8.7-3.3 13-4.9-28.2 35.4-45 80.3-45.1 129-0.2 115.5 92.4 208.3 207.7 208.5 115 0.2 208.3-93 208.3-208 0-48.9-16.9-93.8-45.1-129.4 3.8 1.4 7.6 2.8 11.4 4.3 49.3 19.1 99.3 46.1 148.8 80 33 22.7 61.4 45.5 83.9 65.1 7.3 6.4 7.3 17.8 0 24.2-21.8 18.9-49.3 41-81.3 63.1zM560 384c-44.2 0-80 35.8-80 80s35.8 80 80 80 80-35.8 80-80c0-9-1.5-17.6-4.2-25.6 13.2 22 20.2 47.3 20.2 73.6 0 38.5-15 74.6-42.2 101.8C586.6 641 550.5 656 512 656s-74.6-15-101.8-42.2C383 586.6 368 550.5 368 512s15-74.6 42.2-101.8C437.4 383 473.5 368 512 368c26.3 0 51.6 7 73.6 20.2-8-2.7-16.6-4.2-25.6-4.2z m16 80c0 8.8-7.2 16-16 16s-16-7.2-16-16 7.2-16 16-16 16 7.2 16 16z m395.3 15.8c-3.9 3.8-10.1 3.9-14.2 0.4C868.9 404.3 702.6 288 512 288c-190.6 0-356.9 116.3-445.1 192.2-4.1 3.5-10.3 3.4-14.2-0.4l-0.2-0.1c-4.4-4.2-4.4-11.2 0-15.3 24.8-23.7 64.7-58.9 115.6-94 51.8-35.8 104.3-64.2 156.2-84.5 64-25.1 127.1-37.8 187.6-37.8 60.2 0 123.1 12.6 186.8 37.5 51.7 20.2 104.1 48.4 155.8 84 51.3 35.3 91.8 71 116.9 94.9 4.4 4.2 4.4 11.1 0 15.3 0-0.1-0.1 0-0.1 0z" /></svg>