<?xml version="1.0" standalone="no"?><!DOCTYPE svg PUBLIC "-//W3C//DTD SVG 1.1//EN" "http://www.w3.org/Graphics/SVG/1.1/DTD/svg11.dtd"><svg class="icon" width="200px" height="200.00px" viewBox="0 0 1024 1024" version="1.1" xmlns="http://www.w3.org/2000/svg"><path fill="#333333" d="M778.8 443.2l-36.8-135-227.4 107.2c-38.9 18.3-81.3 27.8-124.3 27.8l-36.8-135L104 421c-32.4 14.6-67.5 22.2-103 22.2v169.9h1022.1V443.2H778.8z m180.3 105.9H65v-48.5c22.4-4.7 44.3-11.8 65.4-21.4l181-81.9 17.1 62.6 12.9 47.2h48.9c52.1 0 104.5-11.7 151.6-34l158.4-74.7L717 460l12.9 47.2h229.2v41.9zM171.4 0v353.3l167.7-75.8V0H171.4z m103.7 236.1L235.4 254V64h39.7v172.1zM547.7 0v363.5l167.5-86.1V0H547.7z m103.5 238.4l-39.5 20.3V64h39.5v174.4zM0 649.9V1024h1024V649.9H0zM960 960H64V713.9h38c2.2 0 4 1.8 4 4v157.4c0 4.4 3.6 8 8 8h84.2c4.4 0 8-3.6 8-8V717.9c0-2.2 1.8-4 4-4h92.3c2.2 0 4 1.8 4 4v157.4c0 4.4 3.6 8 8 8h84.2c4.4 0 8-3.6 8-8V717.9c0-2.2 1.8-4 4-4h93.1c2.2 0 4 1.8 4 4v157.4c0 4.4 3.6 8 8 8H600c4.4 0 8-3.6 8-8l0.1-157.5c0-2.2 1.8-4 4-4h348V960z" /></svg>