<?xml version="1.0" standalone="no"?><!DOCTYPE svg PUBLIC "-//W3C//DTD SVG 1.1//EN" "http://www.w3.org/Graphics/SVG/1.1/DTD/svg11.dtd"><svg class="icon" width="200px" height="200.00px" viewBox="0 0 1024 1024" version="1.1" xmlns="http://www.w3.org/2000/svg"><path fill="#333333" d="M512 0C229.2 0 0 229.2 0 512s229.2 512 512 512 512-229.2 512-512S794.8 0 512 0z m50.9 517.7l145.1 145c12.5 12.5 12.5 32.8 0 45.3-6.3 6.3-14.4 9.4-22.6 9.4s-16.4-3.1-22.6-9.4L517.7 562.9c-3.1-3.1-8.2-3.1-11.3 0L361.3 708c-12.5 12.5-32.8 12.5-45.3 0-6.3-6.3-9.4-14.4-9.4-22.6s3.1-16.4 9.4-22.6l145.1-145.1c3.1-3.1 3.1-8.2 0-11.3L316 361.3c-12.5-12.5-12.5-32.8 0-45.3 6.3-6.3 14.4-9.4 22.6-9.4s16.4 3.1 22.6 9.4l145.1 145.1c3.1 3.1 8.2 3.1 11.3 0L662.7 316c12.5-12.5 32.8-12.5 45.3 0 6.3 6.3 9.4 14.4 9.4 22.6s-3.1 16.4-9.4 22.6L562.9 506.3a8.15 8.15 0 0 0 0 11.4z" /></svg>