<?xml version="1.0" standalone="no"?><!DOCTYPE svg PUBLIC "-//W3C//DTD SVG 1.1//EN" "http://www.w3.org/Graphics/SVG/1.1/DTD/svg11.dtd"><svg class="icon" width="200px" height="199.80px" viewBox="0 0 1025 1024" version="1.1" xmlns="http://www.w3.org/2000/svg"><path fill="#333333" d="M762.6 88m-88 0a88 88 0 1 0 176 0 88 88 0 1 0-176 0ZM1023.9 570.7l-69.5-260c-18.7-70-82.2-118.7-154.6-118.7H725.5c-33.6 0-65.3 10.5-91.4 28.7-26.2-18.2-57.8-28.7-91.4-28.7h-74.3c-72.4 0-135.9 48.7-154.6 118.7l-69.5 260c-0.9 3.5-1.4 6.9-1.4 10.4 0 16.7 10.6 32.1 26.9 37.8l-13.2 22.9-3.3-11.8c-11.7-41.3-49.4-69.9-92.4-69.9h-29.8c-43.4 0-81.5 29.2-92.7 71.1L0.8 771.2c-0.5 1.9-0.8 3.9-0.8 5.8 0 9.9 6.6 18.9 16.5 21.5 11.9 3.2 24.1-3.9 27.3-15.8l36.2-135c0.6-2.3 3.9-1.8 3.9 0.5V1016c0 4.4 3.6 8 8 8h37.5c4.4 0 8-3.6 8-8V808.9c0-4.4 3.6-8 8-8h1.8c4.4 0 8 3.6 8 8V1016c0 4.4 3.6 8 8 8h37.5c4.4 0 8-3.6 8-8V651.4c0-2.3 3.3-2.8 3.9-0.5l9.4 35c1 3.9 2.9 7.5 5.3 10.7 2.4 3.2 5.5 5.8 9 7.9 14.6 8.4 33.3 3.4 41.8-11.2l39.1-67.7c2-3.5 3-7.3 3-11.1 0-4.3-1.2-8.5-3.6-12.1 2.1-3.3 3.8-7 4.8-11l64.1-239c1.2-4.5 7.9-3.6 7.9 1V1008c0 8.8 7.2 16 16 16h64c8.8 0 16-7.2 16-16V640c0-4.4 1.8-8.4 4.7-11.3 2.9-2.9 6.9-4.7 11.3-4.7 8.8 0 16 7.2 16 16v368c0 8.8 7.2 16 16 16h64c8.8 0 16-7.2 16-16V720h29.2c2.2 0 4 1.8 4 4v284c0 8.8 7.2 16 16 16h64c8.8 0 16-7.2 16-16V724c0-2.2 1.8-4 4-4h24c2.2 0 4 1.8 4 4v284c0 8.8 7.2 16 16 16h64c8.8 0 16-7.2 16-16V724c0-2.2 1.8-4 4-4h38.1c10.8 0 18.5-10.5 15.3-20.8l-48.8-156.8c-5.8-18.5-8.7-37.7-8.7-57.1v-132c0-4.6 6.7-5.5 7.9-1l64.1 239c5.7 21.3 27.7 34 49 28.3 21.5-5.7 34.1-27.6 28.4-48.9z m-373.3-85.4c0 19.4-2.9 38.6-8.7 57.1L617.5 620.9V446.3l16.5-61.6 16.6 61.9v38.7zM147.5 456m-88 0a88 88 0 1 0 176 0 88 88 0 1 0-176 0ZM505.5 88m-88 0a88 88 0 1 0 176 0 88 88 0 1 0-176 0Z" /></svg>