<?xml version="1.0" standalone="no"?><!DOCTYPE svg PUBLIC "-//W3C//DTD SVG 1.1//EN" "http://www.w3.org/Graphics/SVG/1.1/DTD/svg11.dtd"><svg class="icon" width="200px" height="200.00px" viewBox="0 0 1024 1024" version="1.1" xmlns="http://www.w3.org/2000/svg"><path fill="#333333" d="M976 448h44c2.2 0 4-1.8 4-4v-56c0-2.2-1.8-4-4-4h-44c-8.8 0-16-7.2-16-16V227.4c0-12.6-3.7-25-10.8-35.5l-64-96c-25.3-38-81.2-38-106.5 0l-64 96c-7 10.5-10.8 22.9-10.8 35.5V368c0 8.8-7.2 16-16 16h-32c-8.8 0-16-7.2-16-16V227.4c0-12.6-3.7-25-10.8-35.5l-64-96c-25.3-38-81.2-38-106.5 0l-64 96c-7 10.5-10.8 22.9-10.8 35.5V368c0 8.8-7.2 16-16 16h-32c-8.8 0-16-7.2-16-16V227.4c0-12.6-3.7-25-10.8-35.5l-64-96c-25.3-38-81.2-38-106.5 0l-64 96c-7 10.5-10.8 22.9-10.8 35.5V368c0 8.8-7.2 16-16 16H4c-2.2 0-4 1.8-4 4v56c0 2.2 1.8 4 4 4h44c8.8 0 16 7.2 16 16v160c0 8.8-7.2 16-16 16H4c-2.2 0-4 1.8-4 4v56c0 2.2 1.8 4 4 4h44c8.8 0 16 7.2 16 16v176c0 17.7 14.3 32 32 32h192c17.7 0 32-14.3 32-32V720c0-8.8 7.2-16 16-16h32c8.8 0 16 7.2 16 16v176c0 17.7 14.3 32 32 32h192c17.7 0 32-14.3 32-32V720c0-8.8 7.2-16 16-16h32c8.8 0 16 7.2 16 16v176c0 17.7 14.3 32 32 32h192c17.7 0 32-14.3 32-32V720c0-8.8 7.2-16 16-16h44c2.2 0 4-1.8 4-4v-56c0-2.2-1.8-4-4-4h-44c-8.8 0-16-7.2-16-16V464c0-8.8 7.2-16 16-16zM214.6 694.6c-5.8 5.8-13.8 9.4-22.6 9.4-17.7 0-32-14.3-32-32 0-8.8 3.6-16.8 9.4-22.6 5.8-5.8 13.8-9.4 22.6-9.4s16.8 3.6 22.6 9.4c5.8 5.8 9.4 13.8 9.4 22.6s-3.6 16.8-9.4 22.6z m0-256c-5.8 5.8-13.8 9.4-22.6 9.4-17.7 0-32-14.3-32-32 0-8.8 3.6-16.8 9.4-22.6 5.8-5.8 13.8-9.4 22.6-9.4s16.8 3.6 22.6 9.4c5.8 5.8 9.4 13.8 9.4 22.6s-3.6 16.8-9.4 22.6zM384 624c0 8.8-7.2 16-16 16h-32c-8.8 0-16-7.2-16-16V464c0-8.8 7.2-16 16-16h32c8.8 0 16 7.2 16 16v160z m150.6 70.6c-5.8 5.8-13.8 9.4-22.6 9.4-17.7 0-32-14.3-32-32 0-8.8 3.6-16.8 9.4-22.6 5.8-5.8 13.8-9.4 22.6-9.4s16.8 3.6 22.6 9.4c5.8 5.8 9.4 13.8 9.4 22.6s-3.6 16.8-9.4 22.6z m0-256c-5.8 5.8-13.8 9.4-22.6 9.4-17.7 0-32-14.3-32-32 0-8.8 3.6-16.8 9.4-22.6 5.8-5.8 13.8-9.4 22.6-9.4s16.8 3.6 22.6 9.4c5.8 5.8 9.4 13.8 9.4 22.6s-3.6 16.8-9.4 22.6zM704 624c0 8.8-7.2 16-16 16h-32c-8.8 0-16-7.2-16-16V464c0-8.8 7.2-16 16-16h32c8.8 0 16 7.2 16 16v160z m160-208c0 8.8-3.6 16.8-9.4 22.6-5.8 5.8-13.8 9.4-22.6 9.4-17.7 0-32-14.3-32-32 0-8.8 3.6-16.8 9.4-22.6 5.8-5.8 13.8-9.4 22.6-9.4s16.8 3.6 22.6 9.4c5.8 5.8 9.4 13.8 9.4 22.6z m-54.6 233.4c5.8-5.8 13.8-9.4 22.6-9.4s16.8 3.6 22.6 9.4c5.8 5.8 9.4 13.8 9.4 22.6s-3.6 16.8-9.4 22.6c-5.8 5.8-13.8 9.4-22.6 9.4-17.7 0-32-14.3-32-32 0-8.8 3.6-16.8 9.4-22.6z" /></svg>