<?xml version="1.0" standalone="no"?><!DOCTYPE svg PUBLIC "-//W3C//DTD SVG 1.1//EN" "http://www.w3.org/Graphics/SVG/1.1/DTD/svg11.dtd"><svg class="icon" width="200px" height="200.00px" viewBox="0 0 1024 1024" version="1.1" xmlns="http://www.w3.org/2000/svg"><path fill="#333333" d="M1024 444v-56c0-2.2-1.8-4-4-4h-44c-8.8 0-16-7.2-16-16V227.4c0-12.6-3.7-25-10.7-35.5l-64-96c-25.3-38-81.2-38-106.5 0l-64 96c-7 10.5-10.7 22.9-10.7 35.5V368c0 8.8-7.2 16-16 16h-32c-8.8 0-16-7.2-16-16V227.4c0-12.6-3.7-25-10.7-35.5l-64-96c-25.3-38-81.2-38-106.5 0l-64 96c-7 10.5-10.7 22.9-10.7 35.5V368c0 8.8-7.2 16-16 16h-32c-8.8 0-16-7.2-16-16V227.4c0-12.6-3.7-25-10.7-35.5l-64-96c-25.3-38-81.2-38-106.5 0l-64 96c-7 10.5-10.7 22.9-10.7 35.5V368c0 8.8-7.2 16-16 16H4c-2.2 0-4 1.8-4 4v56c0 2.2 1.8 4 4 4h44c8.8 0 16 7.2 16 16v160c0 8.8-7.2 16-16 16H4c-2.2 0-4 1.8-4 4v56c0 2.2 1.8 4 4 4h44c8.8 0 16 7.2 16 16v176c0 17.7 14.3 32 32 32h192c17.7 0 32-14.3 32-32V720c0-8.8 7.2-16 16-16h32c8.8 0 16 7.2 16 16v176c0 17.7 14.3 32 32 32h192c17.7 0 32-14.3 32-32V720c0-8.8 7.2-16 16-16h32c8.8 0 16 7.2 16 16v176c0 17.7 14.3 32 32 32h192c17.7 0 32-14.3 32-32V720c0-8.8 7.2-16 16-16h44c2.2 0 4-1.8 4-4v-56c0-2.2-1.8-4-4-4h-44c-8.8 0-16-7.2-16-16V464c0-8.8 7.2-16 16-16h44c2.2 0 4-1.8 4-4zM256 856c0 4.4-3.6 8-8 8H136c-4.4 0-8-3.6-8-8V246.8c0-12.6 3.7-25 10.7-35.5l39.9-59.9c6.3-9.5 20.3-9.5 26.6 0l39.9 59.9c7 10.5 10.7 22.9 10.7 35.5V856z m112-216h-32c-8.8 0-16-7.2-16-16V464c0-8.8 7.2-16 16-16h32c8.8 0 16 7.2 16 16v160c0 8.8-7.2 16-16 16z m208 216c0 4.4-3.6 8-8 8H456c-4.4 0-8-3.6-8-8V246.8c0-12.6 3.7-25 10.7-35.5l39.9-59.9c6.3-9.5 20.3-9.5 26.6 0l39.9 59.9c7 10.5 10.7 22.9 10.7 35.5V856z m112-216h-32c-8.8 0-16-7.2-16-16V464c0-8.8 7.2-16 16-16h32c8.8 0 16 7.2 16 16v160c0 8.8-7.2 16-16 16z m208 216c0 4.4-3.6 8-8 8H776c-4.4 0-8-3.6-8-8V246.8c0-12.6 3.7-25 10.7-35.5l39.9-59.9c6.3-9.5 20.3-9.5 26.6 0l39.9 59.9c7 10.5 10.7 22.9 10.7 35.5V856zM192 448c-17.7 0-32-14.3-32-32s14.3-32 32-32 32 14.3 32 32-14.3 32-32 32zM192 704c-17.7 0-32-14.3-32-32s14.3-32 32-32 32 14.3 32 32-14.3 32-32 32zM512 448c-17.7 0-32-14.3-32-32s14.3-32 32-32 32 14.3 32 32-14.3 32-32 32zM512 704c-17.7 0-32-14.3-32-32s14.3-32 32-32 32 14.3 32 32-14.3 32-32 32zM832 448c-17.7 0-32-14.3-32-32s14.3-32 32-32 32 14.3 32 32-14.3 32-32 32zM832 704c-17.7 0-32-14.3-32-32s14.3-32 32-32 32 14.3 32 32-14.3 32-32 32z" /></svg>