<?xml version="1.0" standalone="no"?><!DOCTYPE svg PUBLIC "-//W3C//DTD SVG 1.1//EN" "http://www.w3.org/Graphics/SVG/1.1/DTD/svg11.dtd"><svg class="icon" width="200px" height="200.00px" viewBox="0 0 1024 1024" version="1.1" xmlns="http://www.w3.org/2000/svg"><path fill="#333333" d="M657.6 301.3c86.8-25.5 224.7-38.3 242.6-5.1 35.8 58.7-2.6 191.5-114.9 227.3-20.4 5.1-38.3 7.7-56.2 7.7 0 35.8-7.7 68.9-20.4 102.1 145.6-30.6 252.8-160.9 252.8-314.1C956.3 143 813.3 0 637.1 0 519.7 0 409.9 66.4 356.2 171.1h25.5c112.4 0 212 48.5 275.9 130.2z m10.2 434.1c-2.6 5.1-176.2 260.5-495.4 74.1 0 0-30.6-20.4-23 2.6 0 0 155.8 211.9 217.1 211.9 23 0 46-102.1 112.4-127.7 28.1-7.7 71.5 46 81.7 46 23 0 112.4-94.5 114.9-209.4 5.1-10.2-2.6-10.2-7.7 2.5zM953.8 469.9c-68.9 158.3-189 181.3-242.6 196.6-5.1 15.3-15.3 35.8-17.9 46 0 2.6 2.6 2.6 2.6 2.6 40.9-12.8 23 89.4 25.5 89.4 5.1 0 28.1-109.8 68.9-135.3 43.4-25.5 79.2 35.8 94.5 25.5 86.8-94.5 68.9-209.4 68.9-219.6 2.6-12.9 0.1-5.2 0.1-5.2z m-564.4 383c102.1 0 191.5-48.5 252.8-122.6 2.6-2.6 2.6-5.1 5.1-7.7 40.9-56.2 63.8-125.1 63.8-194.1 0-178.8-143-324.3-321.8-324.3-12.8 0-25.5 0-38.3 2.6h-2.6C185.2 227.3 60 367.7 62.6 531.2c5.1 181.3 148.1 324.3 326.8 321.7zM254.1 574.6c5.1-51.1 370.3-130.2 400.9-79.2 38.3 61.3-2.6 224.7-145.6 263-142.9 35.8-263-102.1-255.3-183.8z" /></svg>