<?xml version="1.0" standalone="no"?><!DOCTYPE svg PUBLIC "-//W3C//DTD SVG 1.1//EN" "http://www.w3.org/Graphics/SVG/1.1/DTD/svg11.dtd"><svg class="icon" width="200px" height="200.00px" viewBox="0 0 1024 1024" version="1.1" xmlns="http://www.w3.org/2000/svg"><path fill="#333333" d="M890.5 250.5l-213-213C653.5 13.5 620.9 0 587 0H160c-35.3 0-64 28.6-64 64v896c0 35.3 28.7 64 64 64h704c35.3 0 64-28.7 64-64V341c0-33.9-13.5-66.5-37.5-90.5zM640 90.5L837.5 288H704c-35.3 0-64-28.7-64-64V90.5z m-383.5 398c0-4.4 3.6-8 8-8h496c4.4 0 8 3.6 8 8v48c0 4.4-3.6 8-8 8h-496c-4.4 0-8-3.6-8-8v-48zM257 808c0-4.4 3.6-8 8-8h496c4.4 0 8 3.6 8 8v48c0 4.4-3.6 8-8 8H265c-4.4 0-8-3.6-8-8v-48z m512-111c0 4.4-3.6 8-8 8H265c-4.4 0-8-3.6-8-8v-48c0-4.4 3.6-8 8-8h496c4.4 0 8 3.6 8 8v48z" /></svg>