<?xml version="1.0" standalone="no"?><!DOCTYPE svg PUBLIC "-//W3C//DTD SVG 1.1//EN" "http://www.w3.org/Graphics/SVG/1.1/DTD/svg11.dtd"><svg class="icon" width="200px" height="200.00px" viewBox="0 0 1024 1024" version="1.1" xmlns="http://www.w3.org/2000/svg"><path fill="#333333" d="M0 224v576c0 70.7 57.3 128 128 128h768c70.7 0 128-57.3 128-128V224c0-70.7-57.3-128-128-128H128C57.3 96 0 153.3 0 224z m160-64h80c8.8 0 16 7.2 16 16v672c0 8.8-7.2 16-16 16h-80c-53 0-96-43-96-96V256c0-53 43-96 96-96z m528 704H336c-8.8 0-16-7.2-16-16V176c0-8.8 7.2-16 16-16h352c8.8 0 16 7.2 16 16v672c0 8.8-7.2 16-16 16z m176 0h-80c-8.8 0-16-7.2-16-16V176c0-8.8 7.2-16 16-16h80c53 0 96 43 96 96v512c0 53-43 96-96 96zM128 224c-8.8 0-16 7.2-16 16v64c0 8.8 7.2 16 16 16h64c8.8 0 16-7.2 16-16v-64c0-8.8-7.2-16-16-16h-64zM128 384c-8.8 0-16 7.2-16 16v64c0 8.8 7.2 16 16 16h64c8.8 0 16-7.2 16-16v-64c0-8.8-7.2-16-16-16h-64zM128 544c-8.8 0-16 7.2-16 16v64c0 8.8 7.2 16 16 16h64c8.8 0 16-7.2 16-16v-64c0-8.8-7.2-16-16-16h-64zM128 704c-8.8 0-16 7.2-16 16v64c0 8.8 7.2 16 16 16h64c8.8 0 16-7.2 16-16v-64c0-8.8-7.2-16-16-16h-64zM832 224c-8.8 0-16 7.2-16 16v64c0 8.8 7.2 16 16 16h64c8.8 0 16-7.2 16-16v-64c0-8.8-7.2-16-16-16h-64zM832 384c-8.8 0-16 7.2-16 16v64c0 8.8 7.2 16 16 16h64c8.8 0 16-7.2 16-16v-64c0-8.8-7.2-16-16-16h-64zM832 544c-8.8 0-16 7.2-16 16v64c0 8.8 7.2 16 16 16h64c8.8 0 16-7.2 16-16v-64c0-8.8-7.2-16-16-16h-64zM832 704c-8.8 0-16 7.2-16 16v64c0 8.8 7.2 16 16 16h64c8.8 0 16-7.2 16-16v-64c0-8.8-7.2-16-16-16h-64z" /></svg>