<?xml version="1.0" standalone="no"?><!DOCTYPE svg PUBLIC "-//W3C//DTD SVG 1.1//EN" "http://www.w3.org/Graphics/SVG/1.1/DTD/svg11.dtd"><svg class="icon" width="200px" height="200.00px" viewBox="0 0 1024 1024" version="1.1" xmlns="http://www.w3.org/2000/svg"><path fill="#333333" d="M896 96H128C57.3 96 0 153.3 0 224v576c0 70.7 57.3 128 128 128h768c70.7 0 128-57.3 128-128V224c0-70.7-57.3-128-128-128zM208 784c0 8.8-7.2 16-16 16h-64c-8.8 0-16-7.2-16-16v-64c0-8.8 7.2-16 16-16h64c8.8 0 16 7.2 16 16v64z m0-160c0 8.8-7.2 16-16 16h-64c-8.8 0-16-7.2-16-16v-64c0-8.8 7.2-16 16-16h64c8.8 0 16 7.2 16 16v64z m0-160c0 8.8-7.2 16-16 16h-64c-8.8 0-16-7.2-16-16v-64c0-8.8 7.2-16 16-16h64c8.8 0 16 7.2 16 16v64z m0-160c0 8.8-7.2 16-16 16h-64c-8.8 0-16-7.2-16-16v-64c0-8.8 7.2-16 16-16h64c8.8 0 16 7.2 16 16v64z m704 480c0 8.8-7.2 16-16 16h-64c-8.8 0-16-7.2-16-16v-64c0-8.8 7.2-16 16-16h64c8.8 0 16 7.2 16 16v64z m0-160c0 8.8-7.2 16-16 16h-64c-8.8 0-16-7.2-16-16v-64c0-8.8 7.2-16 16-16h64c8.8 0 16 7.2 16 16v64z m0-160c0 8.8-7.2 16-16 16h-64c-8.8 0-16-7.2-16-16v-64c0-8.8 7.2-16 16-16h64c8.8 0 16 7.2 16 16v64z m0-160c0 8.8-7.2 16-16 16h-64c-8.8 0-16-7.2-16-16v-64c0-8.8 7.2-16 16-16h64c8.8 0 16 7.2 16 16v64z" /></svg>