<?xml version="1.0" standalone="no"?><!DOCTYPE svg PUBLIC "-//W3C//DTD SVG 1.1//EN" "http://www.w3.org/Graphics/SVG/1.1/DTD/svg11.dtd"><svg class="icon" width="200px" height="200.00px" viewBox="0 0 1024 1024" version="1.1" xmlns="http://www.w3.org/2000/svg"><path fill="#333333" d="M516.595965 0.02015C235.501496-2.479801 1.5061 228.015663 0.00613 509.21013c-0.199996 41.699179 4.499911 82.198383 13.69973 121.097617 4.299915 17.999646 19.899608 31.199386 38.399245 32.099368 3.199937 0.199996 6.399874 0.199996 9.699809 0.199996 39.399225-0.399992 77.298479-16.299679 105.097932-44.19913 28.299443-28.399441 43.999134-66.198697 43.999134-106.297908 0-119.897641 69.998623-223.395604 171.496625-271.89465 16.299679-7.799847 35.899294 0.299994 41.799178 17.399658v0.099998c5.0999 14.699711-1.799965 30.899392-15.999685 37.499262-6.799866 3.099939-13.19974 6.199878-16.599674 8.199838-18.199642 10.499793-34.899313 23.299542-49.899018 38.399245-22.199563 22.099565-39.499223 47.899057-51.698982 76.598493-12.499754 29.699416-18.899628 61.198796-18.899629 93.798154 0 104.69794-76.298499 191.496232-176.29653 207.995907-5.399894 0.899982-15.999685 1.49997-26.099487 1.899963-11.099782 0.399992-17.999646 12.19976-12.999744 22.099565 0.099998 0.099998 0.099998 0.199996 0.199996 0.399992 2.699947 5.299896 8.299837 8.599831 14.199721 8.299837 29.099427-1.199976 57.298872-7.399854 83.898349-18.699633 16.599673-6.999862 32.299364-15.799689 46.799079-26.299482 4.799906-3.399933 12.799748-10.499793 20.499596-17.499656 11.599772-10.699789 29.399421-10.699789 41.099192-0.099998 13.299738 12.099762 13.299738 33.099349 0 45.199111-39.299227 35.599299-88.098266 60.9988-142.097204 71.898585-10.899786 2.199957-15.599693 15.199701-8.599831 23.89953l0.199996 0.299994c3.499931 4.299915 9.099821 6.399874 14.499715 5.299896 21.499577-4.299915 42.499164-10.799787 62.898762-19.399619 39.399225-16.699671 74.898526-40.599201 105.297928-70.998603 30.4994-30.4994 54.39893-65.898703 70.998603-105.297928 17.29966-40.799197 25.999488-84.198343 25.999488-128.897463 0-66.898684 54.598926-121.097617 121.697606-120.497629 66.298695 0.699986 119.397651 55.498908 119.297652 121.797603-0.199996 75.498514-14.999705 147.497098-41.699179 213.495799-6.899864 16.999665-27.299463 23.999528-43.099152 14.899707-9.599811-5.59989-15.099703-15.699691-15.099703-26.199484 0-3.799925 0.699986-7.699848 2.299955-11.499774 3.099939-7.499852 5.999882-14.799709 7.299856-18.499636 19.899608-55.098916 29.99941-112.897778 30.099408-172.29661 0.099998-33.099349-26.799473-61.198796-59.798824-61.398792-33.399343-0.199996-60.598808 26.899471-60.598807 60.198816 0 170.596643-109.097853 315.693788-261.19486 369.292733-10.899786 3.799925-13.399736 18.199642-4.399914 25.499498l0.299994 0.199996c3.999921 3.299935 9.499813 4.299915 14.499715 2.599949 7.899845-2.799945 15.699691-5.799886 23.499538-9.099821 50.199012-21.199583 95.298125-51.598985 133.997363-90.398221 38.799237-38.699238 69.198638-83.798351 90.398221-133.997363 21.999567-51.898979 33.099349-107.097893 33.099349-164.096771 0-16.899667 13.799728-30.4994 30.799394-30.099408 16.499675 0.399992 29.49942 14.299719 29.499419 30.799394-0.199996 169.196671-87.698274 317.993743-219.795675 403.792054-28.799433 18.699632-24.199524 62.198776 7.899845 74.398536C386.698521 1012.30023 447.997315 1024 511.996055 1024c282.794435 0 511.989925-229.19549 511.989925-511.989925C1023.98598 230.815608 797.290441 2.5201 516.595965 0.02015zM183.102527 159.817005C258.201049 89.718385 355.699131 43.319298 463.697006 32.51951c0.99998-0.099998 1.999961-0.199996 3.099939-0.199996 16.499675 0 30.199406 13.299738 30.199405 30.099408 0 15.599693-11.799768 28.499439-27.299462 29.999409-41.999174 4.199917-82.798371 14.499715-121.697606 30.99939-38.899235 16.499675-74.798528 38.399244-106.997894 65.498712-3.599929 2.999941-9.899805 8.899825-16.399678 14.999704-11.899766 11.19978-30.599398 10.999784-42.199169-0.599988-12.19976-11.999764-11.799768-31.799374 0.699986-43.499144z m124.397552 91.598198c-10.399795 8.199839-20.299601 16.999665-29.799413 26.499478-30.4994 30.4994-54.298932 65.898703-70.998603 105.297928-13.599732 32.299364-21.999567 66.098699-24.89951 100.998013-1.299974 15.699691-14.299719 27.799453-29.99941 27.799453-16.799669 0-30.099408-13.599732-30.099408-30.099408 0-0.799984 0-1.699967 0.099998-2.499951 9.299817-111.597804 65.298715-209.89587 148.39708-275.194585 14.399717-11.399776 35.599299-7.299856 44.799119 8.599831 7.499852 12.899746 4.299915 29.399421-7.499853 38.599241z m75.598513-44.699121c-1.49997 0.599988-2.899943 1.199976-4.399914 1.899963-14.099723 6.199878-30.699396 0.899982-38.399244-12.399756-8.899825-15.499695-2.599949-35.299305 13.799728-42.499164 48.29905-21.299581 101.697999-33.099349 157.896893-33.099348 78.598453 0 151.697015 23.099545 212.995809 62.99876 15.099703 9.799807 18.29964 30.599398 6.799866 44.499124-5.899884 7.09986-14.499715 10.899786-23.199543 10.899786-5.699888 0-11.399776-1.599969-16.499676-4.899904a330.653493 330.653493 0 0 0-51.29899-27.199465c-40.799197-17.29966-84.198343-25.999488-128.897464-25.999488s-87.998268 8.599831-128.797465 25.799492z m235.395368 198.796088c-29.899412-29.899412-70.198619-45.699101-112.797781-43.999134-35.499301 1.399972-69.498632 15.499695-95.598119 39.599221-31.299384 28.899431-48.699042 68.498652-48.699041 110.897818 0 52.198973-13.299738 101.198009-36.59928 143.997166-9.299817 17.099664-32.099368 20.999587-46.499085 7.899845l-0.199996-0.199996c-10.299797-9.399815-12.69975-24.499518-6.09988-36.699278 3.799925-6.899864 7.199858-13.999725 10.299797-21.299581 12.499754-29.699416 18.899628-61.198796 18.899628-93.798154 0-116.39771 94.398142-210.795852 210.795852-210.795852 89.698235 0 166.296728 55.998898 196.69613 134.897345 7.09986 18.399638-4.999902 38.499242-24.499518 40.799197-1.199976 0.099998-2.399953 0.199996-3.499931 0.199997-12.299758 0-23.599536-7.59985-28.099447-19.299621-7.499852-19.29962-18.999626-37.09927-34.099329-52.198973zM385.19855 983.100805c-14.099723 9.699809-33.399343 5.799886-42.599161-8.599831-3.199937-4.999902-4.799906-10.699789-4.799906-16.199681 0-9.699809 4.699908-19.199622 13.299738-24.999508 4.699908-3.199937 8.599831-5.899884 10.299798-7.099861 21.599575-15.699691 41.999174-33.199347 60.898801-51.998976 23.199543-23.199543 44.19913-48.699042 62.49877-75.798509 3.999921-5.799886 7.799847-11.799768 11.499774-17.79965 8.499833-13.799728 26.499479-18.29964 40.599201-10.199799 14.799709 8.499833 19.499616 27.499459 10.499794 41.999174-41.599181 67.398674-96.998091 125.597529-162.196809 170.696641z m137.597293 3.299935c-11.799768 11.499774-30.699396 11.399776-42.399166-0.199996-5.899884-5.899884-8.799827-13.599732-8.799827-21.299581 0-7.899845 3.099939-15.699691 9.199819-21.699573 1.799965-1.799965 3.599929-3.499931 5.399894-5.299896 27.299463-27.299463 51.998977-57.298872 73.598552-89.198245 21.799571-32.199366 40.399205-66.598689 55.498908-102.297987 27.499459-64.998721 43.099152-133.597371 46.599083-204.295979 0.099998-1.899963 0.199996-4.099919 0.299994-6.599871 0.399992-14.799709 11.69977-27.099467 26.39948-28.799433 1.199976-0.099998 2.399953-0.199996 3.499931-0.199996 16.599673 0 30.399402 13.799728 29.799414 30.899392-0.399992 12.899746-0.99998 26.399481-1.799965 34.899313-14.599713 161.796816-87.39828 306.893961-197.296117 414.091852z m258.994903-258.494914c-22.099565 73.998544-55.298912 143.29718-97.698077 205.795951-8.699829 12.899746-26.599477 15.699691-38.899235 6.199878l-4.699907-3.599929c-11.399776-8.799827-13.999725-24.89951-5.999882-36.799276l0.099998-0.199996c24.999508-36.999272 46.499085-76.598493 63.898742-117.697684 9.799807-23.299542 18.399638-46.999075 25.599497-70.998603 4.499911-14.999705 19.79961-24.099526 35.199307-20.699593 14.199721 3.099939 23.699534 15.599693 23.699534 29.399422 0 2.799945-0.399992 5.699888-1.199977 8.59983z m-14.599712-67.098679l-0.499991-0.099998c-15.599693-3.399933-25.699494-18.399638-23.099545-34.199327 6.199878-37.499262 9.399815-75.798508 9.399815-114.497747 0-32.599359-6.399874-64.098739-18.899628-93.798154-12.099762-28.699435-29.49942-54.498928-51.698983-76.598493-22.099565-22.199563-47.899057-39.499223-76.598493-51.698983-29.699416-12.499754-61.198796-18.899628-93.798154-18.899628-8.799827 0-17.499656 0.49999-25.999488 1.399972-13.999725 1.49997-27.199465-6.799866-31.799374-20.099604-1.099978-3.299935-1.699967-6.59987-1.699967-9.899805 0-14.899707 11.19978-28.299443 27.099467-29.99941 10.999784-1.199976 22.299561-1.799965 33.599339-1.699966 165.496743 0.599988 300.594085 138.597273 299.994096 304.094016-0.199996 41.399185-3.699927 81.998386-10.299797 121.697605-2.799945 16.899667-19.099624 27.899451-35.699297 24.299522z m86.298301 137.997284c-5.699888 15.899687-23.499538 23.89953-39.199228 17.79965-11.899766-4.599909-19.29962-15.999685-19.29962-28.099447 0-3.399933 0.599988-6.799866 1.799964-10.199799 12.799748-35.399303 22.999547-71.698589 30.599398-108.497865 10.499793-51.598985 15.899687-104.69794 15.899687-157.896893 0-44.799118-8.799827-88.098266-25.999488-128.897464-12.499754-29.49942-28.999429-56.798882-49.29903-81.398398-2.499951-2.999941-7.299856-8.299837-12.399756-13.699731-10.399795-11.099782-10.999784-28.299443-1.199977-39.999212 5.999882-7.299856 14.699711-10.999784 23.39954-10.999784 8.099841 0 16.199681 3.199937 22.099565 9.699809 64.298735 69.798627 103.697959 162.996793 103.69796 265.394778-0.099998 100.698018-17.699652 197.296118-50.099015 286.794356z m46.299089-515.989846c-13.599732 7.799847-30.899392 3.999921-39.799217-8.999823a424.781641 424.781641 0 0 0-49.899018-59.998819c-38.699238-38.699238-83.798351-69.09864-134.097361-90.398222-38.899235-16.499675-79.698432-26.899471-121.697605-30.99939-15.499695-1.49997-27.299463-14.399717-27.299463-29.999409 0-17.79965 15.399697-31.699376 33.199347-29.99941 144.997147 14.399717 271.094665 93.098168 349.393124 207.195923 3.599929 5.199898 5.299896 11.099782 5.299896 16.999665 0 10.399795-5.399894 20.599595-15.099703 26.199485z" /></svg>