<?xml version="1.0" standalone="no"?><!DOCTYPE svg PUBLIC "-//W3C//DTD SVG 1.1//EN" "http://www.w3.org/Graphics/SVG/1.1/DTD/svg11.dtd"><svg class="icon" width="200px" height="200.00px" viewBox="0 0 1024 1024" version="1.1" xmlns="http://www.w3.org/2000/svg"><path fill="#333333" d="M162.101693 183.888891c12.285895 12.285895 32.163076 12.585551 44.748627 0.599311 6.892088-6.492546 13.68429-12.785322 17.479933-15.981652 34.160782-28.766975 72.217093-52.040256 113.469733-69.520189 41.352526-17.479933 84.602874-28.467319 129.151731-32.962159 16.381194-1.598165 28.966745-15.282455 28.966745-31.86342 0-18.978212-16.381194-33.661356-35.259521-31.763534C346.090469 13.983946 242.609268 63.227413 162.900775 137.641983c-13.284749 12.485666-13.68429 33.3617-0.799082 46.246908zM527.981653 34.360553c0 16.481079 12.585551 30.165369 28.966745 31.86342 44.548857 4.394954 87.799204 15.482226 129.15173 32.962159 53.23888 22.574084 101.183838 54.837046 142.236709 95.889915 19.67741 19.67741 37.357113 40.952985 52.939224 63.626955 9.389221 13.68429 27.868007 17.879474 42.251494 9.489106 16.081538-9.289336 20.876034-30.36514 10.388074-45.747481C850.910921 101.283724 717.06458 17.779589 563.141288 2.497133 544.362847 0.699197 527.981653 15.382341 527.981653 34.360553zM329.80916 176.19772c-9.489106-16.381194-2.696904-37.456998 14.583258-45.148168C395.733477 108.475467 452.368459 95.889916 512 95.889916c83.40425 0 161.01515 24.571791 226.040499 66.823285 16.081538 10.388074 19.377754 32.462732 7.191744 47.24576-10.388074 12.485666-28.467319 15.18257-42.051723 6.292776-17.180277-11.187157-35.359406-20.776148-54.437505-28.86686-43.250347-18.279015-89.297484-27.568351-136.8429-27.568351s-93.492668 9.289336-136.842901 27.568351c-1.49828 0.699197-3.096445 1.298509-4.594725 1.997707-14.882914 6.592432-32.462732 0.998853-40.653329-13.184864zM927.522968 511.412884c0 106.877302-18.778442 209.359649-53.138995 304.350597-6.093005 16.880621-24.871447 25.370874-41.552297 18.878327-16.181423-6.292776-24.471906-24.272135-18.578671-40.553443 13.584405-37.556884 24.471906-76.112621 32.462732-115.167784C857.902894 624.18342 863.596358 567.848095 863.596358 511.412884c0-47.445531-9.289336-93.492668-27.568351-136.842901-13.284749-31.363993-30.764681-60.230853-52.339912-86.400809-2.696904-3.196331-7.791056-8.789909-13.184864-14.583258-11.087272-11.786469-11.686583-30.065484-1.298509-42.451265 12.385781-14.882914 35.159636-15.681997 48.244614-1.398395C885.770901 303.851171 927.522968 402.737646 927.522968 511.412884zM418.806988 241.822381c5.293922 15.382341-1.897821 32.262961-16.68085 39.055164-5.99312 2.796789-11.386927 5.393808-14.083831 6.792202-20.776148 11.486813-39.854246 25.8703-56.834752 42.950692-23.473052 23.473052-41.951838 50.841632-54.837046 81.306657-13.284749 31.463879-20.076951 64.925464-20.076951 99.485788 0 92.793471-56.535096 172.402078-136.942786 206.263204-18.578671 7.791056-39.754361-3.196331-43.649889-22.973625-2.99656-14.882914 4.794496-29.965599 18.778442-35.858834 32.562617-13.68429 60.430624-38.156196 79.308951-71.817551 12.685437-22.67397 18.778442-48.444385 18.678557-74.41457-0.499427-127.953106 74.214799-238.42628 182.39061-289.96711 17.080391-8.190597 37.556884 0.299656 43.749774 18.17913 0 0.399541 0.099885 0.699197 0.199771 0.998853zM798.271353 740.549829c-23.473052 78.509869-58.732573 152.025471-103.680972 218.449214-9.289336 13.68429-28.167663 16.580965-41.252641 6.592432l-4.994266-3.795643c-12.086125-9.289336-14.882914-26.469612-6.292776-39.055164l0.199771-0.19977c26.569497-39.254934 49.343352-81.306658 67.722253-124.856661 10.48796-24.671676 19.477639-49.842779 27.168809-75.313538 4.794496-15.981653 21.075804-25.570644 37.357113-21.974773 18.17913 3.695757 29.066631 22.374314 23.772709 40.153903zM831.633053 514.609215c-0.199771 43.949545-3.895528 87.100007-10.887501 129.15173-2.99656 17.779589-20.276722 29.466172-37.956425 25.670529l-0.599312-0.099885c-16.580965-3.595872-27.268695-19.577524-24.471906-36.258374 6.592432-39.854246 9.988533-80.40769 9.988533-121.46056 0-34.560324-6.792202-68.021909-20.076951-99.485788-12.885207-30.664796-31.363993-58.033376-54.837046-81.506428-23.473052-23.473052-50.841632-41.951838-81.306657-54.837046-31.463879-13.284749-64.925464-20.076951-99.485788-20.076951-9.289336 0-18.478786 0.499427-27.668236 1.49828-14.882914 1.598165-28.86686-7.191744-33.761241-21.275575-6.792202-19.477639 6.492546-40.054017 26.969039-42.251494 11.686583-1.298509 23.672823-1.897821 35.659062-1.797936 175.698294 0.599312 319.133626 147.031204 318.434429 322.729498zM247.203993 700.595697c14.483373 13.184863 14.383487 34.560324-0.199771 47.745187-34.760094 31.463879-76.412277 55.436358-122.559298 69.220533-17.779589 5.293922-36.258374-5.693464-40.153902-23.872593l-0.099886-0.299656c-3.495987-16.181423 5.99312-32.362847 21.775002-37.057457 8.789909-2.597019 17.479933-5.793349 25.970185-9.389221 21.775002-9.18945 41.951838-21.275575 60.330739-35.958719 2.397248-1.897821 6.592432-5.793349 11.287042-10.088418 12.385781-11.386927 31.264108-11.486813 43.649889-0.299656zM505.307683 351.696243c-37.656769 1.49828-73.815258 16.481079-101.483494 42.051724C370.562374 424.412763 352.183474 466.464486 352.183474 511.412884c0 55.336472-14.083831 107.476614-38.855393 152.824553-9.888648 18.17913-34.060897 22.274428-49.343353 8.390368l-0.19977-0.199771c-10.887501-9.888648-13.484519-25.970186-6.392661-38.955278 3.995413-7.291629 7.591285-14.882914 10.8875-22.574084 13.284749-31.463879 20.076951-64.925464 20.076952-99.485788 0-123.558152 100.184985-223.743137 223.743136-223.743137 95.190718 0 176.497376 59.431771 208.760338 143.135677 7.4914 19.477639-5.293922 40.8531-26.070071 43.350232-14.483373 1.698051-28.267548-6.692317-33.561471-20.276721-7.890941-20.576378-20.176836-39.454705-36.158489-55.436358-31.763535-31.763535-74.614341-48.54427-119.762509-46.746334zM734.744283 538.282038c-0.399541 13.68429-1.098739 27.967892-1.897821 37.057457-15.482226 171.802766-92.793471 325.825943-209.459535 439.595332-12.585551 12.18601-32.562617 12.086125-44.948398-0.299656-12.585551-12.585551-12.385781-33.062044 0.399542-45.54771l5.693464-5.693464c28.966745-28.966745 55.236587-60.830165 78.110327-94.691291 23.073511-34.160782 42.950691-70.718813 58.932344-108.575353 29.166516-69.020762 45.747481-141.837167 49.443238-216.851049 0.099885-1.997707 0.199771-4.394954 0.299656-6.991973 0.499427-15.681997 12.385781-28.766975 28.067777-30.564911 1.298509-0.199771 2.497133-0.199771 3.795643-0.19977 17.579818 0 32.163076 14.683143 31.563763 32.762388zM549.656769 830.047083c-44.249201 71.717666-103.081659 133.546685-172.302192 181.291872-14.882914 10.288189-35.459292 6.19289-45.148169-9.089565-9.389221-14.683143-5.393808-34.060897 9.089565-43.849659 4.994266-3.396101 9.089565-6.19289 10.987386-7.591285 22.87374-16.68085 44.548857-35.259521 64.625808-55.236587 24.571791-24.571791 46.946105-51.640715 66.423744-80.507575 4.195184-6.19289 8.290482-12.485666 12.18601-18.878327 9.089565-14.683143 28.167663-19.477639 43.150462-10.787616 15.482226 9.089565 20.476492 29.266401 10.987386 44.648742zM639.853221 512.811279c-0.199771 80.108034-15.881767 156.52031-44.249201 226.539926-7.291629 18.079245-28.86686 25.470759-45.74748 15.781882-13.884061-7.990826-19.67741-24.971332-13.68429-39.854247 3.296216-8.190597 6.492546-16.081538 7.791055-19.777295 21.075804-58.432917 31.763535-119.762509 31.963306-182.790152 0.099885-35.159636-28.467319-65.025349-63.52707-65.225119-35.459292-0.199771-64.326152 28.567204-64.326152 63.92661 0 186.485909-122.858955 344.304729-291.964816 396.844412-17.280162 5.393808-35.559177-4.794496-40.153902-22.274429l-0.099885-0.299656c-4.295069-16.481079 5.094152-33.461585 21.37546-38.455851 10.887501-3.396101 21.675116-7.291629 32.262961-11.786469 41.851953-17.679703 79.508722-43.050577 111.771683-75.413423 32.262961-32.262961 57.633835-69.91973 75.413424-111.771683 18.279015-43.250347 27.568351-89.297484 27.56835-136.842901 0-71.018469 57.933491-128.552418 129.051845-127.853221 69.620074 0.699197 126.754482 59.631541 126.554712 129.251616zM543.963305 512.112081c-0.299656 243.820088-171.303339 447.686044-399.940857 498.527677-17.679703 3.895528-35.05975-7.69117-38.156195-25.570644v-0.299656c-2.896675-16.780735 7.791056-32.862273 24.471905-36.558031 26.070071-5.793349 51.640715-13.983946 76.512162-24.471905 53.23888-22.574084 101.183838-54.837046 142.236709-95.889916 41.152756-41.152756 73.415717-88.997828 95.889915-142.236708C468.250226 630.476196 480.036695 571.843508 480.036695 511.412884c0-17.879474 14.683143-32.362847 32.662502-31.963305 17.479933 0.399541 31.264108 15.18257 31.264108 32.662502zM302.940007 193.777538c7.990826 13.784175 4.594725 31.264108-7.990827 41.05287-10.987386 8.690024-21.575231 18.079245-31.663649 28.067778-32.262961 32.362847-57.633835 69.91973-75.413423 111.771683-14.483373 34.260668-23.273282 70.219386-26.369727 107.176958-1.398395 16.580965-15.18257 29.466172-31.86342 29.466172-18.678557 0-33.3617-15.981653-31.86342-34.660209 9.788762-118.364115 69.320418-222.744283 157.519164-292.064702 15.482226-11.986239 37.956425-7.69117 47.645302 9.18945z" /></svg>