<?xml version="1.0" standalone="no"?><!DOCTYPE svg PUBLIC "-//W3C//DTD SVG 1.1//EN" "http://www.w3.org/Graphics/SVG/1.1/DTD/svg11.dtd"><svg class="icon" width="200px" height="200.00px" viewBox="0 0 1024 1024" version="1.1" xmlns="http://www.w3.org/2000/svg"><path fill="#333333" d="M1021.6 248.6l-25.5-67.4-9.9-26.2c-0.8-2.1 0.3-4.4 2.3-5.2l3.8-1.4c4.1-1.6 6.2-6.2 4.7-10.3l-28.3-74.8c-1.6-4.1-6.2-6.2-10.3-4.7l-3.8 1.4c-2.1 0.8-4.4-0.3-5.1-2.3l-4.3-11.2c-3.1-8.3-12.4-12.4-20.6-9.3L17.4 380c-8.3 3.1-12.4 12.4-9.3 20.6l42 111.2c4.6 12.1 16.2 19.8 29.1 19.7h0.2c23.4 0 45.4 14.3 54.2 37.4l1.5 1.7c5.9 6.8 13.1 12.1 20.9 16.7 2.4 1.4 4 4 4 7V984c0 4.4 3.6 8 8 8h264c17.7 0 32-14.3 32-32V713.8c0-17.4 5.4-33.9 14.8-47.6 9.5-13.7 23-24.6 39.3-30.7L691 570.3c53.2-20.1 80.1-79.5 60-132.8l-25.8-68.3L1017 258.9c4.1-1.5 6.2-6.1 4.6-10.3zM662.2 512l-112.4 40.6c-41.7 15-85.7-15.9-85.7-60.2v-9.9-0.2c0.1-9.2 12-12.9 17.5-5.6C504.8 507.8 542.1 528 584 528h0.2c7.6 0 11.1-9.5 5.4-14.6-18.1-16.1-33-35.8-43.6-57.9-4.1-8.5 0-18.6 8.8-21.9l84.2-31.8c14.5-5.5 30.7 1.8 36.2 16.3l13.6 36.1c8.8 23.3-3.2 49.3-26.6 57.8z" /></svg>