<?xml version="1.0" standalone="no"?><!DOCTYPE svg PUBLIC "-//W3C//DTD SVG 1.1//EN" "http://www.w3.org/Graphics/SVG/1.1/DTD/svg11.dtd"><svg class="icon" width="200px" height="200.00px" viewBox="0 0 1024 1024" version="1.1" xmlns="http://www.w3.org/2000/svg"><path fill="#333333" d="M526.9 112H544c98.4 0 195.9 21 274.6 59.2 35.9 17.4 66.1 37.5 89.7 59.6 21.1 19.7 36 40.6 43.2 60.4 5 13.7 8.1 36 8.3 59.7 0.2 20.4-1.8 35.5-3.4 42.9-0.6 0.1-1.6 0.2-2.8 0.2-0.9 0-1.8-0.1-2.8-0.2l-2.3-0.3-2.3-0.1c-47-2.8-94.1-5.5-141.1-8.3-6.1-0.4-12.3-0.7-18.4-1.1l-4-0.2c-3.2-0.8-6.3-1.9-9.1-3.4-2.8-1.4-5.1-3-8.3-9.1-4.6-9-8.3-22.9-12.3-37.6-9.4-35.4-22.3-83.8-64.5-121.8-51.1-46.1-114.3-52-163.7-52-3.9 0-7.8 0-12.7 0.1-4.9-0.1-8.8-0.1-12.7-0.1-49.4 0-112.6 5.9-163.7 52-42.1 38-55 86.5-64.5 121.8-3.9 14.7-7.6 28.6-12.3 37.6-3.2 6.2-5.5 7.7-8.3 9.1-2.8 1.4-5.9 2.6-9.1 3.4l-4 0.2c-6.1 0.4-12.3 0.7-18.4 1.1-47 2.8-94.1 5.5-141.1 8.3l-2.3 0.1-2.3 0.3c-0.9 0.1-1.9 0.2-2.8 0.2-1.2 0-2.2-0.1-2.8-0.2-1.6-7.5-3.6-22.6-3.4-42.9 0.2-23.6 3.3-45.9 8.3-59.7 7.2-19.8 22.2-40.7 43.2-60.4 23.6-22.1 53.8-42.1 89.7-59.6C284.1 133 381.6 112 480 112H526.9m0-64H480C253.1 48 56.1 149.3 12.4 269.3c-18.5 50.8-13.7 137.9 0 158.3 8.4 12.5 19.8 19.8 19.8 19.8 0.8 0.5 1.7 1.1 2.5 1.5 12.8 7.4 26 9.1 35.8 9.1 4.6 0 8.4-0.4 11.2-0.7 47-2.8 94.1-5.5 141.1-8.3 9-0.5 18-1.1 27.1-1.6 6.2-1.1 17.3-3.6 29.7-9.9 66-33.5 39.4-124.4 98.9-178.1 36-32.4 85-35.5 120.8-35.5 4.5 0 8.7 0 12.7 0.1 4-0.1 8.3-0.1 12.7-0.1 35.8 0 84.9 3.1 120.8 35.5 59.6 53.7 33 144.6 98.9 178.1 12.4 6.3 23.5 8.8 29.7 9.9 9 0.5 18 1 27.1 1.6 47 2.8 94.1 5.5 141.1 8.3 2.7 0.4 6.6 0.7 11.2 0.7 9.8 0 23-1.7 35.8-9.1 0.8-0.5 1.7-1 2.5-1.5 0 0 11.4-7.3 19.8-19.8 13.7-20.4 18.5-107.5 0-158.3C967.9 149.3 771 48 544 48h-17.1zM512 448c29.9 0 59.6 5.3 88.5 15.7 25.3 9.1 50.7 22.4 75.6 39.5 47.4 32.6 84.2 73.1 108.5 99.9 48 52.8 84.8 114.9 109.4 184.5 15.1 42.9 25.4 87.8 30.5 133.5-1.1 12.1-10 21.7-13.9 25.4-9.9 9.3-21.6 13.5-28.7 13.5H142.2c-8.4 0-19.3-5.2-27.6-13.1-8.1-7.7-13-17-13.7-26 4.8-45.6 14.8-90.4 29.8-133.3C155 717.9 191.6 655.8 239.4 603c24.1-26.6 60.6-66.9 108-99.6 24.9-17.2 50.4-30.5 75.8-39.7 29-10.4 58.8-15.7 88.8-15.7m0-64c-160.5 0-268.5 119.2-320 176C67.9 697 43.2 854.3 36.8 918.5v0.1c0 58.2 54.3 105.4 105.4 105.4h739.7c51 0 106.7-47.2 106.7-105.4-6.7-64.8-32.3-221.9-156.6-358.6-52.2-57.4-159.9-176-320-176zM512 640c52.9 0 96 43.1 96 96s-43.1 96-96 96h-3c-51.5-1.6-93-44-93-96 0-52.9 43.1-96 96-96m0-64c-88.4 0-160 71.7-160 160s71.6 160 160 160 160-71.7 160-160-71.6-160-160-160z" /></svg>