<?xml version="1.0" standalone="no"?><!DOCTYPE svg PUBLIC "-//W3C//DTD SVG 1.1//EN" "http://www.w3.org/Graphics/SVG/1.1/DTD/svg11.dtd"><svg class="icon" width="200px" height="200.00px" viewBox="0 0 1024 1024" version="1.1" xmlns="http://www.w3.org/2000/svg"><path fill="#333333" d="M1011.7 427.7c-8.4 12.5-19.8 19.8-19.8 19.8-0.8 0.5-1.7 1.1-2.5 1.5-12.8 7.4-26 9.1-35.8 9.1-4.6 0-8.5-0.4-11.2-0.7-47-2.8-94.1-5.5-141.1-8.3-9-0.5-18-1.1-27.1-1.6-6.2-1.1-17.3-3.6-29.7-9.9-66-33.5-39.4-124.4-98.9-178.1-36-32.5-85-35.5-120.8-35.5-4.5 0-8.7 0-12.7 0.1-4 0-8.3-0.1-12.7-0.1-35.8 0-84.9 3.1-120.8 35.5-59.6 53.7-33 144.6-98.9 178.1-12.4 6.3-23.5 8.8-29.7 9.9-9 0.5-18 1.1-27.1 1.6-47 2.8-94.1 5.5-141.1 8.3-2.7 0.4-6.6 0.7-11.2 0.7-9.8 0-23-1.7-35.8-9.1-0.8-0.5-1.7-1-2.5-1.5 0 0-11.4-7.3-19.8-19.8-13.7-20.4-18.5-107.5 0-158.3C56.1 149.3 253 48 480 48h64c227 0 423.9 101.3 467.7 221.3 18.4 50.8 13.7 138 0 158.4zM954.4 766.3C931.6 701.8 894.1 628.4 832 560c-52.2-57.4-159.9-176-320-176-160.5 0-268.5 119.2-320 176C67.9 697 43.2 854.3 36.8 918.5v0.1c0 58.2 54.3 105.4 105.4 105.4h739.7c51 0 106.7-47.2 106.7-105.4-3.4-32.4-11.4-87.9-34.2-152.3zM512 896c-88.4 0-160-71.6-160-160s71.6-160 160-160 160 71.7 160 160-71.6 160-160 160zM608 736c0 52.9-43.1 96-96 96h-3c-51.5-1.6-93-44-93-96 0-52.9 43.1-96 96-96s96 43.1 96 96z" /></svg>