<?xml version="1.0" standalone="no"?><!DOCTYPE svg PUBLIC "-//W3C//DTD SVG 1.1//EN" "http://www.w3.org/Graphics/SVG/1.1/DTD/svg11.dtd"><svg class="icon" width="200px" height="200.00px" viewBox="0 0 1024 1024" version="1.1" xmlns="http://www.w3.org/2000/svg"><path fill="#333333" d="M1017.302616 364.657556c-7.597032 13.994533-21.691527 25.490043-47.381491 25.490043-2.499024 0-5.098009-0.099961-7.796955-0.299883h-65.07458c-9.39633 0-18.292854 4.098399-24.390472 11.295587L678.335025 629.654041c-17.992971 21.091761-28.588832 47.481453-30.288168 75.170637l-6.697384 111.25654c-0.99961 15.593909-6.997267 30.588052-17.693089 41.9836-7.397111 7.896915-17.293245 14.594299-30.288168 15.793831-1.299492 0.099961-2.598985 0.199922-3.798517 0.199922-11.49551 0-22.491214-4.798126-30.688012-12.994924l-0.199922-0.199922-147.542366-149.541585L7.597032 1021.700898l-2.998828 2.299102 2.299102-2.998829 310.378758-403.542366-149.441624-147.542366-0.199922-0.199922c-9.096447-9.096447-13.994533-21.691527-12.795002-34.486529 1.199531-12.894963 7.996876-22.891058 15.79383-30.288168 11.395549-10.695822 26.389692-16.79344 41.983601-17.693089l111.25654-6.697384c27.689184-1.699336 54.078875-12.295197 75.170636-30.288169L627.4549 155.939086c7.197189-6.097618 11.295588-14.994143 11.295588-24.390472V66.474034c-2.499024-30.688012 9.796173-46.781726 25.19016-55.178446 8.296759-4.498243 17.393206-6.697384 26.389692-6.697384 14.794221 0 29.488481 5.897696 40.384225 16.79344l0.099961 0.099961 137.246388 138.245997 0.699726 0.699727 138.245998 137.346349 0.099961 0.099961c17.693089 17.693089 22.191332 44.882468 10.196017 66.773917z" /></svg>