<?xml version="1.0" standalone="no"?><!DOCTYPE svg PUBLIC "-//W3C//DTD SVG 1.1//EN" "http://www.w3.org/Graphics/SVG/1.1/DTD/svg11.dtd"><svg class="icon" width="200px" height="200.00px" viewBox="0 0 1024 1024" version="1.1" xmlns="http://www.w3.org/2000/svg"><path fill="#333333" d="M1024.091009 47.590705v0.199961l-2.299551 520.198399-1.499707 5.798867c-2.19957 8.198399-10.397969 29.294278-38.592462 45.291154-22.995509 12.997461-54.289397 19.596173-92.98184 19.596173h-4.899043c-48.890451-0.699863-111.078305-11.597735-184.963874-32.293693-44.691271-12.497559-84.783441-17.696544-120.57645-17.696544-87.382933 0-148.970904 30.793986-188.36321 60.888108-27.094708 20.695958-36.492872 57.288811-22.595587 88.382738l98.380785 220.856864c10.397969 23.19547-0.199961 50.79008-23.495411 61.188049-6.098809 2.699473-12.397579 3.999219-18.696349 3.999219-17.796524 0-34.893185-10.297989-42.4917-27.49463L3.990247 149.770748c-4.19918-9.398164-4.999024-19.596173-2.799453-29.094318 0.599883-3.699277 1.499707-7.398555 2.899434-10.997852C9.289213 96.081234 19.987123 84.783441 33.284526 78.884593 72.076949 61.487991 134.264803 37.092755 210.849845 20.096075 268.738539 7.198594 324.327682 0.699863 377.317332 0.699863c51.389963 0 100.380394 6.098809 146.471392 18.196446C636.166776 48.390549 716.251134 59.988284 776.439379 59.988284c86.083187 0 131.874243-23.595392 174.265963-51.989846l1.99961-1.299746c7.398555-4.499121 15.796915-6.698692 24.095294-6.698692 7.998438 0 15.996876 1.999609 23.195469 6.098809 14.89709 8.49834 24.195274 24.395235 24.095294 41.491896z" /></svg>