<?xml version="1.0" standalone="no"?><!DOCTYPE svg PUBLIC "-//W3C//DTD SVG 1.1//EN" "http://www.w3.org/Graphics/SVG/1.1/DTD/svg11.dtd"><svg class="icon" width="200px" height="200.00px" viewBox="0 0 1024 1024" version="1.1" xmlns="http://www.w3.org/2000/svg"><path fill="#333333" d="M915.823948 833.230409L705.567678 460.78501C672.989948 403.224358 655.90163 338.268762 655.90163 272.113985V127.91256C655.90163 57.260857 598.640773 0 527.98907 0h-47.96721c-70.651703 0-127.91256 57.260857-127.91256 127.91256v147.998829c0 63.656485-15.889138 126.413584-46.168439 182.375329L166.536157 716.410266l-4.297063 7.994535-59.959012 110.924173c-46.068508 85.241729 15.689275 188.671026 112.52308 188.671026h589.596955c98.032985 0 159.590905-105.527862 111.423831-190.769591zM362.302332 488.765883c35.175954-65.15546 53.763248-138.705182 53.763248-212.754563V127.91256c0-35.275886 28.680394-63.95628 63.95628-63.95628h47.96721c35.275886 0 63.95628 28.680394 63.95628 63.95628v144.201425c0 77.047331 19.986337 153.195277 57.860447 220.149507l84.941934 150.297257c1.898702 3.397677-1.698839 7.295013-5.296379 5.496243-3.097882-1.598907-6.195765-2.997951-9.293647-4.396994-39.972675-18.287499-79.245828-24.982922-116.620279-19.786474-41.571582 5.796038-69.252659 24.483263-96.034352 42.470967-20.186201 13.590709-41.071923 27.681077-71.05143 39.273153-52.064409 20.186201-110.624378 24.683127-174.980384 13.59071-10.692691-1.898702-16.388797-13.790573-11.292281-23.384015l112.123353-207.058456zM859.762272 928.365375c-5.596174 9.49351-22.084903 31.678345-55.262223 31.678345h-589.596955c-32.777593 0-49.366254-21.785108-54.962428-31.178686-5.596174-9.393579-16.888455-34.276569-1.299112-63.156827l19.186884-35.475749c17.388114-32.277935 52.963794-50.36557 89.338928-45.269054 69.552454 9.593442 134.008393 3.097882 192.568362-19.586611 36.674929-14.1903 61.657851-31.078755 83.642822-45.868644 24.483263-16.488728 42.171172-28.480531 69.052796-32.178004 60.558603-8.394262 131.809896 31.278618 211.955109 117.919391 3.197814 3.497609 7.69474 9.693374 10.0931 13.790573l25.782375 45.668781c16.188933 28.780326 4.996584 54.162975-0.499658 63.656485zM166.536157 716.410266l-4.297063 7.994535c1.099249-2.898019 2.498292-5.596174 4.297063-7.994535z" /></svg>