<?xml version="1.0" standalone="no"?><!DOCTYPE svg PUBLIC "-//W3C//DTD SVG 1.1//EN" "http://www.w3.org/Graphics/SVG/1.1/DTD/svg11.dtd"><svg class="icon" width="200px" height="200.00px" viewBox="0 0 1024 1024" version="1.1" xmlns="http://www.w3.org/2000/svg"><path fill="#333333" d="M480 64v352c0 35.3-28.7 64-64 64H64c-35.3 0-64-28.7-64-64V64C0 28.6 28.7 0 64 0h352c35.3 0 64 28.6 64 64zM1024 64v352c0 35.3-28.7 64-64 64H608c-35.3 0-64-28.7-64-64V64c0-35.4 28.7-64 64-64h352c35.3 0 64 28.6 64 64zM480 608v352c0 35.3-28.7 64-64 64H64c-35.3 0-64-28.7-64-64V608c0-35.4 28.7-64 64-64h352c35.3 0 64 28.6 64 64zM1024 608v352c0 35.3-28.7 64-64 64H608c-35.3 0-64-28.7-64-64V608c0-35.4 28.7-64 64-64h352c35.3 0 64 28.6 64 64z" /></svg>