<?xml version="1.0" standalone="no"?><!DOCTYPE svg PUBLIC "-//W3C//DTD SVG 1.1//EN" "http://www.w3.org/Graphics/SVG/1.1/DTD/svg11.dtd"><svg class="icon" width="200px" height="200.00px" viewBox="0 0 1024 1024" version="1.1" xmlns="http://www.w3.org/2000/svg"><path fill="#333333" d="M816.6 748.8c18.8 18.7 18.8 49.1 0 67.9-9.4 9.4-21.7 14.1-33.9 14.1-12.3 0-24.6-4.7-33.9-14.1L523.3 591.2c-6.2-6.2-16.4-6.2-22.6 0L275.2 816.6c-9.4 9.4-21.7 14.1-33.9 14.1-12.3 0-24.6-4.7-33.9-14.1-18.8-18.7-18.8-49.1 0-67.9l225.4-225.4c6.2-6.2 6.2-16.4 0-22.6L207.4 275.2c-18.8-18.7-18.8-49.1 0-67.9 18.7-18.8 49.1-18.8 67.9 0l225.4 225.4c6.2 6.2 16.4 6.2 22.6 0l225.4-225.4c18.7-18.8 49.1-18.8 67.9 0 18.8 18.7 18.8 49.1 0 67.9L591.2 500.7c-6.2 6.2-6.2 16.4 0 22.6l225.4 225.5zM64 352H0V0h352v64H64zM1024 352h-64V64H672V0h352zM352 1024H0V672h64v288h288zM1024 1024H672v-64h288V672h64z" /></svg>