<?xml version="1.0" standalone="no"?><!DOCTYPE svg PUBLIC "-//W3C//DTD SVG 1.1//EN" "http://www.w3.org/Graphics/SVG/1.1/DTD/svg11.dtd"><svg class="icon" width="200px" height="200.00px" viewBox="0 0 1024 1024" version="1.1" xmlns="http://www.w3.org/2000/svg"><path fill="#333333" d="M0 512c0 282.8 229.2 512 512 512s512-229.2 512-512S794.8 0 512 0 0 229.2 0 512z m99.2 174.4C75.8 631.2 64 572.5 64 512s11.8-119.2 35.2-174.4c22.6-53.3 54.9-101.3 96-142.4 41.2-41.2 89.1-73.5 142.4-96C392.8 75.8 451.5 64 512 64s119.2 11.8 174.4 35.2c53.3 22.6 101.3 54.9 142.4 96 41.2 41.2 73.5 89.1 96 142.4C948.2 392.8 960 451.5 960 512s-11.8 119.2-35.2 174.4c-22.6 53.3-54.9 101.3-96 142.4-41.2 41.2-89.1 73.5-142.4 96C631.2 948.2 572.5 960 512 960s-119.2-11.8-174.4-35.2c-53.3-22.6-101.3-54.9-142.4-96-41.2-41.2-73.5-89.1-96-142.4zM272 256.8v510.5c0 6.7 7.8 10.5 13 6.2l259-209.6v202.9c0 6.8 8 10.5 13.2 6.1l299.6-254.7c3.8-3.2 3.8-9 0-12.2L557.2 251.2c-5.2-4.4-13.2-0.7-13.2 6.1v202.9L285 250.6c-5.2-4.3-13-0.6-13 6.2z" /></svg>