<?xml version="1.0" standalone="no"?><!DOCTYPE svg PUBLIC "-//W3C//DTD SVG 1.1//EN" "http://www.w3.org/Graphics/SVG/1.1/DTD/svg11.dtd"><svg class="icon" width="200px" height="200.00px" viewBox="0 0 1024 1024" version="1.1" xmlns="http://www.w3.org/2000/svg"><path fill="#333333" d="M579 88m-88 0a88 88 0 1 0 176 0 88 88 0 1 0-176 0ZM791 584v32c0 4.4-3.6 8-8 8h-3.5c-2.2 0-4 1.8-4 4v372c0 13.3-10.8 24-24 24-6.6 0-12.6-2.7-17-7-4.3-4.4-7-10.4-7-17V640c0-8.8-7.2-16-16-16h-48v-3.4c0-3.3 0.4-6.6 1.1-9.7-15.4 3.9-32.2-1.5-42.2-15.1l-88.2-115.2c-14.2-18.5-23-40.6-25.6-63.8l-11.9-108.4c-0.7-6.7-8.9-9.5-13.6-4.8a117.34 117.34 0 0 0-34.4 83c0 4.8 0.3 9.7 0.9 14.6l18.1 145.2c2 16.4 7.2 32.2 15.3 46.6l67.7 121.2c10.7 19.1 16.3 40.6 16.3 62.5V1008c0 8.8-7.2 16-16 16h-48c-8.8 0-16-7.2-16-16V781.8c0-11.2-3-22.3-8.6-32l-76.6-132.6c-2.2-3.9-8.1-1.7-7.4 2.6l20.5 123.7c3.7 22.2 1.4 44.9-6.5 65.9l-72.6 193c-3.1 8.3-12.3 12.5-20.6 9.4L270.4 995c-8.3-3.1-12.5-12.3-9.3-20.6l71.2-189.5c3.8-10.2 5-21.2 3.4-32L309 575l-24.2-194c-7.5-60 13.1-120.1 55.9-162.9l18.8-18.8c53-53 138.9-53 191.9 0l0.9 0.9c9.5 9.5 15.4 21.7 16.8 34.7 4.3 39.4 13.8 126 17.8 162.8 1.2 11.2 5.4 21.8 12 30.9l87.9 119.8c6.5 8.9 8.8 19.6 7.3 29.7 4.4-1.4 9.1-2.2 14-2.2H783c4.4 0.1 8 3.7 8 8.1z" /></svg>