<?xml version="1.0" standalone="no"?><!DOCTYPE svg PUBLIC "-//W3C//DTD SVG 1.1//EN" "http://www.w3.org/Graphics/SVG/1.1/DTD/svg11.dtd"><svg class="icon" width="200px" height="200.00px" viewBox="0 0 1024 1024" version="1.1" xmlns="http://www.w3.org/2000/svg"><path fill="#333333" d="M992 0H32C14.3 0 0 14.3 0 32v224c0 17.7 14.3 32 32 32h960c17.7 0 32-14.3 32-32V32c0-17.7-14.3-32-32-32zM192 216c0 4.4-3.6 8-8 8H72c-4.4 0-8-3.6-8-8V72c0-4.4 3.6-8 8-8h112c4.4 0 8 3.6 8 8v144z m768 0c0 4.4-3.6 8-8 8H840c-4.4 0-8-3.6-8-8V72c0-4.4 3.6-8 8-8h112c4.4 0 8 3.6 8 8v144zM992 736H32c-17.7 0-32 14.3-32 32v224c0 17.7 14.3 32 32 32h960c17.7 0 32-14.3 32-32V768c0-17.7-14.3-32-32-32zM192 952c0 4.4-3.6 8-8 8H72c-4.4 0-8-3.6-8-8V808c0-4.4 3.6-8 8-8h112c4.4 0 8 3.6 8 8v144z m768 0c0 4.4-3.6 8-8 8H840c-4.4 0-8-3.6-8-8V808c0-4.4 3.6-8 8-8h112c4.4 0 8 3.6 8 8v144zM992 368H32c-17.7 0-32 14.3-32 32v224c0 17.7 14.3 32 32 32h960c17.7 0 32-14.3 32-32V400c0-17.7-14.3-32-32-32zM192 584c0 4.4-3.6 8-8 8H72c-4.4 0-8-3.6-8-8V440c0-4.4 3.6-8 8-8h112c4.4 0 8 3.6 8 8v144z m768 0c0 4.4-3.6 8-8 8H840c-4.4 0-8-3.6-8-8V440c0-4.4 3.6-8 8-8h112c4.4 0 8 3.6 8 8v144z" /></svg>