<?xml version="1.0" standalone="no"?><!DOCTYPE svg PUBLIC "-//W3C//DTD SVG 1.1//EN" "http://www.w3.org/Graphics/SVG/1.1/DTD/svg11.dtd"><svg class="icon" width="200px" height="200.00px" viewBox="0 0 1024 1024" version="1.1" xmlns="http://www.w3.org/2000/svg"><path fill="#333333" d="M533.966756 1020.100381c-144.185919-9.999024-267.47388-34.996582-265.874035-36.596426 1.099893-8.39918 3.199688-18.298213 5.899424-28.697198 0.299971-0.899912 0.499951-1.799824 0.799921-2.799726 5.599453-20.098037 13.798652-41.195977 23.397716-54.394688 13.898643-19.498096 32.596817-34.696612 52.294893-47.595352 2.199785-1.399863 4.499561-2.799727 6.799336-4.0996 1.699834-0.999902 3.399668-1.999805 5.199492-2.999707 17.798262-10.099014 36.396446-18.298213 55.2946-26.097452 24.497608-10.199004 49.295186-19.598086 73.092862-31.396933 1.699834-0.799922 3.399668-1.699834 5.099502-2.599747 0.399961-0.19998 0.799922-0.399961 1.199883-0.699931 2.799727-1.599844 5.599453-3.199688 8.49917-4.899522 5.299482-3.099697 10.498975-6.499365 15.498486-10.298994 11.998828-8.999121 22.297822-19.998047 27.697295-34.396641 0.19998-0.599941 0.499951-1.199883 0.699932-1.899814 0.899912-7.499268 1.399863-14.898545 1.799824-22.397813 0.599941-13.798652 0.599941-27.497315 0.499952-41.295967-0.09999-7.199297-0.09999-14.398594-0.099991-21.597891-10.598965-8.099209-17.598281-19.998047-23.897666-31.696905-0.09999-0.09999-0.09999-0.299971-0.19998-0.399961-10.598965-20.497998-18.298213-42.69583-21.497901-65.593594-0.09999-0.699932-0.599941-1.199883-1.299873-1.399863-9.399082-2.099795-16.89835-8.999121-21.797871-17.398301-1.199883-2.099795-2.299775-4.29958-3.199688-6.499366-5.299482-12.498779-7.899229-26.097451-8.799141-39.596133-0.699932-12.998731 4.39957-26.097451 14.098624-34.596621 0.899912-0.799922 1.299873-2.099795 0.999902-3.299678-9.799043-40.696026-16.99834-82.391954-15.298506-124.387853 1.099893-26.397422 5.799434-53.094815 17.09833-76.992481 9.199102-19.598086 22.997754-36.996387 40.196075-49.595157 10.698955-7.999219 22.297822-14.198613 34.396641-18.898154 10.898936-4.29958 22.297822-7.399277 33.796699-9.699053 9.599063-1.899814 19.298115-3.099697 28.997169-3.899619 7.699248-0.599941 15.398496-0.999902 23.097744-1.099893 3.899619 0.09999 7.899229 0.19998 11.898838 0.499951 19.898057 1.299873 39.796114 5.399473 56.994434 16.198419 7.599258 4.699541 13.798652 11.398887 18.598184 18.798164 19.898057 3.099697 39.896104 10.498975 54.994629 24.697588 21.797871 20.398008 31.896885 50.595059 34.796602 79.992188 4.999512 48.795235-4.39957 97.69046-17.898252 144.28591-0.399961 1.299873 0 2.599746 0.999902 3.499658 10.099014 8.999121 15.198516 22.997754 13.898643 36.696416-1.499854 16.198418-4.799531 33.096768-13.898643 46.895421-4.699541 6.999316-11.698858 12.198809-19.798066 14.098623-0.699932 0.19998-1.199883 0.699932-1.299873 1.399863-3.499658 24.497608-11.598867 48.195293-23.097745 69.893175-5.699443 10.398984-12.098818 20.697979-21.4979 27.897275 0 7.399277-0.09999 14.798555-0.199981 22.197833-0.19998 20.997949-0.19998 41.995899 2.199785 62.993848 0.299971 0.899912 0.599941 1.899814 0.999903 2.799726 7.499268 19.198125 24.497608 32.596817 41.295967 42.995802 5.099502 2.999707 10.398984 5.799434 15.598477 8.49917 23.397715 11.898838 47.995313 21.29792 72.29294 31.296943 26.597403 10.998926 52.794844 22.797774 76.49253 39.496143 25.39752 17.398301 47.595352 41.095987 59.3942 70.293136 6.099404 14.498584 10.898936 41.995899 12.79875 57.594375 0.499951 1.099893-192.081242 40.696026-377.8631 40.696026-31.696905 0-63.59379-1.099893-94.790743-2.999707-5.999414-0.19998-11.698858-0.599941-17.398301-0.899912zM631.057275 84.391759c3.899619 5.099502 0.599941 12.398789-5.799434 12.89874-1.799824 0.09999-3.499658 0.299971-5.299482 0.399961-12.498779 0.999902-24.697588 2.699736-36.096475 4.899521-8.799141 1.699834-17.398301 3.799629-25.697491 6.299385-6.599356 1.999805-13.098721 4.19959-19.298115 6.599356-17.898252 6.999316-34.396641 16.098428-49.095206 27.097354-25.39752 18.598184-46.095498 44.195684-60.094131 73.792793-13.798652 29.397129-21.597891 63.59379-23.097744 101.69007-1.399863 35.396543 1.999805 71.692999 10.998925 115.188751-7.899229 16.298408-11.798848 34.696612-10.698955 53.194805v0.599941c1.399863 21.697881 5.899424 41.895909 13.498682 60.094132 1.999805 4.899522 4.39957 9.799043 7.199297 14.398594 5.899424 9.999024 12.998731 18.698174 21.19793 25.897471 5.099502 18.598184 12.298799 37.096377 21.697881 55.194609 0 0 0 0.09999 0.09999 0.099991l0.299971 0.699931 0.499951 0.999903c3.599648 6.599356 8.799141 16.198418 16.298408 26.297432 0.09999 11.998828 0.09999 23.597696-0.39996 34.796601-0.09999 2.299775-0.19998 4.599551-0.399961 6.799336-0.999902 0.999902-2.399766 2.199785-4.399571 3.699639-2.599746 1.999805-5.899424 4.0996-9.599062 6.299385h-0.099991l-0.09999 0.09999c-1.799824 1.099893-3.899619 2.299775-6.599355 3.799629l-0.099991 0.09999c-0.09999 0-0.09999 0.09999-0.09999 0.099991-1.299873 0.699932-2.299775 1.199883-3.299678 1.699834h-0.09999l-0.09999 0.09999c-16.098428 7.999219-33.296748 14.998535-51.494971 22.397813-5.799434 2.299775-11.698858 4.799531-17.598282 7.199297-12.89874 5.399473-27.397324 11.598867-42.395859 18.998144-6.499365 3.299678-13.198711 6.699346-19.698077 10.398985-2.099795 1.199883-4.29958 2.399766-6.399375 3.699638-2.899717 1.699834-5.699443 3.399668-8.299189 4.999512l-0.499952 0.299971-0.499951 0.299971c-14.498584 9.499072-27.197344 19.198125-38.49624 29.497119-11.998828 10.898936-22.197832 22.297822-30.796993 34.396641-16.598379 22.997754-27.097354 53.294795-33.096768 74.592716-0.299971 1.099893-0.599941 2.199785-0.899912 3.199687-0.599941 2.399766-1.299873 4.799531-1.899814 7.299287-2.499756 10.298994-4.499561 20.298018-5.699444 29.49712-1.399863 10.398984-0.299971 21.19793 3.599649 31.396934 0.599941 1.499854-0.699932 3.199688-2.299776 2.999707C86.510453 995.702763-1.480954 977.504541 0.0189 976.004687c3.999609-29.997071 17.898252-77.292452 35.696514-101.79006 16.398399-23.097744 38.696221-41.195977 61.993946-56.394492 25.29753-15.898447 52.294893-27.997266 79.692217-39.396153 24.197637-9.999024 48.695245-19.498096 72.392931-30.397032 6.799336-3.099697 13.498682-6.399375 20.198027-9.799043 25.69749-14.098623 53.294795-32.096866 63.4938-61.693975 0.399961-3.399668 0.699932-6.799336 0.999902-10.298994 1.899814-21.697881 1.799824-43.495752 1.599844-65.293624-0.09999-8.49917-0.19998-17.09833-0.199981-25.5975-12.59877-9.599063-20.797969-23.697686-28.397227-37.596328-12.69876-24.497608-21.897862-50.89503-25.79748-78.192364-0.09999-0.799922-0.699932-1.499854-1.599844-1.699834-13.998633-3.199688-24.297627-15.098526-29.59711-28.297237-6.299385-14.898545-9.399082-30.896983-10.398984-46.89542-0.799922-15.398496 5.299482-30.996973 16.698369-40.995997 1.099893-0.999902 1.599844-2.499756 1.199883-3.899619-11.598867-48.195293-20.098037-97.69046-18.098233-147.485597 1.299873-31.296944 6.899326-62.993848 20.198028-91.291085 10.898936-23.197735 27.197344-43.795723 47.695342-58.794258C348.884831 9.799043 401.079734 1.199883 450.5749 0.399961c27.997266 0.499951 57.194415 4.499561 81.592032 19.698076 8.999121 5.499463 16.298408 13.498682 22.097842 22.297823 23.597696 3.699639 47.295381 12.398789 65.093643 29.197148 4.29958 3.999609 8.199199 8.29919 11.698858 12.798751z" /></svg>