<?xml version="1.0" standalone="no"?><!DOCTYPE svg PUBLIC "-//W3C//DTD SVG 1.1//EN" "http://www.w3.org/Graphics/SVG/1.1/DTD/svg11.dtd"><svg class="icon" width="200px" height="200.00px" viewBox="0 0 1024 1024" version="1.1" xmlns="http://www.w3.org/2000/svg"><path fill="#333333" d="M1010.91861 925.5c-11.8-29.2-34-52.9-59.4-70.3-23.7-16.7-49.9-28.5-76.5-39.5-24.3-10-48.9-19.4-72.3-31.3-5.3-2.7-10.5-5.5-15.6-8.5-16.8-10.4-33.8-23.8-41.3-43-0.4-0.9-0.7-1.8-1-2.8-2.4-20.9-2.4-42-2.2-63 0.1-7.4 0.2-14.8 0.2-22.2 9.4-7.3 15.8-17.5 21.5-27.9 11.6-21.7 19.7-45.4 23.1-69.9 0.1-0.7 0.6-1.2 1.3-1.4 8.1-1.9 15.2-7.1 19.8-14.1 9.1-13.9 12.4-30.7 13.9-46.9 1.3-13.7-3.7-27.8-13.9-36.7-1-0.9-1.4-2.2-1-3.5 13.5-46.6 22.9-95.5 17.9-144.3-3-29.4-13-59.6-34.8-80-15-14.2-35.1-21.5-55-24.7-4.9-7.5-11-14.2-18.6-18.8-17.1-10.7-37.1-14.8-57-16.2-4.2-33-16.2-66.3-40.6-89.2-17.8-16.8-41.6-25.5-65.2-29.2-5.8-8.8-13-16.8-22.1-22.3C507.91861 4.5 478.61861 0.5 450.61861 0 401.01861 0.8 348.81861 9.4 307.91861 39.9c-20.5 15-36.8 35.6-47.7 58.8-13.3 28.3-19 60-20.2 91.3-2 49.8 6.5 99.3 18.1 147.5 0.3 1.4-0.1 2.9-1.2 3.9-11.4 10.1-17.5 25.7-16.7 41 1 16 4.1 32 10.4 46.9 5.4 13.2 15.6 25.1 29.6 28.3 0.8 0.2 1.4 0.8 1.6 1.7 3.9 27.3 13.1 53.8 25.8 78.2 7.5 13.8 15.8 27.9 28.4 37.6 0 8.5 0.1 17.1 0.2 25.6 0.2 21.8 0.2 43.6-1.6 65.3-0.3 3.4-0.6 6.8-1 10.3-10.2 29.6-37.8 47.6-63.5 61.7-6.7 3.4-13.4 6.7-20.2 9.8-23.8 10.9-48.3 20.4-72.4 30.4-27.4 11.4-54.4 23.5-79.7 39.4-23.4 15.3-45.6 33.3-62 56.4C17.91861 898.5 4.01861 945.7 0.01861 975.7c-2.4 2.4 227.7 48.3 447.8 48.3 34.5 0 69.3-1.2 103.3-3.1 31.2 1.9 63.1 3 94.8 3 185.9 0 378.5-39.6 378-40.7-2.1-15.6-6.8-43.2-13-57.7zM682.01861 230.2c0 0.1 0.1 0.2 0.1 0.2l15.5 23.8 28.1 4.4c9.5 1.5 17.2 4.4 21 8l0.1 0.1 0.1 0.1c7.7 7.2 13.1 21.7 14.9 39.8v0.2c3.4 33.2-1.6 71.3-15.7 120-6.1 20.9-1.5 43.4 11.6 60.2-0.2 1.2-0.4 2.2-0.6 3.1-17.7 9.8-30.1 27.4-33.1 48.2-2.3 16.5-7.7 32.8-16.1 48.5-2.9 5.2-4.4 7.4-5.1 8.3l-24 18.5-0.1 31.4c0 5.1-0.1 10.1-0.1 15.4v0.5c-0.2 20.5-0.5 41.7 1.3 63.7 0.3 4.4 0.8 8.8 1.3 13.2l0.8 6.6 2.1 6.3c4.3 13 10.5 24.3 17.6 34.1 5.8 8.1 12.3 15.2 19 21.4-23.7 3.5-49 5.3-74.8 5.3-24.9 0-49.4-1.7-72.5-4.9 14.6-13.7 28.5-31.6 36.5-54.9l1.7-4.8 0.6-1.7 0.8-6.9c0.5-4.6 1-9.2 1.3-13.7 1.7-21.4 1.5-41.9 1.3-61.8v-2.4c0-5.1-0.1-10-0.1-14.8V614l-24.4-18.7c-1.3-1.6-3.7-5.4-7-11.4-7.8-15.1-12.8-30.3-14.9-45-0.9-6.6-2.8-12.8-5.6-18.6-5.8-12.3-15.4-22.6-27.3-29.4-0.3-1.1-0.5-2.3-0.7-3.5 12.6-16 17.3-37.1 12.4-57.3-1.9-8.1-3.7-15.8-5.2-23.2-6.7-32.7-9.3-59.1-8.4-83.6 0.8-20.9 4.5-38.5 11-52.3 3.5-7.3 8-14 13.4-19.3 2.2-2.2 4.5-4.2 6.8-6l0.2-0.2 0.2-0.2c14.2-10.6 34.1-17.1 60.3-19.7 6.8-0.7 14.1-1.1 21.8-1.2 15.7 0 27 2.1 33.9 5.8zM394.01861 697.1l2.3-6.5 0.8-6.9c1-8.8 1.7-17.4 2.2-26 1.2-21.3 1-41.9 0.9-62v-2.2c0-6.3-0.1-12.3-0.1-18.3v-31.6l-25-19.2c-2-1.7-5.6-7.4-10.8-16.8-9.9-19.2-16.3-38.4-18.9-57.2-3.1-22.2-17.5-41.1-37.3-50.4-1.5-4.7-2.6-10-3.3-15.8 15-16.5 21-39.5 15.7-61.6-12.8-53.1-17.9-93.1-16.4-129.9 1.1-26.4 5.8-48.8 14.2-66.6 6.7-14.2 16.3-26.1 27.6-34.5l0.2-0.2 0.2-0.1c23.4-17.4 57.5-26.3 104.4-27.2 22.2 0.5 37.8 3.8 47.7 10l0.2 0.1c0.3 0.3 1.1 1.2 2.3 2.9l15.5 23.8 28.1 4.4c13.8 2.2 24.9 6.7 31.2 12.6l0.1 0.1 0.1 0.1c10.1 9.5 17.3 26 20.4 47-11.6 2.3-22.9 5.4-33.8 9.7-12.2 4.8-23.8 11-34.5 18.9-17.3 12.6-31 30.1-40.2 49.6-11.2 23.9-16 50.6-17.1 77-1.7 42 5.5 83.8 15.3 124.4 0.3 1.2-0.1 2.5-1 3.3-9.6 8.5-14.8 21.7-14 34.6 0.8 13.5 3.5 27 8.8 39.6 0.9 2.2 2 4.4 3.2 6.5 4.9 8.4 12.3 15.3 21.8 17.4 0.7 0.2 1.2 0.7 1.3 1.4 3.3 22.9 10.9 45.1 21.5 65.6 0.1 0.1 0.1 0.3 0.2 0.4 6.3 11.7 13.3 23.6 23.9 31.7 0 7.2 0.1 14.4 0.1 21.6 0.1 13.8 0.2 27.6-0.5 41.3-0.4 7.5-0.9 14.9-1.8 22.4-0.2 0.6-0.4 1.3-0.7 1.9-5.4 14.3-15.8 25.3-27.7 34.4-5 3.7-10.2 7.2-15.5 10.3-2.8 1.7-5.7 3.3-8.5 4.9-16.1 1.2-32.5 1.8-49.2 1.8-39.8 0-78.6-3.6-113.7-10.3 22.4-16.2 47.6-40.7 59.8-76.4zM79.51861 926.7c3.2-7.4 6-12.5 8-15.2l0.1-0.2 0.1-0.2c9.5-13.3 24-26.3 44.5-39.7 26.7-16.7 57.3-29.2 89.8-42.4 9.5-3.9 19.1-7.8 28.8-11.9 32.1 11.5 70 20.3 111.6 25.4-1.7 1-3.5 2-5.2 3-2.3 1.3-4.5 2.7-6.8 4.1-19.7 12.9-38.4 28.1-52.3 47.6-9.5 13.2-17.8 34.3-23.4 54.4-40.5-3.6-77.3-7.9-107.5-11.9-34.6-4.4-64.2-9-87.7-13z m804 15.5c-8.6 1.2-17.8 2.4-27.6 3.5-57.8 7.1-134.3 14.1-210.2 14.1-38 0-76-1.7-111.7-4.3-46.8-3.4-89.5-8.2-122.7-12.5-23-3-43.5-6.1-60.9-8.9 7.3-10.1 18.6-20.1 34.5-30.6 21.8-13.6 47.2-24 74.1-34.9 11.4-4.6 23.1-9.4 34.8-14.5 42.5 13.2 95.1 21 152 21 28.7 0 56.3-2 82-5.6 26-3.7 50.1-9.1 71.6-15.9 5.8 2.6 11.6 5 17.4 7.4 6.3 2.6 12.5 5.1 18.7 7.7 29.2 11.8 56.7 23 79 38.8l0.3 0.3 0.4 0.3c8.5 5.8 19 14.4 27.1 25.4-16.9 2.7-36.8 5.8-58.8 8.7z" /></svg>