<?xml version="1.0" standalone="no"?><!DOCTYPE svg PUBLIC "-//W3C//DTD SVG 1.1//EN" "http://www.w3.org/Graphics/SVG/1.1/DTD/svg11.dtd"><svg class="icon" width="200px" height="200.00px" viewBox="0 0 1024 1024" version="1.1" xmlns="http://www.w3.org/2000/svg"><path fill="#333333" d="M1002.3 832.5L659.4 519.2c-32.9-30.1-67.7-58.2-105.1-82.6-4.7-3.1-13.9-10.3-13.9-10.3L365.7 251.5c-53.8-67.5 89.6-132.8 190.8-132.8 10.1 0 19.9 0.7 28.9 2l13.8-17.4-73.7-33.6L615 83.5l11.2-14.2c-53.9-30.8-106.1-42.7-154.6-42.7-167.1 0-290.5 141.5-290.5 141.5-17.5 17.5-30.3 39.2-36.3 63.2-4 16-12.2 31.2-24.8 43.7-8.4 8.5-18.1 15-28.5 19.5-10.3 4.6-21.4 7.2-32.5 7.8-8.3 0.5-16.1 3.8-22 9.7L4.9 344.6c-6.5 6.5-6.5 17 0 23.5l91.2 91.2c3.3 3.3 7.5 4.9 11.8 4.9 4.3 0 8.5-1.6 11.7-4.9l34.5-34.4c5.5-5.5 9-12.7 9.6-20.4 1.8-21.4 10.7-42.3 27.1-58.7 0.6-0.6 1.2-1.1 1.8-1.7 12.6-11.9 28.8-17.7 45-17.7 17.4 0 34.8 6.7 47.9 19.9l161.1 161.1c1.7 1.3 3.4 2.8 5 4.5 4.4 4.4 8.3 9.2 11.7 14.3 24 35.9 49.9 70.5 79 102.4l316.8 346.9c13.2 14.4 31.1 21.7 49.1 21.7 17 0 34-6.5 47-19.5l49.1-49.1c27-26.7 26-70.5-2-96.1z m-43 50.9l-49.1 49.1c-0.3 0.3-0.8 0.7-1.8 0.7-1.1 0-1.6-0.6-1.9-0.8L589.7 585.5c-24.5-26.9-73-94.8-73-94.8-0.6-0.9 0.5-2.1 1.4-1.4l1.2 0.9s63.5 45.7 96.9 76.2l342.9 313.3c0.3 0.2 0.8 0.7 0.8 1.8 0.1 1.2-0.4 1.7-0.6 1.9z" /></svg>