<?xml version="1.0" standalone="no"?><!DOCTYPE svg PUBLIC "-//W3C//DTD SVG 1.1//EN" "http://www.w3.org/Graphics/SVG/1.1/DTD/svg11.dtd"><svg class="icon" width="200px" height="200.00px" viewBox="0 0 1024 1024" version="1.1" xmlns="http://www.w3.org/2000/svg"><path fill="#333333" d="M468.304267 1023.90001h-0.09999c-64.393712 0-125.887706-19.498096-177.982619-56.394493-52.294893-36.996387-90.491163-88.191388-110.5892-148.085538l-0.499951-1.499854-2.199786-6.799336L49.445171 405.260424c-16.598379-48.295284 8.899131-101.490089 57.094425-118.68841l0.29997-0.09999c37.396348-12.89874 77.992384-0.19998 102.589982 28.797188l-15.998438-113.188946c-4.19959-23.897666 1.499854-49.195196 15.598477-69.493214 14.398594-20.597988 35.696514-34.296651 60.094131-38.596231 24.597598-4.39957 49.495166 1.299873 70.193146 16.098428 16.598379 11.798848 28.697198 27.997266 34.996582 46.69544l0.19998-64.793672c0-50.695049 41.995899-91.991017 93.690851-91.991017 51.294991 0 93.190899 40.896006 93.59086 91.191095l5.799434 126.987598 7.599258-43.095791c3.199688-23.997656 15.498486-45.695538 34.696611-61.094034 19.798067-15.898447 44.295674-22.997754 69.093253-20.198027l0.399961 0.09999c24.697588 3.199688 46.69544 15.798457 62.093936 35.396543 15.298506 19.598086 22.197832 44.095694 19.298115 68.793282l-0.19998 1.099893L706.980959 549.346353c-0.399961 2.999707-0.799922 6.299385-1.299873 9.799043-1.499854 10.798945-5.199492 37.696319-3.899619 48.995215 1.599844-1.299873 3.699639-3.499658 5.799433-6.999316l72.492921-131.48716 1.099893-1.599843c18.098233-25.197539 48.695245-41.995899 81.892002-44.895616 31.396934-2.799727 61.394004 7.299287 82.291964 27.597305 21.497901 20.997949 33.396739 46.395469 34.19666 73.392833 0.799922 24.897569-7.499268 50.79504-24.597597 76.892491-4.599551 7.699248-47.095401 79.192266-96.290597 153.984962C763.975393 898.912216 725.179182 933.808808 704.281223 946.507568c-33.99668 24.697588-71.393028 43.795723-111.289132 56.994434-40.296065 13.298701-82.291964 20.198028-124.787814 20.497998l0.09999-0.09999zM240.726492 800.321844c32.496826 95.490675 123.687921 159.484425 227.377795 159.584415 72.29294-0.499951 141.386193-23.297725 199.78049-65.993555l1.299873-0.999903 1.399863-0.799921c8.199199-4.799531 41.995899-31.396934 134.786837-172.383166 50.99502-77.492432 94.590763-151.285226 94.990724-151.985158l0.899912-1.399863c24.597598-37.196368 13.498682-56.194512-0.499951-69.893175-7.499268-7.299287-19.198125-10.798945-31.996875-9.699052-13.998633 1.199883-27.097354 7.799238-34.596622 17.29831l-70.893077 128.687433-0.19998 0.299971c-16.698369 28.497217-43.995704 43.795723-71.193048 39.896104-22.497803-3.199688-35.796504-18.898154-40.196074-23.997657l-0.499951-0.499951c-17.998242-20.697979-14.998535-53.694756-8.899131-98.190411 0.499951-3.399668 0.899912-6.599356 1.299873-9.499072l0.09999-0.799922 53.594766-349.765843c1.599844-15.998438-9.899033-30.597012-25.797481-32.796798-15.598477-1.699834-30.996973 10.598965-32.896787 26.397423l-0.199981 1.699834L586.992676 477.353383l-0.899912 2.599747c-6.599356 18.298213-22.697783 28.997168-40.196074 26.497412-13.298701-1.899814-29.297139-12.59877-30.896983-36.496436v-0.699932L497.801387 92.790938V91.991017c0-15.498486-13.298701-27.997266-29.59711-27.997266-16.398399 0-29.6971 12.59877-29.6971 27.997266v0.09999l-1.199883 377.963089c0.499951 18.798164-12.89874 34.596621-30.996973 36.296456-18.298213 1.699834-33.89669-11.098916-36.796406-29.897081l-54.694659-294.871204c-2.899717-15.898447-19.098135-27.297334-34.596621-24.597598h-0.099991c-7.499268 1.299873-14.098623 5.599453-18.598183 12.098819-4.599551 6.599356-6.399375 14.598574-5.099502 22.097842l0.19998 1.299873 49.095206 348.066009v2.199785c0 24.097647-14.998535 35.396543-27.897276 37.8963-12.69876 2.399766-30.597012-2.499756-38.996192-24.297628l-0.09999-0.19998-72.892882-190.281418c-5.599453-15.498486-22.997754-24.197637-37.996289-19.098135-15.198516 5.499463-23.197735 22.397813-17.898252 37.696319l0.29997 0.999902 127.587541 406.160336 2.899717 8.699151z" /></svg>