<?xml version="1.0" standalone="no"?><!DOCTYPE svg PUBLIC "-//W3C//DTD SVG 1.1//EN" "http://www.w3.org/Graphics/SVG/1.1/DTD/svg11.dtd"><svg class="icon" width="200px" height="200.00px" viewBox="0 0 1024 1024" version="1.1" xmlns="http://www.w3.org/2000/svg"><path fill="#333333" d="M512 0C229.637872 0 0.749634 228.888238 0.749634 511.250366s228.888238 511.250366 511.250366 511.250366 511.250366-228.888238 511.250366-511.250366S794.362128 0 512 0zM264.121035 352.327965c39.780576 0 71.964861 32.184285 71.964861 71.964861s-32.184285 71.964861-71.964861 71.964861-71.964861-32.184285-71.964861-71.964861 32.184285-71.964861 71.964861-71.964861z m15.792289 395.007125c-9.99512-10.095071-2.798633-27.186725 11.394436-27.186725h442.284041c13.993167 0 21.289605 16.791801 11.594339 26.986823-93.154514 98.751781-218.493314 100.950708-233.18614 100.950708-115.643533 0-194.704929-62.6694-232.086676-100.750806zM759.878965 496.257687c-39.780576 0-71.964861-32.184285-71.964861-71.964861s32.184285-71.964861 71.964861-71.964861 71.964861 32.184285 71.964861 71.964861-32.184285 71.964861-71.964861 71.964861z" /></svg>