<?xml version="1.0" standalone="no"?><!DOCTYPE svg PUBLIC "-//W3C//DTD SVG 1.1//EN" "http://www.w3.org/Graphics/SVG/1.1/DTD/svg11.dtd"><svg class="icon" width="200px" height="200.00px" viewBox="0 0 1024 1024" version="1.1" xmlns="http://www.w3.org/2000/svg"><path fill="#333333" d="M1024.1 511.9v411.8c0 2.3-0.1 4.5-0.3 6.7-3.5 48.1-43.6 86.2-92.6 86.2-49.1 0-89.2-38-92.7-86.2-0.1-2.2-0.3-4.5-0.3-6.7V723.8c0-45.6 32.7-83.5 76-91.3 7.6-1.4 13-8.1 13-15.8v-37.1c0-114.7-46.5-218.4-121.6-293.6-75.2-75.2-179-121.6-293.6-121.6h-1.8c-229 1-413.3 188.5-413.3 417.5v34.6c0 7.7 5.4 14.5 13 15.9 43.3 8 76 45.8 76 91.3v200.2c0 2.3-0.1 4.5-0.3 6.7-3.5 48.1-43.6 86.2-92.7 86.2-49 0-89.2-38-92.6-86.2-0.1-2.2-0.3-4.5-0.3-6.7V514.6C0.1 231.7 228.5 0.3 511.5 0h0.5c141.3 0 269.4 57.3 362 150 92.8 92.6 150.1 220.6 150.1 361.9zM0.2 928.2c0 2.3 0.1 4.5 0.3 6.7H0.2v-6.7z m1023.9 0v6.7h-0.3c0.3-2.1 0.3-4.3 0.3-6.7z" /></svg>