<?xml version="1.0" standalone="no"?><!DOCTYPE svg PUBLIC "-//W3C//DTD SVG 1.1//EN" "http://www.w3.org/Graphics/SVG/1.1/DTD/svg11.dtd"><svg class="icon" width="200px" height="200.00px" viewBox="0 0 1024 1024" version="1.1" xmlns="http://www.w3.org/2000/svg"><path fill="#333333" d="M864.714439 408.222287c-4.891879 7.287901-14.77547 9.284586-22.163206 4.392708h-0.099834c-1.896851-1.198011-4.193039 0.69884-3.294531 2.695525 8.685581 20.466023 12.878619 42.629229 12.279614 64.892268-0.898508 30.549283-10.881934 60.00039-28.852101 85.158624-1.297845 1.797017-2.595691 3.594033-3.99337 5.39105-25.058399 32.146632-40.632544 70.582821-43.627571 111.215365-0.099834 0.898508-0.099834 1.896851-0.199669 2.795359-4.093205 49.318124-16.772156 97.438237-37.837184 142.862826-5.091547 11.880277-10.981769 23.66072-17.470996 34.94199-29.251438 50.61597-73.478015 95.241884-124.69299 125.691333-39.234864 23.361217-78.070391 35.740665-110.217022 35.740665-8.286244 0-16.17315-0.798674-23.560886-2.495856-0.998343-0.199669-23.461051-5.490884-52.912157-17.57083-15.973482-6.589061-26.555913-11.181437-38.236522-19.467681-12.978454-9.184752-19.567515-16.772156-25.857073-24.159891-2.995028-3.494199-6.08989-7.088232-10.382763-11.381105-11.081603-11.181437-17.670664-14.875305-24.060056-18.469338-8.885249-4.991713-19.966852-11.081603-30.050112-27.853759-10.382763-17.271327-11.381106-31.447792-12.079946-41.830554-0.499171-6.888564-0.69884-10.282929-3.494199-15.873648-5.590719-10.981769-15.274642-16.971824-25.657405-23.261382-1.996685-1.198011-3.99337-2.495856-5.990055-3.693868-52.013649-33.244808-76.473043-88.35332-91.048845-121.298625-2.096519-4.69221-3.893536-8.785415-5.490884-12.079945-3.594033-7.587404-15.873647-35.141659-21.664034-71.680999-4.492542-28.35293-3.893536-55.507848 1.597348-80.566247-18.369504-15.873647-35.441162-37.937019-38.835527-66.389783-3.893536-32.545969 11.281271-67.687628 41.630886-96.639563 25.857073-24.659062 61.098567-43.1284 100.832602-53.111826 5.590719-1.39768 11.381106-2.695525 17.071658-3.693868 1.297845-0.299503 2.695525-0.499171 3.993371-0.698839h0.099834c7.687238-1.297845 13.876962-6.988398 15.973482-14.475968 0.798674-2.895194 1.597348-5.690553 2.495856-8.485912-4.792044-2.296188-9.783757-4.392707-14.77547-6.389393s-9.983426-3.793702-15.074974-5.39105c-9.883592-3.194696-20.066686-5.890221-30.449449-7.886906-43.82724-8.386078-89.651165-4.891879-136.17393 10.482597-8.386078 2.795359-17.371161-1.797017-20.16652-10.183095-2.795359-8.386078 1.797017-17.371161 10.183094-20.16652 51.813981-17.071658 103.028956-20.965195 152.247246-11.48094 11.980111 2.296188 23.860388 5.39105 35.640831 9.384421 4.991713 1.697182 10.08326 3.494199 15.074973 5.490884 4.891879 1.996685 9.783757 3.99337 14.675636 6.289558 13.277957-30.149946 31.64746-57.205031 55.607683-78.569562-4.991713-2.795359-9.983426-5.39105-14.875305-7.886907-5.191381-2.595691-10.382763-5.091547-15.47431-7.387735-51.214975-22.862045-99.934094-31.347957-137.072439-33.943648-8.785415-0.599006-15.47431-8.286244-14.77547-17.071658 0.599006-8.785415 8.286244-15.47431 17.071658-14.775471 33.344643 2.296188 66.389783 8.485912 98.43658 18.26967 21.863703 6.688895 42.928732 14.975139 63.095252 24.85873 5.490884 2.695525 10.881934 5.490884 16.17315 8.386078 5.291216 2.895194 10.482597 5.790387 15.574145 8.985084 14.475968-8.785415 30.449449-15.673979 47.920444-20.366189 17.371161-31.347957 24.858731-75.874037 19.268013-130.483378-0.499171-4.69221 3.194696-8.785415 7.98674-8.785414h79.567905c3.893536 0 7.287901 2.795359 7.886907 6.688895 6.08989 39.13503 5.191381 87.055474-12.079946 125.192161 30.249781-30.249781 54.309837-66.689285 75.075363-106.42332 3.294531-6.389393 10.482597-9.783757 17.57083-8.286244l72.280004 15.47431c9.683923 2.096519 15.274642 12.479282 11.48094 21.664035-18.469338 44.625914-45.524422 86.656137-81.065419 128.786194 13.277957 13.277957 29.451107 32.446134 40.532709 52.213318 5.191381-1.597348 10.482597-3.094862 15.773814-4.492541 5.291216-1.39768 10.582432-2.795359 15.873647-3.993371 52.812323-12.279614 106.922492-15.873647 161.531832-10.582431 8.785415 0.898508 15.174807 8.685581 14.376133 17.470995-0.798674 8.785415-8.685581 15.174807-17.470995 14.376133-48.818953-4.69221-97.138735-1.896851-144.36034 8.386078-5.291216 1.198011-10.582432 2.396022-15.873647 3.793702-5.291216 1.297845-10.482597 2.795359-15.673979 4.292873l22.662377 47.620942c4.991713 9.084918 7.088232 16.772156 6.688896 23.461051-0.998343 19.567515-22.462708 29.950278-51.913815 36.639173-7.687238 1.697182-14.975139 3.793702-21.863703 5.39105-6.888564 1.597348-13.178122 2.795359-18.868675 2.79536-10.08326 0-18.169835-3.693868-23.261383-15.374476-0.499171-0.998343-0.898508-2.096519-1.297845-3.194697l-18.768841-51.314809-10.482597-28.552598c-0.299503-0.599006-0.599006-1.198011-0.998343-1.797017-16.372819-29.650775-39.434533-42.928732-63.29492-42.928732-7.287901 0-14.675636 1.198011-21.963537 3.594034-9.883592 3.194696-19.567515 8.585746-28.752267 15.773813-20.466023 16.17315-38.336356 41.630886-48.918787 74.176855-3.793702 11.680608-6.688895 24.259725-8.485912 37.637515-3.494199 25.857073-2.695525 54.709174 3.793702 85.657795 5.890221 29.650775-24.259725 43.228234-55.208346 43.228234-26.456079 0-53.311495-9.983426-58.403042-28.652432-0.599006-2.296188-1.198011-4.592376-1.697182-6.888564-4.792044-20.16652-7.687238-41.331383-8.485912-62.795749-0.499171-13.178122-0.199669-26.555913 0.798674-39.83387-5.490884 0.998343-10.981769 2.196354-16.272984 3.594034-5.590719 1.39768-10.981769 3.094862-16.272985 4.891878-24.259725 8.386078-45.524422 20.665692-61.597738 36.040168-18.968509 18.169835-29.151604 39.234864-27.055084 56.306522 0.998343 8.286244 4.891879 15.973482 10.08326 22.762212 0.898508-1.597348 1.797017-3.194696 2.795359-4.692211 17.57083-28.652432 43.727406-52.013649 76.17354-68.286633 1.497514 23.061714 5.091547 45.724091 10.7821 66.988788v0.199669c0 0.099834 0.099834 0.299503 0.099835 0.499171 4.991713 17.770498 18.768841 32.446134 38.735692 41.531052 14.475968 6.589061 32.3463 10.183094 50.416301 10.183094 31.847129 0 58.802379-10.682266 74.176855-29.351272 11.780443-14.376133 16.17315-32.945306 12.379448-52.113483v-0.199669c-2.895194-14.076631-4.592376-27.953593-4.991713-41.531052 14.176465 20.366189 24.758896 39.933704 31.347958 56.406357 11.281271 28.452764 8.885249 41.73072 7.188067 44.126742-5.191381 7.188067-3.594033 17.171493 3.594033 22.26304 2.795359 1.996685 6.08989 2.995028 9.38442 2.995028 4.991713 0 9.783757-2.296188 12.978454-6.589061 13.976796-19.367846 5.890221-51.214975-3.394365-74.576192-12.079945-30.449449-32.046797-62.596081-57.005362-92.147022 4.991713-23.860388 14.475968-45.22492 28.153261-61.997075 4.891879-5.990056 10.183094-11.181437 15.673979-15.374476 10.682266-10.08326 16.272984-13.876962 24.159891-15.174807 4.69221-0.798674 9.484255-0.399337 14.07663 0.898508l4.792045 1.297846c9.084918 4.492542 13.178122 7.886907 18.369504 14.875304l4.392707 8.985084c6.489227 14.875305 6.489227 22.762211 11.381106 36.040167l16.272984 44.52608c0.998343 2.695525 2.096519 5.291216 3.29453 7.787072-23.461051 14.575802-40.632544 29.351272-50.715803 39.13503l-7.986741 7.687238 4.392707 10.183095c8.186409 18.968509 13.078288 38.735693 14.675636 58.902213 0.798674 9.783757 0.798674 19.667349 0 29.351272l-0.998342 12.479282 1.497514 0.499172c-1.797017 6.489227 0.69884 13.677294 6.589061 17.570829 36.938676 24.359559 40.532709 45.22492 40.732378 51.115141 0.599006 17.371161-14.076631 37.937019-39.234864 55.208346-30.649118 20.965195-74.077021 35.241494-122.197134 40.233206-8.785415 0.898508-15.174807 8.785415-14.276299 17.57083 0.798674 8.186409 7.787072 14.376133 15.873647 14.376133 0.599006 0 1.098177 0 1.697183-0.099834 53.311495-5.490884 101.930779-21.664034 136.972604-45.624256 4.292873-2.995028 8.386078-5.990056 12.279614-9.184752-2.695525 15.074973-7.387735 29.550941-13.777128 43.427903-36.33967 77.671054-116.905918 102.130447-140.766306 107.721166-8.585746 1.996685-13.876962 10.582432-11.880277 19.268012 1.697182 7.387735 8.286244 12.279614 15.574144 12.279614 1.198011 0 2.495856-0.099834 3.693868-0.399337 27.354587-6.489227 119.900946-34.642488 162.330506-125.291996 11.081603-23.66072 17.57083-49.118456 19.268012-75.774203 12.279614 5.690553 26.755582 15.47431 33.544311 31.847129 5.39105 13.078288 1.996685 27.055084-0.299502 36.239836l-0.399337 1.797017c-3.594033 14.875305-11.181437 28.951935-21.963538 40.632543-5.790387 6.289558-5.890221 16.073316 0 22.163206 6.389393 6.688895 17.071658 6.489227 23.261383-0.199669 14.575802-15.773813 24.858731-34.742322 29.750609-55.008677l0.399337-1.597348c2.895194-11.680608 8.286244-33.444477-1.198011-56.206688-12.878619-30.94862-40.732378-46.023594-59.700887-52.912158 2.196354-7.188067 3.194696-14.376133 2.895193-21.5642-0.299503-8.685581-3.494199-27.254753-21.963537-48.51945l48.918788 16.272985c1.697182 0.599006 3.394365 0.798674 5.091547 0.798674 6.688895 0 12.878619-4.193039 15.174807-10.881935 2.795359-8.386078-1.697182-17.371161-10.08326-20.16652l-84.359949-28.153261c0.199669-7.287901-0.099834-14.675636-0.599006-21.863703-1.597348-19.867018-5.990056-39.434533-12.978454-58.303208 10.08326-8.885249 24.359559-20.066686 42.429561-30.748952 8.585746 5.091547 18.569172 7.687238 29.650775 7.687238 12.17978 0 24.259725-3.094862 35.840499-6.089889 3.893536-0.998343 7.986741-2.096519 11.880277-2.995028 21.5642-4.891879 50.61597-13.876962 66.190114-35.940334 2.096519-2.995028 3.99337-6.289558 5.590718-9.783757 0.299503-0.798674 0.69884-1.597348 0.998343-2.396022 4.592376-11.580774 16.672321-18.269669 28.951935-16.372819h0.199669c17.371161 2.795359 33.344643 6.988398 47.82061 11.880277 31.64746 10.682266 56.206688 24.758896 71.680999 35.141659 7.387735 4.991713 9.284586 14.975139 4.392707 22.26304z" /></svg>