<?xml version="1.0" standalone="no"?><!DOCTYPE svg PUBLIC "-//W3C//DTD SVG 1.1//EN" "http://www.w3.org/Graphics/SVG/1.1/DTD/svg11.dtd"><svg class="icon" width="200px" height="200.00px" viewBox="0 0 1024 1024" version="1.1" xmlns="http://www.w3.org/2000/svg"><path fill="#333333" d="M860.3 975.5v-44.2h-68.1V1.5H727c0-0.5-0.1-1-0.1-1.5H272.1c0 0.5-0.1 1-0.1 1.5h-40.2v929.9h-68.1v44.2H98.6v48.4h826.9v-48.5h-65.2zM452 57.5h115v92.2H452V57.5z m0 122.7h115v92H452v-92z m0 122.8h115v92H452v-92z m0 122.9h115v92H452v-92z m0 122.7h115v92H452v-92z m0 122.8h115v92H452v-92zM301.8 57.5h115.1v92.2H301.8V57.5z m0 122.7h115.1v92H301.8v-92z m0 122.8h115.1v92H301.8v-92z m0 122.9h115.1v92H301.8v-92z m0 122.7h115.1v92H301.8v-92z m0 122.8h115.1v92H301.8v-92zM503 931.3h-92V810.2h92v121.1z m110 0h-92V810.2h92v121.1z m104.2-167.9H602.1v-92h115.1v92z m0-122.8H602.1v-92h115.1v92z m0-122.7H602.1v-92h115.1v92z m0-122.9H602.1v-92h115.1v92z m0-122.7H602.1v-92h115.1v92z m0-122.7H602.1V57.5h115.1v92.1z" /></svg>