<?xml version="1.0" standalone="no"?><!DOCTYPE svg PUBLIC "-//W3C//DTD SVG 1.1//EN" "http://www.w3.org/Graphics/SVG/1.1/DTD/svg11.dtd"><svg class="icon" width="200px" height="200.00px" viewBox="0 0 1024 1024" version="1.1" xmlns="http://www.w3.org/2000/svg"><path fill="#333333" d="M1024 900v24c0 2.2-1.8 4-4 4H32c-17.7 0-32-14.3-32-32V100c0-2.2 1.8-4 4-4h24c2.2 0 4 1.8 4 4v788c0 4.4 3.6 8 8 8h84c2.2 0 4-1.8 4-4V432c0-26.5 21.5-48 48-48h128c26.5 0 48 21.5 48 48v460c0 2.2 1.8 4 4 4h56c2.2 0 4-1.8 4-4V128c0-26.5 21.5-48 48-48h128c26.5 0 48 21.5 48 48v764c0 2.2 1.8 4 4 4h56c2.2 0 4-1.8 4-4V240c0-26.5 21.5-48 48-48h128c26.5 0 48 21.5 48 48v652c0 2.2 1.8 4 4 4h88c2.2 0 4 1.8 4 4z" /></svg>