<?xml version="1.0" standalone="no"?><!DOCTYPE svg PUBLIC "-//W3C//DTD SVG 1.1//EN" "http://www.w3.org/Graphics/SVG/1.1/DTD/svg11.dtd"><svg class="icon" width="200px" height="200.00px" viewBox="0 0 1024 1024" version="1.1" xmlns="http://www.w3.org/2000/svg"><path fill="#333333" d="M172.931122 883.537171C266.539707 977.145756 389.319805 1024 512 1024s245.460293-46.854244 339.068878-140.462829c187.317073-187.317073 187.317073-490.920585 0-678.137756C757.460293 111.790829 634.680195 64.936585 512 64.936585c-102.599805 0-205.19961 32.768-290.816 98.204098-5.294829 3.996098-12.887415 0.299707-12.887415-6.293854V79.422439c0-16.983415-6.693463-33.267512-18.681756-45.255805L158.045659 2.697366c-4.995122-4.995122-13.686634-1.498537-13.686635 5.694439V224.780488c0 35.265561 28.672 63.937561 63.937561 63.937561h215.489561c7.093073 0 10.689561-8.59161 5.694439-13.686634l-31.56917-31.569171c-11.988293-11.988293-28.27239-18.681756-45.255805-18.681756h-83.218732c-7.692488 0-10.989268-9.790439-4.795317-14.385951 27.972683-20.779707 58.343024-37.863024 90.911219-51.050147C405.404098 139.164098 457.95278 128.874146 512 128.874146s106.595902 10.289951 156.44722 30.470244c51.549659 20.87961 97.804488 51.649561 137.465756 91.31083 39.661268 39.661268 70.43122 85.916098 91.310829 137.465756C917.404098 437.87239 927.594146 490.421073 927.594146 544.468293s-10.289951 106.595902-30.470244 156.447219c-20.87961 51.549659-51.549659 97.804488-91.310829 137.465756-39.661268 39.661268-85.916098 70.43122-137.465756 91.31083C618.595902 949.87239 566.04722 960.062439 512 960.062439s-106.595902-10.289951-156.44722-30.470244c-51.549659-20.87961-97.804488-51.549659-137.465756-91.310829-39.661268-39.661268-70.43122-85.916098-91.310829-137.465756C106.695805 651.064195 96.405854 598.515512 96.405854 544.468293s10.289951-106.595902 30.470244-156.44722c3.29678-8.092098 6.793366-16.084293 10.589658-23.976585 2.597463-5.294829-1.298732-11.388878-7.192976-11.388878h-13.786536c-27.573073 0-52.248976 17.682732-60.740683 43.957073C2.097951 562.550634 41.159805 751.765854 172.931122 883.537171zM575.937561 388.620488v187.816585c0 35.265561-28.672 63.937561-63.937561 63.937561H324.183415c-2.197854 0-3.996098-1.798244-3.996098-3.996097v-55.945366c0-2.197854 1.798244-3.996098 3.996098-3.996098h171.832195c8.791415 0 15.98439-7.192976 15.98439-15.98439V388.620488c0-2.197854 1.798244-3.996098 3.996098-3.996098h55.945365c2.197854 0 3.996098 1.798244 3.996098 3.996098z" /></svg>