<?xml version="1.0" standalone="no"?><!DOCTYPE svg PUBLIC "-//W3C//DTD SVG 1.1//EN" "http://www.w3.org/Graphics/SVG/1.1/DTD/svg11.dtd"><svg class="icon" width="200px" height="200.00px" viewBox="0 0 1024 1024" version="1.1" xmlns="http://www.w3.org/2000/svg"><path fill="#333333" d="M928 892V240c0-26.5-21.5-48-48-48H752c-26.5 0-48 21.5-48 48v652c0 2.2-1.8 4-4 4h-56c-2.2 0-4-1.8-4-4V128c0-26.5-21.5-48-48-48H464c-26.5 0-48 21.5-48 48v764c0 2.2-1.8 4-4 4h-56c-2.2 0-4-1.8-4-4V432c0-26.5-21.5-48-48-48H176c-26.5 0-48 21.5-48 48v460c0 2.2-1.8 4-4 4H40c-4.4 0-8-3.6-8-8V100c0-2.2-1.8-4-4-4H4c-2.2 0-4 1.8-4 4v796c0 17.7 14.3 32 32 32h988c2.2 0 4-1.8 4-4v-24c0-2.2-1.8-4-4-4h-88c-2.2 0-4-1.8-4-4z m-644 4h-88c-2.2 0-4-1.8-4-4V456c0-4.4 3.6-8 8-8h80c4.4 0 8 3.6 8 8v436c0 2.2-1.8 4-4 4z m288 0h-88c-2.2 0-4-1.8-4-4V152c0-4.4 3.6-8 8-8h80c4.4 0 8 3.6 8 8v740c0 2.2-1.8 4-4 4z m288 0h-88c-2.2 0-4-1.8-4-4V264c0-4.4 3.6-8 8-8h80c4.4 0 8 3.6 8 8v628c0 2.2-1.8 4-4 4z" /></svg>