<?xml version="1.0" standalone="no"?><!DOCTYPE svg PUBLIC "-//W3C//DTD SVG 1.1//EN" "http://www.w3.org/Graphics/SVG/1.1/DTD/svg11.dtd"><svg class="icon" width="200px" height="200.00px" viewBox="0 0 1024 1024" version="1.1" xmlns="http://www.w3.org/2000/svg"><path fill="#333333" d="M905.734648 525.745973l-331.402909-287.91565c-36.089427-31.390803-89.773699-31.390803-125.863126 0l-331.302939 287.91565c-13.9959 12.196427-21.993557 29.791272-21.993556 48.285854l-0.099971 417.977545c0 17.694816 14.295812 31.990628 31.990628 31.990628h769.374597c17.694816 0 31.990628-14.395782 31.990628-32.090598l-0.699795-417.977546c0-18.494582-8.097628-36.089427-21.993557-48.185883zM448.568583 943.723519V783.070585c0-34.889778 28.291711-63.281461 63.281461-63.281461 34.889778 0 63.281461 28.291711 63.28146 63.281461V943.723519c0 8.797423-7.197891 15.995314-15.995313 15.995313h-94.472323c-8.897393 0-16.095285-7.197891-16.095285-15.995313z m190.544177 0.299912v-160.952846c0-70.27941-56.983306-127.262716-127.262716-127.262716s-127.262716 56.983306-127.262716 127.262716v160.952846c0 8.797423-7.197891 15.995314-15.995314 15.995314H175.048716c-8.797423 0-15.995314-7.197891-15.995314-15.995314V588.627551c0-9.297276 3.998828-18.094699 10.996779-24.192913l299.31231-260.123792c24.092942-20.893879 59.882456-20.893879 83.975398 0L852.750171 564.434638c6.99795 6.098213 10.996778 14.895636 10.996778 24.092942l0.599824 355.39588c0 8.797423-7.197891 15.995314-15.995313 15.995314H655.108074c-8.897393 0.099971-15.995314-7.097921-15.995314-15.895343zM914.732012 354.196232V95.971883c0-17.694816-14.295812-31.990628-31.990628-31.990628H767.775066c-17.694816 0-31.990628 14.295812-31.990628 31.990628v104.869277c0 6.798008-7.997657 10.496925-13.196134 6.098213L593.925998 98.37118c-47.686029-40.188226-117.365616-40.188226-165.051645 0L11.29669 450.667968c-7.197891 5.998243-11.29669 14.995607-11.29669 24.292883v0.399883c0 27.092063 31.690716 41.787757 52.384653 24.292883l397.183638-335.001855c35.789515-30.191155 87.974226-30.191155 123.763741 0L735.784438 301.811579l178.947574 150.955774 57.483159 48.085913c20.394025 17.094992 51.484917 2.499268 51.484917-24.092942v-0.799766c0-9.597188-4.098799-18.494582-11.296691-24.492824-20.893879-17.594845-65.380845-55.183833-86.274724-72.778678-7.197891-6.098213-11.396661-15.095577-11.396661-24.492824z m-114.966318-83.975398V131.961339c0-2.199356 1.799473-3.998828 3.998828-3.998828h42.987406c2.199356 0 3.998828 1.799473 3.998829 3.998828v174.548863c0 3.399004-3.998828 5.298448-6.598067 3.099092l-42.987406-36.289368a4.098799 4.098799 0 0 1-1.39959-3.099092z" /></svg>