<?xml version="1.0" standalone="no"?><!DOCTYPE svg PUBLIC "-//W3C//DTD SVG 1.1//EN" "http://www.w3.org/Graphics/SVG/1.1/DTD/svg11.dtd"><svg class="icon" width="200px" height="200.00px" viewBox="0 0 1024 1024" version="1.1" xmlns="http://www.w3.org/2000/svg"><path fill="#333333" d="M574.131797 783.970321v231.932051c0 4.398711-3.598946 7.997657-7.997657 7.997657H455.566533c-4.398711 0-7.997657-3.598946-7.997657-7.997657v-232.931758c0-35.189691 28.891536-63.781314 64.181197-63.28146 34.789808 0.599824 62.381724 29.591331 62.381724 64.281167zM928.428 991.909402c0 17.694816-14.295812 32.090598-31.990628 32.090598H646.11071c-4.398711 0-7.997657-3.598946-7.997657-7.997657V784.470175c0-70.27941-56.483452-128.362394-126.762863-128.662306-70.479352-0.199941-127.662599 56.783364-127.662598 127.262716v232.931758c0 4.398711-3.598946 7.997657-7.997657 7.997657H127.062775c-17.694816 0-31.990628-14.295812-31.990628-31.990628l0.099971-417.977545c0-18.494582 7.997657-36.189398 21.993556-48.285854l331.302939-287.91565c36.089427-31.390803 89.773699-31.390803 125.863126 0l331.402909 287.91565c13.9959 12.096456 21.993557 29.691301 21.993557 48.185883l0.699795 417.977546zM1023.700088 475.960558v0.799766c0 26.592209-31.090891 41.087963-51.484917 24.092942L914.732012 452.767353l-178.947574-150.955774-162.552377-137.059846c-35.789515-30.191155-87.974226-30.191155-123.763741 0l-397.083667 334.901884C31.690716 517.148492 0 502.452797 0 475.360734v-0.399883c0-9.397247 4.098799-18.29464 11.29669-24.292883L428.874353 98.37118c47.686029-40.188226 117.365616-40.188226 165.051645 0L722.688275 206.939373c5.198477 4.398711 13.196134 0.699795 13.196134-6.098213V95.971883c0-17.694816 14.295812-31.990628 31.990628-31.990628h114.966318c17.694816 0 31.990628 14.295812 31.990628 31.990628v258.224349c0 9.397247 4.19877 18.394611 11.396661 24.492824 20.993849 17.694816 65.380845 55.183833 86.274724 72.778678 7.097921 5.998243 11.19672 14.895636 11.19672 24.492824z" /></svg>