<?xml version="1.0" standalone="no"?><!DOCTYPE svg PUBLIC "-//W3C//DTD SVG 1.1//EN" "http://www.w3.org/Graphics/SVG/1.1/DTD/svg11.dtd"><svg class="icon" width="200px" height="200.00px" viewBox="0 0 1024 1024" version="1.1" xmlns="http://www.w3.org/2000/svg"><path fill="#333333" d="M968.4 832.8V315.2c0-19.9-16.2-36.1-36.1-36.1H731.1v541c0 7-5.6 12.6-12.6 12.7-7 0-12.7-5.7-12.7-12.7V132c0-19.9-16.2-36.1-36.1-36.1H354c-19.9 0-36.1 16.2-36.1 36.1v688.3c0 7-5.7 12.6-12.6 12.6-6.9 0-12.6-5.7-12.6-12.6V279.2H96.3c-19.9 0-36.1 16.2-36.1 36.1L64 832l-64-0.5v80.6h1024v-80.6l-55.6 1.3z m-776-463.3h51.8v51.9h-51.8v-51.9z m0 87.9h51.8v51.9h-51.8v-51.9z m0 90.9h51.8v51.8h-51.8v-51.8z m-80.8-178.8h51.8v51.9h-51.8v-51.9z m0 87.9h51.8v51.9h-51.8v-51.9z m0 90.9h51.8v51.8h-51.8v-51.8z m0 87h51.8v51.8h-51.8v-51.8z m53.2 136.4H113v-51.8h51.8v51.8z m27.6-136.4h51.8v51.8h-51.8v-51.8z m53.1 136.4h-51.9v-51.8h51.9v51.8zM592 858H432V545c0-8.8 7.2-16 16-16h128c8.8 0 16 7.2 16 16v313z m-80-457.5c-61.7 0-111.8-50-111.8-111.8S450.3 177 512 177s111.8 50 111.8 111.8S573.7 400.5 512 400.5z m352.6-31h51.9v51.9h-51.9v-51.9z m0 87.9h51.9v51.9h-51.9v-51.9z m0 90.9h51.9v51.8h-51.9v-51.8z m-80.8-178.8h51.8v51.9h-51.8v-51.9z m0 87.9h51.8v51.9h-51.8v-51.9z m0 90.9h51.8v51.8h-51.8v-51.8z m0 87h51.8v51.8h-51.8v-51.8zM837 771.7h-51.9v-51.8H837v51.8z m27.6-136.4h51.9v51.8h-51.9v-51.8z m53 136.4h-51.8v-51.8h51.8v51.8zM576 277v24c0 2.2-1.8 4-4 4h-40c-2.2 0-4 1.8-4 4v40c0 2.2-1.8 4-4 4h-24c-2.2 0-4-1.8-4-4v-40c0-2.2-1.8-4-4-4h-40c-2.2 0-4-1.8-4-4v-24c0-2.2 1.8-4 4-4h40c2.2 0 4-1.8 4-4v-44h32v44c0 2.2 1.8 4 4 4h40c2.2 0 4 1.8 4 4z" /></svg>