<?xml version="1.0" standalone="no"?><!DOCTYPE svg PUBLIC "-//W3C//DTD SVG 1.1//EN" "http://www.w3.org/Graphics/SVG/1.1/DTD/svg11.dtd"><svg class="icon" width="200px" height="200.00px" viewBox="0 0 1024 1024" version="1.1" xmlns="http://www.w3.org/2000/svg"><path fill="#333333" d="M511.200001 0.00068C295.200144 0.40068 119.500261 176.900563 120.00026 392.900419c0.3 131.699913 65.499957 248.099835 165.299891 318.999788 18.999987 13.499991 45.59997 2.999998 49.999966-19.899987 2.399998-12.299992-2.599998-24.899983-12.799991-32.099978-15.09999-10.699993-29.199981-22.699985-42.499972-35.899976-30.09998-30.09998-53.799964-65.199957-70.299953-104.299931-16.999989-40.399973-25.699983-83.399945-25.699983-127.699915s8.699994-87.299942 25.799983-127.699916c16.499989-38.999974 40.199973-74.099951 70.299953-104.29993 30.09998-30.09998 65.199957-53.799964 104.299931-70.299954C424.700058 72.700632 467.700029 64.000637 512 64.000637s87.299942 8.699994 127.699915 25.799983c38.999974 16.499989 74.099951 40.199973 104.299931 70.299954 30.09998 30.09998 53.799964 65.199957 70.299953 104.29993 16.999989 40.299973 25.699983 83.299945 25.699983 127.599916s-8.699994 87.299942-25.799983 127.599915c-16.499989 39.099974-40.199973 74.099951-70.299953 104.299931-13.199991 13.199991-27.399982 25.199983-42.499972 35.899976-10.199993 7.199995-15.19999 19.799987-12.799991 32.099979 4.399997 22.899985 30.999979 33.399978 49.999967 19.899986C838.699783 640.900254 903.99974 524.100332 903.99974 392.00042 903.99974 175.200564 728.099856-0.39932 511.200001 0.00068zM649.199909 1024H374.800091c-20.099987 0-35.299977-18.399988-31.399979-38.099975l43.199971-222.399852L399.000075 700.000215l40.799973-209.89986c1.999999-10.299993-1.299999-20.899986-8.599994-28.499982-19.399987-20.199987-31.199979-47.599968-31.19998-77.699948 0.1-60.89996 49.499967-110.999926 110.399927-111.799926h1.599999c61.799959 0 111.999926 50.099967 111.999926 111.999926 0 30.09998-11.899992 57.499962-31.29998 77.599948-7.299995 7.599995-10.499993 18.199988-8.499994 28.499981L624.999925 700.000215l12.299992 63.499958 43.199971 222.399852c3.899997 19.699987-11.199993 38.099975-31.299979 38.099975z" /></svg>