<?xml version="1.0" standalone="no"?><!DOCTYPE svg PUBLIC "-//W3C//DTD SVG 1.1//EN" "http://www.w3.org/Graphics/SVG/1.1/DTD/svg11.dtd"><svg class="icon" width="200px" height="200.00px" viewBox="0 0 1024 1024" version="1.1" xmlns="http://www.w3.org/2000/svg"><path fill="#333333" d="M511.200001 0.00068C295.200144 0.40068 119.500261 176.900563 120.00026 392.900419c0.3 131.699913 65.499957 248.099835 165.299891 318.999788 18.999987 13.499991 45.59997 2.999998 49.999966-19.899987 2.399998-12.299992-2.599998-24.899983-12.799991-32.099978-15.09999-10.699993-29.199981-22.699985-42.499972-35.899976-30.09998-30.09998-53.799964-65.199957-70.299953-104.299931-16.999989-40.399973-25.699983-83.399945-25.699983-127.699915s8.699994-87.299942 25.799983-127.699916c16.499989-38.999974 40.199973-74.099951 70.299953-104.29993 30.09998-30.09998 65.199957-53.799964 104.299931-70.299954C424.700058 72.700632 467.700029 64.000637 512 64.000637s87.299942 8.699994 127.699915 25.799983c38.999974 16.499989 74.099951 40.199973 104.299931 70.299954 30.09998 30.09998 53.799964 65.199957 70.299953 104.29993 16.999989 40.299973 25.699983 83.299945 25.699983 127.599916s-8.699994 87.299942-25.799983 127.599915c-16.499989 39.099974-40.199973 74.099951-70.299953 104.299931-13.199991 13.199991-27.399982 25.199983-42.499972 35.899976-10.199993 7.199995-15.19999 19.799987-12.799991 32.099979 4.399997 22.899985 30.999979 33.399978 49.999967 19.899986C838.699783 640.900254 903.99974 524.100332 903.99974 392.00042 903.99974 175.200564 728.099856-0.39932 511.200001 0.00068zM512 336.000457c26.399982 0 47.999968 21.499986 47.999968 47.999968 0 12.499992-4.799997 24.299984-13.399991 33.299978-21.799986 22.599985-31.199979 54.399964-25.199983 84.999943l40.799973 209.899861 12.299991 63.499958L610.399935 960.000042H413.600065l35.799977-184.299877 12.299991-63.499958 40.799973-209.899861c5.999996-30.59998-3.499998-62.399959-25.299983-85.099943-8.599994-8.999994-13.399991-20.799986-13.399991-33.299978 0-12.499992 4.999997-24.499984 13.999991-33.599978 8.999994-9.099994 20.799986-14.199991 33.399978-14.39999h0.199999l0.6 0.1m0-63.999958h-1.599999c-60.89996 0.799999-110.299927 50.999966-110.399927 111.899926 0 30.19998 11.899992 57.599962 31.19998 77.699948 7.299995 7.599995 10.599993 18.199988 8.599994 28.499982L399.000075 700.000215l-12.299992 63.499958-43.199971 222.399852c-3.799997 19.799987 11.299992 38.099975 31.399979 38.099975h274.399818c20.099987 0 35.299977-18.399988 31.399979-38.099975l-43.199971-222.399852L624.999925 700.000215l-40.799973-209.89986c-1.999999-10.299993 1.199999-20.899986 8.499994-28.499982 19.399987-20.099987 31.299979-47.499968 31.29998-77.599948 0-61.899959-50.099967-111.999926-111.999926-111.999926z" /></svg>