<?xml version="1.0" standalone="no"?><!DOCTYPE svg PUBLIC "-//W3C//DTD SVG 1.1//EN" "http://www.w3.org/Graphics/SVG/1.1/DTD/svg11.dtd"><svg class="icon" width="200px" height="200.00px" viewBox="0 0 1024 1024" version="1.1" xmlns="http://www.w3.org/2000/svg"><path fill="#333333" d="M959.9 945.6c-20.4-0.6-36.5-17.2-36.5-37.6l1-525.1h42.7c24.8 0 28.9-12.1 9.6-26.9L516.7 5.3C512.1 1.8 506.1 0 500.1 0c-6.6 0-13.3 2.1-18.3 6.3L46.2 369.5c-18.9 15.8-13.9 29 10.6 29.5l42.8 0.9 1.7 507.9c0.1 20.8-16.8 37.7-37.5 37.7h-0.5c-21 0-38.1 17.2-38.1 38.3v0.5c0.3 21.5 17.7 38.9 39.1 38.9l896.4 0.8h0.1c20.9 0 37.9-17.1 37.9-38.2v-0.5c-0.1-21.5-17.3-39.1-38.8-39.7zM577.5 568.9l-118.4-0.6c-2.2 0-4-1.8-4-4V459.2c0-2.2 1.8-4 4-4l118.4 1.4c2.2 0 4 1.8 4 4v104.3c0 2.2-1.8 4-4 4z m4 92.5v248.8l-122.4-0.7c-2.2 0-4-1.8-4-4V661.4c0-2.2 1.8-4 4-4h118.4c2.2 0 4 1.8 4 4z m-4-294.8l-118.4-0.5c-2.2 0-4-1.8-4-4V256.9c0-2.2 1.8-4 4-4l118.4 1.4c2.2 0 4 1.8 4 4v104.3c0 2.2-1.8 4-4 4z m-236.2 94v104.3c0 2.2-1.8 4-4 4l-118.4-0.5c-2.2 0-4-1.8-4-4V459.2c0-2.2 1.8-4 4-4h0.1l118.4 1.4c2.2 0 3.9 1.8 3.9 4zM214.9 661.4c0-2.2 1.8-4 4-4l118.4 1.2c2.2 0 4 1.8 4 4v104.6c0 2.2-1.8 4-4 4l-118.4-0.4c-2.2 0-4-1.8-4-4V661.4z m467.8 105.3V657.4l122.5 1.2c2.2 0 4 1.8 4 4v104.5c0 2.2-1.8 4-4 4l-118.4-0.5c-2.3 0.1-4.1-1.7-4.1-3.9z m126.4-201.8c0 2.2-1.8 4-4 4l-118.4-0.6c-2.2 0-4-1.8-4-4V459.2c0-2.2 1.8-4 4-4l118.4 1.4c2.2 0 4 1.8 4 4v104.3z" /></svg>