<?xml version="1.0" standalone="no"?><!DOCTYPE svg PUBLIC "-//W3C//DTD SVG 1.1//EN" "http://www.w3.org/Graphics/SVG/1.1/DTD/svg11.dtd"><svg class="icon" width="200px" height="200.00px" viewBox="0 0 1024 1024" version="1.1" xmlns="http://www.w3.org/2000/svg"><path fill="#333333" d="M320 784c26.5 0 48 21.5 48 48s-21.5 48-48 48-48-21.5-48-48 21.6-48 48-48m0-64c-61.9 0-112 50.1-112 112s50.1 112 112 112 112-50.1 112-112-50.1-112-112-112zM112 896c8.8 0 16 7.2 16 16s-7.2 16-16 16-16-7.2-16-16 7.2-16 16-16m0-64c-44.2 0-80 35.8-80 80s35.8 80 80 80 80-35.8 80-80-35.8-80-80-80zM926.3 500.8c9.1 19.8 14.1 41.9 14.1 65.1 0 86-69.2 155.8-154.5 155.8-26.3 0-51.1-6.7-72.8-18.4-1.6-0.9-3.6-0.5-4.7 1-38.8 48.6-98.3 79.8-165.1 79.8-78.6 0-147.2-43.2-183.7-107.3-1-1.7-3-2.4-4.8-1.5-19.5 9.4-41.4 14.8-64.5 14.8-69.5 0-127.9-47.8-144.7-112.6-0.4-1.7-2-2.9-3.8-2.8-2.7 0.2-5.5 0.3-8.2 0.3C59.8 575 0 514.7 0 440.3c0-68.8 51.2-125.6 117.3-133.7 1.8-0.2 3.2-1.8 3.2-3.7 0-110.8 89.1-200.5 198.9-200.5 53.9 0 102.9 21.7 138.7 56.8 1.8 1.8 4.8 1.3 5.9-1C496.8 92.7 563.9 48 641.5 48c82.4 0 153.1 50.5 183.3 122.5 0.7 1.6 2.3 2.5 4 2.2 8.4-1.3 16.9-2 25.7-2 93.7 0 169.6 76.6 169.6 171 0 67.9-39.2 126.5-96.1 154.1-1.8 1-2.6 3.2-1.7 5z" /></svg>