<?xml version="1.0" standalone="no"?><!DOCTYPE svg PUBLIC "-//W3C//DTD SVG 1.1//EN" "http://www.w3.org/Graphics/SVG/1.1/DTD/svg11.dtd"><svg class="icon" width="200px" height="199.80px" viewBox="0 0 1025 1024" version="1.1" xmlns="http://www.w3.org/2000/svg"><path fill="#333333" d="M272.5 224c44.1 0 80 35.9 80 80s-35.9 80-80 80-80-35.9-80-80 35.9-80 80-80m0-64c-79.5 0-144 64.5-144 144s64.5 144 144 144 144-64.5 144-144-64.5-144-144-144zM929 32h-833c-53 0-96 43-96 96v736c0 53 43 96 96 96h833c53 0 96-43 96-96V128c0-53-43-96-96-96z m-865 128c0-35.3 28.7-64 64-64h769c35.3 0 64 28.7 64 64v170c0 5.1-4.7 8.9-9.7 7.8-37.9-8.3-74.6-8.7-109.6-1.1-47.9 10.4-90.1 35-128.8 75.3-32.3 33.6-57.3 72.7-81.6 110.4-39.1 61-72.9 113.6-121.5 117.6-33.5 2.7-57.7-17.5-94.5-50.6-19.8-17.8-40.2-36.2-65-50.9-30-17.8-60.7-26.5-93.7-26.5h-0.4c-49.1 0-98.1 19.3-145.6 57.4-6.6 5.3-13.2 10.9-19.8 17-10.2 9.4-26.8 2.1-26.8-11.8V160z m897 672c0 35.3-28.7 64-64 64h-769c-35.3 0-64-28.7-64-64v-96.1c0-14.1 4.6-27.7 13.2-38.9 61.2-80.3 121.3-121 179-121h0.3c48.5 0.1 81.3 29.7 116.1 61 35.2 31.7 74.7 67.3 131.3 67.3 3.7 0 7.5-0.2 11.3-0.5 37.1-3 70.3-20.4 101.5-53 25.2-26.4 46.3-59.1 68.5-93.8 44.3-69 90.1-140.5 170.1-157.8 25.3-5.5 52.1-5.3 80.2 0.6 14.9 3.1 25.5 16.2 25.5 31.3V832z" /></svg>