<?xml version="1.0" standalone="no"?><!DOCTYPE svg PUBLIC "-//W3C//DTD SVG 1.1//EN" "http://www.w3.org/Graphics/SVG/1.1/DTD/svg11.dtd"><svg class="icon" width="200px" height="199.80px" viewBox="0 0 1025 1024" version="1.1" xmlns="http://www.w3.org/2000/svg"><path fill="#333333" d="M929 32h-833c-53 0-96 43-96 96v736c0 53 43 96 96 96h833c53 0 96-43 96-96V128c0-53-43-96-96-96z m32 298c0 5.1-4.7 8.9-9.7 7.8-37.9-8.3-74.6-8.7-109.6-1.1-47.9 10.4-90.1 35-128.8 75.3-32.3 33.6-57.3 72.7-81.6 110.4-39.1 61-72.9 113.6-121.5 117.6-33.5 2.7-57.7-17.5-94.5-50.6-19.8-17.8-40.2-36.2-65-50.9-30-17.8-60.7-26.5-93.7-26.5h-0.4c-49.1 0-98.1 19.3-145.6 57.4-6.6 5.3-13.2 10.9-19.8 17-10.2 9.4-26.8 2.1-26.8-11.8V160c0-35.4 28.7-64 64-64h769c35.3 0 64 28.6 64 64v170zM272.5 304m-144 0a144 144 0 1 0 288 0 144 144 0 1 0-288 0Z" /></svg>