<?xml version="1.0" standalone="no"?><!DOCTYPE svg PUBLIC "-//W3C//DTD SVG 1.1//EN" "http://www.w3.org/Graphics/SVG/1.1/DTD/svg11.dtd"><svg class="icon" width="200px" height="200.00px" viewBox="0 0 1024 1024" version="1.1" xmlns="http://www.w3.org/2000/svg"><path fill="#333333" d="M1019.4 468.6L864.2 80.5C844.8 31.9 797.7 0 745.3 0H278.7c-52.3 0-99.4 31.9-118.8 80.5L4.6 468.6c-3 7.6-4.6 15.6-4.6 23.8V960c0 35.3 28.7 64 64 64h896c35.3 0 64-28.7 64-64V492.3c0-8.1-1.5-16.2-4.6-23.7zM77.7 458.1l141.5-353.8C229 79.9 252.5 64 278.7 64h466.7c26.2 0 49.7 15.9 59.4 40.2L946.3 458c4.2 10.5-3.5 21.9-14.8 21.9H755.6c-13.8 0-26 8.8-30.3 21.9l-14 42.1-14 42.1c-4.3 13.1-16.6 21.9-30.4 21.9H357.2c-13.8 0-26-8.8-30.4-21.9l-14-42.1-14-42.1c-4.3-13.1-16.6-21.9-30.3-21.9H92.6c-11.4 0.1-19.1-11.3-14.9-21.8z" /></svg>