<?xml version="1.0" standalone="no"?><!DOCTYPE svg PUBLIC "-//W3C//DTD SVG 1.1//EN" "http://www.w3.org/Graphics/SVG/1.1/DTD/svg11.dtd"><svg class="icon" width="200px" height="200.00px" viewBox="0 0 1024 1024" version="1.1" xmlns="http://www.w3.org/2000/svg"><path fill="#333333" d="M0.000244 95.953148v831.593948c0 52.974134 42.979014 95.953148 95.953148 95.953148h831.593948c52.974134 0 95.953148-42.979014 95.953148-95.953148v-831.593948c0-52.974134-42.979014-95.953148-95.953148-95.953148h-831.593948c-52.974134 0-95.953148 42.979014-95.953148 95.953148z m895.562714 863.578331h-767.625183c-35.282772 0-63.968765-28.685993-63.968766-63.968765v-767.625183c0-35.282772 28.685993-63.968765 63.968766-63.968766h767.625183c35.282772 0 63.968765 28.685993 63.968765 63.968766v767.625183c0 35.282772-28.685993 63.968765-63.968765 63.968765zM767.625427 272.866764v478.766228c0 8.795705-7.196486 15.992191-15.992191 15.992191h-478.766228c-8.795705 0-15.992191-7.196486-15.992191-15.992191v-478.766228c0-8.795705 7.196486-15.992191 15.992191-15.992191h478.766228c8.795705 0 15.992191 7.196486 15.992191 15.992191z m-510.75061-79.960956c-35.282772 0-63.968765 28.685993-63.968765 63.968765v510.75061c0 35.282772 28.685993 63.968765 63.968765 63.968765h510.75061c35.282772 0 63.968765-28.685993 63.968765-63.968765v-510.75061c0-35.282772-28.685993-63.968765-63.968765-63.968765h-510.75061z" /></svg>