<?xml version="1.0" standalone="no"?><!DOCTYPE svg PUBLIC "-//W3C//DTD SVG 1.1//EN" "http://www.w3.org/Graphics/SVG/1.1/DTD/svg11.dtd"><svg class="icon" width="200px" height="200.00px" viewBox="0 0 1024 1024" version="1.1" xmlns="http://www.w3.org/2000/svg"><path fill="#333333" d="M918.6 642.7c-6.2 6.3-6.2 16.4 0 22.6l63.7 63.7c12.5 12.5 12.5 32.8 0 45.3s-32.8 12.5-45.3 0l-67.4-67.4c-5.7-5.7-14.9-6.3-21.2-1.2-22.1 17.5-46.2 34.4-72.1 49.9-6.8 4.1-9.5 12.5-6.5 19.8 11.6 28.1 38.2 92.1 38.2 92.1 6.8 16.3-1 35-17.3 41.8-16.3 6.8-35-1-41.8-17.3l-35.7-86.2c-3.3-8.1-12.6-12-20.7-8.7-41.3 16.3-86.1 28-134 32.7-8.2 0.8-14.5 7.7-14.5 15.9v97.7c0 17.4-13.7 32.2-31.1 32.7-18.1 0.5-32.9-14-32.9-32v-98.3c0-8.3-6.3-15.1-14.5-15.9-44.7-4.4-86.6-14.9-125.6-29.5-8.1-3-17.1 0.8-20.5 8.8L285.1 892c-6.8 16.3-25.5 24.1-41.8 17.3-16.3-6.8-24.1-25.5-17.3-41.8l36.2-87.4c3.1-7.4 0.2-15.9-6.7-19.9-28.9-16.7-55.6-35.3-79.9-54.5-6.4-5-15.5-4.5-21.2 1.2L87 774.2c-12.5 12.5-32.8 12.5-45.3 0s-12.5-32.8 0-45.3l63.7-63.7c6.2-6.2 6.2-16.3 0-22.6-50-50.5-83.2-96.9-97.5-118.3-3.5-5.3 0.3-12.4 6.7-12.4H46c19.4 0 37.8 8.9 49.9 24 21.1 26.3 49.9 58.8 85.7 91 46.2 41.6 94.9 74.6 144.6 98.1 60.6 28.6 123 43 185.8 43s125.2-14.4 185.7-42.9c49.7-23.4 98.4-56.4 144.6-98.1 35.7-32.2 64.6-64.7 85.7-91 12.2-15.1 30.5-24 49.9-24h31.4c6.4 0 10.2 7.1 6.7 12.4-14.3 21.4-47.5 67.9-97.4 118.3z" /></svg>