<?xml version="1.0" standalone="no"?><!DOCTYPE svg PUBLIC "-//W3C//DTD SVG 1.1//EN" "http://www.w3.org/Graphics/SVG/1.1/DTD/svg11.dtd"><svg class="icon" width="200px" height="200.00px" viewBox="0 0 1024 1024" version="1.1" xmlns="http://www.w3.org/2000/svg"><path fill="#333333" d="M687.999823 0H336.000177c-35.299964 0-63.999936 28.699971-63.999936 63.999936v255.999742c0 35.299964 28.699971 63.999936 63.999936 63.999936h75.999924c2.199998 0 3.999996 1.799998 3.999996 3.999996v39.999959c0 2.199998 1.799998 3.999996 3.999996 3.999996h19.999979c4.399996 0 7.999992 3.599996 7.999992 7.999992v519.099478c0 35.399964 28.399971 64.799935 63.799936 64.899935 17.799982 0.1 33.799966-7.099993 45.499954-18.699981 11.599988-11.599988 18.699981-27.599972 18.699982-45.299955V439.999557c0-4.399996 3.599996-7.999992 7.999992-7.999992h19.999979c2.199998 0 3.999996-1.799998 3.999996-3.999996v-39.999959c0-2.199998 1.799998-3.999996 3.999996-3.999996h75.999924c35.299964 0 63.999936-28.699971 63.999936-63.999936V63.999936c0-35.299964-28.699971-63.999936-63.999936-63.999936zM543.999968 959.999034c0 17.699982-14.299986 31.999968-31.999968 31.999968s-31.999968-14.299986-31.999968-31.999968V527.999469l63.999936-0.599999V959.999034z m143.999855-655.99934c0 8.799991-7.199993 15.999984-15.999984 15.999984h-63.999936c-26.499973 0-47.999952 21.499978-47.999951 47.999952v11.999988c0 2.199998-1.799998 3.999996-3.999996 3.999996h-87.999912c-2.199998 0-3.999996-1.799998-3.999996-3.999996v-11.999988c0-26.499973-21.499978-47.999952-47.999951-47.999952h-63.999936c-8.799991 0-15.999984-7.199993-15.999984-15.999984V79.99992c0-8.799991 7.199993-15.999984 15.999984-15.999984h319.999678c8.799991 0 15.999984 7.199993 15.999984 15.999984v223.999774zM583.999928 95.999903H440.000072c-13.299987 0-23.999976 10.699989-23.999975 23.999976s10.699989 23.999976 23.999975 23.999976h143.999856c13.299987 0 23.999976-10.699989 23.999975-23.999976s-10.699989-23.999976-23.999975-23.999976z" /></svg>