<?xml version="1.0" standalone="no"?><!DOCTYPE svg PUBLIC "-//W3C//DTD SVG 1.1//EN" "http://www.w3.org/Graphics/SVG/1.1/DTD/svg11.dtd"><svg class="icon" width="200px" height="200.00px" viewBox="0 0 1024 1024" version="1.1" xmlns="http://www.w3.org/2000/svg"><path fill="#333333" d="M960 224H64c-35.3 0-64 28.6-64 64v464c0 35.3 28.7 64 64 64h896c35.3 0 64-28.7 64-64V288c0-35.4-28.7-64-64-64zM136 480h48c4.4 0 8 3.6 8 8v48c0 4.4-3.6 8-8 8h-48c-4.4 0-8-3.6-8-8v-48c0-4.4 3.6-8 8-8z m-8-56v-48c0-4.4 3.6-8 8-8h80c4.4 0 8 3.6 8 8v48c0 4.4-3.6 8-8 8h-80c-4.4 0-8-3.6-8-8z m8 184h48c4.4 0 8 3.6 8 8v48c0 4.4-3.6 8-8 8h-48c-4.4 0-8-3.6-8-8v-48c0-4.4 3.6-8 8-8z m176-128c4.4 0 8 3.6 8 8v48c0 4.4-3.6 8-8 8h-48c-4.4 0-8-3.6-8-8v-48c0-4.4 3.6-8 8-8h48z m-40-56v-48c0-4.4 3.6-8 8-8h80c4.4 0 8 3.6 8 8v48c0 4.4-3.6 8-8 8h-80c-4.4 0-8-3.6-8-8z m-8 184h368c4.4 0 8 3.6 8 8v48c0 4.4-3.6 8-8 8H264c-4.4 0-8-3.6-8-8v-48c0-4.4 3.6-8 8-8z m448 0h48c4.4 0 8 3.6 8 8v48c0 4.4-3.6 8-8 8h-48c-4.4 0-8-3.6-8-8v-48c0-4.4 3.6-8 8-8z m-8-184v-48c0-4.4 3.6-8 8-8h80c4.4 0 8 3.6 8 8v48c0 4.4-3.6 8-8 8h-80c-4.4 0-8-3.6-8-8z m0 112c0 4.4-3.6 8-8 8h-48c-4.4 0-8-3.6-8-8v-48c0-4.4 3.6-8 8-8h48c4.4 0 8 3.6 8 8v48z m-48-112c0 4.4-3.6 8-8 8h-80c-4.4 0-8-3.6-8-8v-48c0-4.4 3.6-8 8-8h80c4.4 0 8 3.6 8 8v48z m-88 56c4.4 0 8 3.6 8 8v48c0 4.4-3.6 8-8 8h-48c-4.4 0-8-3.6-8-8v-48c0-4.4 3.6-8 8-8h48z m-56-56c0 4.4-3.6 8-8 8h-80c-4.4 0-8-3.6-8-8v-48c0-4.4 3.6-8 8-8h80c4.4 0 8 3.6 8 8v48z m-72 56c4.4 0 8 3.6 8 8v48c0 4.4-3.6 8-8 8h-48c-4.4 0-8-3.6-8-8v-48c0-4.4 3.6-8 8-8h48z m392 184v-48c0-4.4 3.6-8 8-8h48c4.4 0 8 3.6 8 8v48c0 4.4-3.6 8-8 8h-48c-4.4 0-8-3.6-8-8z m64-152c0 17.7-14.3 32-32 32H760c-4.4 0-8-3.6-8-8v-48c0-4.4 3.6-8 8-8h64c4.4 0 8-3.6 8-8v-96c0-4.4 3.6-8 8-8h48c4.4 0 8 3.6 8 8v136z" /></svg>