<?xml version="1.0" standalone="no"?><!DOCTYPE svg PUBLIC "-//W3C//DTD SVG 1.1//EN" "http://www.w3.org/Graphics/SVG/1.1/DTD/svg11.dtd"><svg class="icon" width="200px" height="199.80px" viewBox="0 0 1025 1024" version="1.1" xmlns="http://www.w3.org/2000/svg"><path fill="#333333" d="M369.88173 447.9c21-70.4 71-72.5 96-160 7.8-27.3 22.5-78.8 0-128-28.6-62.7-104.6-93.3-160-96-2.8-0.1-5.6-0.2-8.4-0.2C165.18173 63.7 33.18173 213.8 5.88173 367.9c-27.2 153.5 41.6 355.6 172 384 11.2 2.5 23 3.6 35 3.6 70.8 0 149.1-40.8 173-99.6 21.4-52.6-12.7-90.4-20.7-144H433.88173c8.8 0 16 7.2 16 16v432h48v-448c0-35.3-28.7-64-64-64h-64z m-43.3 183.9c-5.8 14.2-20.7 28.8-40.9 40.1-22.3 12.5-48.9 19.6-72.9 19.6-7.6 0-14.8-0.7-21.4-2.2-18.6-4-36.5-14.9-53.2-32.2-17.9-18.6-33.9-44.4-46.3-74.7-12.6-30.7-21.4-65.7-25.4-101.1-4-35.5-3.2-70.9 2.4-102.4 5.6-31.6 16.5-63.4 32.4-94.6 15.5-30.3 35.4-58.9 57.8-82.8 43.8-47 94.3-74 138.4-74 1.8 0 3.5 0 5.3 0.1 20.3 1 43.8 7.7 62.9 18 14.2 7.6 32.9 20.8 42 40.7 12.7 27.8 3 61.5-3.3 83.9-9.1 32-21.5 45.7-38.6 64.6-19.2 21.2-43.1 47.6-57.2 94.7-20.1 67.5-2.5 117.6 10.4 154.2 10 28.7 12.1 37.2 7.6 48.1zM1019.98173 367.9C992.68173 213.8 860.68173 63.7 728.38173 63.7c-2.8 0-5.6 0.1-8.4 0.2-55.4 2.7-131.4 33.3-160 96-22.5 49.2-7.8 100.7 0 128 25 87.5 75 89.6 96 160h-62.4c-35.3 0-64 28.7-64 64h0.3v448.3h48V527.9c0-8.8 7.2-16 16-16h66.8c-8.1 53.6-42.1 91.4-20.7 144 23.9 58.8 102.2 99.6 173 99.6 12 0 23.7-1.2 35-3.6 130.4-28.3 199.2-230.5 172-384z m-60.7 113.6c-4 35.4-12.8 70.4-25.5 101.1-12.4 30.3-28.4 56.1-46.3 74.7-16.6 17.3-34.5 28.1-53.2 32.2-6.6 1.4-13.7 2.2-21.4 2.2-24 0-50.6-7.2-72.9-19.6-20.2-11.3-35.1-25.9-40.9-40.1-4.5-11-2.4-19.4 7.7-48 12.9-36.6 30.5-86.6 10.4-154.2-14-47-37.9-73.5-57.1-94.7-17.1-18.9-29.5-32.6-38.6-64.6-6.4-22.3-16-56.1-3.3-83.9 9.1-19.9 27.8-33.1 42-40.7 19.1-10.3 42.6-17 62.9-18 1.8-0.1 3.5-0.1 5.3-0.1 44.1 0 94.5 27 138.4 74 22.3 23.9 42.3 52.6 57.8 82.8 15.9 31.1 26.8 63 32.4 94.6 5.5 31.4 6.4 66.8 2.3 102.3z" /></svg>