<?xml version="1.0" standalone="no"?><!DOCTYPE svg PUBLIC "-//W3C//DTD SVG 1.1//EN" "http://www.w3.org/Graphics/SVG/1.1/DTD/svg11.dtd"><svg class="icon" width="200px" height="200.00px" viewBox="0 0 1024 1024" version="1.1" xmlns="http://www.w3.org/2000/svg"><path fill="#333333" d="M1024 338.4v-50.6c0-2.2-1.5-4.2-3.7-4.8l-11.1-3.1L616 170.6c-11.2-3.1-22.7-4.7-34.3-4.7-4.8 0-9.6 0.3-14.4 0.8L56.8 224.6C24.5 228.2 0 255.6 0 288.2v385.1c0 25.9 15.6 49.2 39.5 59.1l449.9 186.4 66.2 27.4c1.4 0.6 2.8 0.9 4.3 0.9 1.3 0.1 2.6 0.1 3.9 0.1 9.6 0 19.4-1.2 29.1-3.8l427.8-114.6c1.9-0.5 3.3-2.3 3.3-4.3v-57.1c0-2.5-2-4.4-4.4-4.4-0.4 0-0.8 0-1.1 0.1l-17.5 4.7c-2.1 0.5-4.2-0.6-4.8-2.6-13.3-40.1-8-74-2.8-92.7 0.4-1.4 1.5-2.4 2.8-2.8l24.2-6.5c2.2-0.6 3.7-2.6 3.7-4.8v-50.9c0-1.1-0.3-2.2-1-3.1-0.9-1-2.1-1.5-3.4-1.5-0.4 0-0.8 0-1.1 0.1l-17.5 4.7c-2.1 0.5-4.2-0.6-4.8-2.6-13.3-40.1-8-74-2.8-92.7 0.4-1.4 1.5-2.4 2.8-2.8l24.2-6.5c2.2-0.6 3.7-2.6 3.7-4.8v-50.9c0-1.1-0.3-2.2-1-3.1-0.9-1-2.1-1.5-3.4-1.5-0.4 0-0.8 0-1.1 0.1l-17.5 4.7c-2.1 0.5-4.2-0.6-4.8-2.6-13.3-40.1-8-74-2.8-92.7 0.4-1.4 1.5-2.4 2.8-2.8l24.2-6.5c1.9-0.4 3.4-2.3 3.4-4.6zM478.1 763.2c-4.1 4.9-7.9 10.3-11.2 16-7 12-11.5 25-13.7 38.4-1.3 8.1-9.8 13-17.4 9.8l-367-152c-3-1.2-4.9-4.2-4.9-7.4V329.4c0-5.4 5.2-9.2 10.3-7.6l57.7 17.7 227.4 69.9L460 440.2c7.8 2.4 11.3 11.5 7.2 18.6 0 0.1 0 0.1-0.1 0.1-0.5 0.8-0.9 1.7-1.4 2.5-13.9 25.4-17.4 54.7-9.9 82.7 4.2 15.8 11.9 30.4 22.3 42.8 3.9 4.7 3.9 11.5 0 16.2-4.1 4.9-7.8 10.3-11.1 16-15 25.9-18.9 56-11.2 85 4.3 15.8 12 30.4 22.3 42.8 3.9 4.8 4 11.6 0 16.3z m-99.8-415L169.2 284c-4.1-1.3-3.6-7.3 0.7-7.8l413.8-46.8c2-0.2 4.1-0.1 6.1 0.5l283.6 78.8c3.9 1.1 3.9 6.7 0 7.7l-157.3 42.2-121.7 32.6-37.3 10c-1.1 0.3-2.2 0.4-3.2 0.4-1.3 0-2.5-0.2-3.7-0.6l-18.6-5.7-153.3-47.1z m198.1 533.3c-4.1 1.1-8.3 1.7-12.5 1.7-1.3 0-2.6-0.1-3.9-0.2-20-1.6-37.1-15.8-42.4-35.4-3.3-12.4-1.6-25.3 4.8-36.4 6.4-11.1 16.8-19 29.2-22.4l6.6-1.8 1.8-0.5 359.7-96.4c2.7-0.7 5.3 1.5 5 4.2-2.2 24.5-0.8 54.4 9.4 87 0.7 2.2-0.6 4.4-2.8 5l-354.9 95.2z m0-160c-4.1 1.1-8.3 1.7-12.5 1.7-1.3 0-2.6-0.1-3.9-0.2-4.9-0.4-9.6-1.5-14-3.4-13.6-5.5-24.4-17.2-28.3-32.1-3.3-12.4-1.6-25.3 4.8-36.4 6.4-11.1 16.8-19 29.2-22.4l6.6-1.8 1.8-0.5 155.8-41.7 121.7-32.6 82.2-22c2.7-0.7 5.3 1.5 5 4.2-2.2 24.5-0.8 54.4 9.4 87 0.7 2.2-0.6 4.4-2.8 5l-355 95.2z m150-200.2L604.7 554l-28.3 7.6c-4.1 1.1-8.3 1.7-12.5 1.7-1.3 0-2.6-0.1-3.9-0.2-4.6-0.4-9.1-1.4-13.3-3.1-0.5-0.2-1-0.4-1.4-0.7l-7.9-4.3c-0.5-0.3-0.9-0.5-1.4-0.8-8.8-6.3-15.5-15.6-18.4-26.6-3.2-12.1-1.7-24.8 4.4-35.7 0.1-0.3 0.3-0.5 0.4-0.7 6.4-11.1 16.8-19 29.2-22.4l8.4-2.3 155.8-41.7 121.7-32.6 82.2-22c2.7-0.7 5.3 1.5 5 4.2-2.2 24.5-0.8 54.4 9.4 87 0.7 2.2-0.6 4.4-2.8 5l-204.9 54.9z" /></svg>