<?xml version="1.0" standalone="no"?><!DOCTYPE svg PUBLIC "-//W3C//DTD SVG 1.1//EN" "http://www.w3.org/Graphics/SVG/1.1/DTD/svg11.dtd"><svg class="icon" width="200px" height="200.00px" viewBox="0 0 1024 1024" version="1.1" xmlns="http://www.w3.org/2000/svg"><path fill="#333333" d="M1024 736V160c0-17.7-14.3-32-32-32H32c-17.7 0-32 14.3-32 32v576c0 17.7 14.3 32 32 32h348c2.2 0 4 1.8 4 4v108H260c-2.2 0-4 1.8-4 4v40c0 2.2 1.8 4 4 4h504c2.2 0 4-1.8 4-4v-40c0-2.2-1.8-4-4-4H640V772c0-2.2 1.8-4 4-4h348c17.7 0 32-14.3 32-32zM576 880H448v-96c0-8.8 7.2-16 16-16h96c8.8 0 16 7.2 16 16v96zM64 688V208c0-8.8 7.2-16 16-16h864c8.8 0 16 7.2 16 16v480c0 8.8-7.2 16-16 16H80c-8.8 0-16-7.2-16-16z" /></svg>