<?xml version="1.0" standalone="no"?><!DOCTYPE svg PUBLIC "-//W3C//DTD SVG 1.1//EN" "http://www.w3.org/Graphics/SVG/1.1/DTD/svg11.dtd"><svg class="icon" width="200px" height="200.00px" viewBox="0 0 1024 1024" version="1.1" xmlns="http://www.w3.org/2000/svg"><path fill="#333333" d="M960 200v600c0 35.3-28.7 64-64 64H384c-35.3 0-64-28.7-64-64V256c0-35.3 28.7-64 64-64h568c4.4 0 8 3.6 8 8z m-576-72c-70.7 0-128 57.3-128 128v544c0 70.7 57.3 128 128 128h512c70.7 0 128-57.3 128-128V160c0-17.7-14.3-32-32-32H384zM112 864c-26.5 0-48-21.5-48-48V240c0-26.5 21.5-48 48-48s48 21.5 48 48v576c0 26.5-21.5 48-48 48z m0-736C50.1 128 0 178.1 0 240v576c0 61.9 50.1 112 112 112s112-50.1 112-112V240c0-61.9-50.1-112-112-112zM492 688H388c-2.2 0-4-1.8-4-4v-56c0-2.2 1.8-4 4-4h104c2.2 0 4 1.8 4 4v56c0 2.2-1.8 4-4 4zM492 800H388c-2.2 0-4-1.8-4-4v-56c0-2.2 1.8-4 4-4h104c2.2 0 4 1.8 4 4v56c0 2.2-1.8 4-4 4zM492 576H388c-2.2 0-4-1.8-4-4v-56c0-2.2 1.8-4 4-4h104c2.2 0 4 1.8 4 4v56c0 2.2-1.8 4-4 4zM684 688H580c-2.2 0-4-1.8-4-4v-56c0-2.2 1.8-4 4-4h104c2.2 0 4 1.8 4 4v56c0 2.2-1.8 4-4 4zM684 800H580c-2.2 0-4-1.8-4-4v-56c0-2.2 1.8-4 4-4h104c2.2 0 4 1.8 4 4v56c0 2.2-1.8 4-4 4zM684 576H580c-2.2 0-4-1.8-4-4v-56c0-2.2 1.8-4 4-4h104c2.2 0 4 1.8 4 4v56c0 2.2-1.8 4-4 4zM892 688H788c-2.2 0-4-1.8-4-4v-56c0-2.2 1.8-4 4-4h104c2.2 0 4 1.8 4 4v56c0 2.2-1.8 4-4 4zM892 800H788c-2.2 0-4-1.8-4-4v-56c0-2.2 1.8-4 4-4h104c2.2 0 4 1.8 4 4v56c0 2.2-1.8 4-4 4zM892 576H788c-2.2 0-4-1.8-4-4v-56c0-2.2 1.8-4 4-4h104c2.2 0 4 1.8 4 4v56c0 2.2-1.8 4-4 4zM832 308v88c0 2.2-1.8 4-4 4H452c-2.2 0-4-1.8-4-4v-88c0-2.2 1.8-4 4-4h376c2.2 0 4 1.8 4 4z m-448-52v192c0 8.8 7.2 16 16 16h480c8.8 0 16-7.2 16-16V256c0-8.8-7.2-16-16-16H400c-8.8 0-16 7.2-16 16z" /></svg>