<?xml version="1.0" standalone="no"?><!DOCTYPE svg PUBLIC "-//W3C//DTD SVG 1.1//EN" "http://www.w3.org/Graphics/SVG/1.1/DTD/svg11.dtd"><svg class="icon" width="200px" height="200.00px" viewBox="0 0 1024 1024" version="1.1" xmlns="http://www.w3.org/2000/svg"><path fill="#333333" d="M977.286405 47.788333l-2.49939-2.49939c-61.385013-61.385013-161.960459-61.385013-223.345472 0L532.395021 264.435441c-48.688113 48.688113-58.785648 121.970222-30.292605 180.855845 5.89856 12.296998 3.499146 26.893434-6.198486 36.591067l-14.796388 14.796388c-9.597657 9.597657-24.294069 12.097047-36.591067 6.198486-58.885624-28.493044-132.167732-18.395509-180.855845 30.292605l-218.946547 218.946546c-61.385013 61.385013-61.385013 161.960459 0 223.345472l2.49939 2.49939c61.385013 61.385013 161.960459 61.385013 223.345473 0L489.605467 758.814742c48.588138-48.588138 58.785648-121.670295 30.492556-180.455943-5.89856-12.197022-3.39917-26.893434 6.198487-36.491091l14.996338-14.996339c9.597657-9.597657 24.194093-12.097047 36.491091-6.198486 58.785648 28.293093 131.867806 18.095582 180.455944-30.492556l219.146497-219.146497c61.385013-61.285038 61.385013-161.760508-0.099975-223.245497zM375.433341 692.830852c-12.6969 12.6969-33.491823 12.496949-45.888796-0.699829-11.997071-12.6969-11.197266-32.692019 1.099731-45.088992l77.781011-77.781011c5.498658-5.498658 14.096558-6.198487 20.494996-1.79956 4.598877 3.199219 8.897828 6.79834 12.996827 10.797364l2.49939 2.499389c4.198975 4.198975 7.898072 8.597901 11.097291 13.39673 4.398926 6.398438 3.599121 14.996339-1.899537 20.39502L375.433341 692.830852z m305.425434-305.425433L613.975104 454.28909c-5.498658 5.498658-13.996583 6.198487-20.395021 1.899536-4.798828-3.299195-9.29773-6.998291-13.396729-11.097291l-2.49939-2.49939c-3.999024-3.999024-7.598145-8.39795-10.797364-12.896851-4.398926-6.398438-3.699097-14.996339 1.799561-20.494996l66.983646-66.983647c12.496949-12.496949 32.791994-12.496949 45.288943 0 12.396973 12.396973 12.396973 32.692019-0.099975 45.188968z" /></svg>