<?xml version="1.0" standalone="no"?><!DOCTYPE svg PUBLIC "-//W3C//DTD SVG 1.1//EN" "http://www.w3.org/Graphics/SVG/1.1/DTD/svg11.dtd"><svg class="icon" width="200px" height="200.00px" viewBox="0 0 1024 1024" version="1.1" xmlns="http://www.w3.org/2000/svg"><path fill="#333333" d="M1020 192H292c-2.2 0-4-1.8-4-4v-88c0-2.2 1.8-4 4-4h728c2.2 0 4 1.8 4 4v88c0 2.2-1.8 4-4 4zM1020 560H292c-2.2 0-4-1.8-4-4v-88c0-2.2 1.8-4 4-4h728c2.2 0 4 1.8 4 4v88c0 2.2-1.8 4-4 4zM1020 928H292c-2.2 0-4-1.8-4-4v-88c0-2.2 1.8-4 4-4h728c2.2 0 4 1.8 4 4v88c0 2.2-1.8 4-4 4zM156 224H4c-2.2 0-4-1.8-4-4V68c0-2.2 1.8-4 4-4h152c2.2 0 4 1.8 4 4v152c0 2.2-1.8 4-4 4zM156 608H4c-2.2 0-4-1.8-4-4V452c0-2.2 1.8-4 4-4h152c2.2 0 4 1.8 4 4v152c0 2.2-1.8 4-4 4zM156 960H4c-2.2 0-4-1.8-4-4V804c0-2.2 1.8-4 4-4h152c2.2 0 4 1.8 4 4v152c0 2.2-1.8 4-4 4z" /></svg>