<?xml version="1.0" standalone="no"?><!DOCTYPE svg PUBLIC "-//W3C//DTD SVG 1.1//EN" "http://www.w3.org/Graphics/SVG/1.1/DTD/svg11.dtd"><svg class="icon" width="200px" height="200.00px" viewBox="0 0 1024 1024" version="1.1" xmlns="http://www.w3.org/2000/svg"><path fill="#333333" d="M960 224v44c0 2.2-1.8 4-4 4H292c-2.2 0-4-1.8-4-4v-40c0-2.2 1.8-4 4-4h668z m-720-64c-8.8 0-16 7.2-16 16v144c0 8.8 7.2 16 16 16h768c8.8 0 16-7.2 16-16V176c0-8.8-7.2-16-16-16H240zM960 480v44c0 2.2-1.8 4-4 4H292c-2.2 0-4-1.8-4-4v-40c0-2.2 1.8-4 4-4h668z m-720-64c-8.8 0-16 7.2-16 16v144c0 8.8 7.2 16 16 16h768c8.8 0 16-7.2 16-16V432c0-8.8-7.2-16-16-16H240zM960 736v44c0 2.2-1.8 4-4 4H292c-2.2 0-4-1.8-4-4v-40c0-2.2 1.8-4 4-4h668z m-720-64c-8.8 0-16 7.2-16 16v144c0 8.8 7.2 16 16 16h768c8.8 0 16-7.2 16-16V688c0-8.8-7.2-16-16-16H240zM0 176v144c0 8.8 7.2 16 16 16h144c8.8 0 16-7.2 16-16V176c0-8.8-7.2-16-16-16H16c-8.8 0-16 7.2-16 16z m108 96H68c-2.2 0-4-1.8-4-4v-40c0-2.2 1.8-4 4-4h40c2.2 0 4 1.8 4 4v40c0 2.2-1.8 4-4 4zM16 592h144c8.8 0 16-7.2 16-16V432c0-8.8-7.2-16-16-16H16c-8.8 0-16 7.2-16 16v144c0 8.8 7.2 16 16 16z m52-112h40c2.2 0 4 1.8 4 4v40c0 2.2-1.8 4-4 4H68c-2.2 0-4-1.8-4-4v-40c0-2.2 1.8-4 4-4zM16 848h144c8.8 0 16-7.2 16-16V688c0-8.8-7.2-16-16-16H16c-8.8 0-16 7.2-16 16v144c0 8.8 7.2 16 16 16z m52-112h40c2.2 0 4 1.8 4 4v40c0 2.2-1.8 4-4 4H68c-2.2 0-4-1.8-4-4v-40c0-2.2 1.8-4 4-4z" /></svg>