<?xml version="1.0" standalone="no"?><!DOCTYPE svg PUBLIC "-//W3C//DTD SVG 1.1//EN" "http://www.w3.org/Graphics/SVG/1.1/DTD/svg11.dtd"><svg class="icon" width="200px" height="200.00px" viewBox="0 0 1024 1024" version="1.1" xmlns="http://www.w3.org/2000/svg"><path fill="#333333" d="M0 160v752c0 8.8 7.2 16 16 16h992c8.8 0 16-7.2 16-16V160c0-35.3-28.7-64-64-64H64c-35.3 0-64 28.7-64 64z m68 128h888c2.2 0 4 1.8 4 4v568c0 2.2-1.8 4-4 4H68c-2.2 0-4-1.8-4-4V292c0-2.2 1.8-4 4-4z m892-64H64v-32c0-17.7 14.3-32 32-32h832c17.7 0 32 14.3 32 32v32zM828 608H308c-2.2 0-4-1.8-4-4v-56c0-2.2 1.8-4 4-4h520c2.2 0 4 1.8 4 4v56c0 2.2-1.8 4-4 4zM828 448H308c-2.2 0-4-1.8-4-4v-56c0-2.2 1.8-4 4-4h520c2.2 0 4 1.8 4 4v56c0 2.2-1.8 4-4 4zM828 768H308c-2.2 0-4-1.8-4-4v-56c0-2.2 1.8-4 4-4h520c2.2 0 4 1.8 4 4v56c0 2.2-1.8 4-4 4zM237 608h-56c-2.2 0-4-1.8-4-4v-56c0-2.2 1.8-4 4-4h56c2.2 0 4 1.8 4 4v56c0 2.2-1.8 4-4 4zM237 448h-56c-2.2 0-4-1.8-4-4v-56c0-2.2 1.8-4 4-4h56c2.2 0 4 1.8 4 4v56c0 2.2-1.8 4-4 4zM237 768h-56c-2.2 0-4-1.8-4-4v-56c0-2.2 1.8-4 4-4h56c2.2 0 4 1.8 4 4v56c0 2.2-1.8 4-4 4z" /></svg>