<?xml version="1.0" standalone="no"?><!DOCTYPE svg PUBLIC "-//W3C//DTD SVG 1.1//EN" "http://www.w3.org/Graphics/SVG/1.1/DTD/svg11.dtd"><svg class="icon" width="200px" height="200.00px" viewBox="0 0 1024 1024" version="1.1" xmlns="http://www.w3.org/2000/svg"><path fill="#333333" d="M1024 176v144c0 8.8-7.2 16-16 16H240c-8.8 0-16-7.2-16-16V176c0-8.8 7.2-16 16-16h768c8.8 0 16 7.2 16 16zM1024 432v144c0 8.8-7.2 16-16 16H240c-8.8 0-16-7.2-16-16V432c0-8.8 7.2-16 16-16h768c8.8 0 16 7.2 16 16zM1024 688v144c0 8.8-7.2 16-16 16H240c-8.8 0-16-7.2-16-16V688c0-8.8 7.2-16 16-16h768c8.8 0 16 7.2 16 16zM176 176v144c0 8.8-7.2 16-16 16H16c-8.8 0-16-7.2-16-16V176c0-8.8 7.2-16 16-16h144c8.8 0 16 7.2 16 16zM176 432v144c0 8.8-7.2 16-16 16H16c-8.8 0-16-7.2-16-16V432c0-8.8 7.2-16 16-16h144c8.8 0 16 7.2 16 16zM176 688v144c0 8.8-7.2 16-16 16H16c-8.8 0-16-7.2-16-16V688c0-8.8 7.2-16 16-16h144c8.8 0 16 7.2 16 16z" /></svg>