<?xml version="1.0" standalone="no"?><!DOCTYPE svg PUBLIC "-//W3C//DTD SVG 1.1//EN" "http://www.w3.org/Graphics/SVG/1.1/DTD/svg11.dtd"><svg class="icon" width="200px" height="200.00px" viewBox="0 0 1024 1024" version="1.1" xmlns="http://www.w3.org/2000/svg"><path fill="#333333" d="M816 624h-1 1zM1024 992c0 17.7-14.3 32-32 32H240.3v-0.6l-0.3 0.6h-1c-35.9 0-69.8-14-95.6-39.5-26-25.9-40.4-60.1-40.4-96.5s14.4-70.6 40.4-96.5c26-25.8 60.3-39.8 96.6-39.5h575c17.3 0 32-14.7 32-32 0-17.4-14.7-32-32-32H432l48-64h336c52.5 0.5 95 43.4 95 96s-42.5 95.5-95 96H239c-18.9 0-36.9 7.4-50.5 21-13.8 13.7-21.5 31.8-21.5 51s7.6 37.3 21.5 51c13.7 13.6 31.6 21 50.5 21h0.7l0.3 0.6v-0.6h752c17.7 0 32 14.3 32 32zM240.3 1024h-0.3l0.3-0.6zM816 816h-1 1zM288.4 64.4c59.7 0 115.9 23.3 158.1 65.5C488.8 172.2 512 228.3 512 288c0 49.8-16.3 97.1-47 137l-0.3 0.4-0.3 0.4-176 236.4-181.1-243c-27.9-38.5-42.6-83.9-42.6-131.3 0-59.7 23.3-115.9 65.5-158.1 42.3-42.1 98.4-65.4 158.2-65.4m0-64C129.5 0.4 0.7 129.3 0.7 288.1c0 63.1 20.4 121.5 55 169.2l232.7 312.3 227.3-305.3c37.7-48.8 60.4-109.6 60.4-176.1C576 129.3 447.2 0.4 288.4 0.4zM288 211.8c44.1 0 80 35.9 80 80s-35.9 80-80 80-80-35.9-80-80 35.9-80 80-80m0-64c-79.5 0-144 64.5-144 144s64.5 144 144 144 144-64.5 144-144-64.5-144-144-144z" /></svg>