<?xml version="1.0" standalone="no"?><!DOCTYPE svg PUBLIC "-//W3C//DTD SVG 1.1//EN" "http://www.w3.org/Graphics/SVG/1.1/DTD/svg11.dtd"><svg class="icon" width="200px" height="200.00px" viewBox="0 0 1024 1024" version="1.1" xmlns="http://www.w3.org/2000/svg"><path fill="#333333" d="M816 624h-1 1zM1024 992c0 17.7-14.3 32-32 32H240.3v-0.6l-0.3 0.6h-1c-35.9 0-69.8-14-95.6-39.5-26-25.9-40.4-60.1-40.4-96.5s14.4-70.6 40.4-96.5c26-25.8 60.3-39.8 96.6-39.5h575c17.3 0 32-14.7 32-32 0-17.4-14.7-32-32-32H432l48-64h336c52.5 0.5 95 43.4 95 96s-42.5 95.5-95 96H239c-18.9 0-36.9 7.4-50.5 21-13.8 13.7-21.5 31.8-21.5 51s7.6 37.3 21.5 51c13.7 13.6 31.6 21 50.5 21h0.7l0.3 0.6v-0.6h752c17.7 0 32 14.3 32 32zM240.3 1024h-0.3l0.3-0.6zM816 816h-1 1zM288.3 0.4C129.5 0.4 0.7 129.3 0.7 288.1c0 63.1 20.4 121.5 55 169.2l232.6 312.3 227.3-305.3c37.7-48.8 60.4-109.6 60.4-176.1C576 129.3 447.2 0.4 288.3 0.4z m-0.3 371.4c-44.1 0-80-35.9-80-80s35.9-80 80-80 80 35.9 80 80-35.9 80-80 80z" /></svg>