<?xml version="1.0" standalone="no"?><!DOCTYPE svg PUBLIC "-//W3C//DTD SVG 1.1//EN" "http://www.w3.org/Graphics/SVG/1.1/DTD/svg11.dtd"><svg class="icon" width="200px" height="200.00px" viewBox="0 0 1024 1024" version="1.1" xmlns="http://www.w3.org/2000/svg"><path fill="#333333" d="M922.639594 232.709098l-67.873487-67.873487c-12.495119-12.495119-32.787193-12.495119-45.282312 0L63.475205 910.944162l113.055838 113.055838L922.539633 277.891449c12.59508-12.395158 12.59508-32.687232 0.099961-45.182351z m-70.672394 25.490043L730.714565 379.451777 708.123389 356.860601l121.252636-121.252635c1.599375-1.599375 4.098399-1.599375 5.697774 0l16.993362 16.993362c1.499414 1.499414 1.499414 3.998438-0.099961 5.597813zM585.171417 229.610308l-132.448262 72.37173-72.37173 132.348302-72.37173-132.348302-132.348301-72.37173 132.348301-72.371729 72.37173-132.448263 72.37173 132.448263zM588.270207 52.679422L641.949239 36.985553l-15.69387 53.679031 15.69387 53.679032-53.679032-15.793831-53.679032 15.793831 15.793831-53.679032L534.591175 36.985553zM249.902382 11.795392L290.086685 0l-11.795393 40.184303L290.086685 80.368606l-40.184303-11.795392-40.184303 11.795392 11.795392-40.184303L209.718079 0zM865.661851 617.158922L897.849278 607.762593l-9.39633 32.187427 9.39633 32.187426-32.187427-9.49629-32.187427 9.49629 9.496291-32.187426-9.496291-32.187427z" /></svg>