<?xml version="1.0" standalone="no"?><!DOCTYPE svg PUBLIC "-//W3C//DTD SVG 1.1//EN" "http://www.w3.org/Graphics/SVG/1.1/DTD/svg11.dtd"><svg class="icon" width="200px" height="199.80px" viewBox="0 0 1025 1024" version="1.1" xmlns="http://www.w3.org/2000/svg"><path fill="#333333" d="M1025.00041 0h0.799999v63.999941h-0.799999zM1025.10041 45.099958l-0.1 0.2V44.999958zM672.000737 7.999993v79.999925c0 4.399996 3.599997 7.999993 7.999993 7.999993h166.899845c3.599997 0 5.299995 4.299996 2.799998 6.799994l-98.399909 98.399908c-21.09998 21.09998-53.89995 24.699977-79.299927 8.999992-67.299938-41.999961-146.799864-66.199939-231.999784-66.199939C197.101178 143.999866-0.598639 342.299682 0.001361 585.199457 0.60136 827.999232 197.901177 1024.49905 441.000952 1023.99905c242.299775-0.5 437.799594-195.499819 438.999593-437.799594 0.4-87.599919-24.799977-169.399843-68.499937-238.099779-16.199985-25.399976-12.699988-58.599946 8.599992-79.799926l102.099905-102.099905c2.499998-2.499998 6.799994-0.699999 6.799994 2.799997v175.899837c0 4.399996 3.599997 7.999993 7.999993 7.999993h79.999925c4.399996 0 7.999993-3.599997 7.999993-7.999993V3.999996c0-2.199998-1.799998-3.999996-3.999996-3.999996H680.00073c-4.399996 0-7.999993 3.599997-7.999993 7.999993z m55.499949 697.399353c-15.699985 37.099966-38.199965 70.499935-66.899938 99.199908-28.699973 28.699973-62.099942 51.199953-99.199908 66.899937C523.000876 887.799176 482.200914 895.999169 440.000953 895.999169s-82.999923-8.199992-121.399888-24.499978c-37.099966-15.699985-70.499935-38.199965-99.199908-66.899937-28.699973-28.699973-51.199953-62.099942-66.899938-99.199908C136.201235 666.999381 128.001242 626.199419 128.001242 583.999458s8.199992-82.999923 24.499977-121.399887c15.699985-37.099966 38.199965-70.499935 66.899938-99.199908 28.699973-28.699973 62.099942-51.199953 99.199908-66.899938C357.00103 280.19974 397.800992 271.999748 440.000953 271.999748s82.999923 8.199992 121.399887 24.499977c37.099966 15.699985 70.499935 38.199965 99.199908 66.899938 28.699973 28.699973 51.199953 62.099942 66.899938 99.199908C743.800671 500.999535 752.000663 541.799497 752.000663 583.999458s-8.199992 82.999923-24.499977 121.399888z" /></svg>