<?xml version="1.0" standalone="no"?><!DOCTYPE svg PUBLIC "-//W3C//DTD SVG 1.1//EN" "http://www.w3.org/Graphics/SVG/1.1/DTD/svg11.dtd"><svg class="icon" width="200px" height="200.00px" viewBox="0 0 1024 1024" version="1.1" xmlns="http://www.w3.org/2000/svg"><path fill="#333333" d="M358.595166 45.713203c-0.099999 0-0.199997 0.099999-0.299996 0.099999 13.299821 16.899772 22.1997 37.399495 24.799665 59.899191 0.099999 0 0.299996-0.099999 0.399995-0.099998-2.699964-22.499696-11.499845-42.99942-24.899664-59.899192z m550.592569 594.191981c0.499993 0 0.999987 0 1.49998-0.099999h0.299996c-0.599992 0-1.199984 0.099999-1.799976 0.099999zM1023.986186 520.006802c0 59.199201-42.899421 108.498536-99.398659 118.198405-0.799989 0.099999-1.49998 0.299996-2.299969 0.399994-0.499993 0.099999-0.999987 0.199997-1.49998 0.199998-0.499993 0.099999-1.099985 0.099999-1.599978 0.199997-0.699991 0.099999-1.399981 0.199997-2.19997 0.299996l-2.99996 0.299996h-0.299996c-0.499993 0-0.999987 0.099999-1.49998 0.099998h-1.299982c-0.599992 0-1.199984 0.099999-1.699977 0.099999-1.699977 0.099999-3.299955 0.099999-4.999933 0.099999H901.38784c-14.699802-0.299996-28.699613-3.299955-41.599438-8.399887-44.299402-17.599762-75.698978-60.899178-75.698979-111.498495 0-48.999339 29.299605-91.098771 71.299038-109.69852 7.299901-3.199957 11.199849-11.199849 8.999879-18.799746-4.499939-15.699788-9.899866-31.09958-16.29978-46.199376-20.499723-48.599344-49.999325-92.198756-87.49882-129.69825s-81.198904-66.999096-129.798248-87.598818c-50.299321-21.299713-103.6986-31.999568-158.797857-31.999568-8.399887 0-16.699775 0.299996-24.999662 0.799989-2.099972-16.599776-6.499912-32.899556-12.999825-48.399346-2.099972-4.899934-4.299942-9.59987-6.799908-14.299807 14.7998-1.399981 29.699599-2.099972 44.799395-2.099972 222.99699 0 409.894468 154.597914 459.293802 362.595106 1.299982 5.299928 5.19993 9.699869 10.399859 11.499845 47.799355 15.699788 82.298889 60.799179 82.29889 113.898463zM909.187735 639.905184c0.499993 0 0.999987 0 1.49998-0.099999h0.299996c-0.599992 0-1.199984 0.099999-1.799976 0.099999z m13.099823-1.299983c-0.499993 0.099999-0.999987 0.199997-1.49998 0.199998-0.499993 0.099999-1.099985 0.099999-1.599978 0.199997-0.699991 0.099999-1.399981 0.199997-2.19997 0.299996l-2.99996 0.299996h-0.299996c-0.499993 0-0.999987 0.099999-1.49998 0.099998h-0.499993c4.399941-0.299996 8.699883-0.699991 12.899826-1.499979v-0.099999c-0.699991 0.299996-1.49998 0.399995-2.299969 0.499993zM899.687863 703.90432C824.388879 864.70215 661.191082 976.000648 471.993635 976.000648c-27.299632 0-53.999271-2.299969-79.99892-6.799908-5.999919-0.999987-11.999838 1.399981-15.599789 6.199916-21.599708 29.099607-55.999244 47.999352-94.89872 48.499345-65.999109 0.799989-121.398362-53.799274-121.49836-119.898381 0-14.09981 2.399968-27.499629 6.799908-40.099459 7.299901-20.799719 20.199727-38.899475 36.899502-52.699289 20.699721-17.099769 47.299362-27.39963 76.298971-27.39963 57.999217 0 106.498563 41.199444 117.598412 95.998704 0.699991 3.299955 1.199984 8.499885 1.599979 13.299821 0.599992 7.3999 6.299915 13.499818 13.599816 14.499804 19.499737 2.799962 39.199471 4.199943 59.199201 4.199943 55.099256 0 108.498536-10.799854 158.797857-31.999568 48.599344-20.499723 92.198756-49.999325 129.69825-87.498819 30.199592-30.199592 55.199255-64.49913 74.498994-101.998623 20.599722 8.499885 42.299429 13.099823 64.699127 13.599816zM383.994823 121.712177c-0.899988 64.899124-53.999271 117.79841-118.898395 118.298404-24.999663 0.199997-48.299348-7.199903-67.599088-20.099729-6.399914-4.299942-14.999798-3.399954-20.399725 2.099972-0.799989 0.799989-1.399981 1.49998-1.899974 1.999973-33.599547 35.499521-60.199188 76.29897-79.198931 121.198364-21.299713 50.299321-31.999568 103.6986-31.999568 158.797857s10.799854 108.498536 31.999568 158.797857c15.799787 37.399495 36.899502 71.89903 62.99915 102.99861-2.99996 2.599965-5.89992 5.299928-8.699883 8.09989-12.799827 12.799827-23.399684 27.099634-31.89957 42.799423C44.699402 733.403922 0.000005 623.9054 0.000005 504.007018c0-132.898206 54.899259-252.996586 143.298066-338.795428 4.099945-3.999946 5.799922-9.799868 4.399941-15.299793-2.599965-9.999865-3.899947-20.599722-3.799949-31.399576C144.798051 52.413113 199.69731-0.986167 265.896417 0.01382c37.499494 0.599992 70.799044 18.399752 92.398753 45.799382 13.299821 16.899772 22.1997 37.399495 24.799665 59.899191 0.699991 5.19993 0.999987 10.499858 0.899988 15.999784z" /></svg>