<?xml version="1.0" standalone="no"?><!DOCTYPE svg PUBLIC "-//W3C//DTD SVG 1.1//EN" "http://www.w3.org/Graphics/SVG/1.1/DTD/svg11.dtd"><svg class="icon" width="200px" height="200.00px" viewBox="0 0 1024 1024" version="1.1" xmlns="http://www.w3.org/2000/svg"><path fill="#333333" d="M861.5 674.6c0 10.5-3.8 19.7-11.5 27.3-7.7 7.7-16.8 11.5-27.3 11.5H562.4l-31 293.2c-0.8 4.8-2.9 9.1-6.4 12.4-3.4 3.4-7.6 5-12.4 5h-0.6c-11 0-17.4-5.4-19.4-16.3l-46.1-294.4H201.2c-10.5 0-19.7-3.8-27.3-11.5-7.7-7.7-11.5-16.8-11.5-27.3 0-49.7 15.8-94.5 47.6-134.4 0.3-0.4 0.6-0.8 1-1.2 68.9-85 106.7-191 106.7-300.5v-2.3c0-31.9-16.2-61.4-42.5-79.5-4.2-2.9-8.2-6.3-12.1-10.1C247.8 131.3 240 113 240 92c0-21.1 7.7-39.1 23.1-54.7 15.3-15.3 33.6-23.1 54.6-23.1h388.4c21.1 0 39.1 7.7 54.7 23.1 15.3 15.4 23.1 33.6 23.1 54.7s-7.7 39.1-23.1 54.7c-3.9 3.9-8 7.3-12.2 10.3-26.3 18-42.4 47.5-42.4 79.4v2.1c0 109.2 37.3 215.1 106.2 299.8 0.5 0.6 1 1.2 1.5 1.9 31.7 39.8 47.6 84.6 47.6 134.4z" /></svg>