<?xml version="1.0" standalone="no"?><!DOCTYPE svg PUBLIC "-//W3C//DTD SVG 1.1//EN" "http://www.w3.org/Graphics/SVG/1.1/DTD/svg11.dtd"><svg class="icon" width="200px" height="200.00px" viewBox="0 0 1024 1024" version="1.1" xmlns="http://www.w3.org/2000/svg"><path fill="#333333" d="M511.950005 191.981252v143.985939c0 8.799141-7.199297 15.998438-15.998438 15.998437H255.975002c-8.799141 0-15.998438-7.199297-15.998437-15.998437V191.981252c0-8.799141 7.199297-15.998438 15.998437-15.998438h239.976565c8.799141 0 15.998438 7.199297 15.998438 15.998438z m-271.97344-79.992188c-35.296553 0-63.993751 28.697198-63.993751 63.99375v175.982814c0 35.296553 28.697198 63.993751 63.993751 63.993751h271.97344c35.296553 0 63.993751-28.697198 63.99375-63.993751V175.982814c0-35.296553-28.697198-63.993751-63.99375-63.99375H239.976565zM597.141685 63.993751c11.798848 0 21.29792 9.599063 21.297921 21.29792l0.09999 821.319793c0 20.897959 8.59916 39.796114 22.497803 53.394785H105.989649c13.498682-13.398692 21.897862-31.996875 21.897862-52.494873V85.291671c0-11.798848 9.599063-21.29792 21.29792-21.29792h447.956254m354.365394 114.78879c5.499463 7.399277 8.39918 16.298408 8.39918 25.5975v30.097061l-42.895811 0.09999H897.912313l26.197442-27.297334 27.397324-28.497217M841.617811 0c-13.398692 0-26.797383 5.099502-36.996387 15.398496-20.497998 20.497998-20.497998 53.594766 0 74.092765L877.914266 162.984084l-54.194707 56.494483c-17.698272 18.198223-17.698272 47.395372 0 65.493604 8.59916 9.199102 20.198028 13.698662 31.696904 13.698662h0.499951l61.294015-0.09999v479.453178c0 17.798262-14.398594 32.696807-32.096866 32.696807h-0.599941c-17.398301-0.299971-31.396934-14.498584-31.396934-31.996875V479.95313c0-76.59252-62.193926-138.686456-138.686457-138.686457-17.698272 0-31.996875-14.298604-31.996875-31.996875v-223.978127c0-47.095401-38.19627-85.291671-85.291671-85.291671H149.285421C102.190021 0 63.993751 38.19627 63.993751 85.291671v822.219705c0 5.399473-4.39957 9.899033-9.799043 9.899033-28.697198 0-52.794844 22.297822-53.994728 50.99502-1.299873 30.497022 22.997754 55.594571 53.294796 55.594571h639.237574c29.297139 0 53.794747-23.397715 54.094718-52.694854 0.299971-29.79709-23.597696-53.894737-53.294796-53.894737-5.899424 0-10.798945-4.799531-10.798945-10.798945V480.15311c0-17.698272 14.298604-31.996875 31.996875-31.996875s31.996875 14.298604 31.996875 31.996875v298.570843c0 76.59252 62.193926 138.686456 138.686457 138.686456 76.59252 0 138.686456-62.193926 138.686456-138.686456V204.380041c0-30.097061-12.398789-57.194415-32.196856-76.59252L878.614198 15.398496C868.315204 5.099502 854.916512 0 841.617811 0z" /></svg>