<?xml version="1.0" standalone="no"?><!DOCTYPE svg PUBLIC "-//W3C//DTD SVG 1.1//EN" "http://www.w3.org/Graphics/SVG/1.1/DTD/svg11.dtd"><svg class="icon" width="200px" height="200.00px" viewBox="0 0 1024 1024" version="1.1" xmlns="http://www.w3.org/2000/svg"><path fill="#333333" d="M639.999191 893.597594c-0.999994-54.699654-36.39977-101.099361-85.39946-118.399252-6.39996-2.199986-10.599933-8.299948-10.599933-14.999905V263.801573c0-6.699958 4.199973-12.799919 10.599933-14.999905 49.09969-17.299891 84.399467-63.599598 85.39946-118.399252C641.299183 59.902862 583.399549 0.503237 512.899994 0.00324 441.800444-0.496757 384.000809 57.00288 384.000809 128.002431c0 55.699648 35.599775 103.099349 85.299461 120.699238 6.39996 2.299985 10.699932 8.299948 10.699932 15.099904v496.396864c0 6.799957-4.299973 12.799919-10.699932 15.099904-49.699686 17.599889-85.299461 64.999589-85.299461 120.699238 0 70.999551 57.799635 128.499188 128.899185 127.999191 70.499555-0.499997 128.399189-59.899622 127.099197-130.399176zM448.000404 128.002431c0-35.299777 28.699819-63.999596 63.999596-63.999595s63.999596 28.699819 63.999596 63.999595-28.699819 63.999596-63.999596 63.999596-63.999596-28.699819-63.999596-63.999596z m0 767.995148c0-35.299777 28.699819-63.999596 63.999596-63.999596s63.999596 28.699819 63.999596 63.999596-28.699819 63.999596-63.999596 63.999595-63.999596-28.699819-63.999596-63.999595z" /></svg>