<?xml version="1.0" standalone="no"?><!DOCTYPE svg PUBLIC "-//W3C//DTD SVG 1.1//EN" "http://www.w3.org/Graphics/SVG/1.1/DTD/svg11.dtd"><svg class="icon" width="200px" height="200.00px" viewBox="0 0 1024 1024" version="1.1" xmlns="http://www.w3.org/2000/svg"><path fill="#333333" d="M831.996366 320.007996c0 163.498143-122.598608 298.396611-280.996809 317.596392-3.999955 0.499994-6.99992 3.899956-6.99992 7.899911V992.000363c0 8.7999-3.599959 16.799809-9.399894 22.599744-5.799934 5.799934-13.799843 9.399893-22.599743 9.399893-17.699799 0-31.999637-14.299838-31.999637-31.999637V645.604298c0-3.999955-2.999966-7.399916-6.99992-7.899911C315.002237 618.404607 192.503629 484.106132 192.003634 321.007984 191.403641 144.509989 332.702036 1.511613 509.200032 0.01163 687.19801-1.488353 831.996366 142.310014 831.996366 320.007996z" /></svg>