<?xml version="1.0" standalone="no"?><!DOCTYPE svg PUBLIC "-//W3C//DTD SVG 1.1//EN" "http://www.w3.org/Graphics/SVG/1.1/DTD/svg11.dtd"><svg class="icon" width="200px" height="200.00px" viewBox="0 0 1024 1024" version="1.1" xmlns="http://www.w3.org/2000/svg"><path fill="#333333" d="M640 256c0 65.3-24.5 125-64.8 170.2-11.5 12.9-28.2 19.7-45.5 19.3h-3.1c-7.4 0-13.5-6.1-13.5-13.5l-0.1-23.9c0-6.1 2.4-11.9 6.7-16.3l0.1-0.1C556 355.5 576 307.3 576 256c0-51.3-20-99.5-56.2-135.8C483.5 84 435.3 64 384 64s-99.5 20-135.8 56.2C212 156.5 192 204.7 192 256c0 51.3 20 99.5 56.2 135.8l0.1 0.1c4.9 4.9 7.7 11.6 7.6 18.5-0.1 29.7-36.3 44.1-56.8 22.7-44-46-71.1-108.3-71.1-177C128 114.6 242.6 0 384 0s256 114.6 256 256zM871.5 533.7c-14.1-16.3-27.7-22.4-40.2-22.4-36.9 0-64.2 53.2-64.2 53.2-31.4-39.5-59.8-52.5-83.5-52.5-45.2 0-73.3 47.2-73.3 47.2-30.3-37.5-59-49.7-83.6-49.7-45.9 0-77.2 42.7-77.2 42.7l-0.2-48.6-0.2-66.8-0.6-167.3c-0.1-22.2-10-43.4-27.5-57.1-11-8.5-21.8-11.9-32.1-11.9-15 0-28.8 7.1-40.1 15.7-17.9 13.7-28.2 35.1-28.3 57.6l-0.8 163.3-0.3 66.7-1.1 225.8s-23.6-62.3-89.6-92c-19.9-8.7-36-12.3-48.9-12.3-25.3 0-38.7 13.7-45.8 29.8-10.5 24.1-6.2 52.1 10.2 72.6l203 253.6c21.5 26.9 54.1 42.6 88.6 42.6l370.2-0.1c31.7 0 61.7-15 80.1-40.7 10-13.9 11.1-23.1 11.1-23.1V604.4c0.2-25.9-8.8-51.1-25.7-70.7zM833.4 947c-6.4 8.1-16.4 12.9-27.3 12.9l-370.2 0.1c-15.1 0-29.2-6.8-38.6-18.5L200 695c0.9 0.4 1.9 0.8 2.9 1.2 37.5 17 54 52.5 55.8 56.5 9.1 25.7 33.1 41.8 59.6 41.8 3.6 0 7.2-0.3 10.9-0.9 30.8-5.1 53.1-32.5 53.2-63.7l3.1-177.6c0.1 27.6 17.9 52.1 44.2 60.6 6.5 2.1 13.2 3.2 19.8 3.2 20 0 39.3-9.4 51.6-26.1 0 0 4-4.7 9.4-8.9 6.2-4.9 12.1-7.7 16.3-7.7 6.2 0 18.4 6.8 33.8 26 12.2 15.1 30.5 23.8 49.8 23.8 1.5 0 3-0.1 4.6-0.2 20.9-1.5 39.7-13.1 50.4-31.1 0 0 3.5-5 8.3-9.5 5.7-5.3 9.3-6.4 10-6.4 0.1 0 11.9 1.2 33.6 28.4 12.3 15.4 30.6 24.5 50 24.5 2.2 0 4.4-0.1 6.7-0.4 21.7-2.4 40.5-15.2 50.2-34.7 1.4-2.6 3.3-5.5 5.3-8.4 2.6 5.8 4 12.3 4 19V947z" /></svg>