<?xml version="1.0" standalone="no"?><!DOCTYPE svg PUBLIC "-//W3C//DTD SVG 1.1//EN" "http://www.w3.org/Graphics/SVG/1.1/DTD/svg11.dtd"><svg class="icon" width="200px" height="200.00px" viewBox="0 0 1024 1024" version="1.1" xmlns="http://www.w3.org/2000/svg"><path fill="#333333" d="M706.081047 78.192364c2.699736 0 4.899522 0 9.399082 4.39957 3.999609 4.0996 4.39957 6.399375 4.39957 9.399083 0 3.099697-0.299971 5.299482-4.49956 9.599062-0.999902 1.099893-1.999805 1.899814-2.999707 2.499756-43.995704 30.197051-70.193145 79.592227-70.193146 132.187091v2.099795c0 123.787911 42.795821 244.576116 120.488234 340.166781 0.399961 0.499951 0.699932 0.899912 1.099893 1.399863 17.09833 21.497901 27.597305 44.395664 31.696904 69.393223h-566.944634c4.0996-24.997559 14.598574-47.895323 31.596914-69.293233 0.19998-0.299971 0.399961-0.599941 0.699932-0.799922 77.992384-96.290597 120.988185-217.278781 120.988185-340.766722v-2.299775c0-52.594864-26.297432-101.99004-70.293136-132.187091-0.999902-0.699932-2.099795-1.599844-3.199687-2.699737-3.999609-3.999609-4.29958-6.299385-4.29958-9.299091 0-3.099697 0.299971-5.299482 4.39957-9.499073 3.999609-3.999609 6.299385-4.29958 9.299092-4.29958h388.362074m0-63.993751H317.718973c-21.09794 0-39.396153 7.799238-54.694659 23.097745-15.298506 15.498486-22.997754 33.596719-22.997754 54.694659s7.799238 39.396153 23.097744 54.694658c3.899619 3.799629 7.899229 7.199297 12.098819 10.099014 26.297432 18.098233 42.49585 47.495362 42.49585 79.492237v2.299775C317.718973 347.966019 279.922664 453.955668 211.029392 538.947368c-0.299971 0.399961-0.599941 0.799922-0.999903 1.199883-31.796895 39.896104-47.595352 84.691729-47.595352 134.386877 0 10.498975 3.799629 19.598086 11.498877 27.297334 7.599258 7.699248 16.79836 11.498877 27.297335 11.498877h245.076066l46.095499 294.371253c1.999805 10.898936 8.49917 16.298408 19.398106 16.298408h0.599941c4.799531 0 8.999121-1.599844 12.398789-4.999512 3.499658-3.299678 5.699443-7.599258 6.399375-12.398789l31.096963-293.17137h260.374573c10.498975 0 19.598086-3.799629 27.297334-11.498877 7.699248-7.599258 11.498877-16.79836 11.498877-27.297334 0-49.895127-15.898447-94.690753-47.695342-134.586857-0.499951-0.599941-0.999902-1.299873-1.499853-1.899814-68.893272-84.691729-106.18963-190.681379-106.18963-299.770726v-2.099795c0-31.896885 16.098428-61.394004 42.39586-79.392247 4.29958-2.899717 8.29919-6.299385 12.198808-10.298994 15.398496-15.498486 23.097744-33.596719 23.097745-54.694659s-7.799238-39.296162-23.097745-54.694658c-15.398496-15.298506-33.496729-22.997754-54.594668-22.997755z" /></svg>