<?xml version="1.0" standalone="no"?><!DOCTYPE svg PUBLIC "-//W3C//DTD SVG 1.1//EN" "http://www.w3.org/Graphics/SVG/1.1/DTD/svg11.dtd"><svg class="icon" width="200px" height="200.00px" viewBox="0 0 1024 1024" version="1.1" xmlns="http://www.w3.org/2000/svg"><path fill="#333333" d="M767.4 524.1l13.6 36.5 38.7 4.5c1.2 0.2 29.9 3.8 63.3 12.2v43.8c-6.5-1.1-13.2-1.6-20-1.6-57.3 0-105.6 39.2-119.7 92.1H318.9c-14-52.9-62.4-92.1-119.7-92.1h-0.1c-30.7 0-58.8 11.2-80.4 29.7L99 629.5c-5.9-5.9-11.7-11.3-17.4-16.3 6.9-16.9 12.5-32.8 16.8-47.5h297.3c8.1 43.3 26.1 92.8 65.6 125.3l17.7 14.6h172.1l16.7-38.5c0.1-0.2 7.5-17.1 19.5-36.8 19.8-32.7 32.8-41.6 35.2-43l35.8-21.6-5.4-41.5v-0.1c-0.3-8.6 12.2-10 13.9-1.6l0.6 1.6z m36.9-399.5h-99.6c-9.5 0-18.4 4.2-24.5 11.4l-42.6 50.7c-9 10.8-21.4 18.3-35.1 21.3l-72.7 16.1c-10.1 2.2-16 12.8-12.7 22.6 2.7 7.9 10.7 12.8 19.1 11.5l46.6-7.1c34.1-5.2 66.2 17.6 72.5 51.6 15.8 85.1 34.5 229.5 34.5 229.5-44.6 26.9-80.4 109.1-80.4 109.1H502.1c-32.8-27-43.3-78.7-46.7-111.1-1.7-16.3-15.4-28.7-31.8-28.7H73.5c-15.3 0-28.4 10.8-31.4 25.8-5.4 27.7-18.5 59.9-28.6 82.4-6.3 14-1.9 30.6 10.7 39.3 10.6 7.4 21.3 17.2 29.5 25.5C35.9 761.6 92 846.6 179 864.4c10.8 2.2 21.7 3.3 32.4 3.3 61.2 0 118.4-35.1 145.4-92.2h348.7c15.6 76.2 82.6 128.6 157.4 128.6 10.7 0 21.5-1.1 32.4-3.3 87-17.8 143.2-102.8 125.3-189.9-8.9-43.7-35.6-81.7-73.6-105v-20.2c1.3-0.6 2.9-0.8 4.9-0.8 11.1 0 31.2 8.2 43.5 13.8 2.2 1 4.6 1.5 7 1.5 4.4 0 8.8-1.7 12-5 6.1-6.1 6.1-16.7 0.7-23.3-44.3-53.4-187.8-70.5-187.8-70.5l-98.1-260.7c-1-2.6 0.9-5.4 3.7-5.4h71.3c17.7 0 32-14.3 32-32v-46.9c0.1-17.5-14.3-31.8-31.9-31.8zM199.2 803.1c-33.1 0-59.9-26.8-59.9-59.9 0-33.1 26.8-59.9 59.9-59.9 33.1 0 59.9 26.8 59.8 59.9 0.1 33.1-26.7 59.9-59.8 59.9z m663.8 0c-33 0-59.8-26.8-59.9-59.8 0-33.1 26.8-59.9 59.8-59.9h0.1c33.1 0 59.9 26.8 59.8 59.9 0.1 33-26.7 59.8-59.8 59.8 0.1 0 0 0 0 0zM431.5 397H67c-9.4 0-17 7.6-17 17s7.6 17 17 17h364.5c9.4 0 17-7.6 17-17s-7.6-17-17-17z" /></svg>