<?xml version="1.0" standalone="no"?><!DOCTYPE svg PUBLIC "-//W3C//DTD SVG 1.1//EN" "http://www.w3.org/Graphics/SVG/1.1/DTD/svg11.dtd"><svg class="icon" width="200px" height="200.00px" viewBox="0 0 1024 1024" version="1.1" xmlns="http://www.w3.org/2000/svg"><path fill="#333333" d="M512 272c-35.3 0-64-28.7-64-64s28.7-64 64-64 64 28.7 64 64-28.7 64-64 64z m0 64c70.7 0 128-57.3 128-128S582.7 80 512 80s-128 57.3-128 128 57.3 128 128 128zM576 480v384c0 8.8-7.2 16-16 16h-96c-8.8 0-16-7.2-16-16V480c0-8.8 7.2-16 16-16h96c8.8 0 16 7.2 16 16z m-192-16v416c0 35.3 28.7 64 64 64h128c35.3 0 64-28.7 64-64V464c0-35.3-28.7-64-64-64H448c-35.3 0-64 28.7-64 64z" /></svg>