<?xml version="1.0" standalone="no"?><!DOCTYPE svg PUBLIC "-//W3C//DTD SVG 1.1//EN" "http://www.w3.org/Graphics/SVG/1.1/DTD/svg11.dtd"><svg class="icon" width="200px" height="200.00px" viewBox="0 0 1024 1024" version="1.1" xmlns="http://www.w3.org/2000/svg"><path fill="#333333" d="M704 192v368c0 52.8-21.6 100.8-56.4 135.6S564.8 752 512 752c-105.6 0-192-86.4-192-192V192C320 86.4 406.4 0 512 0s192 86.4 192 192zM816 496v144c0 2.8-0.4 5.6-1.1 8.4-18.5 68.2-58.9 126.1-112.3 166.9-43.5 33.2-95.6 55.2-151.6 62.2-4 0.5-7 3.9-7 7.9V944c0 8.8 7.2 16 16 16h80c35.3 0 64 28.7 64 64H320c0-35.3 28.7-64 64-64h80c8.8 0 16-7.2 16-16v-58.5c0-4-3-7.4-7-7.9-124.8-15.7-230.3-105.5-263.9-229.2-0.7-2.7-1.1-5.6-1.1-8.4V496.7c0-17.4 13.7-32.2 31.1-32.7 18.1-0.5 32.9 14 32.9 32v129.8c0 6.9 1.1 13.8 3.3 20.3C309.3 746.9 404.6 816 512 816s202.7-69.1 236.7-169.9c2.2-6.5 3.3-13.4 3.3-20.3V496.7c0-17.4 13.7-32.2 31.1-32.7 18.1-0.5 32.9 14 32.9 32z" /></svg>