<?xml version="1.0" standalone="no"?><!DOCTYPE svg PUBLIC "-//W3C//DTD SVG 1.1//EN" "http://www.w3.org/Graphics/SVG/1.1/DTD/svg11.dtd"><svg class="icon" width="200px" height="200.00px" viewBox="0 0 1024 1024" version="1.1" xmlns="http://www.w3.org/2000/svg"><path fill="#333333" d="M512 0C406.4 0 320 86.4 320 192v368c0 8.2 0.5 16.3 1.5 24.2l62.5-62.5V192c0-34 13.4-66.1 37.7-90.4C445.9 77.4 478 64 512 64s66.1 13.4 90.3 37.6C626.6 125.9 640 158 640 192v73.7l64-64V192C704 86.4 617.6 0 512 0zM272.4 633.3l-51.1 51.1c-4.8-11.7-8.8-23.7-12.2-36.1-0.7-2.7-1.1-5.6-1.1-8.4V496.7c0-17.4 13.7-32.2 31.1-32.7 18.1-0.5 32.9 14 32.9 32v129.8c0 2.5 0.1 5 0.4 7.5zM512 752c52.8 0 100.8-21.6 135.6-56.4S704 612.8 704 560V380.3l174.1-174.1c12.5-12.5 12.5-32.8 0-45.3s-32.8-12.5-45.3 0L391.3 602.5 343 650.8l-44.7 44.7-46.3 46.3-115.1 115.1c-12.5 12.5-12.5 32.8 0 45.3 6.3 6.3 14.4 9.4 22.6 9.4s16.4-3.1 22.6-9.4L293.3 791c48.2 46.8 111.1 77.9 179.7 86.6 4 0.5 7 3.9 7 7.9V944c0 8.8-7.2 16-16 16h-80c-17.7 0-33.7 7.2-45.3 18.7S320 1006.3 320 1024h384c0-35.4-28.7-64-64-64h-80c-8.8 0-16-7.2-16-16v-58.5c0-4 3-7.4 7-7.9 56-7 108.1-29 151.5-62.2 53.4-40.8 93.8-98.8 112.3-166.9 0.7-2.7 1.1-5.6 1.1-8.4V496c0-18-14.8-32.5-32.9-32-17.4 0.5-31.1 15.2-31.1 32.7v129.2c0 6.9-1.1 13.8-3.3 20.3C714.7 746.9 619.4 816 512 816c-66.3 0-128-26.4-173.5-70.2l44.2-44.2C416.8 732.9 462.3 752 512 752z m128-307.7V560c0 34-13.4 66.1-37.7 90.3C578.1 674.6 546 688 512 688c-31.1 0-60.6-11.2-84-31.7l212-212z" /></svg>