<?xml version="1.0" standalone="no"?><!DOCTYPE svg PUBLIC "-//W3C//DTD SVG 1.1//EN" "http://www.w3.org/Graphics/SVG/1.1/DTD/svg11.dtd"><svg class="icon" width="200px" height="200.00px" viewBox="0 0 1024 1024" version="1.1" xmlns="http://www.w3.org/2000/svg"><path fill="#333333" d="M967.2 102.6L644.8 425.1c-2.5 2.5-0.7 6.8 2.8 6.8h161.2c17.4 0 32.2 13.7 32.7 31.1 0.5 18.1-14 32.9-32 32.9H560.7c-17.7 0-32-14.3-32-32V215.8c0-17.4 13.7-32.2 31.1-32.7 18.1-0.5 32.9 14 32.9 32V377c0 3.6 4.3 5.3 6.8 2.8L922 57.4c12.5-12.5 32.8-12.5 45.3 0 12.4 12.5 12.4 32.7-0.1 45.2zM495.1 560.1v248.1c0 17.4-13.7 32.2-31.1 32.7-18.1 0.5-32.9-14-32.9-32V647c0-3.6-4.3-5.3-6.8-2.8L101.8 966.6c-6.3 6.3-14.4 9.4-22.6 9.4s-16.4-3.1-22.6-9.4c-12.5-12.5-12.5-32.8 0-45.3L379 598.9c2.5-2.5 0.7-6.8-2.8-6.8H215c-17.4 0-32.2-13.7-32.7-31.1-0.5-18.1 14-32.9 32-32.9h248.8c17.7 0 32 14.3 32 32zM64 352H0V0h352v64H64zM1024 1024H672v-64h288V672h64z" /></svg>