<?xml version="1.0" standalone="no"?><!DOCTYPE svg PUBLIC "-//W3C//DTD SVG 1.1//EN" "http://www.w3.org/Graphics/SVG/1.1/DTD/svg11.dtd"><svg class="icon" width="200px" height="200.00px" viewBox="0 0 1024 1024" version="1.1" xmlns="http://www.w3.org/2000/svg"><path fill="#333333" d="M736.197533 992.000352c0-7.399919-2.599971-14.899836-7.799915-20.89977l-360.796029-416.99541c-20.999769-23.999736-20.999769-60.299336 0-84.299073l0.099999-0.099999L728.397618 52.910688c11.599872-13.399853 10.099889-33.59963-3.299963-45.099504-13.299854-11.599872-33.499631-10.099889-45.099504 3.299964L319.40212 427.806562C299.002344 451.106305 287.802467 481.005976 287.802467 512.005635s11.199877 60.89933 31.599653 84.199073L679.998151 1012.900122c11.599872 13.399853 31.79965 14.799837 45.099504 3.299964 7.399919-6.299931 11.099878-15.199833 11.099878-24.199734z" /></svg>