<?xml version="1.0" standalone="no"?><!DOCTYPE svg PUBLIC "-//W3C//DTD SVG 1.1//EN" "http://www.w3.org/Graphics/SVG/1.1/DTD/svg11.dtd"><svg class="icon" width="200px" height="200.00px" viewBox="0 0 1024 1024" version="1.1" xmlns="http://www.w3.org/2000/svg"><path fill="#333333" d="M864.4 440.4c43.1 2.2 81.8 20.6 110.2 49.1 30.5 30.5 49.5 72.8 49.5 119.3s-18.8 88.7-49.5 119.3c-30.5 30.5-72.7 49.5-119.3 49.5-46.5-0.1-88.7-18.8-119.2-49.5-30.5-30.5-49.5-72.7-49.5-119.3 0-46.5 18.8-88.7 49.5-119.3 1.5-1.5 3.2-3.1 4.6-4.5l25.9 71.8c-9 15.2-14.2 33.1-14.2 52.2 0 28.4 11.5 54.1 30.2 72.8 18.6 18.6 44.3 30.1 72.7 30.1 28.4 0 54.1-11.5 72.8-30.1 18.7-18.7 30.1-44.3 30.1-72.8 0-28.3-11.4-54.1-30.1-72.8-10.5-10.5-23.4-18.7-37.8-24l-25.9-71.8z m-695.8-0.2c43.4 0 82.8 16.3 112.6 43.2l-68.9 32.3c-13.2-6.2-27.9-9.7-43.7-9.7-28.3 0-53.9 11.5-72.7 30.1-18.7 18.7-30.1 44.5-30.1 72.8 0 28.4 11.4 54.1 30.1 72.8 18.7 18.6 44.3 30.1 72.7 30.1 21 0 40.5-6.2 56.6-16.9 25 7 50 13.6 75.2 19.2-4 5-8.2 9.7-12.6 14.1-30.5 30.5-72.7 49.5-119.3 49.5-46.5-0.1-88.7-18.8-119.2-49.5C19 697.6 0 655.4 0 608.8c0-46.5 18.8-88.7 49.5-119.3 30.5-30.5 72.5-49.3 119.1-49.3zM749.5 225.5c27.2 10.6 47.7 22.9 61 36.9 10.5 11.1 16.5 22.5 18.9 35.9 1.8 10.4 1.5 22.2-1 35.4-9.6 1-19.2 2.4-28.7 4.4l-5.3-7.8c-1.7-3.4-3.7-6.9-5.8-10.4-11.1-18.6-24.2-32.2-39.8-41.2v-0.3c1.7-14.9 2.1-30.2 1.1-45.4 0-2.5-0.2-5-0.4-7.5M272.4 337.8c11.3 1.3 22.1 3.1 32.8 5.6 0.9 1 2.5 2.9 4.6 6 4.4 6.5 9.2 15.3 12.9 22.2-15-12.2-31.7-23.4-50.3-33.8m129.6 67.3c10.3 0 19.9 0.4 29.4 1.2h0.4c13.3 1 27.5 2.9 43.4 5.8l41.1 7.5 8.7 1.9c19.6 4.2 39.2 9.7 58.2 16.3l0.2 0.1 0.2 0.1c14.5 4.9 28.7 10.5 42.6 16.7-30.5 45.2-46.9 98.4-46.9 154.2 0 9.6 0.5 21.9 1.2 34-53.2-2-97.7-5.4-139-10.5v-0.1c-3.1-37.1-8.8-70-17.1-100.3L395.1 458.7c-10.4-19-22.5-36.5-36.1-52.1l23.1-1c6.8-0.3 13.5-0.5 19.9-0.5m294.8-261c-2.7 0-5.5 0.5-8.2 1.5-12.8 4.6-19.3 18.7-14.9 31.4 6.7 19.1 11.1 39.5 12.4 60.1 0.8 11.4 0.5 22.8-0.8 34-21.6-5.7-41.7-8.6-60.6-8.6-15.6 0-30.4 2-44.4 6-26.1 7.7-48.7 22.1-68 43.9-18.8 21.2-46.2 32.5-74.4 30.2-0.4 0-0.9-0.1-1.3-0.1-11.3-1-22.8-1.4-34.8-1.4-7.4 0-14.9 0.2-22.7 0.5-16.1-30.4-31.1-53.9-56.4-59.8-30.1-7.2-60.5-10.1-90.5-10.1-10.6 0-21.1 0.4-31.5 1-39 2.7-76.9 9.4-112.4 17.6-9.5 1.7-17.7 8.8-20 18.7-3.1 13.3 5 26.5 18.3 29.7 99.6 23.7 171.2 53.7 218.1 103.5 15.5 16.4 28.4 35.4 39.1 56.9l-184.8 87.1c-6.4 2.7-11.7 7.9-13.8 15.1-4.2 12.9 2.9 26.7 15.9 30.9 84.7 27.3 153.9 45.2 225.4 56.9 71 11.5 143.8 16.8 235.9 19 0.8 0.1 1.6 0.1 2.5 0.1 1.8 0 3.6-0.2 5.5-0.6 13.3-3.1 21.5-16.3 18.5-29.6-1.5-6.4-2.8-16.9-3.7-28.2-1.3-15.1-1.9-31.1-1.9-41 0-58.7 23.8-111.7 62-150.1 16.1-16 34.9-29.6 55.5-40l71.6 198.4c3.6 10.1 13.1 16.3 23.2 16.3 2.7 0 5.5-0.5 8.2-1.4 12.8-4.7 19.3-18.7 14.9-31.5L807.2 402c15.6-3.7 31.9-5.6 48.4-5.6h1c0.7 0.1 1.4 0.1 2 0.1 10.3 0 20-6.3 23.5-16.6 24.3-70.7 11.7-122.8-25.2-161.6-34.5-36.1-89.6-58.6-154.5-73.4-1.8-0.6-3.7-0.8-5.6-0.8z m-13 267.2c-23.8-12.4-50.5-24.1-79.6-34-20.6-7.2-42.5-13.5-65.7-18.5 15.9-22.8 34.2-36.9 55.7-43.1 9.4-2.7 19.6-4.1 30.5-4.1 25 0 54.2 7 88 20.2 8.7 3.3 15.4 11 21.1 20.8 3.6 5.9 6.7 12.6 9.6 19.5-21.6 10.4-41.6 23.6-59.6 39.2zM377.9 637.6c-45.7-8.1-91.1-19.1-141.1-33.7l124.9-58.8c7.9 27.2 13.2 57.8 16.2 92.5z" /></svg>