<?xml version="1.0" standalone="no"?><!DOCTYPE svg PUBLIC "-//W3C//DTD SVG 1.1//EN" "http://www.w3.org/Graphics/SVG/1.1/DTD/svg11.dtd"><svg class="icon" width="200px" height="200.00px" viewBox="0 0 1024 1024" version="1.1" xmlns="http://www.w3.org/2000/svg"><path fill="#333333" d="M775.8 648.7V564c0-2.2-1.8-4-4-4H576.5c-8.8 0-16 7.2-16 16v195.8c0 2.2 1.8 4 4 4h84.7c3.1 0 5 3.3 3.5 6l-133.2 230.7c-3.1 5.3-10.8 5.3-13.9 0L372.4 781.8c-1.5-2.7 0.4-6 3.5-6h84.7c2.2 0 4-1.8 4-4V576c0-8.8-7.2-16-16-16H252.2c-2.2 0-4 1.8-4 4v84.7c0 3.1-3.3 5-6 3.5L11.5 518.9c-5.3-3.1-5.3-10.8 0-13.9l230.7-133.2c2.7-1.5 6 0.4 6 3.5V460c0 2.2 1.8 4 4 4h196.3c8.8 0 16-7.2 16-16V252.2c0-2.2-1.8-4-4-4h-84.7c-3.1 0-5-3.3-3.5-6L505.6 11.5c3.1-5.3 10.8-5.3 13.9 0l133.2 230.7c1.5 2.7-0.4 6-3.5 6h-84.7c-2.2 0-4 1.8-4 4V448c0 8.8 7.2 16 16 16h195.3c2.2 0 4-1.8 4-4v-84.7c0-3.1 3.3-5 6-3.5L1012.5 505c5.3 3.1 5.3 10.8 0 13.9L781.8 652.1c-2.7 1.6-6-0.3-6-3.4z" /></svg>