<?xml version="1.0" standalone="no"?><!DOCTYPE svg PUBLIC "-//W3C//DTD SVG 1.1//EN" "http://www.w3.org/Graphics/SVG/1.1/DTD/svg11.dtd"><svg class="icon" width="200px" height="200.00px" viewBox="0 0 1024 1024" version="1.1" xmlns="http://www.w3.org/2000/svg"><path fill="#333333" d="M858.7 600.8V548c0-2.2-1.8-4-4-4H560.5c-8.8 0-16 7.2-16 16v294.7c0 2.2 1.8 4 4 4h52.8c3.1 0 5 3.3 3.5 6l-85.3 147.8c-3.1 5.3-10.8 5.3-13.9 0l-85.3-147.8c-1.5-2.7 0.4-6 3.5-6h52.8c2.2 0 4-1.8 4-4V560c0-8.8-7.2-16-16-16H169.3c-2.2 0-4 1.8-4 4v52.8c0 3.1-3.3 5-6 3.5L11.5 518.9c-5.3-3.1-5.3-10.8 0-13.9l147.8-85.3c2.7-1.5 6 0.4 6 3.5V476c0 2.2 1.8 4 4 4h295.2c8.8 0 16-7.2 16-16V169.3c0-2.2-1.8-4-4-4h-52.8c-3.1 0-5-3.3-3.5-6l85.3-147.8c3.1-5.3 10.8-5.3 13.9 0l85.3 147.8c1.5 2.7-0.4 6-3.5 6h-52.8c-2.2 0-4 1.8-4 4V464c0 8.8 7.2 16 16 16h294.2c2.2 0 4-1.8 4-4v-52.8c0-3.1 3.3-5 6-3.5l147.8 85.3c5.3 3.1 5.3 10.8 0 13.9l-147.8 85.3c-2.6 1.6-5.9-0.3-5.9-3.4z" /></svg>