<?xml version="1.0" standalone="no"?><!DOCTYPE svg PUBLIC "-//W3C//DTD SVG 1.1//EN" "http://www.w3.org/Graphics/SVG/1.1/DTD/svg11.dtd"><svg class="icon" width="200px" height="200.00px" viewBox="0 0 1024 1024" version="1.1" xmlns="http://www.w3.org/2000/svg"><path fill="#333333" d="M930.6 794.8c6.2 6.2 6.2 16.4 0 22.6L817.5 930.6c-6.2 6.2-16.4 6.2-22.6 0L523.3 659.1c-6.2-6.2-16.4-6.2-22.6 0L229.2 930.6c-6.2 6.2-16.4 6.2-22.6 0L93.4 817.5c-6.2-6.2-6.2-16.4 0-22.6l271.5-271.5c6.2-6.2 6.2-16.4 0-22.6L93.4 229.1c-6.2-6.2-6.2-16.4 0-22.6L206.5 93.4c6.2-6.2 16.4-6.2 22.6 0l271.5 271.5c6.2 6.2 16.4 6.2 22.6 0L794.8 93.4c6.2-6.2 16.4-6.2 22.6 0l113.1 113.1c6.2 6.2 6.2 16.4 0 22.6L659.1 500.7c-6.2 6.2-6.2 16.4 0 22.6l271.5 271.5z" /></svg>