<?xml version="1.0" standalone="no"?><!DOCTYPE svg PUBLIC "-//W3C//DTD SVG 1.1//EN" "http://www.w3.org/Graphics/SVG/1.1/DTD/svg11.dtd"><svg class="icon" width="200px" height="200.00px" viewBox="0 0 1024 1024" version="1.1" xmlns="http://www.w3.org/2000/svg"><path fill="#333333" d="M240 159.6V576c0 8.8-7.2 16-16 16h-72C68 592 0 652.8 0 727.7c0 75 68 135.7 152 135.7s152-60.8 152-135.7V676 386.4c0-1.9 1.4-3.6 3.3-3.9l568-97c2.4-0.4 4.7 1.5 4.7 3.9V688c0 8.8-7.2 16-16 16h-80c-88.4 0-160 64.3-160 143.7 0 79.4 71.6 143.7 160 143.7s160-64.3 160-143.7V836 73.2c0-39.1-34.8-69.1-73.5-63.3l-576 86.4c-31.3 4.7-54.5 31.6-54.5 63.3z m0 568.1c0 17.8-8.2 34.9-23.1 48.2-17 15.1-40 23.5-64.9 23.5s-47.9-8.3-64.9-23.5C72.2 762.6 64 745.5 64 727.7c0-17.8 8.2-34.9 23.1-48.2 17-15.2 40-23.5 64.9-23.5h80c4.4 0 8 3.6 8 8v63.7z m640 120c0 20-9.1 39.2-25.6 54-18.5 16.6-43.5 25.7-70.4 25.7s-51.9-9.1-70.4-25.7c-16.5-14.8-25.6-34-25.6-54s9.1-39.2 25.6-54c18.5-16.6 43.5-25.7 70.4-25.7h88c4.4 0 8 3.6 8 8v71.7zM304 313.3V187.1c0-15.8 11.6-29.3 27.3-31.6l512-76.8c19.3-2.9 36.7 12.1 36.7 31.6v106c0 1.9-1.4 3.6-3.3 3.9l-568 97c-2.5 0.5-4.7-1.4-4.7-3.9z" /></svg>