<?xml version="1.0" standalone="no"?><!DOCTYPE svg PUBLIC "-//W3C//DTD SVG 1.1//EN" "http://www.w3.org/Graphics/SVG/1.1/DTD/svg11.dtd"><svg class="icon" width="200px" height="200.00px" viewBox="0 0 1024 1024" version="1.1" xmlns="http://www.w3.org/2000/svg"><path fill="#333333" d="M463.5 189.6c-34.7 20.4-67.3 43.8-97.7 69.8-6.9-2.2-14.2-3.4-21.8-3.4-39.8 0-72 32.2-72 72 0 8.5 1.5 16.7 4.2 24.2-49.8 62.4-88.8 133.7-114.3 211.2-9.5-8.3-18.7-16.9-27.5-25.8-24.7-24.7-47.3-51.9-67-80.7-0.8-1.1-1.6-2.3-2.4-3.4-17.4-25.8-32.7-53-45.7-81.3C74.8 176.2 244.2 27.9 451.5 3.5c-2.3 19.8-3.5 40-3.5 60.5v4.5c0.4 41.8 5.7 82.3 15.5 121.1zM1023.3 538.4c-0.6 11.4-1.5 22.8-2.9 34C990.5 826.7 774.3 1024 512 1024c-112.8 0-217.1-36.5-301.7-98.3-5.1-20.5-9.2-41.4-12.2-62.4 11-0.5 22-1.3 32.8-2.4 75.7-7.5 147.4-28.3 212.9-60.1C456 810.3 471.3 816 488 816c31.5 0 58.2-20.2 68-48.3 149.6-4.7 286.1-61.3 392.1-152.5 14.8-12.7 28.9-26.1 42.5-40.1 11.3-11.8 22.3-24 32.7-36.7zM899.5 572.5c-14.7 12.3-30.1 23.8-46 34.6-30.4 20.5-62.8 38.1-96.5 52.4-53 22.4-108.6 36.5-165.8 42 56.4-50.9 103.6-111.8 138.7-179.9 52.1 26.2 109.2 43.8 169.6 50.9zM128.4 798.7c0.6 19.3 2.1 38.4 4.3 57.2-17.5-19.3-33.6-40-48.1-61.9C31.1 713.1 0 616.2 0 512c0-13 0.5-25.9 1.4-38.7 19.2 30.4 41 59.1 65 85.7 23.6 26.2 49.4 50.4 77 72.3-7.9 36.6-12.9 74.3-14.7 112.9-0.5 10.5-0.7 21.2-0.7 31.8 0 7.6 0.1 15.1 0.4 22.7zM395.9 752.4l-6.9 3c-62.5 26.5-128.6 41.3-196.6 44.1-0.3-7.8-0.4-15.6-0.4-23.5 0-35.2 2.9-70 8.7-104.2 59.2 37.2 125 64.7 195.2 80.6zM810.5 96H808c-7.6 0-15.1 0.1-22.6 0.4-21.8 0.7-43.2 2.4-64.4 5.1-7.4 0.9-14.8 2-22.1 3.2-62.2 10-121.5 28.5-176.9 54.2-6.7-30.9-10-62.7-10-94.9 0-21.6 1.5-42.9 4.5-64 65.3 0.6 127.6 13.3 184.8 36.1 27.7 11 54.2 24.4 79.3 39.9 10.2 6.3 20.2 13 29.9 20zM1018.4 436c-3.7 5.9-7.5 11.8-11.4 17.5-13.8 20.4-28.9 40-45.3 58.5H960c-60.5 0-119.2-11.8-174.4-35.2-10-4.2-19.7-8.8-29.3-13.6 12.7-32.2 22.8-65.7 30-100.2 26.7-10.5 45.6-36.6 45.6-67 0-25-12.7-47-32-59.9V232c0-22.3-1.2-44.3-3.4-66-0.2-1.9-0.4-3.9-0.6-5.8 4-0.1 8-0.1 12-0.1 27.2 0 54.1 1.7 80.7 5.2 67.9 73.5 114.4 167 129.8 270.7zM722.2 357.3c-5.5 24.5-12.7 48.6-21.4 72.2-20.4-14.5-39.6-30.8-57.5-48.7-41.2-41.2-73.5-89.1-96-142.4-2.4-5.7-4.7-11.5-6.9-17.3 9.2-4.5 18.5-8.7 28-12.7 52.6-22.2 107.4-36.9 163.8-43.8 2.5 21 3.8 42.1 3.9 63.5-27.9 9.9-48 36.5-48 67.9-0.1 25.9 13.6 48.6 34.1 61.3zM674.6 489.1c-10.6 20.8-22.5 41-35.6 60.4-20.3 30.1-43.7 58.4-69.4 84.1-16 16-33.1 31.2-51 45.2-9.3-4.4-19.7-6.8-30.7-6.8-20.9 0-39.7 8.9-52.8 23.1-41.2-7.4-81.4-19.3-120.2-35.7-33.6-14.2-66.1-31.9-96.5-52.4-0.8-0.6-1.7-1.2-2.5-1.7 6.7-23.4 14.9-46.4 24.5-69 15.4-36.5 34.5-71.7 56.8-104.6 8-11.9 16.5-23.5 25.4-34.9 6.8 2.1 14 3.3 21.4 3.3 39.8 0 72-32.2 72-72 0-8.3-1.4-16.4-4-23.8 16.5-13.9 33.8-27 51.7-39 6.6-4.5 13.3-8.8 20.1-13 38.2 96.9 105.4 179.4 190.8 236.8z" /></svg>