<?xml version="1.0" standalone="no"?><!DOCTYPE svg PUBLIC "-//W3C//DTD SVG 1.1//EN" "http://www.w3.org/Graphics/SVG/1.1/DTD/svg11.dtd"><svg class="icon" width="200px" height="200.00px" viewBox="0 0 1024 1024" version="1.1" xmlns="http://www.w3.org/2000/svg"><path fill="#333333" d="M1024 507.5c-0.2-24.3-2.1-48.1-5.6-71.5-15.4-103.7-61.9-197.2-129.8-270.8-23.6-25.6-49.8-48.8-78.1-69.2-9.7-7-19.7-13.7-29.9-20-25.1-15.5-51.6-28.8-79.3-39.9C644.1 13.4 581.8 0.6 516.5 0H512c-20.5 0-40.6 1.2-60.5 3.5C244.2 27.9 74.8 176.2 19.3 372.3c-9.2 32.5-15.3 66.3-17.9 101C0.5 486.1 0 499 0 512c0 104.2 31.1 201.1 84.6 282 14.4 21.9 30.5 42.6 48.1 61.9 2.3 2.5 4.6 5 7 7.5 21.6 22.9 45.2 43.7 70.7 62.3 84.6 61.8 188.9 98.3 301.7 98.3 262.3 0 478.5-197.3 508.5-451.5 1.3-11.2 2.3-22.6 2.9-34 0.4-8.8 0.7-17.6 0.7-26.4-0.2-1.6-0.2-3.1-0.2-4.6zM786.4 363c26.7-10.5 45.6-36.6 45.6-67 0-25-12.7-47-32-59.9V232c0-22.3-1.2-44.3-3.4-66 11.1 9.2 21.9 19 32.2 29.3 41.2 41.2 73.5 89.1 96 142.4C948.2 392.8 960 451.5 960 512c-60.5 0-119.2-11.8-174.4-35.2-10-4.2-19.7-8.8-29.3-13.6C769 431 779.1 397.5 786.4 363z m113.1 209.5c-14.7 12.3-30.1 23.9-46 34.6-30.4 20.5-62.8 38.1-96.5 52.4-53 22.4-108.6 36.5-165.8 42 56.4-50.9 103.6-111.8 138.7-179.9 52.1 26.2 109.2 43.8 169.6 50.9zM732.1 164.6c2.5 21 3.8 42.1 3.9 63.5-27.9 9.9-48 36.5-48 67.9 0 25.9 13.7 48.6 34.2 61.3-5.5 24.5-12.7 48.6-21.4 72.2-20.4-14.5-39.6-30.8-57.5-48.7-41.2-41.2-73.5-89.1-96-142.4-2.4-5.7-4.7-11.5-6.9-17.3 9.2-4.5 18.5-8.7 28-12.7 52.4-22.3 107.3-36.9 163.7-43.8z m-45.7-65.4c4.2 1.8 8.4 3.6 12.5 5.5-62.2 10-121.5 28.5-176.9 54.2-6.7-30.9-10-62.7-10-94.9 60.5 0 119.2 11.8 174.4 35.2z m-202.7 153c38.3 97 105.5 179.5 190.9 237-10.6 20.8-22.5 41-35.6 60.4-20.3 30.1-43.7 58.4-69.4 84.1-16 16-33.1 31.2-51 45.2-9.3-4.4-19.7-6.8-30.7-6.8-20.9 0-39.7 8.9-52.8 23.1-41.2-7.4-81.4-19.3-120.2-35.7-33.6-14.2-66.1-31.9-96.5-52.4-0.8-0.6-1.7-1.1-2.5-1.7 6.7-23.4 14.9-46.4 24.5-69 15.4-36.5 34.5-71.7 56.8-104.6 8-11.9 16.5-23.5 25.4-34.9 6.8 2.1 14 3.3 21.4 3.3 39.8 0 72-32.2 72-72 0-8.4-1.4-16.4-4-23.8 16.5-13.9 33.8-27 51.7-39 6.5-4.7 13.2-9 20-13.2z m-355 492c-11.2-18.5-21.1-37.8-29.5-57.8C81.9 645.6 71 602.9 66.4 559c23.6 26.2 49.4 50.4 77 72.3-7.9 36.6-12.9 74.3-14.7 112.9z m5.7-206.6c-24.7-24.7-47.3-51.9-67-80.7 5-41.1 15.7-81 31.8-119.3 22.6-53.3 54.9-101.3 96-142.4 41.2-41.2 89.1-73.5 142.4-96 35.5-15 72.4-25.3 110.4-30.7 0.4 41.7 5.7 82.3 15.5 121.1-34.7 20.4-67.3 43.8-97.7 69.8-6.9-2.2-14.2-3.4-21.8-3.4-39.8 0-72 32.2-72 72 0 8.5 1.5 16.6 4.2 24.2-49.8 62.4-88.8 133.7-114.3 211.2-9.5-8.3-18.7-16.9-27.5-25.8z m58 261.9c-0.3-7.8-0.4-15.6-0.4-23.5 0-35.2 2.9-70 8.7-104.2 59.2 37.1 125 64.7 195.2 80.6l-6.9 3c-62.5 26.4-128.5 41.2-196.6 44.1z m732.4-113.1c-22.6 53.3-54.9 101.3-96 142.4-41.2 41.2-89.1 73.5-142.4 96C631.2 948.2 572.5 960 512 960s-119.2-11.8-174.4-35.2c-38.6-16.3-74.3-37.7-106.7-63.9 75.7-7.5 147.4-28.3 212.9-60.1C456 810.3 471.3 816 488 816c31.5 0 58.2-20.2 68-48.3 149.6-4.7 286.1-61.3 392.1-152.5-5.7 24.2-13.5 48-23.3 71.2z" /></svg>