<?xml version="1.0" standalone="no"?><!DOCTYPE svg PUBLIC "-//W3C//DTD SVG 1.1//EN" "http://www.w3.org/Graphics/SVG/1.1/DTD/svg11.dtd"><svg class="icon" width="200px" height="200.00px" viewBox="0 0 1024 1024" version="1.1" xmlns="http://www.w3.org/2000/svg"><path fill="#333333" d="M928 352c-17.7 0-32-14.3-32-32V144c0-70.7-57.3-128-128-128H128C57.3 16 0 73.3 0 144v736c0 70.7 57.3 128 128 128h704c106 0 192-86 192-192V448c0-53-43-96-96-96zM448 824c0 4.4-3.6 8-8 8H168c-4.4 0-8-3.6-8-8v-48c0-4.4 3.6-8 8-8h272c4.4 0 8 3.6 8 8v48z m0-128c0 4.4-3.6 8-8 8H168c-4.4 0-8-3.6-8-8v-48c0-4.4 3.6-8 8-8h272c4.4 0 8 3.6 8 8v48z m0-128c0 4.4-3.6 8-8 8H168c-4.4 0-8-3.6-8-8v-48c0-4.4 3.6-8 8-8h272c4.4 0 8 3.6 8 8v48z m0-128c0 4.4-3.6 8-8 8H168c-4.4 0-8-3.6-8-8v-48c0-4.4 3.6-8 8-8h272c4.4 0 8 3.6 8 8v48z m288 384c0 4.4-3.6 8-8 8H520c-4.4 0-8-3.6-8-8V392c0-4.4 3.6-8 8-8h208c4.4 0 8 3.6 8 8v432z m0-512c0 4.4-3.6 8-8 8H168c-4.4 0-8-3.6-8-8v-48c0-4.4 3.6-8 8-8h560c4.4 0 8 3.6 8 8v48z m160 525.5V448c0-17.7 14.3-32 32-32s32 14.3 32 32v416c-23.6 23.6-64 6.9-64-26.5zM672 452v312c0 2.2-1.8 4-4 4h-88c-2.2 0-4-1.8-4-4V452c0-2.2 1.8-4 4-4h88c2.2 0 4 1.8 4 4z" /></svg>