<?xml version="1.0" standalone="no"?><!DOCTYPE svg PUBLIC "-//W3C//DTD SVG 1.1//EN" "http://www.w3.org/Graphics/SVG/1.1/DTD/svg11.dtd"><svg class="icon" width="200px" height="200.00px" viewBox="0 0 1024 1024" version="1.1" xmlns="http://www.w3.org/2000/svg"><path fill="#333333" d="M512 0C229.2 0 0 229.2 0 512s229.2 512 512 512 512-229.2 512-512S794.8 0 512 0z m272 704h-64V525.6L486.3 724.8c-5.2 4.4-13.2 0.7-13.2-6.1V551L269.2 724.8c-5.2 4.4-13.2 0.7-13.2-6.1V305.3c0-6.8 8-10.5 13.2-6.1L473.1 473V305.3c0-6.8 8-10.5 13.2-6.1L720 498.4V320h64v384z" /></svg>