<?xml version="1.0" standalone="no"?><!DOCTYPE svg PUBLIC "-//W3C//DTD SVG 1.1//EN" "http://www.w3.org/Graphics/SVG/1.1/DTD/svg11.dtd"><svg class="icon" width="200px" height="200.00px" viewBox="0 0 1024 1024" version="1.1" xmlns="http://www.w3.org/2000/svg"><path fill="#333333" d="M224 68v152c0 2.2-1.8 4-4 4h-152c-2.2 0-4-1.8-4-4V68c0-2.2 1.8-4 4-4h152c2.2 0 4 1.8 4 4zM32 0C14.3 0 0 14.3 0 32v224c0 17.7 14.3 32 32 32h224c17.7 0 32-14.3 32-32V32c0-17.7-14.3-32-32-32h-224zM592.4 68v152c0 2.2-1.8 4-4 4H436.4c-2.2 0-4-1.8-4-4V68c0-2.2 1.8-4 4-4h152c2.2 0 4 1.8 4 4zM400.4 0c-17.7 0-32 14.3-32 32v224c0 17.7 14.3 32 32 32h224c17.7 0 32-14.3 32-32V32c0-17.7-14.3-32-32-32H400.4zM960.4 68v152c0 2.2-1.8 4-4 4H804.4c-2.2 0-4-1.8-4-4V68c0-2.2 1.8-4 4-4h152c2.2 0 4 1.8 4 4zM768.4 0c-17.7 0-32 14.3-32 32v224c0 17.7 14.3 32 32 32h224c17.7 0 32-14.3 32-32V32c0-17.7-14.3-32-32-32H768.4zM224 436v152c0 2.2-1.8 4-4 4h-152c-2.2 0-4-1.8-4-4V436c0-2.2 1.8-4 4-4h152c2.2 0 4 1.8 4 4z m-192-68c-17.7 0-32 14.3-32 32v224c0 17.7 14.3 32 32 32h224c17.7 0 32-14.3 32-32V400c0-17.7-14.3-32-32-32h-224zM592.4 436v152c0 2.2-1.8 4-4 4H436.4c-2.2 0-4-1.8-4-4V436c0-2.2 1.8-4 4-4h152c2.2 0 4 1.8 4 4z m-192-68c-17.7 0-32 14.3-32 32v224c0 17.7 14.3 32 32 32h224c17.7 0 32-14.3 32-32V400c0-17.7-14.3-32-32-32H400.4zM960.4 436v152c0 2.2-1.8 4-4 4H804.4c-2.2 0-4-1.8-4-4V436c0-2.2 1.8-4 4-4h152c2.2 0 4 1.8 4 4z m-192-68c-17.7 0-32 14.3-32 32v224c0 17.7 14.3 32 32 32h224c17.7 0 32-14.3 32-32V400c0-17.7-14.3-32-32-32H768.4zM224 804v152c0 2.2-1.8 4-4 4h-152c-2.2 0-4-1.8-4-4V804c0-2.2 1.8-4 4-4h152c2.2 0 4 1.8 4 4z m-192-68c-17.7 0-32 14.3-32 32v224c0 17.7 14.3 32 32 32h224c17.7 0 32-14.3 32-32V768c0-17.7-14.3-32-32-32h-224zM592.4 804v152c0 2.2-1.8 4-4 4H436.4c-2.2 0-4-1.8-4-4V804c0-2.2 1.8-4 4-4h152c2.2 0 4 1.8 4 4z m-192-68c-17.7 0-32 14.3-32 32v224c0 17.7 14.3 32 32 32h224c17.7 0 32-14.3 32-32V768c0-17.7-14.3-32-32-32H400.4zM960.4 804v152c0 2.2-1.8 4-4 4H804.4c-2.2 0-4-1.8-4-4V804c0-2.2 1.8-4 4-4h152c2.2 0 4 1.8 4 4z m-192-68c-17.7 0-32 14.3-32 32v224c0 17.7 14.3 32 32 32h224c17.7 0 32-14.3 32-32V768c0-17.7-14.3-32-32-32H768.4z" /></svg>