<?xml version="1.0" standalone="no"?><!DOCTYPE svg PUBLIC "-//W3C//DTD SVG 1.1//EN" "http://www.w3.org/Graphics/SVG/1.1/DTD/svg11.dtd"><svg class="icon" width="200px" height="200.00px" viewBox="0 0 1024 1024" version="1.1" xmlns="http://www.w3.org/2000/svg"><path fill="#333333" d="M862 733.2c-5.5-20.6-13.9-39.6-24.6-56.4-48.7-77-82-162.8-96.2-252.8C701.5 173.8 613.8 0 512 0 410.2 0 322.5 173.9 282.8 424c-14.3 90-47.5 175.8-96.3 252.8-10.7 16.9-19.1 35.8-24.6 56.4-26.5 98.9 24 198.4 112.7 222.2 13 3.5 26.1 5.2 39 5.2 6.4 0 12.9-0.4 19.2-1.2 8.9-1.1 17.9 1.7 24.7 7.5 44.5 38.1 99.4 57.1 154.3 57.1 54.9 0 109.9-19 154.3-57.1 6.8-5.9 15.8-8.7 24.7-7.5 6.4 0.8 12.8 1.2 19.2 1.2 13 0 26-1.7 39-5.2 89-23.8 139.5-123.3 113-222.2zM291.3 893.6c-25.1-6.7-46.1-24.5-59.1-50-14.1-27.9-17.1-61.2-8.4-93.8 6.5-24.3 19.3-46.3 36.5-62.9v37.2c0 65.3 13.4 119.9 35.9 163.9 1.6 3.1-1.2 6.6-4.5 5.7-0.2 0-0.3-0.1-0.4-0.1z m288.2 52.7C558 955.4 535.3 960 512 960s-46-4.6-67.5-13.7c-11.9-5-23.1-11.4-33.6-18.9-9.1-6.5-17.6-14-25.5-22.4-7.1-7.5-13.6-15.6-19.5-24.4-27.4-40.6-41.7-94.1-41.7-156.6 0-22.8 0.4-45.4 1.1-67.8 0.7-21.6 1.8-43 3.2-64.2 3.2-48.1 8.1-95.1 14.8-140.5 12.1-82.2 29.3-155.7 51.1-218.5 20.3-58.5 44.2-105.4 69-135.5C481.2 75.9 498.5 64 512 64s30.8 11.9 48.5 33.5c24.8 30.2 48.7 77 69 135.5 21.8 62.7 39 136.2 51.1 218.5 6.7 45.4 11.6 92.4 14.8 140.5 1.4 21.2 2.5 42.6 3.2 64.2 0.8 22.4 1.1 45 1.1 67.8 0 62.6-14.3 116-41.7 156.6-5.9 8.7-12.4 16.9-19.5 24.4-7.9 8.4-16.4 15.8-25.5 22.4-10.4 7.6-21.6 13.9-33.5 18.9z m212.3-102.8c-13 25.5-33.9 43.3-59.1 50-0.1 0-0.2 0.1-0.3 0.1-3.3 0.9-6.1-2.6-4.5-5.7 22.5-44 35.9-98.6 35.9-163.9v-37.2c17.1 16.6 29.9 38.5 36.5 62.9 8.6 32.7 5.6 66-8.5 93.8z" /></svg>