<?xml version="1.0" standalone="no"?><!DOCTYPE svg PUBLIC "-//W3C//DTD SVG 1.1//EN" "http://www.w3.org/Graphics/SVG/1.1/DTD/svg11.dtd"><svg class="icon" width="200px" height="200.00px" viewBox="0 0 1024 1024" version="1.1" xmlns="http://www.w3.org/2000/svg"><path fill="#333333" d="M224 800v160c0 35.3-28.7 64-64 64H8c-4.4 0-8-3.6-8-8v-48c0-4.4 3.6-8 8-8h136c8.8 0 16-7.2 16-16v-16c0-8.8-7.2-16-16-16H8c-4.4 0-8-3.6-8-8v-48c0-4.4 3.6-8 8-8h136c8.8 0 16-7.2 16-16v-16c0-8.8-7.2-16-16-16H8c-4.4 0-8-3.6-8-8v-48c0-4.4 3.6-8 8-8h152c35.3 0 64 28.7 64 64zM160 64v216c0 4.4-3.6 8-8 8h-48c-4.4 0-8-3.6-8-8V80c0-8.8-7.2-16-16-16H40c-4.4 0-8-3.6-8-8V8c0-4.4 3.6-8 8-8h56c35.3 0 64 28.7 64 64zM64 560v16c0 8.8 7.2 16 16 16h136c4.4 0 8 3.6 8 8v48c0 4.4-3.6 8-8 8H64c-35.3 0-64-28.7-64-64v-48c0-35.3 28.7-64 64-64h80c8.8 0 16-7.2 16-16v-16c0-8.8-7.2-16-16-16H8c-4.4 0-8-3.6-8-8v-48c0-4.4 3.6-8 8-8h152c35.3 0 64 28.7 64 64v48c0 35.3-28.7 64-64 64H80c-8.8 0-16 7.2-16 16zM976 192H336c-26.5 0-48-21.5-48-48s21.5-48 48-48h640c26.5 0 48 21.5 48 48s-21.5 48-48 48zM976 560H336c-26.5 0-48-21.5-48-48s21.5-48 48-48h640c26.5 0 48 21.5 48 48s-21.5 48-48 48zM976 928H336c-26.5 0-48-21.5-48-48s21.5-48 48-48h640c26.5 0 48 21.5 48 48s-21.5 48-48 48z" /></svg>