<?xml version="1.0" standalone="no"?><!DOCTYPE svg PUBLIC "-//W3C//DTD SVG 1.1//EN" "http://www.w3.org/Graphics/SVG/1.1/DTD/svg11.dtd"><svg class="icon" width="200px" height="200.00px" viewBox="0 0 1024 1024" version="1.1" xmlns="http://www.w3.org/2000/svg"><path fill="#333333" d="M1012.552471 239.791155l-185.22969-0.099746L877.49539 9.675433c1.097214-4.987337-2.693162-9.675433-7.780246-9.675433H661.543705c-3.790376 0-6.982272 2.593415-7.780246 6.284044l-51.070329 233.207871-99.64699-0.099747L553.318495 9.675433c1.097214-4.987337-2.693162-9.675433-7.780245-9.675433H337.36681c-3.790376 0-6.982272 2.593415-7.780246 6.284044l-50.970582 233.008378-164.482369-0.199494c-1.895188 0-3.690629 0.698227-5.087084 1.795441-1.396454 1.097214-2.393922 2.693162-2.792908 4.58835L64.160498 453.348919c-0.997467 4.987337 2.792909 9.575687 7.879992 9.575686h157.699591L212.284402 542.522501l-159.993766-0.099746c-3.790376 0-7.082018 2.693162-7.780245 6.383791L2.317521 756.578999c-0.997467 4.987337 2.792909 9.575687 7.879992 9.575686H163.408501l-53.763491 245.676213c-1.097214 4.987337 2.693162 9.675433 7.680499 9.675434l207.872199 2.493668h0.099747c3.790376 0 6.982272-2.593415 7.780245-6.284044l54.960452-251.561271H487.585396l-53.763492 245.676213c-1.097214 4.987337 2.693162 9.675433 7.680499 9.675434l207.8722 2.493668h0.099746c3.790376 0 6.982272-2.593415 7.780246-6.284044L712.215047 766.054939h192.211962c3.790376 0 6.982272-2.593415 7.780245-6.284045l45.285019-207.074225c1.097214-4.987337-2.693162-9.675433-7.780246-9.675434l-188.621079-0.199493 17.455679-79.996883H967.3672c3.790376 0 6.982272-2.593415 7.780245-6.284045l45.285019-207.074225c0.997467-4.987337-2.892655-9.675433-7.879993-9.675434zM536.461297 542.721995l-99.547244-0.099747 17.455679-79.697643h99.64699l-17.555425 79.79739z" /></svg>