<?xml version="1.0" standalone="no"?><!DOCTYPE svg PUBLIC "-//W3C//DTD SVG 1.1//EN" "http://www.w3.org/Graphics/SVG/1.1/DTD/svg11.dtd"><svg class="icon" width="200px" height="200.00px" viewBox="0 0 1024 1024" version="1.1" xmlns="http://www.w3.org/2000/svg"><path fill="#333333" d="M1024.00324 767.1c0.5 71.1-57 128.9-128 128.9-55.7 0-103.1-35.6-120.7-85.3-2.3-6.4-8.3-10.7-15.1-10.7H208.00324c-42.5 0-82.6-16.7-113-47-30.3-30.3-47-70.4-47-113s16.7-82.6 47-113c30.3-30.3 70.5-47 113-47h576c53.3 0 96.5-43.6 96-97-0.5-52.8-44.4-95-97.2-95h-519c-6.8 0-12.8 4.3-15.1 10.7-17.6 49.7-65 85.3-120.7 85.3C57.00324 384-0.49676 326.2 0.00324 255.1 0.50324 184.6 59.90324 126.7 130.40324 128c54.7 1 101.1 36.4 118.4 85.4 2.2 6.4 8.3 10.6 15 10.6H784.00324c42.5 0 82.6 16.7 113 47 30.3 30.3 47 70.5 47 113s-16.7 82.6-47 113c-30.3 30.3-70.5 47-113 47H208.00324c-53.3 0-96.5 43.6-96 97 0.5 52.8 44.4 95 97.2 95h551c6.7 0 12.8-4.2 15-10.6 17.3-49.1 63.6-84.4 118.4-85.4 70.5-1.3 129.9 56.6 130.4 127.1z" /></svg>