<?xml version="1.0" standalone="no"?><!DOCTYPE svg PUBLIC "-//W3C//DTD SVG 1.1//EN" "http://www.w3.org/Graphics/SVG/1.1/DTD/svg11.dtd"><svg class="icon" width="200px" height="200.00px" viewBox="0 0 1024 1024" version="1.1" xmlns="http://www.w3.org/2000/svg"><path fill="#333333" d="M121.1 917.8c3.2-23.5 13.3-59.2 26.5-81.7 0.2-0.3 0.3-0.5 0.5-0.8 1.4-2.3 2.8-4.5 4.2-6.5 14.4-20.2 33.8-36 54.3-49.4 0.7-0.5 1.5-0.9 2.2-1.4 0.3-0.2 0.6-0.4 1-0.6 21.2-13 43.7-23 66.6-32.5 24.4-10.1 49.2-19.6 72.9-31.1 0.5-0.3 1-0.5 1.5-0.7 0.1 0 0.2-0.1 0.3-0.1 2.1-1 4.3-2.1 6.4-3.2 22.5-12.3 46.7-28 55.6-54 0-0.2 0.1-0.4 0.1-0.6 0.3-2.3 0.5-4.6 0.7-6.9 0.1-0.5 0.1-1 0.1-1.5 0.1-1.4 0.2-2.7 0.3-4.1 1.3-17.6 1.3-35.3 1.1-53-0.1-7.5-0.1-15-0.1-22.4-11-8.4-18.2-20.8-24.8-32.9-10.9-21-18.9-43.6-22.4-67-0.1-0.5-0.1-1-0.2-1.4-0.1-0.7-0.7-1.3-1.4-1.5-12.2-2.8-21.3-13.3-25.9-24.8-5.5-13-8.2-27-9.1-41.1-0.7-13.4 4.6-27.1 14.6-35.9 1-0.8 1.4-2.2 1.1-3.4-10.2-42.2-17.6-85.5-15.9-129 1.1-27.4 6-55.1 17.7-79.9 3.3-7 7.1-13.7 11.5-20 0.3-0.4 0.6-0.9 0.9-1.3 8.1-11.6 18-21.9 29.4-30.2 6.4-4.8 13.2-9 20.2-12.6 1.6-0.8 3.3-1.6 4.9-2.4 30.8-14.7 66-19.4 99.8-19.9 24.5 0.5 50.1 3.9 71.4 17.3 5.6 3.4 10.4 7.9 14.5 12.9 1.7 2.1 3.3 4.3 4.8 6.6 20.7 3.3 41.4 10.9 57 25.6 0.9 0.9 1.8 1.7 2.7 2.6 20.8 21.1 30.5 51.1 33.5 80.4 5.2 50.6-4.5 101.3-18.6 149.7-0.4 1.3 0 2.7 1 3.6 10.5 9.3 15.7 23.9 14.4 38.1-1.5 16.8-4.9 34.3-14.4 48.7-4.8 7.3-12.2 12.6-20.6 14.7-0.7 0.2-1.3 0.7-1.3 1.5-0.6 4.5-1.4 9-2.4 13.4-4.3 20.6-11.8 40.6-21.6 59.1-5.9 10.8-12.5 21.4-22.3 29 0 7.7-0.1 15.4-0.2 23.1-0.2 15.2-0.2 30.5 0.6 45.7 0.2 4.3 0.6 8.6 1 12.8 0.2 2.3 0.4 4.5 0.7 6.8 0 0.1 0 0.2 0.1 0.2 7.2 21.3 25.6 35.9 43.8 47.2 6.2 3.6 12.6 7 19 10.2 23.4 11.7 48 21.1 72.2 31.1 23.2 9.6 46.2 19.8 67.5 33.1 4 2.5 8 5.1 11.8 7.8 19.3 13.3 36.9 30 49.7 49.9 4.7 7.3 8.7 14.9 11.9 23 6.4 15 11.3 43.6 13.3 59.8 0.6 1.1-199.2 42.2-392 42.2-192.9-0.1-394.2-40.2-392.1-42.3zM350.4 637.5c-0.7 0.8-1.7 1.7-3 2.7-4.3 3.6-9.9 7.1-15.2 10.2-1.7 1-3.3 1.9-4.9 2.8-1.4 0.7-2.8 1.4-4.3 2.1l-1.6 0.8-0.1 0.1c-0.1 0-0.2 0.1-0.3 0.1-16 7.8-33 14.7-50.9 22-6 2.4-12.1 4.9-18.3 7.5-9.5 4-19.4 8.1-29.3 12.7-15.1 6.9-30.5 14.8-45.8 24.1-0.4 0.2-0.8 0.5-1.2 0.7-1 0.6-2.1 1.3-3.2 2l-0.3 0.2-0.3 0.2c-20 13.1-36.9 26.8-51 41.4-7.6 7.8-14.3 15.9-20.3 24.4-2.4 3.4-4.8 6.9-6.9 10.5-0.4 0.6-0.8 1.3-1.1 1.9-3 5.2-5.9 10.8-8.6 16.6-1.5 3.2-5 5.1-8.5 4.6C29.6 818 1 811.8 1.7 811c3.1-23 13.7-59.2 27.3-77.9 12.6-17.7 29.6-31.5 47.5-43.2 19.4-12.2 40-21.4 61-30.1 23.8-9.9 48-19 70.9-30.8 0.8-0.4 1.5-0.8 2.3-1.3 16.5-9.2 33.5-20.6 42.7-37.6 1.4-2.6 2.7-5.4 3.7-8.4 2.2-19.2 2.2-38.5 2-57.8 0-6.5-0.1-13.1-0.1-19.6-9.6-7.4-16-18.2-21.7-28.8-9.7-18.7-16.8-39-19.8-59.9-0.1-0.6-0.6-1.1-1.2-1.3-10.7-2.4-18.6-11.6-22.7-21.7-4.8-11.4-7.2-23.7-8-35.9-0.6-11.8 4-23.7 12.7-31.4 0.9-0.8 1.2-1.9 0.9-3-8.9-36.9-15.4-74.8-13.9-112.9 1-24 5.3-48.2 15.5-69.9 8.4-17.8 20.9-33.6 36.5-45 24.5-18.3 54.3-26.3 84.3-29.2 3.7-0.4 5.8 4 3.3 6.7-5.7 6.2-11 12.8-15.9 19.8-0.6 0.8-1.2 1.6-1.7 2.5-6.2 9-11.7 18.7-16.5 28.8-2.7 5.7-5.2 11.6-7.4 17.7-9.6 25.9-15 55-16.3 86.8-1.5 36.7 2.1 74.5 11.5 119.7-4.6 9.4-8 19.5-9.8 30-1.4 8.1-1.9 16.4-1.5 24.8v0.6c1.4 22.3 6.1 43 13.9 61.6 5.6 13.6 13.8 26.1 23.8 36.2 1.8 1.8 3.6 3.5 5.5 5.2 3.3 12.2 7.4 24.3 12.5 36.2 3.1 7.4 6.6 14.8 10.4 22.1l0.3 0.5 0.3 0.5c3.7 6.9 9.2 17 17.2 27.6 0.2 16.1 0.2 30.7-0.8 44.9zM1024.4 811c0.7 0.7-26.9 6.8-71.1 13.8-3.5 0.5-6.9-1.2-8.4-4.4-3.4-6.8-7.1-13.5-11.3-19.9-7.6-11.9-16.4-23.1-26.4-33.6-0.9-1-1.9-2-2.8-3-11.2-11.4-23.8-21.9-37.7-31.4-4.6-3.2-9.5-6.5-14.5-9.6-15.5-9.7-31.3-17.8-46.8-24.9-10.2-4.7-20.4-9-30.2-13.1-5.4-2.2-10.9-4.5-16.2-6.6-18.4-7.5-35.8-14.5-51.9-22.6l-2.3-1.1c-2.9-1.5-5.7-2.9-8.4-4.5-1.3-0.7-2.6-1.5-3.9-2.2-8-5-12.1-8.6-14.2-10.7-0.1-1.5-0.2-3.1-0.3-4.7v-0.3c-0.7-13.1-0.7-26.9-0.6-40.1 5.8-7.9 10.5-15.8 14.6-23.2l0.2-0.4 0.2-0.4c3.9-7.3 7.5-14.7 10.7-22.2 5.7-13.3 10.4-26.8 14-40.5 6.9-5.9 13-12.8 18.1-20.6l0.1-0.1 0.1-0.1c18.2-27.7 22.8-57.7 24.6-77.9 1-10.5 0.5-20.9-1.4-31-1.7-9.3-4.7-18.3-8.7-26.8 10-40.1 18.8-91.8 13.2-146.1-2.1-20.6-6.5-39.9-13.1-57.5-8.9-23.8-21.8-44.5-38.3-61.3-1.6-1.6-3.1-3.1-4.6-4.5-2.8-2.6-5.7-5.2-8.7-7.6-3.1-2.5-1.1-7.4 2.8-7.1 31.1 2.6 62.2 10.5 87.5 29.5 15.7 11.5 28.2 27.3 36.5 45 10.2 21.7 14.5 45.9 15.5 69.9 1.5 38.1-5 76-13.9 112.9-0.3 1.1 0.1 2.2 0.9 3 8.7 7.7 13.4 19.7 12.7 31.4-0.8 12.3-3.2 24.5-8 35.9-4.1 10.1-12 19.2-22.7 21.7-0.6 0.1-1.1 0.6-1.2 1.3-3 20.9-10 41.2-19.8 59.9-5.8 10.6-12.1 21.4-21.7 28.8 0 6.5-0.1 13.1-0.1 19.6-0.1 19.3-0.2 38.6 2.1 57.8 1 2.9 2.2 5.7 3.7 8.4 9.1 17 26.2 28.4 42.7 37.6 0.8 0.4 1.5 0.8 2.3 1.3 23 11.8 47.1 20.9 70.9 30.8 21 8.7 41.7 18 61 30.1 17.9 11.7 34.9 25.5 47.5 43.2 13.5 19 24.2 55.2 27.3 78.1z" /></svg>