<?xml version="1.0" standalone="no"?><!DOCTYPE svg PUBLIC "-//W3C//DTD SVG 1.1//EN" "http://www.w3.org/Graphics/SVG/1.1/DTD/svg11.dtd"><svg class="icon" width="200px" height="200.00px" viewBox="0 0 1024 1024" version="1.1" xmlns="http://www.w3.org/2000/svg"><path fill="#333333" d="M1024.174276 554.740972c0-45.476647-51.873362-89.653961-121.637537-113.341797 0 0-23.088144-10.194765-10.894406-49.274697 36.18142-39.379778 56.670899-90.553499 57.570437-144.02604 4.797536-64.86669-43.877468-121.337691-108.744158-126.135228-64.86669-4.797536-121.337691 43.877468-126.135228 108.744158-0.399795 5.797023-0.399795 11.594046 0 17.39107 0.899538 53.472541 21.389016 104.646263 57.570437 144.02604 12.79343 34.582241-10.194765 46.676031-14.692455 48.675005-16.191685 5.896972-31.783679 13.193225-46.676032 21.788811v-30.684243c0-45.476647-57.570437-89.653961-128.034252-113.341798 0 0-23.088144-10.194765-10.894406-49.274696 36.081472-38.979983 56.770847-89.653961 58.270078-142.726708C634.67429 61.59421 585.999286 5.123209 521.132596 0.325673S399.794904 44.30309 394.997368 109.16978c-0.399795 5.797023-0.399795 11.594046 0 17.391069 0.899538 53.472541 21.389016 104.646263 57.570437 144.02604 12.79343 34.582241-10.194765 46.676031-14.692455 48.675005-63.967152 24.287528-121.637537 69.164483-121.637538 113.341797v31.983576c-15.492045-8.995381-31.783679-16.691429-48.675004-23.088144-4.49769 0-27.485886-14.692455-14.692455-48.675004 36.18142-39.379778 56.670899-90.553499 57.570436-144.026041 6.696561-63.667306-39.379778-120.63805-103.047084-127.43456-5.097382-0.499743-10.294714-0.699641-15.392095-0.599692-63.967152-1.399281-116.93995 49.274697-118.339231 113.241848-0.099949 4.897485 0.099949 9.894919 0.599692 14.792404 0.999487 53.472541 21.488965 104.646263 57.570436 144.026041 12.79343 39.079932-7.696048 47.975364-10.894405 49.274696-69.164483 23.088144-120.937897 68.464842-120.937897 112.642157v211.89119c0 113.941489 128.034252 211.19155 305.343202 256.068505v-63.967152c0-51.873362 63.967152-99.249034 128.034252-122.93687 4.49769-2.098922 8.095843-5.697074 10.194765-10.194764 2.898512-7.396202 2.898512-15.591993 0-23.088144-37.080958-40.978957-58.170129-93.851806-59.56941-149.123423 0-70.663713 57.270591-128.034252 127.934304-128.034253s128.034252 57.270591 128.034252 127.934304v0.099949c-0.999487 55.07172-21.688862 107.944569-58.270077 149.123423-6.996407 23.088144 0 32.683217 5.097382 34.582241 63.967152 21.08917 133.731327 63.967152 133.731327 122.93687v63.967152C895.940126 979.222994 1023.87443 881.273292 1023.87443 766.732111V554.740972z" /></svg>