<?xml version="1.0" standalone="no"?><!DOCTYPE svg PUBLIC "-//W3C//DTD SVG 1.1//EN" "http://www.w3.org/Graphics/SVG/1.1/DTD/svg11.dtd"><svg class="icon" width="200px" height="200.00px" viewBox="0 0 1024 1024" version="1.1" xmlns="http://www.w3.org/2000/svg"><path fill="#333333" d="M878.7 835c84.8-10.2 145.8-22.9 144.7-24-3.1-23-13.7-59.2-27.3-77.9-12.6-17.7-29.6-31.5-47.5-43.2-19.3-12.2-40-21.4-61-30.1-23.8-9.9-48-19-70.9-30.8-0.8-0.4-1.5-0.8-2.3-1.3-16.5-9.2-33.5-20.6-42.7-37.6-1.4-2.6-2.7-5.4-3.7-8.4-2.2-19.2-2.2-38.5-2.1-57.8 0.1-6.5 0.1-13.1 0.1-19.6 9.6-7.4 16-18.2 21.7-28.8 9.7-18.7 16.8-39 19.8-59.9 0.1-0.6 0.6-1.1 1.2-1.3 10.7-2.4 18.6-11.6 22.7-21.7 4.8-11.4 7.2-23.7 8-35.9 0.6-11.8-4-23.7-12.7-31.4-0.8-0.8-1.2-1.9-0.9-3 8.9-36.9 15.4-74.8 13.9-112.9-1-24-5.3-48.2-15.5-69.9-8.4-17.8-20.9-33.6-36.5-45-31.4-23.3-71.4-29.9-109.3-30.5-21.4 0.4-43.8 3.4-62.5 15.1-6.2 3.8-11.4 9.1-15.6 15.1-4.1-5-8.9-9.5-14.5-12.9C564.5 68 538.9 64.5 514.4 64c-33.8 0.5-69 5.2-99.8 19.9-2-1.8-4.1-3.4-6.4-4.8-18.6-11.7-41-14.7-62.5-15.1-38 0.6-77.9 7.2-109.3 30.5-15.7 11.5-28.2 27.3-36.5 45-10.2 21.7-14.5 45.9-15.5 69.9-1.5 38.1 5 76 13.9 112.9 0.3 1.1-0.1 2.2-0.9 3-8.7 7.7-13.4 19.7-12.7 31.4 0.8 12.3 3.2 24.5 8 35.9 4.1 10.1 12 19.2 22.7 21.7 0.6 0.1 1.1 0.6 1.2 1.3 3 20.9 10 41.2 19.8 59.9 5.8 10.6 12.1 21.4 21.7 28.8 0 6.5 0.1 13.1 0.1 19.6 0.2 19.3 0.2 38.6-2 57.8-1 2.9-2.2 5.7-3.7 8.4-9.1 17-26.2 28.4-42.7 37.6-0.8 0.4-1.5 0.8-2.3 1.3-23 11.8-47.1 20.9-70.9 30.8-21 8.7-41.7 18-61 30.1-17.9 11.7-34.9 25.5-47.5 43.2C14.5 751.9 3.8 788.1 0.7 811c-1.1 1.1 60.7 14 146.4 24.2-0.2 0.3-0.3 0.5-0.5 0.8-13.2 22.6-23.3 58.2-26.5 81.7-2.1 2.2 199.2 42.3 391.8 42.3 192.8 0 392.5-41.1 392-42.2-2-16.2-6.9-44.7-13.3-59.8-3.2-8-7.3-15.7-11.9-23z m-69-138.4c12.9 5.8 25.6 11 38.1 16.1 24.2 9.8 47 19.1 66.3 31.2 9.7 6.4 17.4 12.5 23.2 18.5-32.3 5-74 10.7-120.1 14.9-21.4-13.3-44.3-23.5-67.5-33.1-24.2-10-48.8-19.4-72.2-31.1h3c47.8 0 92.2-6.1 129.2-16.5zM678.5 128c32.5 0.6 55.7 6.5 70.9 17.8l0.2 0.2 0.2 0.2c6.6 4.8 12.5 12.2 16.5 20.7 5.5 11.8 8.7 27 9.4 45.2 1.1 26.7-2.7 56.1-12.1 95.4-4.5 18.8-0.8 38.2 9.9 53.6-15.5 10.2-26.5 26.7-29.2 45.7-1.8 12.6-6.1 25.7-12.9 38.9-2.4 4.5-4.2 7.4-5.3 8.9l-23.9 18.3v31.6c0 4.4 0 8.7-0.1 13.2v2.3c-0.2 19.8-0.4 40.3 1.7 61.8 0.2 2.5 0.5 5 0.8 7.5l0.8 6.9 2.2 6.5c6 17.6 15.5 32 26.1 43.6-17.2 1.9-51 5.9-69.1 5.9-14.4 0-34.3-0.9-50.6-3.4-0.4-4.3-0.7-8.5-1-12.8-0.8-15.2-0.8-30.5-0.6-45.7 0.1-7.7 0.2-15.4 0.2-23.1 9.8-7.5 16.4-18.2 22.3-29 9.9-18.5 17.3-38.5 21.6-59.1 0.9-4.4 1.7-8.9 2.4-13.4 0.1-0.7 0.6-1.3 1.4-1.5 8.4-2 15.7-7.4 20.6-14.7 9.4-14.4 12.9-31.9 14.4-48.7 1.4-14.2-3.8-28.8-14.4-38.1-1-0.9-1.4-2.3-1-3.6 14-48.4 23.8-99.1 18.6-149.7-3-29.3-12.7-59.3-33.5-80.4 3.5-0.5 8-0.9 13.5-1zM394.1 232.8c0.9-22 4.8-40.6 11.6-55.2 2.8-5.9 6.3-11.4 10.3-16.3 3.4-4.2 7.3-7.8 11.3-10.8l0.2-0.2 0.2-0.1c12.6-9.4 29.3-15.8 50.6-19.2 10.8-1.8 22.8-2.7 36-3 9.7 0.2 17.8 1 24.3 2.5 5.1 1.1 9.2 2.6 12.4 4.5 0.1 0.2 0.3 0.4 0.5 0.8l15.5 23.8 27.6 4.3 0.5 0.1c10.4 1.6 18.8 4.9 23.1 8.9l0.1 0.1 0.1 0.1c8.4 7.8 14.3 23.4 16.2 42.7v0.1c3.6 34.8-1.6 74.6-16.4 125.3-6.2 21.3-1.3 44.2 12.3 61.1-0.3 2.2-0.7 4-1 5.5-4.4 2.4-8.5 5.2-12.2 8.4-11.6 10.1-19.5 24.2-21.8 40.3-1.9 13.3-5.7 26.5-11.3 39.4-1.7 3.9-3.6 7.8-5.6 11.7-3.3 5.9-4.9 8.3-5.7 9.2l-24.2 18.6-0.1 31.4c0 5.3-0.1 10.6-0.1 16.1v0.4c-0.2 13.7-0.3 27.7 0.1 42 0.2 7.2 0.5 14.5 1.1 21.9 0.4 4.9 0.8 9.9 1.4 14.9 0 0.3 0.1 0.5 0.1 0.8l0.8 6.6 2.1 6.3c3 9 6.8 17.1 11.2 24.5 8.5 14.3 19 25.9 29.8 35.4-10 1.6-20.2 2.8-30.6 3.8-17 1.6-34.5 2.4-52.3 2.4-19.9 0-39.6-1-58.5-3.1-7.5-0.8-14.8-1.7-22-2.8 11.6-10.2 23-23 31.8-38.7 3.6-6.4 6.7-13.2 9.2-20.6l2.2-6.5 0.8-6.9c0.2-1.8 0.4-3.7 0.6-5.5 0.4-3.6 0.7-7.2 0.9-10.7 0.4-5.6 0.7-11.1 0.9-16.5 0.6-15.5 0.5-30.6 0.3-45.3V583c0-5.3-0.1-10.4-0.1-15.5v-31.6L453.7 517c-1.5-1.6-4.1-5.8-7.7-12.5-2.9-5.5-5.4-11-7.5-16.6-4-10.4-6.8-20.7-8.2-30.9-2.7-19.1-13.8-35.8-29.6-46-1.4-0.9-2.8-1.7-4.2-2.5-0.5-1.8-0.9-3.8-1.2-5.8 13.1-16.2 18.1-37.6 13.1-58.3-11.2-45.8-15.6-80.2-14.3-111.6zM250.7 361c10.6-15.5 14.4-34.9 9.9-53.6-9.5-39.2-13.2-68.6-12.2-95.4 0.7-18.2 3.9-33.4 9.4-45.2 4-8.5 9.9-15.8 16.5-20.7l0.2-0.2 0.2-0.2c15.3-11.4 38.4-17.2 70.9-17.8 5.9 0.1 10.7 0.5 14.5 1.1-0.3 0.4-0.6 0.8-0.9 1.3-4.4 6.3-8.2 13-11.5 20-11.6 24.8-16.6 52.5-17.7 79.9-1.7 43.6 5.7 86.9 15.9 129 0.3 1.3-0.1 2.6-1.1 3.4-10 8.8-15.3 22.5-14.6 35.9 0.9 14 3.6 28 9.1 41.1 4.7 11.5 13.7 22 25.9 24.8 0.7 0.2 1.3 0.7 1.4 1.5 0.1 0.5 0.1 1 0.2 1.4 3.5 23.4 11.4 46.1 22.4 67 6.6 12.1 13.8 24.5 24.8 32.9 0 7.5 0.1 14.9 0.1 22.4 0.1 17.7 0.2 35.4-1.1 53-0.1 1.4-0.2 2.7-0.3 4.1 0 0.5-0.1 1-0.1 1.5-16.8 2.8-37.9 3.8-53.1 3.8-18.1 0-52-4-69.1-5.9 10.5-11.6 20-26 26.1-43.6l2.2-6.5 0.8-6.9c0.3-2.5 0.5-5 0.8-7.5 2-21.6 1.8-42 1.7-61.8v-2.3c0-4.5-0.1-8.9-0.1-13.2v-31.6L298 454.4c-1.1-1.5-2.9-4.4-5.3-8.9-6.8-13.1-11.1-26.2-12.9-38.9-2.6-18.9-13.6-35.4-29.1-45.6zM86.8 762.4c5.8-6 13.5-12.1 23.2-18.5 19.3-12.1 42.1-21.3 66.3-31.2 12.5-5.1 25.3-10.3 38.1-16.1 37 10.4 81.4 16.5 129.2 16.5h6.1c-0.5 0.3-1 0.5-1.5 0.7-23.8 11.6-48.5 21-72.9 31.1-22.8 9.5-45.4 19.5-66.6 32.5-46.8-4.2-89.2-9.9-121.9-15zM759 877.7C697.1 886 604 896 511.9 896c-91.4 0-182.9-9.5-243.7-17.5-25.5-3.3-47.9-6.7-66.7-9.8 0.5-1 1.1-1.8 1.6-2.5l0.1-0.2 0.1-0.2c5.3-7.4 12.6-14.8 22.2-22.3 4.4-3.4 9.2-6.9 14.5-10.4 22.8-14.2 49.2-25 77.3-36.4 8-3.2 16-6.5 24.1-9.9 2.4-1 4.7-2 7.1-3 0.8-0.3 1.6-0.7 2.3-1l3 0.9c44.2 13.8 98.9 21.9 158.1 21.9 59.1 0 113.7-8.1 157.8-21.9 1.5-0.5 3-0.9 4.4-1.4 0.2-0.1 0.3-0.1 0.5-0.2 1.2 0.5 2.5 1.1 3.7 1.6 10.5 4.5 20.9 8.8 31.2 13 30.4 12.3 59.1 24 82.4 40.5l0.4 0.3 0.4 0.2c2.2 1.5 4.5 3.2 6.9 5.1 8.2 6.4 17.1 14.8 24 25-18.4 3.2-40.3 6.6-64.6 9.9z" /></svg>