<?xml version="1.0" standalone="no"?><!DOCTYPE svg PUBLIC "-//W3C//DTD SVG 1.1//EN" "http://www.w3.org/Graphics/SVG/1.1/DTD/svg11.dtd"><svg class="icon" width="200px" height="200.00px" viewBox="0 0 1024 1024" version="1.1" xmlns="http://www.w3.org/2000/svg"><path fill="#333333" d="M538.289731 414.937915l48.581023 7.297149 24.490433 3.698556 27.989067 4.19836c14.894182 2.199141 28.888715 8.496681 40.084342 18.492776 5.29793 4.798126 10.4959 8.196798 14.794221 10.595861 16.093713 9.196408 34.686451 13.994533 53.679031 13.994533h0.099961c2.798907 0 4.698165 2.898868 3.498634 5.497853-3.898477 8.296759-7.397111 16.993362-10.196017 26.28973-11.395549 36.785631-11.795392 73.071456-12.195237 105.058962-0.199922 20.392034-0.499805 39.584537-3.398672 56.377977v0.199922c-5.797735 33.087075-15.793831 66.274112-26.289731 101.260445-2.798907 9.196408-5.697774 18.792659-8.39672 28.28895-2.499024 8.496681-6.097618 17.79305-9.896134 27.689184-7.696993 19.89223-16.393596 42.383444-20.192112 68.27333-2.299102 15.69387-3.09879 35.885982-2.399063 61.276064 0.099961 2.09918-1.499414 3.898477-3.698556 4.098399-16.693479 1.399453-31.887544 2.199141-46.18196 2.199141-35.186255 0-67.573604-4.398282-118.053885-17.093323-1.799297-0.399844-2.998829-1.999219-2.998828-3.898477 0-15.094104-0.499805-30.588052-1.899259-42.783287v-0.399844l-0.599765-5.397892c-2.199141-19.392425-5.29793-45.882077-19.692308-71.272159l-0.099961-0.099961-0.099961-0.099961c-11.595471-20.292073-27.28934-32.887153-38.884811-42.183522-3.398672-2.698946-6.597423-5.29793-8.49668-7.197189-10.895744-10.595861-21.891449-20.591956-32.587271-30.188207-20.392034-18.292854-39.584537-35.586099-53.679032-54.278798-5.29793-7.097228-10.4959-17.593128-15.893791-28.688793-3.998438-8.096837-8.096837-16.493557-12.994924-25.290121v-0.199922c-3.698555-6.597423-7.397111-13.59469-11.295588-20.891839v-0.099961c-1.199531-2.199141 1.399453-4.498243 3.498634-3.198751 2.898868 1.899258 4.998048 3.19875 5.797735 3.798517 37.685279 24.390472 88.16556 3.398672 97.361968-40.584147 1.199531-5.897696 7.896915-38.285045 13.094885-74.970715 4.398282-31.087856 27.389301-56.278016 57.877391-63.475205l35.186256-8.296759 34.086685-7.996876M510.100742 0c-1.499414 0-3.09879 0.099961-4.598204 0.399844-16.693479 2.998829-29.288559 20.691917-35.186255 36.485748-14.094494 37.485357 1.899258 80.168684 5.597813 119.953143 4.898087 52.579461 22.891058 104.159313 21.691527 157.138618-0.299883 15.893791-8.696603 46.981648-8.696603 46.981647l-35.186255 8.296759s-45.482234-126.850449-63.175323-191.725107c-7.097228-25.590004-1.699336-56.377977-17.093323-77.969543-8.896525-12.395158-23.490824-24.590394-38.584927-24.590394-0.699727 0-1.299492 0-1.999219 0.099961-16.593518 1.299492-32.48731 16.093713-38.185084 31.687622-20.292073 55.278407 19.89223 116.154627 30.987895 174.131979 8.596642 44.582585 25.590004 88.065599 27.28934 133.447872 1.799297 47.881296-18.092932 142.64428-18.092932 142.64428s-37.585318-24.290512-54.778602-38.684889c-25.390082-21.391644-40.184303-56.577899-70.372511-70.572433-16.693479-7.796954-36.285826-13.294807-55.178446-13.294806-10.395939 0-20.691917 1.699336-29.988286 5.497852-14.994143 6.097618-31.187817 20.591956-30.588051 36.085904 0.799688 21.791488 30.088247 31.687622 45.282311 47.281531 21.491605 22.191332 46.18196 41.483795 64.874659 66.074189 16.993362 22.391253 28.488872 48.581023 42.383443 73.271379 11.395549 20.292073 19.692308 42.583366 33.586881 61.176103 26.18977 34.686451 61.675908 61.376025 92.763764 91.764155 12.095275 11.795392 28.089028 20.591956 36.485748 35.186255 8.896525 15.793831 10.295978 34.886373 12.495119 52.779383 2.698946 22.991019 1.09957 64.974619 0.399843 80.868411-0.199922 3.698555 2.299102 7.097228 5.797736 8.096837 80.268645 22.491214 127.450215 31.4877 180.329558 31.4877 31.887544 0 65.774307-3.19875 110.15697-8.696603 4.298321-0.499805 7.397111-4.398282 6.997267-8.696603-1.799297-20.092152-5.997657-74.970715-1.599375-104.859039 4.498243-30.188208 19.492386-57.977353 28.188989-87.165951 13.294807-45.282312 28.28895-90.164779 36.485747-136.646622 8.996486-50.780164-1.499414-104.559157 13.694651-153.639985 10.895744-35.086294 36.585709-63.575166 53.778992-96.062475 11.295588-21.491605 23.190941-42.683327 32.187427-65.274503 16.993362-42.283483 47.681374-85.466615 40.784069-130.549004-2.299102-15.194065-11.795392-32.987114-26.289731-37.78524-2.299102-0.699727-4.598204-1.09957-6.997266-1.09957-10.4959 0-21.791488 6.497462-29.188599 13.794611-22.691136 22.091371-20.891839 59.876611-33.686841 88.865287-12.795002 28.788754-42.683327 84.167122-42.683326 84.167122-8.196798 20.491995-25.689965 29.288559-42.283484 29.288559-7.896915 0-15.593909-1.999219-21.991409-5.597813-19.392425-10.995705-12.195236-43.383053-12.295197-65.674346-0.199922-35.086294 13.694651-68.873096 18.292854-103.759469 6.29754-48.680984 27.189379-99.960953 12.695041-146.842639-5.29793-16.993362-16.593518-36.485748-33.58688-41.083952-2.499024-0.699727-5.19797-0.99961-7.896915-0.99961-12.695041 0-26.489652 7.29715-34.486529 16.893401-23.890668 28.28895-14.394377 72.571652-20.491995 108.957439-5.29793 31.887544-9.096447 63.775088-13.59469 95.762593-4.598204 31.987505-13.59469 95.762593-13.594689 95.762592l-24.490434-3.698555s-5.697774-78.169465-10.395939-116.954315c-4.598204-36.285826-10.895744-72.671613-17.393206-108.657555-6.897306-37.885201 0.699727-82.86763-22.991019-113.355721C537.390082 9.39633 523.395549 0 510.100742 0z" /></svg>