<?xml version="1.0" standalone="no"?><!DOCTYPE svg PUBLIC "-//W3C//DTD SVG 1.1//EN" "http://www.w3.org/Graphics/SVG/1.1/DTD/svg11.dtd"><svg class="icon" width="200px" height="200.00px" viewBox="0 0 1024 1024" version="1.1" xmlns="http://www.w3.org/2000/svg"><path fill="#333333" d="M888.253026 362.558376c-8.996486 22.491214-20.891839 43.782897-32.187427 65.274502-17.293245 32.587271-42.98321 60.976181-53.778992 96.062475-15.194065 49.180789-4.698165 102.959781-13.694651 153.639985-8.096837 46.481843-23.190941 91.364311-36.485747 136.646622-8.696603 29.288559-23.790707 56.977743-28.188989 87.165951-4.398282 29.888325-0.199922 84.666927 1.599375 104.859039 0.399844 4.298321-2.698946 8.096837-6.997267 8.696603-44.382663 5.497852-78.269426 8.696603-110.15697 8.696603-52.879344 0-100.060914-8.896525-180.329558-31.4877-3.598594-0.99961-5.997657-4.298321-5.797736-8.096837 0.699727-15.893791 2.199141-57.777431-0.399843-80.868411-2.199141-17.992971-3.498633-36.985553-12.495119-52.779383-8.296759-14.594299-24.390472-23.390863-36.485748-35.186255-31.087856-30.38813-66.573995-56.977743-92.763764-91.764155-13.894572-18.492776-22.191332-40.784069-33.586881-61.176103-13.994533-24.690355-25.390082-50.880125-42.383443-73.271378-18.692698-24.590394-43.383053-43.882858-64.874659-66.07419-15.194065-15.69387-44.482624-25.490043-45.282311-47.281531-0.599766-15.493948 15.69387-30.088247 30.588051-36.085904 9.39633-3.898477 19.592347-5.497852 29.988286-5.497852 18.89262 0 38.584928 5.497852 55.178446 13.294807 30.188208 14.094494 44.982429 49.28075 70.372511 70.572432 17.093323 14.394377 54.778602 38.78485 54.778602 38.78485s19.89223-94.762983 18.092932-142.544319c-1.699336-45.382273-18.792659-88.865287-27.28934-133.447872-11.095666-57.977353-51.279969-118.853573-30.987895-174.131979 5.697774-15.493948 21.591566-30.38813 38.185084-31.687622 0.699727-0.099961 1.299492-0.099961 1.999219-0.099961 15.094104 0 29.688403 12.295197 38.584927 24.590394 15.393987 21.591566 10.096056 52.379539 17.093323 77.969543 17.693089 64.874658 63.175322 191.725107 63.175323 191.725108l35.186255-8.29676s8.296759-31.087856 8.696603-46.981647c1.09957-52.879344-16.79344-104.559157-21.691527-157.138618-3.698555-39.784459-19.692308-82.467786-5.597813-119.953143 5.997657-15.593909 18.492776-33.286997 35.186255-36.285826 1.499414-0.299883 2.998829-0.399844 4.598204-0.399844 13.294807 0 27.28934 9.39633 35.486138 19.89223 23.690746 30.488091 16.093713 75.370558 22.991019 113.35572 6.497462 35.985943 12.795002 72.37173 17.393206 108.657556 4.698165 38.884811 10.395939 116.954315 10.395939 116.954314l24.490434 3.698556s8.996486-63.775088 13.594689-95.762593c4.498243-31.987505 8.296759-63.875049 13.59469-95.762593 6.097618-36.485748-3.398672-80.668489 20.491995-109.057399 7.996876-9.596251 21.791488-16.893401 34.486529-16.893401 2.698946 0 5.29793 0.299883 7.896915 0.999609 16.993362 4.698165 28.28895 24.09059 33.58688 41.083952 14.494338 46.881687-6.397501 98.161656-12.695041 146.842639-4.598204 34.886373-18.492776 68.673175-18.292854 103.759469 0.099961 22.291292-7.097228 54.778602 12.295197 65.674346 6.397501 3.598594 14.094494 5.597813 21.99141 5.597814 16.593518 0 34.086685-8.796564 42.283483-29.288559 0 0 29.988286-55.378368 42.783287-84.267084 12.795002-28.988676 10.995705-66.873877 33.686841-88.865287 7.397111-7.29715 18.692698-13.794611 29.188599-13.794611 2.399063 0 4.798126 0.299883 6.997266 1.09957 14.494338 4.798126 23.990629 22.591175 26.289731 37.78524 6.897306 45.382273-23.690746 88.565404-40.784069 130.848888z" /></svg>