<?xml version="1.0" standalone="no"?><!DOCTYPE svg PUBLIC "-//W3C//DTD SVG 1.1//EN" "http://www.w3.org/Graphics/SVG/1.1/DTD/svg11.dtd"><svg class="icon" width="200px" height="200.00px" viewBox="0 0 1024 1024" version="1.1" xmlns="http://www.w3.org/2000/svg"><path fill="#333333" d="M1024.00035 765.5c1.4 107.2-85.1 194.5-192 194.5-105.8 0-192-86.2-192-192 0-12.5 1.2-24.7 3.5-36.6 1.4-7.1-2.3-14.3-8.8-17.4L383.10035 594.2c-7.7-3.7-17-0.6-21 7C329.90035 662.3 265.80035 704 192.00035 704 85.80035 704-0.19965 617.8 0.00035 511.6 0.20035 406 86.70035 319.8 192.40035 320c64.1 0.1 120.8 31.6 155.6 80 4.5 6.3 12.9 8.4 19.9 5l266.8-127c6.6-3.1 10.2-10.3 8.8-17.4-2.3-11.8-3.5-24.1-3.5-36.6 0-105.8 86.2-192 192-192 106.9 0 193.3 87.3 192 194.5-1.3 105-87.9 190-192.9 189.5-61.5-0.3-116.1-29.5-151-74.7-4.6-6-12.8-8-19.6-4.8L390.60035 465.1c-6.4 3-10 9.9-8.9 16.9a198 198 0 0 1 2.3 30v1.6c0 6.2 3.5 11.9 9.1 14.6l267.3 127.3c6.8 3.3 15 1.2 19.6-4.8 34.9-45.2 89.6-74.4 151-74.7 105.1-0.5 191.6 84.5 193 189.5z" /></svg>