<?xml version="1.0" standalone="no"?><!DOCTYPE svg PUBLIC "-//W3C//DTD SVG 1.1//EN" "http://www.w3.org/Graphics/SVG/1.1/DTD/svg11.dtd"><svg class="icon" width="200px" height="200.00px" viewBox="0 0 1024 1024" version="1.1" xmlns="http://www.w3.org/2000/svg"><path fill="#333333" d="M831.00035 576c-61.5 0.3-116.1 29.5-151 74.7-4.6 6-12.8 8-19.6 4.8L393.10035 528.1c-5.6-2.7-9.2-8.4-9.1-14.6v-1.6a198 198 0 0 0-2.3-30c-1.1-7 2.5-13.9 8.9-16.9l269.8-128.5c6.8-3.3 15-1.2 19.6 4.8 34.9 45.2 89.6 74.4 151 74.7 105 0.5 191.6-84.4 192.9-189.5C1025.40035 119.3 938.90035 32 832.00035 32c-105.8 0-192 86.2-192 192 0 12.5 1.2 24.7 3.5 36.6 1.4 7.1-2.3 14.3-8.8 17.4L367.90035 405c-7 3.3-15.4 1.3-19.9-5-34.8-48.3-91.5-79.8-155.6-80C86.70035 319.8 0.20035 406 0.00035 511.7-0.19965 617.9 85.80035 704 192.00035 704c73.8 0 137.9-41.7 170.1-102.8 4-7.6 13.3-10.7 21-7L634.60035 714c6.6 3.1 10.2 10.3 8.8 17.4-2.3 11.8-3.5 24.1-3.5 36.6 0 105.8 86.2 192 192 192 106.9 0 193.3-87.3 192-194.5-1.3-105.1-87.8-190-192.9-189.5z m-89.5-442.5C765.70035 109.3 797.80035 96 832.00035 96s66.3 13.3 90.5 37.5S960.00035 189.8 960.00035 224s-13.3 66.3-37.5 90.5C898.30035 338.7 866.20035 352 832.00035 352s-66.3-13.3-90.5-37.5C717.30035 290.3 704.00035 258.2 704.00035 224s13.3-66.3 37.5-90.5z m-459 469C258.30035 626.7 226.20035 640 192.00035 640s-66.3-13.3-90.5-37.5C77.30035 578.3 64.00035 546.2 64.00035 512s13.3-66.3 37.5-90.5S157.80035 384 192.00035 384s66.3 13.3 90.5 37.5S320.00035 477.8 320.00035 512s-13.3 66.3-37.5 90.5z m640 256C898.30035 882.7 866.20035 896 832.00035 896s-66.3-13.3-90.5-37.5C717.30035 834.3 704.00035 802.2 704.00035 768s13.3-66.3 37.5-90.5S797.80035 640 832.00035 640s66.3 13.3 90.5 37.5S960.00035 733.8 960.00035 768s-13.3 66.3-37.5 90.5z" /></svg>