<?xml version="1.0" standalone="no"?><!DOCTYPE svg PUBLIC "-//W3C//DTD SVG 1.1//EN" "http://www.w3.org/Graphics/SVG/1.1/DTD/svg11.dtd"><svg class="icon" width="200px" height="200.00px" viewBox="0 0 1024 1024" version="1.1" xmlns="http://www.w3.org/2000/svg"><path fill="#333333" d="M1024 256v124c0 2.2-1.8 4-4 4h-56c-2.2 0-4-1.8-4-4V256H848c-8.8 0-16 7.2-16 16v496c0 35.3-28.7 64-64 64H272c-8.8 0-16 7.2-16 16v112h124c2.2 0 4 1.8 4 4v56c0 2.2-1.8 4-4 4H256c-35.3 0-64-28.7-64-64V848c0-8.8-7.2-16-16-16H64c-35.3 0-64-28.7-64-64V64C0 28.6 28.7 0 64 0h704c35.3 0 64 28.6 64 64v112c0 8.8 7.2 16 16 16h112c35.3 0 64 28.6 64 64zM960 1024H836c-2.2 0-4-1.8-4-4v-56c0-2.2 1.8-4 4-4h108c8.8 0 16-7.2 16-16V836c0-2.2 1.8-4 4-4h56c2.2 0 4 1.8 4 4v124c0 35.3-28.7 64-64 64zM732 1024H484c-2.2 0-4-1.8-4-4v-56c0-2.2 1.8-4 4-4h248c2.2 0 4 1.8 4 4v56c0 2.2-1.8 4-4 4zM1020 736h-56c-2.2 0-4-1.8-4-4V484c0-2.2 1.8-4 4-4h56c2.2 0 4 1.8 4 4v248c0 2.2-1.8 4-4 4z" /></svg>