<?xml version="1.0" standalone="no"?><!DOCTYPE svg PUBLIC "-//W3C//DTD SVG 1.1//EN" "http://www.w3.org/Graphics/SVG/1.1/DTD/svg11.dtd"><svg class="icon" width="200px" height="200.00px" viewBox="0 0 1024 1024" version="1.1" xmlns="http://www.w3.org/2000/svg"><path fill="#333333" d="M368 196v632c0 2.2-1.8 4-4 4H244c-2.2 0-4-1.8-4-4V196c0-2.2 1.8-4 4-4h120c2.2 0 4 1.8 4 4z m-144-68c-26.5 0-48 21.5-48 48v672c0 26.5 21.5 48 48 48h160c26.5 0 48-21.5 48-48V176c0-26.5-21.5-48-48-48H224zM784 196v632c0 2.2-1.8 4-4 4H660c-2.2 0-4-1.8-4-4V196c0-2.2 1.8-4 4-4h120c2.2 0 4 1.8 4 4z m-144-68c-26.5 0-48 21.5-48 48v672c0 26.5 21.5 48 48 48h160c26.5 0 48-21.5 48-48V176c0-26.5-21.5-48-48-48H640z" /></svg>