<?xml version="1.0" standalone="no"?><!DOCTYPE svg PUBLIC "-//W3C//DTD SVG 1.1//EN" "http://www.w3.org/Graphics/SVG/1.1/DTD/svg11.dtd"><svg class="icon" width="200px" height="200.00px" viewBox="0 0 1024 1024" version="1.1" xmlns="http://www.w3.org/2000/svg"><path fill="#333333" d="M432 176v672c0 26.5-21.5 48-48 48H224c-26.5 0-48-21.5-48-48V176c0-26.5 21.5-48 48-48h160c26.5 0 48 21.5 48 48zM848 176v672c0 26.5-21.5 48-48 48H640c-26.5 0-48-21.5-48-48V176c0-26.5 21.5-48 48-48h160c26.5 0 48 21.5 48 48z" /></svg>