<?xml version="1.0" standalone="no"?><!DOCTYPE svg PUBLIC "-//W3C//DTD SVG 1.1//EN" "http://www.w3.org/Graphics/SVG/1.1/DTD/svg11.dtd"><svg class="icon" width="200px" height="200.00px" viewBox="0 0 1024 1024" version="1.1" xmlns="http://www.w3.org/2000/svg"><path fill="#333333" d="M512 0C229.2 0 0 229.2 0 512s229.2 512 512 512 512-229.2 512-512S794.8 0 512 0z m144 748c0 2.2-1.8 4-4 4h-56c-2.2 0-4-1.8-4-4V276c0-2.2 1.8-4 4-4h56c2.2 0 4 1.8 4 4v472z m-225 0c0 2.2-1.8 4-4 4h-56c-2.2 0-4-1.8-4-4V276c0-2.2 1.8-4 4-4h56c2.2 0 4 1.8 4 4v472z" /></svg>