<?xml version="1.0" standalone="no"?><!DOCTYPE svg PUBLIC "-//W3C//DTD SVG 1.1//EN" "http://www.w3.org/Graphics/SVG/1.1/DTD/svg11.dtd"><svg class="icon" width="200px" height="200.00px" viewBox="0 0 1024 1024" version="1.1" xmlns="http://www.w3.org/2000/svg"><path fill="#333333" d="M178.9 377.2c1.6 21.1 4 42.4 4.8 63.6 1.5 39.5-14.1 70.9-46.2 93.9-24.7 17.7-51.8 30.6-81.4 37.6-34.6 8.1-63.4-20.3-54.4-54.7C6.8 498 13.4 478 23.6 460.7c25.4-42.8 41-89.2 53.7-136.8 2.3-8.9 5.5-17.7 9.5-26 6.9-14.4 22.6-21.8 37.7-17.3 10.9 3.3 21.5 7.9 31.6 13.3 16.1 8.4 31.8 18 47.6 27.1 9.7-10.4 19-21.4 29.1-31.4 35.4-35.1 79-57.4 123.5-78 69.7-32.2 141.4-59.5 216.8-75.2 34.9-7.2 70.6-11.9 106.2-14.6 42.5-3.2 85.2-4.8 127.7-3.7 55.2 1.3 109.6 8.6 160 34 27.2 13.7 50 32.6 54.9 63.6 3.4 21.7 2.1 44.7-0.4 66.8-4.1 37.5-19.4 72-34.3 106.1-4 9-14.4 16.2-23.3 21.5-22.8 13.3-48.2 20.2-74 25.1-72.7 13.9-144.1 7.7-213.6-17.3-41.3-14.8-74.6-41.8-104.9-72.7-3.2-3.2-5.7-7.5-9.6-9.3-4.1-2-10.6-3.6-13.5-1.6-3 2.1-4.8 9-4 13.1 1.1 4.9 4.8 9.8 8.4 13.7 44 47.6 97.6 79.5 160.7 94.1 75.4 17.4 150.5 16.5 224.5-8.1 4.2-1.4 8.4-3 12.5-4.9 4-1.8 7.9-4 13.4-4.9-8.2 11.9-15.9 24-24.4 35.6-57.4 77-131.1 131.2-224 158.3-59.3 17.3-118.6 14.8-177.6 0.5-98.5-24-189-65.4-267-131.4-24.3-20.5-47.2-42.7-63.2-70.6-6.2-10.7-11.4-22.4-14.4-34.2-2.3-9.7-6.2-15.8-14.3-18.3z m717.2-235.3c-11.4 1.1-23 1.5-34.3 3.3-17.5 2.8-34.2 8.5-48.1 20-12.3 10-10.9 24.5 2.8 32.2 5.5 3 11.7 5.3 17.7 6.9 27.7 7.6 55.9 5.6 83.9 2.5 14.4-1.6 28.6-6.2 42.1-11.4 9.3-3.6 16.3-11.6 15.9-23-0.5-10.9-9.3-14.8-17.3-18.6-19.7-9.2-41-11.8-62.7-11.9zM567.3 269.7c16.6 0 29.5-11.7 29.5-26.4-0.1-14.6-13.7-26.7-29.7-26.6-16.7 0.1-29.2 11.6-29.3 26.6 0 14.7 12.9 26.3 29.5 26.4z m128.5 635.9c-7.7 0-15.1 0.5-22.3-0.2-2-0.2-4.7-3.6-5.3-6.1-5.4-21-9.9-42.4-15.8-63.3-2.2-8.2-6.4-16.1-11.2-23.2-7.2-10.9-19.4-12.3-27.5-2.1-7.9 9.8-14.9 20.9-19.8 32.6-7.1 17-12.3 34.9-17.3 52.8-2.1 7.4-4.7 11.2-12.8 9.9-4.6-0.7-9.5-0.1-15.2-0.1 1.2-30.6 2.2-60.2 3.4-92.6-7.2 3.6-12.7 5.4-16.9 8.6-9.7 7.8-19.3 15.9-28 24.7-15.9 16.2-31.3 33-46.7 49.8-9.7 10.5-13.1 11.6-29.8 7.7 19.7-33.5 39.3-66.7 59.5-100.6-19.4-5.6-36.3-13.3-43.5-33.2-4.6-12.4-3.9-24.6 1.2-37.4 1.2 4.3 2.1 8.8 3.4 13.1 6.5 22.3 26.1 33.9 48.2 27.2 5.7-1.8 12-6.5 15.2-11.6 19.4-31.3 38.1-63 56.5-94.8 3.4-5.8 6.8-6.9 13.1-5.8 30.4 4.8 60.8 9.3 91.4 1.3 6.7-1.8 13.1-4.6 20.2-7.1v250.4z" /></svg>