<?xml version="1.0" standalone="no"?><!DOCTYPE svg PUBLIC "-//W3C//DTD SVG 1.1//EN" "http://www.w3.org/Graphics/SVG/1.1/DTD/svg11.dtd"><svg class="icon" width="200px" height="200.00px" viewBox="0 0 1024 1024" version="1.1" xmlns="http://www.w3.org/2000/svg"><path fill="#333333" d="M928 456V314.5c0-17-6.7-33.3-18.7-45.3L658.7 18.7C646.7 6.7 630.5 0 613.5 0H144c-26.5 0-48 21.5-48 48v408c0 4.4-3.6 8-8 8H16c-8.8 0-16 7.2-16 16v400c0 8.8 7.2 16 16 16h80c0 70.7 57.3 128 128 128h656c26.5 0 48-21.5 48-48v-64c0-8.8 7.2-16 16-16h64c8.8 0 16-7.2 16-16V480c0-8.8-7.2-16-16-16h-72c-4.4 0-8-3.6-8-8zM704 154.5l69.5 69.5H708c-2.2 0-4-1.8-4-4v-65.5zM168 64h408c35.3 0 64 28.7 64 64v144c0 8.8 7.2 16 16 16h144c35.3 0 64 28.7 64 64v104c0 4.4-3.6 8-8 8H168c-4.4 0-8-3.6-8-8V72c0-4.4 3.6-8 8-8z m688 896H224c-35.3 0-64-28.7-64-64h696c4.4 0 8 3.6 8 8v48c0 4.4-3.6 8-8 8z m96-128H72c-4.4 0-8-3.6-8-8V536c0-4.4 3.6-8 8-8h880c4.4 0 8 3.6 8 8v288c0 4.4-3.6 8-8 8zM286.6 711.6v72.7h-44.5V575.7H314c51.9 0 77.9 22 77.9 66 0 21.4-7.8 38.5-23.5 51.4-15.7 12.9-35.3 19.1-58.8 18.5h-23z m0-101.4v67.4h19.3c26.1 0 39.2-11.4 39.2-34.1 0-22.2-12.9-33.3-38.8-33.3h-19.7zM437.5 784.4V575.7h72.1c74.1 0 111.1 33.9 111.1 101.7 0 32.2-10.4 58.1-31.1 77.7-20.7 19.5-47.5 29.3-80.3 29.3h-71.8zM482 612.1V748h24.2c21.1 0 37.7-6.3 49.7-18.9 12-12.6 18.1-29.6 18.1-51.1 0-20.7-6.3-36.9-18.9-48.6-12.6-11.6-28.9-17.4-49-17.4H482zM783.9 612.1h-74.5v53.6H778v36.4h-68.6v82.3h-44.5V575.7h119v36.4z" /></svg>