<?xml version="1.0" standalone="no"?><!DOCTYPE svg PUBLIC "-//W3C//DTD SVG 1.1//EN" "http://www.w3.org/Graphics/SVG/1.1/DTD/svg11.dtd"><svg class="icon" width="200px" height="200.00px" viewBox="0 0 1024 1024" version="1.1" xmlns="http://www.w3.org/2000/svg"><path fill="#333333" d="M766.8 136.6c-2.8 3-5.5 7-8.7 10.3-213.1 213.8-426.6 427.2-640.5 640-29.7 29.2-53.1 64.1-69 102.6-15.4 37.5-30.3 75.1-45.4 112.7l-0.2-0.4v8.5c6.7 9 11.8 13.2 19.4 13.2 4.4 0 9.6-1.4 16.4-4.1 39.6-15.5 79.3-31.1 118.5-47.9a206.5 206.5 0 0 0 65.5-45c219.4-219.4 438.8-438.8 658.4-658.2 3.1-2.6 6.6-4.7 10.3-6.4L766.8 136.6z m-589.5 745l-0.2 0.2c-13 13.2-28.1 23.6-45.1 31-9.5 4.1-19.1 8.1-28.7 12 1.5-3.6 3-7.3 4.5-10.9 12.6-30.7 31-58.1 54.6-81.3l0.3-0.3 23.3-22.7 31.6 31.8-40.3 40.2zM1003.4 145.1c-24 26.5-50.9 50.9-76.2 75.7l-0.1 0.3-120.6-120.8c25.1-25.6 49.2-52.7 76.2-76.9C898.8 9.9 918.4 3.2 938 3.2c24.5 0 48.8 10.4 65.8 30.6 27.1 32.2 26.9 79.3-0.4 111.3z" /></svg>