<?xml version="1.0" standalone="no"?><!DOCTYPE svg PUBLIC "-//W3C//DTD SVG 1.1//EN" "http://www.w3.org/Graphics/SVG/1.1/DTD/svg11.dtd"><svg class="icon" width="200px" height="200.00px" viewBox="0 0 1024 1024" version="1.1" xmlns="http://www.w3.org/2000/svg"><path fill="#333333" d="M160.171791 63.968765v895.562714c0 35.282772 28.685993 63.968765 63.968765 63.968765h575.718888c35.282772 0 63.968765-28.685993 63.968765-63.968765v-895.562714c0-35.282772-28.685993-63.968765-63.968765-63.968765H224.140556c-35.282772 0-63.968765 28.685993-63.968765 63.968765z m95.953148 0h91.9551c2.198926 0 3.998048 1.799122 3.998048 3.998048V80.460713c0 8.795705 7.196486 15.992191 15.992191 15.992191h287.859444c8.795705 0 15.992191-7.196486 15.992191-15.992191V67.966813c0-2.198926 1.799122-3.998048 3.998048-3.998048h91.9551c17.691362 0 31.984383 14.293021 31.984383 31.984383V840.0898c0 4.397853-3.598243 7.996096-7.996096 7.996096H232.136652c-4.397853 0-7.996096-3.598243-7.996096-7.996096V95.953148c0-17.691362 14.293021-31.984383 31.984383-31.984383z" /></svg>