<?xml version="1.0" standalone="no"?><!DOCTYPE svg PUBLIC "-//W3C//DTD SVG 1.1//EN" "http://www.w3.org/Graphics/SVG/1.1/DTD/svg11.dtd"><svg class="icon" width="200px" height="200.00px" viewBox="0 0 1024 1024" version="1.1" xmlns="http://www.w3.org/2000/svg"><path fill="#333333" d="M1024 592V432c0-8.8-7.2-16-16-16H624c-8.8 0-16-7.2-16-16V16c0-8.8-7.2-16-16-16H432c-8.8 0-16 7.2-16 16v384c0 8.8-7.2 16-16 16H16c-8.8 0-16 7.2-16 16v160c0 8.8 7.2 16 16 16h384c8.8 0 16 7.2 16 16v384c0 8.8 7.2 16 16 16h160c8.8 0 16-7.2 16-16V624c0-8.8 7.2-16 16-16h384c8.8 0 16-7.2 16-16zM536 960h-48c-4.4 0-8-3.6-8-8V560c0-8.8-7.2-16-16-16H72c-4.4 0-8-3.6-8-8v-48c0-4.4 3.6-8 8-8h392c8.8 0 16-7.2 16-16V72c0-4.4 3.6-8 8-8h48c4.4 0 8 3.6 8 8v392c0 8.8 7.2 16 16 16h392c4.4 0 8 3.6 8 8v48c0 4.4-3.6 8-8 8H560c-8.8 0-16 7.2-16 16v392c0 4.4-3.6 8-8 8z" /></svg>