<?xml version="1.0" standalone="no"?><!DOCTYPE svg PUBLIC "-//W3C//DTD SVG 1.1//EN" "http://www.w3.org/Graphics/SVG/1.1/DTD/svg11.dtd"><svg class="icon" width="200px" height="200.00px" viewBox="0 0 1024 1024" version="1.1" xmlns="http://www.w3.org/2000/svg"><path fill="#333333" d="M1017.409772 197.046058c-207.537861 0-310.657299-79.138173-386.09836-136.893053C587.645526 26.479313 553.072536 0 512.604152 0c-38.869633 0-68.446526 25.080406-105.817331 56.75566-69.845433 59.35363-165.470726 140.39032-399.088212 140.39032-4.996097 0-6.794692 0.999219-6.994535 1.498829-0.399688 0.699454-1.698673 4.796253 6.994535 20.284153 6.494926 11.590945 16.786885 26.279469 27.478532 41.767369C60.957001 297.667447 128.304386 448.449649 128.304386 448.449649c0.899297 1.298985 5.195941 4.096799 9.29274 6.494926 5.295863 3.197502 8.593286 8.893052 8.593286 15.188134l-0.799375 1.398907c-4.996097 10.092116-4.996097 20.583919-4.996097 31.675254v2.797814l-1.898517 2.09836c-5.495706 5.595628-9.492584 9.592506-9.492584 18.385637v10.691647l-4.596409 1.598751c-0.099922 0-0.099922 0-0.199844 0.099922-49.261514 16.686963-81.236534 66.448087-81.236534 126.701015 0 37.870414 23.381733 68.246682 43.166277 87.032006 24.880562 23.781421 57.555035 42.366901 89.729898 51.359875l3.297424 0.899297 1.199063 3.197502C211.239593 892.103044 282.583855 944.362217 337.141232 973.339578c65.348946 34.772834 133.69555 50.660422 169.667447 50.660422 35.871975 0 104.318501-15.887588 169.667448-50.660422 54.457455-28.977361 126.001561-81.236534 156.777517-165.071038l1.199063-3.197502 3.297424-0.899297c30.676034-8.493365 64.249805-28.477752 89.629977-53.358314 27.778298-27.278689 43.066354-57.555035 43.066354-84.933646v-0.499609c4.996097-61.451991-22.982045-112.212334-71.74395-130.697893-1.298985-0.49961-2.59797-0.999219-3.996877-1.398907l-4.596409-1.498829v-10.691647c0-8.79313-3.996877-12.790008-9.492584-18.385636l-1.898517-1.898517v-2.797814c0-5.795472-1.798595-11.89071-3.297424-17.286495-1.199063-3.797034-1.998439-6.994536-2.298204-9.892272-0.099922-0.49961-0.199844-1.099141-0.299766-1.598751l-1.998439-5.995316c-0.999219-2.997658 0-6.295082 2.398127-8.29352 2.59797-2.098361 5.495706-4.396565 6.694769-6.095239 0 0 61.451991-160.374707 99.122561-198.245121 12.790008-12.790008 24.78064-24.980484 33.174083-34.772833 4.596409-5.395785 7.394223-9.29274 9.092896-12.090555 1.698673-2.697892-0.299766-6.295082-3.497268-6.295081-0.299766-0.399688-0.299766-0.399688-0.399688-0.399688zM869.625229 592.137393l4.596409 1.598751c6.994536 2.298205 12.88993 6.19516 17.786105 11.590944 2.298205 2.498048 4.296643 5.295863 6.095238 8.493365 6.994536 12.290398 9.992194 28.277908 8.493364 46.263856l-0.199844 2.59797v3.09758c0 5.895394-5.096019 20.683841-23.981264 39.269321-17.286495 16.986729-41.467603 31.675254-61.751757 37.270882l-3.197502 0.899298-32.174863 8.79313-11.191257 31.47541-0.999219 2.897736c-23.781421 64.849336-82.035909 106.716628-126.601093 130.398127-59.253708 31.575332-117.208431 43.266198-139.790789 43.266198s-80.437158-11.690867-139.690866-43.166276c-44.565183-23.681499-102.71975-65.54879-126.701015-130.597971l-1.099141-2.997658-11.191257-31.275566-32.074942-8.79313-3.09758-0.899298c-22.18267-6.19516-45.564403-19.584699-62.551131-35.871975l-0.099922-0.099922-0.099922-0.099921c-6.994536-6.69477-23.281811-23.981265-23.281811-40.668228 0-32.474629 14.888368-58.454333 37.870413-66.248244l4.496487-1.498829 18.385637-6.19516 22.182669-7.494145c5.195941 2.59797 15.088212 7.394223 28.87744 13.489461 54.757221 24.081187 170.466823 67.447307 293.270882 67.447307 15.387978 0 30.676034-0.699454 45.764247-1.898517 67.547229-5.595628 130.797814-22.382514 180.059328-39.269321 45.764247-15.687744 79.437939-31.47541 93.327089-38.370023 3.797034-1.898517 6.095238-3.09758 6.794691-3.397346l0.799376-0.399688 30.9758 10.391882z m-653.889149-66.54801v-43.36612s175.263076-25.180328 296.26854-25.180328c120.905543 0 296.26854 25.180328 296.26854 25.180328v43.36612s-114.610461 60.252927-247.406713 73.142857c-16.087432 1.598751-32.374707 2.498048-48.761905 2.498049-117.208431 0-229.420765-44.765027-274.885246-65.448868-13.789227-6.19516-21.483216-10.192037-21.483216-10.192038z m641.099141-188.252927c-20.583919 45.864169-36.171741 86.432475-36.771272 88.131147l-2.797815 7.294302c-61.651835-12.490242-165.071038-26.978923-310.557377-26.978923-146.185792 0-252.003123 14.588603-315.153786 27.178767l-4.796253-10.691648c-0.699454-1.598751-17.386417-38.869633-37.470726-81.336455-19.384856-40.76815-32.774395-67.247463-42.466822-85.033568 188.153005-20.384075 278.682279-97.124122 341.433255-150.482436l0.099922-0.099921c16.886807-14.288837 31.47541-26.679157 43.965652-34.273225 10.591725-6.395004 16.287276-7.294301 20.384075-7.294301 18.785324 0 47.063232 21.782982 79.837626 46.96331h0.099922c63.250585 48.462139 152.78064 117.208431 306.860266 141.289618-11.590945 19.884465-25.580016 47.063232-42.666667 85.333333zM559.667383 214.032787l0.299766 37.370804c-1.598751 2.59797-7.494145 10.991413-26.579235 23.781421l-0.099922 0.099922-0.099922 0.099922c-7.494145 5.096019-14.888368 9.492584-21.283372 12.889929-6.295082-3.497268-13.789227-7.893833-21.283372-12.889929-19.185012-12.88993-25.080406-21.283372-26.679157-23.881343v-37.270882h95.725214m47.662764-48.162373H416.079561v87.631537c0 19.284934 16.087432 39.868852 47.762686 61.252147 22.582358 15.288056 44.864949 25.380172 45.764247 25.77986l2.398126 0.999219 2.398126-0.999219c0.899297-0.399688 23.181889-10.391881 45.764247-25.77986C591.942169 293.570648 607.929679 272.886807 607.929679 253.701795l-0.599532-87.631537z" /></svg>