<?xml version="1.0" standalone="no"?><!DOCTYPE svg PUBLIC "-//W3C//DTD SVG 1.1//EN" "http://www.w3.org/Graphics/SVG/1.1/DTD/svg11.dtd"><svg class="icon" width="200px" height="200.00px" viewBox="0 0 1024 1024" version="1.1" xmlns="http://www.w3.org/2000/svg"><path fill="#333333" d="M566 686.4L543.7 720h-63.9l-22.3-33.6L512 608zM585.8 139.3c-6.5-0.5-17.3-1-29.7-0.3-3 0.2-5.3-2.2-5.3-5.2v-0.1c0-21.2-16.7-38.9-38.8-42.3-22.1 3.4-38.8 21.1-38.8 42.3v0.1c0 3-2.3 5.3-5.3 5.2-12.4-0.7-23.2-0.2-29.7 0.3-1.7 0.1-2.1 2.4-0.5 3.1 30.6 13.1 44.8 22.6 45.7 23.2 0 0 0.1 0 0.1 0.1 8.8 7.3 19.3 10 28.5 10.7 9.2-0.7 19.7-3.3 28.5-10.7 0 0 0.1 0 0.1-0.1 0.9-0.6 15.1-10.1 45.7-23.2 1.6-0.7 1.2-3-0.5-3.1zM953 943.7c-7.3-75.1-19.1-160.7-38.6-241-5.5-28.6-4.6-36.4-26.2-53.5-16.8-13.3-124.5-16.2-177.5-16.8-7.4-0.1-14.8-0.3-22.2-0.6-17.6-23.6-29.8-43.3-32.9-55.8-7.5-30.2-0.8-67.5 8.3-98.5 30.2-42.7 52.7-103.5 52.7-189.6 0-0.4 0.1-0.8 0.3-1.1 6.1-8.2 9.3-15 9.3-15s1.8-39.8-1.4-52.8c-0.2-0.8 0.2-1.6 1-1.8 9.9-3.8 71-29.4 72-83.1C798.9 77.2 661 0 526.8 0c-3.8 0-7.6 0.1-11.5 0.2-1.2 0-2.4 0.1-3.5 0.1-1.2-0.1-2.4-0.1-3.5-0.1-3.8-0.1-7.6-0.2-11.4-0.2-134.2 0-272.2 77.2-271 134.1 1.1 53.6 62.1 79.3 72 83.1 0.8 0.3 1.2 1.1 1 1.8-3.2 13-1.4 52.8-1.4 52.8s3.2 6.8 9.3 15c0.2 0.3 0.3 0.7 0.3 1.1 0 86.1 22.6 146.9 52.7 189.6 9.2 31 15.9 68.3 8.3 98.5-3.1 12.4-15.3 32.1-32.9 55.8-7.4 0.3-14.8 0.5-22.2 0.6-53 0.6-160.8 3.6-177.5 16.8-21.6 17.1-20.6 24.9-26.2 53.5C89.8 783 78 868.6 70.7 943.7c-1.1 11.5-2.1 22.7-3.1 33.6 28.3 7.6 221.1 43.2 414.6 46.7h59.3c193.5-3.5 386.3-39.1 414.6-46.7-1-10.9-2-22.1-3.1-33.6zM652.6 287.9c0 62.8-13.8 114.1-41 152.7-12 17-26.7 31.6-43.7 43.5-23.1 16.2-44.8 23.5-56.1 26.6-11.3-3-33-10.4-56.1-26.6-17-11.9-31.7-26.5-43.7-43.5-27.2-38.5-41-89.9-41-152.7 0-1 0-1.9-0.1-2.9 34.5 8.7 86.3 18.8 141.1 18.8 54.5 0 106.2-10 140.7-18.7-0.1 1-0.1 1.9-0.1 2.8zM320.7 157.4c-12-4.6-24.6-13.7-29.1-20.2 2.6-3.1 7.1-7.6 14.5-13.4 13-10.1 30-20 49.3-28.6C399.5 75.3 451.1 64 496.8 64c3.1 0 6.3 0 9.3 0.1 1 0 2 0.1 3 0.1l2.7 0.1 2.7-0.1c1 0 2-0.1 3-0.1 3.1-0.1 6.2-0.1 9.3-0.1 45.7 0 97.3 11.3 141.4 31.1 19.3 8.6 36.4 18.5 49.3 28.6 7.5 5.8 12 10.4 14.5 13.4-4.6 6.6-17.2 15.6-29.1 20.2-26.2 10-42.7 35.3-42.2 62.4-31.5 8.8-83.1 19.5-148.7 19.5-66 0-117.8-10.8-149.2-19.6 0.5-27-16-52.2-42.1-62.2z m-99.2 781.4c-33.6-4.5-62.3-9.1-84.7-13 8.4-78 20.1-147.9 34.6-207.9l0.4-1.5 0.3-1.5c0.7-3.6 1.3-6.9 1.8-9.8 0.1-0.4 0.1-0.8 0.2-1.2 18.9-2.9 60.4-6.5 133.9-7.6 0.3 7.8 0.9 15.4 1.8 22.8 1 8.2 2.3 16.1 3.9 23.8 1.7 7.7 3.6 15.1 6 22.3 16 50 46.1 119 99 164.1l35 29.8c-89.5-3-174.4-12.5-232.2-20.3z m320.7-197h-60.9l-21.1 138.9c-36.2-30.9-62.9-82.8-79.6-135-3.6-11-5.9-22.5-7.3-34.1-1.2-9.8-1.7-19.6-1.7-29.1 0-7 0.3-13.9 0.7-20.5 30.8-41 38.7-60.7 42.1-74.4 3.9-15.4 5.3-32.5 4.4-51.1 44.8 31.3 87.2 38.8 92.5 39.4h0.4c5.4-0.6 47.8-8.1 92.5-39.4-0.9 18.6 0.6 35.7 4.4 51.1 3.4 13.7 11.4 33.3 42.1 74.4 0.4 6.6 0.7 13.5 0.7 20.5 0 9.5-0.5 19.3-1.7 29.1-1.4 11.5-3.7 23.1-7.3 34.1-16.7 52.3-43.4 104.1-79.6 135l-20.6-138.9z m259.9 197c-57.8 7.8-142.7 17.3-232.2 20.5l35-29.8c52.9-45 83-114.1 99-164.1 4.6-14.3 8-29.8 9.9-46.1 0.9-7.3 1.5-15 1.8-22.8 73.6 1 115.1 4.7 133.9 7.6 0.1 0.4 0.1 0.8 0.2 1.2 0.5 2.9 1.1 6.1 1.8 9.8l0.3 1.5 0.3 1.5c14.6 60 26.2 129.9 34.7 207.9-22.5 3.7-51.2 8.2-84.7 12.8z" /></svg>