<?xml version="1.0" standalone="no"?><!DOCTYPE svg PUBLIC "-//W3C//DTD SVG 1.1//EN" "http://www.w3.org/Graphics/SVG/1.1/DTD/svg11.dtd"><svg class="icon" width="200px" height="200.00px" viewBox="0 0 1024 1024" version="1.1" xmlns="http://www.w3.org/2000/svg"><path fill="#333333" d="M967.2 615c-6.3 6.3-14.5 9.4-22.7 9.4s-16.3-3.1-22.6-9.3L518.2 212.3c-3.2-3.2-8.3-3.1-11.4 0.1L119.5 614.6c-6.3 6.5-14.7 9.8-23 9.8-8 0-16-3-22.2-8.9-12.7-12.3-13.1-32.5-0.8-45.3L489 138.7l0.3-0.3c0.1-0.1 0.2-0.3 0.4-0.3 4.3-4.3 10.2-7.5 16.3-8.6 0.5-0.1 0.9-0.2 1.4-0.2 0.3 0 0.5-0.1 0.8-0.1 0.3 0 0.6-0.1 0.8-0.1 1-0.1 2-0.2 3.1-0.2 1 0 2 0.1 3 0.1h0.1c0.5 0 1 0.1 1.5 0.2 4.6 0.6 12.6 2.8 15.7 6.9 0.4 0.3 0.8 0.7 1.2 1 0.4 0.3 0.7 0.7 1.1 1l0.1 0.1 432.5 431.5c12.3 12.5 12.3 32.8-0.1 45.3zM491.9 136c0.3-0.3 0.7-0.6 1-0.8-0.3 0.2-0.6 0.5-1 0.8zM534.5 138.1c-0.3-0.3-0.7-0.7-1.1-1 0.3 0.2 0.5 0.5 0.8 0.7 0.1 0.2 0.2 0.2 0.3 0.3zM940.5 863.6h-857c-17.7 0-32-14.3-32-32s14.3-32 32-32h857c17.7 0 32 14.3 32 32s-14.3 32-32 32z" /></svg>