<?xml version="1.0" standalone="no"?><!DOCTYPE svg PUBLIC "-//W3C//DTD SVG 1.1//EN" "http://www.w3.org/Graphics/SVG/1.1/DTD/svg11.dtd"><svg class="icon" width="200px" height="200.00px" viewBox="0 0 1024 1024" version="1.1" xmlns="http://www.w3.org/2000/svg"><path fill="#333333" d="M968.046888 567.935719c0 250.551061-201.999301 453.849072-452.050858 456.046888-251.849771 2.197816-460.042918-204.197117-460.042918-456.046888 0-203.897415 133.866995-376.625798 318.483566-434.967831 20.579553-6.493548 41.658609 8.891166 41.65861 30.469726 0 13.986104-9.090968 26.273895-22.377767 30.469727-11.588486 3.696327-23.077071 7.892159-34.365855 12.687394-46.653647 19.780347-88.611958 48.052257-124.676126 84.016524C198.611372 326.675427 170.339462 368.633739 150.659016 415.287385c-20.479652 48.252058-30.769429 99.60104-30.769429 152.648334 0 52.947393 10.389677 104.296375 30.769429 152.648334C170.439363 767.2377 198.711273 809.196012 234.77544 845.160279s77.922579 64.336078 124.676127 84.016524C407.703625 949.656455 459.052607 960.046132 512 960.046132s104.296375-10.389677 152.648334-30.769428c46.653647-19.780347 88.611958-48.052257 124.676126-84.016524s64.336078-77.922579 84.016524-124.676127c20.479652-48.351959 30.769429-99.60104 30.769429-152.648334 0-52.947393-10.389677-104.296375-30.769429-152.648334C853.560637 368.633739 825.288727 326.675427 789.22456 290.71116c-36.064168-36.064168-77.922579-64.336078-124.676127-84.016524-11.288784-4.795236-22.677468-8.991067-34.365855-12.687395-13.286799-4.195831-22.377766-16.483622-22.377766-30.469726 0-21.57856 20.979156-36.963275 41.558708-30.469726 184.816373 58.242133 318.683368 230.870615 318.683368 434.86793zM543.968237 527.475919c0 17.582531-14.385707 31.968237-31.968237 31.968237s-31.968237-14.385707-31.968237-31.968237V31.968237c0-17.582531 14.385707-31.968237 31.968237-31.968237s31.968237 14.385707 31.968237 31.968237v495.507682z" /></svg>