<?xml version="1.0" standalone="no"?><!DOCTYPE svg PUBLIC "-//W3C//DTD SVG 1.1//EN" "http://www.w3.org/Graphics/SVG/1.1/DTD/svg11.dtd"><svg class="icon" width="200px" height="200.00px" viewBox="0 0 1024 1024" version="1.1" xmlns="http://www.w3.org/2000/svg"><path fill="#333333" d="M502.500928 191.981252c-50.79504 0-99.690265 19.598086-136.386681 54.794649l-58.794259 58.694268c-24.997559 24.997559-24.997559 65.493604 0 90.491163l91.691046 91.691046c17.09833 17.09833 44.995606 17.09833 62.093936 0 3.599648 26.397422 2.299775 53.294795-3.899619 79.192266l-34.09667 143.286007c-1.199883 4.999512 2.599746 9.899033 7.799238 9.899034h68.893272c2.199785 0 3.999609 1.799824 3.99961 3.999609v283.972268c0 8.799141 7.199297 15.998438 15.998437 15.998438h63.993751c8.799141 0 15.998438-7.199297 15.998438-15.998438V723.929304c0-2.199785 1.799824-3.999609 3.999609-3.99961h56.994434c10.598965-53.094815 28.797188-104.289815 54.094717-152.185138l4.399571-8.299189c14.098623-14.098623 24.097647-31.696905 28.897178-51.095011 5.599453-22.397813 3.999609-45.995508-4.599551-67.493408l-98.890343-167.783615c-29.79709-50.195098-83.791817-81.092081-142.186114-81.092081zM386.312274 338.166976l24.397618-23.297725c9.899033-9.499072 26.397422-3.699639 28.197246 9.899033L453.005761 428.458158l-66.993458-66.993457c-6.499365-6.499365-6.299385-16.99834 0.299971-23.297725zM551.696123 87.991407m-87.991407 0a87.991407 87.991407 0 1 0 175.982815 0 87.991407 87.991407 0 1 0-175.982815 0Z" /></svg>