<?xml version="1.0" standalone="no"?><!DOCTYPE svg PUBLIC "-//W3C//DTD SVG 1.1//EN" "http://www.w3.org/Graphics/SVG/1.1/DTD/svg11.dtd"><svg class="icon" width="200px" height="200.00px" viewBox="0 0 1024 1024" version="1.1" xmlns="http://www.w3.org/2000/svg"><path fill="#333333" d="M512 0C229.2 0 0 229.2 0 512s229.2 512 512 512 512-229.2 512-512S794.8 0 512 0z m256 718.7c0 6.8-8 10.5-13.2 6.1L550.9 551v167.7c0 6.8-8 10.5-13.2 6.1L304 525.6V704h-64V320h64v178.4l233.7-199.1c5.2-4.4 13.2-0.7 13.2 6.1V473l203.9-173.7c5.2-4.4 13.2-0.7 13.2 6.1v413.3z" /></svg>