<?xml version="1.0" standalone="no"?><!DOCTYPE svg PUBLIC "-//W3C//DTD SVG 1.1//EN" "http://www.w3.org/Graphics/SVG/1.1/DTD/svg11.dtd"><svg class="icon" width="200px" height="200.00px" viewBox="0 0 1024 1024" version="1.1" xmlns="http://www.w3.org/2000/svg"><path fill="#333333" d="M736 816v112c0 17.7-14.3 32-32 32H320c-17.7 0-32-14.3-32-32V816c0-8.8 7.2-16 16-16h416c8.8 0 16 7.2 16 16zM896 384H776c-4.4 0-8-3.6-8-8V218.1c0-36.9-15.9-72-43.7-96.3l-48.1-42.1C652.9 59.3 622.9 48 591.9 48H256v328c0 4.4-3.6 8-8 8H128C57.3 384 0 441.3 0 512v416c0 17.7 14.3 32 32 32h192c17.7 0 32-14.3 32-32V784c0-8.8 7.2-16 16-16h480c8.8 0 16 7.2 16 16v144c0 17.7 14.3 32 32 32h192c17.7 0 32-14.3 32-32V512c0-70.7-57.3-128-128-128zM640 133l64 56v3h-60c-2.2 0-4-1.8-4-4v-55z m-320-21h256v112c0 17.7 14.3 32 32 32h96v256H320V112zM128 560c0-26.5 21.5-48 48-48s48 21.5 48 48-21.5 48-48 48-48-21.5-48-48zM544 192H352v64h192v-64zM672 288H352v64h320v-64zM672 400H352v64h320v-64z" /></svg>