<?xml version="1.0" standalone="no"?><!DOCTYPE svg PUBLIC "-//W3C//DTD SVG 1.1//EN" "http://www.w3.org/Graphics/SVG/1.1/DTD/svg11.dtd"><svg class="icon" width="200px" height="200.00px" viewBox="0 0 1024 1024" version="1.1" xmlns="http://www.w3.org/2000/svg"><path fill="#333333" d="M864 352V154.7c0-17.1-6.8-33.4-18.9-45.4l-91.4-90.7C741.7 6.7 725.5 0 708.6 0H160v352H96c-53 0-96 43-96 96v384h160v128c0 35.3 28.7 64 64 64h576c35.3 0 64-28.7 64-64V832h160V352H864z m96 416h-96V656H160v112H64V448c0-17.7 14.3-32 32-32h64v176h704V416h96v352zM912 432c-17.7 0-32 14.3-32 32s14.3 32 32 32 32-14.3 32-32-14.3-32-32-32z" /></svg>