<?xml version="1.0" standalone="no"?><!DOCTYPE svg PUBLIC "-//W3C//DTD SVG 1.1//EN" "http://www.w3.org/Graphics/SVG/1.1/DTD/svg11.dtd"><svg class="icon" width="200px" height="200.00px" viewBox="0 0 1024 1024" version="1.1" xmlns="http://www.w3.org/2000/svg"><path fill="#333333" d="M848 416c-26.5 0-48 21.5-48 48s21.5 48 48 48 48-21.5 48-48-21.5-48-48-48zM479.2 318.5c-12.6 0-24.9-3.7-35.4-10.7-35.5-23.6-78-37.3-123.8-37.3s-88.3 13.7-123.8 37.3c-10.5 7-22.8 10.7-35.4 10.7H64c-35.3 0-64 28.7-64 64v304h96v67h48c8.8 0 16-7.2 16-16v-19c0-17.7 14.3-32 32-32h12.6c33.7 20.3 73.2 32 115.4 32s81.7-11.7 115.4-32H832c17.7 0 32 14.3 32 32v19c0 8.8 7.2 16 16 16h48v-67h96v-304c0-35.3-28.7-64-64-64H479.2zM64 622.5v-208c0-17.7 14.3-32 32-32h30c-19.1 33-30 71.2-30 112 0 47.6 14.8 91.7 40.2 128H64z m369.1-14.9C427.7 613 422 618 416 622.5c-27.5 20.8-60.9 32-96 32s-68.5-11.2-96-32c-6-4.5-11.7-9.5-17.1-14.9-30.2-30.2-46.9-70.4-46.9-113.1 0-42.2 16.2-81.9 45.7-112l1.1-1.1c30.2-30.2 70.4-46.9 113.1-46.9s82.9 16.6 113.1 46.9l1.1 1.1c29.5 30.1 45.7 69.8 45.7 112 0.2 42.7-16.4 82.9-46.7 113.1zM960 622.5H503.8c25.3-36.3 40.2-80.4 40.2-128 0-40.8-10.9-79-30-112h414c17.7 0 32 14.3 32 32v208zM736 432c-17.7 0-32 14.3-32 32s14.3 32 32 32 32-14.3 32-32-14.3-32-32-32zM880 592H624c-8.8 0-16-7.2-16-16v-32c0-8.8 7.2-16 16-16h256c8.8 0 16 7.2 16 16v32c0 8.8-7.2 16-16 16zM320 448c26.5 0 48 21.5 48 48s-21.5 48-48 48-48-21.5-48-48 21.5-48 48-48z m0-64c-61.9 0-112 50.1-112 112s50.1 112 112 112 112-50.1 112-112-50.1-112-112-112z" /></svg>