<?xml version="1.0" standalone="no"?><!DOCTYPE svg PUBLIC "-//W3C//DTD SVG 1.1//EN" "http://www.w3.org/Graphics/SVG/1.1/DTD/svg11.dtd"><svg class="icon" width="200px" height="200.00px" viewBox="0 0 1024 1024" version="1.1" xmlns="http://www.w3.org/2000/svg"><path fill="#333333" d="M604.254954 591.711079H681.917033c2.198926 0 3.998048 1.799122 3.998048 3.998047v55.97267c0 2.198926-1.799122 3.998048-3.998048 3.998048H549.981454c-4.397853 0-7.996096 3.598243-7.996095 7.996095v51.974622c0 2.198926 1.799122 3.998048 3.998048 3.998048h135.933626c2.198926 0 3.998048 1.799122 3.998048 3.998048v55.97267c0 2.198926-1.799122 3.998048-3.998048 3.998047H545.983407c-2.198926 0-3.998048 1.799122-3.998048 3.998048v87.957052c0 2.198926-1.799122 3.998048-3.998048 3.998048h-55.97267c-2.198926 0-3.998048-1.799122-3.998048-3.998048v-87.957052c0-2.198926-1.799122-3.998048-3.998047-3.998048H338.084919c-2.198926 0-3.998048-1.799122-3.998047-3.998047v-55.97267c0-2.198926 1.799122-3.998048 3.998047-3.998048h135.933627c2.198926 0 3.998048-1.799122 3.998047-3.998048v-51.974622c0-4.397853-3.598243-7.996096-7.996095-7.996095H338.084919c-2.198926 0-3.998048-1.799122-3.998047-3.998048v-55.97267c0-2.198926 1.799122-3.998048 3.998047-3.998047h69.665984c3.598243 0 5.297413-4.297901 2.798633-6.796682L305.300927 479.565837c-1.599219-1.599219-1.599219-4.097999 0-5.697218l39.580674-39.580674c1.599219-1.599219 4.097999-1.599219 5.697218 0l144.129624 144.129625c6.196974 6.196974 16.391996 6.196974 22.58897 0l144.129625-144.129625c1.599219-1.599219 4.097999-1.599219 5.697218 0l39.580673 39.580674c1.599219 1.599219 1.599219 4.097999 0 5.697218L601.45632 584.914397c-2.49878 2.49878-0.79961 6.796681 2.798634 6.796682zM911.704832 601.806149c-5.797169-38.881015-16.292045-74.163787-31.484627-104.848804-13.893216-28.685993-31.484627-55.372962-52.374427-79.461201-17.091654-19.590434-35.282772-38.081406-54.673304-55.372962-15.692338-13.093607-30.784968-26.78692-45.277891-41.079941-11.794241-11.594339-23.188677-23.688433-34.083358-36.082382-6.596779-7.096535-12.993655-14.392972-18.990727-21.889312l2.49878-4.497804c2.198926-4.097999 4.797657-8.495852 7.696242-12.793753 3.498292-5.297413 6.69673-10.095071 9.595315-14.19307 5.697218-7.996096 11.494388-15.89224 17.291556-23.188677 0.299854-0.399805 3.198438-3.898097 12.194046-9.695266 12.293997-7.896144 22.888824-18.191118 31.384676-30.685017 8.3959-12.094095 14.093119-25.88736 16.791801-40.280332 3.298389-17.991215 0.899561-36.582138-6.69673-53.174036-6.396877-13.893216-19.690386-32.883943-47.176965-44.078477-11.494388-4.497804-23.588482-6.796681-35.882479-6.896633-4.497804 0-8.695754 0.299854-12.693802 0.899561-8.995608 1.399317-17.891264 3.798145-26.387116 7.096535l-0.89956-0.899561c-10.794729-9.99512-23.588482-17.491459-37.58165-21.989263C591.461201 3.198438 577.068228 0.299854 562.475354 0.099951c-12.293997 0-24.088238 2.298878-34.982919 6.996584-6.496828 2.698682-12.693802 5.997072-18.690873 9.795217-12.593851-7.49634-26.487067-12.493899-40.979991-14.592874-5.697218-0.899561-11.494388-1.399317-17.291556-1.399317-19.390532 0-38.381259 5.497316-54.873207 15.792289-7.596291 4.897609-14.992679 10.294973-22.089214 15.992191l-4.297901-1.299366c-9.695266-2.998536-19.690386-5.097511-29.885408-6.296925-22.389068-2.698682-44.878087 3.598243-62.569448 17.491459-29.585554 23.588482-40.97999 60.270571-29.785457 95.553343 6.996584 22.58897 21.189653 42.279356 40.280332 56.172572 5.797169 4.397853 11.894192 9.595315 17.991215 15.492436 4.097999 3.898097 7.996096 8.495852 11.494388 13.793265 3.598243 5.797169 7.896144 12.293997 12.793753 19.490483 3.698194 5.397365 7.096535 10.694778 10.195022 15.992191l0.899561 1.399317 2.398828 3.898097c-5.797169 7.296437-12.293997 15.092631-19.290581 23.088726l-1.69917 1.999024c-7.49634 9.295461-17.291557 19.990239-29.185749 31.684529-13.993167 13.893216-28.38614 27.386628-43.078965 40.580185-22.788873 20.190142-43.47877 42.579209-61.769839 66.86735-19.790337 26.187213-36.282284 54.773255-48.976086 85.058468-13.293509 31.684529-22.389068 64.968277-27.086774 99.051635-5.097511 37.481698-4.19795 75.563104 2.798633 112.744948 6.296925 35.482674 19.390532 71.465105 38.781064 106.647926 20.489995 36.682089 47.376867 69.466081 79.461201 96.752758 32.983895 28.486091 73.064324 51.674768 119.241776 68.966325 46.277404 17.391508 99.351489 26.187213 157.722987 26.187213 56.172572 0 107.547487-7.49634 152.725427-22.389068 45.577745-14.992679 85.958028-35.682577 119.841484-61.569936 34.083358-25.787408 62.769351-57.971694 84.45876-94.753734 20.689898-35.282772 34.882967-73.863934 42.079454-114.144265 7.49634-47.476818 8.295949-90.555783 2.598731-129.336848zM325.291166 142.530405c-8.295949-5.797169-14.392972-14.293021-17.391508-24.088238-3.198438-10.195022-0.299854-18.890776 8.695754-26.087262 4.397853-3.298389 9.99512-4.697706 15.492436-3.898097 5.797169 0.599707 11.894192 1.999024 18.39102 3.898097 6.396877 1.999024 12.693802 3.998048 18.790825 5.89712 3.698194 1.199414 7.096535 1.799122 10.394924 1.799122 2.198926 0 4.297901-0.299854 6.396876-0.79961 8.995608-1.999024 15.792289-5.397365 20.290093-10.294973s12.194046-10.994632 23.188678-18.191117c6.196974-3.998048 13.493411-5.997072 20.789848-5.997072 2.298878 0 4.697706 0.199902 7.196486 0.599707 10.294973 1.599219 18.091166 5.097511 23.188678 10.294973 2.598731 3.298389 5.297413 5.997072 8.195998 8.395901 2.898585 2.298878 5.997072 4.397853 9.19551 6.396876 3.198438 2.598731 6.796681 4.897609 10.594827 6.896633h0.099951c1.299366 0 2.898585-0.699658 4.797657-1.999024 3.898097-2.598731 8.995608-7.196486 15.492435-13.793265 7.696242-7.196486 15.492435-12.493899 23.188678-15.692338 3.198438-1.299366 6.596779-1.899073 9.995119-1.899073 5.997072 0 12.893704 1.599219 20.8898 4.797658 6.396877 1.999024 11.594339 4.797657 15.392484 8.3959l11.094583 10.294973c3.598243 3.298389 7.396388 6.097023 11.594339 8.395901 4.097999 2.298878 9.395412 3.398341 15.692338 3.39834h0.299853c6.396877 0 11.894192-0.999512 16.391996-2.998536 4.497804-1.999024 8.795705-3.798145 12.993656-5.397364 4.19795-1.599219 8.3959-2.798633 12.59385-3.398341 1.099463-0.199902 2.098975-0.199902 3.198439-0.199902 3.498292 0 7.396388 0.699658 11.794241 2.198926 6.396877 2.598731 10.794729 6.396877 12.993655 11.294485 2.298878 4.897609 2.898585 9.99512 1.999024 15.192582-0.999512 5.297413-3.198438 10.494876-6.796681 15.692338-3.398341 5.097511-7.896144 9.495364-12.993656 12.793753-12.194046 7.896144-21.589458 15.89224-27.986334 24.088238-10.494876 13.493411-20.489995 27.486579-29.985359 41.7796-3.798145 5.797169-7.296437 11.69429-10.594827 17.691361-0.699658 1.199414-1.299366 2.398829-1.999024 3.598243-2.798633 4.99756-8.195998 8.096047-13.893216 8.096047H412.148755c-5.597267 0-10.794729-2.898585-13.693313-7.696242-1.199414-1.999024-2.49878-3.998048-3.698195-5.997072-3.998048-6.69673-8.096047-13.293509-12.59385-19.690385-3.998048-5.797169-7.896144-11.69429-11.594339-17.691362-6.196974-9.495364-13.493411-18.291069-21.689409-26.087262-7.49634-6.896633-15.392484-13.593363-23.588483-19.990239z m520.645779 577.318106c-5.797169 32.783992-17.391508 64.268619-34.28326 92.954612-17.491459 29.585554-40.580185 55.472914-68.066765 76.262763-28.286188 21.689409-61.969741 38.881015-100.950707 51.674768-38.980966 12.793753-83.259346 19.090678-132.835139 19.090678-50.875159 0-95.953148-7.396388-135.233968-22.089214-39.28082-14.792777-72.564568-33.883455-99.951196-57.571889-26.287164-22.289117-48.376379-49.076037-65.168179-79.161347-16.092143-29.185749-26.686969-58.171596-31.884432-87.057491-5.797169-30.485115-6.596779-61.669888-2.398829-92.454856 7.596291-56.072621 29.585554-109.246657 63.668912-154.424597 15.89224-21.089702 33.883455-40.480234 53.573841-57.971694 16.791801-15.092631 31.884431-29.385652 45.377843-42.779112s24.787897-25.687457 33.783504-36.881991c5.897121-6.796681 11.494388-13.293509 16.591899-19.690386 2.998536-3.698194 7.596291-5.897121 12.393948-5.89712H617.948267c4.697706 0 9.19551 2.098975 12.194046 5.697218 5.097511 6.097023 10.694778 12.393948 16.791801 18.990727 9.695266 11.094583 21.589458 23.788385 35.682577 37.881503 14.19307 14.093119 30.585066 28.985847 49.27594 44.778136 15.492435 13.793265 31.384675 29.985359 47.776671 48.676232 16.391996 18.690874 30.784968 40.480234 42.979014 65.368082 12.194046 24.887848 20.789849 53.573841 25.587506 85.958029 4.897609 32.484139 4.097999 68.666471-2.298877 108.646949z" /></svg>