<?xml version="1.0" standalone="no"?><!DOCTYPE svg PUBLIC "-//W3C//DTD SVG 1.1//EN" "http://www.w3.org/Graphics/SVG/1.1/DTD/svg11.dtd"><svg class="icon" width="200px" height="199.80px" viewBox="0 0 1025 1024" version="1.1" xmlns="http://www.w3.org/2000/svg"><path fill="#333333" d="M383.625366 79.921951v287.719025c0 8.791415-7.192976 15.98439-15.98439 15.98439H79.921951c-8.791415 0-15.98439-7.192976-15.98439-15.98439V79.921951c0-8.791415 7.192976-15.98439 15.98439-15.98439h287.719025c8.791415 0 15.98439 7.192976 15.98439 15.98439zM63.937561 0C28.672 0 0 28.672 0 63.937561v319.687805c0 35.265561 28.672 63.937561 63.937561 63.937561h319.687805c35.265561 0 63.937561-28.672 63.937561-63.937561V63.937561c0-35.265561-28.672-63.937561-63.937561-63.937561H63.937561zM255.750244 195.80878v55.945366c0 2.197854-1.798244 3.996098-3.996098 3.996098h-55.945366c-2.197854 0-3.996098-1.798244-3.996097-3.996098v-55.945366c0-2.197854 1.798244-3.996098 3.996097-3.996097h55.945366c2.197854 0 3.996098 1.798244 3.996098 3.996097z m-95.906342-67.933658c-17.682732 0-31.96878 14.286049-31.96878 31.96878v127.875122c0 17.682732 14.286049 31.96878 31.96878 31.968781h127.875122c17.682732 0 31.96878-14.286049 31.968781-31.968781V159.843902c0-17.682732-14.286049-31.96878-31.968781-31.96878H159.843902zM383.625366 655.36v287.719024c0 8.791415-7.192976 15.98439-15.98439 15.984391H79.921951c-8.791415 0-15.98439-7.192976-15.98439-15.984391V655.36c0-8.791415 7.192976-15.98439 15.98439-15.98439h287.719025c8.791415 0 15.98439 7.192976 15.98439 15.98439zM63.937561 575.438049c-35.265561 0-63.937561 28.672-63.937561 63.937561v319.687805c0 35.265561 28.672 63.937561 63.937561 63.937561h319.687805c35.265561 0 63.937561-28.672 63.937561-63.937561V639.37561c0-35.265561-28.672-63.937561-63.937561-63.937561H63.937561zM255.750244 771.246829v55.945366c0 2.197854-1.798244 3.996098-3.996098 3.996098h-55.945366c-2.197854 0-3.996098-1.798244-3.996097-3.996098v-55.945366c0-2.197854 1.798244-3.996098 3.996097-3.996097h55.945366c2.197854 0 3.996098 1.798244 3.996098 3.996097z m-95.906342-67.933658c-17.682732 0-31.96878 14.286049-31.96878 31.96878v127.875122c0 17.682732 14.286049 31.96878 31.96878 31.968781h127.875122c17.682732 0 31.96878-14.286049 31.968781-31.968781V735.281951c0-17.682732-14.286049-31.96878-31.968781-31.96878H159.843902zM959.063415 79.921951v287.719025c0 8.791415-7.192976 15.98439-15.984391 15.98439H655.36c-8.791415 0-15.98439-7.192976-15.98439-15.98439V79.921951c0-8.791415 7.192976-15.98439 15.98439-15.98439h287.719024c8.791415 0 15.98439 7.192976 15.984391 15.98439zM639.37561 0c-35.265561 0-63.937561 28.672-63.937561 63.937561v319.687805c0 35.265561 28.672 63.937561 63.937561 63.937561h319.687805c35.265561 0 63.937561-28.672 63.937561-63.937561V63.937561c0-35.265561-28.672-63.937561-63.937561-63.937561H639.37561zM831.188293 195.80878v55.945366c0 2.197854-1.798244 3.996098-3.996098 3.996098h-55.945366c-2.197854 0-3.996098-1.798244-3.996097-3.996098v-55.945366c0-2.197854 1.798244-3.996098 3.996097-3.996097h55.945366c2.197854 0 3.996098 1.798244 3.996098 3.996097z m-95.906342-67.933658c-17.682732 0-31.96878 14.286049-31.96878 31.96878v127.875122c0 17.682732 14.286049 31.96878 31.96878 31.968781h127.875122c17.682732 0 31.96878-14.286049 31.968781-31.968781V159.843902c0-17.682732-14.286049-31.96878-31.968781-31.96878H735.281951zM583.430244 1023.000976h47.953171c4.395707 0 7.992195-3.596488 7.992195-7.992196V838.181463c0-4.395707-3.596488-7.992195-7.992195-7.992195h-47.953171c-4.395707 0-7.992195 3.596488-7.992195 7.992195v176.827317c0 4.395707 3.596488 7.992195 7.992195 7.992196zM711.305366 1023.000976h47.953171c4.395707 0 7.992195-3.596488 7.992195-7.992196V903.118049c0-4.395707-3.596488-7.992195-7.992195-7.992195h-47.953171c-4.395707 0-7.992195 3.596488-7.992195 7.992195v111.890731c0 4.395707 3.596488 7.992195 7.992195 7.992196zM1024 959.063415v56.94439c0 4.395707-3.596488 7.992195-7.992195 7.992195H839.180488c-4.395707 0-7.992195-3.596488-7.992195-7.992195v-48.952195c0-4.395707 3.596488-7.992195 7.992195-7.992195h111.890732c4.395707 0 7.992195-3.596488 7.992195-7.992195v-47.953171c0-4.395707 3.596488-7.992195 7.992195-7.992195h47.95317c4.395707 0 7.992195 3.596488 7.992196 7.992195v55.945366h0.999024zM967.05561 799.219512h47.95317c4.395707 0 7.992195-3.596488 7.992196-7.992195V583.430244c0-4.395707-3.596488-7.992195-7.992196-7.992195h-47.95317c-4.395707 0-7.992195 3.596488-7.992195 7.992195v207.797073c0 4.395707 3.596488 7.992195 7.992195 7.992195zM575.438049 583.430244v47.953171c0 4.395707 3.596488 7.992195 7.992195 7.992195h176.827317c4.395707 0 7.992195-3.596488 7.992195-7.992195v-47.953171c0-4.395707-3.596488-7.992195-7.992195-7.992195H583.430244c-4.395707 0-7.992195 3.596488-7.992195 7.992195zM575.438049 711.305366v47.953171c0 4.395707 3.596488 7.992195 7.992195 7.992195h47.953171c4.395707 0 7.992195-3.596488 7.992195-7.992195v-47.953171c0-4.395707-3.596488-7.992195-7.992195-7.992195h-47.953171c-4.395707 0-7.992195 3.596488-7.992195 7.992195zM895.125854 775.242927v111.890732c0 4.395707-3.596488 7.992195-7.992195 7.992195h-47.953171c-4.395707 0-7.992195-3.596488-7.992195-7.992195v-47.953171c0-4.395707-3.596488-7.992195-7.992195-7.992195H711.305366c-4.395707 0-7.992195-3.596488-7.992195-7.992195v-47.953171c0-4.395707 3.596488-7.992195 7.992195-7.992195h175.828293c4.395707 0 7.992195 3.596488 7.992195 7.992195zM831.188293 583.430244v143.859512c0 4.395707 3.596488 7.992195 7.992195 7.992195h47.953171c4.395707 0 7.992195-3.596488 7.992195-7.992195V583.430244c0-4.395707-3.596488-7.992195-7.992195-7.992195h-47.953171c-4.395707 0-7.992195 3.596488-7.992195 7.992195z" /></svg>