<?xml version="1.0" standalone="no"?><!DOCTYPE svg PUBLIC "-//W3C//DTD SVG 1.1//EN" "http://www.w3.org/Graphics/SVG/1.1/DTD/svg11.dtd"><svg class="icon" width="200px" height="200.00px" viewBox="0 0 1024 1024" version="1.1" xmlns="http://www.w3.org/2000/svg"><path fill="#333333" d="M556 96c55.6 0 107.8 21.6 147.1 60.9S764 248.4 764 304c0 38.9-10.8 76.8-31.1 109.6-19.9 32-48 58-81.4 75.3-33.6 17.4-61.7 43.7-81.4 75.9-14.2 23.4-23.5 48.8-27.7 75.2h-64.8c4.4-40.1 17.5-79.1 38.7-114 26.3-43.4 64.2-79.3 109.4-103.9 48.1-26.1 74.4-69.4 74.2-121.8C699.6 223 635.9 160 558 160h-50c-48.2 0-93.2 24.6-119.7 64h-72.4c5.9-14 13.3-27.4 22.1-39.9 12.6-17.8 27.8-33.5 45.3-46.6C419.5 110.3 462.6 96 508 96h48z m0-64h-48c-122.4 0-225.9 80.8-260 192-2.6 8.4-4.8 16.9-6.5 25.6-4 19.8 11.1 38.4 31.4 38.4h134c12.3 0 23.6-7.1 28.9-18.2 12.8-27.1 40.4-45.8 72.3-45.8h50c42.5 0 77.7 34.1 77.9 76.6 0.1 31.5-16.5 52-40.7 65.2C483.3 426.7 412 542.3 412 669.7c0 18.9 15.3 34.3 34.3 34.3h142.5c9.5 0 16.9-8.2 15.9-17.6-3.2-31.7 4.3-62.5 20-88.3 13.3-21.9 32.5-40.2 56.2-52.4C768.3 500.4 828 409.2 828 304c0-75.1-30.4-143.1-79.7-192.3C699.1 62.4 631.1 32 556 32zM572 864c0 35.3-28.7 64-64 64s-64-28.7-64-64 28.7-64 64-64 64 28.7 64 64z m-64-128c-70.7 0-128 57.3-128 128s57.3 128 128 128 128-57.3 128-128-57.3-128-128-128z" /></svg>