<?xml version="1.0" standalone="no"?><!DOCTYPE svg PUBLIC "-//W3C//DTD SVG 1.1//EN" "http://www.w3.org/Graphics/SVG/1.1/DTD/svg11.dtd"><svg class="icon" width="200px" height="200.00px" viewBox="0 0 1024 1024" version="1.1" xmlns="http://www.w3.org/2000/svg"><path fill="#333333" d="M913.2 672l98.8 57.1c5.3 3.1 5.3 10.8 0 13.9l-43.4 25L710.4 924c-2.7 1.5-6-0.4-6-3.5V772c0-2.2-1.8-4-4-4H544c-70.4 0-134.4-28.8-180.8-75.2-11.1-11.1-21.2-23.2-30.1-36.1-6.4-9.2-20-9.1-26.4 0.1C260.5 723.9 183.1 768 96 768h-48c-26.5 0-48-21.5-48-48s21.5-48 48-48h48c42.5 0 82.6-16.7 112.9-47.1 30.4-30.4 47.1-70.5 47.1-112.9s-16.7-82.6-47.1-112.9C178.6 368.7 138.4 352 96 352h-48c-26.5 0-48-21.5-48-48s21.5-48 48-48h48c70.4 0 134.4 28.8 180.8 75.2 11.1 11.1 21.2 23.2 30.1 36.1 6.4 9.2 20 9.1 26.4-0.1 46.3-67 123.6-111.1 210.8-111.1H700.4c2.2 0 4-1.8 4-4V103.4c0-3.1 3.3-5 6-3.5l258.2 156 43.4 25.1c5.3 3.1 5.3 10.8 0 13.9L913.2 352 710.4 476c-2.7 1.5-6-0.4-6-3.5V356c0-2.2-1.8-4-4-4H544c-42.5 0-82.6 16.7-112.9 47.1-30.4 30.4-47.1 70.5-47.1 112.9 0 42.5 16.7 82.6 47.1 112.9C461.4 655.3 501.5 672 544 672H700.4c2.2 0 4-1.8 4-4V551.4c0-3.1 3.3-5 6-3.5L913.2 672z" /></svg>