<?xml version="1.0" standalone="no"?><!DOCTYPE svg PUBLIC "-//W3C//DTD SVG 1.1//EN" "http://www.w3.org/Graphics/SVG/1.1/DTD/svg11.dtd"><svg class="icon" width="200px" height="200.00px" viewBox="0 0 1024 1024" version="1.1" xmlns="http://www.w3.org/2000/svg"><path fill="#333333" d="M543.984383 959.531479h-64.468522c-17.691362 0-31.984383-14.293021-31.984382-31.984383v-702.656906c0-17.691362 14.293021-31.984383 31.984382-31.984382H543.984383c17.691362 0 31.984383 14.293021 31.984382 31.984382v702.656906c0 17.691362-14.293021 31.984383-31.984382 31.984383z m-160.421669-766.625671v766.625671c0 35.282772 28.685993 63.968765 63.968765 63.968765H575.968765c35.282772 0 63.968765-28.685993 63.968766-63.968765v-766.625671c0-35.282772-28.685993-63.968765-63.968766-63.968766H447.531479c-35.282772 0-63.968765 28.685993-63.968765 63.968766zM480.015617 264.370913v495.75793c0 4.397853 3.598243 7.996096 7.996096 7.996096h47.976574c4.397853 0 7.996096-3.598243 7.996096-7.996096V264.370913c0-4.397853-3.598243-7.996096-7.996096-7.996096h-47.976574c-4.397853 0-7.996096 3.598243-7.996096 7.996096zM480.015617 864.078087c0 17.691362 14.293021 31.984383 31.984383 31.984382s31.984383-14.293021 31.984383-31.984382-14.293021-31.984383-31.984383-31.984383-31.984383 14.293021-31.984383 31.984383zM831.843826 863.578331h-64.468521c-17.691362 0-31.984383-14.293021-31.984383-31.984383v-703.656417c0-17.691362 14.293021-31.984383 31.984383-31.984383H831.843826c17.691362 0 31.984383 14.293021 31.984383 31.984383v703.656417c0 17.691362-14.293021 31.984383-31.984383 31.984383z m-160.421669-767.625183v767.625183c0 35.282772 28.685993 63.968765 63.968765 63.968765H863.828209c35.282772 0 63.968765-28.685993 63.968765-63.968765v-767.625183c0-35.282772-28.685993-63.968765-63.968765-63.968765H735.390922c-35.282772 0-63.968765 28.685993-63.968765 63.968765zM767.875061 289.358712v374.816983c0 4.397853 3.598243 7.996096 7.996096 7.996096h47.976574c4.397853 0 7.996096-3.598243 7.996095-7.996096V289.358712c0-4.397853-3.598243-7.996096-7.996095-7.996096h-47.976574c-4.397853 0-7.996096 3.598243-7.996096 7.996096zM767.875061 768.124939c0 17.691362 14.293021 31.984383 31.984383 31.984383s31.984383-14.293021 31.984382-31.984383-14.293021-31.984383-31.984382-31.984383-31.984383 14.293021-31.984383 31.984383zM767.875061 192.406052c0 17.691362 14.293021 31.984383 31.984383 31.984382s31.984383-14.293021 31.984382-31.984382-14.293021-31.984383-31.984382-31.984383-31.984383 14.293021-31.984383 31.984383zM256.124939 959.531479h-64.468521c-17.691362 0-31.984383-14.293021-31.984383-31.984383v-831.593948c0-17.691362 14.293021-31.984383 31.984383-31.984383H256.124939c17.691362 0 31.984383 14.293021 31.984383 31.984383v831.593948c0 17.691362-14.293021 31.984383-31.984383 31.984383zM95.70327 63.968765v895.562714c0 35.282772 28.685993 63.968765 63.968765 63.968765H288.109322c35.282772 0 63.968765-28.685993 63.968765-63.968765v-895.562714c0-35.282772-28.685993-63.968765-63.968765-63.968765H159.672035c-35.282772 0-63.968765 28.685993-63.968765 63.968765zM192.156174 135.43387v495.757931c0 4.397853 3.598243 7.996096 7.996095 7.996096h47.976574c4.397853 0 7.996096-3.598243 7.996096-7.996096V135.43387c0-4.397853-3.598243-7.996096-7.996096-7.996095h-47.976574c-4.397853 0-7.996096 3.598243-7.996095 7.996095zM192.156174 864.078087c0 17.691362 14.293021 31.984383 31.984382 31.984382s31.984383-14.293021 31.984383-31.984382-14.293021-31.984383-31.984383-31.984383-31.984383 14.293021-31.984382 31.984383zM894.81308 960.031235H703.906296c-17.691362 0-31.984383 14.293021-31.984383 31.984382s14.293021 31.984383 31.984383 31.984383h190.906784c17.691362 0 31.984383-14.293021 31.984382-31.984383s-14.293021-31.984383-31.984382-31.984382z" /></svg>