<?xml version="1.0" standalone="no"?><!DOCTYPE svg PUBLIC "-//W3C//DTD SVG 1.1//EN" "http://www.w3.org/Graphics/SVG/1.1/DTD/svg11.dtd"><svg class="icon" width="200px" height="200.00px" viewBox="0 0 1024 1024" version="1.1" xmlns="http://www.w3.org/2000/svg"><path fill="#333333" d="M575.968765 128.937042H447.531479c-35.282772 0-63.968765 28.586042-63.968765 63.968766v766.625671c0 35.282772 28.685993 63.968765 63.968765 63.968765H575.968765c35.282772 0 63.968765-28.685993 63.968766-63.968765v-766.625671c0-35.382723-28.685993-63.968765-63.968766-63.968766zM512 896.062469c-17.691362 0-31.984383-14.293021-31.984383-31.984382 0-8.795705 3.598243-16.791801 9.395413-22.58897 5.797169-5.797169 13.793265-9.395412 22.58897-9.395413s16.791801 3.598243 22.58897 9.395413c5.797169 5.797169 9.395412 13.793265 9.395413 22.58897s-3.598243 16.791801-9.395413 22.58897c-5.797169 5.797169-13.793265 9.395412-22.58897 9.395412z m31.984383-631.691556v495.75793c0 4.397853-3.598243 7.996096-7.996096 7.996096h-47.976574c-4.397853 0-7.996096-3.598243-7.996096-7.996096V264.370913c0-4.397853 3.598243-7.996096 7.996096-7.996096h47.976574c4.397853 0 7.996096 3.598243 7.996096 7.996096zM863.828209 31.984383H735.390922c-35.282772 0-63.968765 28.586042-63.968765 63.968765v767.625183c0 35.282772 28.685993 63.968765 63.968765 63.968765H863.828209c35.282772 0 63.968765-28.685993 63.968765-63.968765v-767.625183c0-35.382723-28.685993-63.968765-63.968765-63.968765zM799.859444 800.109322c-17.691362 0-31.984383-14.293021-31.984383-31.984383 0-8.795705 3.598243-16.791801 9.395412-22.58897 5.797169-5.797169 13.793265-9.395412 22.588971-9.395413s16.791801 3.598243 22.58897 9.395413c5.797169 5.797169 9.395412 13.793265 9.395412 22.58897s-3.598243 16.791801-9.395412 22.58897c-5.797169 5.797169-13.793265 9.395412-22.58897 9.395413z m22.58897-585.1143c-5.797169 5.797169-13.793265 9.395412-22.58897 9.395412-17.691362 0-31.984383-14.293021-31.984383-31.984382 0-8.795705 3.598243-16.791801 9.395412-22.58897 5.797169-5.797169 13.793265-9.395412 22.588971-9.395413s16.791801 3.598243 22.58897 9.395413c5.797169 5.797169 9.395412 13.793265 9.395412 22.58897s-3.598243 16.791801-9.395412 22.58897zM831.843826 289.358712v374.816983c0 4.397853-3.598243 7.996096-7.996095 7.996096h-47.976574c-4.397853 0-7.996096-3.598243-7.996096-7.996096V289.358712c0-4.397853 3.598243-7.996096 7.996096-7.996096h47.976574c4.397853 0 7.996096 3.598243 7.996095 7.996096zM288.109322 0H159.672035c-35.282772 0-63.968765 28.586042-63.968765 63.968765v895.562714c0 35.282772 28.685993 63.968765 63.968765 63.968765H288.109322c35.282772 0 63.968765-28.685993 63.968765-63.968765v-895.562714c0-35.382723-28.685993-63.968765-63.968765-63.968765zM224.140556 896.062469c-17.691362 0-31.984383-14.293021-31.984382-31.984382 0-8.795705 3.598243-16.791801 9.395412-22.58897 5.797169-5.797169 13.793265-9.395412 22.58897-9.395413s16.791801 3.598243 22.588971 9.395413c5.797169 5.797169 9.395412 13.793265 9.395412 22.58897s-3.598243 16.791801-9.395412 22.58897c-5.797169 5.797169-13.793265 9.395412-22.588971 9.395412z m31.984383-760.628599v495.757931c0 4.397853-3.598243 7.996096-7.996096 7.996096h-47.976574c-4.397853 0-7.996096-3.598243-7.996095-7.996096V135.43387c0-4.397853 3.598243-7.996096 7.996095-7.996095h47.976574c4.397853 0 7.996096 3.598243 7.996096 7.996095zM894.81308 960.031235H703.906296c-17.691362 0-31.984383 14.293021-31.984383 31.984382s14.293021 31.984383 31.984383 31.984383h190.906784c17.691362 0 31.984383-14.293021 31.984382-31.984383s-14.293021-31.984383-31.984382-31.984382z" /></svg>