<?xml version="1.0" standalone="no"?><!DOCTYPE svg PUBLIC "-//W3C//DTD SVG 1.1//EN" "http://www.w3.org/Graphics/SVG/1.1/DTD/svg11.dtd"><svg class="icon" width="200px" height="200.00px" viewBox="0 0 1024 1024" version="1.1" xmlns="http://www.w3.org/2000/svg"><path fill="#333333" d="M704 209.5l222.8 236.2L704 663.3V544c0-17.7-14.3-32-32-32H320c-76.9 0-149.3 30-203.7 84.4-20.2 20.2-37 42.8-50.2 67.2L64 637.5c0.3-38 7.9-74.9 22.6-109.6 14.5-34.3 35.3-65.1 61.7-91.6 26.5-26.5 57.3-47.2 91.6-61.7 35.5-15 73.2-22.6 112.1-22.6h320c17.7 0 32-14.3 32-32V209.5M667.5 76.7c-10-10.4-27.5-3.3-27.5 11.1V280c0 4.4-3.6 8-8 8H352c-97.2 0-185.2 39.4-248.9 103.1S0 542.8 0 640l3.5 41.6c6.5 78.1 27.7 154 62.2 223.9 7.5 15.2 30.4 9.9 30.4-7V800c0-61.9 25.1-117.9 65.6-158.4C202.1 601.1 258.1 576 320 576h312c4.4 0 8 3.6 8 8v179.6c0 13.9 16.5 21.2 26.8 11.8L1024 447.9 667.5 76.7z" /></svg>