<?xml version="1.0" standalone="no"?><!DOCTYPE svg PUBLIC "-//W3C//DTD SVG 1.1//EN" "http://www.w3.org/Graphics/SVG/1.1/DTD/svg11.dtd"><svg class="icon" width="200px" height="200.00px" viewBox="0 0 1024 1024" version="1.1" xmlns="http://www.w3.org/2000/svg"><path fill="#333333" d="M972.5 172.5c2.8-1.4 6 0.7 5.8 3.8l-11 183.1-6.8 113.6c-0.2 3.1-3.6 4.8-6.2 3.1l-66.5-43.9-181.7-119.8c-2.6-1.7-2.3-5.5 0.4-6.9l72.4-36.2c10.9-5.5 13.4-20 4.7-28.7l-0.2-0.2c-35.3-35.3-76.4-63-122.1-82.3-47.3-20-97.6-30.1-149.4-30.1s-102.2 10.1-149.4 30.1c-45.7 19.3-86.8 47-122.1 82.3s-63 76.4-82.3 122.1c-10.7 25.2-18.5 51.3-23.6 78.1-4.3 22.8-24 39.4-47.2 39.4-30 0-52.7-27.2-47.2-56.6C81.7 200.6 277.2 32 512 32c147.6 0 279.7 66.7 367.8 171.5 5.3 6.4 14.3 8.2 21.7 4.5l71-35.5zM936.6 544c30 0 52.7 27.2 47.2 56.6C942.3 823.4 746.8 992 512 992c-150.6 0-285-69.3-373-177.8-3.6-4.5-9.8-6.1-15.2-4L26 849.4c-2.9 1.1-5.9-1.2-5.4-4.3l29.3-202.9L63 550.9c0.4-3 4-4.5 6.4-2.6l69.3 54.5L303 732.1c2.4 1.9 1.9 5.7-1 6.9l-57.3 22.9c-8.8 3.5-11.2 14.9-4.5 21.5l0.1 0.1c35.3 35.3 76.4 63 122.1 82.3 47.3 20 97.6 30.1 149.4 30.1s102.2-10.1 149.4-30.1c45.7-19.3 86.8-47 122.1-82.3s63-76.4 82.3-122.1c10.7-25.2 18.5-51.3 23.6-78.1 4.5-22.7 24.2-39.3 47.4-39.3z" /></svg>