<?xml version="1.0" standalone="no"?><!DOCTYPE svg PUBLIC "-//W3C//DTD SVG 1.1//EN" "http://www.w3.org/Graphics/SVG/1.1/DTD/svg11.dtd"><svg class="icon" width="200px" height="200.00px" viewBox="0 0 1024 1024" version="1.1" xmlns="http://www.w3.org/2000/svg"><path fill="#333333" d="M480 209.5V320c0 17.7 14.3 32 32 32h160c38.9 0 76.6 7.6 112.1 22.6 34.3 14.5 65.1 35.3 91.6 61.7 26.5 26.5 47.2 57.3 61.7 91.6 14.7 34.7 22.3 71.5 22.6 109.6l-2.2 26.1c-13.2-24.4-30-47.1-50.2-67.2C853.3 542 780.9 512 704 512H512c-17.7 0-32 14.3-32 32v119.3L257.2 445.6 480 209.5M160 447.9l357.2 327.5c10.3 9.4 26.8 2.1 26.8-11.8V584c0-4.4 3.6-8 8-8h152c61.9 0 117.9 25.1 158.4 65.6C902.9 682.1 928 738.1 928 800v98.5c0 17 22.9 22.2 30.4 7 34.5-69.9 55.7-145.9 62.2-223.9l3.5-41.6c0-97.2-39.4-185.2-103.1-248.9S769.2 288 672 288H552c-4.4 0-8-3.6-8-8V87.8c0-14.4-17.6-21.5-27.5-11.1L160 447.9zM356.7 95.1L0 453.1l357.3 326.1c10.3 9.4 26.8 2.1 26.8-11.8 0-32.1-13.5-62.7-37.2-84.4L92.5 450.9l258.2-259.1c21.3-21.4 33.3-50.4 33.3-80.6v-4.8c0-14.3-17.3-21.4-27.3-11.3z" /></svg>