<?xml version="1.0" standalone="no"?><!DOCTYPE svg PUBLIC "-//W3C//DTD SVG 1.1//EN" "http://www.w3.org/Graphics/SVG/1.1/DTD/svg11.dtd"><svg class="icon" width="200px" height="200.00px" viewBox="0 0 1024 1024" version="1.1" xmlns="http://www.w3.org/2000/svg"><path fill="#333333" d="M32 541.2c-1.5 264.1 210.2 479 473.1 482.7 267.7 3.8 486-210.5 486.9-478.2 0.1-14.5-0.5-28.9-1.8-43.1-4.2-49-45-86.7-94.1-86.7-10.7 0-18.3 10.3-15.3 20.6C890.9 471.2 896 507.2 896 544c0 51.9-10.1 102.2-30.1 149.4-19.3 45.7-47 86.8-82.3 122.1s-76.4 63-122.1 82.3c-47.3 20-97.6 30.1-149.4 30.1s-102.2-10.1-149.4-30.1c-45.7-19.3-86.8-47-122.1-82.3s-63-76.4-82.3-122.1c-20-47.3-30.1-97.6-30.1-149.4s10.1-102.2 30.1-149.4c19.3-45.7 47-86.8 82.3-122.1s76.4-63 122.1-82.3c47.3-20 97.6-30.1 149.4-30.1s102.2 10.1 149.4 30.1c17.9 7.6 35 16.4 51.4 26.5 3.4 2.1 1.9 7.4-2.1 7.4h-63.2c-4.7 0-9.3 2.1-12.3 5.8l-69.7 83.7c-2.2 2.6-0.3 6.6 3.1 6.6H768c70.7 0 128-57.3 128-128V9.7c0-3.6-4.3-5.3-6.8-2.8l-84.5 84.5c-3 3-4.7 7.1-4.7 11.3v49.4c0 3.3-3.7 5.2-6.3 3.2C714.4 97.8 616.9 63.9 511.5 64c-264.4 0.2-478 212.8-479.5 477.2z" /></svg>