<?xml version="1.0" standalone="no"?><!DOCTYPE svg PUBLIC "-//W3C//DTD SVG 1.1//EN" "http://www.w3.org/Graphics/SVG/1.1/DTD/svg11.dtd"><svg class="icon" width="200px" height="200.00px" viewBox="0 0 1024 1024" version="1.1" xmlns="http://www.w3.org/2000/svg"><path fill="#333333" d="M680.7 413.1H608c-8.8 0-16 7.2-16 16V736c0 35.3-28.7 64-64 64H324c-2.2 0-4-1.8-4-4v-56c0-2.2 1.8-4 4-4h188c8.8 0 16-7.2 16-16V429.1c0-8.8-7.2-16-16-16h-72.7c-3.1 0-5-3.3-3.5-6L556.5 198c1.5-2.7 5.4-2.7 6.9 0l120.7 209.1c1.6 2.6-0.3 6-3.4 6z" /></svg>