<?xml version="1.0" standalone="no"?><!DOCTYPE svg PUBLIC "-//W3C//DTD SVG 1.1//EN" "http://www.w3.org/Graphics/SVG/1.1/DTD/svg11.dtd"><svg class="icon" width="200px" height="200.00px" viewBox="0 0 1024 1024" version="1.1" xmlns="http://www.w3.org/2000/svg"><path fill="#333333" d="M1012.403397 815.960949l-161.852582-58.282925c-20.893879-7.497803-36.389339-25.392561-40.987992-47.186176C774.673045 542.541052 598.024797 0 511.850044 0 397.183638 0 244.028507 539.741872 213.437469 709.192229c-4.098799 22.49341-19.794201 41.087963-41.287903 48.885678L11.29669 815.960949c-14.995607 5.398418-14.995607 26.69218 0 32.090598l477.46012 171.949625c7.497803 2.699209 15.295519 3.998828 23.093234 3.998828s15.595431-1.299619 23.093234-3.998828l477.460119-171.949625c15.095577-5.498389 15.095577-26.69218 0-32.090598zM359.994533 404.681441c1.299619-4.098799 2.599239-8.197598 3.998828-12.196427 29.49136-90.473494 59.882456-168.850532 87.874256-226.633603 15.295519-31.590745 29.791272-57.083276 43.287318-75.977741 4.498682-6.398126 8.49751-11.29669 11.896515-15.195548 10.896808 14.895636 28.491653 43.187347 52.984477 95.472029 27.691887 59.182661 58.782778 137.459729 89.973641 226.433662l2.199355 6.298155c2.899151 8.297569-1.39959 17.394904-9.697159 20.394025-88.174168 31.390803-183.746168 31.890657-272.52016 1.39959-8.197598-2.699209-12.69628-11.796544-9.997071-19.994142z m365.892805 376.089817c-7.097921 4.798594-15.795372 9.8971-26.492239 14.995607-48.285854 22.893293-116.665821 35.989456-187.545055 35.989456s-139.159231-13.096163-187.545055-35.989456c-10.696866-5.098506-19.494289-10.197013-26.492239-14.995607-18.994435-12.996193-25.892414-24.392854-25.892414-28.991506 0.099971-3.299033 1.199649-13.096163 4.498682-31.290833 3.698916-20.394025 10.097042-51.284975 20.893879-95.172117 0.999707-3.898858 1.899444-7.797716 2.89915-11.796544 0.599824-2.299326 3.099092-3.598946 5.298448-2.79918l36.889193 14.195841c54.584009 20.993849 111.967197 31.490774 169.450356 31.490774 57.383189 0 114.766377-10.496925 169.450356-31.490774l32.790394-12.59631c2.199356-0.799766 4.598653 0.399883 5.298447 2.599239 1.099678 3.898858 2.199356 7.897686 3.299034 11.696573 11.896515 42.587523 19.294347 72.97862 23.693059 93.372645 3.798887 17.694816 5.298448 27.791858 5.498389 31.790686-0.299912 4.798594-7.197891 16.095285-25.992385 28.991506z" /></svg>