<?xml version="1.0" standalone="no"?><!DOCTYPE svg PUBLIC "-//W3C//DTD SVG 1.1//EN" "http://www.w3.org/Graphics/SVG/1.1/DTD/svg11.dtd"><svg class="icon" width="200px" height="200.00px" viewBox="0 0 1024 1024" version="1.1" xmlns="http://www.w3.org/2000/svg"><path fill="#333333" d="M848 608c-26.5 0-48 21.5-48 48s21.5 48 48 48 48-21.5 48-48-21.5-48-48-48zM720 608c-26.5 0-48 21.5-48 48s21.5 48 48 48 48-21.5 48-48-21.5-48-48-48zM592 624c-17.7 0-32 14.3-32 32s14.3 32 32 32 32-14.3 32-32-14.3-32-32-32zM128 624h352v64H128zM1008 512H480c-17.7 0-32-14.3-32-32V192c0-17.7-14.3-32-32-32s-32 14.3-32 32v288c0 17.7-14.3 32-32 32s-32-14.3-32-32V192c0-17.7-14.3-32-32-32s-32 14.3-32 32v288c0 17.7-14.3 32-32 32s-32-14.3-32-32V192c0-17.7-14.3-32-32-32s-32 14.3-32 32v288c0 17.7-14.3 32-32 32H16c-8.8 0-16 7.2-16 16v256c0 8.8 7.2 16 16 16h992c8.8 0 16-7.2 16-16V528c0-8.8-7.2-16-16-16z m-48 220c0 2.2-1.8 4-4 4H68c-2.2 0-4-1.8-4-4V580c0-2.2 1.8-4 4-4h888c2.2 0 4 1.8 4 4v152z" /></svg>