<?xml version="1.0" standalone="no"?><!DOCTYPE svg PUBLIC "-//W3C//DTD SVG 1.1//EN" "http://www.w3.org/Graphics/SVG/1.1/DTD/svg11.dtd"><svg class="icon" width="200px" height="200.00px" viewBox="0 0 1024 1024" version="1.1" xmlns="http://www.w3.org/2000/svg"><path fill="#333333" d="M960 287.8H64c-35.3 0-64-28.7-64-64s28.7-64 64-64h896c35.3 0 64 28.7 64 64s-28.7 64-64 64zM960 576H64c-35.3 0-64-28.7-64-64s28.7-64 64-64h896c35.3 0 64 28.7 64 64s-28.7 64-64 64zM960 864.3H64c-35.3 0-64-28.7-64-64s28.7-64 64-64h896c35.3 0 64 28.7 64 64s-28.7 64-64 64z" /></svg>