<?xml version="1.0" standalone="no"?><!DOCTYPE svg PUBLIC "-//W3C//DTD SVG 1.1//EN" "http://www.w3.org/Graphics/SVG/1.1/DTD/svg11.dtd"><svg class="icon" width="200px" height="200.00px" viewBox="0 0 1024 1024" version="1.1" xmlns="http://www.w3.org/2000/svg"><path fill="#333333" d="M992 255.8H32c-17.7 0-32-14.3-32-32s14.3-32 32-32h960c17.7 0 32 14.3 32 32 0 17.6-14.3 32-32 32zM992 544H32c-17.7 0-32-14.3-32-32s14.3-32 32-32h960c17.7 0 32 14.3 32 32s-14.3 32-32 32zM992 832.3H32c-17.7 0-32-14.3-32-32s14.3-32 32-32h960c17.7 0 32 14.3 32 32 0 17.6-14.3 32-32 32z" /></svg>