<?xml version="1.0" standalone="no"?><!DOCTYPE svg PUBLIC "-//W3C//DTD SVG 1.1//EN" "http://www.w3.org/Graphics/SVG/1.1/DTD/svg11.dtd"><svg class="icon" width="200px" height="200.00px" viewBox="0 0 1024 1024" version="1.1" xmlns="http://www.w3.org/2000/svg"><path fill="#333333" d="M994.869913 706.816824l-197.864741-197.86474c-3.097882-3.097882-8.194398-3.097882-11.29228 0L666.294525 628.37045l-22.584561-22.584561 79.845418-79.845419c43.969942-43.969942 49.266322-111.92349 15.789207-161.68947l12.291597-12.291597c12.491461-12.491461 12.491461-32.777593 0-45.269055l-42.67083-42.770762c-12.491461-12.491461-32.777593-12.491461-45.269055 0l-14.190299 14.1903c-48.5668-26.781692-110.924173-19.586611-152.19596 21.685176l-79.845418 79.845418-22.584562-22.584561 119.418367-119.418367c3.097882-3.097882 3.097882-8.194398 0-11.29228l-197.864741-197.864741c-24.982922-24.982922-65.455255-24.982922-90.438177 0L21.835074 232.7409c-24.982922 24.982922-24.982922 65.455255 0 90.438177l197.864741 197.864741c3.097882 3.097882 8.194398 3.097882 11.29228 0l118.718845-118.718845 22.584561 22.584561-168.884551 168.884552c-12.491461 12.491461-12.491461 32.777593 0 45.269054l67.853615 67.853616-37.274519 37.274519C197.415048 719.00849 154.84415 706.517029 112.273251 706.517029c-15.98907 0-31.97814 1.79877-47.667415 5.29638-9.693374 2.198497-19.186884 4.996584-28.580463 8.494193-3.997267 1.498975-7.994535 3.197814-11.991802 4.896653C9.74334 731.599883 0.649556 745.790182 0.749488 761.479457v13.990437l0.099931 43.570215c1.299112-1.399044 2.598224-2.798087 3.997268-4.197131 1.898702-1.898702 3.897336-3.797404 5.895969-5.596174 6.995218-6.295696 17.687909-6.095833 24.383332 0.59959l43.870011 43.870011c12.491461 12.491461 12.491461 32.777593 0 45.269054l-13.990436 13.990436-19.886406 19.886406c-7.195081 7.195081-10.292964 16.988387-9.093784 26.481897 0.799453 6.895286 3.897336 13.490778 9.093784 18.787158 5.596174 5.596174 12.791256 8.694057 20.086269 9.293646 0.799453 0.099932 1.698839 0.099932 2.498292 0.099932 8.194398 0 16.388797-3.097882 22.584561-9.393578l33.876842-33.876842c12.491461-12.491461 32.777593-12.491461 45.269055 0l15.489411 15.489411 39.67288 39.67288c6.695423 6.695423 6.895286 17.388114 0.699522 24.383332l23.783742 0.099931 28.380599 0.099932c16.288865 0 30.978823-9.893237 36.674929-25.082854 0-0.099932 0.099932-0.199863 0.099932-0.299795 4.696789-12.591393 8.29433-25.48258 10.492827-38.573631 10.492827-59.559286-4.097199-122.716112-43.870011-172.382161l35.575681-35.57568 67.853616 67.853615c12.491461 12.491461 32.777593 12.491461 45.269054 0l168.884552-168.884551 22.584561 22.584561-118.718845 118.718845c-3.097882 3.097882-3.097882 8.194398 0 11.29228l197.864741 197.864741c24.982922 24.982922 65.455255 24.982922 90.438177 0l204.260369-204.260369c24.982922-24.982922 24.982922-65.455255 0-90.438177zM146.949546 831.231775l-58.859764-58.859764c7.894603-1.299112 15.98907-1.898702 24.183469-1.898702 26.881624 0 52.663999 6.895286 75.448424 19.986338l-40.772129 40.772128z m115.321167 115.321167L192.118669 876.400898l43.170489-43.170489c18.787157 25.782375 28.880258 56.661267 28.880257 89.139065 0 8.194398-0.59959 16.288865-1.898702 24.183468zM881.747243 684.232263l-79.845418 79.845418-22.584561-22.584561 79.845418-79.845418 22.584561 22.584561z m-90.438177-90.438177l22.584561 22.584561-79.845418 79.845419-22.584561-22.584562 79.845418-79.845418zM339.118181 141.503269l22.584561 22.584562-79.845418 79.845418-22.584561-22.584562 79.845418-79.845418z m-79.145896-56.461403c6.195765-6.195765 16.388797-6.195765 22.584561 0l11.292281 11.292281-79.845419 79.845418-22.584561-22.584562 68.553138-68.553137zM78.396409 289.202303c-6.295696-6.295696-6.295696-16.388797 0-22.584561l67.853615-67.853616 22.584562 22.584561-79.145897 79.145897-11.29228-11.292281z m56.461403 56.561335l79.145896-79.145896 22.584562 22.584561-79.145897 79.145896-22.584561-22.584561z m90.438177 90.438177l-22.584561-22.584561 79.145896-79.145897 22.584561 22.584562-79.145896 79.145896z m124.414951-124.315019L327.126378 289.202303l79.845419-79.845418 22.584561 22.584561-79.845418 79.94535zM598.44091 560.616766l-185.872939 185.872938c-3.097882 3.097882-8.194398 3.097882-11.292281 0L276.960671 622.074754c-3.097882-3.097882-3.097882-8.194398 0-11.292281l265.718357-265.718357c24.982922-24.982922 65.455255-24.982922 90.438177 0l45.269054 45.269055c24.982922 24.982922 24.982922 65.455255 0 90.438177l-79.945349 79.845418z m-11.292281 237.337757l79.145896-79.145896L688.879087 741.49312l-79.145897 79.145896-22.584561-22.684493z m90.438177 90.538109l-22.584561-22.584561 79.145896-79.145897 22.584561 22.584562-79.145896 79.145896z m79.145896 56.461403c-6.195765 6.195765-16.388797 6.195765-22.584561 0L722.85586 933.661755l79.145897-79.145897 22.584561 22.584562-67.853616 67.853615z m181.575876-181.575876L869.755441 831.931297l-22.584562-22.584561 79.845418-79.845419 11.292281 11.292281c6.195765 6.195765 6.195765 16.388797 0 22.584561z" /></svg>