<?xml version="1.0" standalone="no"?><!DOCTYPE svg PUBLIC "-//W3C//DTD SVG 1.1//EN" "http://www.w3.org/Graphics/SVG/1.1/DTD/svg11.dtd"><svg class="icon" width="200px" height="200.00px" viewBox="0 0 1024 1024" version="1.1" xmlns="http://www.w3.org/2000/svg"><path fill="#333333" d="M976 0H48c-8.8 0-16 7.2-16 16v880c0 70.7 57.3 128 128 128h816c8.8 0 16-7.2 16-16V16c0-8.8-7.2-16-16-16zM256 80c0-8.8 7.2-16 16-16h480c8.8 0 16 7.2 16 16v296c0 4.4-3.6 8-8 8H264c-4.4 0-8-3.6-8-8V80z m480 880H448V832h-64v128h-96V704h448v256z" /></svg>