<?xml version="1.0" standalone="no"?><!DOCTYPE svg PUBLIC "-//W3C//DTD SVG 1.1//EN" "http://www.w3.org/Graphics/SVG/1.1/DTD/svg11.dtd"><svg class="icon" width="200px" height="200.00px" viewBox="0 0 1024 1024" version="1.1" xmlns="http://www.w3.org/2000/svg"><path fill="#333333" d="M752 960H272c-8.8 0-16-7.2-16-16V96c0-17.7 14.3-32 32-32h448c17.7 0 32 14.3 32 32v848c0 8.8-7.2 16-16 16zM256 0c-35.3 0-64 28.7-64 64v928c0 17.7 14.3 32 32 32h576c17.7 0 32-14.3 32-32V64c0-35.3-28.7-64-64-64H256zM688 192H336.2c-8.8 0-16-7.2-16-16v-32c0-8.8 7.2-16 16-16H688c8.8 0 16 7.2 16 16v32c0 8.8-7.2 16-16 16zM687.6 320H335.8c-8.8 0-16-7.2-16-16v-32c0-8.8 7.2-16 16-16h351.8c8.8 0 16 7.2 16 16v32c0 8.8-7.2 16-16 16zM639.6 452v56c0 2.2-1.8 4-4 4H387.8c-2.2 0-4-1.8-4-4v-56c0-2.2 1.8-4 4-4h247.8c2.2 0 4 1.8 4 4z m-303.8-68c-8.8 0-16 7.2-16 16v160c0 8.8 7.2 16 16 16h351.8c8.8 0 16-7.2 16-16V400c0-8.8-7.2-16-16-16H335.8zM513.1 845.2H511c-25.7 0-46.6-20.9-46.6-46.6 0-25.7 20.9-46.6 46.6-46.6h2.1c25.7 0 46.6 20.9 46.6 46.6-0.1 25.7-20.9 46.6-46.6 46.6zM512.7 704h-1.4c-17.7 0-32-14.3-32-32s14.3-32 32-32h1.4c17.7 0 32 14.3 32 32s-14.3 32-32 32z" /></svg>