<?xml version="1.0" standalone="no"?><!DOCTYPE svg PUBLIC "-//W3C//DTD SVG 1.1//EN" "http://www.w3.org/Graphics/SVG/1.1/DTD/svg11.dtd"><svg class="icon" width="200px" height="200.00px" viewBox="0 0 1024 1024" version="1.1" xmlns="http://www.w3.org/2000/svg"><path fill="#333333" d="M0 256v120c0 4.4 3.6 8 8 8h1008c4.4 0 8-3.6 8-8V256c0-35.3-28.7-64-64-64H64c-35.3 0-64 28.7-64 64z m64 56v-40c0-8.8 7.2-16 16-16h408c4.4 0 8 3.6 8 8v48c0 4.4-3.6 8-8 8H72c-4.4 0-8-3.6-8-8z m888 8h-90c-4.4 0-8-3.6-8-8v-48c0-4.4 3.6-8 8-8h82c8.8 0 16 7.2 16 16v40c0 4.4-3.6 8-8 8zM0 440v176c0 4.4 3.6 8 8 8h1008c4.4 0 8-3.6 8-8V440c0-4.4-3.6-8-8-8H8c-4.4 0-8 3.6-8 8z m64 112v-48c0-4.4 3.6-8 8-8h416c4.4 0 8 3.6 8 8v48c0 4.4-3.6 8-8 8H72c-4.4 0-8-3.6-8-8z m888 8h-90c-4.4 0-8-3.6-8-8v-48c0-4.4 3.6-8 8-8h90c4.4 0 8 3.6 8 8v48c0 4.4-3.6 8-8 8zM0 680v120c0 35.3 28.7 64 64 64h896c35.3 0 64-28.7 64-64V680c0-4.4-3.6-8-8-8H8c-4.4 0-8 3.6-8 8z m64 104v-40c0-4.4 3.6-8 8-8h416c4.4 0 8 3.6 8 8v48c0 4.4-3.6 8-8 8H80c-8.8 0-16-7.2-16-16z m880 16h-82c-4.4 0-8-3.6-8-8v-48c0-4.4 3.6-8 8-8h90c4.4 0 8 3.6 8 8v40c0 8.8-7.2 16-16 16z" /></svg>