<?xml version="1.0" standalone="no"?><!DOCTYPE svg PUBLIC "-//W3C//DTD SVG 1.1//EN" "http://www.w3.org/Graphics/SVG/1.1/DTD/svg11.dtd"><svg class="icon" width="200px" height="200.00px" viewBox="0 0 1024 1024" version="1.1" xmlns="http://www.w3.org/2000/svg"><path fill="#333333" d="M0 728v136c0 35.3 28.7 64 64 64h896c35.3 0 64-28.7 64-64V728c0-4.4-3.6-8-8-8H8c-4.4 0-8 3.6-8 8z m774 96c0 4.4-3.6 8-8 8H424c-4.4 0-8-3.6-8-8v-48c0-4.4 3.6-8 8-8h342c4.4 0 8 3.6 8 8v48z m122 0c0 4.4-3.6 8-8 8h-48c-4.4 0-8-3.6-8-8v-48c0-4.4 3.6-8 8-8h48c4.4 0 8 3.6 8 8v48zM0 536v144c0 4.4 3.6 8 8 8h1008c4.4 0 8-3.6 8-8V536c0-4.4-3.6-8-8-8H8c-4.4 0-8 3.6-8 8z m774 96c0 4.4-3.6 8-8 8H424c-4.4 0-8-3.6-8-8v-48c0-4.4 3.6-8 8-8h342c4.4 0 8 3.6 8 8v48z m122 0c0 4.4-3.6 8-8 8h-48c-4.4 0-8-3.6-8-8v-48c0-4.4 3.6-8 8-8h48c4.4 0 8 3.6 8 8v48zM0 344v144c0 4.4 3.6 8 8 8h1008c4.4 0 8-3.6 8-8V344c0-4.4-3.6-8-8-8H8c-4.4 0-8 3.6-8 8z m774 96c0 4.4-3.6 8-8 8H424c-4.4 0-8-3.6-8-8v-48c0-4.4 3.6-8 8-8h342c4.4 0 8 3.6 8 8v48z m122 0c0 4.4-3.6 8-8 8h-48c-4.4 0-8-3.6-8-8v-48c0-4.4 3.6-8 8-8h48c4.4 0 8 3.6 8 8v48zM960 96H64c-35.3 0-64 28.7-64 64v136c0 4.4 3.6 8 8 8h1008c4.4 0 8-3.6 8-8V160c0-35.3-28.7-64-64-64zM774 248c0 4.4-3.6 8-8 8H424c-4.4 0-8-3.6-8-8v-48c0-4.4 3.6-8 8-8h342c4.4 0 8 3.6 8 8v48z m122 0c0 4.4-3.6 8-8 8h-48c-4.4 0-8-3.6-8-8v-48c0-4.4 3.6-8 8-8h48c4.4 0 8 3.6 8 8v48z" /></svg>