<?xml version="1.0" standalone="no"?><!DOCTYPE svg PUBLIC "-//W3C//DTD SVG 1.1//EN" "http://www.w3.org/Graphics/SVG/1.1/DTD/svg11.dtd"><svg class="icon" width="200px" height="199.22px" viewBox="0 0 1028 1024" version="1.1" xmlns="http://www.w3.org/2000/svg"><path fill="#333333" d="M1016.1 418.5c-9.9-34.5-38.1-60.6-73.3-67.8-72.3-14.9-97.9-59.3-74.7-129.3 11.3-34.1 2.8-71.5-22.1-97.3C804.7 81.2 742.1 45 684.2 30.6c-34.8-8.7-71.5 2.7-95.4 29.5-49 55.2-100.3 55.2-149.3 0-23.8-26.8-60.5-38.2-95.4-29.5-57.8 14.4-120.4 50.6-161.8 93.5-24.9 25.8-33.4 63.3-22.1 97.3 23.3 70.1-2.3 114.5-74.7 129.3C50.4 358 22.2 384 12.3 418.5c-16.4 57.3-16.4 129.6 0 187C22.2 640 50.4 666 85.5 673.3c72.3 14.9 97.9 59.3 74.7 129.3-11.3 34-2.8 71.5 22.1 97.3 41.4 42.9 104.1 79 161.9 93.5 34.8 8.7 71.5-2.7 95.4-29.5 49-55.2 100.3-55.2 149.3 0 23.8 26.8 60.5 38.2 95.4 29.5 57.8-14.4 120.5-50.6 161.9-93.5 24.9-25.8 33.4-63.3 22.1-97.3-23.3-70.1 2.3-114.5 74.7-129.3 35.2-7.2 63.4-33.3 73.3-67.8 16.3-57.3 16.3-129.7-0.2-187zM514.2 736c-123.7 0-224-100.3-224-224s100.3-224 224-224 224 100.3 224 224-100.3 224-224 224zM674.2 512c0 42.7-16.6 82.9-46.9 113.1C597.1 655.4 556.9 672 514.2 672s-82.9-16.6-113.1-46.9C370.8 594.9 354.2 554.7 354.2 512s16.6-82.9 46.9-113.1C431.3 368.6 471.5 352 514.2 352s82.9 16.6 113.1 46.9C657.6 429.1 674.2 469.3 674.2 512z" /></svg>