<?xml version="1.0" standalone="no"?><!DOCTYPE svg PUBLIC "-//W3C//DTD SVG 1.1//EN" "http://www.w3.org/Graphics/SVG/1.1/DTD/svg11.dtd"><svg class="icon" width="200px" height="200.00px" viewBox="0 0 1024 1024" version="1.1" xmlns="http://www.w3.org/2000/svg"><path fill="#333333" d="M960 416v480c0 70.7-57.3 128-128 128H128C57.3 1024 0 966.7 0 896V224C0 153.3 57.3 96 128 96h224c17.7 0 32 14.3 32 32s-14.3 32-32 32H128c-35.3 0-64 28.7-64 64v672c0 35.3 28.7 64 64 64h704c35.3 0 64-28.7 64-64V416c0-17.7 14.3-32 32-32s32 14.3 32 32zM990 256l-0.6 0.6-0.7-0.6zM1017.6 238c-7.2 11.2-19.7 18-33 18H704c-56.2 0-110.7 11-161.9 32.7-49.5 20.9-94 51-132.3 89.2-38.2 38.2-68.2 82.7-89.2 132.3-17.8 42.1-28.4 86.4-31.6 132.1-1.1 16.7-15 29.7-31.9 29.7-18.6 0-33.2-15.8-31.9-34.3C242.8 388.6 450.4 192 704 192h220.7L800.9 68.2c-12.5-12.5-12.5-32.8 0-45.3s32.8-12.5 45.3 0L1012.3 189c13 13.1 15.2 33.4 5.3 49z" /></svg>