<?xml version="1.0" standalone="no"?><!DOCTYPE svg PUBLIC "-//W3C//DTD SVG 1.1//EN" "http://www.w3.org/Graphics/SVG/1.1/DTD/svg11.dtd"><svg class="icon" width="200px" height="200.00px" viewBox="0 0 1024 1024" version="1.1" xmlns="http://www.w3.org/2000/svg"><path fill="#333333" d="M927.909384 688.032809v191.981252c0 26.497412-21.497901 47.995313-47.995313 47.995313H143.985939c-26.497412 0-47.995313-21.497901-47.995313-47.995313V240.076555c0-26.497412 21.497901-47.995313 47.995313-47.995313h191.981252c26.497412 0 47.995313-21.497901 47.995313-47.995313s-21.497901-47.995313-47.995313-47.995313H143.985939C64.493702 96.090616 0 160.584318 0 240.076555v639.937506c0 79.492237 64.493702 143.985939 143.985939 143.985939h735.928132c79.492237 0 143.985939-64.493702 143.985939-143.985939V688.032809c0-26.497412-21.497901-47.995313-47.995313-47.995313s-47.995313 21.497901-47.995313 47.995313zM1008.801484 257.974807c-9.399082 9.399082-21.697881 14.098623-33.89669 14.098623H703.931257c-114.88878 0-218.878625 46.59545-294.171273 121.788107-65.793575 65.793575-109.589298 153.585001-119.588321 251.275461-2.499756 24.397617-23.197735 42.895811-47.695342 42.895811-28.497217 0-50.695049-24.697588-47.695343-53.094815 5.299482-51.394981 18.198223-100.490187 37.496339-146.185724C309.96973 304.970218 491.851968 176.082804 703.931257 176.082804h155.084855L764.9253 81.991993c-18.798164-18.698174-18.798164-49.095206 0-67.89337 18.698174-18.798164 49.095206-18.798164 67.89337 0l175.982814 175.982814c18.798164 18.798164 18.798164 49.195196 0 67.89337z" /></svg>