<?xml version="1.0" standalone="no"?><!DOCTYPE svg PUBLIC "-//W3C//DTD SVG 1.1//EN" "http://www.w3.org/Graphics/SVG/1.1/DTD/svg11.dtd"><svg class="icon" width="200px" height="200.00px" viewBox="0 0 1024 1024" version="1.1" xmlns="http://www.w3.org/2000/svg"><path fill="#333333" d="M0 160v704c0 35.3 28.7 64 64 64h896c35.3 0 64-28.7 64-64V160c0-35.3-28.7-64-64-64H64c-35.3 0-64 28.7-64 64z m912 176H736c-8.8 0-16-7.2-16-16V208c0-8.8 7.2-16 16-16h176c8.8 0 16 7.2 16 16v112c0 8.8-7.2 16-16 16zM400 576V448c0-8.8 7.2-16 16-16h192c8.8 0 16 7.2 16 16v128c0 8.8-7.2 16-16 16H416c-8.8 0-16-7.2-16-16z m224 128v112c0 8.8-7.2 16-16 16H416c-8.8 0-16-7.2-16-16V704c0-8.8 7.2-16 16-16h192c8.8 0 16 7.2 16 16zM288 592H112c-8.8 0-16-7.2-16-16V448c0-8.8 7.2-16 16-16h176c8.8 0 16 7.2 16 16v128c0 8.8-7.2 16-16 16z m112-272V208c0-8.8 7.2-16 16-16h192c8.8 0 16 7.2 16 16v112c0 8.8-7.2 16-16 16H416c-8.8 0-16-7.2-16-16z m336 112h176c8.8 0 16 7.2 16 16v128c0 8.8-7.2 16-16 16H736c-8.8 0-16-7.2-16-16V448c0-8.8 7.2-16 16-16zM304 208v112c0 8.8-7.2 16-16 16H112c-8.8 0-16-7.2-16-16V208c0-8.8 7.2-16 16-16h176c8.8 0 16 7.2 16 16zM112 688h176c8.8 0 16 7.2 16 16v112c0 8.8-7.2 16-16 16H112c-8.8 0-16-7.2-16-16V704c0-8.8 7.2-16 16-16z m608 128V704c0-8.8 7.2-16 16-16h176c8.8 0 16 7.2 16 16v112c0 8.8-7.2 16-16 16H736c-8.8 0-16-7.2-16-16z" /></svg>