<?xml version="1.0" standalone="no"?><!DOCTYPE svg PUBLIC "-//W3C//DTD SVG 1.1//EN" "http://www.w3.org/Graphics/SVG/1.1/DTD/svg11.dtd"><svg class="icon" width="200px" height="200.00px" viewBox="0 0 1024 1024" version="1.1" xmlns="http://www.w3.org/2000/svg"><path fill="#333333" d="M988.31484 959.7l-82.4-67.1c-21.7-19.2-50-29.8-80-29.8h-0.9c-30.7 0.2-59.6 11.5-81.3 31.7L695.91484 939c-7.1 6.6-16.5 10.2-26.5 10.3h-0.2c-10 0-19.4-3.6-26.4-10.1l-49.5-45.5c-21.8-20-50.6-31-81.3-31.1h-0.2c-30.6 0-59.4 10.9-81.2 30.8l-51.2 46.7c-14.5 13.2-38.1 13.2-52.7 0l-51.2-46.7c-21.8-19.9-50.6-30.8-81.2-30.8h-0.3c-30.3 0.1-58.9 10.8-80.5 30.4l-80.6 66.9c-16.1 13.4-17.4 36.2-3 51.1 14.4 14.9 39.2 16.1 55.2 2.8l81.3-67.4c0.5-0.4 1-0.8 1.4-1.2 14.5-13.3 38.2-13.4 52.8-0.1l51.2 46.7c21.8 19.9 50.6 30.8 81.2 30.8s59.4-10.9 81.2-30.8l51.2-46.7c14.6-13.3 38.2-13.2 52.8 0.1l49.5 45.5c21.8 20.1 50.8 31.1 81.5 31.1h0.5c30.9-0.1 60-11.4 81.7-31.7l47.7-44.5c14.5-13.5 38.2-13.7 52.9-0.4 0.5 0.4 1 0.9 1.5 1.3l83.1 67.6c7.4 6 16.6 9 25.8 9 10.9 0 21.7-4.2 29.4-12.3 14.3-15 12.7-37.9-3.5-51.1zM1002.41484 438.3l-138.3-55.5V220.6c0-14.9-9.9-28.3-25-33.8L592.91484 98.4V74.6C592.91484 34 557.31484 1 513.31484 1c-43.9 0-79.6 33-79.6 73.7V98l-253.9 91.2c-15.1 5.4-25 18.8-25 33.8v161.9L21.61484 438.3c-20.6 8.3-28 31.8-15.5 49l206.1 306.3c4.3 5.9 11 10.1 18.6 11.5 36.7 6.6 70.5 22.9 97.7 47.7l3.8 3.4c11.5 10.5 29.9 10.5 41.4 0l3.8-3.4c36-32.8 83.7-50.9 134.3-50.9h0.4c50.7 0.1 98.5 18.4 134.5 51.4l1.5 1.4c11.6 10.6 30.3 10.6 41.7-0.2 28.3-26.4 64-43.5 102.8-49.8 7.9-1.3 14.9-5.3 19.3-11.5l205.9-306c12.5-17.1 5.1-40.6-15.5-48.9zM540.01484 252.9c-17.9-7.2-38.1-7.2-56 0L233.11484 353.5V247.7l279.7-100.4 273 98.1v106.1L540.01484 252.9z" /></svg>