<?xml version="1.0" standalone="no"?><!DOCTYPE svg PUBLIC "-//W3C//DTD SVG 1.1//EN" "http://www.w3.org/Graphics/SVG/1.1/DTD/svg11.dtd"><svg class="icon" width="200px" height="200.00px" viewBox="0 0 1024 1024" version="1.1" xmlns="http://www.w3.org/2000/svg"><path fill="#333333" d="M166.5 809.3c40.5 11.9 82.3 18 124.8 18.2 0 0.3-0.1 0.5-0.1 0.8-4.7 29.4-9.1 57.1-14.6 84.9-3.2 16.1-9.7 27.6-20 35.4-9.4 7-22.2 10.9-36.2 10.9-21 0-41.6-8.5-53.6-22.2-9.9-11.3-13.6-25.4-11.3-43.2 3.3-25.9 6.8-52.4 10.2-78 0.2-2.3 0.5-4.5 0.8-6.8m-26.1-74.4c-3.6 0-7.2 0.6-10.7 2.1-11.9 4.9-20 13.8-21.3 23.2-5.5 41.9-11.2 83.8-16.5 125.7-11.1 86.7 59.4 137.5 128.4 137.5 53.3 0 105.7-30.3 119-97.9 8-40.6 13.9-81.7 20.7-122.6 0.9-5.4 1-11 0.4-16.2-1.1-8.1-5.4-14.8-12.5-19.7-5.6-3.8-11.6-5.1-18.2-5.1-1.7 0-3.5 0.1-5.3 0.3-10.5 0.9-21 1.3-31.5 1.3-46.8 0-93.3-8.6-137.2-25.3-5.2-2.1-10.2-3.3-15.3-3.3zM373.9 111.4c18.4 0 35 8.2 51 25.2 9.5 10.2 17.9 26.3 24.3 46.8 6.8 21.9 11.2 48.3 12.6 76.3 1.3 27.2-0.2 55.3-4.3 81.2-3.8 23.9-9.8 45.2-17 60.2-17.4 36.4-38.2 65.8-58.3 94.2-29.8 42.2-60.5 85.6-72.8 143.6-0.8 4-4.5 6.7-8.5 6.4-30.6-2.6-66.8-7.2-97.9-12.2-4.5-0.7-7.5-5.1-6.5-9.6 9.1-41.5 15.5-89.4 5.8-152.1-2.5-34.2-1.9-68 1.6-100.3 3.4-30.9 9.4-60.6 18.1-88.5 15.6-50.4 39.3-93.7 68.4-125.1 27.1-29.3 57.5-46 83.5-46.1m-0.1-64c-121.7 0-254.6 176.9-235.2 431.3 11.8 73.2-2.3 122.3-14.4 171.7-4.2 17.1 7.4 34.1 25.8 38 49 10.3 136.1 22 185.5 22.8h0.6c17.2 0 31.1-12.5 31.9-28.7 5-98.3 78.5-145.9 130.2-253.9 40.2-84.2 41.8-262.9-26.7-335.9-29.1-30.9-62.9-45.3-97.7-45.3zM563.2 750.8c37.9 18.3 78.6 31.3 120.1 38.4-0.7 2.2-1.4 4.3-2.2 6.5-8.2 24.5-16.6 49.8-25 74.5-4.6 13.5-11.4 23.1-21 29.5-10.9 7.3-23.3 8.8-31.8 8.8-22.6 0-45.1-10.3-57.3-26.2-10-13-12.3-28.7-7.2-48 7.3-27.4 15.5-54.2 24.1-82.7 0.2-0.3 0.3-0.5 0.3-0.8m-20.3-79.5c-1.3 0-2.7 0.1-4 0.3-8.5 1.3-15.3 5.4-19.9 12.2-2.9 4.4-5.2 9.4-6.8 14.7-11.9 39.7-24.6 79.2-35.2 119.3-24.8 93.4 51.8 154.7 126.4 154.7 47.4 0 94-24.7 113.4-81.7 13.6-40 26.8-80.1 40.3-120.2 3-9.1-0.4-20.6-8.9-30.2-6.1-6.9-14.4-9.6-23.8-10.3-57.3-5.1-112.7-23-162.1-52.4-6.4-3.8-12.6-6.4-19.4-6.4zM777.1 65.2c12.1 0 23 3.3 33.3 10.1 11.6 7.7 22.5 19.9 31.4 35.4 10.1 17.6 17.5 38.7 22.2 62.8 5.1 26.5 6.6 55.4 4.3 85.9-5.1 68.9-28.9 141.6-68.9 210.5-36.2 52.1-51.5 97.9-61.5 139.2-1.1 4.5-5.7 7.1-10.1 5.8-30.2-9.1-64.7-20.8-93.3-31.9-3.8-1.5-5.8-5.5-4.8-9.4 14.4-57.5 5.8-109.9-2.4-161-5.6-34.4-11.4-69.9-11-110.2 0.1-16.6 4.1-38.4 11.2-61.5 7.7-25.1 18.6-51 31.8-74.9 13.5-24.6 29-46.4 44.8-63.1 14.7-15.6 29.4-26.4 42.4-31.4 10.7-4.2 21.1-6.3 30.6-6.3m0-64c-17 0-35 3.4-53.6 10.4-93.6 35.6-170.6 196.9-171.4 290.1-1 119.7 44.2 194.7 5.6 285.2-6.5 15.1 0.9 32.7 16.7 40.1 44.7 20.9 128.1 48.5 176.7 60.8 2.9 0.7 5.9 1.1 8.8 1.1 14.9 0 28-9.5 31.1-23.9 10.8-49.8 19.7-100.1 62.4-160.7C1002 250.8 924 1.2 777.1 1.2z" /></svg>