<?xml version="1.0" standalone="no"?><!DOCTYPE svg PUBLIC "-//W3C//DTD SVG 1.1//EN" "http://www.w3.org/Graphics/SVG/1.1/DTD/svg11.dtd"><svg class="icon" width="200px" height="200.00px" viewBox="0 0 1024 1024" version="1.1" xmlns="http://www.w3.org/2000/svg"><path fill="#333333" d="M1021.9 372.8c0-0.2 0.1-0.4 0.1-0.6 0.1-0.3 0.1-0.6 0.2-0.9l-0.3 1.5zM910.2 76.7c-0.7-1.1-1.5-2.2-2.3-3.3 0.8 1.1 1.5 2.2 2.3 3.3l7.3 11-7.3-11z m-4.8-6.4c0.9 1 1.7 2 2.5 3.1-0.8-1-1.7-2.1-2.5-3.1zM1.8 371.3c0 0.3 0.1 0.6 0.2 0.9 0 0.2 0.1 0.4 0.1 0.6l-0.3-1.5zM1022.6 268.7c-0.1-0.6-0.2-1.2-0.3-1.7-0.2-1.2-0.4-2.3-0.6-3.4-0.3-1.7-0.7-3.4-1.1-5.1-0.4-1.7-0.8-3.4-1.3-5.1-1.3-4.5-2.7-8.9-4.4-13.2-1.3-3.2-2.7-6.4-4.2-9.5-0.5-1.1-1.1-2.1-1.6-3.2l-1.5-2.7c-0.8-1.3-1.5-2.7-2.3-4-0.8-1.3-1.6-2.6-2.5-3.9l-21.3-32.3-50-75.7-14-21.2-7.3-11c-0.7-1.1-1.5-2.2-2.3-3.3-0.8-1.1-1.6-2.1-2.5-3.1-1.7-2-3.6-3.9-5.5-5.7-0.4-0.3-0.7-0.7-1.1-1-0.7-0.6-1.5-1.3-2.3-1.9l-1.2-0.9c-11-8.3-24.4-12.9-38.5-12.9H167.3c-16.8 0-32.7 6.6-44.5 18l-1.4 1.4c-2.8 2.8-5.3 5.9-7.5 9.3L21.2 216.8A128.27 128.27 0 0 0 0 287.4v67.1c0 3 0.2 6.1 0.5 9 0 0.5 0.1 1 0.2 1.6 0 0.2 0.1 0.5 0.1 0.7 0.1 0.7 0.2 1.4 0.3 2v0.1l0.3 1.5c0.1 0.6 0.2 1.3 0.4 1.9l0.3 1.5c25.4 114.3 40.5 230.6 40.5 347.7v256.3h938.9V720.5c0-117.1 15.1-233.4 40.5-347.7l0.3-1.5c0.1-0.6 0.3-1.3 0.4-1.9l0.3-1.5v-0.1c0.1-0.7 0.2-1.4 0.3-2 0-0.3 0.1-0.5 0.1-0.7 0.1-0.5 0.1-1 0.2-1.6 0.3-3 0.5-6 0.5-9v-67.1c-0.1-6.3-0.6-12.5-1.5-18.7zM473 853.5H148.8V635.7H473v217.8zM800 912h-80V720c0-8.8 7.2-16 16-16h48c8.8 0 16 7.2 16 16v192z m117.4-416.1c-37.8-1-72.1-14.7-98.2-36.7-28.7 23.9-65 37-102.4 36.7-39.4 0-75.3-13.9-102.4-36.7-28.8 24-65 37-102.5 36.7-39.4 0-75.3-13.9-102.4-36.7-28.7 23.9-65 36.9-102.4 36.7-39.4 0-75.3-13.9-102.4-36.7-27.7 23-62.3 36-98.2 36.7v-50.3h0.2c0.7 0 1.4 0 2-0.1h0.7c0.5 0 1-0.1 1.5-0.1 0.4 0 0.7 0 1.1-0.1 0.6-0.1 1.3-0.1 1.9-0.2h0.3c1.6-0.2 3.1-0.4 4.6-0.6 0.3 0 0.5-0.1 0.8-0.1 0.6-0.1 1.1-0.2 1.7-0.3 0.1 0 0.3 0 0.5-0.1 0.7-0.1 1.5-0.3 2.2-0.4h0.2c0.7-0.1 1.3-0.3 2-0.4 0.2 0 0.4-0.1 0.6-0.1 1.5-0.3 3-0.7 4.5-1.1l2.4-0.6c0.8-0.2 1.5-0.5 2.3-0.7 0.8-0.2 1.5-0.5 2.3-0.7 0.8-0.3 1.5-0.5 2.3-0.8 0.8-0.3 1.5-0.5 2.2-0.8 0.8-0.3 1.5-0.6 2.2-0.9 0.7-0.3 1.5-0.6 2.2-0.9 2.2-0.9 4.3-2 6.4-3 0.7-0.4 1.4-0.7 2.1-1.1 4.4-2.4 8.6-5.1 12.5-8 0.4-0.3 0.8-0.6 1.3-1l1.8-1.5c0.7-0.5 1.3-1 1.9-1.6 0.6-0.5 1.1-1 1.6-1.4 0.6-0.5 1.2-1 1.7-1.6 0.5-0.5 1.1-1 1.6-1.6l1.6-1.6c0.7-0.7 1.4-1.4 2-2.2 0.3-0.3 0.6-0.7 0.9-1 0.2-0.2 0.4-0.4 0.5-0.6 0.3-0.4 0.7-0.8 1-1.1l0.4-0.4c0.4-0.5 0.8-1 1.3-1.6 0.4-0.5 0.9-1.1 1.3-1.7l0.3-0.3c0.4-0.5 0.7-0.9 1-1.4 0.1-0.2 0.3-0.3 0.4-0.5l0.9-1.2c0.2-0.2 0.3-0.4 0.4-0.7 0.3-0.4 0.6-0.9 0.9-1.3 0.3-0.5 0.7-1 1-1.5 0.3-0.5 0.6-0.9 0.9-1.4 0.3-0.5 0.6-1.1 1-1.6 0.2-0.3 0.3-0.6 0.5-0.9 0.2-0.4 0.5-0.8 0.7-1.2 0.3-0.6 0.6-1.1 0.9-1.7 0.2-0.4 0.4-0.9 0.6-1.3 0.1-0.3 0.3-0.5 0.4-0.8 0.2-0.5 0.5-1 0.7-1.5 0.1-0.1 0.1-0.3 0.2-0.4 0.3-0.6 0.6-1.3 0.8-1.9 0.2-0.5 0.4-1 0.6-1.4 0.1-0.4 0.3-0.7 0.4-1.1 0.2-0.6 0.5-1.2 0.7-1.8 0.2-0.6 0.4-1.3 0.6-1.9v-0.1c0.2-0.7 0.5-1.4 0.7-2.2 0.1-0.5 0.3-0.9 0.4-1.4 0.1-0.4 0.2-0.8 0.3-1.3 0.2-0.6 0.3-1.3 0.5-1.9 0.1-0.6 0.3-1.1 0.4-1.7 0-0.2 0.1-0.3 0.1-0.5 0.1-0.7 0.3-1.5 0.4-2.2 0.1-0.6 0.2-1.2 0.3-1.7 0.1-0.9 0.3-1.9 0.4-2.8 0.1-0.8 0.2-1.5 0.2-2.3 0-0.4 0.1-0.8 0.1-1.3 0-0.4 0.1-0.8 0.1-1.2 0.1-1.5 0.1-3 0.1-4.6 0 50.4 45.9 91.2 102.4 91.2 56.5 0 102.4-40.9 102.4-91.2 0 50.4 45.9 91.2 102.4 91.2 56.6 0 102.4-40.9 102.4-91.2 0 50.4 45.9 91.2 102.5 91.2 56.5 0 102.4-40.9 102.4-91.2 0 1.5 0 3.1 0.1 4.6 0 0.4 0 0.8 0.1 1.2 0 0.4 0 0.9 0.1 1.3 0.1 0.8 0.1 1.5 0.2 2.3 0.1 0.9 0.2 1.9 0.4 2.8 0.1 0.6 0.2 1.2 0.3 1.7 0.1 0.7 0.3 1.5 0.4 2.2 0 0.2 0 0.3 0.1 0.5 0.1 0.6 0.2 1.2 0.4 1.7 0.1 0.6 0.3 1.3 0.5 1.9 0.1 0.4 0.2 0.8 0.3 1.3 0.1 0.5 0.2 0.9 0.4 1.4 0.2 0.7 0.4 1.4 0.7 2.2v0.1c0.2 0.6 0.4 1.3 0.6 1.9 0.2 0.6 0.4 1.2 0.7 1.8 0.1 0.4 0.3 0.7 0.4 1.1 0.2 0.5 0.4 1 0.6 1.4 0.3 0.7 0.5 1.3 0.8 1.9 0.1 0.1 0.1 0.3 0.2 0.4 0.2 0.5 0.4 1 0.7 1.5 0.1 0.3 0.2 0.5 0.4 0.8 0.2 0.4 0.4 0.9 0.6 1.3 0.3 0.6 0.6 1.1 0.9 1.7 0.2 0.4 0.4 0.8 0.7 1.2 0.2 0.3 0.3 0.6 0.5 0.9 0.3 0.5 0.6 1.1 1 1.6 0.3 0.5 0.6 0.9 0.8 1.4 0.3 0.5 0.6 1 1 1.5 0.3 0.4 0.6 0.9 0.9 1.3 0.1 0.2 0.3 0.4 0.4 0.7l0.9 1.2c0.1 0.2 0.2 0.3 0.4 0.5 0.3 0.5 0.7 1 1 1.4l0.3 0.3c0.4 0.6 0.9 1.1 1.3 1.7 0.4 0.5 0.8 1 1.3 1.6 0.1 0.1 0.2 0.3 0.4 0.4 0.3 0.4 0.6 0.8 1 1.1 0.2 0.2 0.3 0.4 0.5 0.6 0.3 0.3 0.6 0.7 0.9 1 0.7 0.7 1.3 1.5 2 2.2 0.5 0.6 1.1 1.1 1.6 1.6l1.6 1.6c0.6 0.5 1.1 1 1.7 1.6 0.5 0.5 1.1 1 1.6 1.4 0.6 0.5 1.3 1.1 1.9 1.6l1.8 1.5c0.4 0.3 0.8 0.6 1.3 1 3.9 3 8.1 5.6 12.5 8 0.7 0.4 1.4 0.7 2.1 1.1 2.1 1.1 4.2 2.1 6.4 3 0.7 0.3 1.5 0.6 2.2 0.9 0.7 0.3 1.5 0.6 2.2 0.9 0.7 0.3 1.5 0.6 2.2 0.8 0.8 0.3 1.5 0.5 2.3 0.8 0.8 0.3 1.5 0.5 2.3 0.7 0.8 0.2 1.5 0.5 2.3 0.7l2.4 0.6c1.5 0.4 3 0.8 4.5 1.1 0.2 0 0.4 0.1 0.6 0.1 0.7 0.1 1.3 0.3 2 0.4h0.2c0.7 0.1 1.5 0.3 2.2 0.4 0.2 0 0.3 0.1 0.5 0.1 0.6 0.1 1.1 0.2 1.7 0.3 0.3 0.1 0.5 0.1 0.8 0.1 1.5 0.2 3.1 0.4 4.6 0.6h0.3c0.6 0.1 1.3 0.1 1.9 0.2 0.4 0 0.7 0.1 1.1 0.1 0.5 0 1 0.1 1.5 0.1h0.7c0.7 0 1.4 0.1 2 0.1h0.2v50.3zM118.9 444.5c-1.5 0.2-3.1 0.4-4.6 0.6 1.5-0.2 3.1-0.4 4.6-0.6zM131.2 442c-1.5 0.4-3 0.8-4.5 1.1 1.5-0.3 3-0.7 4.5-1.1zM897.3 443.1c-1.5-0.3-3-0.7-4.5-1.1 1.5 0.4 3 0.8 4.5 1.1zM909.7 445.1c-1.6-0.2-3.1-0.3-4.6-0.6 1.5 0.2 3.1 0.4 4.6 0.6zM1005.3 220.7c-0.8-1.3-1.6-2.6-2.5-3.9l-21.3-32.3-50-75.7 71.3 107.9c0.8 1.4 1.7 2.7 2.5 4zM1014.9 240.1c-1.3-3.2-2.7-6.4-4.2-9.5 1.6 3.1 3 6.3 4.2 9.5zM1019.4 253.3c-1.3-4.5-2.7-8.9-4.4-13.2 1.7 4.4 3.2 8.8 4.4 13.2zM1021.8 263.6c-0.3-1.7-0.7-3.4-1.1-5.1 0.4 1.6 0.7 3.3 1.1 5.1z" /></svg>