<?xml version="1.0" standalone="no"?><!DOCTYPE svg PUBLIC "-//W3C//DTD SVG 1.1//EN" "http://www.w3.org/Graphics/SVG/1.1/DTD/svg11.dtd"><svg class="icon" width="200px" height="200.00px" viewBox="0 0 1024 1024" version="1.1" xmlns="http://www.w3.org/2000/svg"><path fill="#333333" d="M192.4 180.3L58.8 266.2C22.1 289.8 0 330.3 0 373.9V800c0 35.3 28.7 64 64 64h896c35.3 0 64-28.7 64-64V224c0-35.3-28.7-64-64-64H261.6c-24.6 0-48.6 7.1-69.2 20.3zM944 800H80c-8.8 0-16-7.2-16-16V373.9c0-21.8 11.1-42.1 29.4-53.8L227 234.2c10.3-6.6 22.3-10.2 34.6-10.2H944c8.8 0 16 7.2 16 16v544c0 8.8-7.2 16-16 16zM480 352v320c0 35.3 28.7 64 64 64h256c35.3 0 64-28.7 64-64V352c0-35.3-28.7-64-64-64H544c-35.3 0-64 28.7-64 64z m80 0h44c2.2 0 4 1.8 4 4v56c0 2.2-1.8 4-4 4h-56c-2.2 0-4-1.8-4-4v-44c0-8.8 7.2-16 16-16z m-12 96h56c2.2 0 4 1.8 4 4v120c0 2.2-1.8 4-4 4h-56c-2.2 0-4-1.8-4-4V452c0-2.2 1.8-4 4-4z m-4 208v-44c0-2.2 1.8-4 4-4h56c2.2 0 4 1.8 4 4v56c0 2.2-1.8 4-4 4h-44c-8.8 0-16-7.2-16-16z m156 16h-56c-2.2 0-4-1.8-4-4V356c0-2.2 1.8-4 4-4h56c2.2 0 4 1.8 4 4v312c0 2.2-1.8 4-4 4z m84 0h-44c-2.2 0-4-1.8-4-4v-56c0-2.2 1.8-4 4-4h56c2.2 0 4 1.8 4 4v44c0 8.8-7.2 16-16 16z m12-96h-56c-2.2 0-4-1.8-4-4V452c0-2.2 1.8-4 4-4h56c2.2 0 4 1.8 4 4v120c0 2.2-1.8 4-4 4z m0-160h-56c-2.2 0-4-1.8-4-4v-56c0-2.2 1.8-4 4-4h44c8.8 0 16 7.2 16 16v44c0 2.2-1.8 4-4 4z" /></svg>