<?xml version="1.0" standalone="no"?><!DOCTYPE svg PUBLIC "-//W3C//DTD SVG 1.1//EN" "http://www.w3.org/Graphics/SVG/1.1/DTD/svg11.dtd"><svg class="icon" width="200px" height="200.00px" viewBox="0 0 1024 1024" version="1.1" xmlns="http://www.w3.org/2000/svg"><path fill="#333333" d="M719.8 480H304.2c-49.5 0-80.3-53.9-55.1-96.5l207.8-352C469.3 10.5 490.7 0 512 0s42.7 10.5 55.1 31.5l207.8 351.9c25.2 42.7-5.5 96.6-55.1 96.6zM774.9 640.5l-207.8 352c-12.4 21-33.8 31.5-55.1 31.5s-42.7-10.5-55.1-31.5l-207.8-352c-25.2-42.7 5.6-96.5 55.1-96.5h415.6c49.6 0 80.3 53.9 55.1 96.5z" /></svg>