<?xml version="1.0" standalone="no"?><!DOCTYPE svg PUBLIC "-//W3C//DTD SVG 1.1//EN" "http://www.w3.org/Graphics/SVG/1.1/DTD/svg11.dtd"><svg class="icon" width="200px" height="200.00px" viewBox="0 0 1024 1024" version="1.1" xmlns="http://www.w3.org/2000/svg"><path fill="#333333" d="M444.748513 790.142565c18.672647 18.672647 18.672647 49.028181 0 67.800682l-137.798147 137.798147c-37.445149 37.445149-98.156216 37.445149-135.601366 0l-137.798147-137.798147c-18.672647-18.672647-18.672647-49.028181 0-67.800682 18.672647-18.672647 49.028181-18.672647 67.800683 0l76.687664 76.687664c4.992686 4.992686 13.679961 1.497806 13.679961-5.691662V0h95.859581V860.239883c0 7.089615 8.587421 10.684349 13.679961 5.691663l75.689127-75.689128c18.672647-18.772501 49.028181-18.772501 67.800683-0.099853zM974.572404 543.703559H415.391516c-26.461238 0-47.92979 21.468552-47.92979 47.929791s21.468552 47.92979 47.92979 47.92979h559.180888c26.461238 0 47.92979-21.468552 47.92979-47.92979s-21.468552-47.92979-47.92979-47.929791zM623.087275 64.405656H415.391516c-26.461238 0-47.92979 21.468552-47.92979 47.92979s21.468552 47.92979 47.92979 47.92979h207.695759c26.461238 0 47.92979-21.468552 47.92979-47.92979s-21.468552-47.92979-47.92979-47.92979zM846.759629 383.937591H415.391516c-26.461238 0-47.92979 21.468552-47.92979 47.929791s21.468552 47.92979 47.92979 47.92979h431.368113c26.461238 0 47.92979-21.468552 47.929791-47.92979s-21.468552-47.92979-47.929791-47.929791zM718.946855 224.171624H415.391516c-26.461238 0-47.92979 21.468552-47.92979 47.92979s21.468552 47.92979 47.92979 47.92979h303.555339c26.461238 0 47.92979-21.468552 47.929791-47.92979s-21.468552-47.92979-47.929791-47.92979z" /></svg>