<?xml version="1.0" standalone="no"?><!DOCTYPE svg PUBLIC "-//W3C//DTD SVG 1.1//EN" "http://www.w3.org/Graphics/SVG/1.1/DTD/svg11.dtd"><svg class="icon" width="200px" height="200.00px" viewBox="0 0 1024 1024" version="1.1" xmlns="http://www.w3.org/2000/svg"><path fill="#333333" d="M444.607609 790.391344c18.666732 18.666732 18.666732 49.012648 0 67.779202l-137.754491 137.75449c-37.433285 37.433285-98.125119 37.433285-135.558404 0l-137.75449-137.75449c-18.666732-18.666732-18.666732-49.012648 0-67.779202 18.666732-18.666732 49.012648-18.666732 67.779202 0l76.663368 76.663368c4.991105 4.991105 13.675627 1.497331 13.675627-5.689859V0.49911h95.829211V860.466454c0 7.087369 8.5847 10.680964 13.675627 5.689859l75.665147-75.665147c18.666732-18.766554 49.012648-18.766554 67.779203-0.099822zM974.263641 160.713572H415.259913c-26.452855 0-47.914605-21.46175-47.914606-47.914605s21.46175-47.914605 47.914606-47.914606h559.003728c26.452855 0 47.914605 21.46175 47.914606 47.914606s-21.46175 47.914605-47.914606 47.914605zM622.889869 639.859625H415.259913c-26.452855 0-47.914605-21.46175-47.914606-47.914605s21.46175-47.914605 47.914606-47.914605h207.629956c26.452855 0 47.914605 21.46175 47.914605 47.914605s-21.46175 47.914605-47.914605 47.914605zM846.491361 320.428923H415.259913c-26.452855 0-47.914605-21.46175-47.914606-47.914605s21.46175-47.914605 47.914606-47.914606h431.231448c26.452855 0 47.914605 21.46175 47.914605 47.914606s-21.46175 47.914605-47.914605 47.914605zM718.71908 480.144274H415.259913c-26.452855 0-47.914605-21.46175-47.914606-47.914605s21.46175-47.914605 47.914606-47.914606h303.459167c26.452855 0 47.914605 21.46175 47.914605 47.914606s-21.46175 47.914605-47.914605 47.914605z" /></svg>