<?xml version="1.0" standalone="no"?><!DOCTYPE svg PUBLIC "-//W3C//DTD SVG 1.1//EN" "http://www.w3.org/Graphics/SVG/1.1/DTD/svg11.dtd"><svg class="icon" width="200px" height="200.00px" viewBox="0 0 1024 1024" version="1.1" xmlns="http://www.w3.org/2000/svg"><path fill="#333333" d="M457.154458 787.97677c-12.49329-12.49329-32.782392-12.49329-45.275682 0L285.54663 914.308916c-4.997316 4.997316-13.692646 1.499195-13.692645-5.69694V0h-63.965644v908.711922c0 7.096189-8.595383 10.694256-13.692645 5.69694L67.86355 787.97677c-12.49329-12.49329-32.782392-12.49329-45.175736 0-12.49329 12.49329-12.49329 32.782392 0 45.275682l172.007613 172.007613c24.986579 24.986579 65.464838 24.986579 90.451418 0l172.007613-172.007613c12.49329-12.593236 12.49329-32.782392 0-45.275682zM991.467474 143.922698H399.785272c-17.690498 0-31.982822-14.292323-31.982822-31.982822s14.292323-31.982822 31.982822-31.982822h591.682202c17.690498 0 31.982822 14.292323 31.982821 31.982822s-14.292323 31.982822-31.982821 31.982822zM863.536187 303.836806H399.785272c-17.690498 0-31.982822-14.292323-31.982822-31.982821s14.292323-31.982822 31.982822-31.982822h463.750915c17.690498 0 31.982822 14.292323 31.982821 31.982822s-14.292323 31.982822-31.982821 31.982821zM735.6049 463.750915H399.785272c-17.690498 0-31.982822-14.292323-31.982822-31.982822s14.292323-31.982822 31.982822-31.982821h335.819628c17.690498 0 31.982822 14.292323 31.982821 31.982821s-14.292323 31.982822-31.982821 31.982822zM639.656435 623.665024H399.785272c-17.690498 0-31.982822-14.292323-31.982822-31.982822s14.292323-31.982822 31.982822-31.982822h239.871163c17.690498 0 31.982822 14.292323 31.982821 31.982822s-14.292323 31.982822-31.982821 31.982822z" /></svg>