<?xml version="1.0" standalone="no"?><!DOCTYPE svg PUBLIC "-//W3C//DTD SVG 1.1//EN" "http://www.w3.org/Graphics/SVG/1.1/DTD/svg11.dtd"><svg class="icon" width="200px" height="200.00px" viewBox="0 0 1024 1024" version="1.1" xmlns="http://www.w3.org/2000/svg"><path fill="#333333" d="M938.13361 908c-42.4 35.5-110 52.5-189.2 52.5-119.5 0-265.6-38.6-391.7-109.8C140.03361 728-21.96639 506.2 2.43361 367.8c10.2-57.9 62.1-137.4 86.1-149.2 14.7-7.2 29.4-7.9 29.4-7.9 1.1-0.1 2.2-0.1 3.2-0.1 23.5 0 41.4 12 48.8 17.7l128.4 84.6 24.6 16.2c5.2 4.4 14.3 12.8 22.6 25.5 45.6 70-11.9 153.5-3.7 221.6 4 33.4 25.4 75.1 94.8 119.6h0.1c44.2 22.9 78.8 31.1 106.1 31.1 17.9 0 32.6-3.5 44.9-8.8C649.33361 691.8 692.23361 604 771.93361 604c1.9 0 3.9 0.1 5.9 0.2 15.1 0.8 26.9 4.5 33.3 6.8l26.4 13.2c45.8 23 91.7 46 137.5 68.9 9 3.8 29.7 13.9 41.2 36.2 0 0 6.8 13.1 7.9 29.4 4.9 70.8-63 130-86 149.3zM827.13361 392.2C770.43361 273.8 649.43361 192 509.43361 192c-9.4 0-18.7 0.4-27.9 1.1-21.7 1.7-42.9 5.4-63.3 10.9l16.6 61.8c20.7-5.6 42-8.8 63.7-9.6 3.7-0.1 7.3-0.2 11-0.2 38.9 0 76.6 7.6 112.1 22.6 34.3 14.5 65.1 35.3 91.6 61.7 20.4 20.5 37.5 43.5 50.9 68.7 3.9 7.4 7.6 15 10.9 22.8 5.1 12.1 9.4 24.5 12.8 37.1l61.8-16.6c-5.9-20.8-13.4-40.9-22.5-60.1zM952.33361 358.6C879.83361 185.6 708.83361 64 509.43361 64c-20.8 0-41.3 1.3-61.5 3.9-21.5 2.7-42.5 6.9-63 12.4l16.6 61.8c20.7-5.5 41.7-9.4 63.1-11.7C479.43361 128.8 494.43361 128 509.43361 128c56.2 0 110.7 11 161.9 32.7 49.5 21 94 51 132.3 89.2 36.5 36.5 65.5 78.7 86.3 125.5 1 2.2 2 4.5 2.9 6.7 7.4 17.6 13.6 35.5 18.5 53.8l61.8-16.6c-5.6-20.8-12.6-41.1-20.8-60.7zM700.03361 426.2c-38.5-62.1-106.6-104-184.5-106.1-2 0-4.1-0.1-6.1-0.1-20.1 0-39.6 2.6-58.2 7.6l16.6 61.8c13.4-3.6 27.4-5.4 41.6-5.4 8 0 15.9 0.6 23.7 1.7 33.8 5 64.9 20.6 89.5 45.1 4.1 4.2 8 8.5 11.7 13 14 17.3 24 37.1 29.7 58.3l61.8-16.6c-5.8-21.1-14.6-41.1-25.8-59.3z" /></svg>