<?xml version="1.0" standalone="no"?><!DOCTYPE svg PUBLIC "-//W3C//DTD SVG 1.1//EN" "http://www.w3.org/Graphics/SVG/1.1/DTD/svg11.dtd"><svg class="icon" width="200px" height="200.00px" viewBox="0 0 1024 1024" version="1.1" xmlns="http://www.w3.org/2000/svg"><path fill="#333333" d="M576 203.5v617.1L286.5 663.7c-9.4-5.1-19.8-7.7-30.5-7.7H80c-8.8 0-16-7.2-16-16V384c0-8.8 7.2-16 16-16h176c10.6 0 21.1-2.7 30.5-7.7L576 203.5M239.8 304H64c-35.3 0-64 28.7-64 64v288c0 35.3 28.7 64 64 64h175.8c10.6 0 21.1 2.7 30.5 7.7l322.5 174.7c21.3 11.5 47.2-3.9 47.2-28.1V149.7c0-24.2-25.9-39.7-47.2-28.1L270.3 296.3c-9.4 5-19.9 7.7-30.5 7.7zM1024 512c0 183.1-118.3 338.6-282.7 394.2-2.6 0.9-5.3-1-5.3-3.8v-59.7c0-1.6 1-3.1 2.5-3.7 2.2-0.9 4.3-1.7 6.5-2.7 41.9-17.7 79.6-43.1 111.9-75.5 32.3-32.3 57.7-70 75.5-111.9 18.3-43.3 27.6-89.4 27.6-137s-9.3-93.6-27.6-137c-17.7-41.9-43.1-79.6-75.5-111.9-32.4-32.3-70-57.7-111.9-75.5-2.1-0.9-4.3-1.8-6.5-2.7-1.5-0.6-2.5-2.1-2.5-3.7v-59.7c0-2.7 2.7-4.7 5.3-3.8C905.7 173.4 1024 328.9 1024 512zM864 512c0 92.2-48.8 173-121.9 218.1-2.7 1.6-6.1-0.3-6.1-3.4v-69.8c0-1.1 0.5-2.2 1.3-2.9 2.2-2 4.3-4.1 6.5-6.2C780 611.5 800 563.3 800 512c0-51.3-20-99.5-56.2-135.8-2.1-2.1-4.3-4.2-6.5-6.2-0.8-0.8-1.3-1.8-1.3-2.9v-69.8c0-3.1 3.4-5.1 6.1-3.4C815.2 339 864 419.8 864 512z" /></svg>