<?xml version="1.0" standalone="no"?><!DOCTYPE svg PUBLIC "-//W3C//DTD SVG 1.1//EN" "http://www.w3.org/Graphics/SVG/1.1/DTD/svg11.dtd"><svg class="icon" width="200px" height="200.00px" viewBox="0 0 1024 1024" version="1.1" xmlns="http://www.w3.org/2000/svg"><path fill="#333333" d="M480 96v288c0 53-43 96-96 96H96c-53 0-96-43-96-96V96C0 43 43 0 96 0h288c53 0 96 43 96 96zM1024 96v288c0 53-43 96-96 96H640c-53 0-96-43-96-96V96c0-53 43-96 96-96h288c53 0 96 43 96 96zM480 640v288c0 53-43 96-96 96H96c-53 0-96-43-96-96V640c0-53 43-96 96-96h288c53 0 96 43 96 96zM1024 640v288c0 53-43 96-96 96H640c-53 0-96-43-96-96V640c0-53 43-96 96-96h288c53 0 96 43 96 96z" /></svg>