<?xml version="1.0" standalone="no"?><!DOCTYPE svg PUBLIC "-//W3C//DTD SVG 1.1//EN" "http://www.w3.org/Graphics/SVG/1.1/DTD/svg11.dtd"><svg class="icon" width="200px" height="200.00px" viewBox="0 0 1024 1024" version="1.1" xmlns="http://www.w3.org/2000/svg"><path fill="#333333" d="M512 336c47 0 91.2 18.3 124.5 51.5C669.7 420.8 688 465 688 512s-18.3 91.2-51.5 124.5C603.2 669.7 559 688 512 688s-91.2-18.3-124.5-51.5C354.3 603.2 336 559 336 512s18.3-91.2 51.5-124.5C420.8 354.3 465 336 512 336z m0-64c-132.5 0-240 107.5-240 240s107.5 240 240 240 240-107.5 240-240-107.5-240-240-240zM183.5 908.4l40.9 40.9c4.4 4.4 2.4 11.8-3.6 13.4l-204.4 54.8c-5.9 1.6-11.4-3.8-9.8-9.8l54.8-204.4c1.6-5.9 9-7.9 13.4-3.6l40.9 40.9c6.2 6.2 16.4 6.2 22.6 0l110-110c3.1-3.1 8.2-3.1 11.3 0l33.9 33.9c3.1 3.1 3.1 8.2 0 11.3l-110 110c-6.3 6.2-6.3 16.3 0 22.6zM802.1 951.8l40.9-40.9c6.2-6.2 6.2-16.4 0-22.6L730.5 775.8c-3.1-3.1-3.1-8.2 0-11.3l33.9-33.9c3.1-3.1 8.2-3.1 11.3 0L888.3 843c6.2 6.2 16.4 6.2 22.6 0l40.9-40.9c4.4-4.4 11.8-2.4 13.4 3.6l54.8 204.4c1.6 5.9-3.8 11.4-9.8 9.8l-204.4-54.8c-6-1.5-8-9-3.7-13.3zM293.5 259.4l-33.9 33.9c-3.1 3.1-8.2 3.1-11.3 0l-113-113c-6.2-6.2-16.4-6.2-22.6 0l-40.9 40.9c-4.4 4.4-11.8 2.4-13.4-3.6L3.6 13.2C2 7.3 7.4 1.8 13.4 3.4l204.4 54.8c5.9 1.6 7.9 9 3.6 13.4l-40.9 40.9c-6.2 6.2-6.2 16.4 0 22.6l113 113c3.1 3.1 3.1 8.2 0 11.3zM1020.4 13.2l-54.7 204.4c-1.6 5.9-9 7.9-13.4 3.6l-46.5-46.5c-3.1-3.1-8.2-3.1-11.3 0L775.3 293.8c-3.1 3.1-8.2 3.1-11.3 0l-34-33.9c-3.1-3.1-3.1-8.2 0-11.3l119.1-119.1c3.1-3.1 3.1-8.2 0-11.3l-46.5-46.5c-4.4-4.4-2.4-11.8 3.6-13.4l204.4-54.8c6-1.7 11.4 3.8 9.8 9.7zM512 480c17.6 0 32 14.4 32 32s-14.4 32-32 32-32-14.4-32-32 14.4-32 32-32z m0-64c-53 0-96 43-96 96s43 96 96 96 96-43 96-96-43-96-96-96z" /></svg>