<?xml version="1.0" standalone="no"?><!DOCTYPE svg PUBLIC "-//W3C//DTD SVG 1.1//EN" "http://www.w3.org/Graphics/SVG/1.1/DTD/svg11.dtd"><svg class="icon" width="200px" height="199.80px" viewBox="0 0 1025 1024" version="1.1" xmlns="http://www.w3.org/2000/svg"><path fill="#333333" d="M512.73613 151.4l103 208.7c11.7 23.6 34.2 40 60.2 43.8l230.3 33.5-166.6 162.4c-18.9 18.4-27.5 44.9-23 70.8L755.93613 900l-206-108.3c-11.4-6-24.3-9.2-37.2-9.2-12.9 0-25.8 3.2-37.2 9.2L269.53613 900l39.3-229.4c4.5-26-4.2-52.4-23-70.8L119.23613 437.3l230.3-33.5c26.1-3.8 48.6-20.1 60.2-43.8l103-208.6M512.73613 27c-5.7 0-11.4 3-14.3 8.9l-146 295.9c-2.3 4.7-6.8 8-12 8.8L13.73613 388c-13.1 1.9-18.4 18-8.9 27.3l236.3 230.3c3.8 3.7 5.5 9 4.6 14.2L190.03613 985c-1.8 10.3 6.4 18.7 15.8 18.7 2.5 0 5-0.6 7.4-1.9l292.1-153.5c2.3-1.2 4.9-1.8 7.4-1.8s5.1 0.6 7.4 1.8l292.1 153.5c2.5 1.3 5 1.9 7.4 1.9 9.3 0 17.5-8.4 15.8-18.7l-55.8-325.2c-0.9-5.2 0.8-10.5 4.6-14.2l236.3-230.3c9.5-9.3 4.3-25.4-8.9-27.3l-326.5-47.4c-5.2-0.8-9.7-4-12-8.8l-146-295.9c-3-6-8.7-8.9-14.4-8.9z" /></svg>