<?xml version="1.0" standalone="no"?><!DOCTYPE svg PUBLIC "-//W3C//DTD SVG 1.1//EN" "http://www.w3.org/Graphics/SVG/1.1/DTD/svg11.dtd"><svg class="icon" width="200px" height="200.00px" viewBox="0 0 1024 1024" version="1.1" xmlns="http://www.w3.org/2000/svg"><path fill="#333333" d="M909.6 798c-79 88.3-205.7 158-328.4 158-28.6 0-57-3.8-84.6-12-38.6-11.5-123.8-36.9-176.4-112-37-52.8-55.1-126.3-96.2-128h-1.6c-7.9 0-20.4 2.3-31 10.1-16.1 11.8-22.5 30.1-23.5 46.3-2.1 31.9-1.6 53.1-0.5 68.8 0.5 7.6 1.1 13.4 2.2 21.7 4.1 30.9 9 34.8 6.5 45.1-3.5 14.7-17.2 23.1-32 32-8.3 5-26.5 16-46.5 16h-1.5c-35.3-1-59.8-37.1-68.6-50-54.7-80.5-29.4-291.5 96.2-352 29.8-14.4 66-20.6 102.6-20.6 67.6 0 136.8 21.4 170.1 52.6 7.2 6.7 31 31 64.1 32h1.9c7.6 0 30.2-1.2 46.2-16 38.1-35.3 8.5-119.6 0-144-17.7-50.5-30.4-48-64.2-112 0 0-64.5-122.4-48.1-208 1.8-9.6 6-30.2 21.9-49.7 3.6-4.5 14.4-19.1 31.4-25.4 9.7-3.6 21.1-5.4 32.8-5.4 24.4 0 49.5 7.9 60.4 24.2l1.7 2.8c4.7 10.6 8.3 21.8 10.7 33.1 2.3 9.1 4.7 18.5 8 28.2 1.8 5.7 6.5 10 12.4 11.3 1.5 0.4 3 0.6 4.5 0.6 4.7 0 9.3-1.8 12.7-5.1 37.4-35.2 84.9-52.9 141.5-52.9 20.4 0 41.9 2.3 64.7 6.9 89.4 18.1 156.1 133.3 174.4 169.8 73.1 145.4 79.2 373.7-63.8 533.6z" /></svg>