<?xml version="1.0" standalone="no"?><!DOCTYPE svg PUBLIC "-//W3C//DTD SVG 1.1//EN" "http://www.w3.org/Graphics/SVG/1.1/DTD/svg11.dtd"><svg class="icon" width="200px" height="200.00px" viewBox="0 0 1024 1024" version="1.1" xmlns="http://www.w3.org/2000/svg"><path fill="#333333" d="M791.2 95.4c-4.4 0-8-3.6-8-8V16c0-8.8-7.2-16-16-16H256.6c-8.8 0-16 7.2-16 16v71.4c0 4.4-3.6 8-8 8H63.2V1024h336.2v-87.4c0-4.4 3.6-8 8-8h209.4c4.4 0 8 3.6 8 8v87.4h336V95.4H791.2zM347.5 764v-94.4c0-2.2 1.8-4 4-4h101.7c2.2 0 4 1.8 4 4V764c0 2.2-1.8 4-4 4H351.5c-2.2 0-4-1.8-4-4z m325-405.6H570.8c-2.2 0-4-1.8-4-4V260c0-2.2 1.8-4 4-4h101.7c2.2 0 4 1.8 4 4v94.4c0 2.2-1.8 4-4 4z m4 102.4v98.4c0 2.2-1.8 4-4 4H570.8c-2.2 0-4-1.8-4-4v-94.4c0-2.2 1.8-4 4-4h105.7zM453.2 358.4H351.5c-2.2 0-4-1.8-4-4V260c0-2.2 1.8-4 4-4h101.7c2.2 0 4 1.8 4 4v94.4c0 2.2-1.8 4-4 4z m4 106.4v94.4c0 2.2-1.8 4-4 4H351.5c-2.2 0-4-1.8-4-4v-94.4c0-2.2 1.8-4 4-4h101.7c2.2 0 4 1.8 4 4zM566.8 764v-94.4c0-2.2 1.8-4 4-4h101.7c2.2 0 4 1.8 4 4V764c0 2.2-1.8 4-4 4H570.8c-2.2 0-4-1.8-4-4z" /></svg>