<?xml version="1.0" standalone="no"?><!DOCTYPE svg PUBLIC "-//W3C//DTD SVG 1.1//EN" "http://www.w3.org/Graphics/SVG/1.1/DTD/svg11.dtd"><svg class="icon" width="200px" height="200.00px" viewBox="0 0 1024 1024" version="1.1" xmlns="http://www.w3.org/2000/svg"><path fill="#333333" d="M512 0C229.2 0 0 229.2 0 512s229.2 512 512 512 512-229.2 512-512S794.8 0 512 0z m256 397.3L485.3 680c-25 25-65.5 25-90.5 0L256 541.3c-12.5-12.5-12.5-32.8 0-45.3 6.3-6.3 14.4-9.4 22.6-9.4s16.4 3.1 22.6 9.4l127.4 127.4c6.2 6.2 16.4 6.2 22.6 0L722.7 352c12.5-12.5 32.8-12.5 45.3 0 6.3 6.3 9.4 14.4 9.4 22.6s-3.1 16.4-9.4 22.7z" /></svg>