<?xml version="1.0" standalone="no"?><!DOCTYPE svg PUBLIC "-//W3C//DTD SVG 1.1//EN" "http://www.w3.org/Graphics/SVG/1.1/DTD/svg11.dtd"><svg class="icon" width="200px" height="200.00px" viewBox="0 0 1024 1024" version="1.1" xmlns="http://www.w3.org/2000/svg"><path fill="#333333" d="M0 96v672c0 17.7 14.3 32 32 32h344c4.4 0 8 3.6 8 8v116c0 2.2-1.8 4-4 4H272c-8.8 0-16 7.2-16 16v48h512v-48c0-8.8-7.2-16-16-16H644c-2.2 0-4-1.8-4-4V808c0-4.4 3.6-8 8-8h344c17.7 0 32-14.3 32-32V96c0-35.3-28.7-64-64-64H64C28.7 32 0 60.7 0 96z m572 832H452c-2.2 0-4-1.8-4-4V808c0-4.4 3.6-8 8-8h112c4.4 0 8 3.6 8 8v116c0 2.2-1.8 4-4 4zM64 656V112c0-8.8 7.2-16 16-16h864c8.8 0 16 7.2 16 16v544c0 8.8-7.2 16-16 16H80c-8.8 0-16-7.2-16-16zM755.5 288.1c-22.3-0.8-42.9 6-59.6 18.1-6.2 4.5-14.5 4.8-21.2 1l-75.2-43.4c-5.4-3.1-8.5-9.2-7.9-15.4 0.2-2.7 0.4-5.5 0.4-8.3 0-54.2-45.1-98-99.8-95.9-49.6 1.9-89.9 41.9-92.1 91.5-0.8 18.2 3.4 35.3 11.5 50.1 2.7 4.9 2.6 10.8-0.2 15.7l-48.3 83.6c-6.4 11.1-18.8 17.3-31.5 15.8-5.4-0.7-10.9-0.9-16.6-0.6-49.3 2.5-89 42.6-91 91.8-2.3 56.3 44.2 102.6 100.6 99.9 49.5-2.4 89.4-42.8 91.2-92.3 0.5-14.4-2.1-28.1-7.3-40.5-3.8-9.1-3.1-19.6 1.9-28.1l51.3-88.8c3.4-5.9 10.2-8.9 16.8-7.7 5.7 1 11.5 1.6 17.4 1.6 20 0 38.6-6.1 54-16.7 5-3.4 11.6-3.6 16.9-0.6l79.3 45.8c6.2 3.6 9.9 10.3 9.8 17.5v0.8c-0.6 51.2 38.5 93.6 89.6 96.9 57.1 3.7 104.6-42.8 102.3-99.6-1.8-50-42.4-90.4-92.3-92.2zM320 528c-17.7 0-32-14.4-32-32 0-17.7 14.3-32 32-32s32 14.3 32 32c0 17.6-14.3 32-32 32z m176-256c-17.7 0-32-14.4-32-32 0-17.7 14.3-32 32-32 17.6 0 32 14.3 32 32 0 17.6-14.4 32-32 32z m256 144c-17.6 0-32-14.4-32-32 0-17.7 14.4-32 32-32s32 14.3 32 32c0 17.6-14.4 32-32 32z" /></svg>