<?xml version="1.0" standalone="no"?><!DOCTYPE svg PUBLIC "-//W3C//DTD SVG 1.1//EN" "http://www.w3.org/Graphics/SVG/1.1/DTD/svg11.dtd"><svg class="icon" width="200px" height="200.00px" viewBox="0 0 1024 1024" version="1.1" xmlns="http://www.w3.org/2000/svg"><path fill="#333333" d="M906.161508 775.924226c-4.499561-10.498975-9.499072-20.597988-15.098526-30.297041-13.098721-22.697783-29.497119-43.195782-48.995215-61.493995l-3.99961-15.998438c13.298701-7.999219 23.797676-18.798164 31.096964-32.496826 7.399277-13.598672 11.198906-28.197246 11.198906-43.595743 0-14.498584-2.299775-26.797383-7.199297-36.996387-4.699541-10.099014-11.098916-18.698174-18.898154-25.997461-0.299971-0.299971-0.599941-0.599941-0.899913-0.799922-7.699248-6.899326-16.398399-12.998731-26.197441-18.298213-10.199004-5.499463-20.997949-10.998926-32.296846-16.298408l-13.798653-6.599356 2.699737-7.199297H797.972073c0.899912-15.198516 1.599844-30.397032 2.299775-45.895518 0.599941-15.498486 0.899912-30.796992 0.899913-46.295479 0-4.19959-0.09999-8.29919-0.199981-12.498779-0.09999-4.0996-0.19998-8.29919-0.19998-12.498779 1.699834-1.099893 3.299678-2.199785 4.899521-3.399668 12.59877-8.899131 22.597793-17.898252 30.097061-26.897374 8.49917-10.099014 14.798555-20.597988 19.198125-31.396934 4.29958-10.898936 6.999316-22.197832 7.999219-34.09667 0.999902-11.898838 1.499854-24.897569 1.499854-39.196172v-3.199688c0-18.198223-14.698565-32.896787-32.896788-32.896787h-59.194219c-3.499658 0-6.699346-2.299775-7.799239-5.599453L728.078899 76.59252c-3.899619-11.598867-9.299092-21.997852-16.298409-31.296943s-15.198516-17.398301-24.497607-24.097647c-9.299092-6.699346-19.598086-11.898838-30.697003-15.598477-10.998926-3.799629-22.697783-5.599453-34.896592-5.599453-2.499756 0-4.899522 0.09999-7.399277 0.299971-7.699248 0.499951-15.098526 1.999805-22.197833 4.099599-9.299092 2.999707-18.398203 6.699346-27.297334 11.198907-8.899131 4.39957-17.598281 9.299092-26.297432 14.798555-8.59916 5.299482-17.19832 10.498975-25.79748 15.598476l-0.599942-0.29997-0.599941 0.29997c-8.59916-4.999512-17.19832-10.199004-25.797481-15.598476-8.59916-5.299482-17.398301-10.199004-26.297432-14.798555-8.899131-4.499561-17.998242-8.199199-27.297334-11.198907C425.008495 2.099795 417.509228 0.799922 409.709989 0.19998c-2.399766-0.19998-4.799531-0.19998-7.199297-0.19998-12.198809 0-23.897666 1.799824-34.896592 5.499463s-21.39791 8.899131-30.697002 15.598477c-9.299092 6.699346-17.498291 14.698565-24.497608 24.097646-6.999316 9.299092-12.398789 19.898057-16.298408 31.296944l-36.396446 109.689288c-1.099893 3.399668-4.29958 5.599453-7.799238 5.599453h-59.194219c-18.098233 0-32.896787 14.698565-32.896788 32.796798v3.199687c0 14.198613 0.499951 27.297334 1.499854 39.196172 0.999902 11.898838 3.699639 23.197735 7.999219 34.096671 4.29958 10.898936 10.698955 21.29792 19.098134 31.396933 7.599258 8.999121 17.598281 17.998242 30.197052 26.997364 1.499854 1.099893 3.099697 2.199785 4.699541 3.299678 0 4.19959-0.09999 8.29919-0.199981 12.498779-0.19998 4.19959-0.19998 8.29919-0.19998 12.49878 0 15.498486 0.299971 30.896983 0.899912 46.295479 0.599941 15.498486 1.299873 30.697002 2.299775 45.895518h14.198614l2.699736 7.199297-13.798653 6.699345c-11.298897 5.299482-21.997852 10.798945-32.296846 16.298409-9.799043 5.299482-18.498194 11.298897-26.097451 18.198222-0.399961 0.299971-0.699932 0.599941-0.999902 0.899913-7.899229 7.299287-14.098623 15.998438-18.898155 25.997461-4.699541 10.099014-7.199297 22.397813-7.199297 36.996387 0 15.498486 3.699639 29.997071 11.198907 43.595742 7.399277 13.598672 17.798262 24.497608 31.096963 32.496827l-3.99961 15.998438c-19.498096 18.298213-35.796504 38.696221-48.895225 61.294014-5.699443 9.699053-10.698955 19.898057-15.198515 30.397031-14.798555 34.996582-22.197832 71.493018-22.197833 109.589298v103.689874c72.592911 15.098526 207.579729 34.696612 418.559125 34.696612 209.579533 0 342.466556-19.298115 414.259545-34.396641V885.513524c-0.09999-37.996289-7.599258-74.592716-22.397812-109.589298zM356.715165 96.890538c1.799824-5.199492 4.0996-9.699053 6.899326-13.398692l0.09999-0.09999 0.09999-0.09999c2.899717-3.899619 6.199395-7.199297 10.199004-9.999024 4.0996-2.899717 8.69915-5.299482 13.798653-6.999316 4.499561-1.499854 9.299092-2.199785 14.698564-2.199785 0.999902 0 1.899814 0 2.899717 0.09999h0.199981c2.699736 0.19998 5.099502 0.599941 7.199297 1.299873 6.199395 1.999805 12.198809 4.39957 17.898252 7.299287 7.399277 3.799629 14.598574 7.799238 21.4979 11.998829 9.999024 6.199395 18.998145 11.598867 27.297335 16.498388l30.09706 17.598282 2.899717-1.499854 2.699737 1.399864 29.89708-17.498292c8.29919-4.899522 17.298311-10.199004 27.297334-16.398398h0.09999l0.099991-0.09999c7.199297-4.499561 13.998633-8.29919 20.797969-11.698858l0.19998-0.09999 0.19998-0.09999c5.599453-2.799727 11.498877-5.199492 17.498292-7.199297 2.499756-0.699932 5.099502-1.199883 7.699248-1.399864 0.999902-0.09999 1.899814-0.09999 2.899717-0.09999 5.299482 0 9.899033 0.699932 14.198613 2.199785l0.299971 0.09999 0.29997 0.099991c4.999512 1.599844 9.399082 3.899619 13.598672 6.899326 3.799629 2.699736 7.299287 6.199395 10.398985 10.298994 2.899717 3.799629 5.099502 8.199199 6.799336 13.298702l10.298994 30.996972H346.31618l10.398985-31.196953z m-31.696905 94.990724h374.263451l21.39791 64.09374H303.62035l21.39791-64.09374zM208.829606 582.343131c1.299873-2.499756 2.699736-4.499561 4.19959-5.999415l0.599942-0.499951c3.799629-3.399668 8.29919-6.499365 13.598672-9.399082 9.199102-4.999512 18.998145-9.899033 29.197149-14.698564l0.19998-0.099991 0.19998-0.09999 13.798653-6.699346 1.299873-0.599941c14.498584 21.497901 31.596914 40.796016 50.99502 57.594375 0.499951 0.399961 0.899912 0.799922 1.399863 1.199883l10.398985 50.195098 11.698857 56.194513 14.798555 71.493018-24.897568-46.995411-28.297237-53.794746-34.196661-64.593692-23.497705 16.698369-31.496924-18.898154c-3.499658-2.099795-5.799434-4.499561-7.699248-7.999219l-0.09999-0.199981-0.099991-0.19998c-2.299775-4.0996-3.299678-7.999219-3.299677-12.79875 0-6.299385 0.899912-9.099111 1.199882-9.799043zM614.989942 696.232009l-54.694658 263.274289v0c-5.299482-33.99668-11.498877-67.693389-18.198223-100.990137-6.899326-33.396739-29.397129-186.78176-29.397129-186.78176s-0.19998 1.399863-0.599942 3.999609c-0.399961-2.599746-0.599941-3.999609-0.599941-3.999609S488.902256 825.119422 482.002929 858.516161c-6.799336 33.296748-12.89874 66.993458-18.198222 100.990137v0.299971l-0.099991-0.299971-54.594668-263.274289-11.698858-56.094522h81.892003l31.996875 31.596914 0.599942-0.599941 0.599941 0.599941 31.996875-31.596914h81.892003L614.989942 696.232009z m37.696319-137.486574l-4.19959 3.299678c-17.19832 13.098721-36.196465 23.697686-56.894444 31.596914-2.399766 0.899912-4.799531 1.799824-7.199297 2.599746-22.997754 7.899229-47.095401 11.798848-72.29294 11.798848h-0.29997c-25.197539 0-49.195196-3.899619-72.19295-11.798848-2.499756-0.799922-4.899522-1.699834-7.299288-2.699736-20.697979-7.899229-39.596133-18.398203-56.794453-31.496924-1.499854-1.099893-2.899717-2.299775-4.399571-3.399668-2.199785-1.699834-4.29958-3.499658-6.299384-5.299483-17.298311-14.998535-32.096866-32.396836-44.395665-52.094912-1.799824-2.899717-3.599648-5.899424-5.299482-8.899131-13.198711-23.497705-21.697881-48.995215-25.597501-76.592521h29.897081v-76.59252c10.298994 3.599648 20.897959 6.799336 31.596914 9.499073 10.698955 2.899717 21.497901 5.299482 32.496827 7.399277V369.963871c0 5.299482 0.299971 10.798945 0.899912 16.298408 0.599941 5.499463 1.999805 10.498975 4.19959 14.998535 2.299775 4.39957 5.499463 7.999219 9.799043 10.598965 4.29958 2.699736 9.999024 3.999609 17.09833 3.99961 8.59916 0 16.098428-3.099697 22.497803-9.299092 6.399375-6.299385 9.499072-13.598672 9.499072-22.197832v-19.198126c10.698955 1.199883 21.39791 1.999805 31.996876 2.499756 10.698955 0.399961 21.19793 0.599941 31.696904 0.599942h1.199883c10.298994 0 20.897959-0.19998 31.596914-0.599942 10.698955-0.399961 21.39791-1.199883 31.996876-2.499756v19.198126c0 8.59916 3.199688 16.098428 9.499072 22.197832 6.299385 6.199395 13.898643 9.299092 22.497803 9.299092 7.199297 0 12.79875-1.299873 17.09833-3.99961 4.29958-2.699736 7.599258-6.199395 9.799043-10.598965 2.299775-4.499561 3.699639-9.399082 4.19959-14.998535 0.599941-5.499463 0.899912-10.998926 0.899912-16.298408v-13.798653c10.998926-1.999805 21.797871-4.499561 32.496827-7.399277 10.698955-2.799727 21.19793-5.999414 31.596914-9.499073v76.592521h29.79709c-3.899619 27.597305-12.398789 53.094815-25.5975 76.59252-1.699834 2.999707-3.499658 5.999414-5.299483 8.899131-12.298799 19.698076-27.097354 37.096377-44.395664 52.094913-1.599844 1.799824-3.699639 3.499658-5.899424 5.299482z m160.184357 46.495459c-1.899814 3.499658-4.29958 5.899424-7.799238 7.999219l-31.496924 18.898155-23.397715-16.69837-34.196661 64.593692-28.397227 53.694757-24.897568 46.99541 14.798554-71.493018 11.698858-56.094522 10.398984-50.295088c0.399961-0.399961 0.799922-0.699932 1.299874-1.099893 19.398106-16.79836 36.596426-36.196465 50.99502-57.694366l1.299873 0.599942 13.798652 6.699346 0.199981 0.09999 0.19998 0.09999c10.298994 4.899522 20.198028 9.799043 29.197149 14.698565 5.399473 2.899717 9.899033 5.999414 13.698662 9.499072l0.09999 0.09999c0.09999 0.09999 0.299971 0.299971 0.499951 0.399961 1.799824 1.699834 3.099697 3.499658 4.19959 5.799434l0.099991 0.19998 0.09999 0.099991c0.09999 0.299971 0.999902 2.999707 0.999902 9.599062 0.09999 4.899522-0.999902 8.899131-3.399668 13.298701z" /></svg>