<?xml version="1.0" standalone="no"?><!DOCTYPE svg PUBLIC "-//W3C//DTD SVG 1.1//EN" "http://www.w3.org/Graphics/SVG/1.1/DTD/svg11.dtd"><svg class="icon" width="200px" height="200.00px" viewBox="0 0 1024 1024" version="1.1" xmlns="http://www.w3.org/2000/svg"><path fill="#333333" d="M281.7 464H1024v-56c0-4.4-3.6-8-8-8s-8-3.6-8-8v-40c0-37.3-21.3-69.7-52.4-85.6-4.3-2.2-5.8-7.5-3.1-11.5 15.2-23.1 23.9-50.9 23.5-80.8-1-78-64.9-141.6-143-142.1-80-0.5-145 64.1-145 144 0 29.1 8.6 56.2 23.5 78.8 2.6 4 1.2 9.4-3.1 11.6-31.1 15.9-52.4 48.3-52.4 85.6v31.5c0 9.1-7.4 16.5-16.5 16.5s-16.5-7.4-16.5-16.5V352c0-37.3-21.3-69.7-52.4-85.6-4.3-2.2-5.8-7.5-3.1-11.5 15.2-23.1 23.9-50.9 23.5-80.8-1-78-64.9-141.6-143-142.1-80-0.5-145 64.1-145 144 0 29.1 8.6 56.2 23.5 78.8 2.6 4 1.2 9.4-3.1 11.6-31.1 15.9-52.4 48.3-52.4 85.6v18.9c0 16-12 29.4-27.8 31.5C105.9 420.4 0 537.8 0 680c0 77.3 31.3 147.3 82 198 48.9 48.9 115.8 79.8 190 81.9 2.7 0.1 5.3 0.1 8 0.1h744v-56c0-4.4-3.6-8-8-8s-8-3.6-8-8v-40c0-37.3-21.3-69.7-52.4-85.6-4.3-2.2-5.8-7.5-3.1-11.5 15.2-23.1 23.9-50.9 23.5-80.8-1-78.1-64.9-141.6-143-142.2-80-0.5-145 64.1-145 144 0 29.1 8.6 56.2 23.5 78.8 2.6 4 1.2 9.4-3.1 11.6-31.1 16-52.4 48.4-52.4 85.7v32c0 8.8-7.2 16-16 16s-16-7.2-16-16v-32c0-37.3-21.3-69.7-52.4-85.6-4.3-2.2-5.8-7.5-3.1-11.5 15.2-23.1 23.9-50.9 23.5-80.8-1-78.1-64.9-141.6-143-142.2-80-0.5-145 64.1-145 144 0 29.1 8.6 56.2 23.5 78.8 2.6 4 1.2 9.4-3.1 11.6-31.1 16-52.4 48.4-52.4 85.7v11.7c0 20.4-18.9 35.7-38.8 31.3-39.8-8.8-76.4-28.7-106-58.2C86.5 791.9 64 737.7 64 680c0-58.2 22.9-112.9 64.4-153.8 40.7-40.2 96-62.2 153.3-62.2zM832 96c44.1 0 80 35.9 80 80s-35.9 80-80 80-80-35.9-80-80 35.9-80 80-80zM720 352c0-17.7 14.3-32 32-32h160c17.7 0 32 14.3 32 32v40c0 4.4-3.6 8-8 8H728c-4.4 0-8-3.6-8-8v-40zM447 96c44.1 0 80 35.9 80 80s-35.9 80-80 80-80-35.9-80-80 35.9-80 80-80zM335 352c0-17.7 14.3-32 32-32h160c17.7 0 32 14.3 32 32v40c0 4.4-3.6 8-8 8H343c-4.4 0-8-3.6-8-8v-40z m497 240c44.1 0 80 35.9 80 80s-35.9 80-80 80-80-35.9-80-80 35.9-80 80-80zM720 848c0-17.7 14.3-32 32-32h160c17.7 0 32 14.3 32 32v40c0 4.4-3.6 8-8 8H728c-4.4 0-8-3.6-8-8v-40zM448 592c44.1 0 80 35.9 80 80s-35.9 80-80 80-80-35.9-80-80 35.9-80 80-80zM336 848c0-17.7 14.3-32 32-32h160c17.7 0 32 14.3 32 32v40c0 4.4-3.6 8-8 8H344c-4.4 0-8-3.6-8-8v-40zM272 959.9v0.1h8c-2.7 0-5.3 0-8-0.1z" /></svg>