<?xml version="1.0" standalone="no"?><!DOCTYPE svg PUBLIC "-//W3C//DTD SVG 1.1//EN" "http://www.w3.org/Graphics/SVG/1.1/DTD/svg11.dtd"><svg class="icon" width="200px" height="200.00px" viewBox="0 0 1024 1024" version="1.1" xmlns="http://www.w3.org/2000/svg"><path fill="#333333" d="M128.4 526.2C86.9 567.1 64 621.8 64 680c0 57.7 22.5 111.9 63.3 152.7 29.5 29.5 66.1 49.5 105.9 58.2 19.9 4.4 38.8-10.9 38.8-31.3V848c0-37.3 21.3-69.7 52.4-85.5 4.3-2.2 5.7-7.6 3.1-11.6-14.9-22.7-23.5-49.8-23.5-78.9 0-79.9 65-144.5 145-144 78.1 0.5 142 64.1 143 142.2 0.4 29.8-8.3 57.6-23.5 80.8-2.6 4-1.1 9.3 3.2 11.5 31.1 15.9 52.4 48.2 52.4 85.5v32c0 4.4 1.8 8.4 4.7 11.3 2.9 2.9 6.9 4.7 11.3 4.7 8.8 0 16-7.2 16-16v-32c0-37.3 21.3-69.7 52.4-85.5 4.3-2.2 5.7-7.6 3.1-11.6-15-22.7-23.6-49.8-23.6-78.9 0-79.9 65-144.5 145-144 78.1 0.5 142 64.1 143 142.2 0.4 29.8-8.3 57.6-23.5 80.8-2.6 4-1.1 9.3 3.2 11.5 31.1 15.9 52.4 48.2 52.4 85.5v40c0 2.2 0.9 4.2 2.3 5.7 1.4 1.4 3.4 2.3 5.7 2.3 4.4 0 8 3.6 8 8v56H280c-2.7 0-5.3 0-8-0.1-74.1-2.1-141.1-33-190-81.9C31.3 827.3 0 757.3 0 680c0-142.2 105.9-259.6 243.2-277.6 15.9-2.1 27.8-15.5 27.8-31.5V352c0-37.3 21.3-69.7 52.4-85.5 4.3-2.2 5.7-7.6 3.1-11.6-14.9-22.7-23.5-49.8-23.5-78.9 0-79.9 65-144.5 145-144 78.1 0.5 142 64.1 143 142.2 0.4 29.8-8.3 57.6-23.5 80.8-2.6 4-1.1 9.3 3.2 11.5 31.1 15.9 52.4 48.2 52.4 85.5v31.5c0 4.6 1.8 8.7 4.8 11.7s7.1 4.8 11.7 4.8c9.1 0 16.5-7.4 16.5-16.5V352c0-37.3 21.3-69.7 52.4-85.5 4.3-2.2 5.7-7.6 3.1-11.6-15-22.7-23.6-49.8-23.6-78.9 0-79.9 65-144.5 145-144 78.1 0.5 142 64.1 143 142.2 0.4 29.8-8.3 57.6-23.5 80.8-2.6 4-1.1 9.3 3.2 11.5 31.1 15.9 52.4 48.2 52.4 85.5v40c0 2.2 0.9 4.2 2.3 5.7 1.4 1.4 3.4 2.3 5.7 2.3 4.4 0 8 3.6 8 8v56H281.7c-57.3 0-112.6 22-153.3 62.2zM272 959.9v0.1h8c-2.7 0-5.3 0-8-0.1z" /></svg>