<?xml version="1.0" standalone="no"?><!DOCTYPE svg PUBLIC "-//W3C//DTD SVG 1.1//EN" "http://www.w3.org/Graphics/SVG/1.1/DTD/svg11.dtd"><svg class="icon" width="200px" height="200.00px" viewBox="0 0 1024 1024" version="1.1" xmlns="http://www.w3.org/2000/svg"><path fill="#333333" d="M752 252V64c0-35.3-28.7-64-64-64H336c-35.3 0-64 28.7-64 64v188c0 2.2-1.8 4-4 4h-44c-35.3 0-64 28.7-64 64v672c0 17.7 14.3 32 32 32h640c17.7 0 32-14.3 32-32V320c0-35.3-28.7-64-64-64h-44c-2.2 0-4-1.8-4-4zM352 64h320c8.8 0 16 7.2 16 16v172c0 2.2-1.8 4-4 4H340c-2.2 0-4-1.8-4-4V80c0-8.8 7.2-16 16-16z m444 896H228c-2.2 0-4-1.8-4-4V324c0-2.2 1.8-4 4-4h568c2.2 0 4 1.8 4 4v632c0 2.2-1.8 4-4 4z" /></svg>