<?xml version="1.0" standalone="no"?><!DOCTYPE svg PUBLIC "-//W3C//DTD SVG 1.1//EN" "http://www.w3.org/Graphics/SVG/1.1/DTD/svg11.dtd"><svg class="icon" width="200px" height="200.00px" viewBox="0 0 1024 1024" version="1.1" xmlns="http://www.w3.org/2000/svg"><path fill="#333333" d="M246.6 64c32.6 0 64.2 17.7 89 49.9 13.7 17.7 24.5 38.6 32.2 62.2 8.2 25.3 12.4 52.4 12.4 80.5v1.7l0.1 1.7c1.8 32.3-4.6 64.8-18.5 94-13.8 29-34.7 54.3-60.5 73.3-35.8 26.3-55.6 70.1-51.6 114.3 14.6 163.3 29.4 345.4 29.4 377.5v3.5l0.4 3.5c0.1 1.3 0.2 2.7 0.2 4.1-0.3 10.8-5.9 17.9-9.2 21.1-5.7 5.6-13.3 8.7-21.3 8.7h-0.2-0.1c-9.8-0.7-18.7-5.1-25.1-12.4-6.4-7.4-9.6-16.8-9-26.5l0.1-2.1v-2.1c0-28.2 20.3-258.9 28.9-357.3l1.8-20c3.9-44.5-16.1-88.4-52.3-114.6-26-18.9-47.2-44.2-61.2-73.2-14.1-29.2-20.7-61.8-19.1-94.3l0.1-1.6v-1.6c0-27.5 4.1-54 12.3-78.9 7.7-23.3 18.5-44 32.1-61.5C182.3 81.7 214 64 246.6 64m0-64C137.5 0 49 113.8 49 254.2c-4.3 88.2 36.5 171.6 106.7 222.5 18.1 13.1 28 34.8 26.1 57.2-10 113.4-31 350.1-31 382.9-3.7 55.4 38.2 103.4 93.6 107.1 0.7 0 1.4 0.1 2.1 0.1h2.4c51.1 0 93.2-40.8 94.5-92.2 0.1-4.2-0.1-8.4-0.5-12.6 0-42.2-19.8-273.6-29.6-383.2-2-22.2 7.8-43.8 25.7-57 69.7-51.1 109.9-134.5 105.1-222.4C444.1 113.8 355.6 0 246.6 0zM864 0c-17.7 0-32 14.3-32 32v270.6c0 34-12.9 66.9-36.7 91.1-6.6 6.7-13.8 12.6-21.4 17.6-4.6 3-9.4 5.7-14.4 8.1-28.1 13.5-44.3 43.7-40.9 74.8l0.1 1.3 43 389.4c0.6 22.5-7.1 43.7-21.1 58.3-7.3 7.7-19.7 16.8-36.6 16.8s-29.3-9.2-36.6-16.8c-14-14.6-21.7-35.7-21.1-58.1L692 495.6c0.3-2.9 0.5-5.8 0.5-8.6 0-28.5-16.6-54.8-43-67.1-4.2-2-8.3-4.2-12.3-6.7-8.7-5.3-16.8-11.7-24.1-19.1-24-24.2-37.1-57.2-37.1-91.3V32c0-17.7-14.3-32-32-32s-32 14.3-32 32v272c0 73.7 41.5 137.6 102.4 169.8 8.9 4.7 14 14.3 12.8 24.3l-44.8 382c-3.5 78.2 52 143.8 121.6 143.8s125.1-65.6 121.6-143.8l-42.3-383c-1.1-10.1 4-19.9 12.9-24.8 16-8.8 30.7-19.8 43.5-32.7C874.5 405 896 357 896 304V32c0-17.7-14.3-32-32-32zM656 320c-17.7 0-32-14.3-32-32V32c0-17.7 14.3-32 32-32s32 14.3 32 32v256c0 17.7-14.3 32-32 32zM752 320c-17.7 0-32-14.3-32-32V32c0-17.7 14.3-32 32-32s32 14.3 32 32v256c0 17.7-14.3 32-32 32z" /></svg>