<?xml version="1.0" standalone="no"?><!DOCTYPE svg PUBLIC "-//W3C//DTD SVG 1.1//EN" "http://www.w3.org/Graphics/SVG/1.1/DTD/svg11.dtd"><svg class="icon" width="200px" height="200.00px" viewBox="0 0 1024 1024" version="1.1" xmlns="http://www.w3.org/2000/svg"><path fill="#333333" d="M313.319402 535.947661c9.799043 109.489308 29.59711 340.966702 29.59711 383.162582 0.499951 4.19959 0.599941 8.39918 0.499951 12.59877-1.299873 51.394981-43.395762 92.190997-94.490772 92.190997h-2.399766c-0.699932 0-1.399863-0.09999-2.099795-0.09999-55.39459-3.699639-97.290499-51.694952-93.59086-107.089543 0-32.896787 20.997949-269.473684 30.896983-382.862611 1.999805-22.297822-7.899229-43.995704-25.997461-57.194414C85.441656 425.758422 44.64564 342.366566 49.04521 254.175178 49.04521 113.788888 137.536569 0 246.525925 0s197.580705 113.788888 197.580705 256.574944c4.799531 87.891417-35.396543 171.183283-105.089737 222.378283-17.998242 13.098721-27.697295 34.796602-25.697491 56.994434zM863.965628 0c17.698272 0 31.996875 14.298604 31.996876 31.996875v271.97344c0 52.994825-21.497901 100.990138-56.194513 135.78674-12.79875 12.79875-27.497315 23.897666-43.495752 32.696807-8.899131 4.899522-14.098623 14.698565-12.89874 24.797578l42.295869 382.962602c3.499658 78.192364-51.994922 143.785958-121.588126 143.785958S578.993458 958.406406 582.493116 880.214042l44.795625-381.962699c1.199883-9.999024-3.899619-19.598086-12.79875-24.297628-60.994044-32.396836-102.489991-96.290597-102.489991-169.9834V31.996875c0-17.698272 14.298604-31.996875 31.996875-31.996875s31.996875 14.298604 31.996876 31.996875v263.974222c0 13.298701 10.698955 23.997656 23.997656 23.997656s23.997656-10.698955 23.997657-23.997656V31.996875c0-17.698272 14.298604-31.996875 31.996875-31.996875s31.996875 14.298604 31.996875 31.996875v271.97344c0 8.799141 7.199297 15.998438 15.998438 15.998438s15.998438-7.199297 15.998437-15.998438V31.996875c0-17.698272 14.298604-31.996875 31.996876-31.996875s31.996875 14.298604 31.996875 31.996875v263.974222c0 13.298701 10.698955 23.997656 23.997657 23.997656s23.997656-10.698955 23.997656-23.997656V31.996875c0-17.698272 14.298604-31.996875 31.996875-31.996875z" /></svg>