<?xml version="1.0" standalone="no"?><!DOCTYPE svg PUBLIC "-//W3C//DTD SVG 1.1//EN" "http://www.w3.org/Graphics/SVG/1.1/DTD/svg11.dtd"><svg class="icon" width="200px" height="200.00px" viewBox="0 0 1024 1024" version="1.1" xmlns="http://www.w3.org/2000/svg"><path fill="#333333" d="M693 64h203c35.3 0 64 28.7 64 64v203c0 17-6.7 33.3-18.7 45.3L386.9 930.6c-1.6 1.6-4.1 1.6-5.7 0L93.4 642.7c-1.6-1.6-1.6-4.1 0-5.7L647.7 82.7C659.7 70.7 676 64 693 64zM2.9 642.7l378.4 378.4c1.6 1.6 4.1 1.6 5.7 0l599.6-599.6c24-24 37.5-56.6 37.5-90.5V128c0-70.7-57.3-128-128-128H693c-33.9 0-66.5 13.5-90.5 37.5L2.9 637.1c-1.6 1.6-1.6 4.1 0 5.6zM764 200c-15.4 0-30.7 5.9-42.4 17.6-23.4 23.4-23.4 61.4 0 84.9 11.7 11.7 27.1 17.6 42.4 17.6s30.7-5.9 42.4-17.6c23.4-23.4 23.4-61.4 0-84.9-11.7-11.7-27-17.6-42.4-17.6zM467.1 115.1L6.8 575.4c-2.5 2.6-6.8 0.8-6.8-2.8v-54.4c0-17 6.7-33.3 18.7-45.3L376.6 115c25-24.9 65.5-24.9 90.5 0.1z" /></svg>