<?xml version="1.0" standalone="no"?><!DOCTYPE svg PUBLIC "-//W3C//DTD SVG 1.1//EN" "http://www.w3.org/Graphics/SVG/1.1/DTD/svg11.dtd"><svg class="icon" width="200px" height="200.00px" viewBox="0 0 1024 1024" version="1.1" xmlns="http://www.w3.org/2000/svg"><path fill="#333333" d="M863.806896 163.593281c-1.899573 86.280618-72.883628 156.064942-159.164246 156.364874-43.590208 0.199955-83.081337-16.996182-112.074823-45.089871-5.098855-4.998877-12.99708-5.998652-19.195688-2.399461L321.22878 418.036123c-6.398563 3.699169-9.397889 11.197485-7.398338 18.29589 4.199057 14.796676 6.298585 30.393173 5.998652 46.589534-1.599641 85.880708-74.483268 157.264672-160.363976 156.96474C71.184949 639.686332-0.298993 567.80248 0.00094 479.422333 0.300873 391.542075 72.284702 319.858177 160.064983 319.958155c41.590657 0 79.482145 15.896429 107.875767 41.990567 5.198832 4.698944 12.797125 5.598742 18.795778 2.099529l254.442842-146.867008c6.198608-3.599191 9.297911-10.897552 7.498316-17.796003-3.299259-13.097058-4.998877-26.893959-4.8989-40.990792C544.878539 69.014527 617.762167-1.669595 707.042111 0.030023 795.122325 1.729641 865.706469 74.613269 863.806896 163.593281zM1023.770962 560.204186c-0.199955 88.580101-73.283538 160.763886-161.963617 159.664134-42.190522-0.499888-80.381943-17.296115-108.675587-44.390029-5.198832-4.8989-12.897103-5.898675-19.095711-2.299483l-249.24401 143.967659c-5.898675 3.399236-8.997979 10.197709-7.69827 16.896205 1.999551 10.597619 2.999326 21.495171 2.799371 32.692656-1.499663 87.380371-72.583695 157.264672-159.964066 157.264672-87.280393 0-158.264448-69.984279-159.864089-156.96474-1.599641-88.180191 69.184458-161.663684 157.36465-162.963392 47.689287-0.699843 90.67963 19.395643 120.37296 51.788367 5.098855 5.498765 13.297013 6.89845 19.795553 3.099303l243.845223-140.768378c6.198608-3.599191 9.297911-10.897552 7.498315-17.89598-3.699169-14.296788-5.498765-29.393397-4.998877-44.889916 2.499439-86.980461 73.18356-155.365099 160.164021-155.265121 88.280169-0.099978 159.864088 71.683897 159.664134 160.064043z" /></svg>