<?xml version="1.0" standalone="no"?><!DOCTYPE svg PUBLIC "-//W3C//DTD SVG 1.1//EN" "http://www.w3.org/Graphics/SVG/1.1/DTD/svg11.dtd"><svg class="icon" width="200px" height="199.03px" viewBox="0 0 1029 1024" version="1.1" xmlns="http://www.w3.org/2000/svg"><path fill="#333333" d="M996.2 515.2c-11.5-11.4-36.4-19.8-57.7-25.3-22.6-5.8-40.2-23.7-45.9-46.4l-43-171.8c-7.6-31.5-25.1-57.9-52.2-79.1-27.1-21.2-57-31.9-89.9-31.9H643.1V48c0-4.8-1.4-8.5-4.5-11.6-3-3.1-6.9-4.5-11.6-4.5H401.9c-4.8 0-8.5 1.4-11.6 4.5-3.1 3-4.5 7-4.5 11.6v112.5h-64.3c-32.9 0-62.8 10.7-89.9 31.9-27.1 21.2-44.6 47.7-52.2 79.1l-43 171.8c-5.7 22.7-23.3 40.5-45.9 46.4-21.3 5.5-46.1 13.9-57.6 25.3-21.9 22-32.9 48.6-32.9 79.8v193c0 4.8 1.4 8.5 4.5 11.6 3 3.1 7 4.5 11.6 4.5h48v32.4c0 26.8 9.4 49.7 28.2 68.3 18.8 18.7 41.6 28.2 68.4 28.2 26.9 0 49.7-9.5 68.4-28.2 18.6-18.8 28.2-41.7 28.2-68.4V804h514.3v32.2c0 26.9 9.4 49.6 28.2 68.4 18.8 18.7 41.5 28.2 68.4 28.2 26.9 0 49.6-9.5 68.4-28.2 18.6-18.8 28.2-41.7 28.2-68.4V804h48.2c4.8 0 8.5-1.4 11.6-4.5 3.1-3 4.5-6.9 4.5-11.6V595c0-31.3-10.9-57.8-32.9-79.8zM104.1 586.4c15.7-15.7 34.6-23.5 56.7-23.5s40.9 7.7 56.7 23.5c15.7 15.7 23.5 34.6 23.5 56.7s-7.7 40.9-23.5 56.7c-15.7 15.8-34.6 23.5-56.7 23.5s-40.9-7.7-56.7-23.5c-15.7-15.7-23.5-34.5-23.5-56.7 0-22.1 7.7-40.9 23.5-56.7z m165.2-143.8L304 303c0.6-2.6 3-5.5 7.1-8.8 4-3.2 7.5-4.8 10.5-4.8H707.1c3.1 0 6.4 1.5 10.5 4.8 4 3.2 6.4 6 7.1 8.8l34.9 139.5c5.1 20.2-10.2 39.8-31 39.8H300.3c-20.8 0-36.1-19.5-31-39.7z m542.1 143.8c15.7-15.7 34.6-23.5 56.7-23.5s40.9 7.7 56.7 23.5c15.7 15.7 23.5 34.6 23.5 56.7s-7.7 40.9-23.5 56.7c-15.7 15.8-34.6 23.5-56.7 23.5s-40.9-7.7-56.7-23.5c-15.6-15.7-23.5-34.6-23.5-56.7s7.7-40.9 23.5-56.7z" /></svg>