<?xml version="1.0" standalone="no"?><!DOCTYPE svg PUBLIC "-//W3C//DTD SVG 1.1//EN" "http://www.w3.org/Graphics/SVG/1.1/DTD/svg11.dtd"><svg class="icon" width="200px" height="200.00px" viewBox="0 0 1024 1024" version="1.1" xmlns="http://www.w3.org/2000/svg"><path fill="#333333" d="M610.492452 286.109123c38.099529-29.799632 62.29923-76.399055 61.49924-128.698409C670.591709 69.611799 597.692611-1.087327 509.893696 0.01266 422.494777 1.112646 351.995648 72.311766 351.995648 160.010682c0 51.199367 24.099702 96.798803 61.49924 126.098441C366.795465 317.808731 335.995846 371.308069 335.995846 432.007319c0 17.699781 14.299823 31.999604 31.999604 31.999604h287.99644c17.699781 0 31.999604-14.299823 31.999604-31.999604 0-60.69925-30.69962-114.198588-77.499042-145.898196zM415.994857 160.010682c0-52.899346 43.099467-95.998813 95.998813-95.998813s95.998813 43.099467 95.998813 95.998813-43.099467 95.998813-95.998813 95.998813-95.998813-43.099467-95.998813-95.998813z m-0.099999 239.997033c-5.69993 0-9.599881-5.799928-7.399908-11.099863 5.599931-13.299836 13.699831-25.599684 24.1997-36.099554C453.994387 331.60856 482.09404 320.008704 511.99367 320.008704s57.999283 11.599857 79.199021 32.799594c10.49987 10.49987 18.699769 22.799718 24.199701 36.099554 2.199973 5.299934-1.59998 11.099863-7.399909 11.099863H415.894858zM946.488298 846.102199c38.099529-29.799632 62.29923-76.399055 61.49924-128.698408-1.399983-87.798915-74.299081-158.49804-161.997997-157.398055-87.498918 1.099986-157.998047 72.299106-157.998047 159.998022 0 51.199367 24.099702 96.798803 61.49924 126.098441C702.791311 877.801807 671.991692 931.301146 671.991692 992.000396c0 17.699781 14.299823 31.999604 31.999604 31.999604h287.99644c17.699781 0 31.999604-14.299823 31.999604-31.999604 0-60.69925-30.69962-114.198588-77.499042-145.898197zM751.990703 720.003758c0-52.899346 43.099467-95.998813 95.998813-95.998813s95.998813 43.099467 95.998813 95.998813-43.099467 95.998813-95.998813 95.998814-95.998813-43.099467-95.998813-95.998814z m-0.099999 239.997033c-5.69993 0-9.599881-5.799928-7.399908-11.099863 5.599931-13.299836 13.699831-25.599684 24.1997-36.099553C789.990233 891.601637 818.089886 880.00178 847.989516 880.00178s57.999283 11.599857 79.199021 32.799595c10.49987 10.49987 18.699769 22.799718 24.199701 36.099553 2.199973 5.299934-1.59998 11.099863-7.399909 11.099863H751.890704zM274.496606 846.102199c38.099529-29.799632 62.29923-76.399055 61.49924-128.698408-1.399983-87.798915-74.299081-158.49804-161.997997-157.398055-87.498918 1.099986-157.998047 72.299106-157.998047 159.998022 0 51.199367 24.099702 96.798803 61.49924 126.098441C30.799619 877.801807 0 931.301146 0 992.000396c0 17.699781 14.299823 31.999604 31.999604 31.999604h287.99644c17.699781 0 31.999604-14.299823 31.999604-31.999604 0-60.69925-30.69962-114.198588-77.499042-145.898197zM79.999011 720.003758c0-52.899346 43.099467-95.998813 95.998813-95.998813s95.998813 43.099467 95.998813 95.998813-43.099467 95.998813-95.998813 95.998814-95.998813-43.099467-95.998813-95.998814z m-0.099999 239.997033c-5.69993 0-9.599881-5.799928-7.399908-11.099863 5.599931-13.299836 13.699831-25.599684 24.1997-36.099553C117.998541 891.601637 146.098194 880.00178 175.997824 880.00178s57.999283 11.599857 79.199021 32.799595c10.49987 10.49987 18.699769 22.799718 24.199701 36.099553 2.199973 5.299934-1.59998 11.099863-7.399909 11.099863H79.899012zM635.292146 720.003758c-5.899927 10.299873-16.699794 15.999802-27.699658 15.999803-5.399933 0-10.899865-1.399983-15.999802-4.299947L511.99367 685.804181l-79.599016 45.899433c-15.299811 8.799891-34.899569 3.599955-43.69946-11.699856-2.899964-4.999938-4.299947-10.49987-4.299946-15.999802 0-11.099863 5.69993-21.79973 15.999802-27.699657l79.599016-45.899433V544.005934c0-17.699781 14.299823-31.999604 31.999604-31.999604 8.799891 0 16.799792 3.599955 22.599721 9.399884 5.799928 5.799928 9.399884 13.799829 9.399883 22.59972v86.298933l79.599016 45.899433c15.299811 8.89989 20.499747 28.499648 11.699856 43.799458z" /></svg>