<?xml version="1.0" standalone="no"?><!DOCTYPE svg PUBLIC "-//W3C//DTD SVG 1.1//EN" "http://www.w3.org/Graphics/SVG/1.1/DTD/svg11.dtd"><svg class="icon" width="200px" height="200.00px" viewBox="0 0 1024 1024" version="1.1" xmlns="http://www.w3.org/2000/svg"><path fill="#333333" d="M1019.2 718.7c-9.1-28.3-30.4-45.3-55.8-57.8-17.6-8.6-36.3-14.8-54.1-23.3-13.7-6.4-26.8-13.9-39.4-22.4-0.6-0.4-1.3-0.8-1.9-1.3-5.6-3.9-10.4-12-11.4-18.8-2.1-13.9-1.5-28.2-1.6-42.4 0.1-2.6 1-5.1 2.6-7.1 13.2-14.1 19.2-31.5 23.7-49.7 0.9-3 2.8-5.7 5.5-7.4 14.9-8.4 21.8-37.3 11.2-50.7-3.5-4.4-3.5-8-2.1-12.7 7.6-25.6 11.1-51.5 9-78.3-0.1-1.4-0.3-2.8-0.5-4.2-3.7-28.4-20.5-47.7-48.6-54.4-2.5-0.6-4.8-2.8-7.2-4.1-7-4.3-13.6-11.2-21.2-12.5-11.5-2.1-23.4-3.6-35.1-3.6-3.3 0-6.6 0.1-9.9 0.4-55.2 4.2-87.3 33.8-89.4 92.3-0.2 5-0.1 10 0.2 14.9 0.9 17.3 4.1 34.2 7.7 51.2 0.5 3.6-0.3 7.3-2.2 10.3-10.2 14.1-4.2 43 10.9 51.7 2.3 1.4 4.9 4.1 5.5 6.5 4.5 18.9 10.8 36.6 24.5 51 1.5 1.8 2.3 4 2.2 6.4-0.1 9.5-0.3 19-0.6 28.8-0.1 4.5-0.2 9-0.3 13.6 0 1.4-0.1 2.8-0.1 4.2 0 1.9-0.1 3.8-0.1 5.7-0.3 2-4.6 6.3-9.3 10.4-10.8-4.2-21.7-8.5-32.5-12.8-24.6-9.7-49-20-73.8-28.8-4.3-1.5-14.2-22.7-16-31-0.8-3.7-3.9-6.8-5.2-10.6-2.1-6.3-5.8-9.5-12.8-10.2-9.7-1-10.7-3.6-7-12.8 0.7-2.3 1.9-4.3 3.4-6.1 4.8-4.8 8.1-10 10.4-15.6 2.9-7.3 4-15.2 4-23.7v-0.1c-0.1-13.5 4.2-25.1 18.5-30.9 3.8-1.6 7.6-6.2 9-10.3 8.9-25.1 14.5-50.5-0.2-75.7-1.4-2.4-2.6-5.5-2.5-8.1 0.6-18 1.1-36 2.5-53.9 1.8-23.6 0.5-46.5-11.5-67.8-4.2-7.4-10.1-11.2-18.7-12.4-5.8-0.8-12.3-3.2-16.8-7-19.2-16.5-41.2-22.2-64.8-22.2-3.3 0-6.6 0.1-9.9 0.3-24.9 1.5-47.8 10.4-70.9 19.3-23.7 9.1-39.2 25.6-46.5 49.6-7.3 23.6-6.1 47.6-2.5 71.6 2.2 14.8 7 29.3-3.2 43-0.7 1.1-0.9 2.5-0.6 3.8 2.5 18.9 4.5 37.8 8.1 56.5 1.8 9.5 8.2 16 18.8 17.7 2.3 0.3 5.6 4 5.9 6.4 1 7.1 1.4 14.3 2 21.4 0.5 5.6 1 11.2 1.9 16.8 0.8 5.2 3.3 10.2 5.8 15 0.6 1.1 1.2 2.2 1.7 3.3 2.2 4.3 6 7.9 8.3 12.2 2.6 4.6 2.4 8.6-4.5 9.2-5.2 0.4-7.8 3.8-10.1 8.5-4.5 9.4-9.7 18.6-15 27.6-4 6.8-9.9 10.9-17.9 12.8-9.4 2.1-18.7 5-27.6 8.6-28.6 11.4-47.7 22.9-69.9 34.4-3.8-1.9-6.3-4.6-7-8.6 0-1.9-0.1-3.8-0.1-5.7 0-1.4-0.1-2.8-0.1-4.2-0.1-4.6-0.2-9.2-0.3-13.6-0.3-9.8-0.5-19.3-0.6-28.8-0.1-2.3 0.7-4.6 2.2-6.4 13.7-14.5 20.1-32.2 24.5-51 0.6-2.4 3.2-5.2 5.5-6.5 15.1-8.7 21.1-37.5 10.8-51.7-2-3.1-2.8-6.7-2.2-10.3 3.6-16.9 6.8-33.9 7.7-51.2 0.3-5 0.3-9.9 0.2-14.9-2.1-58.5-34.2-88.1-89.4-92.3-3.3-0.3-6.6-0.4-9.9-0.4-11.7 0-23.6 1.5-35.1 3.6-7.6 1.4-14.1 8.2-21.1 12.5-2.3 1.4-4.7 3.5-7.2 4.1-28 6.6-44.9 26-48.6 54.4-0.2 1.4-0.3 2.8-0.5 4.2-2.1 26.8 1.4 52.7 9 78.3 1.4 4.8 1.4 8.3-2.1 12.7-10.7 13.4-3.7 42.3 11.2 50.7 2.7 1.7 4.6 4.3 5.5 7.4 4.5 18.2 10.6 35.6 23.7 49.7 1.6 2 2.5 4.5 2.6 7.1-0.1 14.1 0.5 28.5-1.6 42.4-1 6.8-5.8 14.9-11.4 18.8-0.6 0.4-1.3 0.9-1.9 1.3-12.5 8.5-25.7 16-39.4 22.4-17.7 8.5-36.5 14.7-54.1 23.3-25.4 12.4-46.7 29.5-55.8 57.8-2.5 7.9-4 16.2-5.8 24.6v35.3c0.3 0.1 1.9 0.7 4.9 1.5 16 4.7 71.5 18.7 178.4 21.2 5.2 0.1 10.5 0.2 16 0.3h16c-0.1 9.2-0.2 16.2-0.3 19.5 24.7 7.3 116.8 30.4 298.4 30.4 182.1 0 272.3-23.2 296.1-30.4-0.1-3.2-0.2-10.2-0.3-19.4h16.4c5.5-0.1 10.8-0.2 16-0.3 106.9-2.5 162.5-16.5 178.4-21.2 2.9-0.9 4.5-1.4 4.9-1.5v-35.3c-1.6-8.3-3.1-16.6-5.7-24.5z m-803.2-43.9c0.1 7.6 0 34.3-0.1 62.9h-15.9c-4.6 0-9.5-0.1-15-0.3-48.5-1.1-85.3-4.8-111.6-8.6 3.3-3 8.5-6.5 16.5-10.4 7.1-3.5 15.2-6.8 23.8-10.2 9.5-3.8 19.3-7.8 29.5-12.7 16.5-7.8 32.6-16.9 47.7-27.2l2.7-1.8c13.3-9.3 24.3-22.9 31.2-38.2 1.6 4.4 3.9 9.5 7.2 14.8-10.6 7.5-16.2 17.6-16 31.7z m51.9-302.4c-0.6 12.3-3 25.3-6.3 41.1l-0.4 1.9-0.3 1.9c-1.7 11.2-0.9 22.6 2.1 33.3-7.1 8.5-12.3 18.3-15 28.9l-0.2 0.6-0.1 0.6c-2.7 11.5-5.4 18.2-8.7 21.7l-1 1.1-1 1.1c-4.2 4.9-7.7 10.2-10.5 15.9-2.6-5.4-5.8-10.5-9.6-15.1l-1.4-1.7-1.5-1.6c-3.7-4-6.6-14.2-8.4-21.5l-0.2-0.9-0.2-0.9c-2.8-10.2-7.8-19.6-14.3-27.8 3.5-11.9 4.6-26.6-0.4-43.8v-0.4c-5.8-19.5-7.9-37.4-6.5-54.9 0-0.5 0.1-0.8 0.1-0.8v-0.6-0.3l0.3-0.1 0.5-0.1c12.6-3.2 21.4-9.2 25.3-11.8 3-1.9 5.7-3.7 8-5.4 5.4-0.7 10.2-1.1 14.5-1.1 1.7 0 3.3 0.1 4.8 0.2h0.2c11.5 0.9 20.5 3.6 24.1 7.2 3.4 3.4 5.7 12.2 6.2 23.5 0.1 3.3 0 6.5-0.1 9.8z m245.7 415.1c-74.8 0-141.9-4-199.4-11.8-13.1-1.8-24.6-3.6-34.5-5.4V769c0.2-28 0.3-59.9 0.3-79.3 15.6-6.4 28.7-12.8 40.5-18.9 5.9-3 11.4-6 16.7-8.8 15.8-8.5 29.4-15.8 47.8-23.1h0.2c5.8-2.3 11.8-4.2 17.9-5.6l0.3-0.1 0.3-0.1c25.4-6 45.5-20.8 58.4-42.7l0.1-0.1c2.8-4.9 5.9-10.2 9-15.9 9.6-6.2 17.5-14.7 23-24.9 11.2-21 10.6-45.6-1.6-67.6-3.3-6-6.8-10.6-9-13.5-0.1-0.2-0.2-0.4-0.3-0.5v-0.2-0.1c-0.3-2.5-0.5-5-0.7-7.4-0.1-1.5-0.2-2.9-0.3-4.4-0.5-6.1-1-13-2-20.3v-0.2c-2.6-19.3-13.4-36.5-28.5-47.8-0.7-5-1.4-10.2-2-15.5 8.5-24.7 4.5-47.4 2.3-59.9-0.3-1.8-0.6-3.6-0.8-5-3-19.8-2.8-32.7 0.4-43.3v-0.2c1.5-4.8 2.7-6.4 8.2-8.6h0.2l1-0.4c19.4-7.5 36.1-13.9 50.7-14.8 2.1-0.1 4.2-0.2 6-0.2 13.4 0 19.1 3.3 23.1 6.8l0.1 0.1h0.1c7.2 6.1 15.6 11.2 24.8 15 0.4 4.5 0.5 10.5-0.1 18.6-1.3 17.2-1.9 34.1-2.5 50.4l-0.2 6c-0.5 14.2 3.2 28.8 10.9 42.2l0.2 0.3 0.2 0.3c0.2 0.3 0.2 0.4 0.3 0.5 0.1 0.5 0.3 2.3-0.8 7.1-22.4 17.5-35.2 44.4-35.4 75.9-6 7.3-10.6 15.5-13.8 24.4-11.2 29.2-4.3 51 3.6 64.3 4.9 8.2 12.7 17.6 25.2 24.6 2.2 5.4 4.4 10 6 13.3 8.1 16.3 20.5 36.1 44.8 44.7 16.6 5.9 33.2 12.6 50.8 19.6 6.8 2.7 13.8 5.6 20.8 8.3 13.2 5.3 26.6 10.5 39.5 15.6 8.9 3.5 18.1 7.1 27.1 10.6l0.6 0.2 0.6 0.2c0.6 0.2 1.2 0.4 1.7 0.7-0.1 19 0 52.1 0.1 80.9-44.2 8.1-119.4 17.3-231.9 17.3zM787.2 503.4l-1-1.1c-3.3-3.5-6-10.2-8.7-21.7l-0.1-0.6-0.1-0.6c-2.7-10.5-7.9-20.4-15-28.9 3-10.7 3.8-22.1 2.1-33.3l-0.3-1.9-0.4-1.9c-3.3-15.8-5.7-28.8-6.3-41.1-0.2-3.3-0.2-6.5-0.1-9.5 0.4-11.3 2.7-20.1 6.2-23.5 3.6-3.6 12.6-6.3 24.1-7.2h0.2c1.5-0.1 3.1-0.2 4.8-0.2 4.3 0 9.1 0.4 14.5 1.1 2.3 1.6 4.9 3.5 8 5.4 3.9 2.7 12.7 8.6 25.3 11.8l0.5 0.1 0.3 0.1V351.3s0 0.2 0.1 0.8c1.4 17.5-0.8 35.5-6.5 54.9v0.4c-5 17.1-3.9 31.8-0.4 43.8-6.6 8.1-11.5 17.5-14.3 27.8l-0.2 0.9-0.2 0.9c-1.8 7.3-4.7 17.5-8.4 21.5l-1.5 1.6-1.4 1.7c-3.8 4.6-7 9.7-9.6 15.1-2.8-5.7-6.3-11-10.5-15.9l-1.1-1.4z m53.1 233.9c-5.4 0.1-10.3 0.2-15 0.3h-16.3c-0.1-27.5-0.1-52.8 0.1-59.9 0.4-15.8-5.3-26.6-15.7-34.8 3.2-5.2 5.5-10.3 7.1-14.7 6.9 15.3 17.8 28.9 31.2 38.2l2.7 1.8c15.1 10.3 31.2 19.4 47.7 27.2 10.3 4.9 20 8.9 29.5 12.7 8.6 3.5 16.7 6.8 23.8 10.2 8.1 3.9 13.2 7.4 16.5 10.4-26.3 3.9-63.2 7.5-111.6 8.6z" /></svg>