<?xml version="1.0" standalone="no"?><!DOCTYPE svg PUBLIC "-//W3C//DTD SVG 1.1//EN" "http://www.w3.org/Graphics/SVG/1.1/DTD/svg11.dtd"><svg class="icon" width="200px" height="200.00px" viewBox="0 0 1024 1024" version="1.1" xmlns="http://www.w3.org/2000/svg"><path fill="#333333" d="M687.991494 432.007319c0 17.699781-14.299823 31.999604-31.999604 31.999604H367.99545c-8.799891 0-16.799792-3.599955-22.59972-9.399883-5.799928-5.799928-9.399884-13.799829-9.399884-22.599721 0-60.69925 30.799619-114.298587 77.499042-145.898196C376.09535 256.809485 351.995648 211.210049 351.995648 160.010682 351.995648 72.311766 422.494777 1.112646 509.893696 0.01266 597.692611-1.087327 670.591709 69.611799 671.991692 157.410714c0.79999 52.299353-23.399711 98.898777-61.49924 128.698409 23.399711 15.799805 42.799471 37.099541 56.299304 61.999233 13.499833 24.999691 21.199738 53.499339 21.199738 83.898963zM1023.98734 992.000396c0 17.699781-14.299823 31.999604-31.999604 31.999604H703.991296c-8.799891 0-16.799792-3.599955-22.59972-9.399884-5.799928-5.799928-9.399884-13.799829-9.399884-22.59972 0-60.69925 30.799619-114.298587 77.499042-145.898197C712.091196 816.802562 687.991494 771.203125 687.991494 720.003758c0-87.698916 70.499128-158.898035 157.898048-159.998022 87.798915-1.099986 160.698013 69.59914 162.097996 157.398055 0.79999 52.299353-23.399711 98.898777-61.49924 128.698408 23.399711 15.799805 42.799471 37.099541 56.299304 61.999234 13.499833 24.999691 21.199738 53.499339 21.199738 83.898963zM351.995648 992.000396c0 17.699781-14.299823 31.999604-31.999604 31.999604H31.999604c-8.799891 0-16.799792-3.599955-22.59972-9.399884-5.799928-5.799928-9.399884-13.799829-9.399884-22.59972 0-60.69925 30.799619-114.298587 77.499042-145.898197C40.099504 816.802562 15.999802 771.203125 15.999802 720.003758c0-87.698916 70.499128-158.898035 157.898048-159.998022 87.798915-1.099986 160.698013 69.59914 162.097996 157.398055 0.79999 52.299353-23.399711 98.898777-61.49924 128.698408 23.399711 15.799805 42.799471 37.099541 56.299304 61.999234 13.499833 24.999691 21.199738 53.499339 21.199738 83.898963zM635.292146 720.003758c-5.899927 10.299873-16.699794 15.999802-27.699658 15.999803-5.399933 0-10.899865-1.399983-15.999802-4.299947L511.99367 685.804181l-79.599016 45.899433c-15.299811 8.799891-34.899569 3.599955-43.69946-11.699856-2.899964-4.999938-4.299947-10.49987-4.299946-15.999802 0-11.099863 5.69993-21.79973 15.999802-27.699657l79.599016-45.899433V544.005934c0-17.699781 14.299823-31.999604 31.999604-31.999604 8.799891 0 16.799792 3.599955 22.599721 9.399884 5.799928 5.799928 9.399884 13.799829 9.399883 22.59972v86.298933l79.599016 45.899433c15.299811 8.89989 20.499747 28.499648 11.699856 43.799458z" /></svg>