<?xml version="1.0" standalone="no"?><!DOCTYPE svg PUBLIC "-//W3C//DTD SVG 1.1//EN" "http://www.w3.org/Graphics/SVG/1.1/DTD/svg11.dtd"><svg class="icon" width="200px" height="200.00px" viewBox="0 0 1024 1024" version="1.1" xmlns="http://www.w3.org/2000/svg"><path fill="#333333" d="M1012.701142 360.664779c-7.999219-7.999219-18.598184-12.098818-29.097158-11.998828-4.19959 0-8.49917 0.699932-12.59877 1.999804-0.499951 0.19998-1.099893 0.299971-1.599843 0.299971-1.299873 0-2.599746-0.499951-3.599649-1.499854-1.399863-1.399863-1.799824-3.399668-1.199883-5.199492 4.499561-14.198613 1.199883-30.397032-10.099013-41.695928-7.999219-7.999219-18.598184-11.998828-29.097159-11.998828-4.19959 0-8.49917 0.699932-12.59877 1.999805-0.499951 0.19998-1.099893 0.299971-1.599843 0.29997-1.299873 0-2.599746-0.499951-3.599649-1.499853-1.399863-1.399863-1.799824-3.399668-1.199883-5.199492 4.499561-14.198613 1.199883-30.397032-10.099013-41.695929-7.999219-7.999219-18.598184-11.998828-29.097159-11.998828-4.19959 0-8.49917 0.699932-12.59877 1.999805-0.499951 0.19998-1.099893 0.299971-1.599843 0.299971-1.299873 0-2.599746-0.499951-3.599649-1.499854-1.399863-1.399863-1.799824-3.399668-1.199883-5.199492 4.499561-14.198613 1.199883-30.397032-10.099013-41.695928-7.999219-7.999219-18.598184-11.998828-29.097159-11.998829-4.19959 0-8.49917 0.699932-12.59877 1.999805-0.499951 0.19998-1.099893 0.299971-1.599843 0.299971-1.299873 0-2.599746-0.499951-3.599649-1.499854-1.399863-1.399863-1.799824-3.399668-1.199883-5.199492 4.499561-14.198613 1.199883-30.397032-10.099013-41.695928-7.999219-7.999219-18.598184-11.998828-29.097159-11.998828-4.29958 0-8.49917 0.699932-12.59877 1.999804-0.499951 0.19998-1.099893 0.299971-1.599843 0.299971-1.299873 0-2.599746-0.499951-3.599649-1.499853-1.399863-1.399863-1.799824-3.399668-1.199883-5.199493 4.499561-14.198613 1.199883-30.397032-10.099013-41.695928-7.999219-7.999219-18.598184-11.998828-29.097159-11.998828-4.19959 0-8.49917 0.699932-12.598769 1.999805-0.499951 0.19998-1.099893 0.299971-1.599844 0.29997-1.299873 0-2.599746-0.499951-3.599649-1.499853-1.399863-1.399863-1.799824-3.399668-1.199883-5.199492 4.499561-14.198613 1.199883-30.397032-10.099013-41.695929-7.999219-7.999219-18.598184-11.998828-29.097159-11.998828-5.299482 0-10.498975 0.999902-15.498486 2.999707s-9.599063 4.999512-13.598672 8.999121l-593.342057 592.942096c-3.999609 3.999609-6.999316 8.69915-8.999121 13.598672-5.999414 14.898545-2.999707 32.496826 8.999121 44.595645 7.999219 7.999219 18.598184 11.998828 29.097159 11.998828 4.19959 0 8.49917-0.599941 12.598769-1.899814 0.499951-0.19998 1.099893-0.299971 1.599844-0.299971 1.299873 0 2.599746 0.499951 3.599649 1.499854 1.399863 1.399863 1.799824 3.399668 1.199882 5.199492-4.499561 14.198613-1.199883 30.397032 10.099014 41.695928 7.999219 7.999219 18.598184 11.998828 29.097159 11.998828 4.19959 0 8.49917-0.599941 12.598769-1.899814 0.499951-0.19998 1.099893-0.299971 1.599844-0.299971 1.299873 0 2.599746 0.499951 3.599649 1.499853 1.399863 1.399863 1.799824 3.399668 1.199882 5.199493-4.499561 14.198613-1.199883 30.397032 10.099014 41.695928 7.999219 7.999219 18.598184 11.998828 29.097159 11.998828 4.19959 0 8.49917-0.599941 12.598769-1.999805 0.499951-0.19998 1.099893-0.299971 1.599844-0.29997 1.299873 0 2.599746 0.499951 3.599649 1.499853 1.399863 1.399863 1.799824 3.399668 1.199882 5.199492-4.499561 14.198613-1.199883 30.397032 10.099014 41.595938 7.999219 7.999219 18.598184 12.098818 29.097159 12.098819 4.19959 0 8.49917-0.699932 12.598769-1.999805 0.499951-0.19998 1.099893-0.299971 1.599844-0.299971 1.299873 0 2.599746 0.499951 3.599649 1.499854 1.399863 1.399863 1.799824 3.399668 1.199882 5.199492-4.499561 14.198613-1.199883 30.397032 10.099014 41.695928 7.999219 7.999219 18.598184 11.998828 29.097159 11.998829 4.29958 0 8.49917-0.699932 12.598769-1.999805 0.499951-0.19998 1.099893-0.299971 1.599844-0.299971 1.299873 0 2.599746 0.499951 3.599649 1.499854 1.399863 1.399863 1.799824 3.399668 1.199882 5.199492-4.499561 14.198613-1.199883 30.397032 10.099014 41.595938 7.999219 7.999219 18.598184 12.098818 29.097159 12.098818 4.19959 0 8.49917-0.699932 12.598769-1.999804 0.499951-0.19998 1.099893-0.299971 1.599844-0.299971 1.299873 0 2.599746 0.499951 3.599648 1.499853 1.399863 1.399863 1.799824 3.399668 1.199883 5.199493-4.499561 14.198613-1.199883 30.397032 10.099014 41.695928 7.999219 7.999219 18.598184 11.998828 29.097159 11.998828 5.299482 0 10.498975-0.999902 15.498486-2.999707s9.599063-4.999512 13.598672-8.999121l36.996387-36.996387 556.44566-556.44566c3.999609-3.999609 6.999316-8.69915 8.999121-13.598672 5.999414-14.598574 2.899717-32.196856-9.099112-44.295674zM800.921824 540.147251L526.448628 814.620447c-12.498779 12.498779-32.796797 12.498779-45.295577 0L209.679563 543.146958c-12.498779-12.498779-12.498779-32.796797 0-45.295576l274.473196-274.473196c12.498779-12.498779 32.796797-12.498779 45.295576 0L800.921824 494.951665c12.498779 12.498779 12.498779 32.696807 0 45.195586z" /></svg>