<?xml version="1.0" standalone="no"?><!DOCTYPE svg PUBLIC "-//W3C//DTD SVG 1.1//EN" "http://www.w3.org/Graphics/SVG/1.1/DTD/svg11.dtd"><svg class="icon" width="200px" height="200.00px" viewBox="0 0 1024 1024" version="1.1" xmlns="http://www.w3.org/2000/svg"><path fill="#333333" d="M896 27.8c-21.3 3.9-42.6 7.5-64 10.8C726 54.9 619 63 512 63s-214-8.1-320-24.4c-21.4-3.3-42.7-6.9-64-10.8C94.5 21.6 61.1 14.6 27.8 6.7c-7.9-1.9-13.3 7.9-7.4 13.5 19.9 19.1 51 47.3 78 64.4 18.5 11.7 29.6 32.1 29.6 54v498.8c0 211.9 173.3 387.2 385.2 386.5 105.6-0.3 201.1-43.2 270.3-112.5C853 842 896 746 896 640V138.7c0-21.9 11.2-42.3 29.6-54 27-17.1 58.1-45.3 78-64.4 5.9-5.6 0.5-15.4-7.4-13.5-33.3 7.8-66.7 14.8-100.2 21zM832 640c0 43.2-8.5 85.1-25.1 124.5-16.1 38.1-39.2 72.3-68.6 101.7-29.4 29.4-63.6 52.5-101.7 68.6C597.1 951.5 555.2 960 512 960s-85.1-8.5-124.5-25.1c-38.1-16.1-72.3-39.2-101.7-68.6-29.4-29.4-52.5-63.6-68.6-101.7C200.5 725.1 192 683.2 192 640V121.7c0-5 4.5-8.8 9.5-7.9 81.9 15.1 164.7 24.1 247.6 27.2 17.2 0.6 30.9 14.7 30.9 32v419c0 8.8 3.6 16.8 9.4 22.6 6 5.9 14.2 9.6 23.4 9.4 17.5-0.4 31.3-15.1 31.3-32.6V173c0-17.3 13.7-31.3 30.9-32 82.9-3 165.7-12.1 247.6-27.2 4.9-0.9 9.5 2.9 9.5 7.9V640z" /></svg>