<?xml version="1.0" standalone="no"?><!DOCTYPE svg PUBLIC "-//W3C//DTD SVG 1.1//EN" "http://www.w3.org/Graphics/SVG/1.1/DTD/svg11.dtd"><svg class="icon" width="200px" height="200.00px" viewBox="0 0 1024 1024" version="1.1" xmlns="http://www.w3.org/2000/svg"><path fill="#333333" d="M875.8 53.4C825.8 17.8 765.4 0 695 0L329 0.1c-70.5 0-130.7 17.8-180.9 53.4C98 89.1 73 132.2 73 182.9v511.9c0 49.7 23.8 91.8 71.7 126.9 10.5 7.6 21.4 14.5 32.8 20.5 56.3 29.9 66.5 106.4 20.2 150.3-6 5.8-7.6 12.4-4.5 20 3.1 7.5 8.7 11.5 17.2 11.5h603.3c8.3 0 14.1-4 17.2-11.5 3.1-7.7 1.7-14.2-4.5-20-46.3-43.9-36.1-120.4 20.2-150.3 11.4-6.1 22.3-12.9 32.8-20.5 47.6-35 71.6-77.4 71.6-126.9v-512c0-50.7-25-93.8-75.2-129.4z m-34.7 353.5c0 17.7-14.3 32-32 32l-594.2-0.1c-17.7 0-32-14.3-32-32V178.3c0-17.7 14.3-32 32-32h594.2c17.7 0 32 14.3 32 32v228.6zM402.3 658.3c0-30.5 10.6-56.3 32-77.7 21.4-21.3 47.2-32 77.7-32s56.3 10.8 77.7 32c21.2 21.4 32 47.2 32 77.7s-10.8 56.5-32 77.7c-21.4 21.3-47.2 32-77.7 32s-56.5-10.6-77.7-32c-21.4-21.2-32-47.2-32-77.7z" /></svg>