<?xml version="1.0" standalone="no"?><!DOCTYPE svg PUBLIC "-//W3C//DTD SVG 1.1//EN" "http://www.w3.org/Graphics/SVG/1.1/DTD/svg11.dtd"><svg class="icon" width="200px" height="200.00px" viewBox="0 0 1024 1024" version="1.1" xmlns="http://www.w3.org/2000/svg"><path fill="#333333" d="M671.672547 127.738037h-79.836274c-35.227756 0-63.869019-28.641263-63.869018-63.869018V35.926323c0-2.195498 1.796316-3.991814 3.991813-3.991814h107.778969c17.663775 0 31.934509-14.270734 31.93451-31.934509H352.327453c0 17.663775 14.270734 31.934509 31.93451 31.934509h107.778969c2.195498 0 3.991814 1.796316 3.991813 3.991814v27.942696c0 35.227756-28.641263 63.869019-63.869018 63.869018h-79.836274c-70.555307 0-127.738037 57.182731-127.738037 127.738037v590.788423c0 35.227756 28.641263 63.869019 63.869019 63.869018h71.353669l-35.626937 80.13566c-5.388948 12.075236 0.099795 26.246175 12.175032 31.635123 3.193451 1.397135 6.486697 2.095702 9.680148 2.095702 9.181171 0 17.963161-5.289153 21.954975-14.270734L412.204658 910.133515h199.590684l44.309131 99.595751c5.388948 12.075236 19.559887 17.56398 31.635124 12.175032 8.881785-3.991814 14.270734-12.773804 14.270733-21.954975 0-3.293246-0.698567-6.586493-2.095702-9.680148L664.187896 910.133515H735.541565c35.227756 0 63.869019-28.641263 63.869019-63.869018V255.476074c0-70.555307-57.182731-127.738037-127.738037-127.738037z m63.869018 714.534646c0 2.195498-1.796316 3.991814-3.991814 3.991814H292.450249c-2.195498 0-3.991814-1.796316-3.991814-3.991814V562.845727c0-2.195498 1.796316-3.991814 3.991814-3.991814h439.099502c2.195498 0 3.991814 1.796316 3.991814 3.991814v279.426956z m0-379.222298c0 17.663775-14.270734 31.934509-31.934509 31.934509H320.392944c-17.663775 0-31.934509-14.270734-31.934509-31.934509V255.476074c0-35.327551 28.641263-63.869019 63.869018-63.869018h319.345094c35.227756 0 63.869019 28.541468 63.869018 63.869018v207.574311zM360.311081 830.297242h-15.967255c-13.172985 0-23.950882-10.777897-23.950882-23.950882s10.777897-23.950882 23.950882-23.950882h15.967255c13.172985 0 23.950882 10.777897 23.950882 23.950882s-10.777897 23.950882-23.950882 23.950882zM679.656174 830.297242h-15.967255c-13.172985 0-23.950882-10.777897-23.950882-23.950882s10.777897-23.950882 23.950882-23.950882h15.967255c13.172985 0 23.950882 10.777897 23.950882 23.950882s-10.777897 23.950882-23.950882 23.950882z" /></svg>