<?xml version="1.0" standalone="no"?><!DOCTYPE svg PUBLIC "-//W3C//DTD SVG 1.1//EN" "http://www.w3.org/Graphics/SVG/1.1/DTD/svg11.dtd"><svg class="icon" width="200px" height="200.00px" viewBox="0 0 1024 1024" version="1.1" xmlns="http://www.w3.org/2000/svg"><path fill="#333333" d="M1021.4 110.2c-1.8-4.1-4.4-7.9-8-11.4-7.1-7.1-15.3-10.5-24.9-10.5H353c-9.6 0-17.8 3.5-24.8 10.5s-10.5 15.2-10.5 24.8v176.6h-88.3c-9.6 0-20.2 2.6-32 7.3-11.6 4.6-21 10.5-28 17.5L60.2 434.2c-6.8 6.9-12.8 16.3-17.5 28-4.9 11.8-7.3 22.4-7.3 32v181.9c0 21.8-9.1 42.5-24.6 57.9l-0.2 0.2C3.6 741.2 0.1 749.4 0.1 759c0 9.5 3.5 17.8 10.5 24.8s15.2 10.5 24.8 10.5H106c0 39 13.7 72.4 41.3 100 27.8 27.5 60.9 41.3 100 41.3s72.4-13.7 100-41.3c27.5-27.8 41.3-60.9 41.3-100h211.5c0 39 13.7 72.4 41.3 100 27.8 27.5 60.9 41.3 100 41.3 39 0 72.4-13.7 100-41.3 27.5-27.8 41.3-60.9 41.3-100h106c9.5 0 17.8-3.5 24.8-10.5s10.5-15.2 10.5-24.8V123.6c0-4.8-0.9-9.3-2.6-13.4zM111 483.1l107.6-107.5c2.9-2.6 7-4.4 12.2-5H318v93.3c0 26.5-21.5 48-48 48H106.1l-0.1-16.6c0.9-3.6 2.4-7.8 5-12.2z m186.3 361.2c-13.9 13.7-30.4 20.8-50 20.8s-36.1-6.9-49.9-20.7c-13.8-13.8-20.7-30.5-20.7-49.9 0-19.6 6.9-36.1 20.7-49.9 13.8-13.8 30.3-20.7 49.9-20.7 19.6 0 36.1 6.9 49.9 20.7C311 758.3 318 775 318 794.4c0 19.6-6.9 36.1-20.7 49.9z m494.2 0.1c-13.8 13.6-30.4 20.6-49.9 20.7-19.6 0-36.1-6.9-49.9-20.7-13.8-13.8-20.7-30.5-20.7-49.9 0-19.6 6.9-36.1 20.7-49.9 13.8-13.8 30.3-20.7 49.9-20.7 19.6 0 36.1 6.9 49.9 20.7 13.8 13.8 20.7 30.5 20.7 49.9 0 19.6-6.9 36.1-20.7 49.9zM960 730.5h-99.7c-6.1-11.2-14-21.7-23.5-31.2-25.8-25.8-58.7-39.5-95.2-39.5-36.4 0-69.3 13.7-95.2 39.5-9.5 9.5-17.3 19.9-23.5 31.2h-257c-6.1-11.2-14-21.7-23.5-31.2-25.8-25.8-58.7-39.5-95.2-39.5-36.4 0-69.3 13.7-95.2 39.5-9.5 9.5-17.3 19.9-23.5 31.2H88.7c7-17.1 10.6-35.4 10.6-54.2V575.9H270c61.8 0 112-50.2 112-112V306.6h-0.3V152.2H960v578.3z" /></svg>