<?xml version="1.0" standalone="no"?><!DOCTYPE svg PUBLIC "-//W3C//DTD SVG 1.1//EN" "http://www.w3.org/Graphics/SVG/1.1/DTD/svg11.dtd"><svg class="icon" width="200px" height="200.00px" viewBox="0 0 1024 1024" version="1.1" xmlns="http://www.w3.org/2000/svg"><path fill="#333333" d="M1008 416H16c-8.8 0-16 7.2-16 16v256c0 8.8 7.2 16 16 16h992c8.8 0 16-7.2 16-16V432c0-8.8-7.2-16-16-16zM128 592v-64h352v64H128z m432-32c0-17.7 14.3-32 32-32s32 14.3 32 32-14.3 32-32 32-32-14.3-32-32z m112 0c0-26.5 21.5-48 48-48s48 21.5 48 48-21.5 48-48 48-48-21.5-48-48z m176 48c-26.5 0-48-21.5-48-48s21.5-48 48-48 48 21.5 48 48-21.5 48-48 48zM1020 384H4c-2.2 0-4-1.8-4-4v-28c0-8.8 7.2-16 16-16h992c8.8 0 16 7.2 16 16v28c0 2.2-1.8 4-4 4z" /></svg>