<?xml version="1.0" standalone="no"?><!DOCTYPE svg PUBLIC "-//W3C//DTD SVG 1.1//EN" "http://www.w3.org/Graphics/SVG/1.1/DTD/svg11.dtd"><svg class="icon" width="200px" height="200.00px" viewBox="0 0 1024 1024" version="1.1" xmlns="http://www.w3.org/2000/svg"><path fill="#333333" d="M1024 128v640c0 17.7-14.3 32-32 32H552c-4.4 0-8 3.6-8 8v24c0 17.7 14.3 32 32 32h176c8.8 0 16.8 3.6 22.6 9.4 5.8 5.8 9.4 13.8 9.4 22.6 0 17.7-14.3 32-32 32H272c-8.8 0-16.8-3.6-22.6-9.4-5.8-5.8-9.4-13.8-9.4-22.6 0-17.7 14.3-32 32-32h176c17.7 0 32-14.3 32-32v-24c0-4.4-3.6-8-8-8H32c-17.7 0-32-14.3-32-32V128c0-17.7 14.3-32 32-32h960c17.7 0 32 14.3 32 32z" /></svg>