<?xml version="1.0" standalone="no"?><!DOCTYPE svg PUBLIC "-//W3C//DTD SVG 1.1//EN" "http://www.w3.org/Graphics/SVG/1.1/DTD/svg11.dtd"><svg class="icon" width="200px" height="200.00px" viewBox="0 0 1024 1024" version="1.1" xmlns="http://www.w3.org/2000/svg"><path fill="#333333" d="M799.999359 384.001425H328.00041c-4.39999 0-7.999982-3.599992-7.999983-7.999982V256.00171c0-51.299886 19.999955-99.499778 56.199875-135.799698C412.500222 84.002093 460.700114 64.002137 512 64.002137s99.499778 19.999955 135.799698 56.199875C683.999617 156.501932 703.999573 204.701824 703.999573 256.00171v1.999996c0 16.599963 13.39997 29.999933 29.999933 29.999933h3.999991c16.599963 0 29.999933-13.39997 29.999933-29.999933 0-70.499843-28.799936-134.999699-75.199833-181.899595C646.199701 29.002215 581.899844-0.297719 511.000002 0.00228 370.100316 0.502279 256.00057 114.902024 256.00057 256.00171v119.999733c0 4.39999-3.599992 7.999982-7.999982 7.999982h-23.999947c-52.999882 0-95.999786 42.999904-95.999786 95.999786v447.999003c0 52.999882 42.999904 95.999786 95.999786 95.999786h575.998718c52.999882 0 95.999786-42.999904 95.999786-95.999786V480.001211c0-52.999882-42.999904-95.999786-95.999786-95.999786zM569.699872 748.700613c-15.999964 12.099973-25.699943 30.699932-25.699943 50.799887V864.000356c0 17.499961-14.199968 31.799929-31.59993 31.999929-17.79996 0.2-32.399928-14.799967-32.399928-32.699927V800.000499c0-20.199955-9.599979-39.099913-25.799942-51.299886C431.00018 731.200652 416.000214 703.300714 416.000214 672.000784c0-52.199884 42.399906-95.299788 94.599789-95.999787 53.69988-0.799998 97.399783 42.499905 97.399783 95.999787 0 31.29993-14.999967 59.199868-38.299914 76.699829zM512 672.000784m-31.999929 0a31.999929 31.999929 0 1 0 63.999858 0 31.999929 31.999929 0 1 0-63.999858 0Z" /></svg>