<?xml version="1.0" standalone="no"?><!DOCTYPE svg PUBLIC "-//W3C//DTD SVG 1.1//EN" "http://www.w3.org/Graphics/SVG/1.1/DTD/svg11.dtd"><svg class="icon" width="200px" height="200.00px" viewBox="0 0 1024 1024" version="1.1" xmlns="http://www.w3.org/2000/svg"><path fill="#333333" d="M976 736H48c-26.5 0-48 21.5-48 48v192c0 26.5 21.5 48 48 48h928c26.5 0 48-21.5 48-48V784c0-26.5-21.5-48-48-48zM736 896c0-17.7 14.3-32 32-32s32 14.3 32 32-14.3 32-32 32-32-14.3-32-32z m128 32c-17.7 0-32-14.3-32-32s14.3-32 32-32 32 14.3 32 32-14.3 32-32 32zM696.6 331.6H592c-17.7 0-32 14.3-32 32V672h-96V363.6c0-17.7-14.3-32-32-32H327.4c-3.1 0-5-3.3-3.5-6L508.5 6c1.5-2.7 5.4-2.7 6.9 0L700 325.6c1.6 2.7-0.4 6-3.4 6z" /></svg>