<?xml version="1.0" standalone="no"?><!DOCTYPE svg PUBLIC "-//W3C//DTD SVG 1.1//EN" "http://www.w3.org/Graphics/SVG/1.1/DTD/svg11.dtd"><svg class="icon" width="200px" height="200.00px" viewBox="0 0 1024 1024" version="1.1" xmlns="http://www.w3.org/2000/svg"><path fill="#333333" d="M959.9 976S832 1024 514 1024 64.1 976 64.1 976s0-125.7 63-187.2c12.5-12.2 27.5-21.9 45.5-27.5 5.1-1.6 10.2-3.2 15.2-4.8 102.8-32.6 197.8-65.3 197.8-97.9v-62.3c0-2.2-1.8-3.8-3.8-3.8-0.5 0-1 0.1-1.5 0.3-6.2 2.6-18.3 6-38.4 6-16.1 0-37.3-2.2-64.8-8.8l-25-7.9-59.9-18.9c-10.7-3.4-14.7-16.4-7.7-25.2 21.3-26.7 56.5-81.7 56.5-153.3C241 282 241 111 349.4 42.5 403.3 8.4 456.8 0 497.3 0c5.1 0 10.1 0.1 14.8 0.4 4.5-0.2 9.3-0.3 14.2-0.3 40.6 0 94.2 8.3 148.4 42.5 108.4 68.5 108.4 239.5 108.4 342.2 0 71.6 35.3 126.6 56.5 153.3 7 8.8 3 21.8-7.7 25.2l-60 18.9L747 590c-27.5 6.6-48.7 8.8-64.8 8.8-20.1 0-32.2-3.5-38.3-6-0.5-0.2-1-0.3-1.5-0.3-2 0-3.8 1.6-3.8 3.8v62.3c0 32.5 94.8 65.3 197.6 97.9 5.1 1.6 10.1 3.2 15.2 4.8 18 5.7 33 15.3 45.5 27.5 63 61.5 63 187.2 63 187.2z" /></svg>