<?xml version="1.0" standalone="no"?><!DOCTYPE svg PUBLIC "-//W3C//DTD SVG 1.1//EN" "http://www.w3.org/Graphics/SVG/1.1/DTD/svg11.dtd"><svg class="icon" width="200px" height="200.00px" viewBox="0 0 1024 1024" version="1.1" xmlns="http://www.w3.org/2000/svg"><path fill="#333333" d="M514.699209 63.981255c22.193498 0.499854 37.788929 3.798887 47.68603 9.997072l0.199941 0.09997c0.299912 0.299912 1.099678 1.199649 2.299326 2.899151l13.596017 20.793908c1.199649 1.899444 3.199063 3.199063 5.498389 3.498975l24.592796 3.898858c13.795958 2.199356 24.892707 6.698038 31.190862 12.596309l0.09997 0.099971 0.099971 0.099971c11.29669 10.596895 18.894465 29.991214 21.393732 54.584008v0.199942c4.19877 40.888021-1.799473 87.574343-18.994435 146.757005-5.998243 20.593967-1.699502 42.787465 10.896808 59.682514 2.599239 3.399004 3.698916 7.697745 2.89915 11.996486l-0.09997 0.399883c-0.799766 4.498682-3.598946 8.49751-7.497804 10.796837-17.094992 9.997071-28.991506 27.292004-31.890657 47.686029-2.999121 20.893879-9.79713 41.587816-20.394025 61.382017-5.098506 9.197305-7.397833 11.996485-8.297569 12.896222l-23.193205 17.794787c-0.999707 0.799766-1.599531 1.899444-1.599532 3.199062l-0.09997 29.39139c0 6.198184-0.099971 12.396368-0.199942 18.894464-0.299912 28.791565-0.599824 58.582837 2.999122 89.673729l0.799765 6.598066 2.099385 6.298155c15.295519 45.786586 51.284975 72.378795 76.977448 88.374109l0.799766 0.499854 0.899736 0.499854c31.290833 18.094699 63.281461 31.090891 94.172411 43.687201 35.189691 14.295812 68.479938 27.791858 95.971883 47.186176l0.399883 0.299912 0.399883 0.199941c14.695695 10.097042 33.890071 26.492239 44.686908 48.785707-23.193205 3.998828-52.384653 8.597481-86.674607 13.196134-71.179147 9.597188-178.247779 21.09382-284.316704 21.093821-105.269159 0-210.63829-10.996778-280.517817-20.194084-34.689837-4.598653-64.281168-9.197305-87.774285-13.096163 3.199063-7.397833 5.998243-12.496339 7.997657-15.195549l0.09997-0.199941 0.099971-0.199942c9.497218-13.296105 23.992971-26.292297 44.486967-39.688372 26.69218-16.695109 57.383189-29.191448 89.773699-42.387582 25.29259-10.296983 51.384946-20.893879 77.27736-34.189983l0.799766-0.399883 0.699795-0.399883c22.093527-12.096456 73.878356-40.488138 93.272674-96.97159l2.199355-6.498097 0.799766-6.897979c3.498975-30.591038 3.299033-59.782486 3.099092-88.074197-0.099971-7.097921-0.099971-13.695988-0.09997-20.493996v-29.59133c0-1.199649-0.599824-2.399297-1.599532-3.199063l-23.493117-17.994728c-1.999414-1.699502-5.698331-7.397833-10.796837-16.79508-9.8971-19.194377-16.295226-38.388753-18.894464-57.183247-2.899151-20.094113-14.895636-37.489017-31.890658-47.486088-3.798887-2.299326-6.498096-5.998243-7.397832-10.396954 0-0.199941-0.099971-0.399883-0.099971-0.599824-0.899736-4.398711 0.099971-8.997364 2.79918-12.496339 12.096456-15.995314 16.595138-36.789222 11.696573-56.783364-12.796251-53.084448-17.894757-93.172703-16.395196-129.961926 1.099678-26.392268 5.798301-48.885678 14.195841-66.680464 6.698038-14.195841 16.195255-26.092356 27.591916-34.489896l0.199941-0.199941 0.199942-0.199942c23.193205-17.294933 57.383189-26.192326 104.269452-27.092063m0.099971-63.981255C465.213707 0.799766 412.929025 9.397247 372.041004 39.888314c-20.493996 14.995607-36.789222 35.689544-47.68603 58.882749-13.296105 28.291711-18.994435 59.982427-20.194084 91.27326-1.999414 49.785414 6.498096 99.270917 18.094699 147.4568 0.299912 1.39959-0.099971 2.899151-1.199648 3.898857-11.396661 10.097042-17.494875 25.692473-16.695109 41.087963 0.999707 15.995314 4.098799 32.090598 10.396954 46.886264 5.398418 13.196134 15.695402 25.092649 29.59133 28.291711 0.799766 0.199941 1.39959 0.799766 1.599532 1.699502 3.898858 27.292004 13.096163 53.784243 25.792443 78.277068 6.99795 12.796251 14.495753 25.792444 25.492532 35.289661 1.799473 1.499561 2.79918 3.698916 2.79918 6.098213 0.099971 32.490481 1.199649 65.080933-2.499268 97.371473-10.197013 29.591331-37.788929 47.586059-63.481402 61.68193-56.383481 28.991506-118.365323 45.686615-172.349507 79.576686-23.393147 15.295519-45.586645 33.290247-61.981841 56.383481C82.12594 898.436786 68.13004 945.722933 64.131212 975.714146c-2.399297 2.399297 227.733281 48.285854 447.768817 48.285854 220.335449 0 448.668554-46.986235 447.968759-48.285854-2.299326-18.494582-7.897686-51.085034-15.195548-68.279996-13.895929-34.589866-40.288197-62.681636-70.379381-83.375573-59.582544-42.08767-132.261252-57.683101-194.942888-93.972469-20.793908-12.996193-41.887728-29.791272-50.085326-54.184126-3.698916-32.29054-2.599239-64.880992-2.399297-97.271503 0-2.299326 0.999707-4.498682 2.79918-5.998242 9.697159-8.39754 16.495167-19.594259 22.693351-30.79098 13.695988-25.792444 23.293176-53.884214 27.391975-82.87572 0.099971-0.799766 0.699795-1.499561 1.499561-1.699502 9.597188-2.299326 17.994728-8.39754 23.493117-16.795079 10.796837-16.395197 14.695695-36.389339 16.395197-55.683687 1.599531-16.195255-4.398711-32.890364-16.395197-43.487259-1.199649-0.999707-1.599531-2.599239-1.199648-4.098799 16.095285-55.283804 27.192034-113.266816 21.193791-171.049888-3.498975-34.889778-15.39549-70.679293-41.287904-94.872206-17.794787-16.79508-41.587816-25.492531-65.180904-29.191447-5.798301-8.797423-13.096163-16.79508-22.093528-22.293469C571.982427 4.498682 542.790979 0.499854 514.79918 0z" /></svg>