<?xml version="1.0" standalone="no"?><!DOCTYPE svg PUBLIC "-//W3C//DTD SVG 1.1//EN" "http://www.w3.org/Graphics/SVG/1.1/DTD/svg11.dtd"><svg class="icon" width="200px" height="200.00px" viewBox="0 0 1024 1024" version="1.1" xmlns="http://www.w3.org/2000/svg"><path fill="#333333" d="M959.868788 975.714146c0.599824 1.299619-227.733281 48.285854-447.968759 48.285854-220.035536 0-450.168115-45.786586-447.768817-48.285854 3.998828-29.991214 17.994728-77.27736 35.689544-101.770184 16.495167-23.093234 38.688665-41.187933 61.981841-56.383482 53.984184-33.990042 115.966026-50.685151 172.349507-79.576686 25.692473-14.09587 53.38436-32.090598 63.481402-61.681929 3.798887-32.29054 2.599239-64.880992 2.499268-97.371474 0-2.299326-1.099678-4.598653-2.79918-6.098213-10.996778-9.497218-18.594552-22.49341-25.492532-35.289661-12.69628-24.492824-21.893586-50.885092-25.792443-78.277067-0.099971-0.799766-0.699795-1.499561-1.599532-1.699503-13.9959-3.199063-24.292883-15.195548-29.691301-28.291711-6.298155-14.895636-9.397247-30.89095-10.396954-46.886264-0.799766-15.39549 5.298448-30.990921 16.695109-41.087962 1.099678-0.999707 1.599531-2.499268 1.199648-3.898858-11.596603-48.185883-20.094113-97.671385-18.094699-147.4568 1.299619-31.290833 6.897979-62.981548 20.194084-91.27326 10.896808-23.193205 27.192034-43.887142 47.68603-58.882749C412.929025 9.397247 465.213707 0.799766 514.79918 0c27.991799 0.499854 57.283218 4.498682 81.576101 19.794201 8.997364 5.498389 16.295226 13.496046 22.093527 22.293469 23.593088 3.698916 47.286147 12.396368 65.180904 29.191447 25.892414 24.192912 37.788929 59.982427 41.287904 94.872206 5.898272 57.883042-5.198477 115.866055-21.293762 171.049888-0.399883 1.499561 0 3.099092 1.199649 4.098799 11.996485 10.596895 17.994728 27.292004 16.395197 43.487259-1.799473 19.194377-5.698331 39.188519-16.495168 55.683687-5.498389 8.297569-13.895929 14.395782-23.493117 16.795079-0.799766 0.199941-1.39959 0.799766-1.499561 1.699502-4.098799 28.991506-13.695988 57.083276-27.391975 82.87572-6.198184 11.29669-12.996193 22.393439-22.693351 30.79098a7.787718 7.787718 0 0 0-2.79918 5.998242c-0.199941 32.390511-1.299619 64.980963 2.399297 97.271503 8.197598 24.492824 29.291419 41.287904 50.085326 54.284096 62.681636 36.289368 135.260373 51.884799 194.942888 93.972469 30.091184 20.693937 56.483452 48.685737 70.379381 83.375574 7.297862 17.094992 12.996193 49.685444 15.195548 68.180025z" /></svg>