<?xml version="1.0" standalone="no"?><!DOCTYPE svg PUBLIC "-//W3C//DTD SVG 1.1//EN" "http://www.w3.org/Graphics/SVG/1.1/DTD/svg11.dtd"><svg class="icon" width="200px" height="200.00px" viewBox="0 0 1024 1024" version="1.1" xmlns="http://www.w3.org/2000/svg"><path fill="#333333" d="M959.531723 895.562714c0 35.282772-28.685993 63.968765-63.968765 63.968765H771.123719v63.968765h156.423621c52.974134 0 95.953148-42.979014 95.953148-95.953148V768.124939h-63.968765v127.437775zM927.54734 0H771.123719v63.968765h124.439239c35.282772 0 63.968765 28.586042 63.968765 63.968766V256.374817h63.968765V95.953148c0-52.974134-42.979014-95.953148-95.953148-95.953148zM63.969009 895.562714V768.124939h-63.968765v159.422157c0 52.974134 42.979014 95.953148 95.953148 95.953148H259.373597v-63.968765H127.937775c-35.282772 0-63.968765-28.685993-63.968766-63.968765zM0.000244 95.953148V256.374817h63.968765V127.937531c0-35.382723 28.685993-63.968765 63.968766-63.968766H259.373597v-63.968765H95.953392c-52.974134 0-95.953148 42.979014-95.953148 95.953148zM511.850317 192.406052C238.183943 192.406052 58.17184 426.491752 11.894436 494.158712c-7.49634 10.89468-7.49634 25.287653 0 36.182332C58.17184 598.008004 238.183943 832.093704 511.850317 832.093704c301.852611 0 462.474183-235.385066 501.954905-302.352367 6.296925-10.694778 5.897121-23.988287-1.099463-34.28326C967.927623 429.69019 787.315813 192.406052 511.850317 192.406052z m343.632211 433.488336c-43.678673 41.579697-91.555295 74.663543-142.230551 98.252025-62.769351 29.185749-130.536262 43.978526-201.40166 43.978526-62.769351 0-125.138897-14.392972-185.60937-42.879063-49.675744-23.38858-98.351977-56.372474-144.529429-98.052123-45.077989-40.580185-79.061396-81.660127-100.550903-110.146218-2.098975-2.798633-2.098975-6.796681 0-9.595314 21.389556-28.586042 55.472914-69.665983 100.550903-110.146218 46.177452-41.579697 94.853685-74.563592 144.529429-97.952172 60.370522-28.486091 122.84002-42.879063 185.60937-42.879063s125.138897 14.392972 185.609371 42.879063c49.675744 23.38858 98.351977 56.372474 144.529429 97.952172 47.776672 42.979014 83.159395 86.557735 104.249097 115.143777 0.999512 1.399317 0.999512 3.198438 0.099951 4.597755-1.899073 2.898585-3.898097 5.897121-6.097023 9.095559-16.991703 24.787897-45.377843 62.269595-84.758614 99.751294zM512.250122 272.367008c-132.435334 0-239.88287 107.447535-239.88287 239.88287s107.447535 239.88287 239.88287 239.88287 239.88287-107.447535 239.88287-239.88287-107.447535-239.88287-239.88287-239.88287z m124.439239 364.322109C603.405612 669.872914 559.227184 688.163982 512.250122 688.163982c-46.577257 0-91.455344-18.590922-124.339287-51.474865C354.627086 603.405368 336.336018 559.22694 336.336018 512.249878v-0.199902c0-2.098975 2.998536-2.398829 3.39834-0.399805C354.12733 576.118692 411.599268 624.195217 480.265739 624.195217c79.261298 0 143.929722-64.668424 143.929722-143.929722 0-68.666471-48.076525-126.138409-112.445095-140.531381-1.999024-0.399805-1.69917-3.398341 0.399805-3.39834h0.199902c46.977062 0 91.15549 18.291069 124.339288 51.474865 32.883943 32.983895 51.474866 77.861981 51.474865 124.439239 0 46.977062-18.291069 91.15549-51.474865 124.439239z" /></svg>