<?xml version="1.0" standalone="no"?><!DOCTYPE svg PUBLIC "-//W3C//DTD SVG 1.1//EN" "http://www.w3.org/Graphics/SVG/1.1/DTD/svg11.dtd"><svg class="icon" width="200px" height="200.00px" viewBox="0 0 1024 1024" version="1.1" xmlns="http://www.w3.org/2000/svg"><path fill="#333333" d="M566.8 398.5l-12.9 270.1c-0.2 3.7-3.2 6.6-6.9 6.6h-70c-3.7 0-6.8-2.9-6.9-6.6l-12.9-270.1c-0.4-7.9 5.9-14.5 13.9-14.5h81.8c7.9 0 14.3 6.6 13.9 14.5zM567.5 731.8v55.5c0 15.3-12.4 27.7-27.7 27.7h-55.5c-15.3 0-27.7-12.4-27.7-27.7v-55.5c0-15.3 12.4-27.7 27.7-27.7h55.5c15.2 0 27.7 12.4 27.7 27.7zM511.9 121.5l223.8 387.6 223.8 387.6H64.3l223.8-387.6 223.8-387.6z m0-64c-21.6 0-43.1 10.7-55.4 32L232.7 477.1 8.9 864.7c-24.6 42.7 6.2 96 55.4 96h895.2c49.3 0 80.1-53.3 55.4-96L791.1 477.1 567.3 89.5c-12.3-21.4-33.8-32-55.4-32z" /></svg>