<?xml version="1.0" standalone="no"?><!DOCTYPE svg PUBLIC "-//W3C//DTD SVG 1.1//EN" "http://www.w3.org/Graphics/SVG/1.1/DTD/svg11.dtd"><svg class="icon" width="200px" height="200.00px" viewBox="0 0 1024 1024" version="1.1" xmlns="http://www.w3.org/2000/svg"><path fill="#333333" d="M512 0C229.2 0 0 229.2 0 512s229.2 512 512 512 512-229.2 512-512S794.8 0 512 0z m-32 769v-1c0-17.7 14.3-32 32-32 8.8 0 16.8 3.6 22.6 9.4 5.8 5.8 9.4 13.8 9.4 22.6v1c0 17.7-14.3 32-32 32s-32-14.3-32-32z m64-128.5c0 17.7-14.3 32-32 32s-32-14.3-32-32v-416c0-17.7 14.3-32 32-32 8.8 0 16.8 3.6 22.6 9.4 5.8 5.8 9.4 13.8 9.4 22.6v416z" /></svg>