<?xml version="1.0" standalone="no"?><!DOCTYPE svg PUBLIC "-//W3C//DTD SVG 1.1//EN" "http://www.w3.org/Graphics/SVG/1.1/DTD/svg11.dtd"><svg class="icon" width="200px" height="200.00px" viewBox="0 0 1024 1024" version="1.1" xmlns="http://www.w3.org/2000/svg"><path fill="#333333" d="M1020.1 37c-21.3 39.7-48.2 87.4-69.1 117-11.3 18.3-24 35.7-37.7 52.2l-83.3 100c-32.4 38.8-61 80.6-85.6 124.9l-18.2 32.7c-13.8 24.9-31 47.7-51.1 67.8l23.7 260.2c1.1 12.1 11.2 19.7 21.7 19.7 5.4 0 10.8-2 15.2-6.4 8.2-8.2 16.1-14.7 23.5-19.4 1.5-0.9 3.7-1.4 6.3-1.4 10.6 0 27.1 7.9 20 25.7-4.7 7.4-11.2 15.3-19.4 23.5L614.2 985.2l-30.5-28.5c16.7-16.7 16.7-43.9 0-60.6L430.9 743.4c-3.9-3.9-9.1-5.9-14.2-5.9-5.2 0-10.3 2-14.2 5.9L367 778.9c-16.6 16.6-25.2 39.7-23.4 63.1l-17.9 96.5c1.6 21-6 41.7-20.9 56.5l-0.6 0.6c-13.8 13.8-32.4 21.5-51.8 21.5L204 972c-8.4-8.4-8.4-21.9 0-30.3-8.4-8.4-8.4-21.9 0-30.3l43.8-43.8c1.2-1.2 1.1-3.3-0.5-4.4-0.4-0.3-0.9-0.4-1.4-0.4-0.4 0-0.9 0.1-1.3 0.3l-0.7 0.3c-11.5 5.3-22.9 10.9-33.9 17-7.3 4-15.4 6-23.5 6-12.6 0-25.2-4.9-34.7-14.5-15.1-15.3-17.8-38.6-8.1-57.2 5.6-10.9 11.3-21.7 16.4-32.8l0.8-1.7c1-1.2 0.7-3.1-0.6-4-0.5-0.3-1-0.5-1.6-0.5-0.8 0-1.6 0.3-2.2 0.9L113 820.2c-4.2 4.2-9.7 6.3-15.1 6.3-5.5 0-11-2.1-15.2-6.3-4.2 4.2-9.7 6.3-15.1 6.3-5.5 0-11-2.1-15.1-6.3L7.3 772c0-19.4 7.7-38 21.4-51.7 14-14 32.9-21.7 52.5-21.7 1.9 0 3.8 0.1 5.7 0.2 1.9 0.2 3.8 0.2 5.7 0.2 30.3 0 52.8-18.5 84-18.5 1.9 0 3.8 0.1 5.8 0.2 2.1 0.2 4.1 0.2 6.2 0.2 21.2 0 41.6-8.1 56.7-23.2l35.9-35.9c7.9-7.9 7.9-20.6 0-28.5l-153-152.9c-8.4-8.4-19.3-12.5-30.3-12.5s-21.9 4.2-30.3 12.5l-29.5-30.5 151.8-151.8c8.2-8.2 16-14.7 23.5-19.4 3.1-1.2 5.9-1.8 8.4-1.8 16 0 20.8 21.6 16.9 28.1-4.7 7.4-11.2 15.3-19.4 23.5l-0.1 0.1c-13 13-4.9 35.2 13.3 36.9l260.1 24 0.1-0.1c20-20 42.7-37.2 67.5-50.9l33.4-18.6c43.8-24.4 85.2-52.8 123.7-84.8l101-84.1c16.4-13.7 33.8-26.2 51.9-37.5 29.4-21.1 77-48 116.7-69.4 3.9-2.1 7.9-3 11.7-3 17.1-0.2 30.8 18.5 21.5 35.9z" /></svg>