<?xml version="1.0" standalone="no"?><!DOCTYPE svg PUBLIC "-//W3C//DTD SVG 1.1//EN" "http://www.w3.org/Graphics/SVG/1.1/DTD/svg11.dtd"><svg class="icon" width="200px" height="200.00px" viewBox="0 0 1024 1024" version="1.1" xmlns="http://www.w3.org/2000/svg"><path fill="#333333" d="M693.1 347.2c11.8 0 23.4 1 35 2.2-31.4-146-187.5-254.5-365.7-254.5C163.2 94.9 0 230.6 0 403.1c0 99.5 54.3 181.2 145 244.7l-36.2 108.9 126.7-63.5c45.3 8.9 81.7 18.1 126.9 18.1 11.4 0 22.7-0.5 33.8-1.3-7.3-24.7-11.1-50.3-11.2-76 0.1-158.3 136-286.8 308.1-286.8z m-194.8-98.1c27.4 0 45.4 17.9 45.4 45.2 0 27.1-18 45.3-45.4 45.3-27.1 0-54.3-18.2-54.3-45.3 0-27.3 27.2-45.2 54.3-45.2z m-253.6 90.4c-27.2 0-54.6-18.2-54.6-45.3 0-27.3 27.4-45.2 54.6-45.2s45.2 17.9 45.2 45.2c0 27.1-18 45.3-45.2 45.3zM1024 629.7c0-144.9-145-263-307.9-263-172.5 0-308.2 118.2-308.2 263 0 145.3 135.8 263 308.2 263 36.1 0 72.5-9 108.7-18.1l99.4 54.5-27.2-90.6c72.7-54.7 127-127 127-208.8z m-407.9-45.4c-18 0-36.2-17.9-36.2-36.2 0-18 18.2-36.2 36.2-36.2 27.5 0 45.4 18.2 45.4 36.2 0 18.3-17.9 36.3-45.4 36.2z m199.4 0c-17.9 0-36-17.9-36-36.2 0-18 18.1-36.2 36-36.2 27.3 0 45.4 18.2 45.4 36.2 0 18.3-18.1 36.3-45.4 36.2z" /></svg>