<?xml version="1.0" standalone="no"?><!DOCTYPE svg PUBLIC "-//W3C//DTD SVG 1.1//EN" "http://www.w3.org/Graphics/SVG/1.1/DTD/svg11.dtd"><svg class="icon" width="200px" height="200.00px" viewBox="0 0 1024 1024" version="1.1" xmlns="http://www.w3.org/2000/svg"><path fill="#333333" d="M512 64c26.5 0 48 21.5 48 48s-21.5 48-48 48-48-21.5-48-48 21.5-48 48-48m0-64c-61.9 0-112 50.1-112 112s50.1 112 112 112 112-50.1 112-112S573.9 0 512 0zM616 576h-24c-17.7 0-32 14.3-32 32v224c0 17.7-14.3 32-32 32h-32c-17.7 0-32-14.3-32-32V608c0-17.7-14.3-32-32-32h-24c-4.4 0-8-3.6-8-8V336c0-8.8 7.2-16 16-16h192c8.8 0 16 7.2 16 16v232c0 4.4-3.6 8-8 8zM336 320v304c0 8.8 7.2 16 16 16h40c4.4 0 8 3.6 8 8v216c0 35.3 28.7 64 64 64h96c35.3 0 64-28.7 64-64V648c0-4.4 3.6-8 8-8h40c8.8 0 16-7.2 16-16V320c0-35.3-28.7-64-64-64H400c-35.3 0-64 28.7-64 64zM832 880c0 79.5-143.3 144-320 144s-320-64.5-320-144c0-53.7 65.3-100.5 162.2-125.3 15.1-3.9 29.8 7.6 29.8 23.2 0 10.9-7.4 20.4-17.9 23.2C299.5 818.4 256 847.3 256 880c0 53 114.6 96 256 96s256-43 256-96c0-32.7-43.5-61.6-110.1-78.9-10.6-2.7-17.9-12.3-17.9-23.2 0-15.6 14.7-27.1 29.8-23.2C766.7 779.5 832 826.3 832 880z" /></svg>