<?xml version="1.0" standalone="no"?><!DOCTYPE svg PUBLIC "-//W3C//DTD SVG 1.1//EN" "http://www.w3.org/Graphics/SVG/1.1/DTD/svg11.dtd"><svg class="icon" width="200px" height="200.00px" viewBox="0 0 1024 1024" version="1.1" xmlns="http://www.w3.org/2000/svg"><path fill="#333333" d="M0.000244 95.953148v831.593948c0 52.974134 42.979014 95.953148 95.953148 95.953148h831.593948c52.974134 0 95.953148-42.979014 95.953148-95.953148v-831.593948c0-52.974134-42.979014-95.953148-95.953148-95.953148h-831.593948c-52.974134 0-95.953148 42.979014-95.953148 95.953148z m895.562714 863.578331h-767.625183c-35.282772 0-63.968765-28.685993-63.968766-63.968765v-767.625183c0-35.282772 28.685993-63.968765 63.968766-63.968766h767.625183c35.282772 0 63.968765 28.685993 63.968765 63.968766v767.625183c0 35.282772-28.685993 63.968765-63.968765 63.968765zM416.296974 208.398243v191.906296c0 8.795705-7.196486 15.992191-15.992191 15.992191H208.398487c-8.795705 0-15.992191-7.196486-15.992191-15.992191V208.398243c0-8.795705 7.196486-15.992191 15.992191-15.992191h191.906296c8.795705 0 15.992191 7.196486 15.992191 15.992191z m-287.859443-47.976574v287.859444c0 17.691362 14.293021 31.984383 31.984382 31.984382h287.859444c17.691362 0 31.984383-14.293021 31.984382-31.984382V160.421669c0-17.691362-14.293021-31.984383-31.984382-31.984383H160.421913c-17.691362 0-31.984383 14.293021-31.984382 31.984383zM832.093948 208.398243v191.906296c0 8.795705-7.196486 15.992191-15.992191 15.992191H624.195461c-8.795705 0-15.992191-7.196486-15.992191-15.992191V208.398243c0-8.795705 7.196486-15.992191 15.992191-15.992191h191.906296c8.795705 0 15.992191 7.196486 15.992191 15.992191z m-287.859443-47.976574v287.859444c0 17.691362 14.293021 31.984383 31.984382 31.984382h287.859444c17.691362 0 31.984383-14.293021 31.984383-31.984382V160.421669c0-17.691362-14.293021-31.984383-31.984383-31.984383H576.218887c-17.691362 0-31.984383 14.293021-31.984382 31.984383zM416.296974 624.195217v191.906296c0 8.795705-7.196486 15.992191-15.992191 15.992191H208.398487c-8.795705 0-15.992191-7.196486-15.992191-15.992191V624.195217c0-8.795705 7.196486-15.992191 15.992191-15.992191h191.906296c8.795705 0 15.992191 7.196486 15.992191 15.992191z m-287.859443-47.976574v287.859444c0 17.691362 14.293021 31.984383 31.984382 31.984382h287.859444c17.691362 0 31.984383-14.293021 31.984382-31.984382V576.218643c0-17.691362-14.293021-31.984383-31.984382-31.984382H160.421913c-17.691362 0-31.984383 14.293021-31.984382 31.984382zM832.093948 624.195217v191.906296c0 8.795705-7.196486 15.992191-15.992191 15.992191H624.195461c-8.795705 0-15.992191-7.196486-15.992191-15.992191V624.195217c0-8.795705 7.196486-15.992191 15.992191-15.992191h191.906296c8.795705 0 15.992191 7.196486 15.992191 15.992191z m-287.859443-47.976574v287.859444c0 17.691362 14.293021 31.984383 31.984382 31.984382h287.859444c17.691362 0 31.984383-14.293021 31.984383-31.984382V576.218643c0-17.691362-14.293021-31.984383-31.984383-31.984382H576.218887c-17.691362 0-31.984383 14.293021-31.984382 31.984382z" /></svg>