<?xml version="1.0" standalone="no"?><!DOCTYPE svg PUBLIC "-//W3C//DTD SVG 1.1//EN" "http://www.w3.org/Graphics/SVG/1.1/DTD/svg11.dtd"><svg class="icon" width="200px" height="200.00px" viewBox="0 0 1024 1024" version="1.1" xmlns="http://www.w3.org/2000/svg"><path fill="#333333" d="M512 162c-201.1 0-382.1 86.3-507.9 223.9l48 42.4c6.1-6.6 12.3-13.1 18.6-19.5 28.3-28.3 59.3-53.9 92.4-76.2 33.4-22.5 69-41.9 106-57.5 76.9-32.5 158.6-49 242.9-49s166 16.5 242.9 49c37 15.6 72.6 35 106 57.5 33.1 22.3 64.1 48 92.4 76.2 6.4 6.4 12.6 12.8 18.6 19.5l48-42.4C894.1 248.3 713.1 162 512 162zM512 322c-153.3 0-291.4 65.4-387.9 169.8l48 42.3c3.8-4.1 7.8-8.2 11.8-12.2 42.6-42.6 92.3-76.1 147.5-99.5C388.6 398.3 449.3 386 512 386s123.4 12.3 180.6 36.4c55.3 23.4 104.9 56.8 147.5 99.5 4 4 7.9 8.1 11.8 12.2l48-42.3C803.4 387.4 665.3 322 512 322zM512 514c-96 0-182.6 40.3-243.8 104.8l48 42.4c1.1-1.2 2.3-2.4 3.5-3.6 25-25 54.1-44.6 86.5-58.3C439.6 585.2 475.3 578 512 578s72.4 7.2 105.8 21.3c32.4 13.7 61.5 33.3 86.5 58.3 1.2 1.2 2.3 2.4 3.5 3.6l48-42.4C694.6 554.3 608 514 512 514zM512 674c-48.2 0-91.9 19.4-123.7 50.8l48.1 42.5c20.7-18.9 47.3-29.3 75.6-29.3s54.9 10.4 75.6 29.3l48.1-42.5C603.9 693.4 560.2 674 512 674zM512 832m-32 0a32 32 0 1 0 64 0 32 32 0 1 0-64 0Z" /></svg>