<?xml version="1.0" standalone="no"?><!DOCTYPE svg PUBLIC "-//W3C//DTD SVG 1.1//EN" "http://www.w3.org/Graphics/SVG/1.1/DTD/svg11.dtd"><svg class="icon" width="200px" height="200.00px" viewBox="0 0 1024 1024" version="1.1" xmlns="http://www.w3.org/2000/svg"><path fill="#333333" d="M512 128c-212.1 0-384 171.9-384 384s171.9 384 384 384 384-171.9 384-384-171.9-384-384-384z m224 368c0 17.7-14.3 32-32 32-8.8 0-16.8-3.6-22.6-9.4-5.8-5.8-9.4-13.8-9.4-22.6v-89.1c0-3.6-4.3-5.3-6.8-2.8L404.1 665.2c-2.5 2.5-0.7 6.8 2.8 6.8H496c17.7 0 32 14.3 32 32 0 8.8-3.6 16.8-9.4 22.6-5.8 5.8-13.8 9.4-22.6 9.4H352c-35.3 0-64-28.7-64-64V528c0-17.7 14.3-32 32-32 8.8 0 16.8 3.6 22.6 9.4 5.8 5.8 9.4 13.8 9.4 22.6v89.1c0 3.6 4.3 5.4 6.8 2.8l261.1-261.1c2.5-2.5 0.7-6.8-2.8-6.8H528c-17.7 0-32-14.3-32-32 0-8.8 3.6-16.8 9.4-22.6 5.8-5.8 13.8-9.4 22.6-9.4h144c35.3 0 64 28.6 64 64v144z" /></svg>