<?xml version="1.0" standalone="no"?><!DOCTYPE svg PUBLIC "-//W3C//DTD SVG 1.1//EN" "http://www.w3.org/Graphics/SVG/1.1/DTD/svg11.dtd"><svg class="icon" width="200px" height="200.00px" viewBox="0 0 1024 1024" version="1.1" xmlns="http://www.w3.org/2000/svg"><path fill="#333333" d="M288 352v288c0 26.5 21.5 48 48 48h352c26.5 0 48-21.5 48-48V352c0-8.8-7.2-16-16-16H304c-8.8 0-16 7.2-16 16z m68 48h312c2.2 0 4 1.8 4 4v24c0 2.2-1.8 4-4 4H356c-2.2 0-4-1.8-4-4v-24c0-2.2 1.8-4 4-4z m300 224H368c-8.8 0-16-7.2-16-16V500c0-2.2 1.8-4 4-4h312c2.2 0 4 1.8 4 4v108c0 8.8-7.2 16-16 16z" /></svg>