<?xml version="1.0" standalone="no"?><!DOCTYPE svg PUBLIC "-//W3C//DTD SVG 1.1//EN" "http://www.w3.org/Graphics/SVG/1.1/DTD/svg11.dtd"><svg class="icon" width="200px" height="200.00px" viewBox="0 0 1024 1024" version="1.1" xmlns="http://www.w3.org/2000/svg"><path fill="#333333" d="M562.9 517.7l173.1 173c12.5 12.5 12.5 32.8 0 45.3s-32.8 12.5-45.3 0l-173-173.1c-3.1-3.1-8.2-3.1-11.3 0L333.3 736c-12.5 12.5-32.8 12.5-45.3 0s-12.5-32.8 0-45.3l173.1-173.1c3.1-3.1 3.1-8.2 0-11.3L288 333.3c-12.5-12.5-12.5-32.8 0-45.3s32.8-12.5 45.3 0l173.1 173.1c3.1 3.1 8.2 3.1 11.3 0l173-173.1c12.5-12.5 32.8-12.5 45.3 0s12.5 32.8 0 45.3l-173.1 173a8.15 8.15 0 0 0 0 11.4z" /></svg>