<?xml version="1.0" standalone="no"?><!DOCTYPE svg PUBLIC "-//W3C//DTD SVG 1.1//EN" "http://www.w3.org/Graphics/SVG/1.1/DTD/svg11.dtd"><svg class="icon" width="200px" height="200.00px" viewBox="0 0 1024 1024" version="1.1" xmlns="http://www.w3.org/2000/svg"><path fill="#333333" d="M590.696266 0.048588C344.907929-3.551241 144.517437 193.339416 144.017461 439.127753c-0.199991 91.195673 27.3987 175.991649 74.696456 246.288313 17.199184 25.49879 14.099331 59.497177-7.59964 81.296143l-7.99962 7.99962c-6.199706 6.199706-16.399222 6.199706-22.598928 0l-98.19534-98.195341c-6.199706-6.199706-16.399222-6.199706-22.598928 0l-22.598928 22.598928c-6.199706 6.199706-6.199706 16.399222 0 22.598928l98.195341 98.19534c6.199706 6.199706 6.199706 16.399222 0 22.598928l-122.994164 122.994164c-6.199706 6.199706-6.199706 16.399222 0 22.598927l22.598928 22.598928c6.199706 6.199706 16.399222 6.199706 22.598928 0l122.994163-122.994164c6.199706-6.199706 16.399222-6.199706 22.598928 0l99.195293 99.195293c6.199706 6.199706 16.399222 6.199706 22.598928 0l22.598927-22.598927c6.199706-6.199706 6.199706-16.399222 0-22.598928l-99.195293-99.195293c-6.199706-6.199706-6.199706-16.399222 0-22.598928l7.79963-7.79963c21.798966-21.798966 55.897348-24.798823 81.396138-7.499644 70.39666 47.697737 155.292631 75.496418 246.588299 75.396423 246.088323-0.099995 443.378961-200.590482 439.679137-446.678805C1020.375877 195.639307 828.384987 3.648417 590.696266 0.048588z m259.187701 705.866506c-34.498363 34.498363-74.796451 61.697072-119.49433 80.596175C683.991839 806.110339 634.794173 816.009869 583.996584 816.009869s-99.995255-9.89953-146.293059-29.4986c-44.797874-18.899103-84.995967-46.097813-119.494329-80.596175s-61.697072-74.796451-80.596176-119.49433C217.913955 540.022965 208.014424 490.8253 208.014424 440.02771c0-50.79759 9.89953-99.995255 29.498601-146.293058 18.899103-44.797874 46.097813-84.995967 80.596175-119.49433 34.498363-34.598358 74.796451-61.697072 119.49433-80.596176C484.001329 73.945081 533.198994 64.045551 583.996584 64.045551s99.995255 9.89953 146.293058 29.4986c44.797874 18.899103 84.995967 46.097813 119.49433 80.596176 34.498363 34.498363 61.697072 74.796451 80.596175 119.49433C950.079213 340.032455 959.978743 389.230121 959.978743 440.02771c0 50.79759-9.89953 99.995255-29.4986 146.293058-18.999098 44.797874-46.097813 84.995967-80.596176 119.594326z" /></svg>