<?xml version="1.0" standalone="no"?><!DOCTYPE svg PUBLIC "-//W3C//DTD SVG 1.1//EN" "http://www.w3.org/Graphics/SVG/1.1/DTD/svg11.dtd"><svg class="icon" width="200px" height="200.00px" viewBox="0 0 1024 1024" version="1.1" xmlns="http://www.w3.org/2000/svg"><path fill="#333333" d="M618.3 647.6c33.6-29.8 54.5-73.6 53.7-122.2-1.4-87.8-74.3-158.5-162-157.4-87.5 1.1-158 72.3-158 160 0 47.6 20.8 90.4 53.8 119.7 3.8 3.4 3.5 9.3-0.5 12.4-42.1 32.2-69.3 82.9-69.3 140 0 17.7 14.3 32 32 32h288c17.7 0 32-14.3 32-32 0-57.1-27.2-107.8-69.3-140-4-3.2-4.2-9.1-0.4-12.5zM416 528c0-52.9 43.1-96 96-96s96 43.1 96 96-43.1 96-96 96-96-43.1-96-96z m-0.1 240c-5.7 0-9.6-5.8-7.4-11.1 5.6-13.3 13.7-25.6 24.2-36.1C454 699.6 482.1 688 512 688s58 11.6 79.2 32.8c10.5 10.5 18.7 22.8 24.2 36.1 2.2 5.3-1.6 11.1-7.4 11.1H415.9zM192 64v896c0 35.3 28.7 64 64 64h512c35.3 0 64-28.7 64-64V64c0-35.3-28.7-64-64-64H256c-35.3 0-64 28.7-64 64z m80 0h480c8.8 0 16 7.2 16 16v96c0 8.8-7.2 16-16 16H272c-8.8 0-16-7.2-16-16V80c0-8.8 7.2-16 16-16z m480 896H272c-8.8 0-16-7.2-16-16V272c0-8.8 7.2-16 16-16h480c8.8 0 16 7.2 16 16v672c0 8.8-7.2 16-16 16zM592 160H432c-17.7 0-32-14.3-32-32s14.3-32 32-32h160c17.7 0 32 14.3 32 32s-14.3 32-32 32z" /></svg>