<?xml version="1.0" standalone="no"?><!DOCTYPE svg PUBLIC "-//W3C//DTD SVG 1.1//EN" "http://www.w3.org/Graphics/SVG/1.1/DTD/svg11.dtd"><svg class="icon" width="200px" height="199.80px" viewBox="0 0 1025 1024" version="1.1" xmlns="http://www.w3.org/2000/svg"><path fill="#333333" d="M1017.402733 271.493948c-1.299492-6.197579-2.798907-12.395158-4.498243-18.492777-6.497462-23.590785-36.085904-31.387739-53.479109-14.094494L786.692854 411.739164c-22.991019 22.991019-53.778993 35.68606-86.766107 35.686061-32.887153 0-63.675127-12.695041-86.666146-35.686061-22.991019-22.991019-35.68606-53.778993-35.68606-86.666146 0-32.887153 12.695041-63.675127 35.68606-86.766107L772.398438 79.169075l13.59469-13.59469c17.293245-17.293245 9.596251-46.981648-14.094495-53.47911-6.097618-1.699336-12.295197-3.19875-18.492776-4.498243C730.114955 2.598985 705.924405 0 681.134088 0 491.508161 0 337.068489 154.539633 337.268411 344.16556c0 24.190551 2.499024 47.881296 7.297149 70.672394 4.398282 21.091761-2.199141 42.883249-17.393205 58.077313L46.182116 753.905506C15.394143 784.693479 0.000156 825.277626 0.000156 865.861773c0 40.584147 15.393987 81.168294 46.18196 111.956267s71.37212 46.18196 111.956267 46.18196 81.168294-15.393987 111.956268-46.18196l280.290511-280.290512c15.294026-15.294026 37.285435-21.891449 58.377196-17.393205 22.791097 4.898087 46.481843 7.497071 70.772355 7.597032 190.125732 0.799688 345.465053-153.739945 345.465053-343.865678 0-24.790316-2.598985-48.980867-7.597033-72.371729zM939.033346 452.823116c-14.094494 33.286997-34.286607 63.275283-59.976571 88.965248-25.689965 25.689965-55.678251 45.882077-88.965248 59.976572-34.486529 14.594299-71.072237 21.99141-108.957439 21.991409-29.188598 0-57.777431-4.398282-85.266692-13.194846l-18.592738-5.897696c-11.395549-3.598594-23.890668-0.599766-32.387348 7.896915L531.192659 626.255369 224.9123 932.535728c-17.693089 17.693089-41.383834 27.489262-66.773917 27.489262s-48.980867-9.796173-66.773916-27.489262c-17.693089-17.693089-27.489262-41.383834-27.489262-66.773916 0-25.290121 9.796173-48.980867 27.489262-66.773917l306.880125-306.880125 13.69465-13.69465c8.39672-8.39672 11.49551-20.891839 7.896916-32.187427l-5.797736-18.492776C405.541742 400.843421 401.243421 372.554471 401.243421 343.865677c0-37.78524 7.397111-74.47091 21.991409-108.957438 14.094494-33.286997 34.286607-63.275283 59.976572-88.965248 25.689965-25.689965 55.678251-45.882077 88.965248-59.976572 34.486529-14.594299 71.072237-21.99141 108.957438-21.991409h0.199922c5.797735 0 8.796564 7.097228 4.598204 11.195626L569.177821 191.925029c-72.571652 72.571652-74.370949 190.625537-2.399063 263.896916 18.392815 18.792659 39.88442 32.787193 62.87544 42.083561 22.491214 9.096447 46.381882 13.59469 70.272549 13.594689 47.781335 0 95.662632-18.192893 131.948458-54.478719l117.953924-117.953924c4.098399-4.098399 11.195627-1.199531 11.195627 4.598204v0.199921c0 37.78524-7.397111 74.47091-21.99141 108.957439z" /></svg>