<?xml version="1.0" standalone="no"?><!DOCTYPE svg PUBLIC "-//W3C//DTD SVG 1.1//EN" "http://www.w3.org/Graphics/SVG/1.1/DTD/svg11.dtd"><svg class="icon" width="200px" height="200.00px" viewBox="0 0 1024 1024" version="1.1" xmlns="http://www.w3.org/2000/svg"><path fill="#333333" d="M512 0C229.2 0 0 229.2 0 512s229.2 512 512 512 512-229.2 512-512S794.8 0 512 0zM351.4 175c98.3-79.5 202.6-71.3 256-43.2 40.3 21.2 103.3 56.6 203 173 50.3 58.7 84.9 118.1 92.8 133.9 2.1 4.4 3.7 9 4.7 13.8 2.6 11.5 4.1 23.3 4.5 35.1-39.2-56.3-75.1-106.3-130-166.2-42.9-44.2-72.3-70.4-105.5-96.9-89-71.1-180.2-65.2-258-5.1-46 35.8-125.5 108.1-198.9 178.9-4.8 5.1-10.6 6.3-16 1.7-16.4-15.9-31.9-32.7-46.5-50.3C181.8 323.1 277.3 235 351.4 175zM113.6 470.8c1.6-11.3 4.2-23.7 4.2-23.7 17.5 25.3 119.4 161.1 234.6 247.4 47.4 35.6 99.3 32.2 143.7-5.5C512 676.3 630 572.3 687.8 514.1c8.6-8.6 18.6-10.1 26.8-3 18.7 15.4 36.3 32 52.8 49.6C737.9 594 587.8 733.4 551.3 760c-58.2 42.5-116.5 33.9-167 6.3-44.1-24-159.1-120.3-267.2-276.3-5.7-8.4-3.6-18.5-3.5-19.2z m559.3 370.7c-98.3 79.5-202.6 71.3-256 43.2-40.3-21.2-103.3-56.6-203-173-50.2-58.7-84.9-118.1-92.8-134-2.1-4.4-3.6-9-4.7-13.7-4.8-20.5-4.5-35.1-4.5-35.1 39.2 56.3 75 106.4 129.9 166.2 43 44.2 72.4 70.5 105.5 96.9 89 71 180.2 65.3 258 5.1 46.1-35.6 125.6-107.9 198.9-178.8 4.8-5.1 10.6-6.3 16.1-1.6 16.4 15.9 31.8 32.7 46.4 50.3-24.2 26.4-119.7 114.6-193.8 174.5z m220.6-228.8c-3.3 8.5-9.4 21-9.4 21-0.3-0.3-25.4-32.7-58.2-67.3-44.7-47.1-82.5-82-105.7-101.9-14.5-12.4-27.7-18.5-40.2-19.1-14.1-0.4-26.7 5.6-36.5 14.8-3 2.8-8.8 8.2-16.8 15.4-37.2 34.5-115.8 106.5-157.7 141.9-6.1 5.5-11.1 9.9-14.5 12.8-17.2 15-36.6 23.3-56.7 23.5-20.1 0.3-40.9-7.4-60.8-24.6-109-93.8-188-188.3-205.2-213.1-1.4-1.9-3.7-6.3-1-13.3 3.3-8.4 9.1-20.4 9.1-20.4s26.3 32 58.1 67.7c51.8 58.2 96.1 93 105.7 101.9 14 13 27.7 18.6 40.1 19.1 14.1 0.5 26.7-5.6 36.6-14.8 3-2.7 132.7-122 174.6-157.3 6.1-5.4 11.1-9.9 14.5-12.8 17.3-15 36.6-23.2 56.7-23.5s40.4 8 60.8 24.6c29.2 23.6 134.8 119.3 205.4 212.7v-0.1c1.5 1.9 3.8 5.8 1.1 12.8z m17.2-67c-1.6 11.2-4.2 23.7-4.2 23.7-17.5-25.3-119.4-161.1-234.6-247.5-47.5-35.6-99.3-32.2-143.7 5.6-15.9 12.7-133.9 116.7-191.7 174.8-8.5 8.7-18.5 10.1-26.7 3.1-18.7-15.4-36.3-31.9-52.8-49.6 29.5-33.3 179.6-172.7 216-199.4 58.2-42.5 116.5-33.9 167-6.3 44.1 24 159.1 120.3 267.2 276.4 5.7 8.5 3.6 18.6 3.5 19.2z" /></svg>