<?xml version="1.0" standalone="no"?><!DOCTYPE svg PUBLIC "-//W3C//DTD SVG 1.1//EN" "http://www.w3.org/Graphics/SVG/1.1/DTD/svg11.dtd"><svg class="icon" width="200px" height="200.00px" viewBox="0 0 1024 1024" version="1.1" xmlns="http://www.w3.org/2000/svg"><path fill="#333333" d="M0 64v896c0 35.3 28.7 64 64 64h896c35.3 0 64-28.7 64-64V64c0-35.3-28.7-64-64-64H64C28.7 0 0 28.7 0 64z m944 896H80c-8.8 0-16-7.2-16-16V80c0-8.8 7.2-16 16-16h416c8.8 0 16 7.2 16 16v76c0 2.2-1.8 4-4 4h-56c-2.2 0-4 1.8-4 4v120c0 2.2 1.8 4 4 4h56c2.2 0 4 1.8 4 4v72c0 2.2-1.8 4-4 4h-56c-2.2 0-4 1.8-4 4v88c0 2.2-1.8 4-4 4-15.5 0-28 12.5-28 28v168c0 15.5 12.5 28 28 28h136c15.5 0 28-12.5 28-28V492c0-15.5-12.5-28-28-28h-64c-2.2 0-4-1.8-4-4v-56c0-2.2 1.8-4 4-4h56c2.2 0 4-1.8 4-4V260c0-2.2-1.8-4-4-4h-56c-2.2 0-4-1.8-4-4v-56c0-2.2 1.8-4 4-4h56c2.2 0 4-1.8 4-4V80c0-8.8 7.2-16 16-16h352c8.8 0 16 7.2 16 16v864c0 8.8-7.2 16-16 16zM484 528h56c2.2 0 4 1.8 4 4v88c0 2.2-1.8 4-4 4h-56c-2.2 0-4-1.8-4-4v-88c0-2.2 1.8-4 4-4z" /></svg>